<svg width="824" height="275" viewBox="0 0 824 275" fill="none" xmlns="http://www.w3.org/2000/svg">
<g clip-path="">
<path d="M29.0755 0.0325656C29.3108 -0.0649862 29.5927 0.064732 29.6428 0.313503L37.7134 40.3501C37.7524 40.5433 37.6327 40.7333 37.4408 40.7821L27.634 43.2879C27.4293 43.3401 27.2218 43.2125 27.1772 43.0068L21.6475 17.5301L16.1182 43.0068C16.0735 43.2125 15.866 43.3401 15.6613 43.2879L5.85417 40.7821C5.66241 40.7333 5.5426 40.5433 5.58156 40.3501L13.6525 0.313503C13.7026 0.064774 13.9842 -0.0648927 14.2195 0.0325656C16.1532 0.834311 19.8485 0.993191 21.6241 0.966352L21.6244 0.966034H21.6709C23.4464 0.992886 27.1417 0.834325 29.0755 0.0325656Z" fill="#E61717"/>
<path d="M73.6088 0.660242C75.8611 0.656118 77.8522 -0.0974232 78.3325 0.0105933C78.8145 0.119149 81.8523 1.7797 84.927 3.04324C88.002 4.30688 88.4464 4.8126 89.5207 5.96794C90.3801 6.89219 93.5591 11.6962 95.0411 13.9828C95.456 14.7049 95.2261 15.355 94.7816 15.68C93.5345 16.39 90.8768 17.882 90.2247 18.1709C89.4098 18.5319 89.0762 18.4599 88.78 18.3516C88.4838 18.2433 86.4461 16.0052 86.2979 15.8965C85.9272 16.4742 85.668 17.2324 85.5568 19.5791C85.4456 21.926 86.1122 39.5086 86.1122 40.5917C86.1122 41.6748 86.2234 42.3607 84.2601 42.6497C82.6959 42.8797 76.5448 43.1762 73.6274 43.2976V43.2996C73.6212 43.2992 73.615 43.2989 73.6088 43.2986C73.6026 43.2989 73.5964 43.2992 73.5902 43.2996V43.2979C70.6728 43.1765 64.5217 42.8797 62.9575 42.6497C60.9941 42.3607 61.1053 41.6748 61.1053 40.5917C61.1053 39.5086 61.7719 21.926 61.6608 19.5791C61.5497 17.2324 61.2903 16.4742 60.9199 15.8965C60.7714 16.0052 58.7339 18.2433 58.4376 18.3516C58.1412 18.4599 57.8078 18.5319 56.9928 18.1709C56.3407 17.882 53.6833 16.39 52.436 15.68C51.9915 15.355 51.7616 14.7049 52.1765 13.9828C53.6585 11.6962 56.8374 6.89219 57.6969 5.96794C58.7713 4.8126 59.2157 4.30688 62.2906 3.04324C65.3653 1.7797 68.4031 0.119149 68.8851 0.0105933C69.3654 -0.0974232 71.3565 0.656118 73.6088 0.660242Z" fill="#E61717"/>
<path d="M131.561 0.0333798C131.803 -0.0666108 132.092 0.0663503 132.143 0.32134L140.415 41.3589C140.455 41.5569 140.333 41.7516 140.136 41.8017L130.084 44.3701C129.874 44.4236 129.661 44.2928 129.616 44.082L123.948 17.9683L118.28 44.082C118.234 44.2928 118.022 44.4236 117.812 44.3701L107.76 41.8017C107.563 41.7516 107.44 41.5569 107.48 41.3589L115.753 0.32134C115.804 0.0663934 116.093 -0.066515 116.334 0.0333798C118.316 0.855169 122.104 1.01802 123.924 0.990511L123.924 0.990185H123.972C125.792 1.01771 129.579 0.855183 131.561 0.0333798Z" fill="#E61717"/>
<path d="M175.365 0.660242C177.617 0.656118 179.608 -0.0974232 180.088 0.0105933C180.57 0.119149 183.608 1.7797 186.683 3.04324C189.758 4.30688 190.202 4.8126 191.277 5.96794C192.136 6.89219 195.315 11.6962 196.797 13.9828C197.212 14.7049 196.982 15.355 196.537 15.68C195.29 16.39 192.633 17.882 191.981 18.1709C191.166 18.5319 190.832 18.4599 190.536 18.3516C190.24 18.2433 188.202 16.0052 188.054 15.8965C187.683 16.4742 187.424 17.2324 187.313 19.5791C187.202 21.926 187.868 39.5086 187.868 40.5917C187.868 41.6748 187.979 42.3607 186.016 42.6497C184.452 42.8797 178.301 43.1762 175.383 43.2976V43.2996C175.377 43.2992 175.371 43.2989 175.365 43.2986C175.358 43.2989 175.352 43.2992 175.346 43.2996V43.2979C172.429 43.1765 166.278 42.8797 164.713 42.6497C162.75 42.3607 162.861 41.6748 162.861 40.5917C162.861 39.5086 163.528 21.926 163.417 19.5791C163.306 17.2324 163.046 16.4742 162.676 15.8965C162.527 16.0052 160.49 18.2433 160.193 18.3516C159.897 18.4599 159.564 18.5319 158.749 18.1709C158.097 17.882 155.439 16.39 154.192 15.68C153.747 15.355 153.517 14.7049 153.932 13.9828C155.414 11.6962 158.593 6.89219 159.453 5.96794C160.527 4.8126 160.972 4.30688 164.046 3.04324C167.121 1.7797 170.159 0.119149 170.641 0.0105933C171.121 -0.0974232 173.112 0.656118 175.365 0.660242Z" fill="#E61717"/>
<path d="M233.313 0.0333798C233.555 -0.0666108 233.844 0.0663503 233.895 0.32134L242.167 41.3589C242.207 41.5569 242.085 41.7516 241.888 41.8017L231.836 44.3701C231.626 44.4236 231.413 44.2928 231.368 44.082L225.7 17.9683L220.032 44.082C219.986 44.2928 219.774 44.4236 219.564 44.3701L209.512 41.8017C209.315 41.7516 209.192 41.5569 209.232 41.3589L217.505 0.32134C217.556 0.0663934 217.845 -0.066515 218.086 0.0333798C220.068 0.855169 223.856 1.01802 225.676 0.990511L225.676 0.990185H225.724C227.544 1.01771 231.331 0.855183 233.313 0.0333798Z" fill="#E61717"/>
<path d="M277.121 0.660242C279.373 0.656118 281.364 -0.0974232 281.844 0.0105933C282.326 0.119149 285.364 1.7797 288.439 3.04324C291.514 4.30688 291.958 4.8126 293.032 5.96794C293.892 6.89219 297.071 11.6962 298.553 13.9828C298.968 14.7049 298.738 15.355 298.293 15.68C297.046 16.39 294.389 17.882 293.736 18.1709C292.922 18.5319 292.588 18.4599 292.292 18.3516C291.996 18.2433 289.958 16.0052 289.81 15.8965C289.439 16.4742 289.18 17.2324 289.069 19.5791C288.957 21.926 289.624 39.5086 289.624 40.5917C289.624 41.6748 289.735 42.3607 287.772 42.6497C286.208 42.8797 280.057 43.1762 277.139 43.2976V43.2996C277.133 43.2992 277.127 43.2989 277.121 43.2986C277.114 43.2989 277.108 43.2992 277.102 43.2996V43.2979C274.184 43.1765 268.033 42.8797 266.469 42.6497C264.506 42.3607 264.617 41.6748 264.617 40.5917C264.617 39.5086 265.284 21.926 265.173 19.5791C265.061 17.2324 264.802 16.4742 264.432 15.8965C264.283 16.0052 262.246 18.2433 261.949 18.3516C261.653 18.4599 261.319 18.5319 260.505 18.1709C259.852 17.882 257.195 16.39 255.948 15.68C255.503 15.355 255.273 14.7049 255.688 13.9828C257.17 11.6962 260.349 6.89219 261.209 5.96794C262.283 4.8126 262.727 4.30688 265.802 3.04324C268.877 1.7797 271.915 0.119149 272.397 0.0105933C272.877 -0.0974232 274.868 0.656118 277.121 0.660242Z" fill="#E61717"/>
<path d="M336.499 0.0325656C336.735 -0.0649862 337.017 0.064732 337.067 0.313503L345.137 40.3501C345.176 40.5433 345.057 40.7333 344.865 40.7821L335.058 43.2879C334.853 43.3401 334.646 43.2125 334.601 43.0068L329.071 17.5301L323.542 43.0068C323.497 43.2125 323.29 43.3401 323.085 43.2879L313.278 40.7821C313.086 40.7333 312.966 40.5433 313.005 40.3501L321.076 0.313503C321.126 0.064774 321.408 -0.0648927 321.643 0.0325656C323.577 0.834311 327.272 0.993191 329.048 0.966352L329.048 0.966034H329.095C330.87 0.992886 334.566 0.834325 336.499 0.0325656Z" fill="#E61717"/>
<path d="M379.41 0.676748C381.718 0.672521 383.759 -0.0998588 384.252 0.0108581C384.746 0.122128 387.859 1.82419 391.011 3.11932C394.163 4.41456 394.618 4.93292 395.72 6.11714C396.6 7.0645 399.859 11.9886 401.378 14.3324C401.803 15.0725 401.568 15.7389 401.112 16.072C399.834 16.7998 397.109 18.3291 396.441 18.6252C395.606 18.9952 395.264 18.9214 394.96 18.8104C394.657 18.6994 392.568 16.4053 392.416 16.2939C392.036 16.886 391.771 17.6632 391.657 20.0686C391.543 22.4742 392.226 40.4963 392.226 41.6065C392.226 42.7167 392.34 43.4198 390.327 43.716C388.724 43.9517 382.419 44.2556 379.429 44.38V44.382C379.423 44.3817 379.416 44.3814 379.41 44.381C379.403 44.3814 379.397 44.3817 379.391 44.382V44.3804C376.4 44.256 370.096 43.9517 368.492 43.716C366.48 43.4198 366.594 42.7167 366.594 41.6065C366.594 40.4963 367.277 22.4742 367.163 20.0686C367.049 17.6632 366.783 16.886 366.404 16.2939C366.251 16.4053 364.163 18.6994 363.859 18.8104C363.556 18.9214 363.214 18.9952 362.378 18.6252C361.71 18.3291 358.986 16.7998 357.708 16.072C357.252 15.7389 357.016 15.0725 357.442 14.3324C358.961 11.9886 362.219 7.0645 363.1 6.11714C364.201 4.93292 364.657 4.41456 367.809 3.11932C370.96 1.82419 374.074 0.122128 374.568 0.0108581C375.06 -0.0998588 377.101 0.672521 379.41 0.676748Z" fill="#E61717"/>
<path d="M438.255 0.0325656C438.49 -0.0649862 438.772 0.064732 438.823 0.313503L446.893 40.3501C446.932 40.5433 446.812 40.7333 446.621 40.7821L436.814 43.2879C436.609 43.3401 436.402 43.2125 436.357 43.0068L430.827 17.5301L425.298 43.0068C425.253 43.2125 425.046 43.3401 424.841 43.2879L415.034 40.7821C414.842 40.7333 414.722 40.5433 414.761 40.3501L422.832 0.313503C422.882 0.064774 423.164 -0.0648927 423.399 0.0325656C425.333 0.834311 429.028 0.993191 430.804 0.966352L430.804 0.966034H430.851C432.626 0.992886 436.321 0.834325 438.255 0.0325656Z" fill="#E61717"/>
<path d="M482.792 0.660242C485.045 0.656118 487.036 -0.0974232 487.516 0.0105933C487.998 0.119149 491.036 1.7797 494.111 3.04324C497.186 4.30688 497.63 4.8126 498.704 5.96794C499.564 6.89219 502.743 11.6962 504.225 13.9828C504.64 14.7049 504.41 15.355 503.965 15.68C502.718 16.39 500.06 17.882 499.408 18.1709C498.593 18.5319 498.26 18.4599 497.964 18.3516C497.667 18.2433 495.63 16.0052 495.481 15.8965C495.111 16.4742 494.852 17.2324 494.74 19.5791C494.629 21.926 495.296 39.5086 495.296 40.5917C495.296 41.6748 495.407 42.3607 493.444 42.6497C491.879 42.8797 485.728 43.1762 482.811 43.2976V43.2996C482.805 43.2992 482.799 43.2989 482.792 43.2986C482.786 43.2989 482.78 43.2992 482.774 43.2996V43.2979C479.856 43.1765 473.705 42.8797 472.141 42.6497C470.178 42.3607 470.289 41.6748 470.289 40.5917C470.289 39.5086 470.956 21.926 470.844 19.5791C470.733 17.2324 470.474 16.4742 470.103 15.8965C469.955 16.0052 467.918 18.2433 467.621 18.3516C467.325 18.4599 466.991 18.5319 466.176 18.1709C465.524 17.882 462.867 16.39 461.62 15.68C461.175 15.355 460.945 14.7049 461.36 13.9828C462.842 11.6962 466.021 6.89219 466.881 5.96794C467.955 4.8126 468.399 4.30688 471.474 3.04324C474.549 1.7797 477.587 0.119149 478.069 0.0105933C478.549 -0.0974232 480.54 0.656118 482.792 0.660242Z" fill="#E61717"/>
<path d="M540.739 0.0333798C540.98 -0.0666108 541.269 0.0663503 541.321 0.32134L549.593 41.3589C549.633 41.5569 549.51 41.7516 549.314 41.8017L539.262 44.3701C539.052 44.4236 538.839 44.2928 538.793 44.082L533.126 17.9683L527.458 44.082C527.412 44.2928 527.199 44.4236 526.99 44.3701L516.937 41.8017C516.741 41.7516 516.618 41.5569 516.658 41.3589L524.931 0.32134C524.982 0.0663934 525.271 -0.066515 525.512 0.0333798C527.494 0.855169 531.282 1.01802 533.102 0.990511L533.102 0.990185H533.149C534.969 1.01771 538.757 0.855183 540.739 0.0333798Z" fill="#E61717"/>
<path d="M584.542 0.660242C586.795 0.656118 588.786 -0.0974232 589.266 0.0105933C589.748 0.119149 592.786 1.7797 595.861 3.04324C598.936 4.30688 599.38 4.8126 600.454 5.96794C601.314 6.89219 604.493 11.6962 605.975 13.9828C606.39 14.7049 606.16 15.355 605.715 15.68C604.468 16.39 601.81 17.882 601.158 18.1709C600.343 18.5319 600.01 18.4599 599.714 18.3516C599.417 18.2433 597.38 16.0052 597.231 15.8965C596.861 16.4742 596.602 17.2324 596.49 19.5791C596.379 21.926 597.046 39.5086 597.046 40.5917C597.046 41.6748 597.157 42.3607 595.194 42.6497C593.629 42.8797 587.478 43.1762 584.561 43.2976V43.2996C584.555 43.2992 584.549 43.2989 584.542 43.2986C584.536 43.2989 584.53 43.2992 584.524 43.2996V43.2979C581.606 43.1765 575.455 42.8797 573.891 42.6497C571.928 42.3607 572.039 41.6748 572.039 40.5917C572.039 39.5086 572.706 21.926 572.594 19.5791C572.483 17.2324 572.224 16.4742 571.853 15.8965C571.705 16.0052 569.668 18.2433 569.371 18.3516C569.075 18.4599 568.741 18.5319 567.926 18.1709C567.274 17.882 564.617 16.39 563.37 15.68C562.925 15.355 562.695 14.7049 563.11 13.9828C564.592 11.6962 567.771 6.89219 568.631 5.96794C569.705 4.8126 570.149 4.30688 573.224 3.04324C576.299 1.7797 579.337 0.119149 579.819 0.0105933C580.299 -0.0974232 582.29 0.656118 584.542 0.660242Z" fill="#E61717"/>
<path d="M642.493 0.0333798C642.734 -0.0666108 643.023 0.0663503 643.075 0.32134L651.347 41.3589C651.387 41.5569 651.264 41.7516 651.068 41.8017L641.016 44.3701C640.806 44.4236 640.593 44.2928 640.547 44.082L634.879 17.9683L629.212 44.082C629.166 44.2928 628.953 44.4236 628.744 44.3701L618.691 41.8017C618.495 41.7516 618.372 41.5569 618.412 41.3589L626.685 0.32134C626.736 0.0663934 627.025 -0.066515 627.266 0.0333798C629.248 0.855169 633.035 1.01802 634.855 0.990511L634.856 0.990185H634.903C636.723 1.01771 640.511 0.855183 642.493 0.0333798Z" fill="#E61717"/>
<path d="M686.296 0.660242C688.549 0.656118 690.54 -0.0974232 691.02 0.0105933C691.502 0.119149 694.54 1.7797 697.615 3.04324C700.689 4.30688 701.134 4.8126 702.208 5.96794C703.068 6.89219 706.247 11.6962 707.729 13.9828C708.144 14.7049 707.914 15.355 707.469 15.68C706.222 16.39 703.564 17.882 702.912 18.1709C702.097 18.5319 701.764 18.4599 701.468 18.3516C701.171 18.2433 699.134 16.0052 698.985 15.8965C698.615 16.4742 698.356 17.2324 698.244 19.5791C698.133 21.926 698.8 39.5086 698.8 40.5917C698.8 41.6748 698.911 42.3607 696.948 42.6497C695.383 42.8797 689.232 43.1762 686.315 43.2976V43.2996C686.309 43.2992 686.302 43.2989 686.296 43.2986C686.29 43.2989 686.284 43.2992 686.278 43.2996V43.2979C683.36 43.1765 677.209 42.8797 675.645 42.6497C673.682 42.3607 673.793 41.6748 673.793 40.5917C673.793 39.5086 674.459 21.926 674.348 19.5791C674.237 17.2324 673.978 16.4742 673.607 15.8965C673.459 16.0052 671.421 18.2433 671.125 18.3516C670.829 18.4599 670.495 18.5319 669.68 18.1709C669.028 17.882 666.371 16.39 665.124 15.68C664.679 15.355 664.449 14.7049 664.864 13.9828C666.346 11.6962 669.525 6.89219 670.384 5.96794C671.459 4.8126 671.903 4.30688 674.978 3.04324C678.053 1.7797 681.091 0.119149 681.573 0.0105933C682.053 -0.0974232 684.044 0.656118 686.296 0.660242Z" fill="#E61717"/>
<path d="M745.683 0.0325656C745.918 -0.0649862 746.2 0.064732 746.25 0.313503L754.321 40.3501C754.36 40.5433 754.24 40.7333 754.048 40.7821L744.241 43.2879C744.037 43.3401 743.829 43.2125 743.785 43.0068L738.255 17.5301L732.726 43.0068C732.681 43.2125 732.473 43.3401 732.269 43.2879L722.462 40.7821C722.27 40.7333 722.15 40.5433 722.189 40.3501L730.26 0.313503C730.31 0.064774 730.592 -0.0648927 730.827 0.0325656C732.761 0.834311 736.456 0.993191 738.232 0.966352L738.232 0.966034H738.278C740.054 0.992886 743.749 0.834325 745.683 0.0325656Z" fill="#E61717"/>
<path d="M788.054 0.660242C790.306 0.656118 792.298 -0.0974232 792.778 0.0105933C793.26 0.119149 796.298 1.7797 799.372 3.04324C802.447 4.30688 802.892 4.8126 803.966 5.96794C804.825 6.89219 808.004 11.6962 809.486 13.9828C809.901 14.7049 809.671 15.355 809.227 15.68C807.98 16.39 805.322 17.882 804.67 18.1709C803.855 18.5319 803.522 18.4599 803.225 18.3516C802.929 18.2433 800.891 16.0052 800.743 15.8965C800.372 16.4742 800.113 17.2324 800.002 19.5791C799.891 21.926 800.558 39.5086 800.558 40.5917C800.558 41.6748 800.669 42.3607 798.705 42.6497C797.141 42.8797 790.99 43.1762 788.073 43.2976V43.2996C788.067 43.2992 788.06 43.2989 788.054 43.2986C788.048 43.2989 788.042 43.2992 788.036 43.2996V43.2979C785.118 43.1765 778.967 42.8797 777.403 42.6497C775.439 42.3607 775.551 41.6748 775.551 40.5917C775.551 39.5086 776.217 21.926 776.106 19.5791C775.995 17.2324 775.736 16.4742 775.365 15.8965C775.217 16.0052 773.179 18.2433 772.883 18.3516C772.587 18.4599 772.253 18.5319 771.438 18.1709C770.786 17.882 768.129 16.39 766.881 15.68C766.437 15.355 766.207 14.7049 766.622 13.9828C768.104 11.6962 771.283 6.89219 772.142 5.96794C773.217 4.8126 773.661 4.30688 776.736 3.04324C779.811 1.7797 782.848 0.119149 783.33 0.0105933C783.811 -0.0974232 785.802 0.656118 788.054 0.660242Z" fill="#E61717"/>
<path d="M847.437 0.0325656C847.672 -0.0649862 847.954 0.064732 848.004 0.313503L856.075 40.3501C856.114 40.5433 855.994 40.7333 855.802 40.7821L845.995 43.2879C845.791 43.3401 845.583 43.2125 845.539 43.0068L840.009 17.5301L834.479 43.0068C834.435 43.2125 834.227 43.3401 834.023 43.2879L824.215 40.7821C824.024 40.7333 823.904 40.5433 823.943 40.3501L832.014 0.313503C832.064 0.064774 832.346 -0.0648927 832.581 0.0325656C834.515 0.834311 838.21 0.993191 839.985 0.966352L839.986 0.966034H840.032C841.808 0.992886 845.503 0.834325 847.437 0.0325656Z" fill="#D6CEC4"/>
<path d="M21.6498 56.9491C23.9021 56.9449 25.8932 56.1914 26.3735 56.2994C26.8555 56.408 29.8933 58.0685 32.968 59.3321C36.043 60.5957 36.4874 61.1014 37.5617 62.2568C38.4212 63.181 41.6001 67.985 43.0821 70.2716C43.4971 70.9937 43.2671 71.6438 42.8226 71.9688C41.5755 72.6788 38.9178 74.1709 38.2657 74.4597C37.4509 74.8207 37.1173 74.7487 36.821 74.6404C36.5248 74.5321 34.4871 72.294 34.3389 72.1853C33.9682 72.763 33.7091 73.5212 33.5979 75.8679C33.4867 78.2148 34.1532 95.7974 34.1532 96.8805C34.1532 97.9637 34.2644 98.6496 32.3011 98.9386C30.7369 99.1685 24.5858 99.465 21.6684 99.5864V99.5884C21.6622 99.588 21.656 99.5877 21.6498 99.5874C21.6436 99.5877 21.6374 99.588 21.6312 99.5884V99.5867C18.7138 99.4654 12.5627 99.1685 10.9986 98.9386C9.03508 98.6496 9.14635 97.9637 9.14635 96.8805C9.14635 95.7974 9.81297 78.2148 9.70183 75.8679C9.59069 73.5212 9.33129 72.763 8.96088 72.1853C8.81239 72.294 6.77495 74.5321 6.47857 74.6404C6.18223 74.7487 5.84879 74.8207 5.03385 74.4597C4.38173 74.1709 1.72431 72.6788 0.477028 71.9688C0.0325147 71.6438 -0.19738 70.9937 0.217555 70.2716C1.6995 67.985 4.87846 63.181 5.73795 62.2568C6.81234 61.1014 7.25672 60.5957 10.3316 59.3321C13.4063 58.0685 16.4441 56.408 16.9261 56.2994C17.4064 56.1914 19.3975 56.9449 21.6498 56.9491Z" fill="#E61717"/>
<path d="M81.0345 56.3228C81.2698 56.2253 81.5517 56.355 81.6018 56.6038L89.6724 96.6404C89.7114 96.8336 89.5917 97.0235 89.3998 97.0724L79.593 99.5782C79.3883 99.6304 79.1808 99.5028 79.1362 99.2971L73.6065 73.8204L68.0771 99.2971C68.0325 99.5028 67.825 99.6304 67.6203 99.5782L57.8132 97.0724C57.6214 97.0235 57.5016 96.8336 57.5405 96.6404L65.6115 56.6038C65.6616 56.3551 65.9432 56.2254 66.1785 56.3228C68.1122 57.1246 71.8075 57.2835 73.5831 57.2566L73.5834 57.2563H73.6299C75.4054 57.2832 79.1007 57.1246 81.0345 56.3228Z" fill="#E61717"/>
<path d="M123.947 56.9656C126.256 56.9613 128.296 56.189 128.789 56.2997C129.283 56.4109 132.396 58.113 135.548 59.4081C138.7 60.7034 139.155 61.2217 140.257 62.406C141.138 63.3533 144.396 68.2774 145.915 70.6212C146.34 71.3613 146.105 72.0277 145.649 72.3608C144.371 73.0886 141.647 74.6179 140.978 74.914C140.143 75.284 139.801 75.2102 139.497 75.0992C139.194 74.9882 137.105 72.6941 136.953 72.5827C136.573 73.1749 136.308 73.952 136.194 76.3574C136.08 78.763 136.763 96.7851 136.763 97.8953C136.763 99.0055 136.877 99.7086 134.864 100.005C133.261 100.24 126.956 100.544 123.966 100.669V100.671C123.96 100.671 123.953 100.67 123.947 100.67C123.941 100.67 123.934 100.671 123.928 100.671V100.669C120.937 100.545 114.633 100.24 113.029 100.005C111.017 99.7086 111.131 99.0055 111.131 97.8953C111.131 96.7851 111.814 78.763 111.7 76.3574C111.586 73.952 111.32 73.1749 110.941 72.5827C110.789 72.6941 108.7 74.9882 108.396 75.0992C108.093 75.2102 107.751 75.284 106.916 74.914C106.247 74.6179 103.523 73.0886 102.245 72.3608C101.789 72.0277 101.554 71.3613 101.979 70.6212C103.498 68.2774 106.756 63.3533 107.637 62.406C108.739 61.2217 109.194 60.7034 112.346 59.4081C115.497 58.113 118.611 56.4109 119.105 56.2997C119.597 56.189 121.638 56.9613 123.947 56.9656Z" fill="#E61717"/>
<path d="M182.79 56.3214C183.026 56.2238 183.308 56.3536 183.358 56.6023L191.428 96.639C191.467 96.8322 191.348 97.0221 191.156 97.071L181.349 99.5768C181.144 99.6289 180.937 99.5013 180.892 99.2956L175.362 73.8189L169.833 99.2956C169.788 99.5013 169.581 99.6289 169.376 99.5768L159.569 97.071C159.377 97.0221 159.257 96.8322 159.296 96.639L167.367 56.6023C167.417 56.3536 167.699 56.2239 167.934 56.3214C169.868 57.1231 173.563 57.282 175.339 57.2552L175.339 57.2549H175.386C177.161 57.2817 180.857 57.1231 182.79 56.3214Z" fill="#E61717"/>
<path d="M225.699 56.967C228.007 56.9628 230.048 56.1904 230.541 56.3011C231.035 56.4124 234.148 58.1145 237.3 59.4096C240.452 60.7048 240.907 61.2232 242.009 62.4074C242.89 63.3548 246.148 68.2789 247.667 70.6227C248.092 71.3628 247.857 72.0292 247.401 72.3622C246.123 73.09 243.399 74.6194 242.73 74.9155C241.895 75.2855 241.553 75.2116 241.249 75.1007C240.946 74.9896 238.857 72.6956 238.705 72.5842C238.325 73.1763 238.06 73.9534 237.946 76.3589C237.832 78.7645 238.515 96.7866 238.515 97.8968C238.515 99.007 238.629 99.71 236.616 100.006C235.013 100.242 228.708 100.546 225.718 100.67V100.672C225.712 100.672 225.705 100.672 225.699 100.671C225.693 100.672 225.686 100.672 225.68 100.672V100.671C222.689 100.546 216.385 100.242 214.781 100.006C212.769 99.71 212.883 99.007 212.883 97.8968C212.883 96.7866 213.566 78.7645 213.452 76.3589C213.338 73.9534 213.072 73.1763 212.693 72.5842C212.541 72.6956 210.452 74.9896 210.148 75.1007C209.845 75.2116 209.503 75.2855 208.668 74.9155C207.999 74.6194 205.275 73.09 203.997 72.3622C203.541 72.0292 203.305 71.3628 203.731 70.6227C205.25 68.2789 208.508 63.3548 209.389 62.4074C210.49 61.2232 210.946 60.7048 214.098 59.4096C217.249 58.1145 220.363 56.4124 220.857 56.3011C221.349 56.1904 223.39 56.9628 225.699 56.967Z" fill="#E61717"/>
<path d="M284.546 56.3214C284.782 56.2238 285.063 56.3536 285.114 56.6023L293.184 96.639C293.223 96.8322 293.103 97.0221 292.912 97.071L283.105 99.5768C282.9 99.6289 282.693 99.5013 282.648 99.2956L277.118 73.8189L271.589 99.2956C271.544 99.5013 271.337 99.6289 271.132 99.5768L261.325 97.071C261.133 97.0221 261.013 96.8322 261.052 96.639L269.123 56.6023C269.173 56.3536 269.455 56.2239 269.69 56.3214C271.624 57.1231 275.319 57.282 277.095 57.2552L277.095 57.2549H277.142C278.917 57.2817 282.612 57.1231 284.546 56.3214Z" fill="#E61717"/>
<path d="M329.074 56.9505C331.326 56.9464 333.317 56.1929 333.797 56.3009C334.279 56.4094 337.317 58.07 340.392 59.3335C343.467 60.5972 343.911 61.1029 344.986 62.2582C345.845 63.1825 349.024 67.9865 350.506 70.2731C350.921 70.9952 350.691 71.6453 350.246 71.9702C348.999 72.6803 346.342 74.1723 345.69 74.4612C344.875 74.8222 344.541 74.7501 344.245 74.6419C343.949 74.5336 341.911 72.2955 341.763 72.1868C341.392 72.7645 341.133 73.5226 341.022 75.8694C340.91 78.2163 341.577 95.7988 341.577 96.882C341.577 97.9651 341.688 98.651 339.725 98.94C338.161 99.17 332.01 99.4665 329.092 99.5879V99.5898C329.086 99.5895 329.08 99.5892 329.074 99.5889C329.067 99.5892 329.061 99.5895 329.055 99.5898V99.5882C326.138 99.4668 319.987 99.17 318.422 98.94C316.459 98.651 316.57 97.9651 316.57 96.882C316.57 95.7988 317.237 78.2163 317.126 75.8694C317.015 73.5226 316.755 72.7645 316.385 72.1868C316.236 72.2955 314.199 74.5336 313.902 74.6419C313.606 74.7501 313.273 74.8222 312.458 74.4612C311.806 74.1723 309.148 72.6803 307.901 71.9702C307.456 71.6453 307.226 70.9952 307.641 70.2731C309.123 67.9865 312.302 63.1825 313.162 62.2582C314.236 61.1029 314.681 60.5972 317.755 59.3335C320.83 58.07 323.868 56.4094 324.35 56.3009C324.83 56.1929 326.821 56.9464 329.074 56.9505Z" fill="#E61717"/>
<path d="M387.024 56.3222C387.266 56.2222 387.554 56.3552 387.606 56.6102L395.878 97.6477C395.918 97.8457 395.795 98.0404 395.599 98.0905L385.547 100.659C385.337 100.712 385.124 100.582 385.079 100.371L379.411 74.2572L373.743 100.371C373.697 100.582 373.485 100.712 373.275 100.659L363.222 98.0905C363.026 98.0404 362.903 97.8457 362.943 97.6477L371.216 56.6102C371.267 56.3552 371.556 56.2223 371.797 56.3222C373.779 57.144 377.567 57.3068 379.387 57.2793L379.387 57.279H379.435C381.255 57.3065 385.042 57.144 387.024 56.3222Z" fill="#E61717"/>
<path d="M430.83 56.9491C433.082 56.9449 435.073 56.1914 435.553 56.2994C436.035 56.408 439.073 58.0685 442.148 59.3321C445.223 60.5957 445.667 61.1014 446.741 62.2568C447.601 63.181 450.78 67.985 452.262 70.2716C452.677 70.9937 452.447 71.6438 452.002 71.9688C450.755 72.6788 448.097 74.1709 447.445 74.4597C446.631 74.8207 446.297 74.7487 446.001 74.6404C445.705 74.5321 443.667 72.294 443.519 72.1853C443.148 72.763 442.889 73.5212 442.778 75.8679C442.666 78.2148 443.333 95.7974 443.333 96.8805C443.333 97.9637 443.444 98.6496 441.481 98.9386C439.917 99.1685 433.766 99.465 430.848 99.5864V99.5884C430.842 99.588 430.836 99.5877 430.83 99.5874C430.823 99.5877 430.817 99.588 430.811 99.5884V99.5867C427.893 99.4654 421.742 99.1685 420.178 98.9386C418.215 98.6496 418.326 97.9637 418.326 96.8805C418.326 95.7974 418.993 78.2148 418.882 75.8679C418.77 73.5212 418.511 72.763 418.141 72.1853C417.992 72.294 415.955 74.5321 415.658 74.6404C415.362 74.7487 415.028 74.8207 414.214 74.4597C413.561 74.1709 410.904 72.6788 409.657 71.9688C409.212 71.6438 408.982 70.9937 409.397 70.2716C410.879 67.985 414.058 63.181 414.918 62.2568C415.992 61.1014 416.436 60.5957 419.511 59.3321C422.586 58.0685 425.624 56.408 426.106 56.2994C426.586 56.1914 428.577 56.9449 430.83 56.9491Z" fill="#E61717"/>
<path d="M490.218 56.3228C490.453 56.2253 490.735 56.355 490.785 56.6038L498.856 96.6404C498.895 96.8336 498.775 97.0235 498.583 97.0724L488.777 99.5782C488.572 99.6304 488.364 99.5028 488.32 99.2971L482.79 73.8204L477.261 99.2971C477.216 99.5028 477.009 99.6304 476.804 99.5782L466.997 97.0724C466.805 97.0235 466.685 96.8336 466.724 96.6404L474.795 56.6038C474.845 56.3551 475.127 56.2254 475.362 56.3228C477.296 57.1246 480.991 57.2835 482.767 57.2566L482.767 57.2563H482.813C484.589 57.2832 488.284 57.1246 490.218 56.3228Z" fill="#E61717"/>
<path d="M533.125 56.9656C535.433 56.9613 537.474 56.189 537.966 56.2997C538.461 56.4109 541.574 58.113 544.726 59.4081C547.878 60.7034 548.333 61.2217 549.434 62.406C550.315 63.3533 553.574 68.2774 555.093 70.6212C555.518 71.3613 555.282 72.0277 554.827 72.3608C553.548 73.0886 550.824 74.6179 550.156 74.914C549.321 75.284 548.979 75.2102 548.675 75.0992C548.372 74.9882 546.283 72.6941 546.131 72.5827C545.751 73.1749 545.485 73.952 545.371 76.3574C545.257 78.763 545.941 96.7851 545.941 97.8953C545.941 99.0055 546.055 99.7086 544.042 100.005C542.439 100.24 536.134 100.544 533.144 100.669V100.671C533.137 100.671 533.131 100.67 533.125 100.67C533.118 100.67 533.112 100.671 533.106 100.671V100.669C530.115 100.545 523.81 100.24 522.207 100.005C520.195 99.7086 520.309 99.0055 520.309 97.8953C520.309 96.7851 520.992 78.763 520.878 76.3574C520.764 73.952 520.498 73.1749 520.118 72.5827C519.966 72.6941 517.878 74.9882 517.574 75.0992C517.27 75.2102 516.929 75.284 516.093 74.914C515.425 74.6179 512.701 73.0886 511.423 72.3608C510.967 72.0277 510.731 71.3613 511.157 70.6212C512.676 68.2774 515.934 63.3533 516.815 62.406C517.916 61.2217 518.372 60.7034 521.523 59.4081C524.675 58.113 527.789 56.4109 528.283 56.2997C528.775 56.189 530.816 56.9613 533.125 56.9656Z" fill="#E61717"/>
<path d="M591.968 56.3228C592.203 56.2253 592.485 56.355 592.535 56.6038L600.606 96.6404C600.645 96.8336 600.525 97.0235 600.333 97.0724L590.527 99.5782C590.322 99.6304 590.114 99.5028 590.07 99.2971L584.54 73.8204L579.011 99.2971C578.966 99.5028 578.759 99.6304 578.554 99.5782L568.747 97.0724C568.555 97.0235 568.435 96.8336 568.474 96.6404L576.545 56.6038C576.595 56.3551 576.877 56.2254 577.112 56.3228C579.046 57.1246 582.741 57.2835 584.517 57.2566L584.517 57.2563H584.563C586.339 57.2832 590.034 57.1246 591.968 56.3228Z" fill="#E61717"/>
<path d="M634.879 56.9656C637.187 56.9613 639.228 56.189 639.72 56.2997C640.214 56.4109 643.328 58.113 646.48 59.4081C649.632 60.7034 650.087 61.2217 651.188 62.406C652.069 63.3533 655.328 68.2774 656.847 70.6212C657.272 71.3613 657.036 72.0277 656.581 72.3608C655.302 73.0886 652.578 74.6179 651.91 74.914C651.075 75.284 650.733 75.2102 650.429 75.0992C650.125 74.9882 648.037 72.6941 647.885 72.5827C647.505 73.1749 647.239 73.952 647.125 76.3574C647.011 78.763 647.695 96.7851 647.695 97.8953C647.695 99.0055 647.809 99.7086 645.796 100.005C644.193 100.24 637.888 100.544 634.898 100.669V100.671C634.891 100.671 634.885 100.67 634.879 100.67C634.872 100.67 634.866 100.671 634.86 100.671V100.669C631.869 100.545 625.564 100.24 623.961 100.005C621.948 99.7086 622.063 99.0055 622.063 97.8953C622.063 96.7851 622.746 78.763 622.632 76.3574C622.518 73.952 622.252 73.1749 621.872 72.5827C621.72 72.6941 619.632 74.9882 619.328 75.0992C619.024 75.2102 618.683 75.284 617.847 74.914C617.179 74.6179 614.455 73.0886 613.176 72.3608C612.721 72.0277 612.485 71.3613 612.91 70.6212C614.429 68.2774 617.688 63.3533 618.569 62.406C619.67 61.2217 620.126 60.7034 623.277 59.4081C626.429 58.113 629.543 56.4109 630.037 56.2997C630.529 56.189 632.57 56.9613 634.879 56.9656Z" fill="#E61717"/>
<path d="M693.722 56.3214C693.957 56.2238 694.239 56.3536 694.289 56.6023L702.36 96.639C702.399 96.8322 702.279 97.0221 702.087 97.071L692.28 99.5768C692.076 99.6289 691.868 99.5013 691.824 99.2956L686.294 73.8189L680.765 99.2956C680.72 99.5013 680.513 99.6289 680.308 99.5768L670.501 97.071C670.309 97.0221 670.189 96.8322 670.228 96.639L678.299 56.6023C678.349 56.3536 678.631 56.2239 678.866 56.3214C680.8 57.1231 684.495 57.282 686.271 57.2552L686.271 57.2549H686.317C688.093 57.2817 691.788 57.1231 693.722 56.3214Z" fill="#E61717"/>
<path d="M738.257 56.9505C740.51 56.9464 742.501 56.1929 742.981 56.3009C743.463 56.4094 746.501 58.07 749.575 59.3335C752.65 60.5972 753.095 61.1029 754.169 62.2582C755.029 63.1825 758.207 67.9865 759.69 70.2731C760.104 70.9952 759.875 71.6453 759.43 71.9702C758.183 72.6803 755.525 74.1723 754.873 74.4612C754.058 74.8222 753.725 74.7501 753.428 74.6419C753.132 74.5336 751.095 72.2955 750.946 72.1868C750.576 72.7645 750.316 73.5226 750.205 75.8694C750.094 78.2163 750.761 95.7988 750.761 96.882C750.761 97.9651 750.872 98.651 748.908 98.94C747.344 99.17 741.193 99.4665 738.276 99.5879V99.5898C738.27 99.5895 738.263 99.5892 738.257 99.5889C738.251 99.5892 738.245 99.5895 738.239 99.5898V99.5882C735.321 99.4668 729.17 99.17 727.606 98.94C725.643 98.651 725.754 97.9651 725.754 96.882C725.754 95.7988 726.42 78.2163 726.309 75.8694C726.198 73.5226 725.939 72.7645 725.568 72.1868C725.42 72.2955 723.382 74.5336 723.086 74.6419C722.79 74.7501 722.456 74.8222 721.641 74.4612C720.989 74.1723 718.332 72.6803 717.084 71.9702C716.64 71.6453 716.41 70.9952 716.825 70.2731C718.307 67.9865 721.486 63.1825 722.345 62.2582C723.42 61.1029 723.864 60.5972 726.939 59.3335C730.014 58.07 733.052 56.4094 733.534 56.3009C734.014 56.1929 736.005 56.9464 738.257 56.9505Z" fill="#E61717"/>
<path d="M795.48 56.3214C795.715 56.2238 795.997 56.3536 796.047 56.6023L804.118 96.639C804.157 96.8322 804.037 97.0221 803.845 97.071L794.038 99.5768C793.834 99.6289 793.626 99.5013 793.581 99.2956L788.052 73.8189L782.522 99.2956C782.478 99.5013 782.27 99.6289 782.066 99.5768L772.258 97.071C772.067 97.0221 771.947 96.8322 771.986 96.639L780.057 56.6023C780.107 56.3536 780.389 56.2239 780.624 56.3214C782.558 57.1231 786.253 57.282 788.028 57.2552L788.029 57.2549H788.075C789.851 57.2817 793.546 57.1231 795.48 56.3214Z" fill="#E61717"/>
<path d="M847.437 56.3228C847.672 56.2253 847.954 56.355 848.004 56.6038L856.075 96.6404C856.114 96.8336 855.994 97.0235 855.802 97.0724L845.995 99.5782C845.791 99.6304 845.583 99.5028 845.539 99.2971L840.009 73.8204L834.479 99.2971C834.435 99.5028 834.227 99.6304 834.023 99.5782L824.215 97.0724C824.024 97.0235 823.904 96.8336 823.943 96.6404L832.014 56.6038C832.064 56.3551 832.346 56.2254 832.581 56.3228C834.515 57.1246 838.21 57.2835 839.985 57.2566L839.986 57.2563H840.032C841.808 57.2832 845.503 57.1246 847.437 56.3228Z" fill="#D6CEC4"/>
<path d="M29.0755 110.447C29.3108 110.349 29.5927 110.479 29.6428 110.728L37.7134 150.764C37.7524 150.958 37.6327 151.148 37.4408 151.196L27.634 153.702C27.4293 153.754 27.2218 153.627 27.1772 153.421L21.6475 127.944L16.1182 153.421C16.0735 153.627 15.866 153.754 15.6613 153.702L5.85417 151.196C5.66241 151.148 5.5426 150.958 5.58156 150.764L13.6525 110.728C13.7026 110.479 13.9842 110.349 14.2195 110.447C16.1532 111.249 19.8485 111.407 21.6241 111.381L21.6244 111.38H21.6709C23.4464 111.407 27.1417 111.249 29.0755 110.447Z" fill="#E61717"/>
<path d="M29.0755 222.354C29.3108 222.257 29.5927 222.387 29.6428 222.635L37.7134 262.672C37.7524 262.865 37.6327 263.055 37.4408 263.104L27.634 265.61C27.4293 265.662 27.2218 265.534 27.1772 265.329L21.6475 239.852L16.1182 265.329C16.0735 265.534 15.866 265.662 15.6613 265.61L5.85417 263.104C5.66241 263.055 5.5426 262.865 5.58156 262.672L13.6525 222.635C13.7026 222.387 13.9842 222.257 14.2195 222.354C16.1532 223.156 19.8485 223.315 21.6241 223.288L21.6244 223.288H21.6709C23.4464 223.315 27.1417 223.156 29.0755 222.354Z" fill="#DAD1C7"/>
<path d="M73.6088 111.075C75.8611 111.07 77.8522 110.317 78.3325 110.425C78.8145 110.533 81.8523 112.194 84.927 113.458C88.002 114.721 88.4464 115.227 89.5207 116.382C90.3801 117.306 93.5591 122.11 95.0411 124.397C95.456 125.119 95.2261 125.769 94.7816 126.094C93.5345 126.804 90.8768 128.296 90.2247 128.585C89.4098 128.946 89.0762 128.874 88.78 128.766C88.4838 128.658 86.4461 126.419 86.2979 126.311C85.9272 126.888 85.668 127.647 85.5568 129.993C85.4456 132.34 86.1122 149.923 86.1122 151.006C86.1122 152.089 86.2234 152.775 84.2601 153.064C82.6959 153.294 76.5448 153.591 73.6274 153.712V153.714C73.6212 153.714 73.615 153.713 73.6088 153.713C73.6026 153.713 73.5964 153.714 73.5902 153.714V153.712C70.6728 153.591 64.5217 153.294 62.9575 153.064C60.9941 152.775 61.1053 152.089 61.1053 151.006C61.1053 149.923 61.7719 132.34 61.6608 129.993C61.5497 127.647 61.2903 126.888 60.9199 126.311C60.7714 126.419 58.7339 128.658 58.4376 128.766C58.1412 128.874 57.8078 128.946 56.9928 128.585C56.3407 128.296 53.6833 126.804 52.436 126.094C51.9915 125.769 51.7616 125.119 52.1765 124.397C53.6585 122.11 56.8374 117.306 57.6969 116.382C58.7713 115.227 59.2157 114.721 62.2906 113.458C65.3653 112.194 68.4031 110.533 68.8851 110.425C69.3654 110.317 71.3565 111.07 73.6088 111.075Z" fill="#E61717"/>
<path d="M73.6088 222.982C75.8611 222.978 77.8522 222.224 78.3325 222.332C78.8145 222.441 81.8523 224.101 84.927 225.365C88.002 226.629 88.4464 227.134 89.5207 228.29C90.3801 229.214 93.5591 234.018 95.0411 236.305C95.456 237.027 95.2261 237.677 94.7816 238.002C93.5345 238.712 90.8768 240.204 90.2247 240.493C89.4098 240.854 89.0762 240.782 88.78 240.673C88.4838 240.565 86.4461 238.327 86.2979 238.218C85.9272 238.796 85.668 239.554 85.5568 241.901C85.4456 244.248 86.1122 261.83 86.1122 262.913C86.1122 263.997 86.2234 264.683 84.2601 264.972C82.6959 265.201 76.5448 265.498 73.6274 265.619V265.621C73.6212 265.621 73.615 265.621 73.6088 265.62C73.6026 265.621 73.5964 265.621 73.5902 265.621V265.62C70.6728 265.498 64.5217 265.201 62.9575 264.972C60.9941 264.683 61.1053 263.997 61.1053 262.913C61.1053 261.83 61.7719 244.248 61.6608 241.901C61.5497 239.554 61.2903 238.796 60.9199 238.218C60.7714 238.327 58.7339 240.565 58.4376 240.673C58.1412 240.782 57.8078 240.854 56.9928 240.493C56.3407 240.204 53.6833 238.712 52.436 238.002C51.9915 237.677 51.7616 237.027 52.1765 236.305C53.6585 234.018 56.8374 229.214 57.6969 228.29C58.7713 227.134 59.2157 226.629 62.2906 225.365C65.3653 224.101 68.4031 222.441 68.8851 222.332C69.3654 222.224 71.3565 222.978 73.6088 222.982Z" fill="#DAD1C7"/>
<path d="M131.561 110.448C131.803 110.348 132.092 110.481 132.143 110.736L140.415 151.773C140.455 151.971 140.333 152.166 140.136 152.216L130.084 154.784C129.874 154.838 129.661 154.707 129.616 154.496L123.948 128.383L118.28 154.496C118.234 154.707 118.022 154.838 117.812 154.784L107.76 152.216C107.563 152.166 107.44 151.971 107.48 151.773L115.753 110.736C115.804 110.481 116.093 110.348 116.334 110.448C118.316 111.269 122.104 111.432 123.924 111.405L123.924 111.404H123.972C125.792 111.432 129.579 111.269 131.561 110.448Z" fill="#E61717"/>
<path d="M131.561 222.355C131.803 222.255 132.092 222.388 132.143 222.643L140.415 263.681C140.455 263.879 140.333 264.073 140.136 264.123L130.084 266.692C129.874 266.745 129.661 266.615 129.616 266.404L123.948 240.29L118.28 266.404C118.234 266.615 118.022 266.745 117.812 266.692L107.76 264.123C107.563 264.073 107.44 263.879 107.48 263.681L115.753 222.643C115.804 222.388 116.093 222.255 116.334 222.355C118.316 223.177 122.104 223.34 123.924 223.312L123.924 223.312H123.972C125.792 223.339 129.579 223.177 131.561 222.355Z" fill="#DAD1C7"/>
<path d="M175.365 111.075C177.617 111.07 179.608 110.317 180.088 110.425C180.57 110.533 183.608 112.194 186.683 113.458C189.758 114.721 190.202 115.227 191.277 116.382C192.136 117.306 195.315 122.11 196.797 124.397C197.212 125.119 196.982 125.769 196.537 126.094C195.29 126.804 192.633 128.296 191.981 128.585C191.166 128.946 190.832 128.874 190.536 128.766C190.24 128.658 188.202 126.419 188.054 126.311C187.683 126.888 187.424 127.647 187.313 129.993C187.202 132.34 187.868 149.923 187.868 151.006C187.868 152.089 187.979 152.775 186.016 153.064C184.452 153.294 178.301 153.591 175.383 153.712V153.714C175.377 153.714 175.371 153.713 175.365 153.713C175.358 153.713 175.352 153.714 175.346 153.714V153.712C172.429 153.591 166.278 153.294 164.713 153.064C162.75 152.775 162.861 152.089 162.861 151.006C162.861 149.923 163.528 132.34 163.417 129.993C163.306 127.647 163.046 126.888 162.676 126.311C162.527 126.419 160.49 128.658 160.193 128.766C159.897 128.874 159.564 128.946 158.749 128.585C158.097 128.296 155.439 126.804 154.192 126.094C153.747 125.769 153.517 125.119 153.932 124.397C155.414 122.11 158.593 117.306 159.453 116.382C160.527 115.227 160.972 114.721 164.046 113.458C167.121 112.194 170.159 110.533 170.641 110.425C171.121 110.317 173.112 111.07 175.365 111.075Z" fill="#E61717"/>
<path d="M175.365 222.982C177.617 222.978 179.608 222.224 180.088 222.332C180.57 222.441 183.608 224.101 186.683 225.365C189.758 226.629 190.202 227.134 191.277 228.29C192.136 229.214 195.315 234.018 196.797 236.305C197.212 237.027 196.982 237.677 196.537 238.002C195.29 238.712 192.633 240.204 191.981 240.493C191.166 240.854 190.832 240.782 190.536 240.673C190.24 240.565 188.202 238.327 188.054 238.218C187.683 238.796 187.424 239.554 187.313 241.901C187.202 244.248 187.868 261.83 187.868 262.913C187.868 263.997 187.979 264.683 186.016 264.972C184.452 265.201 178.301 265.498 175.383 265.619V265.621C175.377 265.621 175.371 265.621 175.365 265.62C175.358 265.621 175.352 265.621 175.346 265.621V265.62C172.429 265.498 166.278 265.201 164.713 264.972C162.75 264.683 162.861 263.997 162.861 262.913C162.861 261.83 163.528 244.248 163.417 241.901C163.306 239.554 163.046 238.796 162.676 238.218C162.527 238.327 160.49 240.565 160.193 240.673C159.897 240.782 159.564 240.854 158.749 240.493C158.097 240.204 155.439 238.712 154.192 238.002C153.747 237.677 153.517 237.027 153.932 236.305C155.414 234.018 158.593 229.214 159.453 228.29C160.527 227.134 160.972 226.629 164.046 225.365C167.121 224.101 170.159 222.441 170.641 222.332C171.121 222.224 173.112 222.978 175.365 222.982Z" fill="#DAD1C7"/>
<path d="M233.313 110.448C233.555 110.348 233.844 110.481 233.895 110.736L242.167 151.773C242.207 151.971 242.085 152.166 241.888 152.216L231.836 154.784C231.626 154.838 231.413 154.707 231.368 154.496L225.7 128.383L220.032 154.496C219.986 154.707 219.774 154.838 219.564 154.784L209.512 152.216C209.315 152.166 209.192 151.971 209.232 151.773L217.505 110.736C217.556 110.481 217.845 110.348 218.086 110.448C220.068 111.269 223.856 111.432 225.676 111.405L225.676 111.404H225.724C227.544 111.432 231.331 111.269 233.313 110.448Z" fill="#E61717"/>
<path d="M233.313 222.355C233.555 222.255 233.844 222.388 233.895 222.643L242.167 263.681C242.207 263.879 242.085 264.073 241.888 264.123L231.836 266.692C231.626 266.745 231.413 266.615 231.368 266.404L225.7 240.29L220.032 266.404C219.986 266.615 219.774 266.745 219.564 266.692L209.512 264.123C209.315 264.073 209.192 263.879 209.232 263.681L217.505 222.643C217.556 222.388 217.845 222.255 218.086 222.355C220.068 223.177 223.856 223.34 225.676 223.312L225.676 223.312H225.724C227.544 223.339 231.331 223.177 233.313 222.355Z" fill="#DAD1C7"/>
<path d="M277.121 111.075C279.373 111.07 281.364 110.317 281.844 110.425C282.326 110.533 285.364 112.194 288.439 113.458C291.514 114.721 291.958 115.227 293.032 116.382C293.892 117.306 297.071 122.11 298.553 124.397C298.968 125.119 298.738 125.769 298.293 126.094C297.046 126.804 294.389 128.296 293.736 128.585C292.922 128.946 292.588 128.874 292.292 128.766C291.996 128.658 289.958 126.419 289.81 126.311C289.439 126.888 289.18 127.647 289.069 129.993C288.957 132.34 289.624 149.923 289.624 151.006C289.624 152.089 289.735 152.775 287.772 153.064C286.208 153.294 280.057 153.591 277.139 153.712V153.714C277.133 153.714 277.127 153.713 277.121 153.713C277.114 153.713 277.108 153.714 277.102 153.714V153.712C274.184 153.591 268.033 153.294 266.469 153.064C264.506 152.775 264.617 152.089 264.617 151.006C264.617 149.923 265.284 132.34 265.173 129.993C265.061 127.647 264.802 126.888 264.432 126.311C264.283 126.419 262.246 128.658 261.949 128.766C261.653 128.874 261.319 128.946 260.505 128.585C259.852 128.296 257.195 126.804 255.948 126.094C255.503 125.769 255.273 125.119 255.688 124.397C257.17 122.11 260.349 117.306 261.209 116.382C262.283 115.227 262.727 114.721 265.802 113.458C268.877 112.194 271.915 110.533 272.397 110.425C272.877 110.317 274.868 111.07 277.121 111.075Z" fill="#E61717"/>
<path d="M277.121 222.982C279.373 222.978 281.364 222.224 281.844 222.332C282.326 222.441 285.364 224.101 288.439 225.365C291.514 226.629 291.958 227.134 293.032 228.29C293.892 229.214 297.071 234.018 298.553 236.305C298.968 237.027 298.738 237.677 298.293 238.002C297.046 238.712 294.389 240.204 293.736 240.493C292.922 240.854 292.588 240.782 292.292 240.673C291.996 240.565 289.958 238.327 289.81 238.218C289.439 238.796 289.18 239.554 289.069 241.901C288.957 244.248 289.624 261.83 289.624 262.913C289.624 263.997 289.735 264.683 287.772 264.972C286.208 265.201 280.057 265.498 277.139 265.619V265.621C277.133 265.621 277.127 265.621 277.121 265.62C277.114 265.621 277.108 265.621 277.102 265.621V265.62C274.184 265.498 268.033 265.201 266.469 264.972C264.506 264.683 264.617 263.997 264.617 262.913C264.617 261.83 265.284 244.248 265.173 241.901C265.061 239.554 264.802 238.796 264.432 238.218C264.283 238.327 262.246 240.565 261.949 240.673C261.653 240.782 261.319 240.854 260.505 240.493C259.852 240.204 257.195 238.712 255.948 238.002C255.503 237.677 255.273 237.027 255.688 236.305C257.17 234.018 260.349 229.214 261.209 228.29C262.283 227.134 262.727 226.629 265.802 225.365C268.877 224.101 271.915 222.441 272.397 222.332C272.877 222.224 274.868 222.978 277.121 222.982Z" fill="#DAD1C7"/>
<path d="M336.499 110.447C336.735 110.349 337.017 110.479 337.067 110.728L345.137 150.764C345.176 150.958 345.057 151.148 344.865 151.196L335.058 153.702C334.853 153.754 334.646 153.627 334.601 153.421L329.071 127.944L323.542 153.421C323.497 153.627 323.29 153.754 323.085 153.702L313.278 151.196C313.086 151.148 312.966 150.958 313.005 150.764L321.076 110.728C321.126 110.479 321.408 110.349 321.643 110.447C323.577 111.249 327.272 111.407 329.048 111.381L329.048 111.38H329.095C330.87 111.407 334.566 111.249 336.499 110.447Z" fill="#E61717"/>
<path d="M336.499 222.354C336.735 222.257 337.017 222.387 337.067 222.635L345.137 262.672C345.176 262.865 345.057 263.055 344.865 263.104L335.058 265.61C334.853 265.662 334.646 265.534 334.601 265.329L329.071 239.852L323.542 265.329C323.497 265.534 323.29 265.662 323.085 265.61L313.278 263.104C313.086 263.055 312.966 262.865 313.005 262.672L321.076 222.635C321.126 222.387 321.408 222.257 321.643 222.354C323.577 223.156 327.272 223.315 329.048 223.288L329.048 223.288H329.095C330.87 223.315 334.566 223.156 336.499 222.354Z" fill="#DAD1C7"/>
<path d="M379.41 111.091C381.718 111.087 383.759 110.314 384.252 110.425C384.746 110.536 387.859 112.238 391.011 113.534C394.163 114.829 394.618 115.347 395.72 116.531C396.6 117.479 399.859 122.403 401.378 124.747C401.803 125.487 401.568 126.153 401.112 126.486C399.834 127.214 397.109 128.743 396.441 129.039C395.606 129.41 395.264 129.336 394.96 129.225C394.657 129.114 392.568 126.82 392.416 126.708C392.036 127.3 391.771 128.077 391.657 130.483C391.543 132.888 392.226 150.911 392.226 152.021C392.226 153.131 392.34 153.834 390.327 154.13C388.724 154.366 382.419 154.67 379.429 154.794V154.796C379.423 154.796 379.416 154.796 379.41 154.795C379.403 154.796 379.397 154.796 379.391 154.796V154.795C376.4 154.67 370.096 154.366 368.492 154.13C366.48 153.834 366.594 153.131 366.594 152.021C366.594 150.911 367.277 132.888 367.163 130.483C367.049 128.077 366.783 127.3 366.404 126.708C366.251 126.82 364.163 129.114 363.859 129.225C363.556 129.336 363.214 129.41 362.378 129.039C361.71 128.743 358.986 127.214 357.708 126.486C357.252 126.153 357.016 125.487 357.442 124.747C358.961 122.403 362.219 117.479 363.1 116.531C364.201 115.347 364.657 114.829 367.809 113.534C370.96 112.238 374.074 110.536 374.568 110.425C375.06 110.314 377.101 111.087 379.41 111.091Z" fill="#E61717"/>
<path d="M379.41 222.999C381.718 222.994 383.759 222.222 384.252 222.333C384.746 222.444 387.859 224.146 391.011 225.441C394.163 226.736 394.618 227.255 395.72 228.439C396.6 229.386 399.859 234.31 401.378 236.654C401.803 237.394 401.568 238.061 401.112 238.394C399.834 239.122 397.109 240.651 396.441 240.947C395.606 241.317 395.264 241.243 394.96 241.132C394.657 241.021 392.568 238.727 392.416 238.616C392.036 239.208 391.771 239.985 391.657 242.39C391.543 244.796 392.226 262.818 392.226 263.928C392.226 265.038 392.34 265.742 390.327 266.038C388.724 266.273 382.419 266.577 379.429 266.702V266.704C379.423 266.703 379.416 266.703 379.41 266.703C379.403 266.703 379.397 266.703 379.391 266.704V266.702C376.4 266.578 370.096 266.273 368.492 266.038C366.48 265.742 366.594 265.038 366.594 263.928C366.594 262.818 367.277 244.796 367.163 242.39C367.049 239.985 366.783 239.208 366.404 238.616C366.251 238.727 364.163 241.021 363.859 241.132C363.556 241.243 363.214 241.317 362.378 240.947C361.71 240.651 358.986 239.122 357.708 238.394C357.252 238.061 357.016 237.394 357.442 236.654C358.961 234.31 362.219 229.386 363.1 228.439C364.201 227.255 364.657 226.736 367.809 225.441C370.96 224.146 374.074 222.444 374.568 222.333C375.06 222.222 377.101 222.994 379.41 222.999Z" fill="#DAD1C7"/>
<path d="M438.255 110.447C438.49 110.349 438.772 110.479 438.823 110.728L446.893 150.764C446.932 150.958 446.812 151.148 446.621 151.196L436.814 153.702C436.609 153.754 436.402 153.627 436.357 153.421L430.827 127.944L425.298 153.421C425.253 153.627 425.046 153.754 424.841 153.702L415.034 151.196C414.842 151.148 414.722 150.958 414.761 150.764L422.832 110.728C422.882 110.479 423.164 110.349 423.399 110.447C425.333 111.249 429.028 111.407 430.804 111.381L430.804 111.38H430.851C432.626 111.407 436.321 111.249 438.255 110.447Z" fill="#E61717"/>
<path d="M438.255 222.354C438.49 222.257 438.772 222.387 438.823 222.635L446.893 262.672C446.932 262.865 446.812 263.055 446.621 263.104L436.814 265.61C436.609 265.662 436.402 265.534 436.357 265.329L430.827 239.852L425.298 265.329C425.253 265.534 425.046 265.662 424.841 265.61L415.034 263.104C414.842 263.055 414.722 262.865 414.761 262.672L422.832 222.635C422.882 222.387 423.164 222.257 423.399 222.354C425.333 223.156 429.028 223.315 430.804 223.288L430.804 223.288H430.851C432.626 223.315 436.321 223.156 438.255 222.354Z" fill="#DAD1C7"/>
<path d="M482.792 111.075C485.045 111.07 487.036 110.317 487.516 110.425C487.998 110.533 491.036 112.194 494.111 113.458C497.186 114.721 497.63 115.227 498.704 116.382C499.564 117.306 502.743 122.11 504.225 124.397C504.64 125.119 504.41 125.769 503.965 126.094C502.718 126.804 500.06 128.296 499.408 128.585C498.593 128.946 498.26 128.874 497.964 128.766C497.667 128.658 495.63 126.419 495.481 126.311C495.111 126.888 494.852 127.647 494.74 129.993C494.629 132.34 495.296 149.923 495.296 151.006C495.296 152.089 495.407 152.775 493.444 153.064C491.879 153.294 485.728 153.591 482.811 153.712V153.714C482.805 153.714 482.799 153.713 482.792 153.713C482.786 153.713 482.78 153.714 482.774 153.714V153.712C479.856 153.591 473.705 153.294 472.141 153.064C470.178 152.775 470.289 152.089 470.289 151.006C470.289 149.923 470.956 132.34 470.844 129.993C470.733 127.647 470.474 126.888 470.103 126.311C469.955 126.419 467.918 128.658 467.621 128.766C467.325 128.874 466.991 128.946 466.176 128.585C465.524 128.296 462.867 126.804 461.62 126.094C461.175 125.769 460.945 125.119 461.36 124.397C462.842 122.11 466.021 117.306 466.881 116.382C467.955 115.227 468.399 114.721 471.474 113.458C474.549 112.194 477.587 110.533 478.069 110.425C478.549 110.317 480.54 111.07 482.792 111.075Z" fill="#E61717"/>
<path d="M482.792 222.982C485.045 222.978 487.036 222.224 487.516 222.332C487.998 222.441 491.036 224.101 494.111 225.365C497.186 226.629 497.63 227.134 498.704 228.29C499.564 229.214 502.743 234.018 504.225 236.305C504.64 237.027 504.41 237.677 503.965 238.002C502.718 238.712 500.06 240.204 499.408 240.493C498.593 240.854 498.26 240.782 497.964 240.673C497.667 240.565 495.63 238.327 495.481 238.218C495.111 238.796 494.852 239.554 494.74 241.901C494.629 244.248 495.296 261.83 495.296 262.913C495.296 263.997 495.407 264.683 493.444 264.972C491.879 265.201 485.728 265.498 482.811 265.619V265.621C482.805 265.621 482.799 265.621 482.792 265.62C482.786 265.621 482.78 265.621 482.774 265.621V265.62C479.856 265.498 473.705 265.201 472.141 264.972C470.178 264.683 470.289 263.997 470.289 262.913C470.289 261.83 470.956 244.248 470.844 241.901C470.733 239.554 470.474 238.796 470.103 238.218C469.955 238.327 467.918 240.565 467.621 240.673C467.325 240.782 466.991 240.854 466.176 240.493C465.524 240.204 462.867 238.712 461.62 238.002C461.175 237.677 460.945 237.027 461.36 236.305C462.842 234.018 466.021 229.214 466.881 228.29C467.955 227.134 468.399 226.629 471.474 225.365C474.549 224.101 477.587 222.441 478.069 222.332C478.549 222.224 480.54 222.978 482.792 222.982Z" fill="#DAD1C7"/>
<path d="M540.739 110.448C540.98 110.348 541.269 110.481 541.321 110.736L549.593 151.773C549.633 151.971 549.51 152.166 549.314 152.216L539.262 154.784C539.052 154.838 538.839 154.707 538.793 154.496L533.126 128.383L527.458 154.496C527.412 154.707 527.199 154.838 526.99 154.784L516.937 152.216C516.741 152.166 516.618 151.971 516.658 151.773L524.931 110.736C524.982 110.481 525.271 110.348 525.512 110.448C527.494 111.269 531.282 111.432 533.102 111.405L533.102 111.404H533.149C534.969 111.432 538.757 111.269 540.739 110.448Z" fill="#E61717"/>
<path d="M540.739 222.355C540.98 222.255 541.269 222.388 541.321 222.643L549.593 263.681C549.633 263.879 549.51 264.073 549.314 264.123L539.262 266.692C539.052 266.745 538.839 266.615 538.793 266.404L533.126 240.29L527.458 266.404C527.412 266.615 527.199 266.745 526.99 266.692L516.937 264.123C516.741 264.073 516.618 263.879 516.658 263.681L524.931 222.643C524.982 222.388 525.271 222.255 525.512 222.355C527.494 223.177 531.282 223.34 533.102 223.312L533.102 223.312H533.149C534.969 223.339 538.757 223.177 540.739 222.355Z" fill="#DAD1C7"/>
<path d="M584.542 111.075C586.795 111.07 588.786 110.317 589.266 110.425C589.748 110.533 592.786 112.194 595.861 113.458C598.936 114.721 599.38 115.227 600.454 116.382C601.314 117.306 604.493 122.11 605.975 124.397C606.39 125.119 606.16 125.769 605.715 126.094C604.468 126.804 601.81 128.296 601.158 128.585C600.343 128.946 600.01 128.874 599.714 128.766C599.417 128.658 597.38 126.419 597.231 126.311C596.861 126.888 596.602 127.647 596.49 129.993C596.379 132.34 597.046 149.923 597.046 151.006C597.046 152.089 597.157 152.775 595.194 153.064C593.629 153.294 587.478 153.591 584.561 153.712V153.714C584.555 153.714 584.549 153.713 584.542 153.713C584.536 153.713 584.53 153.714 584.524 153.714V153.712C581.606 153.591 575.455 153.294 573.891 153.064C571.928 152.775 572.039 152.089 572.039 151.006C572.039 149.923 572.706 132.34 572.594 129.993C572.483 127.647 572.224 126.888 571.853 126.311C571.705 126.419 569.668 128.658 569.371 128.766C569.075 128.874 568.741 128.946 567.926 128.585C567.274 128.296 564.617 126.804 563.37 126.094C562.925 125.769 562.695 125.119 563.11 124.397C564.592 122.11 567.771 117.306 568.631 116.382C569.705 115.227 570.149 114.721 573.224 113.458C576.299 112.194 579.337 110.533 579.819 110.425C580.299 110.317 582.29 111.07 584.542 111.075Z" fill="#E61717"/>
<path d="M584.542 222.982C586.795 222.978 588.786 222.224 589.266 222.332C589.748 222.441 592.786 224.101 595.861 225.365C598.936 226.629 599.38 227.134 600.454 228.29C601.314 229.214 604.493 234.018 605.975 236.305C606.39 237.027 606.16 237.677 605.715 238.002C604.468 238.712 601.81 240.204 601.158 240.493C600.343 240.854 600.01 240.782 599.714 240.673C599.417 240.565 597.38 238.327 597.231 238.218C596.861 238.796 596.602 239.554 596.49 241.901C596.379 244.248 597.046 261.83 597.046 262.913C597.046 263.997 597.157 264.683 595.194 264.972C593.629 265.201 587.478 265.498 584.561 265.619V265.621C584.555 265.621 584.549 265.621 584.542 265.62C584.536 265.621 584.53 265.621 584.524 265.621V265.62C581.606 265.498 575.455 265.201 573.891 264.972C571.928 264.683 572.039 263.997 572.039 262.913C572.039 261.83 572.706 244.248 572.594 241.901C572.483 239.554 572.224 238.796 571.853 238.218C571.705 238.327 569.668 240.565 569.371 240.673C569.075 240.782 568.741 240.854 567.926 240.493C567.274 240.204 564.617 238.712 563.37 238.002C562.925 237.677 562.695 237.027 563.11 236.305C564.592 234.018 567.771 229.214 568.631 228.29C569.705 227.134 570.149 226.629 573.224 225.365C576.299 224.101 579.337 222.441 579.819 222.332C580.299 222.224 582.29 222.978 584.542 222.982Z" fill="#DAD1C7"/>
<path d="M642.493 110.448C642.734 110.348 643.023 110.481 643.075 110.736L651.347 151.773C651.387 151.971 651.264 152.166 651.068 152.216L641.016 154.784C640.806 154.838 640.593 154.707 640.547 154.496L634.879 128.383L629.212 154.496C629.166 154.707 628.953 154.838 628.744 154.784L618.691 152.216C618.495 152.166 618.372 151.971 618.412 151.773L626.685 110.736C626.736 110.481 627.025 110.348 627.266 110.448C629.248 111.269 633.035 111.432 634.855 111.405L634.856 111.404H634.903C636.723 111.432 640.511 111.269 642.493 110.448Z" fill="#E61717"/>
<path d="M642.493 222.355C642.734 222.255 643.023 222.388 643.075 222.643L651.347 263.681C651.387 263.879 651.264 264.073 651.068 264.123L641.016 266.692C640.806 266.745 640.593 266.615 640.547 266.404L634.879 240.29L629.212 266.404C629.166 266.615 628.953 266.745 628.744 266.692L618.691 264.123C618.495 264.073 618.372 263.879 618.412 263.681L626.685 222.643C626.736 222.388 627.025 222.255 627.266 222.355C629.248 223.177 633.035 223.34 634.855 223.312L634.856 223.312H634.903C636.723 223.339 640.511 223.177 642.493 222.355Z" fill="#DAD1C7"/>
<path d="M686.296 111.075C688.549 111.07 690.54 110.317 691.02 110.425C691.502 110.533 694.54 112.194 697.615 113.458C700.689 114.721 701.134 115.227 702.208 116.382C703.068 117.306 706.247 122.11 707.729 124.397C708.144 125.119 707.914 125.769 707.469 126.094C706.222 126.804 703.564 128.296 702.912 128.585C702.097 128.946 701.764 128.874 701.468 128.766C701.171 128.658 699.134 126.419 698.985 126.311C698.615 126.888 698.356 127.647 698.244 129.993C698.133 132.34 698.8 149.923 698.8 151.006C698.8 152.089 698.911 152.775 696.948 153.064C695.383 153.294 689.232 153.591 686.315 153.712V153.714C686.309 153.714 686.302 153.713 686.296 153.713C686.29 153.713 686.284 153.714 686.278 153.714V153.712C683.36 153.591 677.209 153.294 675.645 153.064C673.682 152.775 673.793 152.089 673.793 151.006C673.793 149.923 674.459 132.34 674.348 129.993C674.237 127.647 673.978 126.888 673.607 126.311C673.459 126.419 671.421 128.658 671.125 128.766C670.829 128.874 670.495 128.946 669.68 128.585C669.028 128.296 666.371 126.804 665.124 126.094C664.679 125.769 664.449 125.119 664.864 124.397C666.346 122.11 669.525 117.306 670.384 116.382C671.459 115.227 671.903 114.721 674.978 113.458C678.053 112.194 681.091 110.533 681.573 110.425C682.053 110.317 684.044 111.07 686.296 111.075Z" fill="#E61717"/>
<path d="M686.296 222.982C688.549 222.978 690.54 222.224 691.02 222.332C691.502 222.441 694.54 224.101 697.615 225.365C700.689 226.629 701.134 227.134 702.208 228.29C703.068 229.214 706.247 234.018 707.729 236.305C708.144 237.027 707.914 237.677 707.469 238.002C706.222 238.712 703.564 240.204 702.912 240.493C702.097 240.854 701.764 240.782 701.468 240.673C701.171 240.565 699.134 238.327 698.985 238.218C698.615 238.796 698.356 239.554 698.244 241.901C698.133 244.248 698.8 261.83 698.8 262.913C698.8 263.997 698.911 264.683 696.948 264.972C695.383 265.201 689.232 265.498 686.315 265.619V265.621C686.309 265.621 686.302 265.621 686.296 265.62C686.29 265.621 686.284 265.621 686.278 265.621V265.62C683.36 265.498 677.209 265.201 675.645 264.972C673.682 264.683 673.793 263.997 673.793 262.913C673.793 261.83 674.459 244.248 674.348 241.901C674.237 239.554 673.978 238.796 673.607 238.218C673.459 238.327 671.421 240.565 671.125 240.673C670.829 240.782 670.495 240.854 669.68 240.493C669.028 240.204 666.371 238.712 665.124 238.002C664.679 237.677 664.449 237.027 664.864 236.305C666.346 234.018 669.525 229.214 670.384 228.29C671.459 227.134 671.903 226.629 674.978 225.365C678.053 224.101 681.091 222.441 681.573 222.332C682.053 222.224 684.044 222.978 686.296 222.982Z" fill="#DAD1C7"/>
<path d="M745.683 110.447C745.918 110.349 746.2 110.479 746.25 110.728L754.321 150.764C754.36 150.958 754.24 151.148 754.048 151.196L744.241 153.702C744.037 153.754 743.829 153.627 743.785 153.421L738.255 127.944L732.726 153.421C732.681 153.627 732.473 153.754 732.269 153.702L722.462 151.196C722.27 151.148 722.15 150.958 722.189 150.764L730.26 110.728C730.31 110.479 730.592 110.349 730.827 110.447C732.761 111.249 736.456 111.407 738.232 111.381L738.232 111.38H738.278C740.054 111.407 743.749 111.249 745.683 110.447Z" fill="#E61717"/>
<path d="M788.054 111.075C790.306 111.07 792.298 110.317 792.778 110.425C793.26 110.533 796.298 112.194 799.372 113.458C802.447 114.721 802.892 115.227 803.966 116.382C804.825 117.306 808.004 122.11 809.486 124.397C809.901 125.119 809.671 125.769 809.227 126.094C807.98 126.804 805.322 128.296 804.67 128.585C803.855 128.946 803.522 128.874 803.225 128.766C802.929 128.658 800.891 126.419 800.743 126.311C800.372 126.888 800.113 127.647 800.002 129.993C799.891 132.34 800.558 149.923 800.558 151.006C800.558 152.089 800.669 152.775 798.705 153.064C797.141 153.294 790.99 153.591 788.073 153.712V153.714C788.067 153.714 788.06 153.713 788.054 153.713C788.048 153.713 788.042 153.714 788.036 153.714V153.712C785.118 153.591 778.967 153.294 777.403 153.064C775.439 152.775 775.551 152.089 775.551 151.006C775.551 149.923 776.217 132.34 776.106 129.993C775.995 127.647 775.736 126.888 775.365 126.311C775.217 126.419 773.179 128.658 772.883 128.766C772.587 128.874 772.253 128.946 771.438 128.585C770.786 128.296 768.129 126.804 766.881 126.094C766.437 125.769 766.207 125.119 766.622 124.397C768.104 122.11 771.283 117.306 772.142 116.382C773.217 115.227 773.661 114.721 776.736 113.458C779.811 112.194 782.848 110.533 783.33 110.425C783.811 110.317 785.802 111.07 788.054 111.075Z" fill="#E61717"/>
<path d="M788.054 222.66C790.306 222.656 792.298 221.903 792.778 222.011C793.26 222.119 796.298 223.78 799.372 225.043C802.447 226.307 802.892 226.813 803.966 227.968C804.825 228.892 808.004 233.696 809.486 235.983C809.901 236.705 809.671 237.355 809.227 237.68C807.98 238.39 805.322 239.882 804.67 240.171C803.855 240.532 803.522 240.46 803.225 240.352C802.929 240.243 800.891 238.005 800.743 237.896C800.372 238.474 800.113 239.232 800.002 241.579C799.891 243.926 800.558 261.509 800.558 262.592C800.558 263.675 800.669 264.361 798.705 264.65C797.141 264.88 790.99 265.176 788.073 265.298V265.3C788.067 265.299 788.06 265.299 788.054 265.299C788.048 265.299 788.042 265.299 788.036 265.3V265.298C785.118 265.177 778.967 264.88 777.403 264.65C775.439 264.361 775.551 263.675 775.551 262.592C775.551 261.509 776.217 243.926 776.106 241.579C775.995 239.232 775.736 238.474 775.365 237.896C775.217 238.005 773.179 240.243 772.883 240.352C772.587 240.46 772.253 240.532 771.438 240.171C770.786 239.882 768.129 238.39 766.881 237.68C766.437 237.355 766.207 236.705 766.622 235.983C768.104 233.696 771.283 228.892 772.142 227.968C773.217 226.813 773.661 226.307 776.736 225.043C779.811 223.78 782.848 222.119 783.33 222.011C783.811 221.903 785.802 222.656 788.054 222.66Z" fill="#DAD1C7"/>
<path d="M847.437 110.447C847.672 110.349 847.954 110.479 848.004 110.728L856.075 150.764C856.114 150.958 855.994 151.148 855.802 151.196L845.995 153.702C845.791 153.754 845.583 153.627 845.539 153.421L840.009 127.944L834.479 153.421C834.435 153.627 834.227 153.754 834.023 153.702L824.215 151.196C824.024 151.148 823.904 150.958 823.943 150.764L832.014 110.728C832.064 110.479 832.346 110.349 832.581 110.447C834.515 111.249 838.21 111.407 839.985 111.381L839.986 111.38H840.032C841.808 111.407 845.503 111.249 847.437 110.447Z" fill="#D6CEC4"/>
<path d="M21.6498 167.364C23.9021 167.359 25.8932 166.606 26.3735 166.714C26.8555 166.823 29.8933 168.483 32.968 169.747C36.043 171.01 36.4874 171.516 37.5617 172.671C38.4212 173.596 41.6001 178.4 43.0821 180.686C43.4971 181.408 43.2671 182.058 42.8226 182.383C41.5755 183.093 38.9178 184.585 38.2657 184.874C37.4509 185.235 37.1173 185.163 36.821 185.055C36.5248 184.947 34.4871 182.709 34.3389 182.6C33.9682 183.178 33.7091 183.936 33.5979 186.282C33.4867 188.629 34.1532 206.212 34.1532 207.295C34.1532 208.378 34.2644 209.064 32.3011 209.353C30.7369 209.583 24.5858 209.88 21.6684 210.001V210.003C21.6622 210.003 21.656 210.002 21.6498 210.002C21.6436 210.002 21.6374 210.003 21.6312 210.003V210.001C18.7138 209.88 12.5627 209.583 10.9986 209.353C9.03508 209.064 9.14635 208.378 9.14635 207.295C9.14635 206.212 9.81297 188.629 9.70183 186.282C9.59069 183.936 9.33129 183.178 8.96088 182.6C8.81239 182.709 6.77495 184.947 6.47857 185.055C6.18223 185.163 5.84879 185.235 5.03385 184.874C4.38173 184.585 1.72431 183.093 0.477028 182.383C0.0325147 182.058 -0.19738 181.408 0.217555 180.686C1.6995 178.4 4.87846 173.596 5.73795 172.671C6.81234 171.516 7.25672 171.01 10.3316 169.747C13.4063 168.483 16.4441 166.823 16.9261 166.714C17.4064 166.606 19.3975 167.359 21.6498 167.364Z" fill="#E61717"/>
<path d="M81.0345 166.736C81.2698 166.638 81.5517 166.768 81.6018 167.017L89.6724 207.054C89.7114 207.247 89.5917 207.437 89.3998 207.486L79.593 209.991C79.3883 210.043 79.1808 209.916 79.1362 209.71L73.6065 184.233L68.0771 209.71C68.0325 209.916 67.825 210.043 67.6203 209.991L57.8132 207.486C57.6214 207.437 57.5016 207.247 57.5405 207.054L65.6115 167.017C65.6616 166.768 65.9432 166.638 66.1785 166.736C68.1122 167.538 71.8075 167.697 73.5831 167.67L73.5834 167.669H73.6299C75.4054 167.696 79.1007 167.538 81.0345 166.736Z" fill="#E61717"/>
<path d="M123.947 167.38C126.256 167.376 128.296 166.604 128.789 166.714C129.283 166.825 132.396 168.528 135.548 169.823C138.7 171.118 139.155 171.636 140.257 172.821C141.138 173.768 144.396 178.692 145.915 181.036C146.34 181.776 146.105 182.442 145.649 182.775C144.371 183.503 141.647 185.032 140.978 185.329C140.143 185.699 139.801 185.625 139.497 185.514C139.194 185.403 137.105 183.109 136.953 182.997C136.573 183.589 136.308 184.367 136.194 186.772C136.08 189.178 136.763 207.2 136.763 208.31C136.763 209.42 136.877 210.123 134.864 210.419C133.261 210.655 126.956 210.959 123.966 211.083V211.085C123.96 211.085 123.953 211.085 123.947 211.084C123.941 211.085 123.934 211.085 123.928 211.085V211.084C120.937 210.959 114.633 210.655 113.029 210.419C111.017 210.123 111.131 209.42 111.131 208.31C111.131 207.2 111.814 189.178 111.7 186.772C111.586 184.367 111.32 183.589 110.941 182.997C110.789 183.109 108.7 185.403 108.396 185.514C108.093 185.625 107.751 185.699 106.916 185.329C106.247 185.032 103.523 183.503 102.245 182.775C101.789 182.442 101.554 181.776 101.979 181.036C103.498 178.692 106.756 173.768 107.637 172.821C108.739 171.636 109.194 171.118 112.346 169.823C115.497 168.528 118.611 166.825 119.105 166.714C119.597 166.604 121.638 167.376 123.947 167.38Z" fill="#E61717"/>
<path d="M182.79 166.736C183.026 166.638 183.308 166.768 183.358 167.017L191.428 207.054C191.467 207.247 191.348 207.437 191.156 207.486L181.349 209.991C181.144 210.043 180.937 209.916 180.892 209.71L175.362 184.233L169.833 209.71C169.788 209.916 169.581 210.043 169.376 209.991L159.569 207.486C159.377 207.437 159.257 207.247 159.296 207.054L167.367 167.017C167.417 166.768 167.699 166.638 167.934 166.736C169.868 167.538 173.563 167.697 175.339 167.67L175.339 167.669H175.386C177.161 167.696 180.857 167.538 182.79 166.736Z" fill="#E61717"/>
<path d="M225.699 167.38C228.007 167.376 230.048 166.604 230.541 166.714C231.035 166.825 234.148 168.528 237.3 169.823C240.452 171.118 240.907 171.636 242.009 172.821C242.89 173.768 246.148 178.692 247.667 181.036C248.092 181.776 247.857 182.442 247.401 182.775C246.123 183.503 243.399 185.032 242.73 185.329C241.895 185.699 241.553 185.625 241.249 185.514C240.946 185.403 238.857 183.109 238.705 182.997C238.325 183.589 238.06 184.367 237.946 186.772C237.832 189.178 238.515 207.2 238.515 208.31C238.515 209.42 238.629 210.123 236.616 210.419C235.013 210.655 228.708 210.959 225.718 211.083V211.085C225.712 211.085 225.705 211.085 225.699 211.084C225.693 211.085 225.686 211.085 225.68 211.085V211.084C222.689 210.959 216.385 210.655 214.781 210.419C212.769 210.123 212.883 209.42 212.883 208.31C212.883 207.2 213.566 189.178 213.452 186.772C213.338 184.367 213.072 183.589 212.693 182.997C212.541 183.109 210.452 185.403 210.148 185.514C209.845 185.625 209.503 185.699 208.668 185.329C207.999 185.032 205.275 183.503 203.997 182.775C203.541 182.442 203.305 181.776 203.731 181.036C205.25 178.692 208.508 173.768 209.389 172.821C210.49 171.636 210.946 171.118 214.098 169.823C217.249 168.528 220.363 166.825 220.857 166.714C221.349 166.604 223.39 167.376 225.699 167.38Z" fill="#E61717"/>
<path d="M284.546 166.736C284.782 166.638 285.063 166.768 285.114 167.017L293.184 207.054C293.223 207.247 293.103 207.437 292.912 207.486L283.105 209.991C282.9 210.043 282.693 209.916 282.648 209.71L277.118 184.233L271.589 209.71C271.544 209.916 271.337 210.043 271.132 209.991L261.325 207.486C261.133 207.437 261.013 207.247 261.052 207.054L269.123 167.017C269.173 166.768 269.455 166.638 269.69 166.736C271.624 167.538 275.319 167.697 277.095 167.67L277.095 167.669H277.142C278.917 167.696 282.612 167.538 284.546 166.736Z" fill="#E61717"/>
<path d="M329.074 167.364C331.326 167.359 333.317 166.606 333.797 166.714C334.279 166.823 337.317 168.483 340.392 169.747C343.467 171.01 343.911 171.516 344.986 172.671C345.845 173.596 349.024 178.4 350.506 180.686C350.921 181.408 350.691 182.058 350.246 182.383C348.999 183.093 346.342 184.585 345.69 184.874C344.875 185.235 344.541 185.163 344.245 185.055C343.949 184.947 341.911 182.709 341.763 182.6C341.392 183.178 341.133 183.936 341.022 186.282C340.91 188.629 341.577 206.212 341.577 207.295C341.577 208.378 341.688 209.064 339.725 209.353C338.161 209.583 332.01 209.88 329.092 210.001V210.003C329.086 210.003 329.08 210.002 329.074 210.002C329.067 210.002 329.061 210.003 329.055 210.003V210.001C326.138 209.88 319.987 209.583 318.422 209.353C316.459 209.064 316.57 208.378 316.57 207.295C316.57 206.212 317.237 188.629 317.126 186.282C317.015 183.936 316.755 183.178 316.385 182.6C316.236 182.709 314.199 184.947 313.902 185.055C313.606 185.163 313.273 185.235 312.458 184.874C311.806 184.585 309.148 183.093 307.901 182.383C307.456 182.058 307.226 181.408 307.641 180.686C309.123 178.4 312.302 173.596 313.162 172.671C314.236 171.516 314.681 171.01 317.755 169.747C320.83 168.483 323.868 166.823 324.35 166.714C324.83 166.606 326.821 167.359 329.074 167.364Z" fill="#E61717"/>
<path d="M387.024 166.737C387.266 166.637 387.554 166.77 387.606 167.025L395.878 208.062C395.918 208.26 395.795 208.455 395.599 208.505L385.547 211.074C385.337 211.127 385.124 210.996 385.079 210.785L379.411 184.672L373.743 210.785C373.697 210.996 373.485 211.127 373.275 211.074L363.222 208.505C363.026 208.455 362.903 208.26 362.943 208.062L371.216 167.025C371.267 166.77 371.556 166.637 371.797 166.737C373.779 167.559 377.567 167.721 379.387 167.694L379.387 167.694H379.435C381.255 167.721 385.042 167.559 387.024 166.737Z" fill="#E61717"/>
<path d="M430.83 167.364C433.082 167.359 435.073 166.606 435.553 166.714C436.035 166.823 439.073 168.483 442.148 169.747C445.223 171.01 445.667 171.516 446.741 172.671C447.601 173.596 450.78 178.4 452.262 180.686C452.677 181.408 452.447 182.058 452.002 182.383C450.755 183.093 448.097 184.585 447.445 184.874C446.631 185.235 446.297 185.163 446.001 185.055C445.705 184.947 443.667 182.709 443.519 182.6C443.148 183.178 442.889 183.936 442.778 186.282C442.666 188.629 443.333 206.212 443.333 207.295C443.333 208.378 443.444 209.064 441.481 209.353C439.917 209.583 433.766 209.88 430.848 210.001V210.003C430.842 210.003 430.836 210.002 430.83 210.002C430.823 210.002 430.817 210.003 430.811 210.003V210.001C427.893 209.88 421.742 209.583 420.178 209.353C418.215 209.064 418.326 208.378 418.326 207.295C418.326 206.212 418.993 188.629 418.882 186.282C418.77 183.936 418.511 183.178 418.141 182.6C417.992 182.709 415.955 184.947 415.658 185.055C415.362 185.163 415.028 185.235 414.214 184.874C413.561 184.585 410.904 183.093 409.657 182.383C409.212 182.058 408.982 181.408 409.397 180.686C410.879 178.4 414.058 173.596 414.918 172.671C415.992 171.516 416.436 171.01 419.511 169.747C422.586 168.483 425.624 166.823 426.106 166.714C426.586 166.606 428.577 167.359 430.83 167.364Z" fill="#E61717"/>
<path d="M490.218 166.736C490.453 166.638 490.735 166.768 490.785 167.017L498.856 207.054C498.895 207.247 498.775 207.437 498.583 207.486L488.777 209.991C488.572 210.043 488.364 209.916 488.32 209.71L482.79 184.233L477.261 209.71C477.216 209.916 477.009 210.043 476.804 209.991L466.997 207.486C466.805 207.437 466.685 207.247 466.724 207.054L474.795 167.017C474.845 166.768 475.127 166.638 475.362 166.736C477.296 167.538 480.991 167.697 482.767 167.67L482.767 167.669H482.813C484.589 167.696 488.284 167.538 490.218 166.736Z" fill="#E61717"/>
<path d="M533.125 167.38C535.433 167.376 537.474 166.604 537.966 166.714C538.461 166.825 541.574 168.528 544.726 169.823C547.878 171.118 548.333 171.636 549.434 172.821C550.315 173.768 553.574 178.692 555.093 181.036C555.518 181.776 555.282 182.442 554.827 182.775C553.548 183.503 550.824 185.032 550.156 185.329C549.321 185.699 548.979 185.625 548.675 185.514C548.372 185.403 546.283 183.109 546.131 182.997C545.751 183.589 545.485 184.367 545.371 186.772C545.257 189.178 545.941 207.2 545.941 208.31C545.941 209.42 546.055 210.123 544.042 210.419C542.439 210.655 536.134 210.959 533.144 211.083V211.085C533.137 211.085 533.131 211.085 533.125 211.084C533.118 211.085 533.112 211.085 533.106 211.085V211.084C530.115 210.959 523.81 210.655 522.207 210.419C520.195 210.123 520.309 209.42 520.309 208.31C520.309 207.2 520.992 189.178 520.878 186.772C520.764 184.367 520.498 183.589 520.118 182.997C519.966 183.109 517.878 185.403 517.574 185.514C517.27 185.625 516.929 185.699 516.093 185.329C515.425 185.032 512.701 183.503 511.423 182.775C510.967 182.442 510.731 181.776 511.157 181.036C512.676 178.692 515.934 173.768 516.815 172.821C517.916 171.636 518.372 171.118 521.523 169.823C524.675 168.528 527.789 166.825 528.283 166.714C528.775 166.604 530.816 167.376 533.125 167.38Z" fill="#E61717"/>
<path d="M591.968 166.736C592.203 166.638 592.485 166.768 592.535 167.017L600.606 207.054C600.645 207.247 600.525 207.437 600.333 207.486L590.527 209.991C590.322 210.043 590.114 209.916 590.07 209.71L584.54 184.233L579.011 209.71C578.966 209.916 578.759 210.043 578.554 209.991L568.747 207.486C568.555 207.437 568.435 207.247 568.474 207.054L576.545 167.017C576.595 166.768 576.877 166.638 577.112 166.736C579.046 167.538 582.741 167.697 584.517 167.67L584.517 167.669H584.563C586.339 167.696 590.034 167.538 591.968 166.736Z" fill="#DAD1C7"/>
<path d="M634.879 167.38C637.187 167.376 639.228 166.604 639.72 166.714C640.214 166.825 643.328 168.528 646.48 169.823C649.632 171.118 650.087 171.636 651.188 172.821C652.069 173.768 655.328 178.692 656.847 181.036C657.272 181.776 657.036 182.442 656.581 182.775C655.302 183.503 652.578 185.032 651.91 185.329C651.075 185.699 650.733 185.625 650.429 185.514C650.125 185.403 648.037 183.109 647.885 182.997C647.505 183.589 647.239 184.367 647.125 186.772C647.011 189.178 647.695 207.2 647.695 208.31C647.695 209.42 647.809 210.123 645.796 210.419C644.193 210.655 637.888 210.959 634.898 211.083V211.085C634.891 211.085 634.885 211.085 634.879 211.084C634.872 211.085 634.866 211.085 634.86 211.085V211.084C631.869 210.959 625.564 210.655 623.961 210.419C621.948 210.123 622.063 209.42 622.063 208.31C622.063 207.2 622.746 189.178 622.632 186.772C622.518 184.367 622.252 183.589 621.872 182.997C621.72 183.109 619.632 185.403 619.328 185.514C619.024 185.625 618.683 185.699 617.847 185.329C617.179 185.032 614.455 183.503 613.176 182.775C612.721 182.442 612.485 181.776 612.91 181.036C614.429 178.692 617.688 173.768 618.569 172.821C619.67 171.636 620.126 171.118 623.277 169.823C626.429 168.528 629.543 166.825 630.037 166.714C630.529 166.604 632.57 167.376 634.879 167.38Z" fill="#DAD1C7"/>
<path d="M693.722 166.736C693.957 166.638 694.239 166.768 694.289 167.017L702.36 207.054C702.399 207.247 702.279 207.437 702.087 207.486L692.28 209.991C692.076 210.043 691.868 209.916 691.824 209.71L686.294 184.233L680.765 209.71C680.72 209.916 680.513 210.043 680.308 209.991L670.501 207.486C670.309 207.437 670.189 207.247 670.228 207.054L678.299 167.017C678.349 166.768 678.631 166.638 678.866 166.736C680.8 167.538 684.495 167.697 686.271 167.67L686.271 167.669H686.317C688.093 167.696 691.788 167.538 693.722 166.736Z" fill="#DAD1C7"/>
<path d="M738.257 167.364C740.51 167.359 742.501 166.606 742.981 166.714C743.463 166.823 746.501 168.483 749.575 169.747C752.65 171.01 753.095 171.516 754.169 172.671C755.029 173.596 758.207 178.4 759.69 180.686C760.104 181.408 759.875 182.058 759.43 182.383C758.183 183.093 755.525 184.585 754.873 184.874C754.058 185.235 753.725 185.163 753.428 185.055C753.132 184.947 751.095 182.709 750.946 182.6C750.576 183.178 750.316 183.936 750.205 186.282C750.094 188.629 750.761 206.212 750.761 207.295C750.761 208.378 750.872 209.064 748.908 209.353C747.344 209.583 741.193 209.88 738.276 210.001V210.003C738.27 210.003 738.263 210.002 738.257 210.002C738.251 210.002 738.245 210.003 738.239 210.003V210.001C735.321 209.88 729.17 209.583 727.606 209.353C725.643 209.064 725.754 208.378 725.754 207.295C725.754 206.212 726.42 188.629 726.309 186.282C726.198 183.936 725.939 183.178 725.568 182.6C725.42 182.709 723.382 184.947 723.086 185.055C722.79 185.163 722.456 185.235 721.641 184.874C720.989 184.585 718.332 183.093 717.084 182.383C716.64 182.058 716.41 181.408 716.825 180.686C718.307 178.4 721.486 173.596 722.345 172.671C723.42 171.516 723.864 171.01 726.939 169.747C730.014 168.483 733.052 166.823 733.534 166.714C734.014 166.606 736.005 167.359 738.257 167.364Z" fill="#DAD1C7"/>
<path d="M795.48 166.736C795.715 166.638 795.997 166.768 796.047 167.017L804.118 207.054C804.157 207.247 804.037 207.437 803.845 207.486L794.038 209.991C793.834 210.043 793.626 209.916 793.581 209.71L788.052 184.233L782.522 209.71C782.478 209.916 782.27 210.043 782.066 209.991L772.258 207.486C772.067 207.437 771.947 207.247 771.986 207.054L780.057 167.017C780.107 166.768 780.389 166.638 780.624 166.736C782.558 167.538 786.253 167.697 788.028 167.67L788.029 167.669H788.075C789.851 167.696 793.546 167.538 795.48 166.736Z" fill="#DAD1C7"/>
<path d="M847.437 166.736C847.672 166.638 847.954 166.768 848.004 167.017L856.075 207.054C856.114 207.247 855.994 207.437 855.802 207.486L845.995 209.991C845.791 210.043 845.583 209.916 845.539 209.71L840.009 184.233L834.479 209.71C834.435 209.916 834.227 210.043 834.023 209.991L824.215 207.486C824.024 207.437 823.904 207.247 823.943 207.054L832.014 167.017C832.064 166.768 832.346 166.638 832.581 166.736C834.515 167.538 838.21 167.697 839.985 167.67L839.986 167.669H840.032C841.808 167.696 845.503 167.538 847.437 166.736Z" fill="#D6CEC4"/>
<path d="M745.683 220.86C745.918 220.762 746.2 220.892 746.25 221.141L754.321 261.177C754.36 261.37 754.24 261.56 754.048 261.609L744.241 264.115C744.037 264.167 743.829 264.04 743.785 263.834L738.255 238.357L732.726 263.834C732.681 264.04 732.473 264.167 732.269 264.115L722.462 261.609C722.27 261.56 722.15 261.37 722.189 261.177L730.26 221.141C730.31 220.892 730.592 220.762 730.827 220.86C732.761 221.661 736.456 221.82 738.232 221.794L738.232 221.793H738.278C740.054 221.82 743.749 221.661 745.683 220.86Z" fill="#DAD1C7"/>
</g>
<defs>
<clipPath id="clip0_5145_82566">
<rect width="824" height="275" fill="white"/>
</clipPath>
</defs>
</svg>
