<svg width="657" height="657" viewBox="0 0 657 657" fill="none" xmlns="http://www.w3.org/2000/svg">
<path d="M328.447 0.293986C329.45 0.29215 330.336 -0.0433797 330.55 0.00471687C330.765 0.0530535 332.117 0.792446 333.486 1.35506C334.856 1.91773 335.053 2.14291 335.532 2.65735C335.914 3.06889 337.33 5.20796 337.99 6.22614C338.175 6.54766 338.072 6.83714 337.874 6.98182C337.319 7.29799 336.136 7.96234 335.845 8.09097C335.482 8.2517 335.334 8.21963 335.202 8.17142C335.07 8.12319 334.163 7.12663 334.097 7.07824C333.932 7.33547 333.816 7.67306 333.767 8.718C333.717 9.76301 334.014 17.592 334.014 18.0743C334.014 18.5566 334.064 18.862 333.189 18.9907C332.493 19.0931 329.754 19.2251 328.455 19.2791V19.28C328.452 19.2799 328.449 19.2797 328.447 19.2796C328.444 19.2797 328.441 19.2799 328.438 19.28V19.2793C327.139 19.2252 324.4 19.0931 323.704 18.9907C322.83 18.862 322.879 18.5566 322.879 18.0743C322.879 17.592 323.176 9.76301 323.127 8.718C323.077 7.67306 322.962 7.33547 322.797 7.07824C322.731 7.12663 321.823 8.12319 321.691 8.17142C321.559 8.21963 321.411 8.2517 321.048 8.09097C320.758 7.96234 319.574 7.29799 319.019 6.98182C318.821 6.83714 318.719 6.54766 318.904 6.22614C319.563 5.20796 320.979 3.06889 321.362 2.65735C321.84 2.14291 322.038 1.91773 323.407 1.35506C324.776 0.792446 326.129 0.0530535 326.343 0.00471687C326.557 -0.0433797 327.444 0.29215 328.447 0.293986Z" fill="#E61717"/>
<path d="M328.448 656.517C327.445 656.519 326.558 656.854 326.345 656.806C326.13 656.758 324.777 656.019 323.408 655.456C322.039 654.893 321.841 654.668 321.363 654.154C320.98 653.742 319.565 651.603 318.905 650.585C318.72 650.263 318.822 649.974 319.02 649.829C319.576 649.513 320.759 648.849 321.049 648.72C321.412 648.559 321.561 648.591 321.693 648.64C321.824 648.688 322.732 649.684 322.798 649.733C322.963 649.476 323.078 649.138 323.128 648.093C323.177 647.048 322.88 639.219 322.88 638.737C322.88 638.254 322.831 637.949 323.705 637.82C324.402 637.718 327.141 637.586 328.44 637.532L328.44 637.531C328.442 637.531 328.445 637.531 328.448 637.531C328.451 637.531 328.453 637.531 328.456 637.531L328.456 637.532C329.755 637.586 332.494 637.718 333.191 637.82C334.065 637.949 334.015 638.254 334.015 638.737C334.015 639.219 333.718 647.048 333.768 648.093C333.817 649.138 333.933 649.476 334.098 649.733C334.164 649.684 335.071 648.688 335.203 648.64C335.335 648.591 335.484 648.559 335.846 648.72C336.137 648.849 337.32 649.513 337.875 649.829C338.073 649.974 338.176 650.263 337.991 650.585C337.331 651.603 335.916 653.742 335.533 654.154C335.055 654.668 334.857 654.893 333.488 655.456C332.118 656.019 330.766 656.758 330.551 656.806C330.337 656.854 329.451 656.519 328.448 656.517Z" fill="#E61717"/>
<path d="M363.839 1.9105C363.947 1.87751 364.066 1.94726 364.078 2.05969L365.912 20.1527C365.921 20.24 365.859 20.319 365.772 20.3323L361.317 21.0159C361.224 21.0301 361.138 20.9645 361.127 20.8714L359.786 9.34106L356.227 20.3901C356.198 20.4793 356.1 20.5269 356.012 20.4948L351.775 18.9576C351.692 18.9276 351.647 18.8382 351.673 18.7543L356.992 1.36379C357.025 1.25575 357.155 1.21054 357.255 1.26397C358.077 1.70341 359.708 1.93463 360.496 2.00001L360.496 1.99989L360.517 2.00191C361.302 2.09108 362.947 2.18164 363.839 1.9105Z" fill="#D6CEC4"/>
<path d="M293.064 654.902C292.955 654.935 292.836 654.865 292.824 654.753L290.99 636.66C290.982 636.572 291.043 636.493 291.13 636.48L295.585 635.796C295.678 635.782 295.764 635.848 295.775 635.941L297.117 647.471L300.676 636.422C300.705 636.333 300.802 636.285 300.89 636.317L305.127 637.855C305.21 637.885 305.255 637.974 305.229 638.058L299.91 655.448C299.877 655.557 299.747 655.602 299.647 655.548C298.825 655.109 297.194 654.878 296.406 654.812L296.406 654.812L296.386 654.81C295.6 654.721 293.955 654.631 293.064 654.902Z" fill="#D6CEC4"/>
<path d="M392.283 6.56219C393.267 6.7555 394.202 6.59885 394.403 6.68764C394.604 6.7768 395.787 7.76521 397.02 8.58343C398.254 9.4017 398.404 9.66108 398.773 10.2588C399.069 10.7369 400.041 13.1105 400.49 14.2375C400.609 14.5889 400.452 14.8529 400.23 14.9563C399.624 15.1584 398.334 15.5799 398.024 15.6495C397.637 15.7366 397.497 15.6763 397.377 15.6033C397.257 15.5303 396.561 14.3763 396.506 14.316C396.294 14.5362 396.115 14.8449 395.863 15.8602C395.611 16.8757 394.379 24.6128 394.285 25.0859C394.192 25.559 394.181 25.8682 393.298 25.8243C392.595 25.7892 389.883 25.3859 388.598 25.1862L388.598 25.1871C388.595 25.1864 388.593 25.1857 388.59 25.185C388.587 25.1847 388.584 25.1843 388.582 25.1839L388.582 25.1832C387.318 24.8774 384.657 24.2149 383.994 23.979C383.162 23.6827 383.27 23.3928 383.363 22.9197C383.457 22.4466 385.271 14.825 385.426 13.7903C385.581 12.7557 385.533 12.4021 385.422 12.1177C385.347 12.1523 384.264 12.9533 384.125 12.9749C383.986 12.9966 383.834 12.9991 383.509 12.7709C383.25 12.5882 382.218 11.7064 381.735 11.2882C381.569 11.1078 381.525 10.8039 381.769 10.5245C382.614 9.65411 384.418 7.83128 384.874 7.50206C385.443 7.09051 385.681 6.90813 387.134 6.62257C388.586 6.33705 390.057 5.87493 390.277 5.86927C390.496 5.86369 391.3 6.36529 392.283 6.56219Z" fill="#E61717"/>
<path d="M264.623 650.248C263.639 650.055 262.704 650.211 262.503 650.122C262.302 650.033 261.119 649.045 259.886 648.227C258.652 647.408 258.502 647.149 258.133 646.551C257.838 646.073 256.865 643.7 256.416 642.573C256.297 642.221 256.454 641.957 256.676 641.854C257.283 641.652 258.573 641.23 258.882 641.161C259.27 641.073 259.409 641.134 259.529 641.207C259.649 641.28 260.345 642.434 260.401 642.494C260.612 642.274 260.791 641.965 261.043 640.95C261.295 639.934 262.527 632.197 262.621 631.724C262.715 631.251 262.725 630.942 263.608 630.986C264.311 631.021 267.023 631.424 268.308 631.624L268.308 631.623C268.311 631.624 268.314 631.624 268.316 631.625C268.319 631.625 268.322 631.626 268.325 631.626L268.324 631.627C269.588 631.933 272.249 632.595 272.912 632.831C273.745 633.127 273.637 633.417 273.543 633.89C273.449 634.363 271.635 641.985 271.48 643.02C271.325 644.054 271.373 644.408 271.485 644.692C271.559 644.658 272.643 643.857 272.782 643.835C272.92 643.814 273.072 643.811 273.397 644.039C273.657 644.222 274.688 645.104 275.171 645.522C275.337 645.702 275.381 646.006 275.138 646.286C274.292 647.156 272.488 648.979 272.032 649.308C271.463 649.72 271.225 649.902 269.773 650.187C268.32 650.473 266.85 650.935 266.63 650.941C266.411 650.946 265.606 650.445 264.623 650.248Z" fill="#E61717"/>
<path d="M426.68 15.0314C426.793 15.0202 426.896 15.1118 426.886 15.2243L425.165 33.3284C425.157 33.4158 425.081 33.4813 424.993 33.4774L420.49 33.2813C420.396 33.2771 420.324 33.196 420.332 33.1026L421.259 21.5315L415.618 31.6771C415.573 31.759 415.468 31.7867 415.387 31.738L411.531 29.4059C411.455 29.3604 411.429 29.264 411.47 29.1867L420.071 13.1632C420.124 13.0636 420.261 13.0447 420.348 13.1165C421.069 13.7075 422.624 14.2515 423.384 14.4689L423.384 14.4688L423.404 14.4748C424.157 14.7151 425.753 15.1239 426.68 15.0314Z" fill="#D6CEC4"/>
<path d="M230.222 641.778C230.109 641.789 230.006 641.698 230.017 641.585L231.738 623.481C231.746 623.394 231.821 623.328 231.909 623.332L236.412 623.528C236.506 623.532 236.578 623.614 236.571 623.707L235.643 635.278L241.284 625.132C241.33 625.051 241.434 625.023 241.515 625.072L245.372 627.404C245.447 627.449 245.474 627.546 245.432 627.623L236.832 643.646C236.778 643.746 236.642 643.765 236.554 643.693C235.833 643.102 234.279 642.558 233.518 642.341L233.518 642.341L233.498 642.335C232.745 642.094 231.15 641.686 230.222 641.778Z" fill="#D6CEC4"/>
<path d="M453.675 25.1286C454.603 25.5096 455.55 25.5379 455.73 25.6639C455.91 25.7905 456.878 26.9902 457.928 28.0327C458.979 29.0754 459.076 29.359 459.322 30.0171C459.519 30.5435 460.011 33.0609 460.232 34.2539C460.28 34.6216 460.075 34.85 459.837 34.9083C459.203 34.9885 457.855 35.151 457.538 35.159C457.141 35.1691 457.016 35.0828 456.913 34.9879C456.809 34.893 456.351 33.6256 456.308 33.5557C456.058 33.7304 455.822 33.9984 455.377 34.9454C454.933 35.8924 452.219 43.242 452.035 43.6878C451.851 44.1336 451.78 44.4348 450.923 44.2201C450.24 44.0489 447.658 43.1257 446.437 42.6798L446.437 42.6806C446.434 42.6795 446.432 42.6783 446.429 42.6771C446.427 42.6762 446.424 42.6752 446.421 42.6743L446.422 42.6737C445.242 42.1279 442.76 40.9605 442.156 40.6C441.397 40.1474 441.559 39.884 441.743 39.4382C441.927 38.9924 445.19 31.8693 445.543 30.8845C445.896 29.8998 445.918 29.5437 445.864 29.243C445.784 29.2625 444.565 29.8374 444.425 29.8316C444.284 29.8258 444.135 29.7988 443.861 29.5117C443.641 29.282 442.801 28.2163 442.409 27.7121C442.281 27.5029 442.297 27.1962 442.59 26.9696C443.589 26.2803 445.714 24.8434 446.224 24.609C446.863 24.3161 447.132 24.1835 448.612 24.186C450.092 24.1884 451.625 24.0212 451.841 24.0585C452.057 24.0956 452.749 24.7441 453.675 25.1286Z" fill="#D6CEC4"/>
<path d="M203.227 631.681C202.3 631.3 201.352 631.272 201.173 631.146C200.993 631.019 200.025 629.819 198.974 628.777C197.923 627.734 197.826 627.451 197.58 626.792C197.384 626.266 196.892 623.749 196.67 622.556C196.622 622.188 196.827 621.96 197.066 621.901C197.7 621.821 199.047 621.659 199.364 621.651C199.761 621.64 199.886 621.727 199.99 621.822C200.093 621.917 200.552 623.184 200.594 623.254C200.845 623.079 201.08 622.811 201.525 621.864C201.969 620.917 204.683 613.568 204.867 613.122C205.051 612.676 205.122 612.375 205.979 612.589C206.662 612.761 209.244 613.684 210.465 614.13L210.466 614.129C210.468 614.13 210.471 614.131 210.473 614.132C210.476 614.133 210.478 614.134 210.481 614.135L210.481 614.136C211.661 614.682 214.142 615.849 214.747 616.21C215.506 616.662 215.343 616.926 215.159 617.371C214.975 617.817 211.713 624.94 211.36 625.925C211.007 626.91 210.985 627.266 211.039 627.567C211.118 627.547 212.337 626.972 212.478 626.978C212.618 626.984 212.767 627.011 213.042 627.298C213.261 627.528 214.101 628.593 214.494 629.097C214.621 629.307 214.606 629.613 214.312 629.84C213.314 630.529 211.189 631.966 210.678 632.201C210.04 632.493 209.771 632.626 208.29 632.624C206.81 632.621 205.278 632.788 205.061 632.751C204.845 632.714 204.154 632.065 203.227 631.681Z" fill="#D6CEC4"/>
<path d="M485.77 40.1279C485.883 40.1388 485.966 40.2488 485.934 40.357L480.724 57.7805C480.699 57.8646 480.612 57.9141 480.526 57.8932L476.148 56.8249C476.057 56.8025 476.002 56.7089 476.027 56.6187L479.188 45.4491L471.681 54.3035C471.621 54.375 471.512 54.3817 471.443 54.3184L468.113 51.2805C468.048 51.2212 468.041 51.1214 468.097 51.0537L479.65 37.0095C479.722 36.9222 479.86 36.9302 479.932 37.0178C480.524 37.7377 481.943 38.5737 482.646 38.9349L482.646 38.9348L482.665 38.9445C483.357 39.3268 484.842 40.0381 485.77 40.1279Z" fill="#E61717"/>
<path d="M171.136 616.681C171.023 616.671 170.94 616.561 170.972 616.452L176.182 599.029C176.207 598.945 176.294 598.895 176.38 598.916L180.758 599.984C180.85 600.007 180.905 600.1 180.879 600.191L177.719 611.36L185.225 602.506C185.286 602.434 185.394 602.428 185.463 602.491L188.793 605.529C188.858 605.588 188.865 605.688 188.81 605.756L177.256 619.8C177.184 619.887 177.047 619.879 176.975 619.792C176.382 619.072 174.964 618.236 174.26 617.874L174.26 617.875L174.242 617.865C173.55 617.483 172.064 616.771 171.136 616.681Z" fill="#E61717"/>
<path d="M510.281 55.2837C511.117 55.838 512.041 56.05 512.192 56.2086C512.344 56.3677 513.061 57.7328 513.888 58.9598C514.716 60.187 514.756 60.4841 514.869 61.1774C514.96 61.732 514.953 64.297 514.938 65.5102C514.913 65.8803 514.668 66.0645 514.423 66.0753C513.785 66.0307 512.432 65.9279 512.119 65.874C511.728 65.8068 511.622 65.6978 511.539 65.5845C511.456 65.4713 511.253 64.1389 511.225 64.0621C510.945 64.1847 510.662 64.4018 510.041 65.2442C509.421 66.0866 505.33 72.7679 505.062 73.1694C504.795 73.5708 504.667 73.8525 503.868 73.4751C503.231 73.1744 500.878 71.7665 499.767 71.0916L499.767 71.0923C499.764 71.0907 499.762 71.089 499.76 71.0874C499.758 71.0859 499.755 71.0845 499.753 71.0831L499.753 71.0825C498.702 70.3176 496.495 68.6898 495.972 68.2186C495.316 67.627 495.526 67.4002 495.794 66.9987C496.061 66.5973 500.647 60.2449 501.185 59.3476C501.722 58.4504 501.813 58.1054 501.819 57.7999C501.737 57.8035 500.429 58.1303 500.293 58.0973C500.156 58.0643 500.015 58.0087 499.802 57.6738C499.631 57.4059 499.015 56.1971 498.728 55.6262C498.643 55.396 498.718 55.0983 499.05 54.9331C500.164 54.4513 502.527 53.4551 503.074 53.3246C503.757 53.1615 504.047 53.0837 505.498 53.3741C506.95 53.6645 508.485 53.7986 508.691 53.8773C508.896 53.9558 509.448 54.7264 510.281 55.2837Z" fill="#D6CEC4"/>
<path d="M146.621 601.525C145.785 600.971 144.861 600.759 144.71 600.6C144.558 600.441 143.842 599.076 143.014 597.849C142.186 596.622 142.146 596.325 142.033 595.631C141.943 595.077 141.95 592.512 141.965 591.298C141.989 590.928 142.235 590.744 142.48 590.733C143.117 590.778 144.47 590.881 144.783 590.935C145.174 591.002 145.28 591.111 145.363 591.224C145.446 591.337 145.649 592.67 145.678 592.747C145.957 592.624 146.241 592.407 146.861 591.564C147.481 590.722 151.573 584.041 151.84 583.639C152.107 583.238 152.235 582.956 153.034 583.333C153.671 583.634 156.024 585.042 157.135 585.717L157.136 585.716C157.138 585.718 157.14 585.72 157.142 585.721C157.145 585.723 157.147 585.724 157.149 585.725L157.149 585.726C158.2 586.491 160.407 588.119 160.93 588.59C161.586 589.182 161.376 589.408 161.109 589.81C160.841 590.211 156.256 596.564 155.718 597.461C155.18 598.358 155.089 598.703 155.084 599.009C155.166 599.005 156.473 598.678 156.61 598.711C156.746 598.744 156.887 598.8 157.1 599.135C157.271 599.403 157.888 600.611 158.175 601.182C158.259 601.413 158.184 601.71 157.852 601.875C156.739 602.357 154.375 603.353 153.828 603.484C153.145 603.647 152.856 603.725 151.404 603.434C149.953 603.144 148.417 603.01 148.211 602.931C148.007 602.853 147.455 602.082 146.621 601.525Z" fill="#D6CEC4"/>
<path d="M538.827 76.2404C538.936 76.2731 538.997 76.3972 538.944 76.4971L530.444 92.5741C530.403 92.6517 530.308 92.6834 530.228 92.6462L526.141 90.7465C526.056 90.7068 526.02 90.6043 526.063 90.5208L531.336 80.1794L522.25 87.4044C522.177 87.4627 522.069 87.4482 522.013 87.3726L519.338 83.745C519.286 83.6741 519.298 83.5749 519.366 83.5193L533.431 71.991C533.518 71.9194 533.652 71.954 533.706 72.0539C534.146 72.8753 535.376 73.9714 535.995 74.4625L535.995 74.4625L536.011 74.4756C536.616 74.9852 537.935 75.9719 538.827 76.2404Z" fill="#D6CEC4"/>
<path d="M118.044 580.569C117.935 580.536 117.875 580.412 117.927 580.312L126.427 564.235C126.468 564.157 126.563 564.126 126.643 564.163L130.73 566.063C130.816 566.102 130.851 566.205 130.809 566.288L125.535 576.63L134.621 569.405C134.694 569.346 134.802 569.361 134.858 569.437L137.533 573.064C137.585 573.135 137.573 573.234 137.505 573.29L123.44 584.818C123.353 584.89 123.219 584.855 123.165 584.755C122.725 583.934 121.496 582.838 120.876 582.347L120.876 582.347L120.86 582.334C120.255 581.824 118.936 580.837 118.044 580.569Z" fill="#D6CEC4"/>
<path d="M559.925 95.8753C560.637 96.5816 561.502 96.9693 561.62 97.1543C561.738 97.34 562.175 98.8183 562.748 100.183C563.321 101.548 563.303 101.847 563.279 102.549C563.26 103.111 562.754 105.625 562.503 106.812C562.407 107.171 562.13 107.303 561.888 107.266C561.271 107.099 559.964 106.735 559.667 106.621C559.297 106.479 559.214 106.351 559.155 106.224C559.095 106.097 559.155 104.75 559.143 104.669C558.844 104.735 558.524 104.893 557.752 105.599C556.98 106.304 551.667 112.062 551.326 112.404C550.986 112.746 550.806 112.997 550.095 112.471C549.529 112.053 547.495 110.214 546.537 109.336L546.536 109.336C546.534 109.334 546.532 109.332 546.53 109.33C546.528 109.328 546.526 109.326 546.524 109.325L546.525 109.324C545.642 108.369 543.794 106.343 543.373 105.779C542.844 105.071 543.095 104.89 543.435 104.548C543.775 104.206 549.509 98.8674 550.212 98.0919C550.914 97.3164 551.07 96.9957 551.135 96.697C551.054 96.6847 549.708 96.7509 549.58 96.6919C549.452 96.633 549.325 96.551 549.181 96.1811C549.066 95.885 548.696 94.5794 548.525 93.9635C548.487 93.7213 548.619 93.444 548.977 93.3464C550.163 93.0904 552.675 92.5732 553.237 92.5515C553.939 92.5245 554.238 92.5045 555.605 93.0717C556.972 93.6389 558.452 94.0692 558.639 94.1864C558.824 94.3032 559.216 95.1665 559.925 95.8753Z" fill="#D6CEC4"/>
<path d="M96.946 560.933C96.2339 560.227 95.3689 559.839 95.2513 559.654C95.1333 559.468 94.6964 557.99 94.123 556.625C93.5497 555.26 93.5683 554.961 93.5923 554.259C93.6114 553.698 94.1174 551.183 94.3681 549.996C94.464 549.638 94.7408 549.505 94.9832 549.542C95.5998 549.71 96.9071 550.074 97.2037 550.187C97.5742 550.329 97.6568 550.457 97.7163 550.584C97.7757 550.711 97.7157 552.058 97.7283 552.139C98.0267 552.073 98.3467 551.915 99.119 551.209C99.8914 550.504 105.205 544.746 105.545 544.404C105.885 544.062 106.066 543.811 106.776 544.337C107.342 544.755 109.376 546.594 110.335 547.472L110.335 547.472C110.337 547.474 110.339 547.476 110.341 547.478C110.343 547.48 110.345 547.482 110.347 547.483L110.346 547.484C111.229 548.439 113.077 550.465 113.498 551.029C114.027 551.737 113.776 551.918 113.436 552.26C113.096 552.602 107.362 557.941 106.66 558.716C105.957 559.492 105.801 559.812 105.737 560.111C105.818 560.123 107.164 560.057 107.291 560.116C107.419 560.175 107.546 560.257 107.69 560.627C107.805 560.923 108.175 562.229 108.346 562.845C108.384 563.087 108.252 563.364 107.894 563.462C106.708 563.718 104.196 564.235 103.634 564.257C102.933 564.284 102.633 564.304 101.266 563.736C99.8989 563.169 98.4187 562.739 98.2325 562.622C98.047 562.505 97.6554 561.642 96.946 560.933Z" fill="#D6CEC4"/>
<path d="M583.868 121.987C583.969 122.04 584.004 122.174 583.933 122.262L572.467 136.378C572.412 136.446 572.313 136.459 572.242 136.407L568.602 133.748C568.526 133.692 568.511 133.585 568.569 133.511L575.754 124.393L565.436 129.713C565.353 129.756 565.25 129.721 565.21 129.636L563.292 125.557C563.254 125.477 563.286 125.382 563.363 125.341L579.402 116.769C579.502 116.716 579.626 116.776 579.659 116.884C579.932 117.776 580.924 119.09 581.436 119.692L581.437 119.692L581.45 119.708C581.944 120.326 583.045 121.55 583.868 121.987Z" fill="#D6CEC4"/>
<path d="M73.0105 534.82C72.9103 534.767 72.875 534.633 72.9462 534.545L84.4116 520.429C84.4669 520.361 84.566 520.348 84.6372 520.4L88.2766 523.059C88.3525 523.114 88.3675 523.222 88.3095 523.295L81.1253 532.413L91.4429 527.094C91.5262 527.051 91.6289 527.086 91.6689 527.171L93.587 531.25C93.6246 531.33 93.5933 531.425 93.5159 531.466L77.477 540.038C77.3773 540.091 77.253 540.031 77.2198 539.923C76.9473 539.031 75.9548 537.717 75.4425 537.115L75.4423 537.115L75.4292 537.099C74.9353 536.481 73.8338 535.257 73.0105 534.82Z" fill="#D6CEC4"/>
<path d="M600.743 145.352C601.305 146.183 602.078 146.732 602.157 146.936C602.237 147.141 602.378 148.676 602.674 150.126C602.971 151.577 602.895 151.866 602.735 152.55C602.607 153.098 601.621 155.466 601.144 156.581C600.981 156.914 600.683 156.991 600.453 156.907C599.881 156.623 598.669 156.011 598.4 155.842C598.064 155.63 598.008 155.489 597.975 155.353C597.941 155.217 598.262 153.908 598.265 153.826C597.96 153.832 597.615 153.925 596.72 154.467C595.825 155.009 589.494 159.623 589.093 159.892C588.693 160.161 588.467 160.372 587.873 159.719C587.399 159.198 585.762 156.998 584.992 155.95L584.991 155.951C584.99 155.949 584.989 155.946 584.987 155.944C584.985 155.942 584.984 155.939 584.982 155.937L584.983 155.937C584.303 154.829 582.885 152.482 582.581 151.847C582.2 151.049 582.481 150.92 582.881 150.651C583.282 150.382 589.945 146.26 590.784 145.636C591.624 145.012 591.84 144.728 591.961 144.448C591.884 144.42 590.551 144.223 590.437 144.14C590.324 144.058 590.214 143.952 590.145 143.562C590.09 143.249 589.981 141.896 589.934 141.259C589.943 141.014 590.126 140.767 590.496 140.741C591.709 140.721 594.274 140.702 594.829 140.79C595.523 140.9 595.82 140.939 597.051 141.761C598.282 142.584 599.65 143.294 599.81 143.445C599.969 143.596 600.186 144.519 600.743 145.352Z" fill="#E61717"/>
<path d="M56.1354 511.455C55.5744 510.624 54.8013 510.075 54.7219 509.871C54.6423 509.666 54.5013 508.131 54.2044 506.681C53.9075 505.231 53.984 504.941 54.1441 504.257C54.2721 503.71 55.2577 501.341 55.7345 500.226C55.8983 499.893 56.1956 499.817 56.4261 499.9C56.9983 500.185 58.2099 500.796 58.4786 500.965C58.8144 501.177 58.8707 501.318 58.9043 501.454C58.9378 501.591 58.617 502.9 58.6136 502.981C58.9192 502.975 59.2637 502.882 60.1586 502.34C61.0535 501.798 67.3852 497.184 67.7855 496.915C68.1858 496.646 68.4116 496.435 69.0061 497.088C69.4797 497.609 71.1172 499.809 71.8868 500.857L71.8876 500.856C71.889 500.859 71.8904 500.861 71.8918 500.863C71.8935 500.866 71.8951 500.868 71.8968 500.87L71.8962 500.87C72.5761 501.979 73.9944 504.325 74.2979 504.961C74.6789 505.758 74.3978 505.887 73.9975 506.156C73.5973 506.425 66.9343 510.547 66.0947 511.171C65.255 511.795 65.0393 512.079 64.9179 512.359C64.9949 512.387 66.3281 512.584 66.4417 512.667C66.5554 512.749 66.6648 512.855 66.7339 513.246C66.7891 513.558 66.8979 514.911 66.9453 515.548C66.9357 515.793 66.7525 516.04 66.3826 516.066C65.1695 516.086 62.6046 516.105 62.0495 516.017C61.3557 515.907 61.0584 515.868 59.8276 515.046C58.5969 514.223 57.2286 513.513 57.0688 513.362C56.9096 513.212 56.6934 512.289 56.1354 511.455Z" fill="#E61717"/>
<path d="M619.146 175.623C619.234 175.694 619.242 175.832 619.155 175.904L605.163 187.52C605.095 187.576 604.996 187.57 604.936 187.505L601.883 184.189C601.82 184.12 601.826 184.011 601.897 183.95L610.718 176.404L599.563 179.615C599.472 179.641 599.379 179.586 599.356 179.495L598.268 175.121C598.247 175.036 598.296 174.949 598.38 174.923L615.78 169.635C615.888 169.602 615.998 169.686 616.01 169.798C616.103 170.726 616.821 172.208 617.207 172.898L617.207 172.898L617.217 172.917C617.581 173.618 618.423 175.034 619.146 175.623Z" fill="#D6CEC4"/>
<path d="M37.7332 481.185C37.6452 481.113 37.6366 480.975 37.7235 480.903L51.716 469.287C51.7835 469.231 51.8832 469.238 51.9429 469.303L54.9956 472.618C55.0592 472.687 55.053 472.796 54.9818 472.857L46.1611 480.403L57.3164 477.192C57.4065 477.166 57.5003 477.221 57.5231 477.312L58.611 481.686C58.6323 481.771 58.5832 481.858 58.4992 481.884L41.0992 487.172C40.9911 487.205 40.8808 487.122 40.8693 487.009C40.7754 486.081 40.0576 484.599 39.6723 483.909L39.6721 483.909L39.6623 483.89C39.298 483.189 38.4557 481.773 37.7332 481.185Z" fill="#D6CEC4"/>
<path d="M631.155 201.824C631.543 202.749 632.195 203.437 632.233 203.653C632.271 203.87 632.111 205.403 632.12 206.883C632.129 208.363 631.998 208.633 631.708 209.272C631.476 209.784 630.048 211.915 629.363 212.917C629.138 213.212 628.831 213.229 628.622 213.102C628.116 212.712 627.046 211.876 626.816 211.658C626.527 211.385 626.5 211.236 626.493 211.095C626.487 210.955 627.056 209.734 627.075 209.654C626.774 209.601 626.418 209.625 625.435 209.982C624.452 210.34 617.344 213.634 616.899 213.82C616.454 214.006 616.191 214.169 615.735 213.412C615.372 212.809 614.193 210.333 613.642 209.156L613.642 209.156C613.641 209.154 613.64 209.151 613.639 209.148C613.638 209.146 613.636 209.143 613.635 209.141L613.636 209.141C613.185 207.921 612.25 205.343 612.076 204.661C611.857 203.805 612.158 203.733 612.603 203.547C613.048 203.361 620.385 200.614 621.33 200.166C622.275 199.717 622.542 199.48 622.716 199.229C622.646 199.186 621.376 198.734 621.281 198.631C621.186 198.528 621.099 198.403 621.107 198.006C621.114 197.689 621.27 196.341 621.348 195.706C621.405 195.468 621.632 195.262 622 195.308C623.194 195.524 625.714 196.005 626.241 196.199C626.9 196.442 627.184 196.538 628.232 197.584C629.279 198.63 630.483 199.593 630.61 199.772C630.737 199.951 630.77 200.898 631.155 201.824Z" fill="#E61717"/>
<path d="M25.7281 454.984C25.3395 454.059 24.6879 453.371 24.6498 453.155C24.6116 452.938 24.7719 451.405 24.7628 449.925C24.7537 448.445 24.8851 448.175 25.1752 447.536C25.4072 447.024 26.8347 444.893 27.5194 443.891C27.7448 443.597 28.0514 443.579 28.2612 443.706C28.7671 444.096 29.8366 444.932 30.0673 445.15C30.3555 445.423 30.3832 445.572 30.3896 445.713C30.396 445.853 29.8266 447.075 29.8075 447.154C30.1085 447.207 30.4644 447.183 31.4476 446.826C32.4308 446.468 39.5393 443.174 39.9842 442.988C40.4292 442.802 40.6918 442.639 41.1478 443.396C41.511 443.999 42.6894 446.475 43.2404 447.652L43.2412 447.652C43.2421 447.655 43.2431 447.657 43.244 447.66C43.2452 447.662 43.2464 447.665 43.2476 447.667L43.2469 447.667C43.6982 448.887 44.6329 451.465 44.8071 452.147C45.0256 453.003 44.7248 453.075 44.2798 453.261C43.8348 453.447 36.4974 456.194 35.5524 456.642C34.6074 457.091 34.3405 457.328 34.1668 457.579C34.237 457.622 35.5064 458.074 35.6018 458.177C35.6972 458.281 35.784 458.405 35.7757 458.802C35.7691 459.119 35.6126 460.467 35.5352 461.102C35.4781 461.34 35.2505 461.546 34.8826 461.5C33.6887 461.284 31.1691 460.803 30.6418 460.609C29.9826 460.366 29.6985 460.27 28.6512 459.224C27.604 458.178 26.4 457.215 26.2726 457.036C26.1457 456.857 26.1133 455.91 25.7281 454.984Z" fill="#E61717"/>
<path d="M643.318 235.097C643.39 235.184 643.372 235.321 643.273 235.375L627.288 244.047C627.211 244.089 627.114 244.063 627.068 243.988L624.719 240.141C624.67 240.061 624.697 239.956 624.779 239.91L634.899 234.224L623.332 235.203C623.239 235.211 623.157 235.14 623.153 235.046L622.937 230.544C622.932 230.456 622.997 230.38 623.085 230.371L641.181 228.569C641.293 228.558 641.385 228.661 641.375 228.774C641.286 229.702 641.702 231.295 641.946 232.048L641.946 232.048L641.952 232.068C642.173 232.827 642.724 234.379 643.318 235.097Z" fill="#E61717"/>
<path d="M13.5687 421.712C13.4964 421.624 13.5148 421.487 13.6141 421.433L29.599 412.761C29.6761 412.719 29.7726 412.746 29.8185 412.821L32.1678 416.667C32.2168 416.747 32.1896 416.852 32.1079 416.898L21.9877 422.584L33.5545 421.605C33.6479 421.597 33.7293 421.669 33.7339 421.763L33.9502 426.265C33.9544 426.353 33.8893 426.429 33.802 426.437L15.7057 428.239C15.5933 428.25 15.5012 428.147 15.5119 428.035C15.6002 427.107 15.1845 425.513 14.9408 424.761L14.9407 424.761L14.9346 424.741C14.7138 423.982 14.1629 422.43 13.5687 421.712Z" fill="#E61717"/>
<path d="M649.997 263.133C650.198 264.116 650.703 264.918 650.699 265.137C650.694 265.357 650.238 266.83 649.959 268.283C649.68 269.737 649.499 269.976 649.09 270.547C648.763 271.004 646.948 272.817 646.082 273.666C645.803 273.911 645.499 273.868 645.318 273.703C644.898 273.222 644.011 272.194 643.827 271.935C643.598 271.611 643.6 271.459 643.621 271.321C643.642 271.182 644.438 270.094 644.472 270.02C644.187 269.909 643.833 269.863 642.799 270.023C641.765 270.182 634.152 272.03 633.679 272.126C633.207 272.222 632.917 272.332 632.617 271.5C632.378 270.838 631.704 268.18 631.393 266.918L631.392 266.918C631.391 266.916 631.391 266.913 631.391 266.91C631.39 266.907 631.389 266.905 631.389 266.902L631.389 266.902C631.184 265.618 630.768 262.908 630.73 262.205C630.682 261.322 630.992 261.31 631.464 261.214C631.937 261.118 639.669 259.852 640.683 259.595C641.697 259.339 642.005 259.159 642.224 258.946C642.164 258.891 641.006 258.2 640.933 258.08C640.859 257.96 640.798 257.821 640.884 257.434C640.952 257.123 641.368 255.832 641.567 255.224C641.67 255.002 641.933 254.844 642.285 254.961C643.414 255.405 645.792 256.367 646.271 256.66C646.871 257.026 647.131 257.176 647.954 258.405C648.778 259.635 649.772 260.814 649.862 261.014C649.952 261.214 649.799 262.15 649.997 263.133Z" fill="#D6CEC4"/>
<path d="M6.88997 393.675C6.68867 392.693 6.18348 391.891 6.18807 391.672C6.19275 391.452 6.64829 389.979 6.92731 388.525C7.20636 387.072 7.38767 386.833 7.79668 386.262C8.12387 385.805 9.93861 383.992 10.8052 383.143C11.0835 382.898 11.3876 382.941 11.5687 383.106C11.989 383.587 12.8755 384.615 13.0593 384.874C13.289 385.197 13.2872 385.349 13.2661 385.488C13.2451 385.627 12.449 386.714 12.4147 386.789C12.6996 386.899 13.0534 386.945 14.0873 386.786C15.1213 386.626 22.7347 384.778 23.2074 384.682C23.6801 384.586 23.9695 384.477 24.2695 385.308C24.5084 385.97 25.1827 388.628 25.494 389.891L25.4949 389.89C25.4953 389.893 25.4957 389.896 25.4961 389.899C25.4968 389.901 25.4975 389.904 25.4982 389.907L25.4975 389.907C25.7029 391.191 26.1182 393.901 26.1564 394.604C26.2042 395.486 25.8951 395.499 25.4224 395.594C24.9498 395.69 17.2182 396.957 16.2039 397.213C15.1897 397.47 14.8819 397.65 14.6626 397.863C14.7232 397.918 15.8803 398.609 15.9538 398.729C16.0273 398.848 16.0882 398.987 16.0029 399.375C15.9346 399.685 15.5189 400.977 15.3196 401.584C15.2171 401.807 14.9538 401.965 14.602 401.848C13.4729 401.404 11.095 400.442 10.6155 400.149C10.0162 399.782 9.75615 399.633 8.93237 398.403C8.10865 397.173 7.11496 395.995 7.0249 395.794C6.93522 395.594 7.08767 394.659 6.88997 393.675Z" fill="#D6CEC4"/>
<path d="M655.451 298.136C655.505 298.236 655.461 298.367 655.353 298.4L637.986 303.797C637.902 303.823 637.813 303.779 637.782 303.696L636.226 299.466C636.194 299.378 636.241 299.28 636.33 299.251L647.363 295.642L635.827 294.352C635.734 294.342 635.668 294.256 635.682 294.163L636.345 289.705C636.358 289.618 636.437 289.556 636.524 289.564L654.625 291.318C654.738 291.328 654.808 291.447 654.775 291.556C654.508 292.449 654.606 294.093 654.699 294.878L654.699 294.878L654.701 294.899C654.77 295.687 655.008 297.316 655.451 298.136Z" fill="#E61717"/>
<path d="M1.4353 358.673C1.38138 358.574 1.42602 358.443 1.53392 358.409L18.9005 353.013C18.9843 352.987 19.0739 353.031 19.1042 353.114L20.6604 357.344C20.6928 357.432 20.6457 357.53 20.5567 357.559L9.52363 361.167L21.0599 362.457C21.153 362.468 21.219 362.554 21.2052 362.647L20.5415 367.105C20.5286 367.192 20.4499 367.254 20.3626 367.245L2.26152 365.492C2.14907 365.481 2.07882 365.362 2.11128 365.254C2.37842 364.361 2.28065 362.717 2.18796 361.931L2.18781 361.931L2.1857 361.911C2.1168 361.123 1.87842 359.493 1.4353 358.673Z" fill="#E61717"/>
<path d="M656.554 326.937C656.56 327.94 656.9 328.825 656.853 329.039C656.805 329.253 656.072 330.609 655.515 331.981C654.959 333.353 654.734 333.552 654.222 334.032C653.812 334.417 651.68 335.842 650.664 336.506C650.344 336.692 650.054 336.591 649.908 336.394C649.59 335.84 648.92 334.66 648.79 334.37C648.628 334.008 648.659 333.859 648.707 333.727C648.754 333.595 649.747 332.683 649.795 332.617C649.537 332.453 649.199 332.339 648.154 332.294C647.108 332.25 639.281 332.581 638.799 332.584C638.316 332.586 638.011 332.637 637.879 331.763C637.773 331.067 637.629 328.329 637.569 327.03L637.568 327.03C637.568 327.027 637.568 327.024 637.568 327.022C637.568 327.019 637.568 327.016 637.568 327.013L637.569 327.013C637.617 325.714 637.737 322.975 637.836 322.278C637.961 321.403 638.267 321.451 638.749 321.449C639.231 321.447 647.061 321.708 648.106 321.654C649.151 321.6 649.488 321.483 649.744 321.317C649.696 321.251 648.695 320.348 648.646 320.217C648.597 320.085 648.565 319.937 648.724 319.573C648.851 319.282 649.51 318.096 649.824 317.539C649.968 317.34 650.257 317.237 650.579 317.42C651.6 318.075 653.746 319.481 654.159 319.862C654.675 320.338 654.901 320.535 655.47 321.902C656.039 323.268 656.784 324.618 656.834 324.832C656.883 325.046 656.551 325.934 656.554 326.937Z" fill="#D6CEC4"/>
<path d="M0.336796 329.873C0.330474 328.871 -0.00901854 327.985 0.0381208 327.771C0.0854968 327.557 0.818831 326.201 1.37532 324.829C1.93185 323.457 2.15614 323.258 2.66844 322.778C3.07826 322.393 5.21098 320.968 6.22619 320.304C6.54689 320.118 6.83682 320.219 6.98239 320.416C7.30104 320.97 7.97068 322.15 8.1006 322.44C8.26296 322.802 8.23155 322.951 8.18393 323.083C8.13629 323.215 7.1438 324.127 7.0957 324.193C7.35367 324.357 7.69177 324.471 8.73693 324.516C9.78214 324.561 17.6097 324.229 18.092 324.227C18.5743 324.224 18.8795 324.173 19.0121 325.047C19.1176 325.743 19.2619 328.481 19.3217 329.78L19.3226 329.78C19.3225 329.783 19.3223 329.786 19.3222 329.788C19.3223 329.791 19.3225 329.794 19.3227 329.797L19.3219 329.797C19.2737 331.096 19.1538 333.835 19.0545 334.532C18.9297 335.407 18.6241 335.359 18.1418 335.361C17.6595 335.363 9.8293 335.102 8.78453 335.156C7.73981 335.21 7.40274 335.327 7.14626 335.493C7.19494 335.559 8.19555 336.462 8.24436 336.593C8.29317 336.725 8.32591 336.873 8.16679 337.237C8.03947 337.528 7.38042 338.714 7.06674 339.271C6.92294 339.47 6.63392 339.573 6.31158 339.39C5.29046 338.735 3.14508 337.329 2.73183 336.948C2.21525 336.472 1.98919 336.275 1.42041 334.908C0.851671 333.542 0.106235 332.192 0.0569392 331.978C0.00788642 331.764 0.339447 330.876 0.336796 329.873Z" fill="#D6CEC4"/>
<path d="M655.093 362.332C655.127 362.44 655.058 362.56 654.945 362.572L636.861 364.487C636.773 364.496 636.694 364.435 636.68 364.348L635.977 359.896C635.962 359.803 636.027 359.716 636.12 359.705L647.645 358.312L636.58 354.802C636.491 354.774 636.443 354.677 636.474 354.588L637.992 350.344C638.022 350.261 638.111 350.216 638.195 350.242L655.609 355.483C655.718 355.515 655.763 355.645 655.71 355.746C655.275 356.57 655.051 358.201 654.989 358.99L654.989 358.99L654.987 359.01C654.901 359.796 654.818 361.441 655.093 362.332Z" fill="#D6CEC4"/>
<path d="M1.79335 294.479C1.75988 294.37 1.8291 294.251 1.94147 294.239L20.0261 292.324C20.1134 292.315 20.1926 292.376 20.2063 292.463L20.9098 296.915C20.9244 297.008 20.8593 297.094 20.7662 297.105L9.24197 298.499L20.3069 302.008C20.3962 302.037 20.4441 302.134 20.4125 302.222L18.8943 306.466C18.8646 306.549 18.7754 306.594 18.6914 306.569L1.27727 301.328C1.16908 301.295 1.1233 301.165 1.17627 301.065C1.61203 300.241 1.83596 298.609 1.89782 297.821L1.89769 297.821L1.89962 297.8C1.98528 297.014 2.06847 295.369 1.79335 294.479Z" fill="#D6CEC4"/>
<path d="M650.57 390.796C650.381 391.781 650.542 392.716 650.454 392.916C650.365 393.118 649.382 394.305 648.57 395.542C647.757 396.78 647.498 396.931 646.902 397.303C646.425 397.6 644.056 398.583 642.931 399.037C642.58 399.158 642.316 399.002 642.211 398.78C642.006 398.175 641.579 396.887 641.508 396.577C641.419 396.191 641.479 396.051 641.551 395.931C641.624 395.81 642.775 395.109 642.835 395.053C642.614 394.842 642.304 394.665 641.288 394.418C640.271 394.17 632.529 392.973 632.055 392.881C631.582 392.79 631.272 392.78 631.312 391.897C631.344 391.194 631.735 388.48 631.929 387.194L631.929 387.194C631.929 387.192 631.93 387.189 631.931 387.186C631.931 387.184 631.931 387.181 631.932 387.178L631.932 387.178C632.232 385.913 632.883 383.249 633.116 382.585C633.409 381.751 633.699 381.858 634.172 381.95C634.646 382.041 642.276 383.821 643.311 383.972C644.346 384.122 644.7 384.072 644.984 383.959C644.949 383.885 644.143 382.805 644.121 382.666C644.098 382.528 644.095 382.376 644.322 382.05C644.503 381.79 645.381 380.754 645.797 380.269C645.976 380.102 646.28 380.057 646.56 380.299C647.435 381.141 649.265 382.937 649.597 383.391C650.011 383.959 650.194 384.196 650.486 385.647C650.778 387.098 651.247 388.567 651.254 388.786C651.26 389.006 650.762 389.812 650.57 390.796Z" fill="#D6CEC4"/>
<path d="M6.317 266.016C6.5059 265.031 6.34508 264.096 6.43296 263.896C6.52123 263.694 7.50433 262.507 8.31702 261.27C9.12977 260.032 9.38848 259.881 9.98449 259.509C10.4613 259.212 12.8305 258.229 13.9556 257.775C14.3064 257.654 14.5711 257.81 14.6755 258.032C14.8803 258.637 15.3075 259.925 15.3786 260.235C15.4674 260.621 15.4077 260.761 15.3352 260.881C15.2628 261.002 14.1119 261.703 14.0518 261.759C14.273 261.97 14.5825 262.147 15.5989 262.394C16.6155 262.642 24.358 263.839 24.8315 263.931C25.305 264.022 25.6143 264.032 25.5744 264.915C25.5425 265.618 25.1513 268.332 24.9573 269.618L24.9582 269.618C24.9575 269.62 24.9569 269.623 24.9562 269.626C24.9558 269.628 24.9554 269.631 24.955 269.634L24.9543 269.634C24.6543 270.899 24.0037 273.563 23.7707 274.227C23.4781 275.061 23.1877 274.954 22.7142 274.862C22.2407 274.771 14.611 272.991 13.5757 272.84C12.5404 272.69 12.187 272.74 11.9031 272.853C11.938 272.927 12.7439 274.007 12.7662 274.146C12.7884 274.284 12.7917 274.436 12.5649 274.762C12.3834 275.022 11.5061 276.058 11.0901 276.543C10.9105 276.71 10.6068 276.755 10.3263 276.513C9.45215 275.671 7.62126 273.875 7.29 273.421C6.87592 272.853 6.69247 272.616 6.40042 271.165C6.1084 269.714 5.6397 268.245 5.63306 268.026C5.62651 267.806 6.1245 267 6.317 266.016Z" fill="#D6CEC4"/>
<path d="M642.252 425.232C642.263 425.345 642.172 425.449 642.06 425.438L623.948 423.799C623.861 423.791 623.795 423.715 623.798 423.627L623.974 419.124C623.978 419.03 624.059 418.957 624.152 418.965L635.727 419.84L625.557 414.245C625.475 414.2 625.446 414.095 625.495 414.014L627.81 410.147C627.855 410.071 627.951 410.044 628.029 410.085L644.09 418.614C644.19 418.667 644.21 418.804 644.138 418.892C643.551 419.615 643.013 421.172 642.799 421.933L642.8 421.933L642.794 421.953C642.557 422.708 642.155 424.305 642.252 425.232Z" fill="#D6CEC4"/>
<path d="M14.6272 231.58C14.6155 231.467 14.7066 231.363 14.8192 231.374L32.9308 233.013C33.0182 233.021 33.0841 233.097 33.0806 233.185L32.9046 237.688C32.9009 237.782 32.8201 237.855 32.7266 237.847L21.1515 236.972L31.3222 242.567C31.4043 242.612 31.4325 242.717 31.3842 242.798L29.0694 246.665C29.0242 246.741 28.9279 246.768 28.8504 246.727L12.7886 238.198C12.6888 238.145 12.6692 238.008 12.7407 237.92C13.3284 237.197 13.8655 235.64 14.0795 234.879L14.0794 234.879L14.0853 234.859C14.3222 234.104 14.7238 232.507 14.6272 231.58Z" fill="#D6CEC4"/>
<path d="M632.276 452.271C631.899 453.201 631.875 454.148 631.75 454.328C631.624 454.509 630.429 455.482 629.391 456.537C628.353 457.593 628.07 457.691 627.413 457.94C626.887 458.139 624.372 458.642 623.18 458.869C622.813 458.919 622.583 458.714 622.524 458.477C622.441 457.843 622.272 456.496 622.263 456.179C622.251 455.782 622.337 455.657 622.431 455.553C622.526 455.449 623.791 454.985 623.861 454.942C623.685 454.692 623.416 454.458 622.467 454.018C621.518 453.577 614.156 450.897 613.71 450.714C613.263 450.532 612.962 450.463 613.172 449.605C613.341 448.921 614.252 446.335 614.693 445.112L614.692 445.112C614.693 445.109 614.694 445.107 614.695 445.104C614.696 445.101 614.697 445.099 614.698 445.096L614.699 445.096C615.239 443.914 616.396 441.428 616.753 440.821C617.202 440.06 617.467 440.221 617.913 440.404C618.36 440.586 625.497 443.816 626.484 444.165C627.47 444.513 627.826 444.534 628.127 444.478C628.107 444.399 627.527 443.182 627.532 443.042C627.537 442.902 627.563 442.752 627.849 442.477C628.078 442.256 629.14 441.411 629.642 441.017C629.851 440.888 630.158 440.902 630.385 441.195C631.079 442.19 632.526 444.309 632.762 444.818C633.058 445.455 633.192 445.724 633.196 447.204C633.2 448.684 633.374 450.216 633.338 450.433C633.302 450.649 632.656 451.343 632.276 452.271Z" fill="#E61717"/>
<path d="M24.6068 204.54C24.9837 203.611 25.0077 202.663 25.1329 202.483C25.2587 202.303 26.454 201.329 27.4919 200.274C28.5298 199.219 28.813 199.12 29.47 198.872C29.9955 198.673 32.5107 198.169 33.7026 197.943C34.0701 197.893 34.2995 198.097 34.3588 198.335C34.4419 198.969 34.6104 200.315 34.6198 200.633C34.6317 201.029 34.5459 201.155 34.4515 201.259C34.357 201.363 33.0917 201.827 33.022 201.869C33.1979 202.119 33.4669 202.354 34.4158 202.794C35.3648 203.234 42.7265 205.915 43.1732 206.097C43.6198 206.279 43.9213 206.349 43.7104 207.207C43.5423 207.89 42.6306 210.476 42.1902 211.7L42.191 211.7C42.1899 211.702 42.1887 211.705 42.1875 211.708C42.1866 211.71 42.1857 211.713 42.1848 211.715L42.1841 211.715C41.6437 212.898 40.4873 215.384 40.1296 215.99C39.6803 216.751 39.4162 216.59 38.9696 216.408C38.523 216.226 31.3854 212.995 30.399 212.647C29.4127 212.298 29.0565 212.278 28.7561 212.333C28.7759 212.413 29.3563 213.629 29.3511 213.769C29.3459 213.91 29.3196 214.059 29.0337 214.335C28.805 214.555 27.7431 215.4 27.2407 215.795C27.032 215.924 26.7253 215.909 26.4973 215.617C25.8036 214.621 24.3572 212.503 24.1205 211.993C23.8248 211.356 23.691 211.088 23.6868 209.608C23.6827 208.127 23.5086 206.596 23.5449 206.379C23.5811 206.163 24.2265 205.468 24.6068 204.54Z" fill="#E61717"/>
<path d="M617.421 484.432C617.411 484.544 617.301 484.629 617.193 484.597L599.746 479.465C599.662 479.44 599.612 479.353 599.632 479.268L600.681 474.884C600.703 474.793 600.796 474.738 600.887 474.763L612.07 477.873L603.182 470.406C603.111 470.346 603.104 470.238 603.167 470.168L606.19 466.825C606.249 466.76 606.348 466.752 606.416 466.807L620.512 478.298C620.6 478.369 620.592 478.507 620.505 478.579C619.788 479.175 618.958 480.597 618.6 481.302L618.6 481.303L618.59 481.321C618.211 482.015 617.507 483.503 617.421 484.432Z" fill="#E61717"/>
<path d="M39.4618 172.381C39.4722 172.268 39.5818 172.184 39.6902 172.216L57.1368 177.348C57.221 177.373 57.2709 177.459 57.2504 177.545L56.2016 181.928C56.1797 182.02 56.0864 182.075 55.9961 182.05L44.8124 178.939L53.7003 186.406C53.7721 186.466 53.7793 186.575 53.7162 186.644L50.6933 189.988C50.6342 190.053 50.5345 190.061 50.4665 190.005L36.3708 178.515C36.2832 178.443 36.2906 178.305 36.3778 178.233C37.0951 177.638 37.9247 176.215 38.2828 175.51L38.2827 175.51L38.2924 175.492C38.6715 174.798 39.3762 173.309 39.4618 172.381Z" fill="#D6CEC4"/>
<path d="M602.374 509.013C601.824 509.852 601.616 510.776 601.458 510.929C601.299 511.081 599.937 511.803 598.714 512.637C597.491 513.47 597.194 513.511 596.501 513.628C595.947 513.721 593.382 513.725 592.168 513.715C591.798 513.693 591.613 513.448 591.601 513.203C591.643 512.565 591.74 511.212 591.792 510.898C591.858 510.507 591.966 510.401 592.079 510.317C592.192 510.233 593.523 510.025 593.6 509.996C593.476 509.717 593.258 509.434 592.413 508.818C591.567 508.201 584.868 504.14 584.465 503.874C584.063 503.609 583.78 503.482 584.154 502.681C584.452 502.044 585.849 499.684 586.519 498.57L586.519 498.569C586.52 498.567 586.522 498.565 586.524 498.563C586.525 498.56 586.526 498.558 586.528 498.556L586.528 498.556C587.289 497.501 588.906 495.287 589.375 494.762C589.964 494.103 590.192 494.313 590.594 494.578C590.997 494.844 597.37 499.401 598.269 499.935C599.169 500.469 599.515 500.558 599.82 500.562C599.816 500.48 599.483 499.174 599.516 499.037C599.548 498.901 599.603 498.759 599.937 498.545C600.204 498.373 601.41 497.751 601.98 497.461C602.21 497.376 602.508 497.449 602.674 497.781C603.161 498.892 604.168 501.251 604.301 501.797C604.467 502.48 604.546 502.769 604.262 504.222C603.978 505.674 603.851 507.211 603.773 507.417C603.696 507.622 602.928 508.177 602.374 509.013Z" fill="#D6CEC4"/>
<path d="M54.5088 147.799C55.0593 146.96 55.2672 146.036 55.425 145.883C55.5835 145.731 56.9454 145.009 58.1687 144.175C59.3921 143.342 59.689 143.301 60.3818 143.184C60.9361 143.092 63.5011 143.087 64.7143 143.097C65.0845 143.119 65.2698 143.364 65.2816 143.609C65.2399 144.247 65.1432 145.6 65.0907 145.914C65.0252 146.305 64.9167 146.411 64.8038 146.495C64.691 146.579 63.3595 146.788 63.2828 146.816C63.4067 147.095 63.625 147.378 64.4702 147.994C65.3154 148.611 72.0149 152.672 72.4176 152.938C72.8202 153.203 73.1025 153.33 72.7287 154.131C72.4308 154.768 71.0334 157.128 70.3635 158.242L70.3642 158.243C70.3626 158.245 70.3609 158.247 70.3593 158.249C70.3579 158.252 70.3565 158.254 70.3551 158.256L70.3545 158.256C69.5943 159.311 67.9763 161.525 67.5075 162.05C66.9188 162.709 66.6911 162.499 66.2885 162.234C65.8858 161.968 59.513 157.411 58.6133 156.877C57.7137 156.343 57.3683 156.254 57.0627 156.25C57.0667 156.332 57.3994 157.638 57.367 157.775C57.3346 157.911 57.2797 158.053 56.9457 158.267C56.6785 158.439 55.4725 159.061 54.9029 159.351C54.6731 159.436 54.3751 159.363 54.2084 159.031C53.7215 157.92 52.7149 155.561 52.5819 155.015C52.4158 154.332 52.3367 154.043 52.6206 152.59C52.9045 151.138 53.0317 149.601 53.1095 149.395C53.1871 149.19 53.9552 148.635 54.5088 147.799Z" fill="#D6CEC4"/>
<path d="M581.551 537.668C581.519 537.777 581.395 537.838 581.295 537.786L565.18 529.358C565.102 529.317 565.07 529.223 565.107 529.143L566.988 525.047C567.027 524.962 567.13 524.926 567.213 524.968L577.578 530.194L570.313 521.141C570.254 521.068 570.268 520.961 570.343 520.904L573.959 518.213C574.03 518.161 574.129 518.172 574.185 518.24L585.776 532.253C585.848 532.34 585.814 532.474 585.714 532.528C584.895 532.972 583.804 534.207 583.316 534.828L583.316 534.829L583.303 534.845C582.796 535.452 581.815 536.775 581.551 537.668Z" fill="#D6CEC4"/>
<path d="M75.3399 119.144C75.372 119.035 75.4959 118.974 75.5961 119.026L91.7109 127.454C91.7887 127.495 91.8208 127.59 91.784 127.67L89.9026 131.765C89.8632 131.851 89.761 131.887 89.6773 131.845L79.3124 126.618L86.5779 135.671C86.6366 135.744 86.6226 135.852 86.5471 135.908L82.9316 138.599C82.8609 138.652 82.7616 138.64 82.7057 138.572L71.1147 124.559C71.0426 124.472 71.0767 124.338 71.1764 124.284C71.9957 123.84 73.0863 122.606 73.5747 121.984L73.5746 121.984L73.5877 121.968C74.0946 121.361 75.0753 120.038 75.3399 119.144Z" fill="#E61717"/>
<path d="M562.008 558.854C561.305 559.57 560.921 560.436 560.737 560.555C560.552 560.674 559.076 561.117 557.713 561.697C556.351 562.276 556.052 562.259 555.35 562.238C554.788 562.221 552.271 561.726 551.083 561.481C550.724 561.387 550.59 561.111 550.626 560.868C550.791 560.251 551.149 558.942 551.262 558.645C551.402 558.274 551.529 558.19 551.656 558.13C551.783 558.07 553.13 558.124 553.211 558.111C553.144 557.813 552.984 557.494 552.275 556.725C551.566 555.956 545.785 550.668 545.442 550.33C545.098 549.991 544.846 549.812 545.368 549.099C545.785 548.531 547.614 546.489 548.488 545.526L548.488 545.525C548.49 545.524 548.492 545.522 548.494 545.52C548.496 545.518 548.497 545.516 548.499 545.514L548.5 545.514C549.451 544.627 551.468 542.771 552.03 542.347C552.736 541.815 552.919 542.065 553.262 542.403C553.605 542.742 558.97 548.452 559.748 549.151C560.527 549.849 560.848 550.004 561.147 550.068C561.159 549.987 561.087 548.641 561.146 548.513C561.204 548.385 561.285 548.257 561.655 548.112C561.95 547.995 563.254 547.62 563.869 547.446C564.111 547.407 564.389 547.537 564.488 547.895C564.75 549.08 565.278 551.59 565.302 552.151C565.332 552.853 565.354 553.152 564.793 554.522C564.232 555.891 563.808 557.374 563.692 557.56C563.576 557.746 562.714 558.142 562.008 558.854Z" fill="#D6CEC4"/>
<path d="M94.8783 97.9581C95.5814 97.243 95.9652 96.3762 96.1497 96.2577C96.3348 96.1389 97.8112 95.6954 99.1732 95.116C100.535 94.5365 100.835 94.5538 101.537 94.5746C102.099 94.5912 104.615 95.086 105.804 95.3314C106.162 95.4257 106.296 95.7019 106.26 95.9444C106.095 96.5617 105.737 97.8707 105.625 98.1678C105.484 98.5389 105.357 98.6221 105.23 98.6822C105.103 98.7422 103.757 98.6881 103.676 98.7011C103.743 98.9993 103.902 99.3185 104.611 100.088C105.321 100.857 111.102 106.144 111.445 106.483C111.789 106.822 112.041 107.001 111.518 107.714C111.102 108.281 109.272 110.324 108.398 111.286L108.399 111.287C108.397 111.289 108.395 111.291 108.393 111.293C108.391 111.295 108.389 111.297 108.387 111.299L108.387 111.298C107.436 112.185 105.418 114.042 104.856 114.466C104.151 114.998 103.968 114.748 103.625 114.409C103.281 114.07 97.9169 108.36 97.1383 107.662C96.3597 106.963 96.0383 106.808 95.7393 106.745C95.7274 106.826 95.7996 108.172 95.7412 108.299C95.6829 108.427 95.6014 108.555 95.2321 108.701C94.9366 108.817 93.6327 109.193 93.0175 109.366C92.7755 109.405 92.4976 109.275 92.3985 108.918C92.1371 107.733 91.6086 105.223 91.5845 104.661C91.5543 103.96 91.533 103.661 92.0941 102.291C92.6551 100.921 93.0788 99.4389 93.1952 99.2522C93.3111 99.0662 94.1727 98.6707 94.8783 97.9581Z" fill="#D6CEC4"/>
<path d="M536.001 582.91C535.948 583.011 535.815 583.047 535.727 582.976L521.559 571.574C521.491 571.519 521.478 571.42 521.53 571.348L524.172 567.697C524.227 567.621 524.334 567.605 524.408 567.663L533.558 574.806L528.193 564.513C528.15 564.43 528.184 564.327 528.269 564.286L532.339 562.35C532.419 562.312 532.514 562.343 532.555 562.42L541.199 578.421C541.253 578.52 541.193 578.645 541.085 578.678C540.195 578.955 538.885 579.953 538.285 580.468L538.285 580.468L538.269 580.482C537.654 580.978 536.434 582.085 536.001 582.91Z" fill="#E61717"/>
<path d="M120.882 73.9024C120.935 73.802 121.068 73.7661 121.156 73.8369L135.323 85.239C135.392 85.294 135.405 85.3931 135.353 85.4645L132.711 89.1157C132.656 89.1919 132.548 89.2073 132.475 89.1496L123.325 82.0064L128.69 92.3001C128.733 92.3832 128.699 92.486 128.614 92.5264L124.544 94.4627C124.464 94.5006 124.369 94.4698 124.327 94.3925L115.684 78.3922C115.63 78.2928 115.69 78.1682 115.798 78.1345C116.688 77.858 117.998 76.8597 118.598 76.3447L118.598 76.3445L118.614 76.3312C119.229 75.8346 120.448 74.7276 120.882 73.9024Z" fill="#E61717"/>
<path d="M512.71 599.89C511.881 600.455 511.336 601.23 511.132 601.31C510.928 601.391 509.393 601.539 507.944 601.842C506.496 602.146 506.205 602.07 505.521 601.913C504.973 601.788 502.6 600.813 501.483 600.341C501.149 600.179 501.071 599.882 501.154 599.651C501.436 599.077 502.042 597.863 502.21 597.594C502.42 597.257 502.561 597.2 502.697 597.166C502.833 597.132 504.143 597.447 504.225 597.45C504.217 597.144 504.123 596.8 503.577 595.907C503.031 595.015 498.389 588.704 498.118 588.305C497.847 587.906 497.635 587.681 498.286 587.084C498.805 586.608 500.997 584.96 502.041 584.186L502.041 584.185C502.043 584.184 502.046 584.182 502.048 584.181C502.05 584.179 502.052 584.178 502.055 584.176L502.055 584.177C503.16 583.492 505.501 582.063 506.134 581.757C506.93 581.372 507.06 581.653 507.331 582.052C507.602 582.451 511.753 589.095 512.381 589.932C513.009 590.769 513.294 590.983 513.575 591.103C513.603 591.026 513.794 589.692 513.876 589.578C513.958 589.464 514.063 589.354 514.453 589.283C514.766 589.227 516.118 589.112 516.755 589.062C517 589.07 517.247 589.252 517.275 589.622C517.301 590.835 517.331 593.4 517.245 593.955C517.138 594.65 517.101 594.947 516.284 596.182C515.467 597.416 514.763 598.787 514.613 598.948C514.463 599.108 513.541 599.328 512.71 599.89Z" fill="#E61717"/>
<path d="M144.169 56.9232C144.997 56.3584 145.543 55.5829 145.747 55.5026C145.951 55.4221 147.486 55.2742 148.934 54.9708C150.383 54.6675 150.674 54.7426 151.358 54.8996C151.906 55.0252 154.278 56.0002 155.396 56.472C155.73 56.6343 155.808 56.9313 155.725 57.1622C155.443 57.7357 154.837 58.9499 154.669 59.2194C154.459 59.5562 154.318 59.6131 154.182 59.6472C154.046 59.6814 152.735 59.3664 152.654 59.3634C152.662 59.669 152.756 60.0131 153.302 60.9055C153.847 61.7979 158.49 68.109 158.761 68.5081C159.031 68.9071 159.244 69.132 158.593 69.7295C158.074 70.2053 155.882 71.8527 154.838 72.627L154.838 72.6277C154.836 72.6291 154.833 72.6306 154.831 72.632C154.829 72.6337 154.827 72.6354 154.824 72.637L154.824 72.6364C153.719 73.3212 151.378 74.75 150.745 75.0565C149.949 75.441 149.818 75.1605 149.548 74.7614C149.277 74.3623 145.126 67.7179 144.498 66.881C143.87 66.0442 143.585 65.8298 143.304 65.7096C143.276 65.7867 143.085 67.1208 143.003 67.2348C142.921 67.3488 142.816 67.4587 142.426 67.5295C142.113 67.5862 140.761 67.701 140.124 67.7513C139.879 67.7427 139.632 67.5607 139.604 67.1909C139.578 65.9779 139.548 63.4131 139.634 62.8576C139.741 62.1633 139.778 61.8659 140.595 60.6314C141.412 59.397 142.115 58.0256 142.266 57.8651C142.416 57.7052 143.338 57.4849 144.169 56.9232Z" fill="#E61717"/>
<path d="M482.538 618.427C482.467 618.515 482.329 618.525 482.256 618.438L470.578 604.498C470.522 604.43 470.528 604.331 470.593 604.271L473.895 601.203C473.964 601.139 474.072 601.145 474.133 601.216L481.719 610.003L478.458 598.862C478.432 598.772 478.486 598.678 478.577 598.655L482.946 597.547C483.031 597.526 483.119 597.574 483.145 597.658L488.51 615.034C488.544 615.142 488.461 615.253 488.348 615.265C487.421 615.363 485.942 616.087 485.254 616.476L485.253 616.476L485.235 616.486C484.535 616.853 483.124 617.702 482.538 618.427Z" fill="#E61717"/>
<path d="M174.372 38.3863C174.443 38.2981 174.581 38.2888 174.654 38.3754L186.332 52.3157C186.389 52.383 186.382 52.4828 186.318 52.5427L183.016 55.6102C182.947 55.6742 182.838 55.6684 182.777 55.5975L175.191 46.8106L178.452 57.9515C178.478 58.0414 178.424 58.1355 178.333 58.1587L173.964 59.2662C173.879 59.2879 173.791 59.2391 173.766 59.1553L168.4 41.7791C168.367 41.6711 168.449 41.5605 168.562 41.5485C169.489 41.4505 170.968 40.726 171.657 40.3376L171.657 40.3374L171.675 40.3275C172.375 39.9601 173.786 39.1115 174.372 38.3863Z" fill="#E61717"/>
<path d="M456.385 630.551C455.462 630.944 454.777 631.598 454.561 631.637C454.345 631.677 452.811 631.523 451.331 631.539C449.851 631.555 449.58 631.424 448.939 631.137C448.427 630.907 446.289 629.49 445.284 628.809C444.989 628.585 444.97 628.279 445.096 628.068C445.484 627.561 446.315 626.487 446.532 626.256C446.804 625.966 446.953 625.938 447.093 625.931C447.233 625.924 448.458 626.488 448.537 626.507C448.589 626.205 448.563 625.85 448.202 624.868C447.84 623.886 444.514 616.793 444.326 616.349C444.138 615.905 443.973 615.643 444.728 615.183C445.329 614.817 447.8 613.628 448.975 613.072L448.975 613.071C448.977 613.07 448.98 613.069 448.983 613.068C448.985 613.067 448.988 613.066 448.99 613.064L448.99 613.065C450.208 612.608 452.781 611.662 453.463 611.485C454.318 611.262 454.391 611.563 454.579 612.007C454.767 612.451 457.547 619.776 458 620.719C458.453 621.662 458.691 621.928 458.943 622.101C458.985 622.03 459.432 620.759 459.534 620.663C459.637 620.567 459.761 620.48 460.158 620.486C460.476 620.492 461.824 620.642 462.459 620.717C462.698 620.773 462.905 620.999 462.86 621.367C462.65 622.562 462.18 625.084 461.988 625.612C461.748 626.272 461.654 626.557 460.612 627.609C459.571 628.661 458.614 629.869 458.435 629.997C458.257 630.125 457.309 630.162 456.385 630.551Z" fill="#D6CEC4"/>
<path d="M200.517 26.2615C201.44 25.8688 202.125 25.2142 202.341 25.1751C202.558 25.1359 204.091 25.2894 205.572 25.2737C207.052 25.2579 207.322 25.3881 207.963 25.6753C208.476 25.9051 210.613 27.323 211.618 28.0033C211.913 28.2273 211.932 28.5338 211.806 28.7442C211.418 29.2519 210.587 30.325 210.37 30.5567C210.099 30.8462 209.949 30.8746 209.809 30.8816C209.669 30.8886 208.445 30.3247 208.365 30.3059C208.313 30.6071 208.339 30.963 208.701 31.9445C209.063 32.9261 212.388 40.0197 212.576 40.4639C212.764 40.908 212.929 41.1699 212.174 41.6293C211.573 41.9951 209.102 43.1846 207.927 43.7409L207.927 43.7417C207.925 43.7426 207.922 43.7436 207.92 43.7445C207.917 43.7457 207.915 43.7469 207.912 43.7481L207.912 43.7475C206.695 44.2042 204.121 45.1504 203.44 45.3277C202.584 45.5501 202.511 45.2495 202.323 44.8054C202.135 44.3613 199.356 37.0362 198.903 36.0932C198.45 35.1502 198.212 34.8844 197.959 34.7118C197.917 34.7822 197.471 36.0536 197.368 36.1494C197.265 36.2453 197.141 36.3327 196.744 36.3262C196.427 36.321 195.078 36.1705 194.443 36.0959C194.205 36.0399 193.997 35.8132 194.042 35.4451C194.253 34.2502 194.722 31.7286 194.914 31.2004C195.154 30.5401 195.249 30.2556 196.29 29.2036C197.331 28.1517 198.289 26.9435 198.467 26.8153C198.646 26.6876 199.593 26.6509 200.517 26.2615Z" fill="#D6CEC4"/>
<path d="M423.171 642.861C423.084 642.933 422.947 642.916 422.892 642.817L414.149 626.871C414.107 626.794 414.133 626.697 414.208 626.651L418.043 624.284C418.123 624.235 418.229 624.262 418.275 624.343L424.006 634.438L422.975 622.876C422.967 622.782 423.038 622.701 423.132 622.696L427.633 622.459C427.721 622.454 427.797 622.519 427.806 622.607L429.689 640.695C429.701 640.807 429.598 640.899 429.485 640.889C428.557 640.805 426.965 641.228 426.214 641.475L426.214 641.475L426.194 641.481C425.436 641.706 423.886 642.263 423.171 642.861Z" fill="#D6CEC4"/>
<path d="M233.735 13.9515C233.822 13.8788 233.959 13.8965 234.014 13.9956L242.757 29.9416C242.799 30.0185 242.774 30.1151 242.699 30.1613L238.863 32.5278C238.783 32.5772 238.678 32.5505 238.631 32.469L232.9 22.3743L233.931 33.9366C233.939 34.0299 233.868 34.1117 233.774 34.1167L229.273 34.3531C229.185 34.3578 229.109 34.2929 229.1 34.2056L227.217 16.1176C227.206 16.0052 227.308 15.9128 227.421 15.923C228.349 16.0071 229.941 15.5843 230.692 15.3372L230.692 15.337L230.712 15.3309C231.47 15.1067 233.02 14.5489 233.735 13.9515Z" fill="#D6CEC4"/>
<path d="M395.164 649.667C394.182 649.872 393.382 650.381 393.163 650.378C392.943 650.374 391.468 649.925 390.014 649.652C388.559 649.38 388.319 649.2 387.746 648.793C387.288 648.468 385.467 646.661 384.614 645.799C384.367 645.521 384.409 645.217 384.573 645.035C385.053 644.613 386.076 643.722 386.334 643.537C386.657 643.306 386.809 643.307 386.948 643.327C387.087 643.348 388.178 644.139 388.252 644.173C388.362 643.887 388.406 643.533 388.242 642.5C388.078 641.467 386.196 633.862 386.098 633.39C386 632.917 385.889 632.628 386.719 632.325C387.38 632.083 390.035 631.397 391.296 631.08L391.296 631.079C391.298 631.078 391.301 631.078 391.304 631.078C391.306 631.077 391.309 631.076 391.312 631.076L391.312 631.076C392.595 630.865 395.303 630.438 396.006 630.396C396.888 630.345 396.902 630.654 397 631.126C397.098 631.598 398.399 639.324 398.66 640.337C398.921 641.35 399.103 641.657 399.316 641.875C399.371 641.815 400.057 640.654 400.176 640.58C400.296 640.506 400.435 640.445 400.823 640.528C401.133 640.595 402.427 641.005 403.035 641.202C403.258 641.303 403.417 641.566 403.301 641.918C402.862 643.049 401.911 645.431 401.62 645.912C401.256 646.513 401.109 646.774 399.882 647.603C398.656 648.432 397.482 649.431 397.282 649.522C397.082 649.613 396.146 649.465 395.164 649.667Z" fill="#E61717"/>
<path d="M261.743 7.14532C262.724 6.93962 263.524 6.43085 263.743 6.43446C263.963 6.43815 265.438 6.8871 266.893 7.15962C268.348 7.43216 268.587 7.6124 269.16 8.01884C269.619 8.34399 271.439 10.1506 272.292 11.0133C272.539 11.2906 272.497 11.5948 272.333 11.7767C271.854 12.1992 270.83 13.0903 270.572 13.2752C270.249 13.5064 270.097 13.5052 269.958 13.4848C269.819 13.4644 268.728 12.6731 268.654 12.6392C268.545 12.9246 268.5 13.2786 268.664 14.3118C268.828 15.345 270.711 22.9501 270.809 23.4223C270.907 23.8946 271.017 24.1835 270.187 24.4873C269.526 24.7291 266.871 25.4152 265.611 25.7323L265.611 25.7331C265.608 25.7335 265.605 25.7339 265.603 25.7344C265.6 25.7351 265.597 25.7358 265.595 25.7365L265.594 25.7358C264.311 25.947 261.603 26.3744 260.9 26.4157C260.018 26.4675 260.004 26.1584 259.906 25.6862C259.808 25.2139 258.507 17.4881 258.246 16.475C257.985 15.462 257.804 15.1549 257.59 14.9366C257.535 14.9974 256.849 16.1576 256.73 16.2316C256.611 16.3057 256.472 16.3673 256.084 16.2837C255.773 16.2168 254.48 15.8068 253.872 15.6102C253.648 15.5088 253.489 15.2462 253.605 14.8938C254.044 13.7627 254.995 11.3805 255.286 10.8998C255.65 10.2988 255.798 10.0381 257.024 9.20885C258.25 8.37963 259.424 7.38068 259.624 7.28972C259.824 7.19914 260.76 7.34741 261.743 7.14532Z" fill="#E61717"/>
<path d="M360.185 655.279C360.086 655.334 359.955 655.29 359.921 655.182L354.447 637.84C354.42 637.756 354.464 637.666 354.547 637.635L358.77 636.06C358.858 636.027 358.956 636.074 358.985 636.163L362.643 647.18L363.882 635.638C363.892 635.545 363.977 635.478 364.07 635.492L368.531 636.136C368.619 636.148 368.681 636.226 368.673 636.314L367 654.423C366.99 654.535 366.872 654.606 366.763 654.574C365.869 654.311 364.225 654.416 363.44 654.512L363.44 654.512L363.419 654.514C362.632 654.587 361.004 654.832 360.185 655.279Z" fill="#D6CEC4"/>
<path d="M296.721 1.53278C296.82 1.47842 296.951 1.52246 296.985 1.63022L302.459 18.9725C302.486 19.0562 302.442 19.1459 302.359 19.1767L298.136 20.7517C298.048 20.7845 297.95 20.7379 297.921 20.649L294.263 9.63219L293.025 21.1741C293.015 21.2673 292.929 21.3336 292.836 21.3202L288.375 20.6765C288.288 20.664 288.226 20.5856 288.234 20.4982L289.906 2.38949C289.916 2.27699 290.035 2.20621 290.144 2.23819C291.038 2.50133 292.681 2.39621 293.466 2.30001L293.466 2.29985L293.487 2.29765C294.274 2.22523 295.903 1.97956 296.721 1.53278Z" fill="#D6CEC4"/>
</svg>
