<svg width="580" height="580" viewBox="0 0 580 580" fill="none" xmlns="http://www.w3.org/2000/svg">
<g opacity="0.8">
<path d="M292.877 0.0145005C292.981 -0.0289364 293.107 0.0288232 293.129 0.139593L296.723 17.9667C296.74 18.0527 296.687 18.1373 296.601 18.1591L292.235 19.2748C292.144 19.2981 292.051 19.2412 292.031 19.1497L289.569 7.80563L287.107 19.1497C287.087 19.2412 286.995 19.2981 286.904 19.2748L282.537 18.1591C282.451 18.1373 282.398 18.0527 282.415 17.9667L286.009 0.139593C286.031 0.0288419 286.157 -0.0288948 286.262 0.0145005C287.123 0.371494 288.768 0.442239 289.559 0.430288L289.559 0.430146H289.579C290.37 0.442103 292.015 0.3715 292.877 0.0145005Z" fill="#D6CEC4"/>
<path d="M286.264 579.062C286.159 579.106 286.034 579.048 286.011 578.937L282.418 561.11C282.401 561.024 282.454 560.939 282.539 560.918L286.906 559.802C286.997 559.779 287.089 559.835 287.109 559.927L289.572 571.271L292.034 559.927C292.053 559.835 292.146 559.779 292.237 559.802L296.604 560.918C296.689 560.939 296.743 561.024 296.725 561.11L293.131 578.937C293.109 579.048 292.984 579.106 292.879 579.062C292.018 578.705 290.373 578.634 289.582 578.646L289.582 578.647L289.561 578.647C288.771 578.635 287.125 578.705 286.264 579.062Z" fill="#D6CEC4"/>
<path d="M317.893 1.68374C318.891 1.78011 319.806 1.533 320.015 1.60181C320.223 1.67093 321.497 2.53921 322.805 3.23318C324.112 3.9272 324.287 4.17068 324.713 4.72948C325.053 5.17652 326.252 7.4439 326.809 8.5218C326.962 8.85987 326.832 9.13793 326.621 9.26255C326.037 9.52281 324.794 10.0681 324.493 10.1677C324.116 10.2921 323.971 10.2457 323.845 10.1848C323.718 10.1238 322.913 9.04324 322.852 8.98862C322.662 9.22845 322.514 9.55312 322.363 10.5882C322.211 11.6233 321.74 19.4438 321.693 19.9237C321.646 20.4037 321.665 20.7125 320.782 20.755C320.079 20.7887 317.34 20.6519 316.042 20.5785L316.042 20.5793C316.04 20.5789 316.037 20.5785 316.034 20.5781C316.031 20.578 316.029 20.5778 316.026 20.5777L316.026 20.577C314.738 20.396 312.026 19.9963 311.342 19.8262C310.485 19.6125 310.564 19.3134 310.611 18.8335C310.659 18.3535 311.721 10.5912 311.774 9.54636C311.827 8.50159 311.745 8.15431 311.606 7.88217C311.535 7.92386 310.535 8.8268 310.399 8.86187C310.263 8.89693 310.112 8.91432 309.767 8.71882C309.49 8.56239 308.378 7.78536 307.856 7.41634C307.673 7.25297 307.6 6.95486 307.815 6.65297C308.571 5.7043 310.189 3.7141 310.611 3.34201C311.137 2.87689 311.356 2.67216 312.774 2.24626C314.191 1.8204 315.61 1.217 315.828 1.18991C316.046 1.16299 316.895 1.58372 317.893 1.68374Z" fill="#D6CEC4"/>
<path d="M261.251 577.393C260.253 577.297 259.338 577.544 259.13 577.475C258.921 577.406 257.647 576.537 256.34 575.843C255.032 575.149 254.858 574.906 254.432 574.347C254.091 573.9 252.892 571.633 252.335 570.555C252.183 570.217 252.313 569.939 252.524 569.814C253.108 569.554 254.35 569.009 254.652 568.909C255.029 568.785 255.173 568.831 255.3 568.892C255.427 568.953 256.232 570.033 256.293 570.088C256.482 569.848 256.63 569.524 256.782 568.488C256.933 567.453 257.405 559.633 257.452 559.153C257.499 558.673 257.48 558.364 258.362 558.322C259.065 558.288 261.804 558.425 263.102 558.498L263.102 558.497C263.105 558.498 263.108 558.498 263.11 558.499C263.113 558.499 263.116 558.499 263.119 558.499L263.119 558.5C264.406 558.681 267.119 559.08 267.802 559.25C268.66 559.464 268.58 559.763 268.533 560.243C268.486 560.723 267.424 568.485 267.371 569.53C267.318 570.575 267.4 570.922 267.539 571.194C267.609 571.153 268.61 570.25 268.746 570.215C268.882 570.18 269.033 570.162 269.378 570.358C269.654 570.514 270.767 571.291 271.289 571.66C271.471 571.824 271.545 572.122 271.33 572.424C270.573 573.372 268.955 575.363 268.534 575.735C268.007 576.2 267.789 576.404 266.371 576.83C264.953 577.256 263.535 577.86 263.316 577.887C263.099 577.914 262.249 577.493 261.251 577.393Z" fill="#D6CEC4"/>
<path d="M349.236 6.21011C349.347 6.18793 349.459 6.26904 349.459 6.38204L349.509 24.5677C349.51 24.6555 349.441 24.728 349.353 24.7327L344.852 24.9761C344.758 24.9811 344.679 24.9073 344.677 24.8136L344.473 13.2073L339.847 23.854C339.81 23.9399 339.708 23.9776 339.624 23.9371L335.558 21.9917C335.478 21.9537 335.443 21.8603 335.476 21.7793L342.475 4.99443C342.519 4.89015 342.653 4.85796 342.747 4.92094C343.522 5.43889 345.122 5.82895 345.9 5.97131L345.9 5.9712L345.921 5.97523C346.694 6.14104 348.321 6.39246 349.236 6.21011Z" fill="#E61717"/>
<path d="M229.901 572.867C229.79 572.889 229.678 572.808 229.678 572.695L229.627 554.509C229.627 554.421 229.696 554.349 229.784 554.344L234.284 554.101C234.378 554.096 234.458 554.17 234.459 554.263L234.664 565.87L239.289 555.223C239.327 555.137 239.428 555.099 239.513 555.14L243.579 557.085C243.658 557.123 243.694 557.217 243.66 557.298L236.661 574.082C236.618 574.187 236.484 574.219 236.389 574.156C235.614 573.638 234.014 573.248 233.236 573.106L233.236 573.106L233.216 573.102C232.443 572.936 230.815 572.684 229.901 572.867Z" fill="#E61717"/>
<path d="M373.443 12.7224C374.404 13.0114 375.349 12.9474 375.54 13.0555C375.731 13.164 376.812 14.2638 377.959 15.1993C379.106 16.1348 379.23 16.4077 379.539 17.0388C379.785 17.5436 380.52 20.0012 380.856 21.167C380.94 21.5283 380.758 21.7757 380.526 21.8567C379.903 21.9983 378.578 22.2909 378.263 22.3298C377.869 22.3784 377.736 22.3047 377.624 22.2203C377.512 22.1359 376.932 20.919 376.883 20.8536C376.651 21.0519 376.442 21.3415 376.092 22.3272C375.741 23.3129 373.755 30.8916 373.615 31.3531C373.475 31.8147 373.434 32.1213 372.56 31.991C371.864 31.887 369.205 31.2191 367.946 30.8941L367.945 30.895C367.943 30.894 367.94 30.8931 367.938 30.8921C367.935 30.8915 367.932 30.8908 367.93 30.8902L367.93 30.8895C366.702 30.461 364.119 29.5403 363.483 29.2403C362.683 28.8636 362.819 28.5857 362.959 28.1241C363.099 27.6626 365.653 20.2561 365.909 19.2416C366.165 18.2272 366.152 17.8707 366.069 17.5767C365.991 17.6038 364.834 18.2944 364.694 18.3023C364.554 18.3102 364.402 18.2979 364.102 18.0388C363.861 17.8315 362.921 16.8525 362.481 16.3889C362.334 16.193 362.32 15.8863 362.59 15.6322C363.517 14.8491 365.492 13.2125 365.977 12.9296C366.584 12.576 366.839 12.4178 368.312 12.2764C369.786 12.135 371.295 11.8196 371.514 11.8356C371.733 11.8516 372.484 12.4298 373.443 12.7224Z" fill="#D6CEC4"/>
<path d="M205.688 566.354C204.727 566.065 203.781 566.129 203.591 566.021C203.399 565.912 202.319 564.812 201.172 563.877C200.025 562.941 199.901 562.668 199.592 562.037C199.345 561.533 198.611 559.075 198.275 557.909C198.191 557.548 198.373 557.301 198.604 557.219C199.228 557.078 200.553 556.785 200.868 556.746C201.262 556.698 201.395 556.772 201.507 556.856C201.619 556.94 202.199 558.157 202.248 558.223C202.48 558.024 202.689 557.735 203.039 556.749C203.389 555.763 205.376 548.185 205.516 547.723C205.655 547.261 205.697 546.955 206.571 547.085C207.267 547.189 209.926 547.857 211.185 548.182L211.185 548.181C211.188 548.182 211.191 548.183 211.193 548.184C211.196 548.185 211.199 548.185 211.201 548.186L211.201 548.187C212.429 548.615 215.011 549.536 215.648 549.836C216.448 550.213 216.312 550.49 216.172 550.952C216.032 551.414 213.478 558.82 213.222 559.835C212.966 560.849 212.979 561.206 213.062 561.5C213.139 561.472 214.297 560.782 214.437 560.774C214.577 560.766 214.729 560.778 215.029 561.037C215.27 561.245 216.21 562.224 216.65 562.687C216.797 562.883 216.811 563.19 216.541 563.444C215.614 564.227 213.639 565.864 213.154 566.147C212.547 566.5 212.292 566.658 210.818 566.8C209.345 566.941 207.836 567.257 207.617 567.241C207.398 567.225 206.647 566.646 205.688 566.354Z" fill="#D6CEC4"/>
<path d="M403.31 23.2711C403.424 23.271 403.518 23.3723 403.496 23.4832L400.001 41.33C399.984 41.4161 399.903 41.4739 399.816 41.4613L395.354 40.8229C395.261 40.8096 395.197 40.7217 395.214 40.6295L397.276 29.2059L390.664 38.747C390.61 38.824 390.503 38.8412 390.428 38.7849L386.819 36.0844C386.749 36.0316 386.732 35.9331 386.781 35.8602L396.917 20.7612C396.98 20.6674 397.118 20.662 397.198 20.7422C397.857 21.4012 399.351 22.0956 400.086 22.3868L400.086 22.3868L400.105 22.3947C400.831 22.708 402.378 23.2718 403.31 23.2711Z" fill="#E61717"/>
<path d="M175.826 555.803C175.713 555.803 175.619 555.702 175.641 555.591L179.135 537.744C179.152 537.658 179.234 537.601 179.321 537.613L183.783 538.252C183.876 538.265 183.939 538.353 183.923 538.445L181.861 549.869L188.473 540.328C188.526 540.25 188.633 540.233 188.709 540.29L192.317 542.99C192.388 543.043 192.405 543.141 192.356 543.214L182.22 558.313C182.157 558.407 182.019 558.412 181.939 558.332C181.28 557.673 179.786 556.979 179.051 556.688L179.051 556.688L179.032 556.68C178.306 556.367 176.758 555.803 175.826 555.803Z" fill="#E61717"/>
<path d="M425.784 34.3764C426.669 34.8471 427.609 34.9686 427.775 35.1118C427.942 35.2555 428.787 36.5447 429.73 37.6858C430.673 38.827 430.741 39.1189 430.921 39.7979C431.065 40.3412 431.306 42.8948 431.409 44.1038C431.42 44.4745 431.193 44.6816 430.951 44.716C430.312 44.7334 428.955 44.7622 428.638 44.7389C428.243 44.7098 428.127 44.6116 428.033 44.5069C427.939 44.4023 427.608 43.0958 427.573 43.0221C427.306 43.1713 427.045 43.4147 426.51 44.3132C425.974 45.2118 422.549 52.258 422.321 52.6834C422.094 53.1089 421.994 53.4016 421.162 53.1035C420.5 52.8658 418.021 51.6924 416.85 51.1283L416.85 51.1291C416.847 51.1276 416.845 51.1262 416.842 51.1248C416.84 51.1236 416.837 51.1224 416.835 51.1213L416.835 51.1206C415.715 50.4612 413.361 49.0547 412.795 48.6364C412.084 48.1111 412.272 47.865 412.499 47.4396C412.726 47.0141 416.675 40.2475 417.123 39.3023C417.572 38.3572 417.629 38.005 417.604 37.7004C417.523 37.7119 416.254 38.1638 416.114 38.1442C415.975 38.1246 415.829 38.083 415.585 37.7703C415.389 37.5201 414.658 36.3767 414.317 35.8363C414.211 35.6154 414.257 35.3119 414.571 35.1152C415.633 34.5278 417.889 33.3074 418.42 33.1246C419.085 32.8961 419.365 32.7906 420.838 32.939C422.311 33.0875 423.852 33.0722 424.064 33.1307C424.276 33.1889 424.9 33.9025 425.784 34.3764Z" fill="#E61717"/>
<path d="M153.349 544.699C152.464 544.228 151.524 544.107 151.358 543.963C151.191 543.82 150.346 542.53 149.403 541.389C148.46 540.248 148.392 539.956 148.212 539.277C148.068 538.734 147.827 536.18 147.724 534.971C147.713 534.601 147.939 534.394 148.182 534.359C148.821 534.342 150.178 534.313 150.494 534.336C150.89 534.365 151.006 534.464 151.1 534.568C151.193 534.673 151.524 535.979 151.56 536.053C151.827 535.904 152.087 535.66 152.623 534.762C153.159 533.863 156.584 526.817 156.811 526.392C157.039 525.966 157.139 525.674 157.97 525.972C158.633 526.209 161.111 527.383 162.283 527.947L162.283 527.946C162.286 527.948 162.288 527.949 162.29 527.95C162.293 527.952 162.295 527.953 162.298 527.954L162.298 527.955C163.418 528.614 165.772 530.02 166.338 530.439C167.049 530.964 166.861 531.21 166.634 531.636C166.407 532.061 162.458 538.828 162.01 539.773C161.561 540.718 161.504 541.07 161.528 541.375C161.61 541.363 162.879 540.911 163.018 540.931C163.157 540.951 163.304 540.992 163.548 541.305C163.744 541.555 164.474 542.698 164.816 543.239C164.922 543.46 164.876 543.763 164.562 543.96C163.5 544.547 161.244 545.768 160.712 545.951C160.048 546.179 159.768 546.285 158.295 546.136C156.822 545.988 155.281 546.003 155.068 545.945C154.857 545.886 154.233 545.173 153.349 544.699Z" fill="#E61717"/>
<path d="M453.015 50.5423C453.126 50.5644 453.198 50.6821 453.155 50.7866L446.25 67.6101C446.216 67.6913 446.125 67.732 446.042 67.7027L441.79 66.2071C441.702 66.1758 441.656 66.0772 441.691 65.99L445.939 55.1873L437.594 63.2568C437.527 63.3219 437.419 63.3179 437.356 63.248L434.343 59.8961C434.284 59.8306 434.286 59.7306 434.349 59.6687L447.233 46.8346C447.313 46.7549 447.449 46.7764 447.512 46.8707C448.03 47.6455 449.36 48.6177 450.024 49.0466L450.024 49.0465L450.042 49.058C450.693 49.5068 452.1 50.3614 453.015 50.5423Z" fill="#D6CEC4"/>
<path d="M126.11 528.531C125.999 528.509 125.927 528.391 125.97 528.286L132.875 511.463C132.909 511.382 133 511.341 133.083 511.37L137.335 512.866C137.423 512.897 137.469 512.996 137.434 513.083L133.186 523.886L141.531 515.816C141.598 515.751 141.706 515.755 141.769 515.825L144.782 519.177C144.841 519.242 144.839 519.342 144.776 519.404L131.892 532.238C131.812 532.318 131.676 532.297 131.613 532.202C131.095 531.427 129.765 530.455 129.101 530.026L129.101 530.026L129.083 530.015C128.432 529.566 127.025 528.712 126.11 528.531Z" fill="#D6CEC4"/>
<path d="M472.891 65.8141C473.668 66.4484 474.566 66.7508 474.701 66.9236C474.837 67.097 475.414 68.5262 476.116 69.8292C476.819 71.1322 476.829 71.4318 476.873 72.1329C476.908 72.6938 476.647 75.2455 476.512 76.4513C476.451 76.8171 476.189 76.9761 475.944 76.9625C475.314 76.8551 473.978 76.6189 473.672 76.5343C473.289 76.4287 473.194 76.3097 473.123 76.1888C473.052 76.0679 472.981 74.722 472.961 74.6428C472.67 74.7371 472.367 74.9251 471.666 75.7019C470.966 76.4788 466.233 82.7224 465.927 83.0954C465.622 83.4685 465.466 83.7361 464.709 83.2815C464.105 82.9192 461.903 81.2854 460.864 80.5038L460.863 80.5044C460.861 80.5026 460.859 80.5007 460.857 80.4989C460.855 80.4972 460.853 80.4956 460.851 80.494L460.851 80.4934C459.881 79.6282 457.846 77.79 457.372 77.2693C456.777 76.6156 457.009 76.4108 457.315 76.0378C457.621 75.6647 462.813 69.7974 463.437 68.9578C464.061 68.1182 464.185 67.7839 464.221 67.4804C464.139 67.4759 462.806 67.6717 462.673 67.6253C462.54 67.579 462.405 67.5097 462.226 67.1554C462.083 66.8718 461.589 65.608 461.36 65.0114C461.299 64.774 461.403 64.4853 461.75 64.3537C462.905 63.9844 465.356 63.2271 465.913 63.1513C466.609 63.0567 466.905 63.0079 468.32 63.4405C469.736 63.8731 471.251 64.1586 471.447 64.2572C471.643 64.3556 472.116 65.1771 472.891 65.8141Z" fill="#E61717"/>
<path d="M106.23 513.256C105.453 512.622 104.555 512.319 104.42 512.147C104.285 511.973 103.707 510.544 103.005 509.241C102.302 507.938 102.292 507.638 102.248 506.937C102.213 506.377 102.474 503.825 102.609 502.619C102.67 502.253 102.932 502.094 103.177 502.108C103.807 502.215 105.143 502.451 105.45 502.536C105.832 502.642 105.927 502.761 105.998 502.881C106.07 503.002 106.14 504.348 106.16 504.428C106.451 504.333 106.754 504.145 107.455 503.368C108.155 502.591 112.888 496.348 113.194 495.975C113.499 495.602 113.655 495.334 114.412 495.789C115.016 496.151 117.218 497.785 118.257 498.567L118.258 498.566C118.26 498.568 118.262 498.57 118.264 498.571C118.266 498.573 118.268 498.575 118.271 498.576L118.27 498.577C119.241 499.442 121.275 501.28 121.749 501.801C122.344 502.455 122.112 502.659 121.806 503.033C121.5 503.406 116.309 509.273 115.684 510.113C115.06 510.952 114.936 511.286 114.9 511.59C114.982 511.594 116.315 511.399 116.448 511.445C116.581 511.491 116.716 511.561 116.895 511.915C117.038 512.198 117.532 513.462 117.761 514.059C117.822 514.296 117.718 514.585 117.371 514.717C116.216 515.086 113.765 515.843 113.208 515.919C112.512 516.014 112.216 516.062 110.801 515.63C109.385 515.197 107.87 514.912 107.674 514.813C107.478 514.715 107.005 513.893 106.23 513.256Z" fill="#E61717"/>
<path d="M496.448 86.9774C496.553 87.0206 496.601 87.1502 496.538 87.2444L486.486 102.399C486.438 102.473 486.34 102.495 486.264 102.45L482.386 100.154C482.305 100.106 482.28 100.001 482.33 99.9219L488.603 90.1543L478.846 96.4428C478.767 96.4936 478.661 96.4685 478.613 96.3877L476.311 92.5128C476.266 92.437 476.288 92.3395 476.361 92.2909L491.5 82.2139C491.594 82.1513 491.723 82.199 491.767 82.3037C492.124 83.1647 493.238 84.3773 493.806 84.9274L493.806 84.9275L493.821 84.9421C494.372 85.5091 495.586 86.6217 496.448 86.9774Z" fill="#E61717"/>
<path d="M82.6613 492.089C82.5565 492.046 82.5085 491.916 82.5709 491.822L92.6231 476.667C92.6716 476.594 92.7691 476.572 92.8449 476.617L96.7235 478.912C96.8044 478.96 96.8296 479.066 96.779 479.145L90.5066 488.912L100.264 482.624C100.343 482.573 100.448 482.598 100.496 482.679L102.798 486.554C102.843 486.629 102.821 486.727 102.748 486.776L87.6097 496.853C87.5157 496.915 87.3861 496.867 87.3426 496.763C86.9855 495.902 85.8711 494.689 85.3031 494.139L85.3029 494.139L85.2883 494.124C84.7372 493.557 83.5229 492.445 82.6613 492.089Z" fill="#E61717"/>
<path d="M512.974 105.829C513.612 106.603 514.434 107.074 514.533 107.27C514.632 107.467 514.92 108.981 515.355 110.396C515.79 111.811 515.741 112.107 515.648 112.803C515.573 113.36 514.82 115.812 514.452 116.968C514.321 117.315 514.033 117.42 513.795 117.359C513.198 117.131 511.934 116.639 511.65 116.496C511.295 116.318 511.226 116.183 511.179 116.05C511.133 115.918 511.326 114.584 511.322 114.502C511.018 114.538 510.684 114.663 509.845 115.289C509.007 115.914 503.148 121.116 502.776 121.422C502.403 121.728 502.199 121.96 501.544 121.367C501.022 120.894 499.181 118.862 498.314 117.893L498.314 117.894C498.312 117.892 498.31 117.889 498.309 117.887C498.307 117.885 498.305 117.883 498.303 117.881L498.304 117.881C497.52 116.843 495.883 114.643 495.52 114.04C495.064 113.283 495.331 113.127 495.704 112.821C496.076 112.515 502.312 107.772 503.088 107.07C503.863 106.368 504.051 106.064 504.145 105.774C504.065 105.753 502.72 105.686 502.598 105.614C502.477 105.543 502.358 105.449 502.252 105.066C502.167 104.76 501.929 103.424 501.82 102.795C501.806 102.55 501.965 102.287 502.33 102.225C503.536 102.088 506.087 101.823 506.648 101.857C507.349 101.9 507.649 101.91 508.953 102.61C510.257 103.311 511.687 103.886 511.861 104.021C512.034 104.155 512.338 105.053 512.974 105.829Z" fill="#D6CEC4"/>
<path d="M66.1437 473.234C65.5053 472.46 64.6831 471.989 64.5844 471.793C64.4854 471.596 64.1975 470.082 63.7625 468.667C63.3276 467.252 63.3758 466.956 63.4694 466.26C63.5442 465.703 64.2975 463.251 64.6649 462.095C64.7959 461.748 65.0845 461.643 65.322 461.704C65.9189 461.932 67.1836 462.424 67.4674 462.567C67.8219 462.745 67.8915 462.88 67.938 463.013C67.9846 463.145 67.791 464.479 67.7956 464.561C68.0991 464.525 68.4331 464.4 69.2717 463.774C70.1104 463.149 75.9692 457.947 76.3417 457.641C76.7142 457.335 76.9187 457.102 77.5733 457.696C78.0947 458.169 79.9362 460.201 80.803 461.17L80.8037 461.169C80.8053 461.171 80.8069 461.174 80.8086 461.176C80.8104 461.178 80.8123 461.18 80.8142 461.182L80.8136 461.182C81.5969 462.22 83.2343 464.42 83.5975 465.023C84.0534 465.78 83.786 465.935 83.4135 466.242C83.041 466.548 76.8052 471.291 76.0294 471.993C75.2537 472.695 75.0663 472.999 74.9724 473.289C75.0517 473.31 76.3977 473.377 76.5187 473.449C76.6398 473.52 76.7589 473.614 76.8652 473.997C76.9502 474.303 77.1886 475.639 77.2971 476.268C77.311 476.513 77.1524 476.776 76.7867 476.838C75.5812 476.975 73.0299 477.24 72.469 477.205C71.7678 477.163 71.4682 477.153 70.164 476.453C68.8599 475.752 67.4297 475.177 67.2561 475.042C67.0831 474.908 66.7792 474.01 66.1437 473.234Z" fill="#D6CEC4"/>
<path d="M531.961 131.18C532.055 131.243 532.077 131.379 531.998 131.459L519.185 144.365C519.123 144.427 519.023 144.43 518.957 144.371L515.6 141.364C515.53 141.301 515.526 141.192 515.591 141.125L523.647 132.767L512.851 137.033C512.764 137.068 512.666 137.023 512.634 136.934L511.131 132.685C511.102 132.602 511.143 132.51 511.224 132.477L528.036 125.543C528.14 125.5 528.258 125.572 528.28 125.684C528.463 126.598 529.32 128.004 529.769 128.655L529.77 128.655L529.781 128.672C530.211 129.335 531.185 130.663 531.961 131.18Z" fill="#D6CEC4"/>
<path d="M47.1523 447.881C47.0579 447.818 47.036 447.682 47.1156 447.602L59.9286 434.696C59.9904 434.634 60.0903 434.631 60.156 434.69L63.5128 437.697C63.5828 437.76 63.587 437.869 63.522 437.936L55.4663 446.294L66.2619 442.028C66.3491 441.993 66.4477 442.038 66.4791 442.127L67.9819 446.376C68.0113 446.459 67.9707 446.551 67.8896 446.584L51.0774 453.518C50.973 453.561 50.8552 453.489 50.833 453.377C50.6505 452.463 49.7938 451.057 49.3439 450.407L49.3437 450.406L49.3322 450.389C48.9022 449.726 47.928 448.398 47.1523 447.881Z" fill="#D6CEC4"/>
<path d="M544.49 152.891C544.965 153.774 545.68 154.397 545.739 154.608C545.797 154.82 545.785 156.362 545.936 157.834C546.086 159.307 545.981 159.587 545.754 160.252C545.572 160.784 544.355 163.042 543.77 164.104C543.574 164.419 543.27 164.466 543.049 164.36C542.508 164.019 541.364 163.29 541.113 163.095C540.8 162.851 540.758 162.705 540.738 162.566C540.718 162.427 541.168 161.157 541.18 161.076C540.875 161.052 540.523 161.109 539.578 161.559C538.634 162.009 531.874 165.969 531.449 166.197C531.024 166.425 530.778 166.613 530.252 165.903C529.832 165.338 528.422 162.986 527.761 161.867L527.76 161.867C527.759 161.865 527.758 161.862 527.756 161.86C527.755 161.857 527.754 161.855 527.752 161.852L527.753 161.852C527.187 160.682 526.009 158.205 525.771 157.543C525.471 156.712 525.764 156.611 526.189 156.383C526.614 156.155 533.654 152.719 534.552 152.181C535.45 151.644 535.693 151.383 535.842 151.116C535.768 151.08 534.461 150.752 534.356 150.658C534.251 150.565 534.153 150.449 534.123 150.053C534.099 149.736 534.126 148.38 534.142 147.741C534.176 147.498 534.383 147.271 534.753 147.282C535.963 147.383 538.517 147.62 539.06 147.763C539.74 147.941 540.031 148.009 541.174 148.95C542.317 149.891 543.607 150.734 543.751 150.9C543.895 151.066 544.018 152.006 544.49 152.891Z" fill="#D6CEC4"/>
<path d="M34.6193 426.167C34.1439 425.284 33.4294 424.661 33.3707 424.45C33.3119 424.238 33.3247 422.697 33.1738 421.224C33.0229 419.752 33.1279 419.471 33.3554 418.806C33.5373 418.274 34.754 416.016 35.3397 414.954C35.5358 414.639 35.8393 414.592 36.0603 414.699C36.6013 415.039 37.7459 415.768 37.9964 415.963C38.3095 416.207 38.3514 416.353 38.3712 416.492C38.391 416.631 37.9412 417.901 37.9298 417.983C38.2345 418.006 38.5865 417.949 39.5309 417.499C40.4754 417.049 47.2355 413.089 47.6606 412.861C48.0857 412.633 48.3315 412.445 48.8579 413.155C49.2771 413.72 50.6873 416.072 51.3486 417.192L51.3494 417.191C51.3506 417.194 51.3518 417.196 51.3529 417.199C51.3544 417.201 51.3558 417.203 51.3572 417.206L51.3566 417.206C51.9226 418.377 53.0999 420.853 53.3387 421.515C53.6383 422.347 53.3457 422.447 52.9206 422.675C52.4955 422.903 45.455 426.34 44.5573 426.877C43.6597 427.414 43.4167 427.675 43.2679 427.942C43.3418 427.978 44.6487 428.307 44.7535 428.4C44.8583 428.494 44.9568 428.609 44.9865 429.005C45.0103 429.322 44.9837 430.678 44.9674 431.317C44.9334 431.56 44.7266 431.787 44.3559 431.776C43.1468 431.676 40.5928 431.438 40.0493 431.296C39.3699 431.117 39.0779 431.049 37.9352 430.108C36.7926 429.167 35.5019 428.324 35.3579 428.158C35.2145 427.992 35.0914 427.052 34.6193 426.167Z" fill="#D6CEC4"/>
<path d="M558.171 181.455C558.251 181.535 558.246 181.673 558.153 181.736L543.07 191.897C542.997 191.946 542.899 191.929 542.846 191.858L540.14 188.254C540.083 188.179 540.1 188.072 540.177 188.019L549.707 181.391L538.287 183.472C538.195 183.488 538.107 183.425 538.093 183.332L537.448 178.871C537.435 178.784 537.493 178.702 537.579 178.685L555.42 175.161C555.531 175.139 555.632 175.233 555.632 175.346C555.633 176.278 556.199 177.825 556.514 178.55L556.514 178.551L556.522 178.57C556.814 179.304 557.511 180.797 558.171 181.455Z" fill="#E61717"/>
<path d="M20.9383 397.6C20.858 397.52 20.8631 397.382 20.9569 397.319L36.0392 387.158C36.112 387.109 36.2106 387.126 36.2634 387.196L38.9698 390.8C39.0262 390.875 39.0092 390.983 38.9323 391.036L29.4022 397.664L40.8223 395.583C40.9145 395.566 41.0024 395.63 41.016 395.723L41.6618 400.184C41.6744 400.271 41.6168 400.352 41.5307 400.369L23.6897 403.893C23.5789 403.915 23.4774 403.822 23.4773 403.708C23.4764 402.776 22.9102 401.23 22.5957 400.504L22.5955 400.504L22.5876 400.485C22.2952 399.75 21.5985 398.258 20.9383 397.6Z" fill="#E61717"/>
<path d="M566.229 205.191C566.523 206.15 567.102 206.9 567.119 207.119C567.135 207.338 566.822 208.848 566.683 210.321C566.544 211.795 566.386 212.05 566.034 212.658C565.752 213.144 564.118 215.121 563.337 216.049C563.083 216.32 562.776 216.306 562.58 216.159C562.116 215.72 561.135 214.782 560.928 214.542C560.668 214.241 560.655 214.09 560.663 213.95C560.671 213.81 561.36 212.651 561.387 212.574C561.092 212.491 560.736 212.479 559.722 212.736C558.708 212.994 551.306 215.56 550.844 215.701C550.383 215.841 550.105 215.978 549.727 215.179C549.426 214.543 548.501 211.961 548.071 210.734L548.07 210.735C548.069 210.732 548.069 210.729 548.068 210.727C548.067 210.724 548.066 210.721 548.065 210.719L548.066 210.719C547.739 209.46 547.067 206.802 546.962 206.106C546.83 205.232 547.136 205.19 547.598 205.05C548.059 204.909 555.634 202.91 556.62 202.558C557.605 202.206 557.894 201.997 558.092 201.765C558.026 201.716 556.809 201.138 556.724 201.026C556.639 200.914 556.565 200.781 556.613 200.387C556.652 200.072 556.942 198.747 557.083 198.123C557.163 197.892 557.41 197.709 557.772 197.792C558.938 198.127 561.397 198.857 561.902 199.103C562.534 199.411 562.807 199.534 563.744 200.68C564.682 201.825 565.783 202.904 565.892 203.095C566 203.285 565.938 204.231 566.229 205.191Z" fill="#D6CEC4"/>
<path d="M12.8768 373.86C12.5826 372.901 12.0032 372.151 11.9868 371.932C11.9705 371.713 12.2834 370.203 12.4224 368.73C12.5614 367.256 12.7191 367.001 13.0717 366.393C13.3538 365.907 14.9872 363.93 15.7687 363.001C16.0224 362.731 16.3292 362.745 16.5253 362.892C16.9896 363.331 17.9701 364.269 18.1778 364.509C18.4374 364.809 18.45 364.961 18.4423 365.101C18.4347 365.241 17.7459 366.4 17.7189 366.477C18.0131 366.56 18.3696 366.572 19.3836 366.315C20.3977 366.057 27.7999 363.491 28.2613 363.35C28.7226 363.209 29.0003 363.073 29.3783 363.872C29.6793 364.508 30.6042 367.089 31.0346 368.316L31.0355 368.316C31.0361 368.319 31.0368 368.321 31.0375 368.324C31.0384 368.327 31.0394 368.329 31.0403 368.332L31.0396 368.332C31.3667 369.59 32.0388 372.249 32.1439 372.945C32.2757 373.819 31.9691 373.86 31.5078 374.001C31.0465 374.142 23.4711 376.14 22.4859 376.492C21.5008 376.844 21.2116 377.053 21.0136 377.286C21.0792 377.335 22.2969 377.912 22.3815 378.025C22.4661 378.137 22.5401 378.269 22.4922 378.663C22.4538 378.979 22.1633 380.304 22.0228 380.928C21.9421 381.159 21.695 381.342 21.3336 381.259C20.1673 380.924 17.7085 380.194 17.2032 379.948C16.5716 379.64 16.2986 379.517 15.3611 378.371C14.4238 377.225 13.3221 376.147 13.2133 375.956C13.105 375.765 13.1674 374.819 12.8768 373.86Z" fill="#D6CEC4"/>
<path d="M574.079 235.868C574.142 235.962 574.11 236.096 574.006 236.14L557.233 243.166C557.152 243.2 557.058 243.165 557.02 243.085L555.068 239.023C555.028 238.938 555.065 238.836 555.151 238.799L565.79 234.155L554.183 233.971C554.09 233.969 554.016 233.89 554.021 233.796L554.257 229.295C554.261 229.207 554.334 229.138 554.421 229.138L572.607 229.159C572.72 229.159 572.801 229.27 572.779 229.382C572.598 230.296 572.852 231.923 573.02 232.696L573.02 232.696L573.024 232.716C573.167 233.494 573.56 235.093 574.079 235.868Z" fill="#D6CEC4"/>
<path d="M5.02629 343.168C4.96311 343.074 4.99508 342.94 5.0993 342.896L21.8727 335.87C21.9536 335.836 22.047 335.871 22.0852 335.951L24.0372 340.013C24.0779 340.098 24.0404 340.2 23.9545 340.237L13.3154 344.88L24.9221 345.065C25.0158 345.067 25.0897 345.146 25.0848 345.24L24.8489 349.741C24.8443 349.829 24.7719 349.898 24.6841 349.898L6.49841 349.877C6.38543 349.877 6.30418 349.766 6.32614 349.654C6.50698 348.74 6.25302 347.113 6.08594 346.34L6.08578 346.34L6.08171 346.319C5.93808 345.542 5.54553 343.943 5.02629 343.168Z" fill="#D6CEC4"/>
<path d="M577.362 260.726C577.464 261.724 577.886 262.572 577.86 262.79C577.833 263.008 577.232 264.428 576.808 265.846C576.385 267.265 576.18 267.484 575.716 268.011C575.345 268.433 573.357 270.054 572.41 270.812C572.108 271.028 571.81 270.955 571.646 270.772C571.277 270.251 570.498 269.14 570.341 268.864C570.145 268.519 570.162 268.368 570.197 268.232C570.232 268.096 571.133 267.094 571.174 267.023C570.902 266.885 570.555 266.803 569.51 266.858C568.465 266.913 560.705 267.988 560.225 268.036C559.745 268.084 559.446 268.163 559.231 267.306C559.06 266.624 558.656 263.911 558.472 262.624L558.472 262.624C558.471 262.621 558.471 262.619 558.471 262.616C558.471 262.613 558.47 262.61 558.47 262.608L558.471 262.608C558.395 261.31 558.254 258.571 558.287 257.868C558.328 256.985 558.636 257.004 559.116 256.956C559.596 256.908 567.416 256.424 568.451 256.271C569.486 256.118 569.81 255.969 570.049 255.779C569.995 255.718 568.913 254.915 568.852 254.788C568.791 254.662 568.744 254.517 568.868 254.14C568.967 253.839 569.51 252.595 569.769 252.011C569.894 251.8 570.171 251.669 570.51 251.821C571.589 252.376 573.858 253.571 574.306 253.911C574.865 254.336 575.109 254.511 575.805 255.817C576.501 257.123 577.371 258.395 577.441 258.604C577.51 258.812 577.264 259.728 577.362 260.726Z" fill="#D6CEC4"/>
<path d="M1.7508 318.318C1.64914 317.32 1.22701 316.472 1.25358 316.254C1.28031 316.036 1.88137 314.616 2.3049 313.198C2.72846 311.779 2.93282 311.56 3.39708 311.033C3.76848 310.611 5.75601 308.99 6.70344 308.232C7.00497 308.016 7.3032 308.089 7.46687 308.271C7.83675 308.793 8.61561 309.904 8.7725 310.18C8.96856 310.525 8.95143 310.676 8.91659 310.812C8.88173 310.948 7.98045 311.95 7.93887 312.021C8.21125 312.159 8.55865 312.241 9.60334 312.186C10.6481 312.131 18.4086 311.056 18.8885 311.008C19.3684 310.96 19.6674 310.881 19.8824 311.738C20.0537 312.42 20.4577 315.133 20.6408 316.42L20.6417 316.42C20.6418 316.422 20.6419 316.425 20.6421 316.428C20.6425 316.431 20.6429 316.433 20.6433 316.436L20.6426 316.436C20.7182 317.734 20.8593 320.473 20.8267 321.176C20.7857 322.059 20.4769 322.04 19.997 322.088C19.5171 322.136 11.6975 322.62 10.6626 322.773C9.62777 322.926 9.30336 323.075 9.06383 323.265C9.11856 323.326 10.2005 324.129 10.2616 324.256C10.3227 324.382 10.3694 324.527 10.2456 324.904C10.1465 325.205 9.60326 326.449 9.34396 327.033C9.2197 327.244 8.94185 327.375 8.60353 327.223C7.52472 326.668 5.25536 325.472 4.80776 325.133C4.24825 324.708 4.00449 324.533 3.30832 323.227C2.6122 321.921 1.74183 320.648 1.67236 320.44C1.60322 320.232 1.84882 319.316 1.7508 318.318Z" fill="#D6CEC4"/>
<path d="M579.081 292.349C579.124 292.454 579.067 292.58 578.956 292.602L561.135 296.225C561.049 296.243 560.964 296.19 560.942 296.104L559.819 291.739C559.796 291.648 559.853 291.556 559.944 291.536L571.284 289.055L559.936 286.611C559.845 286.592 559.788 286.499 559.811 286.408L560.919 282.04C560.941 281.954 561.025 281.901 561.111 281.918L578.944 285.482C579.055 285.504 579.113 285.63 579.07 285.735C578.714 286.596 578.646 288.242 578.66 289.032L578.66 289.032L578.66 289.053C578.649 289.844 578.722 291.489 579.081 292.349Z" fill="#D6CEC4"/>
<path d="M0.0246196 286.69C-0.0189897 286.585 0.0385633 286.459 0.149297 286.437L17.9705 282.814C18.0565 282.796 18.1411 282.85 18.163 282.935L19.286 287.3C19.3094 287.391 19.2527 287.483 19.1611 287.503L7.82118 289.984L19.1692 292.428C19.2609 292.447 19.3178 292.54 19.2948 292.631L18.1862 297C18.1646 297.085 18.0801 297.138 17.994 297.121L0.161016 293.557C0.0502282 293.535 -0.00771489 293.409 0.0355079 293.305C0.391084 292.443 0.45912 290.797 0.445868 290.007L0.445726 290.007L0.445692 289.986C0.456347 289.195 0.383036 287.55 0.0246196 286.69Z" fill="#D6CEC4"/>
<path d="M577.451 317.364C577.356 318.363 577.605 319.277 577.537 319.486C577.468 319.695 576.602 320.97 575.91 322.278C575.218 323.587 574.975 323.762 574.417 324.189C573.97 324.53 571.705 325.733 570.628 326.292C570.29 326.445 570.012 326.315 569.887 326.104C569.625 325.521 569.078 324.279 568.978 323.978C568.853 323.601 568.899 323.456 568.96 323.33C569.021 323.203 570.1 322.396 570.154 322.335C569.914 322.146 569.589 321.999 568.554 321.849C567.519 321.699 559.697 321.24 559.217 321.194C558.737 321.148 558.429 321.167 558.385 320.285C558.35 319.582 558.482 316.843 558.553 315.545L558.553 315.545C558.553 315.542 558.553 315.539 558.554 315.536C558.554 315.534 558.554 315.531 558.554 315.528L558.555 315.528C558.734 314.24 559.129 311.527 559.298 310.844C559.51 309.986 559.809 310.064 560.289 310.111C560.77 310.157 568.534 311.207 569.578 311.258C570.623 311.309 570.97 311.227 571.242 311.087C571.201 311.017 570.296 310.018 570.261 309.882C570.225 309.746 570.208 309.595 570.403 309.249C570.559 308.973 571.334 307.859 571.702 307.337C571.865 307.154 572.163 307.079 572.465 307.294C573.415 308.049 575.408 309.664 575.781 310.085C576.247 310.61 576.452 310.829 576.88 312.246C577.308 313.663 577.914 315.08 577.942 315.299C577.969 315.516 577.55 316.366 577.451 317.364Z" fill="#E61717"/>
<path d="M1.65042 261.672C1.74514 260.673 1.49653 259.759 1.56499 259.55C1.63377 259.341 2.49995 258.066 3.19177 256.758C3.88363 255.449 4.12682 255.274 4.68493 254.847C5.1314 254.506 7.39681 253.303 8.47379 252.744C8.81161 252.591 9.08988 252.721 9.21484 252.932C9.47607 253.515 10.0234 254.757 10.1235 255.058C10.2485 255.435 10.2023 255.58 10.1416 255.706C10.0809 255.833 9.00164 256.64 8.94712 256.701C9.18726 256.89 9.51217 257.038 10.5475 257.187C11.5829 257.337 19.4041 257.796 19.8841 257.842C20.3642 257.889 20.6729 257.869 20.7168 258.751C20.7517 259.454 20.6194 262.193 20.5482 263.491L20.549 263.492C20.5486 263.494 20.5482 263.497 20.5478 263.5C20.5477 263.502 20.5476 263.505 20.5474 263.508L20.5467 263.508C20.3679 264.796 19.9726 267.509 19.8036 268.193C19.5914 269.05 19.2921 268.972 18.8121 268.925C18.332 268.879 10.568 267.83 9.5231 267.778C8.47824 267.727 8.1311 267.809 7.85919 267.949C7.90099 268.019 8.80557 269.018 8.84087 269.154C8.87616 269.29 8.89379 269.441 8.69886 269.787C8.54288 270.063 7.76769 271.177 7.39953 271.7C7.23645 271.883 6.93847 271.957 6.63622 271.742C5.68631 270.987 3.69345 269.372 3.32067 268.952C2.85468 268.426 2.64959 268.207 2.22136 266.79C1.79317 265.373 1.18744 263.956 1.15999 263.738C1.13271 263.52 1.55203 262.67 1.65042 261.672Z" fill="#E61717"/>
<path d="M572.979 348.718C573.001 348.829 572.92 348.941 572.807 348.942L554.622 349.022C554.534 349.023 554.461 348.954 554.457 348.866L554.206 344.366C554.201 344.272 554.274 344.192 554.368 344.191L565.974 343.967L555.32 339.359C555.234 339.322 555.196 339.22 555.236 339.135L557.175 335.066C557.213 334.987 557.306 334.951 557.387 334.985L574.183 341.956C574.288 341.999 574.32 342.134 574.257 342.228C573.741 343.004 573.353 344.604 573.212 345.382L573.212 345.383L573.208 345.403C573.044 346.176 572.795 347.804 572.979 348.718Z" fill="#D6CEC4"/>
<path d="M6.13048 230.316C6.10811 230.204 6.18904 230.092 6.30203 230.092L24.4876 230.012C24.5753 230.011 24.648 230.08 24.6528 230.168L24.9036 234.668C24.9088 234.762 24.8352 234.841 24.7415 234.843L13.1355 235.066L23.7897 239.675C23.8758 239.712 23.9136 239.813 23.8732 239.898L21.9345 243.967C21.8967 244.047 21.8034 244.083 21.7223 244.049L4.92592 237.078C4.82157 237.034 4.78916 236.9 4.85198 236.806C5.36866 236.03 5.75608 234.429 5.89716 233.651L5.89705 233.651L5.90105 233.631C6.06558 232.857 6.31432 231.229 6.13048 230.316Z" fill="#D6CEC4"/>
<path d="M566.509 372.935C566.221 373.896 566.287 374.842 566.179 375.033C566.071 375.224 564.973 376.306 564.039 377.455C563.105 378.603 562.833 378.728 562.202 379.038C561.698 379.285 559.241 380.024 558.076 380.362C557.715 380.446 557.467 380.265 557.386 380.033C557.243 379.41 556.948 378.086 556.909 377.771C556.86 377.377 556.933 377.244 557.018 377.131C557.102 377.019 558.318 376.438 558.383 376.388C558.184 376.156 557.894 375.948 556.908 375.6C555.922 375.251 548.34 373.277 547.878 373.138C547.416 372.999 547.11 372.958 547.238 372.084C547.341 371.388 548.005 368.727 548.328 367.467L548.327 367.467C548.328 367.465 548.329 367.462 548.33 367.459C548.33 367.457 548.331 367.454 548.332 367.451L548.332 367.452C548.759 366.223 549.675 363.639 549.974 363.002C550.35 362.202 550.628 362.337 551.089 362.476C551.551 362.615 558.962 365.158 559.977 365.412C560.992 365.666 561.348 365.652 561.642 365.569C561.615 365.491 560.922 364.335 560.914 364.195C560.906 364.055 560.918 363.903 561.177 363.602C561.384 363.361 562.361 362.42 562.824 361.979C563.02 361.831 563.326 361.817 563.581 362.087C564.365 363.012 566.005 364.984 566.289 365.47C566.644 366.076 566.802 366.33 566.946 367.804C567.09 369.277 567.408 370.785 567.392 371.005C567.376 371.223 566.8 371.975 566.509 372.935Z" fill="#D6CEC4"/>
<path d="M12.6048 206.094C12.8923 205.133 12.8267 204.187 12.9344 203.996C13.0426 203.805 14.1407 202.723 15.0743 201.574C16.0079 200.425 16.2806 200.301 16.9111 199.991C17.4156 199.744 19.872 199.005 21.0372 198.667C21.3984 198.583 21.646 198.764 21.7275 198.996C21.87 199.618 22.1649 200.943 22.2043 201.258C22.2535 201.652 22.18 201.785 22.0958 201.897C22.0116 202.01 20.7957 202.591 20.7303 202.64C20.929 202.873 21.2189 203.08 22.2052 203.429C23.1915 203.778 30.7734 205.752 31.2352 205.891C31.697 206.03 32.0037 206.071 31.8748 206.945C31.772 207.641 31.1085 210.302 30.7855 211.561L30.7864 211.562C30.7855 211.564 30.7845 211.567 30.7836 211.569C30.7829 211.572 30.7823 211.575 30.7816 211.577L30.7809 211.577C30.3545 212.805 29.438 215.39 29.1391 216.027C28.7637 216.827 28.4856 216.692 28.0238 216.553C27.562 216.413 20.1513 213.871 19.1364 213.617C18.1216 213.363 17.7651 213.377 17.4712 213.46C17.4985 213.538 18.191 214.694 18.1991 214.834C18.2072 214.974 18.1951 215.126 17.9366 215.427C17.7297 215.668 16.7523 216.609 16.2894 217.05C16.0937 217.197 15.787 217.212 15.5325 216.942C14.7479 216.017 13.1079 214.044 12.8243 213.559C12.4697 212.953 12.3111 212.698 12.1673 211.225C12.0234 209.752 11.7056 208.244 11.7212 208.024C11.7368 207.806 12.3138 207.053 12.6048 206.094Z" fill="#D6CEC4"/>
<path d="M556.006 402.816C556.006 402.929 555.905 403.024 555.794 403.002L537.941 399.537C537.855 399.52 537.797 399.438 537.81 399.351L538.441 394.889C538.454 394.795 538.542 394.732 538.634 394.748L550.061 396.791L540.509 390.195C540.432 390.142 540.415 390.035 540.471 389.959L543.165 386.346C543.218 386.275 543.317 386.258 543.389 386.307L558.505 396.418C558.599 396.481 558.605 396.619 558.525 396.699C557.867 397.36 557.175 398.854 556.885 399.59L556.885 399.59L556.877 399.609C556.565 400.336 556.004 401.884 556.006 402.816Z" fill="#D6CEC4"/>
<path d="M23.1035 176.211C23.1033 176.098 23.2045 176.004 23.3154 176.025L41.1679 179.491C41.254 179.507 41.3119 179.589 41.2995 179.676L40.6685 184.139C40.6552 184.232 40.5675 184.296 40.4753 184.279L29.0483 182.236L38.6002 188.832C38.6773 188.886 38.6947 188.993 38.6385 189.068L35.944 192.681C35.8914 192.752 35.7928 192.769 35.7199 192.72L20.6042 182.609C20.5103 182.546 20.5047 182.408 20.5847 182.328C21.2427 181.668 21.9346 180.173 22.2246 179.438L22.2245 179.437L22.2324 179.418C22.5445 178.692 23.1058 177.143 23.1035 176.211Z" fill="#D6CEC4"/>
<path d="M544.941 425.308C544.472 426.194 544.352 427.134 544.209 427.301C544.066 427.467 542.778 428.314 541.638 429.259C540.499 430.204 540.207 430.273 539.528 430.454C538.985 430.598 536.432 430.844 535.223 430.949C534.852 430.961 534.645 430.734 534.61 430.492C534.592 429.853 534.561 428.496 534.583 428.179C534.612 427.784 534.71 427.668 534.814 427.574C534.919 427.48 536.225 427.147 536.298 427.111C536.149 426.845 535.905 426.584 535.005 426.05C534.106 425.516 527.054 422.102 526.628 421.876C526.203 421.649 525.91 421.549 526.206 420.717C526.443 420.054 527.612 417.574 528.175 416.402L528.174 416.401C528.175 416.399 528.177 416.396 528.178 416.394C528.179 416.392 528.18 416.389 528.182 416.387L528.182 416.387C528.84 415.265 530.242 412.909 530.66 412.342C531.184 411.631 531.43 411.818 531.856 412.044C532.282 412.271 539.055 416.208 540.001 416.655C540.947 417.102 541.299 417.159 541.604 417.134C541.592 417.053 541.138 415.784 541.157 415.645C541.177 415.506 541.218 415.359 541.53 415.114C541.78 414.918 542.922 414.186 543.462 413.844C543.683 413.737 543.987 413.782 544.184 414.097C544.773 415.157 545.997 417.411 546.181 417.942C546.41 418.606 546.516 418.887 546.37 420.36C546.224 421.833 546.242 423.374 546.184 423.586C546.126 423.798 545.414 424.423 544.941 425.308Z" fill="#D6CEC4"/>
<path d="M34.1722 153.716C34.6414 152.83 34.7614 151.89 34.9043 151.723C35.0477 151.557 36.3356 150.709 37.4751 149.765C38.6147 148.82 38.9065 148.751 39.5853 148.57C40.1283 148.426 42.6815 148.18 43.8903 148.075C44.261 148.063 44.4685 148.29 44.5033 148.532C44.5217 149.171 44.5527 150.528 44.53 150.844C44.5016 151.24 44.4035 151.356 44.299 151.45C44.1945 151.544 42.8886 151.877 42.8149 151.913C42.9645 152.179 43.2084 152.44 44.1078 152.974C45.0072 153.508 52.0591 156.922 52.4849 157.148C52.9107 157.375 53.2036 157.474 52.9068 158.307C52.6702 158.97 51.5009 161.45 50.9388 162.622L50.9395 162.623C50.9381 162.625 50.9367 162.628 50.9353 162.63C50.9341 162.632 50.9329 162.635 50.9318 162.637L50.9311 162.637C50.2735 163.759 48.8709 166.115 48.4535 166.682C47.9295 167.393 47.6831 167.206 47.2572 166.98C46.8314 166.753 40.0582 162.816 39.1123 162.369C38.1665 161.922 37.8142 161.865 37.5096 161.89C37.5213 161.971 37.9753 163.24 37.9559 163.379C37.9365 163.518 37.8951 163.665 37.5829 163.909C37.333 164.105 36.1909 164.838 35.651 165.18C35.4303 165.287 35.1266 165.242 34.9295 164.927C34.3403 163.867 33.1162 161.613 32.9325 161.082C32.7029 160.418 32.597 160.137 32.743 158.664C32.889 157.191 32.8712 155.65 32.9293 155.438C32.9872 155.226 33.6997 154.601 34.1722 153.716Z" fill="#D6CEC4"/>
<path d="M528.819 452.569C528.797 452.68 528.679 452.752 528.575 452.71L511.74 445.831C511.659 445.798 511.618 445.707 511.647 445.624L513.136 441.37C513.167 441.281 513.265 441.236 513.353 441.27L524.162 445.5L516.079 437.169C516.014 437.102 516.018 436.994 516.087 436.931L519.434 433.912C519.5 433.853 519.6 433.855 519.662 433.917L532.517 446.781C532.597 446.86 532.576 446.997 532.482 447.06C531.707 447.579 530.738 448.91 530.31 449.575L530.31 449.576L530.298 449.593C529.851 450.245 528.998 451.654 528.819 452.569Z" fill="#E61717"/>
<path d="M50.2944 126.452C50.3162 126.341 50.4338 126.268 50.5384 126.311L67.3732 133.189C67.4545 133.222 67.4954 133.313 67.4662 133.397L65.9775 137.651C65.9464 137.739 65.8479 137.785 65.7607 137.751L54.9509 133.52L63.0342 141.851C63.0994 141.919 63.0956 142.027 63.0258 142.09L59.6788 145.109C59.6134 145.168 59.5135 145.165 59.4514 145.103L46.5961 132.24C46.5163 132.16 46.5376 132.024 46.6318 131.96C47.4058 131.441 48.3757 130.11 48.8035 129.445L48.8035 129.445L48.815 129.428C49.2627 128.776 50.1149 127.367 50.2944 126.452Z" fill="#E61717"/>
<path d="M513.585 472.473C512.952 473.251 512.651 474.15 512.478 474.285C512.305 474.42 510.877 475 509.575 475.705C508.273 476.409 507.973 476.42 507.272 476.465C506.712 476.501 504.159 476.244 502.953 476.112C502.588 476.051 502.428 475.789 502.441 475.544C502.548 474.914 502.782 473.577 502.866 473.271C502.971 472.888 503.089 472.793 503.21 472.722C503.331 472.65 504.677 472.578 504.756 472.557C504.661 472.267 504.473 471.964 503.695 471.264C502.917 470.565 496.665 465.843 496.292 465.538C495.918 465.232 495.65 465.078 496.104 464.319C496.465 463.715 498.095 461.51 498.875 460.47L498.874 460.469C498.876 460.467 498.878 460.465 498.88 460.463C498.882 460.461 498.883 460.459 498.885 460.456L498.885 460.457C499.749 459.485 501.584 457.447 502.104 456.973C502.757 456.377 502.962 456.608 503.335 456.914C503.709 457.219 509.585 462.401 510.425 463.024C511.266 463.646 511.601 463.77 511.904 463.805C511.908 463.723 511.71 462.39 511.757 462.258C511.803 462.125 511.872 461.99 512.226 461.81C512.509 461.667 513.772 461.171 514.368 460.94C514.606 460.879 514.895 460.983 515.027 461.329C515.398 462.484 516.159 464.934 516.236 465.49C516.332 466.186 516.381 466.482 515.951 467.898C515.52 469.315 515.237 470.83 515.139 471.027C515.041 471.223 514.22 471.697 513.585 472.473Z" fill="#D6CEC4"/>
<path d="M65.5405 106.545C66.1734 105.767 66.4744 104.869 66.6469 104.733C66.8201 104.598 68.2484 104.018 69.5502 103.313C70.852 102.609 71.1516 102.598 71.8527 102.553C72.4135 102.517 74.9656 102.774 76.1716 102.907C76.5375 102.967 76.6969 103.229 76.6838 103.474C76.5774 104.104 76.3434 105.441 76.2593 105.747C76.1543 106.13 76.0355 106.225 75.9147 106.296C75.794 106.368 74.4482 106.44 74.3689 106.461C74.4638 106.751 74.6522 107.054 75.4302 107.754C76.2083 108.453 82.4596 113.175 82.8332 113.481C83.2067 113.786 83.4746 113.94 83.0212 114.699C82.66 115.303 81.0297 117.508 80.2498 118.548L80.2505 118.549C80.2487 118.551 80.2468 118.553 80.245 118.555C80.2433 118.557 80.2417 118.559 80.2401 118.562L80.2395 118.561C79.3759 119.533 77.541 121.571 77.0212 122.045C76.3685 122.641 76.1632 122.41 75.7897 122.105C75.4162 121.799 69.5403 116.617 68.6996 115.995C67.859 115.372 67.5245 115.248 67.2209 115.213C67.2166 115.295 67.4146 116.628 67.3684 116.76C67.3223 116.893 67.2532 117.028 66.8992 117.208C66.6159 117.351 65.3529 117.847 64.7567 118.078C64.5194 118.139 64.2305 118.036 64.0983 117.689C63.7271 116.534 62.9658 114.085 62.8891 113.528C62.7933 112.832 62.7441 112.536 63.1744 111.12C63.6046 109.704 63.8876 108.188 63.9859 107.991C64.084 107.795 64.9046 107.321 65.5405 106.545Z" fill="#D6CEC4"/>
<path d="M492.454 496.069C492.411 496.174 492.282 496.222 492.187 496.16L477.016 486.133C476.943 486.084 476.92 485.987 476.965 485.911L479.254 482.029C479.302 481.948 479.408 481.922 479.487 481.973L489.264 488.229L482.96 478.482C482.909 478.404 482.934 478.298 483.015 478.25L486.886 475.941C486.961 475.896 487.059 475.918 487.108 475.991L497.21 491.113C497.272 491.207 497.225 491.336 497.12 491.38C496.26 491.739 495.049 492.855 494.5 493.424L494.5 493.424L494.485 493.439C493.919 493.991 492.809 495.207 492.454 496.069Z" fill="#E61717"/>
<path d="M86.6629 82.947C86.706 82.8421 86.8355 82.7939 86.9298 82.8562L102.101 92.8834C102.175 92.9317 102.197 93.0292 102.152 93.1051L99.8629 96.9874C99.8151 97.0684 99.7096 97.0938 99.6307 97.0433L89.8527 90.787L96.1573 100.534C96.2082 100.613 96.1833 100.718 96.1026 100.766L92.2315 103.075C92.1558 103.12 92.0582 103.098 92.0095 103.025L81.9076 87.9032C81.8449 87.8093 81.8924 87.6797 81.997 87.636C82.8574 87.2775 84.0682 86.161 84.6174 85.5922L84.6174 85.592L84.632 85.5773C85.1981 85.0253 86.3086 83.8092 86.6629 82.947Z" fill="#E61717"/>
<path d="M473.631 512.622C472.858 513.262 472.388 514.085 472.192 514.184C471.996 514.283 470.482 514.574 469.068 515.011C467.654 515.448 467.358 515.4 466.661 515.308C466.104 515.234 463.651 514.485 462.494 514.119C462.147 513.989 462.042 513.701 462.102 513.463C462.33 512.866 462.82 511.6 462.962 511.316C463.139 510.961 463.274 510.892 463.407 510.845C463.539 510.798 464.873 510.989 464.955 510.985C464.919 510.681 464.793 510.347 464.166 509.51C463.539 508.672 458.328 502.822 458.021 502.45C457.714 502.078 457.482 501.874 458.074 501.218C458.546 500.696 460.575 498.851 461.543 497.983L461.542 497.982C461.544 497.981 461.546 497.979 461.549 497.977C461.551 497.975 461.553 497.974 461.555 497.972L461.555 497.972C462.592 497.187 464.789 495.546 465.391 495.182C466.147 494.725 466.303 494.992 466.61 495.364C466.917 495.736 471.67 501.964 472.374 502.739C473.077 503.513 473.381 503.7 473.672 503.794C473.692 503.714 473.757 502.368 473.829 502.247C473.9 502.126 473.994 502.007 474.376 501.9C474.682 501.814 476.017 501.573 476.647 501.464C476.892 501.45 477.155 501.608 477.217 501.973C477.356 503.179 477.625 505.729 477.592 506.29C477.55 506.992 477.541 507.291 476.843 508.597C476.145 509.902 475.572 511.333 475.437 511.507C475.303 511.68 474.406 511.985 473.631 512.622Z" fill="#E61717"/>
<path d="M105.49 66.3928C106.263 65.7532 106.733 64.9302 106.929 64.8312C107.125 64.7319 108.639 64.4415 110.053 64.0042C111.467 63.5669 111.763 63.6147 112.46 63.7071C113.017 63.781 115.47 64.5302 116.627 64.8957C116.974 65.0261 117.079 65.3146 117.019 65.5521C116.791 66.1494 116.301 67.415 116.159 67.699C115.982 68.0538 115.847 68.1236 115.714 68.1704C115.582 68.2171 114.248 68.0258 114.166 68.0305C114.202 68.3339 114.328 68.6678 114.955 69.5053C115.582 70.3429 120.793 76.1931 121.1 76.5652C121.407 76.9372 121.639 77.1413 121.047 77.7969C120.575 78.3191 118.546 80.1639 117.578 81.0323L117.579 81.0329C117.577 81.0346 117.575 81.0362 117.572 81.0379C117.57 81.0397 117.568 81.0416 117.566 81.0435L117.566 81.0429C116.529 81.8279 114.333 83.4689 113.73 83.8332C112.974 84.2903 112.818 84.0232 112.511 83.6511C112.204 83.2791 107.451 77.0511 106.747 76.2765C106.044 75.502 105.74 75.3151 105.449 75.2216C105.429 75.301 105.364 76.6471 105.293 76.7682C105.221 76.8894 105.127 77.0086 104.745 77.1156C104.439 77.2011 103.104 77.4417 102.474 77.5512C102.229 77.5656 101.966 77.4074 101.904 77.0418C101.765 75.8365 101.496 73.2857 101.529 72.7247C101.571 72.0234 101.58 71.7238 102.278 70.4185C102.976 69.1132 103.549 67.6821 103.684 67.5082C103.818 67.335 104.716 67.0296 105.49 66.3928Z" fill="#E61717"/>
<path d="M448.316 531.649C448.254 531.744 448.117 531.766 448.037 531.686L435.111 518.895C435.048 518.833 435.045 518.733 435.104 518.667L438.106 515.305C438.169 515.235 438.277 515.231 438.345 515.296L446.716 523.338L442.432 512.549C442.397 512.462 442.442 512.363 442.531 512.332L446.777 510.822C446.86 510.793 446.952 510.833 446.985 510.914L453.946 527.715C453.99 527.819 453.918 527.937 453.807 527.959C452.893 528.143 451.488 529.002 450.838 529.453L450.838 529.454L450.821 529.465C450.158 529.896 448.832 530.873 448.316 531.649Z" fill="#D6CEC4"/>
<path d="M130.816 47.3643C130.879 47.2698 131.016 47.2477 131.096 47.3272L144.022 60.1189C144.085 60.1806 144.088 60.2805 144.029 60.3462L141.027 63.708C140.964 63.7781 140.856 63.7825 140.788 63.7176L132.417 55.6756L136.701 66.4643C136.736 66.5514 136.691 66.6501 136.602 66.6816L132.355 68.1914C132.272 68.2209 132.181 68.1805 132.147 68.0994L125.186 51.2987C125.143 51.1943 125.215 51.0764 125.326 51.054C126.24 50.8701 127.645 50.011 128.295 49.5601L128.295 49.5599L128.312 49.5483C128.975 49.1173 130.301 48.1409 130.816 47.3643Z" fill="#D6CEC4"/>
<path d="M426.626 544.216C425.743 544.693 425.122 545.408 424.91 545.467C424.698 545.526 423.157 545.516 421.685 545.669C420.212 545.823 419.931 545.718 419.266 545.492C418.734 545.311 416.474 544.098 415.411 543.514C415.096 543.318 415.049 543.015 415.154 542.794C415.494 542.252 416.221 541.106 416.416 540.855C416.659 540.542 416.805 540.5 416.944 540.48C417.083 540.46 418.354 540.907 418.435 540.919C418.459 540.614 418.4 540.262 417.949 539.318C417.497 538.375 413.526 531.621 413.298 531.196C413.069 530.772 412.881 530.526 413.59 529.999C414.155 529.578 416.504 528.164 417.622 527.501L417.622 527.5C417.624 527.499 417.627 527.498 417.629 527.497C417.632 527.495 417.634 527.494 417.636 527.493L417.637 527.493C418.806 526.925 421.281 525.744 421.943 525.504C422.774 525.203 422.875 525.495 423.103 525.92C423.332 526.345 426.78 533.38 427.319 534.277C427.857 535.173 428.119 535.416 428.386 535.564C428.422 535.49 428.748 534.183 428.842 534.078C428.935 533.973 429.051 533.874 429.446 533.844C429.763 533.82 431.12 533.844 431.759 533.859C432.001 533.893 432.229 534.099 432.218 534.47C432.12 535.679 431.887 538.234 431.745 538.777C431.567 539.457 431.5 539.749 430.561 540.893C429.622 542.037 428.781 543.33 428.615 543.474C428.449 543.617 427.51 543.742 426.626 544.216Z" fill="#E61717"/>
<path d="M152.511 34.7965C153.393 34.3197 154.015 33.6041 154.226 33.5451C154.438 33.486 155.98 33.4961 157.452 33.3429C158.924 33.1896 159.205 33.2941 159.87 33.5204C160.402 33.7015 162.662 34.9145 163.726 35.4984C164.041 35.694 164.088 35.9974 163.982 36.2186C163.643 36.7602 162.916 37.9059 162.721 38.1568C162.478 38.4703 162.332 38.5124 162.193 38.5324C162.054 38.5525 160.782 38.1048 160.701 38.0935C160.678 38.3982 160.736 38.7502 161.188 39.6938C161.639 40.6375 165.61 47.3912 165.839 47.8159C166.068 48.2406 166.256 48.4861 165.547 49.0136C164.982 49.4338 162.633 50.8479 161.514 51.511L161.515 51.5118C161.512 51.513 161.51 51.5142 161.507 51.5153C161.505 51.5168 161.503 51.5182 161.5 51.5196L161.5 51.519C160.33 52.087 157.856 53.2684 157.194 53.5082C156.363 53.8092 156.262 53.5168 156.034 53.092C155.805 52.6673 152.357 45.6324 151.818 44.7356C151.279 43.8389 151.018 43.5963 150.75 43.448C150.715 43.5219 150.388 44.8294 150.295 44.9344C150.202 45.0394 150.086 45.138 149.69 45.1684C149.374 45.1927 148.017 45.1683 147.378 45.1531C147.135 45.1194 146.908 44.913 146.918 44.5424C147.017 43.3331 147.25 40.7787 147.392 40.2349C147.569 39.5552 147.637 39.2631 148.576 38.1189C149.515 36.9747 150.356 35.6827 150.522 35.5384C150.687 35.3947 151.627 35.2701 152.511 34.7965Z" fill="#E61717"/>
<path d="M398.057 557.954C397.977 558.034 397.839 558.029 397.775 557.936L387.591 542.869C387.542 542.796 387.558 542.698 387.629 542.645L391.229 539.933C391.304 539.876 391.411 539.893 391.464 539.97L398.107 549.49L396.009 538.073C395.992 537.981 396.055 537.893 396.148 537.879L400.608 537.226C400.695 537.213 400.777 537.271 400.794 537.357L404.346 555.193C404.368 555.303 404.274 555.405 404.161 555.405C403.229 555.408 401.683 555.976 400.958 556.292L400.958 556.292L400.939 556.3C400.205 556.593 398.714 557.293 398.057 557.954Z" fill="#D6CEC4"/>
<path d="M181.076 21.059C181.156 20.9785 181.294 20.9835 181.358 21.0771L191.542 36.1436C191.591 36.2163 191.574 36.3148 191.504 36.3678L187.904 39.0798C187.829 39.1364 187.722 39.1195 187.668 39.0427L181.026 29.5229L183.124 40.9398C183.141 41.032 183.078 41.12 182.985 41.1337L178.525 41.7864C178.438 41.7992 178.356 41.7418 178.339 41.6557L174.787 23.8202C174.765 23.7094 174.859 23.6078 174.972 23.6075C175.904 23.6052 177.45 23.0365 178.175 22.7209L178.175 22.7207L178.194 22.7128C178.928 22.4192 180.419 21.7201 181.076 21.059Z" fill="#D6CEC4"/>
<path d="M374.314 566.057C373.356 566.352 372.606 566.933 372.388 566.95C372.168 566.966 370.658 566.656 369.185 566.519C367.711 566.382 367.456 566.225 366.847 565.873C366.361 565.592 364.381 563.961 363.452 563.181C363.181 562.928 363.194 562.621 363.341 562.425C363.779 561.96 364.716 560.978 364.956 560.77C365.256 560.51 365.407 560.497 365.547 560.504C365.688 560.512 366.847 561.199 366.924 561.226C367.007 560.931 367.018 560.575 366.759 559.561C366.501 558.548 363.923 551.149 363.782 550.688C363.64 550.227 363.504 549.949 364.302 549.57C364.938 549.268 367.518 548.339 368.744 547.907L368.744 547.906C368.746 547.906 368.749 547.905 368.752 547.904C368.754 547.903 368.757 547.902 368.76 547.902L368.76 547.902C370.018 547.573 372.675 546.897 373.371 546.791C374.245 546.658 374.287 546.965 374.428 547.426C374.569 547.887 376.579 555.459 376.933 556.444C377.286 557.428 377.495 557.717 377.729 557.915C377.778 557.849 378.353 556.631 378.465 556.546C378.577 556.461 378.71 556.387 379.104 556.434C379.419 556.472 380.745 556.761 381.369 556.9C381.6 556.981 381.783 557.228 381.7 557.589C381.368 558.756 380.641 561.216 380.396 561.721C380.089 562.353 379.966 562.627 378.822 563.566C377.678 564.505 376.601 565.608 376.41 565.717C376.219 565.826 375.273 565.765 374.314 566.057Z" fill="#D6CEC4"/>
<path d="M204.83 12.9548C205.789 12.6593 206.538 12.0787 206.757 12.062C206.976 12.0454 208.486 12.356 209.96 12.4929C211.434 12.6297 211.689 12.787 212.297 13.1387C212.784 13.4201 214.764 15.0506 215.693 15.8308C215.964 16.0841 215.951 16.3908 215.804 16.5872C215.365 17.0521 214.429 18.0341 214.189 18.2421C213.889 18.5021 213.737 18.5149 213.597 18.5075C213.457 18.5 212.298 17.813 212.22 17.7861C212.138 18.0804 212.126 18.437 212.385 19.4506C212.644 20.4642 215.221 27.8627 215.363 28.3238C215.504 28.785 215.641 29.0625 214.843 29.4416C214.207 29.7436 211.627 30.6722 210.401 31.1045L210.401 31.1053C210.398 31.106 210.395 31.1067 210.393 31.1073C210.39 31.1083 210.388 31.1092 210.385 31.1102L210.385 31.1095C209.127 31.4384 206.469 32.1144 205.774 32.2206C204.9 32.3537 204.858 32.0472 204.717 31.5861C204.575 31.1249 202.565 23.5525 202.212 22.5679C201.858 21.5833 201.649 21.2943 201.416 21.0967C201.367 21.1624 200.792 22.381 200.679 22.4657C200.567 22.5505 200.435 22.6247 200.041 22.5773C199.726 22.5394 198.4 22.2509 197.776 22.1113C197.544 22.0309 197.362 21.7841 197.444 21.4226C197.777 20.2558 198.503 17.7959 198.749 17.2903C199.055 16.6582 199.179 16.385 200.323 15.4459C201.467 14.5068 202.544 13.4036 202.735 13.2945C202.925 13.1859 203.871 13.2469 204.83 12.9548Z" fill="#D6CEC4"/>
<path d="M343.62 573.96C343.526 574.023 343.392 573.991 343.348 573.887L336.298 557.123C336.264 557.043 336.3 556.949 336.379 556.911L340.439 554.953C340.523 554.912 340.625 554.95 340.663 555.036L345.321 565.668L345.49 554.061C345.491 553.968 345.57 553.894 345.664 553.898L350.166 554.128C350.254 554.132 350.323 554.205 350.323 554.292L350.327 572.478C350.327 572.591 350.216 572.673 350.105 572.651C349.19 572.471 347.563 572.727 346.79 572.896L346.79 572.896L346.77 572.9C345.993 573.045 344.394 573.439 343.62 573.96Z" fill="#E61717"/>
<path d="M235.532 5.05426C235.626 4.99095 235.76 5.02274 235.804 5.1269L242.854 21.8905C242.888 21.9714 242.853 22.0649 242.773 22.1031L238.714 24.0608C238.629 24.1016 238.527 24.0642 238.49 23.9783L233.831 13.3458L233.663 24.9527C233.661 25.0464 233.582 25.1204 233.488 25.1156L228.987 24.886C228.899 24.8815 228.83 24.8092 228.83 24.7214L228.825 6.5357C228.825 6.42273 228.936 6.34132 229.048 6.36313C229.962 6.5427 231.589 6.28648 232.362 6.11832L232.362 6.11816L232.382 6.11406C233.16 5.96935 234.758 5.57458 235.532 5.05426Z" fill="#E61717"/>
<path d="M318.747 577.276C317.749 577.379 316.901 577.802 316.683 577.776C316.465 577.749 315.045 577.15 313.626 576.728C312.207 576.307 311.987 576.103 311.459 575.639C311.037 575.268 309.413 573.283 308.654 572.336C308.438 572.035 308.51 571.737 308.693 571.573C309.213 571.202 310.324 570.422 310.6 570.265C310.944 570.068 311.095 570.085 311.231 570.12C311.367 570.155 312.371 571.055 312.441 571.096C312.579 570.823 312.66 570.476 312.604 569.431C312.548 568.387 311.463 560.628 311.415 560.148C311.366 559.668 311.286 559.369 312.143 559.153C312.825 558.981 315.537 558.573 316.824 558.388L316.824 558.388C316.826 558.387 316.829 558.387 316.832 558.387C316.835 558.387 316.837 558.386 316.84 558.386L316.84 558.387C318.138 558.309 320.876 558.165 321.58 558.196C322.462 558.236 322.444 558.545 322.493 559.025C322.541 559.505 323.035 567.324 323.19 568.358C323.345 569.393 323.494 569.717 323.684 569.956C323.745 569.902 324.547 568.819 324.673 568.757C324.8 568.696 324.944 568.649 325.321 568.773C325.623 568.871 326.867 569.413 327.452 569.671C327.663 569.795 327.794 570.073 327.643 570.412C327.089 571.491 325.897 573.762 325.557 574.21C325.133 574.77 324.959 575.014 323.654 575.712C322.348 576.41 321.077 577.282 320.868 577.352C320.661 577.421 319.745 577.177 318.747 577.276Z" fill="#D6CEC4"/>
<path d="M260.406 1.73923C261.403 1.63626 262.251 1.21303 262.469 1.23931C262.688 1.26576 264.108 1.86497 265.527 2.28664C266.946 2.70836 267.165 2.91243 267.693 3.376C268.115 3.74685 269.739 5.73227 270.498 6.6787C270.715 6.97995 270.642 7.27828 270.46 7.44218C269.939 7.81274 268.829 8.59305 268.553 8.7503C268.208 8.94681 268.057 8.92988 267.921 8.89522C267.785 8.86053 266.782 7.96056 266.711 7.91908C266.573 8.19164 266.492 8.53914 266.548 9.58376C266.604 10.6284 267.689 18.3876 267.738 18.8674C267.786 19.3472 267.867 19.6461 267.01 19.8623C266.327 20.0344 263.616 20.442 262.329 20.6267L262.329 20.6276C262.326 20.6277 262.323 20.6279 262.32 20.628C262.318 20.6284 262.315 20.6289 262.312 20.6293L262.312 20.6286C261.014 20.7058 258.276 20.8505 257.573 20.8189C256.69 20.779 256.708 20.4702 256.66 19.9903C256.611 19.5105 256.117 11.6915 255.962 10.6568C255.808 9.6222 255.659 9.29798 255.469 9.0587C255.408 9.11351 254.606 10.1965 254.479 10.2578C254.353 10.319 254.208 10.3659 253.831 10.2426C253.529 10.1439 252.285 9.60229 251.701 9.34375C251.489 9.21976 251.358 8.94208 251.509 8.60356C252.063 7.52403 253.256 5.25312 253.595 4.80508C254.019 4.24501 254.193 4.00103 255.499 3.30315C256.804 2.60533 258.075 1.73329 258.284 1.66356C258.492 1.59414 259.408 1.83854 260.406 1.73923Z" fill="#D6CEC4"/>
</g>
</svg>
