<svg width="580" height="580" viewBox="0 0 580 580" fill="none" xmlns="http://www.w3.org/2000/svg">
<g opacity="0.8">
<path d="M292.877 0.0145005C292.981 -0.0289364 293.107 0.0288232 293.129 0.139593L296.723 17.9667C296.74 18.0527 296.687 18.1373 296.601 18.1591L292.235 19.2748C292.144 19.2981 292.051 19.2412 292.031 19.1497L289.569 7.80563L287.107 19.1497C287.087 19.2412 286.995 19.2981 286.904 19.2748L282.537 18.1591C282.451 18.1373 282.398 18.0527 282.415 17.9667L286.009 0.139593C286.031 0.0288419 286.157 -0.0288948 286.262 0.0145005C287.123 0.371494 288.768 0.442239 289.559 0.430288L289.559 0.430146H289.579C290.37 0.442103 292.015 0.3715 292.877 0.0145005Z" fill="#D6CEC4"/>
<path d="M286.264 579.062C286.159 579.106 286.034 579.048 286.011 578.937L282.418 561.11C282.401 561.024 282.454 560.939 282.539 560.918L286.906 559.802C286.997 559.779 287.089 559.835 287.109 559.927L289.572 571.271L292.034 559.927C292.053 559.835 292.146 559.779 292.237 559.802L296.604 560.918C296.689 560.939 296.743 561.024 296.725 561.11L293.131 578.937C293.109 579.048 292.984 579.106 292.879 579.062C292.018 578.705 290.373 578.634 289.582 578.646L289.582 578.647L289.561 578.647C288.771 578.635 287.125 578.705 286.264 579.062Z" fill="#D6CEC4"/>
<path d="M317.889 1.68374C318.887 1.78011 319.803 1.533 320.011 1.60181C320.22 1.67093 321.493 2.53921 322.801 3.23318C324.108 3.9272 324.283 4.17068 324.709 4.72948C325.049 5.17652 326.249 7.4439 326.806 8.5218C326.958 8.85987 326.828 9.13793 326.617 9.26255C326.033 9.52281 324.79 10.0681 324.489 10.1677C324.112 10.2921 323.967 10.2457 323.841 10.1848C323.714 10.1238 322.909 9.04324 322.848 8.98862C322.658 9.22845 322.51 9.55312 322.359 10.5882C322.207 11.6233 321.736 19.4438 321.689 19.9237C321.642 20.4037 321.661 20.7125 320.778 20.755C320.075 20.7887 317.337 20.6519 316.038 20.5785L316.038 20.5793C316.036 20.5789 316.033 20.5785 316.03 20.5781C316.027 20.578 316.025 20.5778 316.022 20.5777L316.022 20.577C314.734 20.396 312.022 19.9963 311.339 19.8262C310.481 19.6125 310.56 19.3134 310.608 18.8335C310.655 18.3535 311.717 10.5912 311.77 9.54636C311.823 8.50159 311.741 8.15431 311.602 7.88217C311.531 7.92386 310.531 8.8268 310.395 8.86187C310.259 8.89693 310.108 8.91432 309.763 8.71882C309.486 8.56239 308.374 7.78536 307.852 7.41634C307.669 7.25297 307.596 6.95486 307.811 6.65297C308.567 5.7043 310.186 3.7141 310.607 3.34201C311.133 2.87689 311.352 2.67216 312.77 2.24626C314.187 1.8204 315.606 1.217 315.824 1.18991C316.042 1.16299 316.891 1.58372 317.889 1.68374Z" fill="#D6CEC4"/>
<path d="M261.248 577.393C260.249 577.297 259.334 577.544 259.126 577.475C258.917 577.406 257.643 576.537 256.336 575.843C255.029 575.149 254.854 574.906 254.428 574.347C254.087 573.9 252.888 571.633 252.331 570.555C252.179 570.217 252.309 569.939 252.52 569.814C253.104 569.554 254.346 569.009 254.648 568.909C255.025 568.785 255.17 568.831 255.296 568.892C255.423 568.953 256.228 570.033 256.289 570.088C256.478 569.848 256.626 569.524 256.778 568.488C256.929 567.453 257.401 559.633 257.448 559.153C257.495 558.673 257.476 558.364 258.358 558.322C259.062 558.288 261.8 558.425 263.098 558.498L263.098 558.497C263.101 558.498 263.104 558.498 263.107 558.499C263.109 558.499 263.112 558.499 263.115 558.499L263.115 558.5C264.402 558.681 267.115 559.08 267.798 559.25C268.656 559.464 268.576 559.763 268.529 560.243C268.482 560.723 267.42 568.485 267.367 569.53C267.314 570.575 267.396 570.922 267.535 571.194C267.605 571.153 268.606 570.25 268.742 570.215C268.878 570.18 269.029 570.162 269.374 570.358C269.65 570.514 270.763 571.291 271.285 571.66C271.468 571.824 271.541 572.122 271.326 572.424C270.569 573.372 268.951 575.363 268.53 575.735C268.004 576.2 267.785 576.404 266.367 576.83C264.949 577.256 263.531 577.86 263.312 577.887C263.095 577.914 262.245 577.493 261.248 577.393Z" fill="#D6CEC4"/>
<path d="M349.236 6.2106C349.347 6.18842 349.459 6.26953 349.459 6.38253L349.509 24.5682C349.51 24.6559 349.441 24.7285 349.353 24.7332L344.852 24.9765C344.758 24.9816 344.679 24.9078 344.677 24.8141L344.473 13.2078L339.847 23.8544C339.81 23.9404 339.708 23.9781 339.624 23.9376L335.558 21.9922C335.478 21.9542 335.443 21.8608 335.476 21.7798L342.475 4.99492C342.519 4.89064 342.653 4.85845 342.747 4.92143C343.522 5.43938 345.122 5.82944 345.9 5.9718L345.9 5.97169L345.921 5.97572C346.694 6.14152 348.321 6.39295 349.236 6.2106Z" fill="#D6CEC4"/>
<path d="M229.901 572.867C229.79 572.889 229.678 572.808 229.678 572.695L229.627 554.509C229.627 554.421 229.696 554.349 229.784 554.344L234.284 554.101C234.378 554.096 234.458 554.17 234.459 554.263L234.664 565.87L239.289 555.223C239.327 555.137 239.428 555.099 239.513 555.14L243.579 557.085C243.658 557.123 243.694 557.217 243.66 557.298L236.661 574.082C236.618 574.187 236.484 574.219 236.389 574.156C235.614 573.638 234.014 573.248 233.236 573.106L233.236 573.106L233.216 573.102C232.443 572.936 230.815 572.684 229.901 572.867Z" fill="#D6CEC4"/>
<path d="M373.445 12.7224C374.406 13.0114 375.351 12.9474 375.542 13.0555C375.733 13.164 376.814 14.2638 377.961 15.1993C379.108 16.1348 379.232 16.4077 379.541 17.0388C379.787 17.5436 380.522 20.0012 380.858 21.167C380.942 21.5283 380.76 21.7757 380.528 21.8567C379.905 21.9983 378.58 22.2909 378.265 22.3298C377.871 22.3784 377.738 22.3047 377.626 22.2203C377.514 22.1359 376.934 20.919 376.885 20.8536C376.653 21.0519 376.444 21.3415 376.094 22.3272C375.743 23.3129 373.757 30.8916 373.617 31.3531C373.477 31.8147 373.436 32.1213 372.562 31.991C371.866 31.887 369.207 31.2191 367.948 30.8941L367.947 30.895C367.945 30.894 367.942 30.8931 367.94 30.8921C367.937 30.8915 367.934 30.8908 367.932 30.8902L367.932 30.8895C366.704 30.461 364.121 29.5403 363.484 29.2403C362.685 28.8636 362.821 28.5857 362.961 28.1241C363.101 27.6626 365.655 20.2561 365.911 19.2416C366.167 18.2272 366.154 17.8707 366.071 17.5767C365.993 17.6038 364.836 18.2944 364.696 18.3023C364.556 18.3102 364.404 18.2979 364.104 18.0388C363.863 17.8315 362.923 16.8525 362.483 16.3889C362.336 16.193 362.322 15.8863 362.592 15.6322C363.519 14.8491 365.494 13.2125 365.979 12.9296C366.586 12.576 366.841 12.4178 368.314 12.2764C369.788 12.135 371.297 11.8196 371.516 11.8356C371.735 11.8516 372.486 12.4298 373.445 12.7224Z" fill="#D6CEC4"/>
<path d="M205.691 566.354C204.731 566.065 203.785 566.129 203.595 566.021C203.403 565.912 202.323 564.812 201.176 563.877C200.029 562.941 199.905 562.668 199.596 562.037C199.349 561.533 198.615 559.075 198.279 557.909C198.195 557.548 198.377 557.301 198.608 557.219C199.232 557.078 200.557 556.785 200.872 556.746C201.266 556.698 201.399 556.772 201.511 556.856C201.623 556.94 202.202 558.157 202.252 558.223C202.484 558.024 202.692 557.735 203.043 556.749C203.393 555.763 205.38 548.185 205.519 547.723C205.659 547.261 205.7 546.955 206.574 547.085C207.271 547.189 209.93 547.857 211.189 548.182L211.189 548.181C211.192 548.182 211.195 548.183 211.197 548.184C211.2 548.185 211.202 548.185 211.205 548.186L211.205 548.187C212.433 548.615 215.015 549.536 215.652 549.836C216.452 550.213 216.316 550.49 216.176 550.952C216.036 551.414 213.482 558.82 213.226 559.835C212.97 560.849 212.983 561.206 213.066 561.5C213.143 561.472 214.301 560.782 214.441 560.774C214.581 560.766 214.733 560.778 215.033 561.037C215.274 561.245 216.214 562.224 216.653 562.687C216.801 562.883 216.815 563.19 216.545 563.444C215.618 564.227 213.643 565.864 213.157 566.147C212.55 566.5 212.296 566.658 210.822 566.8C209.349 566.941 207.84 567.257 207.621 567.241C207.402 567.225 206.651 566.646 205.691 566.354Z" fill="#D6CEC4"/>
<path d="M403.307 23.2716C403.42 23.2715 403.514 23.3728 403.492 23.4837L399.997 41.3305C399.981 41.4166 399.899 41.4744 399.812 41.4618L395.35 40.8234C395.257 40.81 395.193 40.7222 395.21 40.63L397.272 29.2064L390.66 38.7474C390.606 38.8245 390.499 38.8416 390.424 38.7853L386.815 36.0849C386.745 36.0321 386.728 35.9336 386.777 35.8607L396.913 20.7617C396.976 20.6679 397.114 20.6625 397.194 20.7426C397.853 21.4017 399.347 22.0961 400.082 22.3873L400.082 22.3872L400.101 22.3951C400.827 22.7084 402.374 23.2722 403.307 23.2716Z" fill="#D6CEC4"/>
<path d="M175.822 555.804C175.709 555.804 175.615 555.703 175.637 555.592L179.132 537.745C179.148 537.659 179.23 537.601 179.317 537.614L183.779 538.252C183.872 538.265 183.935 538.353 183.919 538.445L181.857 549.869L188.469 540.328C188.522 540.251 188.63 540.234 188.705 540.29L192.313 542.991C192.384 543.043 192.401 543.142 192.352 543.215L182.216 558.314C182.153 558.408 182.015 558.413 181.935 558.333C181.276 557.674 179.782 556.979 179.047 556.688L179.047 556.688L179.028 556.68C178.302 556.367 176.754 555.803 175.822 555.804Z" fill="#D6CEC4"/>
<path d="M425.78 34.3759C426.665 34.8466 427.605 34.9681 427.771 35.1113C427.938 35.255 428.783 36.5443 429.726 37.6853C430.669 38.8265 430.737 39.1184 430.917 39.7975C431.061 40.3407 431.302 42.8943 431.405 44.1033C431.416 44.474 431.19 44.6811 430.947 44.7155C430.308 44.7329 428.951 44.7617 428.634 44.7384C428.239 44.7093 428.123 44.6111 428.029 44.5064C427.936 44.4018 427.604 43.0954 427.569 43.0216C427.302 43.1708 427.041 43.4142 426.506 44.3127C425.97 45.2113 422.545 52.2575 422.318 52.683C422.09 53.1084 421.99 53.4012 421.158 53.103C420.496 52.8653 418.017 51.6919 416.846 51.1278L416.846 51.1286C416.843 51.1272 416.841 51.1257 416.839 51.1243C416.836 51.1231 416.834 51.1219 416.831 51.1208L416.831 51.1201C415.711 50.4607 413.357 49.0542 412.791 48.6359C412.08 48.1106 412.268 47.8646 412.495 47.4391C412.722 47.0136 416.671 40.247 417.119 39.3018C417.568 38.3567 417.625 38.0045 417.6 37.6999C417.519 37.7114 416.25 38.1633 416.111 38.1437C415.971 38.1241 415.825 38.0825 415.581 37.7698C415.385 37.5196 414.654 36.3763 414.313 35.8358C414.207 35.615 414.253 35.3114 414.567 35.1148C415.629 34.5273 417.885 33.3069 418.416 33.1241C419.081 32.8956 419.361 32.7901 420.834 32.9386C422.307 33.087 423.848 33.0717 424.06 33.1302C424.272 33.1885 424.896 33.902 425.78 34.3759Z" fill="#D6CEC4"/>
<path d="M153.345 544.698C152.46 544.228 151.52 544.106 151.354 543.963C151.187 543.819 150.342 542.53 149.399 541.389C148.456 540.248 148.388 539.956 148.208 539.277C148.064 538.733 147.823 536.18 147.72 534.971C147.709 534.6 147.935 534.393 148.178 534.359C148.817 534.341 150.174 534.313 150.491 534.336C150.886 534.365 151.002 534.463 151.096 534.568C151.189 534.672 151.521 535.979 151.556 536.053C151.823 535.903 152.084 535.66 152.619 534.761C153.155 533.863 156.58 526.817 156.807 526.391C157.035 525.966 157.135 525.673 157.967 525.971C158.629 526.209 161.108 527.382 162.279 527.946L162.279 527.946C162.282 527.947 162.284 527.948 162.286 527.95C162.289 527.951 162.291 527.952 162.294 527.953L162.294 527.954C163.414 528.614 165.768 530.02 166.334 530.438C167.045 530.964 166.857 531.21 166.63 531.635C166.403 532.061 162.454 538.827 162.006 539.772C161.557 540.718 161.5 541.07 161.525 541.374C161.606 541.363 162.875 540.911 163.014 540.93C163.154 540.95 163.3 540.992 163.544 541.304C163.74 541.555 164.471 542.698 164.812 543.238C164.918 543.459 164.872 543.763 164.558 543.959C163.496 544.547 161.24 545.767 160.709 545.95C160.044 546.179 159.764 546.284 158.291 546.136C156.818 545.987 155.277 546.002 155.065 545.944C154.853 545.886 154.229 545.172 153.345 544.698Z" fill="#D6CEC4"/>
<path d="M453.015 50.5428C453.126 50.5648 453.198 50.6826 453.155 50.7871L446.25 67.6106C446.216 67.6918 446.125 67.7325 446.042 67.7032L441.79 66.2075C441.702 66.1763 441.656 66.0777 441.691 65.9905L445.939 55.1878L437.594 63.2573C437.527 63.3224 437.419 63.3184 437.356 63.2485L434.343 59.8965C434.284 59.8311 434.286 59.7311 434.349 59.6692L447.233 46.8351C447.313 46.7553 447.449 46.7769 447.512 46.8712C448.03 47.646 449.36 48.6182 450.024 49.0471L450.024 49.047L450.042 49.0585C450.693 49.5073 452.1 50.3618 453.015 50.5428Z" fill="#D6CEC4"/>
<path d="M126.11 528.531C125.999 528.509 125.927 528.391 125.97 528.286L132.875 511.463C132.909 511.382 133 511.341 133.083 511.37L137.335 512.866C137.423 512.897 137.469 512.996 137.434 513.083L133.186 523.886L141.531 515.816C141.598 515.751 141.706 515.755 141.769 515.825L144.782 519.177C144.841 519.242 144.839 519.342 144.776 519.404L131.892 532.238C131.812 532.318 131.676 532.297 131.613 532.202C131.095 531.427 129.765 530.455 129.101 530.026L129.101 530.026L129.083 530.015C128.432 529.566 127.025 528.712 126.11 528.531Z" fill="#D6CEC4"/>
<path d="M472.891 65.8137C473.668 66.4479 474.566 66.7503 474.701 66.9231C474.837 67.0965 475.414 68.5257 476.116 69.8287C476.819 71.1317 476.829 71.4313 476.873 72.1324C476.908 72.6933 476.647 75.245 476.512 76.4508C476.451 76.8166 476.189 76.9756 475.944 76.9621C475.314 76.8546 473.978 76.6184 473.672 76.5338C473.289 76.4282 473.194 76.3092 473.123 76.1883C473.052 76.0674 472.981 74.7215 472.961 74.6423C472.67 74.7366 472.367 74.9246 471.666 75.7014C470.966 76.4783 466.233 82.7219 465.927 83.0949C465.622 83.468 465.466 83.7356 464.709 83.281C464.105 82.9188 461.903 81.2849 460.864 80.5033L460.863 80.504C460.861 80.5021 460.859 80.5002 460.857 80.4984C460.855 80.4967 460.853 80.4951 460.851 80.4935L460.851 80.4929C459.881 79.6277 457.846 77.7895 457.372 77.2688C456.777 76.6152 457.009 76.4103 457.315 76.0373C457.621 75.6643 462.813 69.7969 463.437 68.9573C464.061 68.1177 464.185 67.7834 464.221 67.4799C464.139 67.4754 462.806 67.6712 462.673 67.6248C462.54 67.5785 462.405 67.5092 462.226 67.1549C462.083 66.8713 461.589 65.6075 461.36 65.0109C461.299 64.7736 461.403 64.4848 461.75 64.3532C462.905 63.9839 465.356 63.2266 465.913 63.1509C466.609 63.0562 466.905 63.0074 468.32 63.44C469.736 63.8727 471.251 64.1581 471.447 64.2568C471.643 64.3551 472.116 65.1766 472.891 65.8137Z" fill="#D6CEC4"/>
<path d="M106.226 513.256C105.449 512.622 104.551 512.319 104.416 512.147C104.281 511.973 103.703 510.544 103.001 509.241C102.298 507.938 102.288 507.638 102.244 506.937C102.209 506.377 102.47 503.825 102.605 502.619C102.666 502.253 102.928 502.094 103.173 502.108C103.803 502.215 105.14 502.451 105.446 502.536C105.828 502.642 105.923 502.761 105.994 502.881C106.066 503.002 106.136 504.348 106.156 504.428C106.447 504.333 106.75 504.145 107.451 503.368C108.151 502.591 112.884 496.348 113.19 495.975C113.495 495.602 113.651 495.334 114.409 495.789C115.012 496.151 117.214 497.785 118.253 498.567L118.254 498.566C118.256 498.568 118.258 498.57 118.26 498.571C118.262 498.573 118.264 498.575 118.267 498.576L118.266 498.577C119.237 499.442 121.271 501.28 121.745 501.801C122.34 502.455 122.108 502.659 121.802 503.033C121.497 503.406 116.305 509.273 115.681 510.113C115.057 510.952 114.932 511.286 114.896 511.59C114.978 511.594 116.312 511.399 116.444 511.445C116.577 511.491 116.712 511.561 116.891 511.915C117.034 512.198 117.528 513.462 117.757 514.059C117.819 514.296 117.714 514.585 117.368 514.717C116.212 515.086 113.761 515.843 113.204 515.919C112.508 516.014 112.212 516.062 110.797 515.63C109.381 515.197 107.866 514.912 107.67 514.813C107.474 514.715 107.001 513.893 106.226 513.256Z" fill="#D6CEC4"/>
<path d="M496.448 86.9769C496.553 87.0202 496.601 87.1497 496.538 87.2439L486.486 102.399C486.438 102.472 486.34 102.494 486.264 102.449L482.386 100.154C482.305 100.106 482.28 100 482.33 99.9214L488.603 90.1538L478.846 96.4423C478.767 96.4931 478.661 96.468 478.613 96.3872L476.311 92.5123C476.266 92.4366 476.288 92.339 476.361 92.2904L491.5 82.2134C491.594 82.1508 491.723 82.1985 491.767 82.3033C492.124 83.1642 493.238 84.3768 493.806 84.927L493.806 84.927L493.821 84.9416C494.372 85.5086 495.586 86.6212 496.448 86.9769Z" fill="#D6CEC4"/>
<path d="M82.6613 492.089C82.5565 492.045 82.5085 491.916 82.5709 491.822L92.6231 476.667C92.6716 476.593 92.7691 476.571 92.8449 476.616L96.7235 478.912C96.8044 478.96 96.8296 479.065 96.779 479.144L90.5066 488.912L100.264 482.623C100.343 482.572 100.448 482.597 100.496 482.678L102.798 486.553C102.843 486.629 102.821 486.726 102.748 486.775L87.6097 496.852C87.5157 496.915 87.3861 496.867 87.3426 496.762C86.9855 495.901 85.8711 494.689 85.3031 494.138L85.3029 494.138L85.2883 494.124C84.7372 493.557 83.5229 492.444 82.6613 492.089Z" fill="#D6CEC4"/>
<path d="M512.974 105.83C513.612 106.603 514.434 107.075 514.533 107.271C514.632 107.467 514.92 108.981 515.355 110.396C515.79 111.811 515.741 112.107 515.648 112.803C515.573 113.36 514.82 115.812 514.452 116.969C514.321 117.315 514.033 117.42 513.795 117.359C513.198 117.131 511.934 116.639 511.65 116.496C511.295 116.318 511.226 116.183 511.179 116.051C511.133 115.918 511.326 114.584 511.322 114.503C511.018 114.539 510.684 114.664 509.845 115.289C509.007 115.915 503.148 121.116 502.776 121.422C502.403 121.729 502.199 121.961 501.544 121.367C501.022 120.894 499.181 118.863 498.314 117.894L498.314 117.894C498.312 117.892 498.31 117.89 498.309 117.888C498.307 117.886 498.305 117.883 498.303 117.881L498.304 117.881C497.52 116.843 495.883 114.644 495.52 114.041C495.064 113.284 495.331 113.128 495.704 112.822C496.076 112.515 502.312 107.772 503.088 107.07C503.863 106.369 504.051 106.065 504.145 105.774C504.065 105.754 502.72 105.686 502.598 105.615C502.477 105.543 502.358 105.449 502.252 105.067C502.167 104.761 501.929 103.425 501.82 102.795C501.806 102.55 501.965 102.287 502.33 102.226C503.536 102.089 506.087 101.824 506.648 101.858C507.349 101.901 507.649 101.911 508.953 102.611C510.257 103.311 511.687 103.886 511.861 104.021C512.034 104.156 512.338 105.054 512.974 105.83Z" fill="#D6CEC4"/>
<path d="M66.1398 473.234C65.5014 472.46 64.6792 471.989 64.5805 471.793C64.4815 471.596 64.1936 470.082 63.7586 468.667C63.3237 467.252 63.3719 466.956 63.4655 466.26C63.5403 465.703 64.2936 463.251 64.661 462.095C64.792 461.748 65.0806 461.643 65.318 461.704C65.9149 461.932 67.1797 462.424 67.4635 462.567C67.818 462.745 67.8876 462.88 67.9341 463.013C67.9806 463.145 67.7871 464.479 67.7917 464.561C68.0952 464.525 68.4292 464.4 69.2678 463.774C70.1065 463.149 75.9652 457.947 76.3378 457.641C76.7103 457.335 76.9148 457.102 77.5694 457.696C78.0908 458.169 79.9323 460.201 80.7991 461.17L80.7998 461.169C80.8014 461.171 80.803 461.174 80.8047 461.176C80.8065 461.178 80.8084 461.18 80.8103 461.182L80.8097 461.182C81.593 462.22 83.2304 464.42 83.5936 465.023C84.0495 465.78 83.7821 465.935 83.4096 466.242C83.0371 466.548 76.8013 471.291 76.0255 471.993C75.2498 472.695 75.0624 472.999 74.9685 473.289C75.0478 473.31 76.3938 473.377 76.5148 473.449C76.6359 473.52 76.7549 473.614 76.8613 473.997C76.9463 474.303 77.1847 475.639 77.2932 476.268C77.3071 476.513 77.1485 476.776 76.7828 476.838C75.5773 476.975 73.026 477.24 72.4651 477.205C71.7639 477.163 71.4643 477.153 70.1601 476.453C68.856 475.752 67.4258 475.177 67.2522 475.042C67.0792 474.908 66.7753 474.01 66.1398 473.234Z" fill="#D6CEC4"/>
<path d="M531.957 131.18C532.051 131.243 532.073 131.379 531.994 131.459L519.181 144.365C519.119 144.427 519.019 144.43 518.953 144.371L515.597 141.364C515.527 141.301 515.522 141.192 515.587 141.125L523.643 132.767L512.847 137.033C512.76 137.068 512.662 137.023 512.63 136.934L511.128 132.685C511.098 132.602 511.139 132.51 511.22 132.477L528.032 125.543C528.136 125.5 528.254 125.572 528.276 125.684C528.459 126.598 529.316 128.004 529.765 128.655L529.766 128.655L529.777 128.672C530.207 129.335 531.181 130.663 531.957 131.18Z" fill="#D6CEC4"/>
<path d="M47.1523 447.881C47.0579 447.818 47.036 447.682 47.1156 447.602L59.9286 434.696C59.9904 434.634 60.0903 434.631 60.156 434.69L63.5128 437.697C63.5828 437.76 63.587 437.869 63.522 437.936L55.4663 446.294L66.2619 442.028C66.3491 441.993 66.4477 442.038 66.4791 442.127L67.9819 446.376C68.0113 446.459 67.9707 446.551 67.8896 446.584L51.0774 453.518C50.973 453.561 50.8552 453.489 50.833 453.377C50.6505 452.463 49.7938 451.057 49.3439 450.407L49.3437 450.406L49.3322 450.389C48.9022 449.726 47.928 448.398 47.1523 447.881Z" fill="#D6CEC4"/>
<path d="M544.49 152.891C544.965 153.774 545.68 154.397 545.739 154.608C545.797 154.82 545.785 156.362 545.936 157.834C546.086 159.307 545.981 159.587 545.754 160.252C545.572 160.784 544.355 163.042 543.77 164.104C543.574 164.419 543.27 164.466 543.049 164.36C542.508 164.019 541.364 163.29 541.113 163.095C540.8 162.851 540.758 162.705 540.738 162.566C540.718 162.427 541.168 161.157 541.18 161.076C540.875 161.052 540.523 161.109 539.578 161.559C538.634 162.009 531.874 165.969 531.449 166.197C531.024 166.425 530.778 166.613 530.252 165.903C529.832 165.338 528.422 162.986 527.761 161.867L527.76 161.867C527.759 161.865 527.758 161.862 527.756 161.86C527.755 161.857 527.754 161.855 527.752 161.852L527.753 161.852C527.187 160.682 526.009 158.205 525.771 157.543C525.471 156.712 525.764 156.611 526.189 156.383C526.614 156.155 533.654 152.719 534.552 152.181C535.45 151.644 535.693 151.383 535.842 151.116C535.768 151.08 534.461 150.752 534.356 150.658C534.251 150.565 534.153 150.449 534.123 150.053C534.099 149.736 534.126 148.38 534.142 147.741C534.176 147.498 534.383 147.271 534.753 147.282C535.963 147.383 538.517 147.62 539.06 147.763C539.74 147.941 540.031 148.009 541.174 148.95C542.317 149.891 543.607 150.734 543.751 150.9C543.895 151.066 544.018 152.006 544.49 152.891Z" fill="#D6CEC4"/>
<path d="M34.6193 426.167C34.1439 425.284 33.4294 424.661 33.3707 424.45C33.3119 424.238 33.3247 422.697 33.1738 421.224C33.0229 419.752 33.1279 419.471 33.3554 418.806C33.5373 418.274 34.754 416.016 35.3397 414.954C35.5358 414.639 35.8393 414.592 36.0603 414.699C36.6013 415.039 37.7459 415.768 37.9964 415.963C38.3095 416.207 38.3514 416.353 38.3712 416.492C38.391 416.631 37.9412 417.901 37.9298 417.983C38.2345 418.006 38.5865 417.949 39.5309 417.499C40.4754 417.049 47.2355 413.089 47.6606 412.861C48.0857 412.633 48.3315 412.445 48.8579 413.155C49.2771 413.72 50.6873 416.072 51.3486 417.192L51.3494 417.191C51.3506 417.194 51.3518 417.196 51.3529 417.199C51.3544 417.201 51.3558 417.203 51.3572 417.206L51.3566 417.206C51.9226 418.377 53.0999 420.853 53.3387 421.515C53.6383 422.347 53.3457 422.447 52.9206 422.675C52.4955 422.903 45.455 426.34 44.5573 426.877C43.6597 427.414 43.4167 427.675 43.2679 427.942C43.3418 427.978 44.6487 428.307 44.7535 428.4C44.8583 428.494 44.9568 428.609 44.9865 429.005C45.0103 429.322 44.9837 430.678 44.9674 431.317C44.9334 431.56 44.7266 431.787 44.3559 431.776C43.1468 431.676 40.5928 431.438 40.0493 431.296C39.3699 431.117 39.0779 431.049 37.9352 430.108C36.7926 429.167 35.5019 428.324 35.3579 428.158C35.2145 427.992 35.0914 427.052 34.6193 426.167Z" fill="#D6CEC4"/>
<path d="M558.167 181.454C558.247 181.534 558.242 181.672 558.149 181.735L543.066 191.896C542.993 191.945 542.895 191.929 542.842 191.858L540.136 188.254C540.079 188.179 540.096 188.072 540.173 188.018L549.703 181.39L538.283 183.471C538.191 183.488 538.103 183.424 538.09 183.331L537.444 178.871C537.431 178.783 537.489 178.702 537.575 178.685L555.416 175.161C555.527 175.139 555.628 175.232 555.628 175.346C555.629 176.278 556.195 177.824 556.51 178.55L556.51 178.55L556.518 178.569C556.81 179.304 557.507 180.796 558.167 181.454Z" fill="#D6CEC4"/>
<path d="M20.9344 397.6C20.8541 397.52 20.8592 397.381 20.9529 397.318L36.0353 387.157C36.1081 387.108 36.2067 387.125 36.2595 387.196L38.9659 390.8C39.0223 390.875 39.0053 390.982 38.9284 391.036L29.3983 397.663L40.8184 395.583C40.9106 395.566 40.9985 395.629 41.0121 395.722L41.6579 400.183C41.6705 400.27 41.6129 400.352 41.5268 400.369L23.6858 403.893C23.5749 403.915 23.4735 403.821 23.4734 403.708C23.4725 402.776 22.9063 401.229 22.5918 400.504L22.5916 400.504L22.5837 400.485C22.2913 399.75 21.5945 398.258 20.9344 397.6Z" fill="#D6CEC4"/>
<path d="M566.229 205.191C566.523 206.15 567.102 206.9 567.119 207.119C567.135 207.338 566.822 208.848 566.683 210.321C566.544 211.795 566.386 212.05 566.034 212.658C565.752 213.144 564.118 215.121 563.337 216.049C563.083 216.32 562.776 216.306 562.58 216.159C562.116 215.72 561.135 214.782 560.928 214.542C560.668 214.241 560.655 214.09 560.663 213.95C560.671 213.81 561.36 212.651 561.387 212.574C561.092 212.491 560.736 212.479 559.722 212.736C558.708 212.994 551.306 215.56 550.844 215.701C550.383 215.841 550.105 215.978 549.727 215.179C549.426 214.543 548.501 211.961 548.071 210.734L548.07 210.735C548.069 210.732 548.069 210.729 548.068 210.727C548.067 210.724 548.066 210.721 548.065 210.719L548.066 210.719C547.739 209.46 547.067 206.802 546.962 206.106C546.83 205.232 547.136 205.19 547.598 205.05C548.059 204.909 555.634 202.91 556.62 202.558C557.605 202.206 557.894 201.997 558.092 201.765C558.026 201.716 556.809 201.138 556.724 201.026C556.639 200.914 556.565 200.781 556.613 200.387C556.652 200.072 556.942 198.747 557.083 198.123C557.163 197.892 557.41 197.709 557.772 197.792C558.938 198.127 561.397 198.857 561.902 199.103C562.534 199.411 562.807 199.534 563.744 200.68C564.682 201.825 565.783 202.904 565.892 203.095C566 203.285 565.938 204.231 566.229 205.191Z" fill="#D6CEC4"/>
<path d="M12.8768 373.86C12.5826 372.901 12.0032 372.151 11.9868 371.932C11.9705 371.713 12.2834 370.203 12.4224 368.73C12.5614 367.256 12.7191 367.001 13.0717 366.393C13.3538 365.907 14.9872 363.93 15.7687 363.001C16.0224 362.731 16.3292 362.745 16.5253 362.892C16.9896 363.331 17.9701 364.269 18.1778 364.509C18.4374 364.809 18.45 364.961 18.4423 365.101C18.4347 365.241 17.7459 366.4 17.7189 366.477C18.0131 366.56 18.3696 366.572 19.3836 366.315C20.3977 366.057 27.7999 363.491 28.2613 363.35C28.7226 363.209 29.0003 363.073 29.3783 363.872C29.6793 364.508 30.6042 367.089 31.0346 368.316L31.0355 368.316C31.0361 368.319 31.0368 368.321 31.0375 368.324C31.0384 368.327 31.0394 368.329 31.0403 368.332L31.0396 368.332C31.3667 369.59 32.0388 372.249 32.1439 372.945C32.2757 373.819 31.9691 373.86 31.5078 374.001C31.0465 374.142 23.4711 376.14 22.4859 376.492C21.5008 376.844 21.2116 377.053 21.0136 377.286C21.0792 377.335 22.2969 377.912 22.3815 378.025C22.4661 378.137 22.5401 378.269 22.4922 378.663C22.4538 378.979 22.1633 380.304 22.0228 380.928C21.9421 381.159 21.695 381.342 21.3336 381.259C20.1673 380.924 17.7085 380.194 17.2032 379.948C16.5716 379.64 16.2986 379.517 15.3611 378.371C14.4238 377.225 13.3221 376.147 13.2133 375.956C13.105 375.765 13.1674 374.819 12.8768 373.86Z" fill="#D6CEC4"/>
<path d="M574.079 235.873C574.142 235.967 574.11 236.102 574.006 236.145L557.233 243.172C557.152 243.206 557.058 243.17 557.02 243.091L555.068 239.028C555.028 238.944 555.065 238.842 555.151 238.804L565.79 234.161L554.183 233.976C554.09 233.975 554.016 233.895 554.021 233.801L554.257 229.3C554.261 229.212 554.334 229.143 554.421 229.144L572.607 229.164C572.72 229.164 572.801 229.276 572.779 229.387C572.598 230.302 572.852 231.929 573.02 232.702L573.02 232.702L573.024 232.722C573.167 233.5 573.56 235.099 574.079 235.873Z" fill="#D6CEC4"/>
<path d="M5.02629 343.174C4.96311 343.08 4.99508 342.945 5.0993 342.901L21.8727 335.875C21.9536 335.841 22.047 335.877 22.0852 335.956L24.0372 340.018C24.0779 340.103 24.0404 340.205 23.9545 340.242L13.3154 344.886L24.9221 345.071C25.0158 345.072 25.0897 345.152 25.0848 345.246L24.8489 349.746C24.8443 349.834 24.7719 349.903 24.6841 349.903L6.49841 349.883C6.38543 349.883 6.30418 349.771 6.32614 349.66C6.50698 348.745 6.25302 347.118 6.08594 346.345L6.08578 346.345L6.08171 346.325C5.93808 345.547 5.54553 343.948 5.02629 343.174Z" fill="#D6CEC4"/>
<path d="M577.359 260.725C577.46 261.723 577.882 262.572 577.856 262.789C577.829 263.008 577.228 264.427 576.804 265.846C576.381 267.264 576.177 267.483 575.712 268.011C575.341 268.432 573.353 270.054 572.406 270.812C572.104 271.028 571.806 270.955 571.643 270.772C571.273 270.251 570.494 269.14 570.337 268.863C570.141 268.518 570.158 268.367 570.193 268.231C570.228 268.095 571.129 267.093 571.171 267.023C570.898 266.884 570.551 266.803 569.506 266.858C568.461 266.912 560.701 267.987 560.221 268.035C559.741 268.083 559.442 268.163 559.227 267.306C559.056 266.623 558.652 263.911 558.469 262.624L558.468 262.624C558.468 262.621 558.467 262.618 558.467 262.615C558.467 262.613 558.466 262.61 558.466 262.607L558.467 262.607C558.391 261.309 558.25 258.571 558.283 257.868C558.324 256.985 558.632 257.004 559.112 256.956C559.592 256.908 567.412 256.424 568.447 256.27C569.482 256.117 569.806 255.969 570.046 255.779C569.991 255.718 568.909 254.914 568.848 254.788C568.787 254.661 568.74 254.517 568.864 254.14C568.963 253.838 569.506 252.595 569.765 252.01C569.89 251.799 570.168 251.668 570.506 251.82C571.585 252.375 573.854 253.571 574.302 253.911C574.861 254.336 575.105 254.51 575.801 255.816C576.497 257.123 577.368 258.395 577.437 258.604C577.506 258.812 577.261 259.727 577.359 260.725Z" fill="#D6CEC4"/>
<path d="M1.7469 318.318C1.64523 317.32 1.22311 316.471 1.24967 316.253C1.2764 316.035 1.87747 314.616 2.30099 313.197C2.72455 311.779 2.92891 311.56 3.39318 311.032C3.76458 310.611 5.75211 308.989 6.69953 308.231C7.00106 308.015 7.29929 308.088 7.46296 308.271C7.83284 308.792 8.61171 309.903 8.7686 310.18C8.96465 310.525 8.94753 310.676 8.91268 310.812C8.87782 310.948 7.97654 311.95 7.93497 312.02C8.20735 312.159 8.55475 312.24 9.59943 312.185C10.6442 312.13 18.4047 311.056 18.8846 311.008C19.3645 310.96 19.6635 310.88 19.8785 311.737C20.0498 312.42 20.4538 315.132 20.6369 316.419L20.6378 316.419C20.6379 316.422 20.638 316.425 20.6382 316.428C20.6386 316.43 20.639 316.433 20.6394 316.436L20.6387 316.436C20.7142 317.734 20.8554 320.472 20.8228 321.175C20.7818 322.058 20.473 322.039 19.9931 322.087C19.5132 322.135 11.6936 322.619 10.6587 322.773C9.62386 322.926 9.29945 323.074 9.05992 323.264C9.11465 323.325 10.1966 324.129 10.2577 324.255C10.3188 324.382 10.3655 324.526 10.2417 324.903C10.1426 325.205 9.59936 326.448 9.34006 327.033C9.21579 327.244 8.93794 327.375 8.59962 327.223C7.52082 326.668 5.25145 325.472 4.80386 325.132C4.24435 324.707 4.00059 324.533 3.30442 323.227C2.6083 321.92 1.73792 320.648 1.66846 320.439C1.59931 320.231 1.84491 319.316 1.7469 318.318Z" fill="#D6CEC4"/>
<path d="M579.081 292.349C579.124 292.454 579.067 292.58 578.956 292.602L561.135 296.225C561.049 296.243 560.964 296.19 560.942 296.104L559.819 291.739C559.796 291.648 559.853 291.556 559.944 291.536L571.284 289.055L559.936 286.611C559.845 286.592 559.788 286.499 559.811 286.408L560.919 282.04C560.941 281.954 561.025 281.901 561.111 281.918L578.944 285.482C579.055 285.504 579.113 285.63 579.07 285.735C578.714 286.596 578.646 288.242 578.66 289.032L578.66 289.032L578.66 289.053C578.649 289.844 578.722 291.489 579.081 292.349Z" fill="#D6CEC4"/>
<path d="M0.0246196 286.69C-0.0189897 286.585 0.0385633 286.459 0.149297 286.437L17.9705 282.814C18.0565 282.796 18.1411 282.85 18.163 282.935L19.286 287.3C19.3094 287.391 19.2527 287.483 19.1611 287.503L7.82118 289.984L19.1692 292.428C19.2609 292.447 19.3178 292.54 19.2948 292.631L18.1862 297C18.1646 297.085 18.0801 297.138 17.994 297.121L0.161016 293.557C0.0502282 293.535 -0.00771489 293.409 0.0355079 293.305C0.391084 292.443 0.45912 290.797 0.445868 290.007L0.445726 290.007L0.445692 289.986C0.456347 289.195 0.383036 287.55 0.0246196 286.69Z" fill="#D6CEC4"/>
<path d="M577.451 317.364C577.356 318.363 577.605 319.277 577.537 319.486C577.468 319.695 576.602 320.97 575.91 322.278C575.218 323.587 574.975 323.762 574.417 324.189C573.97 324.53 571.705 325.733 570.628 326.292C570.29 326.445 570.012 326.315 569.887 326.104C569.625 325.521 569.078 324.279 568.978 323.978C568.853 323.601 568.899 323.456 568.96 323.33C569.021 323.203 570.1 322.396 570.154 322.335C569.914 322.146 569.589 321.999 568.554 321.849C567.519 321.699 559.697 321.24 559.217 321.194C558.737 321.148 558.429 321.167 558.385 320.285C558.35 319.582 558.482 316.843 558.553 315.545L558.553 315.545C558.553 315.542 558.553 315.539 558.554 315.536C558.554 315.534 558.554 315.531 558.554 315.528L558.555 315.528C558.734 314.24 559.129 311.527 559.298 310.844C559.51 309.986 559.809 310.064 560.289 310.111C560.77 310.157 568.534 311.207 569.578 311.258C570.623 311.309 570.97 311.227 571.242 311.087C571.201 311.017 570.296 310.018 570.261 309.882C570.225 309.746 570.208 309.595 570.403 309.249C570.559 308.973 571.334 307.859 571.702 307.337C571.865 307.154 572.163 307.079 572.465 307.294C573.415 308.049 575.408 309.664 575.781 310.085C576.247 310.61 576.452 310.829 576.88 312.246C577.308 313.663 577.914 315.08 577.942 315.299C577.969 315.516 577.55 316.366 577.451 317.364Z" fill="#D6CEC4"/>
<path d="M1.65042 261.672C1.74514 260.673 1.49653 259.759 1.56499 259.55C1.63377 259.341 2.49995 258.066 3.19177 256.758C3.88363 255.449 4.12682 255.274 4.68493 254.847C5.1314 254.506 7.39681 253.303 8.47379 252.744C8.81161 252.591 9.08988 252.721 9.21484 252.932C9.47607 253.515 10.0234 254.757 10.1235 255.058C10.2485 255.435 10.2023 255.58 10.1416 255.706C10.0809 255.833 9.00164 256.64 8.94712 256.701C9.18726 256.89 9.51217 257.038 10.5475 257.187C11.5829 257.337 19.4041 257.796 19.8841 257.842C20.3642 257.889 20.6729 257.869 20.7168 258.751C20.7517 259.454 20.6194 262.193 20.5482 263.491L20.549 263.492C20.5486 263.494 20.5482 263.497 20.5478 263.5C20.5477 263.502 20.5476 263.505 20.5474 263.508L20.5467 263.508C20.3679 264.796 19.9726 267.509 19.8036 268.193C19.5914 269.05 19.2921 268.972 18.8121 268.925C18.332 268.879 10.568 267.83 9.5231 267.778C8.47824 267.727 8.1311 267.809 7.85919 267.949C7.90099 268.019 8.80557 269.018 8.84087 269.154C8.87616 269.29 8.89379 269.441 8.69886 269.787C8.54288 270.063 7.76769 271.177 7.39953 271.7C7.23645 271.883 6.93847 271.957 6.63622 271.742C5.68631 270.987 3.69345 269.372 3.32067 268.952C2.85468 268.426 2.64959 268.207 2.22136 266.79C1.79317 265.373 1.18744 263.956 1.15999 263.738C1.13271 263.52 1.55203 262.67 1.65042 261.672Z" fill="#D6CEC4"/>
<path d="M572.979 348.718C573.001 348.829 572.92 348.941 572.807 348.941L554.622 349.022C554.534 349.022 554.461 348.953 554.457 348.865L554.206 344.365C554.201 344.271 554.274 344.192 554.368 344.19L565.974 343.967L555.32 339.359C555.234 339.321 555.196 339.22 555.236 339.135L557.175 335.066C557.213 334.986 557.306 334.95 557.387 334.984L574.183 341.956C574.288 341.999 574.32 342.133 574.257 342.227C573.741 343.003 573.353 344.604 573.212 345.382L573.212 345.382L573.208 345.402C573.044 346.176 572.795 347.804 572.979 348.718Z" fill="#D6CEC4"/>
<path d="M6.13048 230.315C6.10811 230.204 6.18904 230.092 6.30203 230.091L24.4876 230.011C24.5753 230.011 24.648 230.079 24.6528 230.167L24.9036 234.667C24.9088 234.761 24.8352 234.841 24.7415 234.843L13.1355 235.066L23.7897 239.674C23.8758 239.711 23.9136 239.813 23.8732 239.898L21.9345 243.967C21.8967 244.046 21.8034 244.082 21.7223 244.049L4.92592 237.077C4.82157 237.034 4.78916 236.9 4.85198 236.805C5.36866 236.029 5.75608 234.429 5.89716 233.651L5.89705 233.651L5.90105 233.63C6.06558 232.857 6.31432 231.229 6.13048 230.315Z" fill="#D6CEC4"/>
<path d="M566.509 372.936C566.221 373.896 566.287 374.842 566.179 375.033C566.071 375.225 564.973 376.306 564.039 377.455C563.105 378.604 562.833 378.728 562.202 379.038C561.698 379.286 559.241 380.024 558.076 380.362C557.715 380.447 557.467 380.265 557.386 380.034C557.243 379.411 556.948 378.086 556.909 377.771C556.86 377.377 556.933 377.244 557.018 377.132C557.102 377.02 558.318 376.438 558.383 376.389C558.184 376.157 557.894 375.949 556.908 375.6C555.922 375.251 548.34 373.277 547.878 373.138C547.416 372.999 547.11 372.959 547.238 372.084C547.341 371.388 548.005 368.727 548.328 367.468L548.327 367.468C548.328 367.465 548.329 367.463 548.33 367.46C548.33 367.457 548.331 367.455 548.332 367.452L548.332 367.452C548.759 366.224 549.675 363.639 549.974 363.002C550.35 362.202 550.628 362.338 551.089 362.477C551.551 362.616 558.962 365.158 559.977 365.412C560.992 365.666 561.348 365.653 561.642 365.569C561.615 365.492 560.922 364.336 560.914 364.195C560.906 364.055 560.918 363.904 561.177 363.603C561.384 363.362 562.361 362.42 562.824 361.98C563.02 361.832 563.326 361.817 563.581 362.087C564.365 363.013 566.005 364.985 566.289 365.47C566.644 366.076 566.802 366.331 566.946 367.804C567.09 369.277 567.408 370.786 567.392 371.005C567.376 371.224 566.8 371.976 566.509 372.936Z" fill="#D6CEC4"/>
<path d="M12.6048 206.094C12.8923 205.133 12.8267 204.188 12.9344 203.997C13.0426 203.805 14.1407 202.723 15.0743 201.575C16.0079 200.426 16.2806 200.301 16.9111 199.992C17.4156 199.744 19.872 199.006 21.0372 198.667C21.3984 198.583 21.646 198.765 21.7275 198.996C21.87 199.619 22.1649 200.944 22.2043 201.259C22.2535 201.653 22.18 201.785 22.0958 201.898C22.0116 202.01 20.7957 202.592 20.7303 202.641C20.929 202.873 21.2189 203.081 22.2052 203.43C23.1915 203.779 30.7734 205.752 31.2352 205.891C31.697 206.031 32.0037 206.071 31.8748 206.945C31.772 207.642 31.1085 210.302 30.7855 211.562L30.7864 211.562C30.7855 211.565 30.7845 211.567 30.7836 211.57C30.7829 211.573 30.7823 211.575 30.7816 211.578L30.7809 211.578C30.3545 212.806 29.438 215.39 29.1391 216.028C28.7637 216.828 28.4856 216.692 28.0238 216.553C27.562 216.414 20.1513 213.872 19.1364 213.618C18.1216 213.364 17.7651 213.377 17.4712 213.461C17.4985 213.538 18.191 214.694 18.1991 214.834C18.2072 214.975 18.1951 215.126 17.9366 215.427C17.7297 215.668 16.7523 216.609 16.2894 217.05C16.0937 217.198 15.787 217.212 15.5325 216.943C14.7479 216.017 13.1079 214.045 12.8243 213.56C12.4697 212.953 12.3111 212.699 12.1673 211.226C12.0234 209.753 11.7056 208.244 11.7212 208.025C11.7368 207.806 12.3138 207.054 12.6048 206.094Z" fill="#D6CEC4"/>
<path d="M556.01 402.816C556.01 402.929 555.909 403.023 555.798 403.002L537.945 399.536C537.859 399.519 537.801 399.438 537.814 399.351L538.445 394.888C538.458 394.795 538.546 394.731 538.638 394.748L550.065 396.791L540.513 390.194C540.436 390.141 540.419 390.034 540.475 389.959L543.169 386.346C543.222 386.275 543.32 386.258 543.393 386.307L558.509 396.418C558.603 396.481 558.609 396.619 558.529 396.699C557.871 397.359 557.179 398.854 556.889 399.589L556.889 399.59L556.881 399.609C556.569 400.335 556.008 401.883 556.01 402.816Z" fill="#D6CEC4"/>
<path d="M23.1035 176.211C23.1033 176.098 23.2045 176.004 23.3154 176.025L41.1679 179.491C41.254 179.507 41.3119 179.589 41.2995 179.676L40.6685 184.139C40.6552 184.232 40.5675 184.296 40.4753 184.279L29.0483 182.236L38.6002 188.832C38.6773 188.886 38.6947 188.993 38.6385 189.068L35.944 192.681C35.8914 192.752 35.7928 192.769 35.7199 192.72L20.6042 182.609C20.5103 182.546 20.5047 182.408 20.5847 182.328C21.2427 181.668 21.9346 180.173 22.2246 179.438L22.2245 179.437L22.2324 179.418C22.5445 178.692 23.1058 177.143 23.1035 176.211Z" fill="#D6CEC4"/>
<path d="M544.941 425.308C544.472 426.194 544.352 427.134 544.209 427.301C544.066 427.467 542.778 428.314 541.638 429.259C540.499 430.204 540.207 430.273 539.528 430.454C538.985 430.598 536.432 430.844 535.223 430.949C534.852 430.961 534.645 430.734 534.61 430.492C534.592 429.853 534.561 428.496 534.583 428.179C534.612 427.784 534.71 427.668 534.814 427.574C534.919 427.48 536.225 427.147 536.298 427.111C536.149 426.845 535.905 426.584 535.005 426.05C534.106 425.516 527.054 422.102 526.628 421.876C526.203 421.649 525.91 421.549 526.206 420.717C526.443 420.054 527.612 417.574 528.175 416.402L528.174 416.401C528.175 416.399 528.177 416.396 528.178 416.394C528.179 416.392 528.18 416.389 528.182 416.387L528.182 416.387C528.84 415.265 530.242 412.909 530.66 412.342C531.184 411.631 531.43 411.818 531.856 412.044C532.282 412.271 539.055 416.208 540.001 416.655C540.947 417.102 541.299 417.159 541.604 417.134C541.592 417.053 541.138 415.784 541.157 415.645C541.177 415.506 541.218 415.359 541.53 415.114C541.78 414.918 542.922 414.186 543.462 413.844C543.683 413.737 543.987 413.782 544.184 414.097C544.773 415.157 545.997 417.411 546.181 417.942C546.41 418.606 546.516 418.887 546.37 420.36C546.224 421.833 546.242 423.374 546.184 423.586C546.126 423.798 545.414 424.423 544.941 425.308Z" fill="#D6CEC4"/>
<path d="M34.1722 153.716C34.6414 152.83 34.7614 151.889 34.9043 151.723C35.0477 151.556 36.3356 150.709 37.4751 149.764C38.6147 148.82 38.9065 148.751 39.5853 148.57C40.1283 148.425 42.6815 148.18 43.8903 148.075C44.261 148.063 44.4685 148.289 44.5033 148.532C44.5217 149.17 44.5527 150.527 44.53 150.844C44.5016 151.24 44.4035 151.356 44.299 151.45C44.1945 151.544 42.8886 151.877 42.8149 151.912C42.9645 152.179 43.2084 152.439 44.1078 152.974C45.0072 153.508 52.0591 156.921 52.4849 157.148C52.9107 157.374 53.2036 157.474 52.9068 158.306C52.6702 158.969 51.5009 161.45 50.9388 162.622L50.9395 162.622C50.9381 162.625 50.9367 162.627 50.9353 162.629C50.9341 162.632 50.9329 162.634 50.9318 162.637L50.9311 162.637C50.2735 163.758 48.8709 166.114 48.4535 166.681C47.9295 167.393 47.6831 167.206 47.2572 166.979C46.8314 166.753 40.0582 162.815 39.1123 162.368C38.1665 161.921 37.8142 161.865 37.5096 161.89C37.5213 161.971 37.9753 163.24 37.9559 163.379C37.9365 163.518 37.8951 163.664 37.5829 163.909C37.333 164.105 36.1909 164.838 35.651 165.18C35.4303 165.287 35.1266 165.241 34.9295 164.927C34.3403 163.866 33.1162 161.612 32.9325 161.081C32.7029 160.417 32.597 160.137 32.743 158.664C32.889 157.191 32.8712 155.649 32.9293 155.437C32.9872 155.226 33.6997 154.6 34.1722 153.716Z" fill="#D6CEC4"/>
<path d="M528.819 452.569C528.797 452.68 528.679 452.752 528.575 452.71L511.74 445.831C511.659 445.798 511.618 445.707 511.647 445.624L513.136 441.37C513.167 441.281 513.265 441.236 513.353 441.27L524.162 445.5L516.079 437.169C516.014 437.102 516.018 436.994 516.087 436.931L519.434 433.912C519.5 433.853 519.6 433.855 519.662 433.917L532.517 446.781C532.597 446.86 532.576 446.997 532.482 447.06C531.707 447.579 530.738 448.91 530.31 449.575L530.31 449.576L530.298 449.593C529.851 450.245 528.998 451.654 528.819 452.569Z" fill="#D6CEC4"/>
<path d="M50.2944 126.452C50.3162 126.341 50.4338 126.268 50.5384 126.311L67.3732 133.189C67.4545 133.222 67.4954 133.313 67.4662 133.397L65.9775 137.651C65.9464 137.739 65.8479 137.785 65.7607 137.751L54.9509 133.52L63.0342 141.851C63.0994 141.919 63.0956 142.027 63.0258 142.09L59.6788 145.109C59.6134 145.168 59.5135 145.165 59.4514 145.103L46.5961 132.24C46.5163 132.16 46.5376 132.024 46.6318 131.96C47.4058 131.441 48.3757 130.11 48.8035 129.445L48.8035 129.445L48.815 129.428C49.2627 128.776 50.1149 127.367 50.2944 126.452Z" fill="#D6CEC4"/>
<path d="M513.585 472.473C512.952 473.251 512.651 474.15 512.478 474.285C512.305 474.421 510.877 475.001 509.575 475.705C508.273 476.41 507.973 476.421 507.272 476.466C506.712 476.502 504.159 476.245 502.953 476.112C502.588 476.052 502.428 475.789 502.441 475.545C502.548 474.914 502.782 473.578 502.866 473.271C502.971 472.889 503.089 472.794 503.21 472.722C503.331 472.651 504.677 472.578 504.756 472.558C504.661 472.267 504.473 471.964 503.695 471.265C502.917 470.566 496.665 465.843 496.292 465.538C495.918 465.233 495.65 465.078 496.104 464.32C496.465 463.715 498.095 461.511 498.875 460.47L498.874 460.47C498.876 460.468 498.878 460.466 498.88 460.464C498.882 460.461 498.883 460.459 498.885 460.457L498.885 460.457C499.749 459.485 501.584 457.448 502.104 456.973C502.757 456.377 502.962 456.609 503.335 456.914C503.709 457.219 509.585 462.401 510.425 463.024C511.266 463.647 511.601 463.771 511.904 463.806C511.908 463.724 511.71 462.391 511.757 462.258C511.803 462.125 511.872 461.99 512.226 461.811C512.509 461.667 513.772 461.171 514.368 460.941C514.606 460.879 514.895 460.983 515.027 461.329C515.398 462.485 516.159 464.934 516.236 465.491C516.332 466.187 516.381 466.482 515.951 467.899C515.52 469.315 515.237 470.83 515.139 471.027C515.041 471.223 514.22 471.698 513.585 472.473Z" fill="#D6CEC4"/>
<path d="M65.5405 106.546C66.1734 105.768 66.4744 104.869 66.6469 104.734C66.8201 104.598 68.2484 104.018 69.5502 103.314C70.852 102.609 71.1516 102.598 71.8527 102.553C72.4135 102.517 74.9656 102.774 76.1716 102.907C76.5375 102.967 76.6969 103.23 76.6838 103.475C76.5774 104.105 76.3434 105.441 76.2593 105.748C76.1543 106.13 76.0355 106.225 75.9147 106.297C75.794 106.368 74.4482 106.441 74.3689 106.461C74.4638 106.752 74.6522 107.055 75.4302 107.754C76.2083 108.453 82.4596 113.176 82.8332 113.481C83.2067 113.786 83.4746 113.941 83.0212 114.699C82.66 115.304 81.0297 117.508 80.2498 118.549L80.2505 118.549C80.2487 118.551 80.2468 118.553 80.245 118.555C80.2433 118.558 80.2417 118.56 80.2401 118.562L80.2395 118.562C79.3759 119.534 77.541 121.571 77.0212 122.046C76.3685 122.642 76.1632 122.41 75.7897 122.105C75.4162 121.8 69.5403 116.618 68.6996 115.995C67.859 115.372 67.5245 115.248 67.2209 115.213C67.2166 115.295 67.4146 116.628 67.3684 116.761C67.3223 116.894 67.2532 117.029 66.8992 117.208C66.6159 117.352 65.3529 117.848 64.7567 118.078C64.5194 118.14 64.2305 118.036 64.0983 117.69C63.7271 116.534 62.9658 114.085 62.8891 113.528C62.7933 112.832 62.7441 112.537 63.1744 111.12C63.6046 109.704 63.8876 108.189 63.9859 107.992C64.084 107.796 64.9046 107.321 65.5405 106.546Z" fill="#D6CEC4"/>
<path d="M492.458 496.069C492.415 496.174 492.286 496.222 492.191 496.16L477.02 486.133C476.947 486.084 476.924 485.987 476.969 485.911L479.258 482.029C479.306 481.948 479.411 481.922 479.49 481.973L489.268 488.229L482.964 478.482C482.913 478.404 482.938 478.298 483.019 478.25L486.89 475.941C486.965 475.896 487.063 475.918 487.112 475.991L497.213 491.113C497.276 491.207 497.229 491.336 497.124 491.38C496.264 491.739 495.053 492.855 494.504 493.424L494.504 493.424L494.489 493.439C493.923 493.991 492.812 495.207 492.458 496.069Z" fill="#D6CEC4"/>
<path d="M86.6668 82.947C86.71 82.8421 86.8394 82.7939 86.9337 82.8562L102.105 92.8834C102.178 92.9317 102.201 93.0292 102.156 93.1051L99.8668 96.9874C99.819 97.0684 99.7135 97.0938 99.6346 97.0433L89.8566 90.787L96.1612 100.534C96.2121 100.613 96.1872 100.718 96.1065 100.766L92.2354 103.075C92.1597 103.12 92.0622 103.098 92.0134 103.025L81.9115 87.9032C81.8488 87.8093 81.8963 87.6797 82.0009 87.636C82.8613 87.2775 84.0721 86.161 84.6213 85.5922L84.6213 85.592L84.6359 85.5773C85.202 85.0253 86.3125 83.8092 86.6668 82.947Z" fill="#D6CEC4"/>
<path d="M473.635 512.622C472.862 513.262 472.392 514.085 472.196 514.184C472 514.283 470.486 514.574 469.072 515.011C467.658 515.448 467.362 515.4 466.665 515.308C466.108 515.234 463.655 514.485 462.498 514.119C462.151 513.989 462.046 513.701 462.106 513.463C462.334 512.866 462.824 511.6 462.966 511.316C463.143 510.961 463.278 510.892 463.411 510.845C463.543 510.798 464.877 510.989 464.959 510.985C464.923 510.681 464.797 510.347 464.17 509.51C463.543 508.672 458.332 502.822 458.025 502.45C457.718 502.078 457.486 501.874 458.078 501.218C458.55 500.696 460.579 498.851 461.547 497.983L461.546 497.982C461.548 497.981 461.55 497.979 461.553 497.977C461.555 497.975 461.557 497.974 461.559 497.972L461.559 497.972C462.596 497.187 464.792 495.546 465.395 495.182C466.151 494.725 466.307 494.992 466.614 495.364C466.921 495.736 471.674 501.964 472.378 502.739C473.081 503.513 473.385 503.7 473.676 503.794C473.696 503.714 473.761 502.368 473.832 502.247C473.904 502.126 473.998 502.007 474.38 501.9C474.686 501.814 476.021 501.573 476.651 501.464C476.896 501.45 477.159 501.608 477.221 501.973C477.36 503.179 477.629 505.729 477.596 506.29C477.554 506.992 477.545 507.291 476.847 508.597C476.149 509.902 475.576 511.333 475.441 511.507C475.307 511.68 474.409 511.985 473.635 512.622Z" fill="#D6CEC4"/>
<path d="M105.494 66.3928C106.267 65.7532 106.737 64.9302 106.933 64.8312C107.129 64.7319 108.643 64.4415 110.057 64.0042C111.471 63.5669 111.767 63.6147 112.464 63.7071C113.021 63.781 115.474 64.5302 116.631 64.8957C116.978 65.0261 117.083 65.3146 117.023 65.5521C116.795 66.1494 116.305 67.415 116.163 67.699C115.986 68.0538 115.851 68.1236 115.718 68.1704C115.586 68.2171 114.252 68.0258 114.17 68.0305C114.206 68.3339 114.332 68.6678 114.959 69.5053C115.586 70.3429 120.797 76.1931 121.104 76.5652C121.411 76.9372 121.643 77.1413 121.051 77.7969C120.579 78.3191 118.55 80.1639 117.582 81.0323L117.583 81.0329C117.581 81.0346 117.579 81.0362 117.576 81.0379C117.574 81.0397 117.572 81.0416 117.57 81.0435L117.57 81.0429C116.533 81.8279 114.336 83.4689 113.734 83.8332C112.978 84.2903 112.822 84.0232 112.515 83.6511C112.208 83.2791 107.455 77.0511 106.751 76.2765C106.048 75.502 105.744 75.3151 105.453 75.2216C105.433 75.301 105.368 76.6471 105.296 76.7682C105.225 76.8894 105.131 77.0086 104.749 77.1156C104.443 77.2011 103.108 77.4417 102.478 77.5512C102.233 77.5656 101.97 77.4074 101.908 77.0418C101.769 75.8365 101.5 73.2857 101.533 72.7247C101.575 72.0234 101.584 71.7238 102.282 70.4185C102.98 69.1132 103.553 67.6821 103.688 67.5082C103.822 67.335 104.719 67.0296 105.494 66.3928Z" fill="#D6CEC4"/>
<path d="M448.316 531.649C448.254 531.744 448.117 531.766 448.037 531.686L435.111 518.895C435.048 518.833 435.045 518.733 435.104 518.667L438.106 515.305C438.169 515.235 438.277 515.231 438.345 515.296L446.716 523.338L442.432 512.549C442.397 512.462 442.442 512.363 442.531 512.332L446.777 510.822C446.86 510.793 446.952 510.833 446.985 510.914L453.946 527.715C453.99 527.819 453.918 527.937 453.807 527.959C452.893 528.143 451.488 529.002 450.838 529.453L450.838 529.454L450.821 529.465C450.158 529.896 448.832 530.873 448.316 531.649Z" fill="#D6CEC4"/>
<path d="M130.816 47.3643C130.879 47.2698 131.016 47.2477 131.096 47.3272L144.022 60.1189C144.085 60.1806 144.088 60.2805 144.029 60.3462L141.027 63.708C140.964 63.7781 140.856 63.7825 140.788 63.7176L132.417 55.6756L136.701 66.4643C136.736 66.5514 136.691 66.6501 136.602 66.6816L132.355 68.1914C132.272 68.2209 132.181 68.1805 132.147 68.0994L125.186 51.2987C125.143 51.1943 125.215 51.0764 125.326 51.054C126.24 50.8701 127.645 50.011 128.295 49.5601L128.295 49.5599L128.312 49.5483C128.975 49.1173 130.301 48.1409 130.816 47.3643Z" fill="#D6CEC4"/>
<path d="M426.622 544.216C425.739 544.693 425.118 545.408 424.906 545.467C424.695 545.526 423.153 545.516 421.681 545.669C420.209 545.823 419.928 545.718 419.263 545.492C418.731 545.311 416.47 544.098 415.407 543.514C415.092 543.318 415.045 543.015 415.151 542.794C415.49 542.252 416.217 541.106 416.412 540.855C416.655 540.542 416.801 540.5 416.94 540.48C417.079 540.46 418.35 540.907 418.431 540.919C418.455 540.614 418.397 540.262 417.945 539.318C417.493 538.375 413.522 531.621 413.294 531.196C413.065 530.772 412.877 530.526 413.586 529.999C414.151 529.578 416.5 528.164 417.618 527.501L417.618 527.5C417.62 527.499 417.623 527.498 417.625 527.497C417.628 527.495 417.63 527.494 417.632 527.493L417.633 527.493C418.802 526.925 421.277 525.744 421.939 525.504C422.77 525.203 422.871 525.495 423.099 525.92C423.328 526.345 426.776 533.38 427.315 534.277C427.854 535.173 428.115 535.416 428.382 535.564C428.418 535.49 428.744 534.183 428.838 534.078C428.931 533.973 429.047 533.874 429.442 533.844C429.759 533.82 431.116 533.844 431.755 533.859C431.998 533.893 432.225 534.099 432.214 534.47C432.116 535.679 431.883 538.234 431.741 538.777C431.563 539.457 431.496 539.749 430.557 540.893C429.618 542.037 428.777 543.33 428.611 543.474C428.445 543.617 427.506 543.742 426.622 544.216Z" fill="#D6CEC4"/>
<path d="M152.507 34.7965C153.39 34.3197 154.011 33.6041 154.222 33.5451C154.434 33.486 155.976 33.4961 157.448 33.3429C158.92 33.1896 159.201 33.2941 159.866 33.5204C160.398 33.7015 162.658 34.9145 163.722 35.4984C164.037 35.694 164.084 35.9974 163.978 36.2186C163.639 36.7602 162.912 37.9059 162.717 38.1568C162.474 38.4703 162.328 38.5124 162.189 38.5324C162.05 38.5525 160.779 38.1048 160.697 38.0935C160.674 38.3982 160.732 38.7502 161.184 39.6938C161.635 40.6375 165.607 47.3912 165.835 47.8159C166.064 48.2406 166.252 48.4861 165.543 49.0136C164.978 49.4338 162.629 50.8479 161.511 51.511L161.511 51.5118C161.509 51.513 161.506 51.5142 161.504 51.5153C161.501 51.5168 161.499 51.5182 161.496 51.5196L161.496 51.519C160.327 52.087 157.852 53.2684 157.19 53.5082C156.359 53.8092 156.258 53.5168 156.03 53.092C155.801 52.6673 152.353 45.6324 151.814 44.7356C151.275 43.8389 151.014 43.5963 150.747 43.448C150.711 43.5219 150.385 44.8294 150.291 44.9344C150.198 45.0394 150.082 45.138 149.687 45.1684C149.37 45.1927 148.013 45.1683 147.374 45.1531C147.131 45.1194 146.904 44.913 146.914 44.5424C147.013 43.3331 147.246 40.7787 147.388 40.2349C147.565 39.5552 147.633 39.2631 148.572 38.1189C149.511 36.9747 150.352 35.6827 150.518 35.5384C150.684 35.3947 151.623 35.2701 152.507 34.7965Z" fill="#D6CEC4"/>
<path d="M398.057 557.953C397.977 558.034 397.839 558.029 397.775 557.935L387.591 542.869C387.542 542.796 387.558 542.697 387.629 542.644L391.229 539.932C391.304 539.876 391.411 539.893 391.464 539.97L398.107 549.489L396.009 538.072C395.992 537.98 396.055 537.892 396.148 537.879L400.608 537.226C400.695 537.213 400.777 537.27 400.794 537.357L404.346 555.192C404.368 555.303 404.274 555.404 404.161 555.405C403.229 555.407 401.683 555.976 400.958 556.291L400.958 556.291L400.939 556.299C400.205 556.593 398.714 557.292 398.057 557.953Z" fill="#D6CEC4"/>
<path d="M181.076 21.059C181.156 20.9785 181.294 20.9835 181.358 21.0771L191.542 36.1436C191.591 36.2163 191.574 36.3148 191.504 36.3678L187.904 39.0798C187.829 39.1364 187.722 39.1195 187.668 39.0427L181.026 29.5229L183.124 40.9398C183.141 41.032 183.078 41.12 182.985 41.1337L178.525 41.7864C178.438 41.7992 178.356 41.7418 178.339 41.6557L174.787 23.8202C174.765 23.7094 174.859 23.6078 174.972 23.6075C175.904 23.6052 177.45 23.0365 178.175 22.7209L178.175 22.7207L178.194 22.7128C178.928 22.4192 180.419 21.7201 181.076 21.059Z" fill="#D6CEC4"/>
<path d="M374.314 566.057C373.356 566.353 372.606 566.933 372.388 566.95C372.168 566.967 370.658 566.656 369.185 566.519C367.711 566.383 367.456 566.225 366.847 565.873C366.361 565.592 364.381 563.962 363.452 563.181C363.181 562.928 363.194 562.621 363.341 562.425C363.779 561.96 364.716 560.978 364.956 560.77C365.256 560.51 365.407 560.497 365.547 560.505C365.688 560.512 366.847 561.199 366.924 561.226C367.007 560.932 367.018 560.575 366.759 559.562C366.501 558.548 363.923 551.15 363.782 550.688C363.64 550.227 363.504 549.95 364.302 549.571C364.938 549.269 367.518 548.34 368.744 547.908L368.744 547.907C368.746 547.906 368.749 547.906 368.752 547.905C368.754 547.904 368.757 547.903 368.76 547.902L368.76 547.903C370.018 547.574 372.675 546.898 373.371 546.792C374.245 546.659 374.287 546.965 374.428 547.426C374.569 547.887 376.579 555.46 376.933 556.444C377.286 557.429 377.495 557.718 377.729 557.915C377.778 557.85 378.353 556.631 378.465 556.546C378.577 556.462 378.71 556.388 379.104 556.435C379.419 556.473 380.745 556.761 381.369 556.901C381.6 556.981 381.783 557.228 381.7 557.59C381.368 558.756 380.641 561.216 380.396 561.722C380.089 562.354 379.966 562.627 378.822 563.566C377.678 564.505 376.601 565.609 376.41 565.718C376.219 565.826 375.273 565.765 374.314 566.057Z" fill="#D6CEC4"/>
<path d="M204.83 12.9553C205.789 12.6598 206.538 12.0792 206.757 12.0625C206.976 12.0459 208.486 12.3565 209.96 12.4934C211.434 12.6302 211.689 12.7875 212.297 13.1392C212.784 13.4206 214.764 15.0511 215.693 15.8313C215.964 16.0846 215.951 16.3913 215.804 16.5876C215.365 17.0526 214.429 18.0345 214.189 18.2426C213.889 18.5026 213.737 18.5154 213.597 18.508C213.457 18.5005 212.298 17.8135 212.22 17.7866C212.138 18.0809 212.126 18.4374 212.385 19.451C212.644 20.4647 215.221 27.8632 215.363 28.3243C215.504 28.7854 215.641 29.0629 214.843 29.4421C214.207 29.7441 211.627 30.6727 210.401 31.105L210.401 31.1058C210.398 31.1065 210.395 31.1072 210.393 31.1078C210.39 31.1088 210.388 31.1097 210.385 31.1107L210.385 31.11C209.127 31.4389 206.469 32.1149 205.774 32.2211C204.9 32.3542 204.858 32.0477 204.717 31.5865C204.575 31.1254 202.565 23.553 202.212 22.5684C201.858 21.5838 201.649 21.2948 201.416 21.0972C201.367 21.1628 200.792 22.3815 200.679 22.4662C200.567 22.551 200.435 22.6252 200.041 22.5778C199.726 22.5399 198.4 22.2513 197.776 22.1118C197.544 22.0314 197.362 21.7846 197.444 21.4231C197.777 20.2563 198.503 17.7964 198.749 17.2907C199.055 16.6587 199.179 16.3855 200.323 15.4463C201.467 14.5073 202.544 13.4041 202.735 13.295C202.925 13.1863 203.871 13.2474 204.83 12.9553Z" fill="#D6CEC4"/>
<path d="M343.62 573.96C343.526 574.023 343.392 573.992 343.348 573.888L336.298 557.124C336.264 557.043 336.3 556.95 336.379 556.911L340.439 554.954C340.523 554.913 340.625 554.95 340.663 555.036L345.321 565.669L345.49 554.062C345.491 553.968 345.57 553.894 345.664 553.899L350.166 554.128C350.254 554.133 350.323 554.205 350.323 554.293L350.327 572.479C350.327 572.592 350.216 572.673 350.105 572.651C349.19 572.472 347.563 572.728 346.79 572.896L346.79 572.896L346.77 572.9C345.993 573.045 344.394 573.44 343.62 573.96Z" fill="#D6CEC4"/>
<path d="M235.532 5.05402C235.626 4.99071 235.76 5.02249 235.804 5.12666L242.854 21.8903C242.888 21.9712 242.853 22.0646 242.773 22.1028L238.714 24.0606C238.629 24.1014 238.527 24.0639 238.49 23.9781L233.831 13.3455L233.663 24.9524C233.661 25.0461 233.582 25.1201 233.488 25.1154L228.987 24.8857C228.899 24.8813 228.83 24.809 228.83 24.7212L228.825 6.53546C228.825 6.42248 228.936 6.34108 229.048 6.36289C229.962 6.54245 231.589 6.28623 232.362 6.11808L232.362 6.11791L232.382 6.11382C233.16 5.96911 234.758 5.57433 235.532 5.05402Z" fill="#D6CEC4"/>
<path d="M318.751 577.276C317.753 577.379 316.905 577.802 316.687 577.776C316.469 577.749 315.048 577.15 313.63 576.728C312.211 576.307 311.991 576.103 311.463 575.639C311.041 575.268 309.417 573.283 308.658 572.336C308.442 572.035 308.514 571.737 308.697 571.573C309.217 571.202 310.328 570.422 310.603 570.265C310.948 570.068 311.099 570.085 311.235 570.12C311.371 570.155 312.375 571.055 312.445 571.096C312.583 570.823 312.664 570.476 312.608 569.431C312.552 568.387 311.467 560.628 311.418 560.148C311.37 559.668 311.29 559.369 312.146 559.153C312.829 558.981 315.541 558.573 316.828 558.388L316.828 558.388C316.83 558.387 316.833 558.387 316.836 558.387C316.839 558.387 316.841 558.386 316.844 558.386L316.844 558.387C318.142 558.309 320.88 558.165 321.584 558.196C322.466 558.236 322.448 558.545 322.496 559.025C322.545 559.505 323.039 567.324 323.194 568.358C323.349 569.393 323.498 569.717 323.688 569.956C323.748 569.902 324.551 568.819 324.677 568.757C324.803 568.696 324.948 568.649 325.325 568.773C325.627 568.871 326.871 569.413 327.456 569.671C327.667 569.795 327.798 570.073 327.647 570.412C327.093 571.491 325.9 573.762 325.561 574.21C325.137 574.77 324.963 575.014 323.658 575.712C322.352 576.41 321.081 577.282 320.872 577.352C320.664 577.421 319.749 577.177 318.751 577.276Z" fill="#D6CEC4"/>
<path d="M260.406 1.73874C261.403 1.63577 262.251 1.21254 262.469 1.23882C262.688 1.26527 264.108 1.86448 265.527 2.28615C266.946 2.70787 267.165 2.91194 267.693 3.37552C268.115 3.74636 269.739 5.73178 270.498 6.67821C270.715 6.97946 270.642 7.27779 270.46 7.4417C269.939 7.81225 268.829 8.59257 268.553 8.74982C268.208 8.94632 268.057 8.92939 267.921 8.89473C267.785 8.86005 266.782 7.96007 266.711 7.91859C266.573 8.19115 266.492 8.53866 266.548 9.58327C266.604 10.6279 267.689 18.3871 267.738 18.8669C267.786 19.3467 267.867 19.6456 267.01 19.8618C266.327 20.0339 263.616 20.4415 262.329 20.6263L262.329 20.6271C262.326 20.6273 262.323 20.6274 262.32 20.6275C262.318 20.6279 262.315 20.6284 262.312 20.6288L262.312 20.6281C261.014 20.7053 258.276 20.85 257.573 20.8184C256.69 20.7785 256.708 20.4697 256.66 19.9899C256.611 19.51 256.117 11.691 255.962 10.6563C255.808 9.62171 255.659 9.29749 255.469 9.05821C255.408 9.11302 254.606 10.196 254.479 10.2573C254.353 10.3186 254.208 10.3654 253.831 10.2421C253.529 10.1434 252.285 9.6018 251.701 9.34326C251.489 9.21927 251.358 8.94159 251.509 8.60308C252.063 7.52355 253.256 5.25263 253.595 4.80459C254.019 4.24453 254.193 4.00054 255.499 3.30266C256.804 2.60484 258.075 1.7328 258.284 1.66307C258.492 1.59365 259.408 1.83806 260.406 1.73874Z" fill="#D6CEC4"/>
</g>
</svg>
