<svg width="345" height="191" viewBox="0 0 345 191" fill="none" xmlns="http://www.w3.org/2000/svg">
<g clip-path="url(#clip0_5145_11851)">
<path d="M13.9963 0.0156733C14.1096 -0.0312768 14.2452 0.0311544 14.2694 0.150884L18.1536 19.4198C18.1724 19.5128 18.1147 19.6042 18.0224 19.6278L13.3025 20.8338C13.204 20.8589 13.1042 20.7974 13.0827 20.6985L10.4213 8.43694L7.76017 20.6985C7.73868 20.7974 7.63882 20.8589 7.54031 20.8338L2.82028 19.6278C2.72799 19.6042 2.67033 19.5128 2.68908 19.4198L6.57349 0.150884C6.59761 0.0311746 6.73315 -0.0312318 6.84638 0.0156733C7.77704 0.40154 9.55552 0.478006 10.4101 0.465089L10.4103 0.464936H10.4326C11.2871 0.477859 13.0656 0.401546 13.9963 0.0156733Z" fill="#E61717"/>
<path d="M35.4275 0.317763C36.5115 0.315779 37.4698 -0.0468882 37.7009 0.00509836C37.9329 0.0573444 39.395 0.856538 40.8748 1.46466C42.3547 2.07283 42.5686 2.31622 43.0856 2.87227C43.4993 3.3171 45.0292 5.62918 45.7425 6.7297C45.9422 7.07723 45.8315 7.39012 45.6176 7.54651C45.0174 7.88824 43.7383 8.60633 43.4244 8.74535C43.0323 8.91909 42.8717 8.88442 42.7292 8.83231C42.5866 8.78018 41.6059 7.70302 41.5345 7.65072C41.3561 7.92875 41.2314 8.29364 41.1779 9.4231C41.1244 10.5526 41.4452 19.0148 41.4452 19.5361C41.4452 20.0574 41.4987 20.3875 40.5538 20.5266C39.801 20.6373 36.8406 20.78 35.4364 20.8384V20.8394C35.4335 20.8392 35.4305 20.839 35.4275 20.8389C35.4245 20.839 35.4215 20.8392 35.4186 20.8394V20.8386C34.0144 20.7801 31.054 20.6373 30.3012 20.5266C29.3562 20.3875 29.4098 20.0574 29.4098 19.5361C29.4098 19.0148 29.7306 10.5526 29.6771 9.4231C29.6237 8.29364 29.4988 7.92875 29.3205 7.65072C29.2491 7.70302 28.2685 8.78018 28.1258 8.83231C27.9832 8.88442 27.8227 8.91909 27.4305 8.74535C27.1167 8.60633 25.8377 7.88824 25.2374 7.54651C25.0235 7.39012 24.9128 7.07723 25.1125 6.7297C25.8258 5.62918 27.3557 3.3171 27.7694 2.87227C28.2865 2.31622 28.5003 2.07283 29.9802 1.46466C31.4601 0.856538 32.9221 0.0573444 33.1541 0.00509836C33.3852 -0.0468882 34.3435 0.315779 35.4275 0.317763Z" fill="#E61717"/>
<path d="M63.3162 0.0160651C63.4323 -0.0320587 63.5713 0.0319333 63.5961 0.154656L67.5774 19.9053C67.5967 20.0007 67.5376 20.0943 67.443 20.1185L62.6051 21.3546C62.5041 21.3803 62.4018 21.3174 62.3797 21.2159L59.6519 8.64787L56.9241 21.2159C56.9021 21.3174 56.7998 21.3803 56.6988 21.3546L51.8608 20.1185C51.7662 20.0943 51.7071 20.0007 51.7263 19.9053L55.7078 0.154656C55.7325 0.031954 55.8714 -0.0320126 55.9875 0.0160651C56.9414 0.411579 58.7644 0.489957 59.6403 0.476716L59.6405 0.476559H59.6634C60.5393 0.489806 62.3622 0.411585 63.3162 0.0160651Z" fill="#E61717"/>
<path d="M84.4002 0.317763C85.4842 0.315779 86.4424 -0.0468882 86.6736 0.00509836C86.9056 0.0573444 88.3676 0.856538 89.8474 1.46466C91.3273 2.07283 91.5413 2.31622 92.0583 2.87227C92.4719 3.3171 94.0019 5.62918 94.7152 6.7297C94.9149 7.07723 94.8042 7.39012 94.5903 7.54651C93.99 7.88824 92.711 8.60633 92.3971 8.74535C92.0049 8.91909 91.8444 8.88442 91.7018 8.83231C91.5593 8.78018 90.5786 7.70302 90.5072 7.65072C90.3288 7.92875 90.2041 8.29364 90.1506 9.4231C90.097 10.5526 90.4178 19.0148 90.4178 19.5361C90.4178 20.0574 90.4714 20.3875 89.5264 20.5266C88.7736 20.6373 85.8132 20.78 84.4091 20.8384V20.8394C84.4061 20.8392 84.4031 20.839 84.4002 20.8389C84.3972 20.839 84.3942 20.8392 84.3912 20.8394V20.8386C82.9871 20.7801 80.0267 20.6373 79.2739 20.5266C78.3289 20.3875 78.3825 20.0574 78.3825 19.5361C78.3825 19.0148 78.7033 10.5526 78.6498 9.4231C78.5963 8.29364 78.4715 7.92875 78.2932 7.65072C78.2217 7.70302 77.2411 8.78018 77.0985 8.83231C76.9559 8.88442 76.7954 8.91909 76.4032 8.74535C76.0893 8.60633 74.8104 7.88824 74.2101 7.54651C73.9961 7.39012 73.8855 7.07723 74.0852 6.7297C74.7984 5.62918 76.3284 3.3171 76.7421 2.87227C77.2591 2.31622 77.473 2.07283 78.9529 1.46466C80.4327 0.856538 81.8947 0.0573444 82.1267 0.00509836C82.3579 -0.0468882 83.3162 0.315779 84.4002 0.317763Z" fill="#E61717"/>
<path d="M112.289 0.0160651C112.405 -0.0320587 112.544 0.0319333 112.569 0.154656L116.55 19.9053C116.569 20.0007 116.51 20.0943 116.416 20.1185L111.578 21.3546C111.477 21.3803 111.374 21.3174 111.352 21.2159L108.625 8.64787L105.897 21.2159C105.875 21.3174 105.772 21.3803 105.671 21.3546L100.833 20.1185C100.739 20.0943 100.68 20.0007 100.699 19.9053L104.68 0.154656C104.705 0.031954 104.844 -0.0320126 104.96 0.0160651C105.914 0.411579 107.737 0.489957 108.613 0.476716L108.613 0.476559H108.636C109.512 0.489806 111.335 0.411585 112.289 0.0160651Z" fill="#E61717"/>
<path d="M133.373 0.317763C134.457 0.315779 135.415 -0.0468882 135.646 0.00509836C135.878 0.0573444 137.34 0.856538 138.82 1.46466C140.3 2.07283 140.514 2.31622 141.031 2.87227C141.445 3.3171 142.975 5.62918 143.688 6.7297C143.888 7.07723 143.777 7.39012 143.563 7.54651C142.963 7.88824 141.684 8.60633 141.37 8.74535C140.978 8.91909 140.817 8.88442 140.674 8.83231C140.532 8.78018 139.551 7.70302 139.48 7.65072C139.301 7.92875 139.177 8.29364 139.123 9.4231C139.07 10.5526 139.39 19.0148 139.39 19.5361C139.39 20.0574 139.444 20.3875 138.499 20.5266C137.746 20.6373 134.786 20.78 133.382 20.8384V20.8394C133.379 20.8392 133.376 20.839 133.373 20.8389C133.37 20.839 133.367 20.8392 133.364 20.8394V20.8386C131.96 20.7801 128.999 20.6373 128.247 20.5266C127.302 20.3875 127.355 20.0574 127.355 19.5361C127.355 19.0148 127.676 10.5526 127.622 9.4231C127.569 8.29364 127.444 7.92875 127.266 7.65072C127.194 7.70302 126.214 8.78018 126.071 8.83231C125.929 8.88442 125.768 8.91909 125.376 8.74535C125.062 8.60633 123.783 7.88824 123.183 7.54651C122.969 7.39012 122.858 7.07723 123.058 6.7297C123.771 5.62918 125.301 3.3171 125.715 2.87227C126.232 2.31622 126.446 2.07283 127.926 1.46466C129.405 0.856538 130.867 0.0573444 131.099 0.00509836C131.331 -0.0468882 132.289 0.315779 133.373 0.317763Z" fill="#E61717"/>
<path d="M161.955 0.0156733C162.069 -0.0312768 162.204 0.0311544 162.228 0.150884L166.113 19.4198C166.131 19.5128 166.074 19.6042 165.981 19.6278L161.262 20.8338C161.163 20.8589 161.063 20.7974 161.042 20.6985L158.38 8.43694L155.719 20.6985C155.698 20.7974 155.598 20.8589 155.499 20.8338L150.779 19.6278C150.687 19.6042 150.629 19.5128 150.648 19.4198L154.532 0.150884C154.557 0.0311746 154.692 -0.0312318 154.805 0.0156733C155.736 0.40154 157.515 0.478006 158.369 0.465089L158.369 0.464936H158.392C159.246 0.477859 161.025 0.401546 161.955 0.0156733Z" fill="#E61717"/>
<path d="M182.604 0.325707C183.715 0.323673 184.697 -0.0480604 184.934 0.00522582C185.172 0.058778 186.671 0.877951 188.187 1.50128C189.704 2.12465 189.924 2.37413 190.454 2.94408C190.878 3.40003 192.446 5.76991 193.177 6.89794C193.382 7.25416 193.268 7.57487 193.049 7.73517C192.434 8.08545 191.123 8.82149 190.801 8.96399C190.399 9.14207 190.234 9.10654 190.088 9.05312C189.942 8.99969 188.937 7.8956 188.864 7.84199C188.681 8.12697 188.553 8.50099 188.498 9.65868C188.443 10.8164 188.772 19.4902 188.772 20.0245C188.772 20.5588 188.827 20.8972 187.858 21.0398C187.087 21.1532 184.052 21.2995 182.613 21.3594V21.3603C182.61 21.3602 182.607 21.36 182.604 21.3599C182.601 21.36 182.598 21.3602 182.595 21.3603V21.3595C181.156 21.2997 178.121 21.1532 177.35 21.0398C176.381 20.8972 176.436 20.5588 176.436 20.0245C176.436 19.4902 176.765 10.8164 176.71 9.65868C176.655 8.50099 176.527 8.12697 176.344 7.84199C176.271 7.8956 175.266 8.99969 175.12 9.05312C174.974 9.10654 174.809 9.14207 174.407 8.96399C174.085 8.82149 172.774 8.08545 172.159 7.73517C171.94 7.57487 171.826 7.25416 172.031 6.89794C172.762 5.76991 174.33 3.40003 174.754 2.94408C175.284 2.37413 175.504 2.12465 177.021 1.50128C178.537 0.877951 180.036 0.058778 180.274 0.00522582C180.511 -0.0480604 181.493 0.323673 182.604 0.325707Z" fill="#E61717"/>
<path d="M210.928 0.0156733C211.041 -0.0312768 211.177 0.0311544 211.201 0.150884L215.085 19.4198C215.104 19.5128 215.046 19.6042 214.954 19.6278L210.234 20.8338C210.136 20.8589 210.036 20.7974 210.014 20.6985L207.353 8.43694L204.692 20.6985C204.67 20.7974 204.57 20.8589 204.472 20.8338L199.752 19.6278C199.66 19.6042 199.602 19.5128 199.621 19.4198L203.505 0.150884C203.529 0.0311746 203.665 -0.0312318 203.778 0.0156733C204.709 0.40154 206.487 0.478006 207.342 0.465089L207.342 0.464936H207.364C208.219 0.477859 209.997 0.401546 210.928 0.0156733Z" fill="#E61717"/>
<path d="M232.359 0.317763C233.443 0.315779 234.401 -0.0468882 234.633 0.00509836C234.865 0.0573444 236.327 0.856538 237.806 1.46466C239.286 2.07283 239.5 2.31622 240.017 2.87227C240.431 3.3171 241.961 5.62918 242.674 6.7297C242.874 7.07723 242.763 7.39012 242.549 7.54651C241.949 7.88824 240.67 8.60633 240.356 8.74535C239.964 8.91909 239.803 8.88442 239.661 8.83231C239.518 8.78018 238.538 7.70302 238.466 7.65072C238.288 7.92875 238.163 8.29364 238.11 9.4231C238.056 10.5526 238.377 19.0148 238.377 19.5361C238.377 20.0574 238.43 20.3875 237.485 20.5266C236.733 20.6373 233.772 20.78 232.368 20.8384V20.8394C232.365 20.8392 232.362 20.839 232.359 20.8389C232.356 20.839 232.353 20.8392 232.35 20.8394V20.8386C230.946 20.7801 227.986 20.6373 227.233 20.5266C226.288 20.3875 226.341 20.0574 226.341 19.5361C226.341 19.0148 226.662 10.5526 226.609 9.4231C226.555 8.29364 226.43 7.92875 226.252 7.65072C226.181 7.70302 225.2 8.78018 225.057 8.83231C224.915 8.88442 224.754 8.91909 224.362 8.74535C224.048 8.60633 222.769 7.88824 222.169 7.54651C221.955 7.39012 221.844 7.07723 222.044 6.7297C222.757 5.62918 224.287 3.3171 224.701 2.87227C225.218 2.31622 225.432 2.07283 226.912 1.46466C228.392 0.856538 229.854 0.0573444 230.086 0.00509836C230.317 -0.0468882 231.275 0.315779 232.359 0.317763Z" fill="#E61717"/>
<path d="M260.248 0.0160651C260.364 -0.0320587 260.503 0.0319333 260.528 0.154656L264.509 19.9053C264.528 20.0007 264.469 20.0943 264.375 20.1185L259.537 21.3546C259.436 21.3803 259.333 21.3174 259.311 21.2159L256.583 8.64787L253.856 21.2159C253.834 21.3174 253.731 21.3803 253.63 21.3546L248.792 20.1185C248.698 20.0943 248.639 20.0007 248.658 19.9053L252.639 0.154656C252.664 0.031954 252.803 -0.0320126 252.919 0.0160651C253.873 0.411579 255.696 0.489957 256.572 0.476716L256.572 0.476559H256.595C257.471 0.489806 259.294 0.411585 260.248 0.0160651Z" fill="#E61717"/>
<path d="M281.33 0.317763C282.414 0.315779 283.372 -0.0468882 283.603 0.00509836C283.835 0.0573444 285.297 0.856538 286.777 1.46466C288.257 2.07283 288.471 2.31622 288.988 2.87227C289.402 3.3171 290.932 5.62918 291.645 6.7297C291.845 7.07723 291.734 7.39012 291.52 7.54651C290.92 7.88824 289.641 8.60633 289.327 8.74535C288.935 8.91909 288.774 8.88442 288.632 8.83231C288.489 8.78018 287.508 7.70302 287.437 7.65072C287.258 7.92875 287.134 8.29364 287.08 9.4231C287.027 10.5526 287.348 19.0148 287.348 19.5361C287.348 20.0574 287.401 20.3875 286.456 20.5266C285.703 20.6373 282.743 20.78 281.339 20.8384V20.8394C281.336 20.8392 281.333 20.839 281.33 20.8389C281.327 20.839 281.324 20.8392 281.321 20.8394V20.8386C279.917 20.7801 276.956 20.6373 276.204 20.5266C275.259 20.3875 275.312 20.0574 275.312 19.5361C275.312 19.0148 275.633 10.5526 275.579 9.4231C275.526 8.29364 275.401 7.92875 275.223 7.65072C275.151 7.70302 274.171 8.78018 274.028 8.83231C273.886 8.88442 273.725 8.91909 273.333 8.74535C273.019 8.60633 271.74 7.88824 271.14 7.54651C270.926 7.39012 270.815 7.07723 271.015 6.7297C271.728 5.62918 273.258 3.3171 273.672 2.87227C274.189 2.31622 274.403 2.07283 275.883 1.46466C277.362 0.856538 278.824 0.0573444 279.056 0.00509836C279.288 -0.0468882 280.246 0.315779 281.33 0.317763Z" fill="#E61717"/>
<path d="M309.221 0.0160651C309.337 -0.0320587 309.476 0.0319333 309.5 0.154656L313.482 19.9053C313.501 20.0007 313.442 20.0943 313.347 20.1185L308.509 21.3546C308.408 21.3803 308.306 21.3174 308.284 21.2159L305.556 8.64787L302.828 21.2159C302.806 21.3174 302.704 21.3803 302.603 21.3546L297.765 20.1185C297.67 20.0943 297.611 20.0007 297.631 19.9053L301.612 0.154656C301.637 0.031954 301.776 -0.0320126 301.892 0.0160651C302.846 0.411579 304.669 0.489957 305.545 0.476716L305.545 0.476559H305.568C306.444 0.489806 308.267 0.411585 309.221 0.0160651Z" fill="#E61717"/>
<path d="M330.303 0.317763C331.386 0.315779 332.345 -0.0468882 332.576 0.00509836C332.808 0.0573444 334.27 0.856538 335.75 1.46466C337.23 2.07283 337.444 2.31622 337.961 2.87227C338.374 3.3171 339.904 5.62918 340.618 6.7297C340.817 7.07723 340.707 7.39012 340.493 7.54651C339.892 7.88824 338.613 8.60633 338.299 8.74535C337.907 8.91909 337.747 8.88442 337.604 8.83231C337.462 8.78018 336.481 7.70302 336.41 7.65072C336.231 7.92875 336.106 8.29364 336.053 9.4231C335.999 10.5526 336.32 19.0148 336.32 19.5361C336.32 20.0574 336.374 20.3875 335.429 20.5266C334.676 20.6373 331.716 20.78 330.311 20.8384V20.8394C330.308 20.8392 330.305 20.839 330.303 20.8389C330.3 20.839 330.297 20.8392 330.294 20.8394V20.8386C328.889 20.7801 325.929 20.6373 325.176 20.5266C324.231 20.3875 324.285 20.0574 324.285 19.5361C324.285 19.0148 324.606 10.5526 324.552 9.4231C324.499 8.29364 324.374 7.92875 324.196 7.65072C324.124 7.70302 323.143 8.78018 323.001 8.83231C322.858 8.88442 322.698 8.91909 322.306 8.74535C321.992 8.60633 320.713 7.88824 320.112 7.54651C319.898 7.39012 319.788 7.07723 319.988 6.7297C320.701 5.62918 322.231 3.3171 322.644 2.87227C323.161 2.31622 323.375 2.07283 324.855 1.46466C326.335 0.856538 327.797 0.0573444 328.029 0.00509836C328.26 -0.0468882 329.219 0.315779 330.303 0.317763Z" fill="#E61717"/>
<path d="M10.4197 27.4096C11.5037 27.4076 12.462 27.0449 12.6931 27.0969C12.9251 27.1491 14.3871 27.9483 15.867 28.5565C17.3469 29.1646 17.5608 29.408 18.0778 29.9641C18.4915 30.4089 20.0214 32.721 20.7347 33.8215C20.9344 34.169 20.8237 34.4819 20.6098 34.6383C20.0096 34.98 18.7305 35.6981 18.4166 35.8371C18.0245 36.0109 17.8639 35.9762 17.7214 35.9241C17.5788 35.872 16.5981 34.7948 16.5267 34.7425C16.3483 35.0205 16.2236 35.3854 16.1701 36.5149C16.1166 37.6444 16.4374 46.1066 16.4374 46.6279C16.4374 47.1492 16.4909 47.4793 15.546 47.6184C14.7932 47.7291 11.8328 47.8718 10.4286 47.9302V47.9311C10.4257 47.931 10.4227 47.9308 10.4197 47.9307C10.4167 47.9308 10.4137 47.931 10.4108 47.9311V47.9304C9.00663 47.8719 6.04623 47.7291 5.29342 47.6184C4.34843 47.4793 4.40198 47.1492 4.40198 46.6279C4.40198 46.1066 4.72282 37.6444 4.66933 36.5149C4.61584 35.3854 4.49099 35.0205 4.31272 34.7425C4.24125 34.7948 3.26067 35.872 3.11803 35.9241C2.97541 35.9762 2.81493 36.0109 2.42271 35.8371C2.10885 35.6981 0.829882 34.98 0.229586 34.6383C0.0156488 34.4819 -0.0949956 34.169 0.104705 33.8215C0.81794 32.721 2.34792 30.4089 2.76158 29.9641C3.27867 29.408 3.49254 29.1646 4.97243 28.5565C6.45224 27.9483 7.91427 27.1491 8.14625 27.0969C8.37741 27.0449 9.3357 27.4076 10.4197 27.4096Z" fill="#E61717"/>
<path d="M39.0041 27.1075C39.1174 27.0605 39.253 27.123 39.2772 27.2427L43.1614 46.5116C43.1802 46.6046 43.1226 46.696 43.0302 46.7196L38.3104 47.9256C38.2118 47.9507 38.112 47.8892 38.0905 47.7903L35.4292 35.5287L32.768 47.7903C32.7465 47.8892 32.6466 47.9507 32.5481 47.9256L27.8281 46.7196C27.7358 46.696 27.6781 46.6046 27.6969 46.5116L31.5813 27.2427C31.6054 27.123 31.741 27.0606 31.8542 27.1075C32.7849 27.4933 34.5633 27.5698 35.4179 27.5569L35.4181 27.5567H35.4404C36.295 27.5697 38.0734 27.4933 39.0041 27.1075Z" fill="#E61717"/>
<path d="M59.6528 27.4175C60.7639 27.4155 61.7462 27.0437 61.9831 27.097C62.2209 27.1506 63.7195 27.9697 65.2363 28.5931C66.7532 29.2164 66.9725 29.4659 67.5024 30.0359C67.9264 30.4918 69.4946 32.8617 70.2257 33.9897C70.4304 34.346 70.317 34.6667 70.0977 34.827C69.4825 35.1772 68.1714 35.9133 67.8497 36.0558C67.4477 36.2339 67.2832 36.1983 67.1371 36.1449C66.9909 36.0915 65.9857 34.9874 65.9126 34.9338C65.7297 35.2188 65.6019 35.5928 65.547 36.7505C65.4921 37.9082 65.821 46.582 65.821 47.1163C65.821 47.6506 65.8758 47.989 64.9073 48.1316C64.1356 48.245 61.1012 48.3913 59.662 48.4512V48.4521C59.659 48.452 59.6559 48.4518 59.6528 48.4517C59.6498 48.4518 59.6467 48.452 59.6437 48.4521V48.4513C58.2045 48.3915 55.17 48.245 54.3984 48.1316C53.4298 47.989 53.4847 47.6506 53.4847 47.1163C53.4847 46.582 53.8135 37.9082 53.7587 36.7505C53.7039 35.5928 53.5759 35.2188 53.3932 34.9338C53.3199 34.9874 52.3148 36.0915 52.1686 36.1449C52.0224 36.1983 51.858 36.2339 51.4559 36.0558C51.1342 35.9133 49.8233 35.1772 49.208 34.827C48.9887 34.6667 48.8753 34.346 49.08 33.9897C49.811 32.8617 51.3793 30.4918 51.8033 30.0359C52.3333 29.4659 52.5525 29.2164 54.0694 28.5931C55.5862 27.9697 57.0848 27.1506 57.3226 27.097C57.5595 27.0437 58.5417 27.4155 59.6528 27.4175Z" fill="#E61717"/>
<path d="M87.9768 27.1075C88.09 27.0605 88.2257 27.123 88.2498 27.2427L92.1341 46.5116C92.1528 46.6046 92.0952 46.696 92.0029 46.7196L87.283 47.9256C87.1845 47.9507 87.0846 47.8892 87.0632 47.7903L84.4018 35.5287L81.7406 47.7903C81.7191 47.8892 81.6193 47.9507 81.5208 47.9256L76.8007 46.7196C76.7085 46.696 76.6508 46.6046 76.6695 46.5116L80.554 27.2427C80.5781 27.123 80.7136 27.0606 80.8268 27.1075C81.7575 27.4933 83.536 27.5698 84.3906 27.5569L84.3907 27.5567H84.4131C85.2676 27.5697 87.0461 27.4933 87.9768 27.1075Z" fill="#E61717"/>
<path d="M108.625 27.4175C109.737 27.4155 110.719 27.0437 110.956 27.097C111.194 27.1506 112.692 27.9697 114.209 28.5931C115.726 29.2164 115.945 29.4659 116.475 30.0359C116.899 30.4918 118.467 32.8617 119.198 33.9897C119.403 34.346 119.29 34.6667 119.07 34.827C118.455 35.1772 117.144 35.9133 116.822 36.0558C116.42 36.2339 116.256 36.1983 116.11 36.1449C115.964 36.0915 114.958 34.9874 114.885 34.9338C114.702 35.2188 114.575 35.5928 114.52 36.7505C114.465 37.9082 114.794 46.582 114.794 47.1163C114.794 47.6506 114.848 47.989 113.88 48.1316C113.108 48.245 110.074 48.3913 108.635 48.4512V48.4521C108.632 48.452 108.629 48.4518 108.625 48.4517C108.622 48.4518 108.619 48.452 108.616 48.4521V48.4513C107.177 48.3915 104.143 48.245 103.371 48.1316C102.402 47.989 102.457 47.6506 102.457 47.1163C102.457 46.582 102.786 37.9082 102.731 36.7505C102.677 35.5928 102.549 35.2188 102.366 34.9338C102.293 34.9874 101.287 36.0915 101.141 36.1449C100.995 36.1983 100.831 36.2339 100.429 36.0558C100.107 35.9133 98.7959 35.1772 98.1806 34.827C97.9614 34.6667 97.8479 34.346 98.0526 33.9897C98.7837 32.8617 100.352 30.4918 100.776 30.0359C101.306 29.4659 101.525 29.2164 103.042 28.5931C104.559 27.9697 106.057 27.1506 106.295 27.097C106.532 27.0437 107.514 27.4155 108.625 27.4175Z" fill="#E61717"/>
<path d="M136.949 27.1075C137.063 27.0605 137.198 27.123 137.222 27.2427L141.107 46.5116C141.125 46.6046 141.068 46.696 140.976 46.7196L136.256 47.9256C136.157 47.9507 136.057 47.8892 136.036 47.7903L133.374 35.5287L130.713 47.7903C130.692 47.8892 130.592 47.9507 130.493 47.9256L125.773 46.7196C125.681 46.696 125.623 46.6046 125.642 46.5116L129.527 27.2427C129.551 27.123 129.686 27.0606 129.8 27.1075C130.73 27.4933 132.509 27.5698 133.363 27.5569L133.363 27.5567H133.386C134.24 27.5697 136.019 27.4933 136.949 27.1075Z" fill="#E61717"/>
<path d="M158.379 27.4096C159.463 27.4076 160.421 27.0449 160.652 27.0969C160.884 27.1491 162.346 27.9483 163.826 28.5565C165.306 29.1646 165.52 29.408 166.037 29.9641C166.45 30.4089 167.98 32.721 168.694 33.8215C168.893 34.169 168.783 34.4819 168.569 34.6383C167.969 34.98 166.689 35.6981 166.376 35.8371C165.983 36.0109 165.823 35.9762 165.68 35.9241C165.538 35.872 164.557 34.7948 164.486 34.7425C164.307 35.0205 164.183 35.3854 164.129 36.5149C164.076 37.6444 164.396 46.1066 164.396 46.6279C164.396 47.1492 164.45 47.4793 163.505 47.6184C162.752 47.7291 159.792 47.8718 158.388 47.9302V47.9311C158.385 47.931 158.382 47.9308 158.379 47.9307C158.376 47.9308 158.373 47.931 158.37 47.9311V47.9304C156.966 47.8719 154.005 47.7291 153.252 47.6184C152.307 47.4793 152.361 47.1492 152.361 46.6279C152.361 46.1066 152.682 37.6444 152.628 36.5149C152.575 35.3854 152.45 35.0205 152.272 34.7425C152.2 34.7948 151.22 35.872 151.077 35.9241C150.934 35.9762 150.774 36.0109 150.382 35.8371C150.068 35.6981 148.789 34.98 148.189 34.6383C147.975 34.4819 147.864 34.169 148.064 33.8215C148.777 32.721 150.307 30.4089 150.721 29.9641C151.238 29.408 151.452 29.1646 152.931 28.5565C154.411 27.9483 155.873 27.1491 156.105 27.0969C156.336 27.0449 157.295 27.4076 158.379 27.4096Z" fill="#E61717"/>
<path d="M186.267 27.1079C186.383 27.0597 186.523 27.1237 186.547 27.2465L190.529 46.9971C190.548 47.0925 190.489 47.1861 190.394 47.2103L185.556 48.4464C185.455 48.4721 185.353 48.4092 185.331 48.3077L182.603 35.7397L179.875 48.3077C179.853 48.4092 179.751 48.4721 179.65 48.4464L174.812 47.2103C174.717 47.1861 174.658 47.0925 174.677 46.9971L178.659 27.2465C178.684 27.1238 178.823 27.0598 178.939 27.1079C179.893 27.5034 181.716 27.5818 182.591 27.5685L182.592 27.5684H182.615C183.49 27.5816 185.313 27.5034 186.267 27.1079Z" fill="#E61717"/>
<path d="M207.351 27.4096C208.435 27.4076 209.394 27.0449 209.625 27.0969C209.857 27.1491 211.319 27.9483 212.799 28.5565C214.279 29.1646 214.492 29.408 215.009 29.9641C215.423 30.4089 216.953 32.721 217.666 33.8215C217.866 34.169 217.755 34.4819 217.541 34.6383C216.941 34.98 215.662 35.6981 215.348 35.8371C214.956 36.0109 214.796 35.9762 214.653 35.9241C214.51 35.872 213.53 34.7948 213.458 34.7425C213.28 35.0205 213.155 35.3854 213.102 36.5149C213.048 37.6444 213.369 46.1066 213.369 46.6279C213.369 47.1492 213.423 47.4793 212.478 47.6184C211.725 47.7291 208.764 47.8718 207.36 47.9302V47.9311C207.357 47.931 207.354 47.9308 207.351 47.9307C207.348 47.9308 207.345 47.931 207.342 47.9311V47.9304C205.938 47.8719 202.978 47.7291 202.225 47.6184C201.28 47.4793 201.334 47.1492 201.334 46.6279C201.334 46.1066 201.654 37.6444 201.601 36.5149C201.547 35.3854 201.423 35.0205 201.244 34.7425C201.173 34.7948 200.192 35.872 200.05 35.9241C199.907 35.9762 199.747 36.0109 199.354 35.8371C199.04 35.6981 197.762 34.98 197.161 34.6383C196.947 34.4819 196.837 34.169 197.036 33.8215C197.75 32.721 199.28 30.4089 199.693 29.9641C200.21 29.408 200.424 29.1646 201.904 28.5565C203.384 27.9483 204.846 27.1491 205.078 27.0969C205.309 27.0449 206.267 27.4076 207.351 27.4096Z" fill="#E61717"/>
<path d="M235.936 27.1075C236.049 27.0605 236.185 27.123 236.209 27.2427L240.093 46.5116C240.112 46.6046 240.054 46.696 239.962 46.7196L235.242 47.9256C235.143 47.9507 235.044 47.8892 235.022 47.7903L232.361 35.5287L229.7 47.7903C229.678 47.8892 229.578 47.9507 229.48 47.9256L224.76 46.7196C224.667 46.696 224.61 46.6046 224.629 46.5116L228.513 27.2427C228.537 27.123 228.673 27.0606 228.786 27.1075C229.716 27.4933 231.495 27.5698 232.35 27.5569L232.35 27.5567H232.372C233.227 27.5697 235.005 27.4933 235.936 27.1075Z" fill="#E61717"/>
<path d="M256.584 27.4175C257.696 27.4155 258.678 27.0437 258.915 27.097C259.153 27.1506 260.651 27.9697 262.168 28.5931C263.685 29.2164 263.904 29.4659 264.434 30.0359C264.858 30.4918 266.426 32.8617 267.157 33.9897C267.362 34.346 267.249 34.6667 267.029 34.827C266.414 35.1772 265.103 35.9133 264.781 36.0558C264.379 36.2339 264.215 36.1983 264.069 36.1449C263.923 36.0915 262.917 34.9874 262.844 34.9338C262.661 35.2188 262.533 35.5928 262.479 36.7505C262.424 37.9082 262.753 46.582 262.753 47.1163C262.753 47.6506 262.807 47.989 261.839 48.1316C261.067 48.245 258.033 48.3913 256.594 48.4512V48.4521C256.591 48.452 256.588 48.4518 256.584 48.4517C256.581 48.4518 256.578 48.452 256.575 48.4521V48.4513C255.136 48.3915 252.102 48.245 251.33 48.1316C250.361 47.989 250.416 47.6506 250.416 47.1163C250.416 46.582 250.745 37.9082 250.69 36.7505C250.636 35.5928 250.508 35.2188 250.325 34.9338C250.252 34.9874 249.246 36.0915 249.1 36.1449C248.954 36.1983 248.79 36.2339 248.388 36.0558C248.066 35.9133 246.755 35.1772 246.14 34.827C245.92 34.6667 245.807 34.346 246.012 33.9897C246.743 32.8617 248.311 30.4918 248.735 30.0359C249.265 29.4659 249.484 29.2164 251.001 28.5931C252.518 27.9697 254.016 27.1506 254.254 27.097C254.491 27.0437 255.473 27.4155 256.584 27.4175Z" fill="#E61717"/>
<path d="M284.906 27.1075C285.02 27.0605 285.155 27.123 285.18 27.2427L289.064 46.5116C289.083 46.6046 289.025 46.696 288.933 46.7196L284.213 47.9256C284.114 47.9507 284.014 47.8892 283.993 47.7903L281.332 35.5287L278.67 47.7903C278.649 47.8892 278.549 47.9507 278.45 47.9256L273.73 46.7196C273.638 46.696 273.58 46.6046 273.599 46.5116L277.484 27.2427C277.508 27.123 277.643 27.0606 277.757 27.1075C278.687 27.4933 280.466 27.5698 281.32 27.5569L281.32 27.5567H281.343C282.197 27.5697 283.976 27.4933 284.906 27.1075Z" fill="#E61717"/>
<path d="M305.557 27.4175C306.668 27.4155 307.65 27.0437 307.887 27.097C308.125 27.1506 309.624 27.9697 311.141 28.5931C312.658 29.2164 312.877 29.4659 313.407 30.0359C313.831 30.4918 315.399 32.8617 316.13 33.9897C316.335 34.346 316.221 34.6667 316.002 34.827C315.387 35.1772 314.076 35.9133 313.754 36.0558C313.352 36.2339 313.187 36.1983 313.041 36.1449C312.895 36.0915 311.89 34.9874 311.817 34.9338C311.634 35.2188 311.506 35.5928 311.451 36.7505C311.396 37.9082 311.725 46.582 311.725 47.1163C311.725 47.6506 311.78 47.989 310.812 48.1316C310.04 48.245 307.006 48.3913 305.566 48.4512V48.4521C305.563 48.452 305.56 48.4518 305.557 48.4517C305.554 48.4518 305.551 48.452 305.548 48.4521V48.4513C304.109 48.3915 301.074 48.245 300.303 48.1316C299.334 47.989 299.389 47.6506 299.389 47.1163C299.389 46.582 299.718 37.9082 299.663 36.7505C299.608 35.5928 299.48 35.2188 299.297 34.9338C299.224 34.9874 298.219 36.0915 298.073 36.1449C297.927 36.1983 297.762 36.2339 297.36 36.0558C297.039 35.9133 295.728 35.1772 295.112 34.827C294.893 34.6667 294.78 34.346 294.984 33.9897C295.715 32.8617 297.284 30.4918 297.708 30.0359C298.238 29.4659 298.457 29.2164 299.974 28.5931C301.491 27.9697 302.989 27.1506 303.227 27.097C303.464 27.0437 304.446 27.4155 305.557 27.4175Z" fill="#E61717"/>
<path d="M333.879 27.1075C333.992 27.0605 334.128 27.123 334.152 27.2427L338.036 46.5116C338.055 46.6046 337.998 46.696 337.905 46.7196L333.185 47.9256C333.087 47.9507 332.987 47.8892 332.966 47.7903L330.304 35.5287L327.643 47.7903C327.621 47.8892 327.522 47.9507 327.423 47.9256L322.703 46.7196C322.611 46.696 322.553 46.6046 322.572 46.5116L326.456 27.2427C326.48 27.123 326.616 27.0606 326.729 27.1075C327.66 27.4933 329.438 27.5698 330.293 27.5569L330.293 27.5567H330.315C331.17 27.5697 332.948 27.4933 333.879 27.1075Z" fill="#E61717"/>
<path d="M13.9963 53.1563C14.1096 53.1093 14.2452 53.1718 14.2694 53.2915L18.1536 72.5605C18.1724 72.6535 18.1147 72.7449 18.0224 72.7684L13.3025 73.9744C13.204 73.9995 13.1042 73.9381 13.0827 73.8391L10.4213 61.5776L7.76017 73.8391C7.73868 73.9381 7.63882 73.9995 7.54031 73.9744L2.82028 72.7684C2.72799 72.7449 2.67033 72.6535 2.68908 72.5605L6.57349 53.2915C6.59761 53.1718 6.73315 53.1094 6.84638 53.1563C7.77704 53.5422 9.55552 53.6186 10.4101 53.6057L10.4103 53.6056H10.4326C11.2871 53.6185 13.0656 53.5422 13.9963 53.1563Z" fill="#E61717"/>
<path d="M13.9963 107.016C14.1096 106.969 14.2452 107.031 14.2694 107.151L18.1536 126.42C18.1724 126.513 18.1147 126.604 18.0224 126.628L13.3025 127.834C13.204 127.859 13.1042 127.797 13.0827 127.698L10.4213 115.437L7.76017 127.698C7.73868 127.797 7.63882 127.859 7.54031 127.834L2.82028 126.628C2.72799 126.604 2.67033 126.513 2.68908 126.42L6.57349 107.151C6.59761 107.031 6.73315 106.969 6.84638 107.016C7.77704 107.402 9.55552 107.478 10.4101 107.465L10.4103 107.465H10.4326C11.2871 107.478 13.0656 107.402 13.9963 107.016Z" fill="#E61717"/>
<path d="M35.4275 53.4584C36.5115 53.4564 37.4698 53.0937 37.7009 53.1457C37.9329 53.198 39.395 53.9972 40.8748 54.6053C42.3547 55.2135 42.5686 55.4568 43.0856 56.0129C43.4993 56.4577 45.0292 58.7698 45.7425 59.8703C45.9422 60.2179 45.8315 60.5307 45.6176 60.6871C45.0174 61.0289 43.7383 61.747 43.4244 61.886C43.0323 62.0597 42.8717 62.025 42.7292 61.9729C42.5866 61.9208 41.6059 60.8436 41.5345 60.7913C41.3561 61.0694 41.2314 61.4343 41.1779 62.5637C41.1244 63.6933 41.4452 72.1554 41.4452 72.6767C41.4452 73.198 41.4987 73.5281 40.5538 73.6672C39.801 73.7779 36.8406 73.9206 35.4364 73.979V73.98C35.4335 73.9798 35.4305 73.9797 35.4275 73.9795C35.4245 73.9797 35.4215 73.9798 35.4186 73.98V73.9792C34.0144 73.9208 31.054 73.7779 30.3012 73.6672C29.3562 73.5281 29.4098 73.198 29.4098 72.6767C29.4098 72.1554 29.7306 63.6933 29.6771 62.5637C29.6237 61.4343 29.4988 61.0694 29.3205 60.7913C29.2491 60.8436 28.2685 61.9208 28.1258 61.9729C27.9832 62.025 27.8227 62.0597 27.4305 61.886C27.1167 61.747 25.8377 61.0289 25.2374 60.6871C25.0235 60.5307 24.9128 60.2179 25.1125 59.8703C25.8258 58.7698 27.3557 56.4577 27.7694 56.0129C28.2865 55.4568 28.5003 55.2135 29.9802 54.6053C31.4601 53.9972 32.9221 53.198 33.1541 53.1457C33.3852 53.0937 34.3435 53.4564 35.4275 53.4584Z" fill="#E61717"/>
<path d="M35.4275 107.318C36.5115 107.316 37.4698 106.953 37.7009 107.005C37.9329 107.057 39.395 107.857 40.8748 108.465C42.3547 109.073 42.5686 109.316 43.0856 109.872C43.4993 110.317 45.0292 112.629 45.7425 113.73C45.9422 114.077 45.8315 114.39 45.6176 114.547C45.0174 114.888 43.7383 115.606 43.4244 115.745C43.0323 115.919 42.8717 115.884 42.7292 115.832C42.5866 115.78 41.6059 114.703 41.5345 114.651C41.3561 114.929 41.2314 115.294 41.1779 116.423C41.1244 117.553 41.4452 126.015 41.4452 126.536C41.4452 127.057 41.4987 127.388 40.5538 127.527C39.801 127.637 36.8406 127.78 35.4364 127.838V127.839C35.4335 127.839 35.4305 127.839 35.4275 127.839C35.4245 127.839 35.4215 127.839 35.4186 127.839V127.839C34.0144 127.78 31.054 127.637 30.3012 127.527C29.3562 127.388 29.4098 127.057 29.4098 126.536C29.4098 126.015 29.7306 117.553 29.6771 116.423C29.6237 115.294 29.4988 114.929 29.3205 114.651C29.2491 114.703 28.2685 115.78 28.1258 115.832C27.9832 115.884 27.8227 115.919 27.4305 115.745C27.1167 115.606 25.8377 114.888 25.2374 114.547C25.0235 114.39 24.9128 114.077 25.1125 113.73C25.8258 112.629 27.3557 110.317 27.7694 109.872C28.2865 109.316 28.5003 109.073 29.9802 108.465C31.4601 107.857 32.9221 107.057 33.1541 107.005C33.3852 106.953 34.3435 107.316 35.4275 107.318Z" fill="#E61717"/>
<path d="M63.3162 53.1567C63.4323 53.1086 63.5713 53.1726 63.5961 53.2953L67.5774 73.046C67.5967 73.1413 67.5376 73.235 67.443 73.2591L62.6051 74.4952C62.5041 74.521 62.4018 74.458 62.3797 74.3566L59.6519 61.7885L56.9241 74.3566C56.9021 74.458 56.7998 74.521 56.6988 74.4952L51.8608 73.2591C51.7662 73.235 51.7071 73.1413 51.7263 73.046L55.7078 53.2953C55.7325 53.1726 55.8714 53.1086 55.9875 53.1567C56.9414 53.5522 58.7644 53.6306 59.6403 53.6173L59.6405 53.6172H59.6634C60.5393 53.6304 62.3622 53.5522 63.3162 53.1567Z" fill="#E61717"/>
<path d="M63.3162 107.016C63.4323 106.968 63.5713 107.032 63.5961 107.155L67.5774 126.905C67.5967 127.001 67.5376 127.094 67.443 127.118L62.6051 128.355C62.5041 128.38 62.4018 128.317 62.3797 128.216L59.6519 115.648L56.9241 128.216C56.9021 128.317 56.7998 128.38 56.6988 128.355L51.8608 127.118C51.7662 127.094 51.7071 127.001 51.7263 126.905L55.7078 107.155C55.7325 107.032 55.8714 106.968 55.9875 107.016C56.9414 107.412 58.7644 107.49 59.6403 107.477L59.6405 107.477H59.6634C60.5393 107.49 62.3622 107.412 63.3162 107.016Z" fill="#E61717"/>
<path d="M84.4002 53.4584C85.4842 53.4564 86.4424 53.0937 86.6736 53.1457C86.9056 53.198 88.3676 53.9972 89.8474 54.6053C91.3273 55.2135 91.5413 55.4568 92.0583 56.0129C92.4719 56.4577 94.0019 58.7698 94.7152 59.8703C94.9149 60.2179 94.8042 60.5307 94.5903 60.6871C93.99 61.0289 92.711 61.747 92.3971 61.886C92.0049 62.0597 91.8444 62.025 91.7018 61.9729C91.5593 61.9208 90.5786 60.8436 90.5072 60.7913C90.3288 61.0694 90.2041 61.4343 90.1506 62.5637C90.097 63.6933 90.4178 72.1554 90.4178 72.6767C90.4178 73.198 90.4714 73.5281 89.5264 73.6672C88.7736 73.7779 85.8132 73.9206 84.4091 73.979V73.98C84.4061 73.9798 84.4031 73.9797 84.4002 73.9795C84.3972 73.9797 84.3942 73.9798 84.3912 73.98V73.9792C82.9871 73.9208 80.0267 73.7779 79.2739 73.6672C78.3289 73.5281 78.3825 73.198 78.3825 72.6767C78.3825 72.1554 78.7033 63.6933 78.6498 62.5637C78.5963 61.4343 78.4715 61.0694 78.2932 60.7913C78.2217 60.8436 77.2411 61.9208 77.0985 61.9729C76.9559 62.025 76.7954 62.0597 76.4032 61.886C76.0893 61.747 74.8104 61.0289 74.2101 60.6871C73.9961 60.5307 73.8855 60.2179 74.0852 59.8703C74.7984 58.7698 76.3284 56.4577 76.7421 56.0129C77.2591 55.4568 77.473 55.2135 78.9529 54.6053C80.4327 53.9972 81.8947 53.198 82.1267 53.1457C82.3579 53.0937 83.3162 53.4564 84.4002 53.4584Z" fill="#E61717"/>
<path d="M84.4002 107.318C85.4842 107.316 86.4424 106.953 86.6736 107.005C86.9056 107.057 88.3676 107.857 89.8474 108.465C91.3273 109.073 91.5413 109.316 92.0583 109.872C92.4719 110.317 94.0019 112.629 94.7152 113.73C94.9149 114.077 94.8042 114.39 94.5903 114.547C93.99 114.888 92.711 115.606 92.3971 115.745C92.0049 115.919 91.8444 115.884 91.7018 115.832C91.5593 115.78 90.5786 114.703 90.5072 114.651C90.3288 114.929 90.2041 115.294 90.1506 116.423C90.097 117.553 90.4178 126.015 90.4178 126.536C90.4178 127.057 90.4714 127.388 89.5264 127.527C88.7736 127.637 85.8132 127.78 84.4091 127.838V127.839C84.4061 127.839 84.4031 127.839 84.4002 127.839C84.3972 127.839 84.3942 127.839 84.3912 127.839V127.839C82.9871 127.78 80.0267 127.637 79.2739 127.527C78.3289 127.388 78.3825 127.057 78.3825 126.536C78.3825 126.015 78.7033 117.553 78.6498 116.423C78.5963 115.294 78.4715 114.929 78.2932 114.651C78.2217 114.703 77.2411 115.78 77.0985 115.832C76.9559 115.884 76.7954 115.919 76.4032 115.745C76.0893 115.606 74.8104 114.888 74.2101 114.547C73.9961 114.39 73.8855 114.077 74.0852 113.73C74.7984 112.629 76.3284 110.317 76.7421 109.872C77.2591 109.316 77.473 109.073 78.9529 108.465C80.4327 107.857 81.8947 107.057 82.1267 107.005C82.3579 106.953 83.3162 107.316 84.4002 107.318Z" fill="#E61717"/>
<path d="M112.289 53.1567C112.405 53.1086 112.544 53.1726 112.569 53.2953L116.55 73.046C116.569 73.1413 116.51 73.235 116.416 73.2591L111.578 74.4952C111.477 74.521 111.374 74.458 111.352 74.3566L108.625 61.7885L105.897 74.3566C105.875 74.458 105.772 74.521 105.671 74.4952L100.833 73.2591C100.739 73.235 100.68 73.1413 100.699 73.046L104.68 53.2953C104.705 53.1726 104.844 53.1086 104.96 53.1567C105.914 53.5522 107.737 53.6306 108.613 53.6173L108.613 53.6172H108.636C109.512 53.6304 111.335 53.5522 112.289 53.1567Z" fill="#E61717"/>
<path d="M112.289 107.016C112.405 106.968 112.544 107.032 112.569 107.155L116.55 126.905C116.569 127.001 116.51 127.094 116.416 127.118L111.578 128.355C111.477 128.38 111.374 128.317 111.352 128.216L108.625 115.648L105.897 128.216C105.875 128.317 105.772 128.38 105.671 128.355L100.833 127.118C100.739 127.094 100.68 127.001 100.699 126.905L104.68 107.155C104.705 107.032 104.844 106.968 104.96 107.016C105.914 107.412 107.737 107.49 108.613 107.477L108.613 107.477H108.636C109.512 107.49 111.335 107.412 112.289 107.016Z" fill="#E61717"/>
<path d="M133.373 53.4584C134.457 53.4564 135.415 53.0937 135.646 53.1457C135.878 53.198 137.34 53.9972 138.82 54.6053C140.3 55.2135 140.514 55.4568 141.031 56.0129C141.445 56.4577 142.975 58.7698 143.688 59.8703C143.888 60.2179 143.777 60.5307 143.563 60.6871C142.963 61.0289 141.684 61.747 141.37 61.886C140.978 62.0597 140.817 62.025 140.674 61.9729C140.532 61.9208 139.551 60.8436 139.48 60.7913C139.301 61.0694 139.177 61.4343 139.123 62.5637C139.07 63.6933 139.39 72.1554 139.39 72.6767C139.39 73.198 139.444 73.5281 138.499 73.6672C137.746 73.7779 134.786 73.9206 133.382 73.979V73.98C133.379 73.9798 133.376 73.9797 133.373 73.9795C133.37 73.9797 133.367 73.9798 133.364 73.98V73.9792C131.96 73.9208 128.999 73.7779 128.247 73.6672C127.302 73.5281 127.355 73.198 127.355 72.6767C127.355 72.1554 127.676 63.6933 127.622 62.5637C127.569 61.4343 127.444 61.0694 127.266 60.7913C127.194 60.8436 126.214 61.9208 126.071 61.9729C125.929 62.025 125.768 62.0597 125.376 61.886C125.062 61.747 123.783 61.0289 123.183 60.6871C122.969 60.5307 122.858 60.2179 123.058 59.8703C123.771 58.7698 125.301 56.4577 125.715 56.0129C126.232 55.4568 126.446 55.2135 127.926 54.6053C129.405 53.9972 130.867 53.198 131.099 53.1457C131.331 53.0937 132.289 53.4564 133.373 53.4584Z" fill="#E61717"/>
<path d="M133.373 107.318C134.457 107.316 135.415 106.953 135.646 107.005C135.878 107.057 137.34 107.857 138.82 108.465C140.3 109.073 140.514 109.316 141.031 109.872C141.445 110.317 142.975 112.629 143.688 113.73C143.888 114.077 143.777 114.39 143.563 114.547C142.963 114.888 141.684 115.606 141.37 115.745C140.978 115.919 140.817 115.884 140.674 115.832C140.532 115.78 139.551 114.703 139.48 114.651C139.301 114.929 139.177 115.294 139.123 116.423C139.07 117.553 139.39 126.015 139.39 126.536C139.39 127.057 139.444 127.388 138.499 127.527C137.746 127.637 134.786 127.78 133.382 127.838V127.839C133.379 127.839 133.376 127.839 133.373 127.839C133.37 127.839 133.367 127.839 133.364 127.839V127.839C131.96 127.78 128.999 127.637 128.247 127.527C127.302 127.388 127.355 127.057 127.355 126.536C127.355 126.015 127.676 117.553 127.622 116.423C127.569 115.294 127.444 114.929 127.266 114.651C127.194 114.703 126.214 115.78 126.071 115.832C125.929 115.884 125.768 115.919 125.376 115.745C125.062 115.606 123.783 114.888 123.183 114.547C122.969 114.39 122.858 114.077 123.058 113.73C123.771 112.629 125.301 110.317 125.715 109.872C126.232 109.316 126.446 109.073 127.926 108.465C129.405 107.857 130.867 107.057 131.099 107.005C131.331 106.953 132.289 107.316 133.373 107.318Z" fill="#E61717"/>
<path d="M161.955 53.1563C162.069 53.1093 162.204 53.1718 162.228 53.2915L166.113 72.5605C166.131 72.6535 166.074 72.7449 165.981 72.7684L161.262 73.9744C161.163 73.9995 161.063 73.9381 161.042 73.8391L158.38 61.5776L155.719 73.8391C155.698 73.9381 155.598 73.9995 155.499 73.9744L150.779 72.7684C150.687 72.7449 150.629 72.6535 150.648 72.5605L154.532 53.2915C154.557 53.1718 154.692 53.1094 154.805 53.1563C155.736 53.5422 157.515 53.6186 158.369 53.6057L158.369 53.6056H158.392C159.246 53.6185 161.025 53.5422 161.955 53.1563Z" fill="#E61717"/>
<path d="M161.955 107.016C162.069 106.969 162.204 107.031 162.228 107.151L166.113 126.42C166.131 126.513 166.074 126.604 165.981 126.628L161.262 127.834C161.163 127.859 161.063 127.797 161.042 127.698L158.38 115.437L155.719 127.698C155.698 127.797 155.598 127.859 155.499 127.834L150.779 126.628C150.687 126.604 150.629 126.513 150.648 126.42L154.532 107.151C154.557 107.031 154.692 106.969 154.805 107.016C155.736 107.402 157.515 107.478 158.369 107.465L158.369 107.465H158.392C159.246 107.478 161.025 107.402 161.955 107.016Z" fill="#E61717"/>
<path d="M182.604 53.4663C183.715 53.4643 184.697 53.0926 184.934 53.1459C185.172 53.1994 186.671 54.0186 188.187 54.6419C189.704 55.2653 189.924 55.5148 190.454 56.0847C190.878 56.5407 192.446 58.9105 193.177 60.0386C193.382 60.3948 193.268 60.7155 193.049 60.8758C192.434 61.2261 191.123 61.9621 190.801 62.1046C190.399 62.2827 190.234 62.2472 190.088 62.1937C189.942 62.1403 188.937 61.0362 188.864 60.9826C188.681 61.2676 188.553 61.6416 188.498 62.7993C188.443 63.9571 188.772 72.6308 188.772 73.1651C188.772 73.6995 188.827 74.0378 187.858 74.1804C187.087 74.2938 184.052 74.4401 182.613 74.5V74.501C182.61 74.5008 182.607 74.5006 182.604 74.5005C182.601 74.5006 182.598 74.5008 182.595 74.501V74.5002C181.156 74.4403 178.121 74.2938 177.35 74.1804C176.381 74.0378 176.436 73.6995 176.436 73.1651C176.436 72.6308 176.765 63.9571 176.71 62.7993C176.655 61.6416 176.527 61.2676 176.344 60.9826C176.271 61.0362 175.266 62.1403 175.12 62.1937C174.974 62.2472 174.809 62.2827 174.407 62.1046C174.085 61.9621 172.774 61.2261 172.159 60.8758C171.94 60.7155 171.826 60.3948 172.031 60.0386C172.762 58.9105 174.33 56.5407 174.754 56.0847C175.284 55.5148 175.504 55.2653 177.021 54.6419C178.537 54.0186 180.036 53.1994 180.274 53.1459C180.511 53.0926 181.493 53.4643 182.604 53.4663Z" fill="#E61717"/>
<path d="M182.604 107.326C183.715 107.324 184.697 106.952 184.934 107.005C185.172 107.059 186.671 107.878 188.187 108.501C189.704 109.125 189.924 109.374 190.454 109.944C190.878 110.4 192.446 112.77 193.177 113.898C193.382 114.254 193.268 114.575 193.049 114.735C192.434 115.085 191.123 115.821 190.801 115.964C190.399 116.142 190.234 116.107 190.088 116.053C189.942 116 188.937 114.896 188.864 114.842C188.681 115.127 188.553 115.501 188.498 116.659C188.443 117.816 188.772 126.49 188.772 127.025C188.772 127.559 188.827 127.897 187.858 128.04C187.087 128.153 184.052 128.299 182.613 128.359V128.36C182.61 128.36 182.607 128.36 182.604 128.36C182.601 128.36 182.598 128.36 182.595 128.36V128.36C181.156 128.3 178.121 128.153 177.35 128.04C176.381 127.897 176.436 127.559 176.436 127.025C176.436 126.49 176.765 117.816 176.71 116.659C176.655 115.501 176.527 115.127 176.344 114.842C176.271 114.896 175.266 116 175.12 116.053C174.974 116.107 174.809 116.142 174.407 115.964C174.085 115.821 172.774 115.085 172.159 114.735C171.94 114.575 171.826 114.254 172.031 113.898C172.762 112.77 174.33 110.4 174.754 109.944C175.284 109.374 175.504 109.125 177.021 108.501C178.537 107.878 180.036 107.059 180.274 107.005C180.511 106.952 181.493 107.324 182.604 107.326Z" fill="#E61717"/>
<path d="M210.928 53.1563C211.041 53.1093 211.177 53.1718 211.201 53.2915L215.085 72.5605C215.104 72.6535 215.046 72.7449 214.954 72.7684L210.234 73.9744C210.136 73.9995 210.036 73.9381 210.014 73.8391L207.353 61.5776L204.692 73.8391C204.67 73.9381 204.57 73.9995 204.472 73.9744L199.752 72.7684C199.66 72.7449 199.602 72.6535 199.621 72.5605L203.505 53.2915C203.529 53.1718 203.665 53.1094 203.778 53.1563C204.709 53.5422 206.487 53.6186 207.342 53.6057L207.342 53.6056H207.364C208.219 53.6185 209.997 53.5422 210.928 53.1563Z" fill="#E61717"/>
<path d="M210.928 107.016C211.041 106.969 211.177 107.031 211.201 107.151L215.085 126.42C215.104 126.513 215.046 126.604 214.954 126.628L210.234 127.834C210.136 127.859 210.036 127.797 210.014 127.698L207.353 115.437L204.692 127.698C204.67 127.797 204.57 127.859 204.472 127.834L199.752 126.628C199.66 126.604 199.602 126.513 199.621 126.42L203.505 107.151C203.529 107.031 203.665 106.969 203.778 107.016C204.709 107.402 206.487 107.478 207.342 107.465L207.342 107.465H207.364C208.219 107.478 209.997 107.402 210.928 107.016Z" fill="#E61717"/>
<path d="M232.359 53.4584C233.443 53.4564 234.401 53.0937 234.633 53.1457C234.865 53.198 236.327 53.9972 237.806 54.6053C239.286 55.2135 239.5 55.4568 240.017 56.0129C240.431 56.4577 241.961 58.7698 242.674 59.8703C242.874 60.2179 242.763 60.5307 242.549 60.6871C241.949 61.0289 240.67 61.747 240.356 61.886C239.964 62.0597 239.803 62.025 239.661 61.9729C239.518 61.9208 238.538 60.8436 238.466 60.7913C238.288 61.0694 238.163 61.4343 238.11 62.5637C238.056 63.6933 238.377 72.1554 238.377 72.6767C238.377 73.198 238.43 73.5281 237.485 73.6672C236.733 73.7779 233.772 73.9206 232.368 73.979V73.98C232.365 73.9798 232.362 73.9797 232.359 73.9795C232.356 73.9797 232.353 73.9798 232.35 73.98V73.9792C230.946 73.9208 227.986 73.7779 227.233 73.6672C226.288 73.5281 226.341 73.198 226.341 72.6767C226.341 72.1554 226.662 63.6933 226.609 62.5637C226.555 61.4343 226.43 61.0694 226.252 60.7913C226.181 60.8436 225.2 61.9208 225.057 61.9729C224.915 62.025 224.754 62.0597 224.362 61.886C224.048 61.747 222.769 61.0289 222.169 60.6871C221.955 60.5307 221.844 60.2179 222.044 59.8703C222.757 58.7698 224.287 56.4577 224.701 56.0129C225.218 55.4568 225.432 55.2135 226.912 54.6053C228.392 53.9972 229.854 53.198 230.086 53.1457C230.317 53.0937 231.275 53.4564 232.359 53.4584Z" fill="#E61717"/>
<path d="M232.359 107.318C233.443 107.316 234.401 106.953 234.633 107.005C234.865 107.057 236.327 107.857 237.806 108.465C239.286 109.073 239.5 109.316 240.017 109.872C240.431 110.317 241.961 112.629 242.674 113.73C242.874 114.077 242.763 114.39 242.549 114.547C241.949 114.888 240.67 115.606 240.356 115.745C239.964 115.919 239.803 115.884 239.661 115.832C239.518 115.78 238.538 114.703 238.466 114.651C238.288 114.929 238.163 115.294 238.11 116.423C238.056 117.553 238.377 126.015 238.377 126.536C238.377 127.057 238.43 127.388 237.485 127.527C236.733 127.637 233.772 127.78 232.368 127.838V127.839C232.365 127.839 232.362 127.839 232.359 127.839C232.356 127.839 232.353 127.839 232.35 127.839V127.839C230.946 127.78 227.986 127.637 227.233 127.527C226.288 127.388 226.341 127.057 226.341 126.536C226.341 126.015 226.662 117.553 226.609 116.423C226.555 115.294 226.43 114.929 226.252 114.651C226.181 114.703 225.2 115.78 225.057 115.832C224.915 115.884 224.754 115.919 224.362 115.745C224.048 115.606 222.769 114.888 222.169 114.547C221.955 114.39 221.844 114.077 222.044 113.73C222.757 112.629 224.287 110.317 224.701 109.872C225.218 109.316 225.432 109.073 226.912 108.465C228.392 107.857 229.854 107.057 230.086 107.005C230.317 106.953 231.275 107.316 232.359 107.318Z" fill="#E61717"/>
<path d="M260.248 53.1567C260.364 53.1086 260.503 53.1726 260.528 53.2953L264.509 73.046C264.528 73.1413 264.469 73.235 264.375 73.2591L259.537 74.4952C259.436 74.521 259.333 74.458 259.311 74.3566L256.583 61.7885L253.856 74.3566C253.834 74.458 253.731 74.521 253.63 74.4952L248.792 73.2591C248.698 73.235 248.639 73.1413 248.658 73.046L252.639 53.2953C252.664 53.1726 252.803 53.1086 252.919 53.1567C253.873 53.5522 255.696 53.6306 256.572 53.6173L256.572 53.6172H256.595C257.471 53.6304 259.294 53.5522 260.248 53.1567Z" fill="#E61717"/>
<path d="M260.248 107.016C260.364 106.968 260.503 107.032 260.528 107.155L264.509 126.905C264.528 127.001 264.469 127.094 264.375 127.118L259.537 128.355C259.436 128.38 259.333 128.317 259.311 128.216L256.583 115.648L253.856 128.216C253.834 128.317 253.731 128.38 253.63 128.355L248.792 127.118C248.698 127.094 248.639 127.001 248.658 126.905L252.639 107.155C252.664 107.032 252.803 106.968 252.919 107.016C253.873 107.412 255.696 107.49 256.572 107.477L256.572 107.477H256.595C257.471 107.49 259.294 107.412 260.248 107.016Z" fill="#E61717"/>
<path d="M281.33 53.4584C282.414 53.4564 283.372 53.0937 283.603 53.1457C283.835 53.198 285.297 53.9972 286.777 54.6053C288.257 55.2135 288.471 55.4568 288.988 56.0129C289.402 56.4577 290.932 58.7698 291.645 59.8703C291.845 60.2179 291.734 60.5307 291.52 60.6871C290.92 61.0289 289.641 61.747 289.327 61.886C288.935 62.0597 288.774 62.025 288.632 61.9729C288.489 61.9208 287.508 60.8436 287.437 60.7913C287.258 61.0694 287.134 61.4343 287.08 62.5637C287.027 63.6933 287.348 72.1554 287.348 72.6767C287.348 73.198 287.401 73.5281 286.456 73.6672C285.703 73.7779 282.743 73.9206 281.339 73.979V73.98C281.336 73.9798 281.333 73.9797 281.33 73.9795C281.327 73.9797 281.324 73.9798 281.321 73.98V73.9792C279.917 73.9208 276.956 73.7779 276.204 73.6672C275.259 73.5281 275.312 73.198 275.312 72.6767C275.312 72.1554 275.633 63.6933 275.579 62.5637C275.526 61.4343 275.401 61.0694 275.223 60.7913C275.151 60.8436 274.171 61.9208 274.028 61.9729C273.886 62.025 273.725 62.0597 273.333 61.886C273.019 61.747 271.74 61.0289 271.14 60.6871C270.926 60.5307 270.815 60.2179 271.015 59.8703C271.728 58.7698 273.258 56.4577 273.672 56.0129C274.189 55.4568 274.403 55.2135 275.883 54.6053C277.362 53.9972 278.824 53.198 279.056 53.1457C279.288 53.0937 280.246 53.4564 281.33 53.4584Z" fill="#E61717"/>
<path d="M281.33 107.318C282.414 107.316 283.372 106.953 283.603 107.005C283.835 107.057 285.297 107.857 286.777 108.465C288.257 109.073 288.471 109.316 288.988 109.872C289.402 110.317 290.932 112.629 291.645 113.73C291.845 114.077 291.734 114.39 291.52 114.547C290.92 114.888 289.641 115.606 289.327 115.745C288.935 115.919 288.774 115.884 288.632 115.832C288.489 115.78 287.508 114.703 287.437 114.651C287.258 114.929 287.134 115.294 287.08 116.423C287.027 117.553 287.348 126.015 287.348 126.536C287.348 127.057 287.401 127.388 286.456 127.527C285.703 127.637 282.743 127.78 281.339 127.838V127.839C281.336 127.839 281.333 127.839 281.33 127.839C281.327 127.839 281.324 127.839 281.321 127.839V127.839C279.917 127.78 276.956 127.637 276.204 127.527C275.259 127.388 275.312 127.057 275.312 126.536C275.312 126.015 275.633 117.553 275.579 116.423C275.526 115.294 275.401 114.929 275.223 114.651C275.151 114.703 274.171 115.78 274.028 115.832C273.886 115.884 273.725 115.919 273.333 115.745C273.019 115.606 271.74 114.888 271.14 114.547C270.926 114.39 270.815 114.077 271.015 113.73C271.728 112.629 273.258 110.317 273.672 109.872C274.189 109.316 274.403 109.073 275.883 108.465C277.362 107.857 278.824 107.057 279.056 107.005C279.288 106.953 280.246 107.316 281.33 107.318Z" fill="#E61717"/>
<path d="M309.221 53.1567C309.337 53.1086 309.476 53.1726 309.5 53.2953L313.482 73.046C313.501 73.1413 313.442 73.235 313.347 73.2591L308.509 74.4952C308.408 74.521 308.306 74.458 308.284 74.3566L305.556 61.7885L302.828 74.3566C302.806 74.458 302.704 74.521 302.603 74.4952L297.765 73.2591C297.67 73.235 297.611 73.1413 297.631 73.046L301.612 53.2953C301.637 53.1726 301.776 53.1086 301.892 53.1567C302.846 53.5522 304.669 53.6306 305.545 53.6173L305.545 53.6172H305.568C306.444 53.6304 308.267 53.5522 309.221 53.1567Z" fill="#E61717"/>
<path d="M309.221 107.016C309.337 106.968 309.476 107.032 309.5 107.155L313.482 126.905C313.501 127.001 313.442 127.094 313.347 127.118L308.509 128.355C308.408 128.38 308.306 128.317 308.284 128.216L305.556 115.648L302.828 128.216C302.806 128.317 302.704 128.38 302.603 128.355L297.765 127.118C297.67 127.094 297.611 127.001 297.631 126.905L301.612 107.155C301.637 107.032 301.776 106.968 301.892 107.016C302.846 107.412 304.669 107.49 305.545 107.477L305.545 107.477H305.568C306.444 107.49 308.267 107.412 309.221 107.016Z" fill="#E61717"/>
<path d="M330.303 53.4584C331.386 53.4564 332.345 53.0937 332.576 53.1457C332.808 53.198 334.27 53.9972 335.75 54.6053C337.23 55.2135 337.444 55.4568 337.961 56.0129C338.374 56.4577 339.904 58.7698 340.618 59.8703C340.817 60.2179 340.707 60.5307 340.493 60.6871C339.892 61.0289 338.613 61.747 338.299 61.886C337.907 62.0597 337.747 62.025 337.604 61.9729C337.462 61.9208 336.481 60.8436 336.41 60.7913C336.231 61.0694 336.106 61.4343 336.053 62.5637C335.999 63.6933 336.32 72.1554 336.32 72.6767C336.32 73.198 336.374 73.5281 335.429 73.6672C334.676 73.7779 331.716 73.9206 330.311 73.979V73.98C330.308 73.9798 330.305 73.9797 330.303 73.9795C330.3 73.9797 330.297 73.9798 330.294 73.98V73.9792C328.889 73.9208 325.929 73.7779 325.176 73.6672C324.231 73.5281 324.285 73.198 324.285 72.6767C324.285 72.1554 324.606 63.6933 324.552 62.5637C324.499 61.4343 324.374 61.0694 324.196 60.7913C324.124 60.8436 323.143 61.9208 323.001 61.9729C322.858 62.025 322.698 62.0597 322.306 61.886C321.992 61.747 320.713 61.0289 320.112 60.6871C319.898 60.5307 319.788 60.2179 319.988 59.8703C320.701 58.7698 322.231 56.4577 322.644 56.0129C323.161 55.4568 323.375 55.2135 324.855 54.6053C326.335 53.9972 327.797 53.198 328.029 53.1457C328.26 53.0937 329.219 53.4564 330.303 53.4584Z" fill="#E61717"/>
<path d="M330.303 107.318C331.386 107.316 332.345 106.953 332.576 107.005C332.808 107.057 334.27 107.857 335.75 108.465C337.23 109.073 337.444 109.316 337.961 109.872C338.374 110.317 339.904 112.629 340.618 113.73C340.817 114.077 340.707 114.39 340.493 114.547C339.892 114.888 338.613 115.606 338.299 115.745C337.907 115.919 337.747 115.884 337.604 115.832C337.462 115.78 336.481 114.703 336.41 114.651C336.231 114.929 336.106 115.294 336.053 116.423C335.999 117.553 336.32 126.015 336.32 126.536C336.32 127.057 336.374 127.388 335.429 127.527C334.676 127.637 331.716 127.78 330.311 127.838V127.839C330.308 127.839 330.305 127.839 330.303 127.839C330.3 127.839 330.297 127.839 330.294 127.839V127.839C328.889 127.78 325.929 127.637 325.176 127.527C324.231 127.388 324.285 127.057 324.285 126.536C324.285 126.015 324.606 117.553 324.552 116.423C324.499 115.294 324.374 114.929 324.196 114.651C324.124 114.703 323.143 115.78 323.001 115.832C322.858 115.884 322.698 115.919 322.306 115.745C321.992 115.606 320.713 114.888 320.112 114.547C319.898 114.39 319.788 114.077 319.988 113.73C320.701 112.629 322.231 110.317 322.644 109.872C323.161 109.316 323.375 109.073 324.855 108.465C326.335 107.857 327.797 107.057 328.029 107.005C328.26 106.953 329.219 107.316 330.303 107.318Z" fill="#E61717"/>
<path d="M10.4197 80.5482C11.5037 80.5462 12.462 80.1836 12.6931 80.2356C12.9251 80.2878 14.3871 81.087 15.867 81.6951C17.3469 82.3033 17.5608 82.5467 18.0778 83.1027C18.4915 83.5476 20.0214 85.8596 20.7347 86.9602C20.9344 87.3077 20.8237 87.6206 20.6098 87.777C20.0096 88.1187 18.7305 88.8368 18.4166 88.9758C18.0245 89.1496 17.8639 89.1149 17.7214 89.0628C17.5788 89.0106 16.5981 87.9335 16.5267 87.8812C16.3483 88.1592 16.2236 88.5241 16.1701 89.6536C16.1166 90.7831 16.4374 99.2453 16.4374 99.7666C16.4374 100.288 16.4909 100.618 15.546 100.757C14.7932 100.868 11.8328 101.01 10.4286 101.069V101.07C10.4257 101.07 10.4227 101.07 10.4197 101.069C10.4167 101.07 10.4137 101.07 10.4108 101.07V101.069C9.00663 101.011 6.04623 100.868 5.29342 100.757C4.34843 100.618 4.40198 100.288 4.40198 99.7666C4.40198 99.2453 4.72282 90.7831 4.66933 89.6536C4.61584 88.5241 4.49099 88.1592 4.31272 87.8812C4.24125 87.9335 3.26067 89.0106 3.11803 89.0628C2.97541 89.1149 2.81493 89.1496 2.42271 88.9758C2.10885 88.8368 0.829882 88.1187 0.229586 87.777C0.0156488 87.6206 -0.0949956 87.3077 0.104705 86.9602C0.81794 85.8596 2.34792 83.5476 2.76158 83.1027C3.27867 82.5467 3.49254 82.3033 4.97243 81.6951C6.45224 81.087 7.91427 80.2878 8.14625 80.2356C8.37741 80.1836 9.3357 80.5462 10.4197 80.5482Z" fill="#E61717"/>
<path d="M10.4197 134.41C11.5037 134.408 12.462 134.045 12.6931 134.097C12.9251 134.149 14.3871 134.948 15.867 135.556C17.3469 136.165 17.5608 136.408 18.0778 136.964C18.4915 137.409 20.0214 139.721 20.7347 140.821C20.9344 141.169 20.8237 141.482 20.6098 141.638C20.0096 141.98 18.7305 142.698 18.4166 142.837C18.0245 143.011 17.8639 142.976 17.7214 142.924C17.5788 142.872 16.5981 141.795 16.5267 141.743C16.3483 142.021 16.2236 142.385 16.1701 143.515C16.1166 144.644 16.4374 153.107 16.4374 153.628C16.4374 154.149 16.4909 154.479 15.546 154.618C14.7932 154.729 11.8328 154.872 10.4286 154.93V154.931C10.4257 154.931 10.4227 154.931 10.4197 154.931C10.4167 154.931 10.4137 154.931 10.4108 154.931V154.93C9.00663 154.872 6.04623 154.729 5.29342 154.618C4.34843 154.479 4.40198 154.149 4.40198 153.628C4.40198 153.107 4.72282 144.644 4.66933 143.515C4.61584 142.385 4.49099 142.021 4.31272 141.743C4.24125 141.795 3.26067 142.872 3.11803 142.924C2.97541 142.976 2.81493 143.011 2.42271 142.837C2.10885 142.698 0.829882 141.98 0.229586 141.638C0.0156488 141.482 -0.0949956 141.169 0.104705 140.821C0.81794 139.721 2.34792 137.409 2.76158 136.964C3.27867 136.408 3.49254 136.165 4.97243 135.556C6.45224 134.948 7.91427 134.149 8.14625 134.097C8.37741 134.045 9.3357 134.408 10.4197 134.41Z" fill="#E61717"/>
<path d="M10.4197 161.318C11.5037 161.316 12.462 160.953 12.6931 161.005C12.9251 161.057 14.3871 161.857 15.867 162.465C17.3469 163.073 17.5608 163.316 18.0778 163.872C18.4915 164.317 20.0214 166.629 20.7347 167.73C20.9344 168.077 20.8237 168.39 20.6098 168.547C20.0096 168.888 18.7305 169.606 18.4166 169.745C18.0245 169.919 17.8639 169.884 17.7214 169.832C17.5788 169.78 16.5981 168.703 16.5267 168.651C16.3483 168.929 16.2236 169.294 16.1701 170.423C16.1166 171.553 16.4374 180.015 16.4374 180.536C16.4374 181.057 16.4909 181.388 15.546 181.527C14.7932 181.637 11.8328 181.78 10.4286 181.838V181.839C10.4257 181.839 10.4227 181.839 10.4197 181.839C10.4167 181.839 10.4137 181.839 10.4108 181.839V181.839C9.00663 181.78 6.04623 181.637 5.29342 181.527C4.34843 181.388 4.40198 181.057 4.40198 180.536C4.40198 180.015 4.72282 171.553 4.66933 170.423C4.61584 169.294 4.49099 168.929 4.31272 168.651C4.24125 168.703 3.26067 169.78 3.11803 169.832C2.97541 169.884 2.81493 169.919 2.42271 169.745C2.10885 169.606 0.829882 168.888 0.229586 168.547C0.0156488 168.39 -0.0949956 168.077 0.104705 167.73C0.81794 166.629 2.34792 164.317 2.76158 163.872C3.27867 163.316 3.49254 163.073 4.97243 162.465C6.45224 161.857 7.91427 161.057 8.14625 161.005C8.37741 160.953 9.3357 161.316 10.4197 161.318Z" fill="#E61717"/>
<path d="M39.0041 80.2461C39.1174 80.1992 39.253 80.2616 39.2772 80.3814L43.1614 99.6503C43.1802 99.7433 43.1226 99.8347 43.0302 99.8582L38.3104 101.064C38.2118 101.089 38.112 101.028 38.0905 100.929L35.4292 88.6674L32.768 100.929C32.7465 101.028 32.6466 101.089 32.5481 101.064L27.8281 99.8582C27.7358 99.8347 27.6781 99.7433 27.6969 99.6503L31.5813 80.3814C31.6054 80.2616 31.741 80.1992 31.8542 80.2461C32.7849 80.632 34.5633 80.7085 35.4179 80.6956L35.4181 80.6954H35.4404C36.295 80.7083 38.0734 80.632 39.0041 80.2461Z" fill="#E61717"/>
<path d="M39.0041 134.107C39.1174 134.061 39.253 134.123 39.2772 134.243L43.1614 153.512C43.1802 153.605 43.1226 153.696 43.0302 153.72L38.3104 154.926C38.2118 154.951 38.112 154.889 38.0905 154.79L35.4292 142.529L32.768 154.79C32.7465 154.889 32.6466 154.951 32.5481 154.926L27.8281 153.72C27.7358 153.696 27.6781 153.605 27.6969 153.512L31.5813 134.243C31.6054 134.123 31.741 134.061 31.8542 134.107C32.7849 134.493 34.5633 134.57 35.4179 134.557L35.4181 134.557H35.4404C36.295 134.57 38.0734 134.493 39.0041 134.107Z" fill="#E61717"/>
<path d="M39.0041 161.016C39.1174 160.969 39.253 161.031 39.2772 161.151L43.1614 180.42C43.1802 180.513 43.1226 180.604 43.0302 180.628L38.3104 181.834C38.2118 181.859 38.112 181.797 38.0905 181.698L35.4292 169.437L32.768 181.698C32.7465 181.797 32.6466 181.859 32.5481 181.834L27.8281 180.628C27.7358 180.604 27.6781 180.513 27.6969 180.42L31.5813 161.151C31.6054 161.031 31.741 160.969 31.8542 161.016C32.7849 161.402 34.5633 161.478 35.4179 161.465L35.4181 161.465H35.4404C36.295 161.478 38.0734 161.402 39.0041 161.016Z" fill="#E61717"/>
<path d="M59.6528 80.5562C60.7639 80.5541 61.7462 80.1824 61.9831 80.2357C62.2209 80.2892 63.7195 81.1084 65.2363 81.7317C66.7532 82.3551 66.9725 82.6046 67.5024 83.1745C67.9264 83.6305 69.4946 86.0004 70.2257 87.1284C70.4304 87.4846 70.317 87.8053 70.0977 87.9656C69.4825 88.3159 68.1714 89.052 67.8497 89.1945C67.4477 89.3725 67.2832 89.337 67.1371 89.2836C66.9909 89.2302 65.9857 88.1261 65.9126 88.0725C65.7297 88.3574 65.6019 88.7315 65.547 89.8892C65.4921 91.0469 65.821 99.7206 65.821 100.255C65.821 100.789 65.8758 101.128 64.9073 101.27C64.1356 101.384 61.1012 101.53 59.662 101.59V101.591C59.659 101.591 59.6559 101.59 59.6528 101.59C59.6498 101.59 59.6467 101.591 59.6437 101.591V101.59C58.2045 101.53 55.17 101.384 54.3984 101.27C53.4298 101.128 53.4847 100.789 53.4847 100.255C53.4847 99.7206 53.8135 91.0469 53.7587 89.8892C53.7039 88.7315 53.5759 88.3574 53.3932 88.0725C53.3199 88.1261 52.3148 89.2302 52.1686 89.2836C52.0224 89.337 51.858 89.3725 51.4559 89.1945C51.1342 89.052 49.8233 88.3159 49.208 87.9656C48.9887 87.8053 48.8753 87.4846 49.08 87.1284C49.811 86.0004 51.3793 83.6305 51.8033 83.1745C52.3333 82.6046 52.5525 82.3551 54.0694 81.7317C55.5862 81.1084 57.0848 80.2892 57.3226 80.2357C57.5595 80.1824 58.5417 80.5541 59.6528 80.5562Z" fill="#E61717"/>
<path d="M59.6528 134.418C60.7639 134.415 61.7462 134.044 61.9831 134.097C62.2209 134.151 63.7195 134.97 65.2363 135.593C66.7532 136.216 66.9725 136.466 67.5024 137.036C67.9264 137.492 69.4946 139.862 70.2257 140.99C70.4304 141.346 70.317 141.667 70.0977 141.827C69.4825 142.177 68.1714 142.913 67.8497 143.056C67.4477 143.234 67.2832 143.198 67.1371 143.145C66.9909 143.091 65.9857 141.987 65.9126 141.934C65.7297 142.219 65.6019 142.593 65.547 143.75C65.4921 144.908 65.821 153.582 65.821 154.116C65.821 154.651 65.8758 154.989 64.9073 155.132C64.1356 155.245 61.1012 155.391 59.662 155.451V155.452C59.659 155.452 59.6559 155.452 59.6528 155.452C59.6498 155.452 59.6467 155.452 59.6437 155.452V155.451C58.2045 155.391 55.17 155.245 54.3984 155.132C53.4298 154.989 53.4847 154.651 53.4847 154.116C53.4847 153.582 53.8135 144.908 53.7587 143.75C53.7039 142.593 53.5759 142.219 53.3932 141.934C53.3199 141.987 52.3148 143.091 52.1686 143.145C52.0224 143.198 51.858 143.234 51.4559 143.056C51.1342 142.913 49.8233 142.177 49.208 141.827C48.9887 141.667 48.8753 141.346 49.08 140.99C49.811 139.862 51.3793 137.492 51.8033 137.036C52.3333 136.466 52.5525 136.216 54.0694 135.593C55.5862 134.97 57.0848 134.151 57.3226 134.097C57.5595 134.044 58.5417 134.415 59.6528 134.418Z" fill="#E61717"/>
<path d="M59.6528 161.326C60.7639 161.324 61.7462 160.952 61.9831 161.005C62.2209 161.059 63.7195 161.878 65.2363 162.501C66.7532 163.125 66.9725 163.374 67.5024 163.944C67.9264 164.4 69.4946 166.77 70.2257 167.898C70.4304 168.254 70.317 168.575 70.0977 168.735C69.4825 169.085 68.1714 169.821 67.8497 169.964C67.4477 170.142 67.2832 170.107 67.1371 170.053C66.9909 170 65.9857 168.896 65.9126 168.842C65.7297 169.127 65.6019 169.501 65.547 170.659C65.4921 171.816 65.821 180.49 65.821 181.025C65.821 181.559 65.8758 181.897 64.9073 182.04C64.1356 182.153 61.1012 182.299 59.662 182.359V182.36C59.659 182.36 59.6559 182.36 59.6528 182.36C59.6498 182.36 59.6467 182.36 59.6437 182.36V182.36C58.2045 182.3 55.17 182.153 54.3984 182.04C53.4298 181.897 53.4847 181.559 53.4847 181.025C53.4847 180.49 53.8135 171.816 53.7587 170.659C53.7039 169.501 53.5759 169.127 53.3932 168.842C53.3199 168.896 52.3148 170 52.1686 170.053C52.0224 170.107 51.858 170.142 51.4559 169.964C51.1342 169.821 49.8233 169.085 49.208 168.735C48.9887 168.575 48.8753 168.254 49.08 167.898C49.811 166.77 51.3793 164.4 51.8033 163.944C52.3333 163.374 52.5525 163.125 54.0694 162.501C55.5862 161.878 57.0848 161.059 57.3226 161.005C57.5595 160.952 58.5417 161.324 59.6528 161.326Z" fill="#D6CEC4"/>
<path d="M87.9768 80.2461C88.09 80.1992 88.2257 80.2616 88.2498 80.3814L92.1341 99.6503C92.1528 99.7433 92.0952 99.8347 92.0029 99.8582L87.283 101.064C87.1845 101.089 87.0846 101.028 87.0632 100.929L84.4018 88.6674L81.7406 100.929C81.7191 101.028 81.6193 101.089 81.5208 101.064L76.8007 99.8582C76.7085 99.8347 76.6508 99.7433 76.6695 99.6503L80.554 80.3814C80.5781 80.2616 80.7136 80.1992 80.8268 80.2461C81.7575 80.632 83.536 80.7085 84.3906 80.6956L84.3907 80.6954H84.4131C85.2676 80.7083 87.0461 80.632 87.9768 80.2461Z" fill="#E61717"/>
<path d="M87.9768 134.107C88.09 134.061 88.2257 134.123 88.2498 134.243L92.1341 153.512C92.1528 153.605 92.0952 153.696 92.0029 153.72L87.283 154.926C87.1845 154.951 87.0846 154.889 87.0632 154.79L84.4018 142.529L81.7406 154.79C81.7191 154.889 81.6193 154.951 81.5208 154.926L76.8007 153.72C76.7085 153.696 76.6508 153.605 76.6695 153.512L80.554 134.243C80.5781 134.123 80.7136 134.061 80.8268 134.107C81.7575 134.493 83.536 134.57 84.3906 134.557L84.3907 134.557H84.4131C85.2676 134.57 87.0461 134.493 87.9768 134.107Z" fill="#E61717"/>
<path d="M87.9768 161.016C88.09 160.969 88.2257 161.031 88.2498 161.151L92.1341 180.42C92.1528 180.513 92.0952 180.604 92.0029 180.628L87.283 181.834C87.1845 181.859 87.0846 181.797 87.0632 181.698L84.4018 169.437L81.7406 181.698C81.7191 181.797 81.6193 181.859 81.5208 181.834L76.8007 180.628C76.7085 180.604 76.6508 180.513 76.6695 180.42L80.554 161.151C80.5781 161.031 80.7136 160.969 80.8268 161.016C81.7575 161.402 83.536 161.478 84.3906 161.465L84.3907 161.465H84.4131C85.2676 161.478 87.0461 161.402 87.9768 161.016Z" fill="#D6CEC4"/>
<path d="M108.625 80.5562C109.737 80.5541 110.719 80.1824 110.956 80.2357C111.194 80.2892 112.692 81.1084 114.209 81.7317C115.726 82.3551 115.945 82.6046 116.475 83.1745C116.899 83.6305 118.467 86.0004 119.198 87.1284C119.403 87.4846 119.29 87.8053 119.07 87.9656C118.455 88.3159 117.144 89.052 116.822 89.1945C116.42 89.3725 116.256 89.337 116.11 89.2836C115.964 89.2302 114.958 88.1261 114.885 88.0725C114.702 88.3574 114.575 88.7315 114.52 89.8892C114.465 91.0469 114.794 99.7206 114.794 100.255C114.794 100.789 114.848 101.128 113.88 101.27C113.108 101.384 110.074 101.53 108.635 101.59V101.591C108.632 101.591 108.629 101.59 108.625 101.59C108.622 101.59 108.619 101.591 108.616 101.591V101.59C107.177 101.53 104.143 101.384 103.371 101.27C102.402 101.128 102.457 100.789 102.457 100.255C102.457 99.7206 102.786 91.0469 102.731 89.8892C102.677 88.7315 102.549 88.3574 102.366 88.0725C102.293 88.1261 101.287 89.2302 101.141 89.2836C100.995 89.337 100.831 89.3725 100.429 89.1945C100.107 89.052 98.7959 88.3159 98.1806 87.9656C97.9614 87.8053 97.8479 87.4846 98.0526 87.1284C98.7837 86.0004 100.352 83.6305 100.776 83.1745C101.306 82.6046 101.525 82.3551 103.042 81.7317C104.559 81.1084 106.057 80.2892 106.295 80.2357C106.532 80.1824 107.514 80.5541 108.625 80.5562Z" fill="#E61717"/>
<path d="M108.625 134.418C109.737 134.415 110.719 134.044 110.956 134.097C111.194 134.151 112.692 134.97 114.209 135.593C115.726 136.216 115.945 136.466 116.475 137.036C116.899 137.492 118.467 139.862 119.198 140.99C119.403 141.346 119.29 141.667 119.07 141.827C118.455 142.177 117.144 142.913 116.822 143.056C116.42 143.234 116.256 143.198 116.11 143.145C115.964 143.091 114.958 141.987 114.885 141.934C114.702 142.219 114.575 142.593 114.52 143.75C114.465 144.908 114.794 153.582 114.794 154.116C114.794 154.651 114.848 154.989 113.88 155.132C113.108 155.245 110.074 155.391 108.635 155.451V155.452C108.632 155.452 108.629 155.452 108.625 155.452C108.622 155.452 108.619 155.452 108.616 155.452V155.451C107.177 155.391 104.143 155.245 103.371 155.132C102.402 154.989 102.457 154.651 102.457 154.116C102.457 153.582 102.786 144.908 102.731 143.75C102.677 142.593 102.549 142.219 102.366 141.934C102.293 141.987 101.287 143.091 101.141 143.145C100.995 143.198 100.831 143.234 100.429 143.056C100.107 142.913 98.7959 142.177 98.1806 141.827C97.9614 141.667 97.8479 141.346 98.0526 140.99C98.7837 139.862 100.352 137.492 100.776 137.036C101.306 136.466 101.525 136.216 103.042 135.593C104.559 134.97 106.057 134.151 106.295 134.097C106.532 134.044 107.514 134.415 108.625 134.418Z" fill="#E61717"/>
<path d="M108.625 161.326C109.737 161.324 110.719 160.952 110.956 161.005C111.194 161.059 112.692 161.878 114.209 162.501C115.726 163.125 115.945 163.374 116.475 163.944C116.899 164.4 118.467 166.77 119.198 167.898C119.403 168.254 119.29 168.575 119.07 168.735C118.455 169.085 117.144 169.821 116.822 169.964C116.42 170.142 116.256 170.107 116.11 170.053C115.964 170 114.958 168.896 114.885 168.842C114.702 169.127 114.575 169.501 114.52 170.659C114.465 171.816 114.794 180.49 114.794 181.025C114.794 181.559 114.848 181.897 113.88 182.04C113.108 182.153 110.074 182.299 108.635 182.359V182.36C108.632 182.36 108.629 182.36 108.625 182.36C108.622 182.36 108.619 182.36 108.616 182.36V182.36C107.177 182.3 104.143 182.153 103.371 182.04C102.402 181.897 102.457 181.559 102.457 181.025C102.457 180.49 102.786 171.816 102.731 170.659C102.677 169.501 102.549 169.127 102.366 168.842C102.293 168.896 101.287 170 101.141 170.053C100.995 170.107 100.831 170.142 100.429 169.964C100.107 169.821 98.7959 169.085 98.1806 168.735C97.9614 168.575 97.8479 168.254 98.0526 167.898C98.7837 166.77 100.352 164.4 100.776 163.944C101.306 163.374 101.525 163.125 103.042 162.501C104.559 161.878 106.057 161.059 106.295 161.005C106.532 160.952 107.514 161.324 108.625 161.326Z" fill="#D6CEC4"/>
<path d="M136.949 80.2461C137.063 80.1992 137.198 80.2616 137.222 80.3814L141.107 99.6503C141.125 99.7433 141.068 99.8347 140.976 99.8582L136.256 101.064C136.157 101.089 136.057 101.028 136.036 100.929L133.374 88.6674L130.713 100.929C130.692 101.028 130.592 101.089 130.493 101.064L125.773 99.8582C125.681 99.8347 125.623 99.7433 125.642 99.6503L129.527 80.3814C129.551 80.2616 129.686 80.1992 129.8 80.2461C130.73 80.632 132.509 80.7085 133.363 80.6956L133.363 80.6954H133.386C134.24 80.7083 136.019 80.632 136.949 80.2461Z" fill="#E61717"/>
<path d="M136.949 134.107C137.063 134.061 137.198 134.123 137.222 134.243L141.107 153.512C141.125 153.605 141.068 153.696 140.976 153.72L136.256 154.926C136.157 154.951 136.057 154.889 136.036 154.79L133.374 142.529L130.713 154.79C130.692 154.889 130.592 154.951 130.493 154.926L125.773 153.72C125.681 153.696 125.623 153.605 125.642 153.512L129.527 134.243C129.551 134.123 129.686 134.061 129.8 134.107C130.73 134.493 132.509 134.57 133.363 134.557L133.363 134.557H133.386C134.24 134.57 136.019 134.493 136.949 134.107Z" fill="#E61717"/>
<path d="M136.949 161.016C137.063 160.969 137.198 161.031 137.222 161.151L141.107 180.42C141.125 180.513 141.068 180.604 140.976 180.628L136.256 181.834C136.157 181.859 136.057 181.797 136.036 181.698L133.374 169.437L130.713 181.698C130.692 181.797 130.592 181.859 130.493 181.834L125.773 180.628C125.681 180.604 125.623 180.513 125.642 180.42L129.527 161.151C129.551 161.031 129.686 160.969 129.8 161.016C130.73 161.402 132.509 161.478 133.363 161.465L133.363 161.465H133.386C134.24 161.478 136.019 161.402 136.949 161.016Z" fill="#D6CEC4"/>
<path d="M158.379 80.5482C159.463 80.5462 160.421 80.1836 160.652 80.2356C160.884 80.2878 162.346 81.087 163.826 81.6951C165.306 82.3033 165.52 82.5467 166.037 83.1027C166.45 83.5476 167.98 85.8596 168.694 86.9602C168.893 87.3077 168.783 87.6206 168.569 87.777C167.969 88.1187 166.689 88.8368 166.376 88.9758C165.983 89.1496 165.823 89.1149 165.68 89.0628C165.538 89.0106 164.557 87.9335 164.486 87.8812C164.307 88.1592 164.183 88.5241 164.129 89.6536C164.076 90.7831 164.396 99.2453 164.396 99.7666C164.396 100.288 164.45 100.618 163.505 100.757C162.752 100.868 159.792 101.01 158.388 101.069V101.07C158.385 101.07 158.382 101.07 158.379 101.069C158.376 101.07 158.373 101.07 158.37 101.07V101.069C156.966 101.011 154.005 100.868 153.252 100.757C152.307 100.618 152.361 100.288 152.361 99.7666C152.361 99.2453 152.682 90.7831 152.628 89.6536C152.575 88.5241 152.45 88.1592 152.272 87.8812C152.2 87.9335 151.22 89.0106 151.077 89.0628C150.934 89.1149 150.774 89.1496 150.382 88.9758C150.068 88.8368 148.789 88.1187 148.189 87.777C147.975 87.6206 147.864 87.3077 148.064 86.9602C148.777 85.8596 150.307 83.5476 150.721 83.1027C151.238 82.5467 151.452 82.3033 152.931 81.6951C154.411 81.087 155.873 80.2878 156.105 80.2356C156.336 80.1836 157.295 80.5462 158.379 80.5482Z" fill="#E61717"/>
<path d="M158.379 134.41C159.463 134.408 160.421 134.045 160.652 134.097C160.884 134.149 162.346 134.948 163.826 135.556C165.306 136.165 165.52 136.408 166.037 136.964C166.45 137.409 167.98 139.721 168.694 140.821C168.893 141.169 168.783 141.482 168.569 141.638C167.969 141.98 166.689 142.698 166.376 142.837C165.983 143.011 165.823 142.976 165.68 142.924C165.538 142.872 164.557 141.795 164.486 141.743C164.307 142.021 164.183 142.385 164.129 143.515C164.076 144.644 164.396 153.107 164.396 153.628C164.396 154.149 164.45 154.479 163.505 154.618C162.752 154.729 159.792 154.872 158.388 154.93V154.931C158.385 154.931 158.382 154.931 158.379 154.931C158.376 154.931 158.373 154.931 158.37 154.931V154.93C156.966 154.872 154.005 154.729 153.252 154.618C152.307 154.479 152.361 154.149 152.361 153.628C152.361 153.107 152.682 144.644 152.628 143.515C152.575 142.385 152.45 142.021 152.272 141.743C152.2 141.795 151.22 142.872 151.077 142.924C150.934 142.976 150.774 143.011 150.382 142.837C150.068 142.698 148.789 141.98 148.189 141.638C147.975 141.482 147.864 141.169 148.064 140.821C148.777 139.721 150.307 137.409 150.721 136.964C151.238 136.408 151.452 136.165 152.931 135.556C154.411 134.948 155.873 134.149 156.105 134.097C156.336 134.045 157.295 134.408 158.379 134.41Z" fill="#E61717"/>
<path d="M158.379 161.318C159.463 161.316 160.421 160.953 160.652 161.005C160.884 161.057 162.346 161.857 163.826 162.465C165.306 163.073 165.52 163.316 166.037 163.872C166.45 164.317 167.98 166.629 168.694 167.73C168.893 168.077 168.783 168.39 168.569 168.547C167.969 168.888 166.689 169.606 166.376 169.745C165.983 169.919 165.823 169.884 165.68 169.832C165.538 169.78 164.557 168.703 164.486 168.651C164.307 168.929 164.183 169.294 164.129 170.423C164.076 171.553 164.396 180.015 164.396 180.536C164.396 181.057 164.45 181.388 163.505 181.527C162.752 181.637 159.792 181.78 158.388 181.838V181.839C158.385 181.839 158.382 181.839 158.379 181.839C158.376 181.839 158.373 181.839 158.37 181.839V181.839C156.966 181.78 154.005 181.637 153.252 181.527C152.307 181.388 152.361 181.057 152.361 180.536C152.361 180.015 152.682 171.553 152.628 170.423C152.575 169.294 152.45 168.929 152.272 168.651C152.2 168.703 151.22 169.78 151.077 169.832C150.934 169.884 150.774 169.919 150.382 169.745C150.068 169.606 148.789 168.888 148.189 168.547C147.975 168.39 147.864 168.077 148.064 167.73C148.777 166.629 150.307 164.317 150.721 163.872C151.238 163.316 151.452 163.073 152.931 162.465C154.411 161.857 155.873 161.057 156.105 161.005C156.336 160.953 157.295 161.316 158.379 161.318Z" fill="#D6CEC4"/>
<path d="M186.267 80.2465C186.383 80.1984 186.523 80.2624 186.547 80.3851L190.529 100.136C190.548 100.231 190.489 100.325 190.394 100.349L185.556 101.585C185.455 101.611 185.353 101.548 185.331 101.446L182.603 88.8783L179.875 101.446C179.853 101.548 179.751 101.611 179.65 101.585L174.812 100.349C174.717 100.325 174.658 100.231 174.677 100.136L178.659 80.3851C178.684 80.2624 178.823 80.1985 178.939 80.2465C179.893 80.642 181.716 80.7204 182.591 80.7072L182.592 80.707H182.615C183.49 80.7203 185.313 80.6421 186.267 80.2465Z" fill="#E61717"/>
<path d="M186.267 134.108C186.383 134.06 186.523 134.124 186.547 134.246L190.529 153.997C190.548 154.092 190.489 154.186 190.394 154.21L185.556 155.446C185.455 155.472 185.353 155.409 185.331 155.308L182.603 142.74L179.875 155.308C179.853 155.409 179.751 155.472 179.65 155.446L174.812 154.21C174.717 154.186 174.658 154.092 174.677 153.997L178.659 134.246C178.684 134.124 178.823 134.06 178.939 134.108C179.893 134.503 181.716 134.582 182.591 134.569L182.592 134.568H182.615C183.49 134.582 185.313 134.503 186.267 134.108Z" fill="#E61717"/>
<path d="M186.267 161.016C186.383 160.968 186.523 161.032 186.547 161.155L190.529 180.905C190.548 181.001 190.489 181.094 190.394 181.118L185.556 182.355C185.455 182.38 185.353 182.317 185.331 182.216L182.603 169.648L179.875 182.216C179.853 182.317 179.751 182.38 179.65 182.355L174.812 181.118C174.717 181.094 174.658 181.001 174.677 180.905L178.659 161.155C178.684 161.032 178.823 160.968 178.939 161.016C179.893 161.412 181.716 161.49 182.591 161.477L182.592 161.477H182.615C183.49 161.49 185.313 161.412 186.267 161.016Z" fill="#D6CEC4"/>
<path d="M207.351 80.5482C208.435 80.5462 209.394 80.1836 209.625 80.2356C209.857 80.2878 211.319 81.087 212.799 81.6951C214.279 82.3033 214.492 82.5467 215.009 83.1027C215.423 83.5476 216.953 85.8596 217.666 86.9602C217.866 87.3077 217.755 87.6206 217.541 87.777C216.941 88.1187 215.662 88.8368 215.348 88.9758C214.956 89.1496 214.796 89.1149 214.653 89.0628C214.51 89.0106 213.53 87.9335 213.458 87.8812C213.28 88.1592 213.155 88.5241 213.102 89.6536C213.048 90.7831 213.369 99.2453 213.369 99.7666C213.369 100.288 213.423 100.618 212.478 100.757C211.725 100.868 208.764 101.01 207.36 101.069V101.07C207.357 101.07 207.354 101.07 207.351 101.069C207.348 101.07 207.345 101.07 207.342 101.07V101.069C205.938 101.011 202.978 100.868 202.225 100.757C201.28 100.618 201.334 100.288 201.334 99.7666C201.334 99.2453 201.654 90.7831 201.601 89.6536C201.547 88.5241 201.423 88.1592 201.244 87.8812C201.173 87.9335 200.192 89.0106 200.05 89.0628C199.907 89.1149 199.747 89.1496 199.354 88.9758C199.04 88.8368 197.762 88.1187 197.161 87.777C196.947 87.6206 196.837 87.3077 197.036 86.9602C197.75 85.8596 199.28 83.5476 199.693 83.1027C200.21 82.5467 200.424 82.3033 201.904 81.6951C203.384 81.087 204.846 80.2878 205.078 80.2356C205.309 80.1836 206.267 80.5462 207.351 80.5482Z" fill="#E61717"/>
<path d="M207.351 134.41C208.435 134.408 209.394 134.045 209.625 134.097C209.857 134.149 211.319 134.948 212.799 135.556C214.279 136.165 214.492 136.408 215.009 136.964C215.423 137.409 216.953 139.721 217.666 140.821C217.866 141.169 217.755 141.482 217.541 141.638C216.941 141.98 215.662 142.698 215.348 142.837C214.956 143.011 214.796 142.976 214.653 142.924C214.51 142.872 213.53 141.795 213.458 141.743C213.28 142.021 213.155 142.385 213.102 143.515C213.048 144.644 213.369 153.107 213.369 153.628C213.369 154.149 213.423 154.479 212.478 154.618C211.725 154.729 208.764 154.872 207.36 154.93V154.931C207.357 154.931 207.354 154.931 207.351 154.931C207.348 154.931 207.345 154.931 207.342 154.931V154.93C205.938 154.872 202.978 154.729 202.225 154.618C201.28 154.479 201.334 154.149 201.334 153.628C201.334 153.107 201.654 144.644 201.601 143.515C201.547 142.385 201.423 142.021 201.244 141.743C201.173 141.795 200.192 142.872 200.05 142.924C199.907 142.976 199.747 143.011 199.354 142.837C199.04 142.698 197.762 141.98 197.161 141.638C196.947 141.482 196.837 141.169 197.036 140.821C197.75 139.721 199.28 137.409 199.693 136.964C200.21 136.408 200.424 136.165 201.904 135.556C203.384 134.948 204.846 134.149 205.078 134.097C205.309 134.045 206.267 134.408 207.351 134.41Z" fill="#E61717"/>
<path d="M207.351 161.318C208.435 161.316 209.394 160.953 209.625 161.005C209.857 161.057 211.319 161.857 212.799 162.465C214.279 163.073 214.492 163.316 215.009 163.872C215.423 164.317 216.953 166.629 217.666 167.73C217.866 168.077 217.755 168.39 217.541 168.547C216.941 168.888 215.662 169.606 215.348 169.745C214.956 169.919 214.796 169.884 214.653 169.832C214.51 169.78 213.53 168.703 213.458 168.651C213.28 168.929 213.155 169.294 213.102 170.423C213.048 171.553 213.369 180.015 213.369 180.536C213.369 181.057 213.423 181.388 212.478 181.527C211.725 181.637 208.764 181.78 207.36 181.838V181.839C207.357 181.839 207.354 181.839 207.351 181.839C207.348 181.839 207.345 181.839 207.342 181.839V181.839C205.938 181.78 202.978 181.637 202.225 181.527C201.28 181.388 201.334 181.057 201.334 180.536C201.334 180.015 201.654 171.553 201.601 170.423C201.547 169.294 201.423 168.929 201.244 168.651C201.173 168.703 200.192 169.78 200.05 169.832C199.907 169.884 199.747 169.919 199.354 169.745C199.04 169.606 197.762 168.888 197.161 168.547C196.947 168.39 196.837 168.077 197.036 167.73C197.75 166.629 199.28 164.317 199.693 163.872C200.21 163.316 200.424 163.073 201.904 162.465C203.384 161.857 204.846 161.057 205.078 161.005C205.309 160.953 206.267 161.316 207.351 161.318Z" fill="#D6CEC4"/>
<path d="M235.936 80.2461C236.049 80.1992 236.185 80.2616 236.209 80.3814L240.093 99.6503C240.112 99.7433 240.054 99.8347 239.962 99.8582L235.242 101.064C235.143 101.089 235.044 101.028 235.022 100.929L232.361 88.6674L229.7 100.929C229.678 101.028 229.578 101.089 229.48 101.064L224.76 99.8582C224.667 99.8347 224.61 99.7433 224.629 99.6503L228.513 80.3814C228.537 80.2616 228.673 80.1992 228.786 80.2461C229.716 80.632 231.495 80.7085 232.35 80.6956L232.35 80.6954H232.372C233.227 80.7083 235.005 80.632 235.936 80.2461Z" fill="#E61717"/>
<path d="M235.936 134.107C236.049 134.061 236.185 134.123 236.209 134.243L240.093 153.512C240.112 153.605 240.054 153.696 239.962 153.72L235.242 154.926C235.143 154.951 235.044 154.889 235.022 154.79L232.361 142.529L229.7 154.79C229.678 154.889 229.578 154.951 229.48 154.926L224.76 153.72C224.667 153.696 224.61 153.605 224.629 153.512L228.513 134.243C228.537 134.123 228.673 134.061 228.786 134.107C229.716 134.493 231.495 134.57 232.35 134.557L232.35 134.557H232.372C233.227 134.57 235.005 134.493 235.936 134.107Z" fill="#E61717"/>
<path d="M235.936 161.016C236.049 160.969 236.185 161.031 236.209 161.151L240.093 180.42C240.112 180.513 240.054 180.604 239.962 180.628L235.242 181.834C235.143 181.859 235.044 181.797 235.022 181.698L232.361 169.437L229.7 181.698C229.678 181.797 229.578 181.859 229.48 181.834L224.76 180.628C224.667 180.604 224.61 180.513 224.629 180.42L228.513 161.151C228.537 161.031 228.673 160.969 228.786 161.016C229.716 161.402 231.495 161.478 232.35 161.465L232.35 161.465H232.372C233.227 161.478 235.005 161.402 235.936 161.016Z" fill="#D6CEC4"/>
<path d="M256.584 80.5562C257.696 80.5541 258.678 80.1824 258.915 80.2357C259.153 80.2892 260.651 81.1084 262.168 81.7317C263.685 82.3551 263.904 82.6046 264.434 83.1745C264.858 83.6305 266.426 86.0004 267.157 87.1284C267.362 87.4846 267.249 87.8053 267.029 87.9656C266.414 88.3159 265.103 89.052 264.781 89.1945C264.379 89.3725 264.215 89.337 264.069 89.2836C263.923 89.2302 262.917 88.1261 262.844 88.0725C262.661 88.3574 262.533 88.7315 262.479 89.8892C262.424 91.0469 262.753 99.7206 262.753 100.255C262.753 100.789 262.807 101.128 261.839 101.27C261.067 101.384 258.033 101.53 256.594 101.59V101.591C256.591 101.591 256.588 101.59 256.584 101.59C256.581 101.59 256.578 101.591 256.575 101.591V101.59C255.136 101.53 252.102 101.384 251.33 101.27C250.361 101.128 250.416 100.789 250.416 100.255C250.416 99.7206 250.745 91.0469 250.69 89.8892C250.636 88.7315 250.508 88.3574 250.325 88.0725C250.252 88.1261 249.246 89.2302 249.1 89.2836C248.954 89.337 248.79 89.3725 248.388 89.1945C248.066 89.052 246.755 88.3159 246.14 87.9656C245.92 87.8053 245.807 87.4846 246.012 87.1284C246.743 86.0004 248.311 83.6305 248.735 83.1745C249.265 82.6046 249.484 82.3551 251.001 81.7317C252.518 81.1084 254.016 80.2892 254.254 80.2357C254.491 80.1824 255.473 80.5541 256.584 80.5562Z" fill="#E61717"/>
<path d="M256.584 134.418C257.696 134.415 258.678 134.044 258.915 134.097C259.153 134.151 260.651 134.97 262.168 135.593C263.685 136.216 263.904 136.466 264.434 137.036C264.858 137.492 266.426 139.862 267.157 140.99C267.362 141.346 267.249 141.667 267.029 141.827C266.414 142.177 265.103 142.913 264.781 143.056C264.379 143.234 264.215 143.198 264.069 143.145C263.923 143.091 262.917 141.987 262.844 141.934C262.661 142.219 262.533 142.593 262.479 143.75C262.424 144.908 262.753 153.582 262.753 154.116C262.753 154.651 262.807 154.989 261.839 155.132C261.067 155.245 258.033 155.391 256.594 155.451V155.452C256.591 155.452 256.588 155.452 256.584 155.452C256.581 155.452 256.578 155.452 256.575 155.452V155.451C255.136 155.391 252.102 155.245 251.33 155.132C250.361 154.989 250.416 154.651 250.416 154.116C250.416 153.582 250.745 144.908 250.69 143.75C250.636 142.593 250.508 142.219 250.325 141.934C250.252 141.987 249.246 143.091 249.1 143.145C248.954 143.198 248.79 143.234 248.388 143.056C248.066 142.913 246.755 142.177 246.14 141.827C245.92 141.667 245.807 141.346 246.012 140.99C246.743 139.862 248.311 137.492 248.735 137.036C249.265 136.466 249.484 136.216 251.001 135.593C252.518 134.97 254.016 134.151 254.254 134.097C254.491 134.044 255.473 134.415 256.584 134.418Z" fill="#E61717"/>
<path d="M256.584 161.326C257.696 161.324 258.678 160.952 258.915 161.005C259.153 161.059 260.651 161.878 262.168 162.501C263.685 163.125 263.904 163.374 264.434 163.944C264.858 164.4 266.426 166.77 267.157 167.898C267.362 168.254 267.249 168.575 267.029 168.735C266.414 169.085 265.103 169.821 264.781 169.964C264.379 170.142 264.215 170.107 264.069 170.053C263.923 170 262.917 168.896 262.844 168.842C262.661 169.127 262.533 169.501 262.479 170.659C262.424 171.816 262.753 180.49 262.753 181.025C262.753 181.559 262.807 181.897 261.839 182.04C261.067 182.153 258.033 182.299 256.594 182.359V182.36C256.591 182.36 256.588 182.36 256.584 182.36C256.581 182.36 256.578 182.36 256.575 182.36V182.36C255.136 182.3 252.102 182.153 251.33 182.04C250.361 181.897 250.416 181.559 250.416 181.025C250.416 180.49 250.745 171.816 250.69 170.659C250.636 169.501 250.508 169.127 250.325 168.842C250.252 168.896 249.246 170 249.1 170.053C248.954 170.107 248.79 170.142 248.388 169.964C248.066 169.821 246.755 169.085 246.14 168.735C245.92 168.575 245.807 168.254 246.012 167.898C246.743 166.77 248.311 164.4 248.735 163.944C249.265 163.374 249.484 163.125 251.001 162.501C252.518 161.878 254.016 161.059 254.254 161.005C254.491 160.952 255.473 161.324 256.584 161.326Z" fill="#D6CEC4"/>
<path d="M284.906 80.2461C285.02 80.1992 285.155 80.2616 285.18 80.3814L289.064 99.6503C289.083 99.7433 289.025 99.8347 288.933 99.8582L284.213 101.064C284.114 101.089 284.014 101.028 283.993 100.929L281.332 88.6674L278.67 100.929C278.649 101.028 278.549 101.089 278.45 101.064L273.73 99.8582C273.638 99.8347 273.58 99.7433 273.599 99.6503L277.484 80.3814C277.508 80.2616 277.643 80.1992 277.757 80.2461C278.687 80.632 280.466 80.7085 281.32 80.6956L281.32 80.6954H281.343C282.197 80.7083 283.976 80.632 284.906 80.2461Z" fill="#E61717"/>
<path d="M284.906 134.107C285.02 134.061 285.155 134.123 285.18 134.243L289.064 153.512C289.083 153.605 289.025 153.696 288.933 153.72L284.213 154.926C284.114 154.951 284.014 154.889 283.993 154.79L281.332 142.529L278.67 154.79C278.649 154.889 278.549 154.951 278.45 154.926L273.73 153.72C273.638 153.696 273.58 153.605 273.599 153.512L277.484 134.243C277.508 134.123 277.643 134.061 277.757 134.107C278.687 134.493 280.466 134.57 281.32 134.557L281.32 134.557H281.343C282.197 134.57 283.976 134.493 284.906 134.107Z" fill="#E61717"/>
<path d="M284.906 161.016C285.02 160.969 285.155 161.031 285.18 161.151L289.064 180.42C289.083 180.513 289.025 180.604 288.933 180.628L284.213 181.834C284.114 181.859 284.014 181.797 283.993 181.698L281.332 169.437L278.67 181.698C278.649 181.797 278.549 181.859 278.45 181.834L273.73 180.628C273.638 180.604 273.58 180.513 273.599 180.42L277.484 161.151C277.508 161.031 277.643 160.969 277.757 161.016C278.687 161.402 280.466 161.478 281.32 161.465L281.32 161.465H281.343C282.197 161.478 283.976 161.402 284.906 161.016Z" fill="#D6CEC4"/>
<path d="M305.557 80.5562C306.668 80.5541 307.65 80.1824 307.887 80.2357C308.125 80.2892 309.624 81.1084 311.141 81.7317C312.658 82.3551 312.877 82.6046 313.407 83.1745C313.831 83.6305 315.399 86.0004 316.13 87.1284C316.335 87.4846 316.221 87.8053 316.002 87.9656C315.387 88.3159 314.076 89.052 313.754 89.1945C313.352 89.3725 313.187 89.337 313.041 89.2836C312.895 89.2302 311.89 88.1261 311.817 88.0725C311.634 88.3574 311.506 88.7315 311.451 89.8892C311.396 91.0469 311.725 99.7206 311.725 100.255C311.725 100.789 311.78 101.128 310.812 101.27C310.04 101.384 307.006 101.53 305.566 101.59V101.591C305.563 101.591 305.56 101.59 305.557 101.59C305.554 101.59 305.551 101.591 305.548 101.591V101.59C304.109 101.53 301.074 101.384 300.303 101.27C299.334 101.128 299.389 100.789 299.389 100.255C299.389 99.7206 299.718 91.0469 299.663 89.8892C299.608 88.7315 299.48 88.3574 299.297 88.0725C299.224 88.1261 298.219 89.2302 298.073 89.2836C297.927 89.337 297.762 89.3725 297.36 89.1945C297.039 89.052 295.728 88.3159 295.112 87.9656C294.893 87.8053 294.78 87.4846 294.984 87.1284C295.715 86.0004 297.284 83.6305 297.708 83.1745C298.238 82.6046 298.457 82.3551 299.974 81.7317C301.491 81.1084 302.989 80.2892 303.227 80.2357C303.464 80.1824 304.446 80.5541 305.557 80.5562Z" fill="#E61717"/>
<path d="M305.557 134.418C306.668 134.415 307.65 134.044 307.887 134.097C308.125 134.151 309.624 134.97 311.141 135.593C312.658 136.216 312.877 136.466 313.407 137.036C313.831 137.492 315.399 139.862 316.13 140.99C316.335 141.346 316.221 141.667 316.002 141.827C315.387 142.177 314.076 142.913 313.754 143.056C313.352 143.234 313.187 143.198 313.041 143.145C312.895 143.091 311.89 141.987 311.817 141.934C311.634 142.219 311.506 142.593 311.451 143.75C311.396 144.908 311.725 153.582 311.725 154.116C311.725 154.651 311.78 154.989 310.812 155.132C310.04 155.245 307.006 155.391 305.566 155.451V155.452C305.563 155.452 305.56 155.452 305.557 155.452C305.554 155.452 305.551 155.452 305.548 155.452V155.451C304.109 155.391 301.074 155.245 300.303 155.132C299.334 154.989 299.389 154.651 299.389 154.116C299.389 153.582 299.718 144.908 299.663 143.75C299.608 142.593 299.48 142.219 299.297 141.934C299.224 141.987 298.219 143.091 298.073 143.145C297.927 143.198 297.762 143.234 297.36 143.056C297.039 142.913 295.728 142.177 295.112 141.827C294.893 141.667 294.78 141.346 294.984 140.99C295.715 139.862 297.284 137.492 297.708 137.036C298.238 136.466 298.457 136.216 299.974 135.593C301.491 134.97 302.989 134.151 303.227 134.097C303.464 134.044 304.446 134.415 305.557 134.418Z" fill="#E61717"/>
<path d="M305.557 161.326C306.668 161.324 307.65 160.952 307.887 161.005C308.125 161.059 309.624 161.878 311.141 162.501C312.658 163.125 312.877 163.374 313.407 163.944C313.831 164.4 315.399 166.77 316.13 167.898C316.335 168.254 316.221 168.575 316.002 168.735C315.387 169.085 314.076 169.821 313.754 169.964C313.352 170.142 313.187 170.107 313.041 170.053C312.895 170 311.89 168.896 311.817 168.842C311.634 169.127 311.506 169.501 311.451 170.659C311.396 171.816 311.725 180.49 311.725 181.025C311.725 181.559 311.78 181.897 310.812 182.04C310.04 182.153 307.006 182.299 305.566 182.359V182.36C305.563 182.36 305.56 182.36 305.557 182.36C305.554 182.36 305.551 182.36 305.548 182.36V182.36C304.109 182.3 301.074 182.153 300.303 182.04C299.334 181.897 299.389 181.559 299.389 181.025C299.389 180.49 299.718 171.816 299.663 170.659C299.608 169.501 299.48 169.127 299.297 168.842C299.224 168.896 298.219 170 298.073 170.053C297.927 170.107 297.762 170.142 297.36 169.964C297.039 169.821 295.728 169.085 295.112 168.735C294.893 168.575 294.78 168.254 294.984 167.898C295.715 166.77 297.284 164.4 297.708 163.944C298.238 163.374 298.457 163.125 299.974 162.501C301.491 161.878 302.989 161.059 303.227 161.005C303.464 160.952 304.446 161.324 305.557 161.326Z" fill="#D6CEC4"/>
<path d="M333.879 80.2461C333.992 80.1992 334.128 80.2616 334.152 80.3814L338.036 99.6503C338.055 99.7433 337.998 99.8347 337.905 99.8582L333.185 101.064C333.087 101.089 332.987 101.028 332.966 100.929L330.304 88.6674L327.643 100.929C327.621 101.028 327.522 101.089 327.423 101.064L322.703 99.8582C322.611 99.8347 322.553 99.7433 322.572 99.6503L326.456 80.3814C326.48 80.2616 326.616 80.1992 326.729 80.2461C327.66 80.632 329.438 80.7085 330.293 80.6956L330.293 80.6954H330.315C331.17 80.7083 332.948 80.632 333.879 80.2461Z" fill="#E61717"/>
<path d="M333.879 134.107C333.992 134.061 334.128 134.123 334.152 134.243L338.036 153.512C338.055 153.605 337.998 153.696 337.905 153.72L333.185 154.926C333.087 154.951 332.987 154.889 332.966 154.79L330.304 142.529L327.643 154.79C327.621 154.889 327.522 154.951 327.423 154.926L322.703 153.72C322.611 153.696 322.553 153.605 322.572 153.512L326.456 134.243C326.48 134.123 326.616 134.061 326.729 134.107C327.66 134.493 329.438 134.57 330.293 134.557L330.293 134.557H330.315C331.17 134.57 332.948 134.493 333.879 134.107Z" fill="#E61717"/>
<path d="M333.879 161.016C333.992 160.969 334.128 161.031 334.152 161.151L338.036 180.42C338.055 180.513 337.998 180.604 337.905 180.628L333.185 181.834C333.087 181.859 332.987 181.797 332.966 181.698L330.304 169.437L327.643 181.698C327.621 181.797 327.522 181.859 327.423 181.834L322.703 180.628C322.611 180.604 322.553 180.513 322.572 180.42L326.456 161.151C326.48 161.031 326.616 160.969 326.729 161.016C327.66 161.402 329.438 161.478 330.293 161.465L330.293 161.465H330.315C331.17 161.478 332.948 161.402 333.879 161.016Z" fill="#D6CEC4"/>
</g>
<defs>
<clipPath id="clip0_5145_11851">
<rect width="345" height="193" fill="white"/>
</clipPath>
</defs>
</svg>
