<svg width="840" height="840" viewBox="0 0 840 840" fill="none" xmlns="http://www.w3.org/2000/svg">
<g opacity="0.4">
<path d="M420.021 0.293986C421.024 0.29215 421.91 -0.0433797 422.124 0.00471687C422.339 0.0530535 423.691 0.792446 425.061 1.35506C426.43 1.91773 426.628 2.14291 427.106 2.65735C427.489 3.06889 428.904 5.20796 429.564 6.22614C429.749 6.54766 429.646 6.83714 429.449 6.98182C428.893 7.29799 427.71 7.96234 427.419 8.09097C427.057 8.2517 426.908 8.21963 426.776 8.17142C426.644 8.12319 425.737 7.12663 425.671 7.07824C425.506 7.33547 425.391 7.67306 425.341 8.718C425.291 9.76301 425.588 17.592 425.588 18.0743C425.588 18.5566 425.638 18.862 424.764 18.9907C424.067 19.0931 421.328 19.2251 420.029 19.2791V19.28C420.026 19.2799 420.024 19.2797 420.021 19.2796C420.018 19.2797 420.015 19.2799 420.013 19.28V19.2793C418.714 19.2252 415.975 19.0931 415.278 18.9907C414.404 18.862 414.453 18.5566 414.453 18.0743C414.453 17.592 414.75 9.76301 414.701 8.718C414.651 7.67306 414.536 7.33547 414.371 7.07824C414.305 7.12663 413.398 8.12319 413.266 8.17142C413.134 8.21963 412.985 8.2517 412.622 8.09097C412.332 7.96234 411.149 7.29799 410.593 6.98182C410.395 6.83714 410.293 6.54766 410.478 6.22614C411.138 5.20796 412.553 3.06889 412.936 2.65735C413.414 2.14291 413.612 1.91773 414.981 1.35506C416.35 0.792446 417.703 0.0530535 417.918 0.00471687C418.131 -0.0433797 419.018 0.29215 420.021 0.293986Z" fill="#E61717"/>
<path d="M420.022 839.705C419.019 839.706 418.133 840.042 417.919 839.994C417.704 839.945 416.352 839.206 414.982 838.643C413.613 838.081 413.415 837.856 412.937 837.341C412.554 836.93 411.139 834.791 410.479 833.772C410.294 833.451 410.397 833.161 410.594 833.017C411.15 832.701 412.333 832.036 412.624 831.908C412.986 831.747 413.135 831.779 413.267 831.827C413.399 831.875 414.306 832.872 414.372 832.92C414.537 832.663 414.652 832.325 414.702 831.281C414.751 830.236 414.455 822.407 414.455 821.924C414.455 821.442 414.405 821.137 415.279 821.008C415.976 820.905 418.715 820.773 420.014 820.719L420.014 820.719C420.017 820.719 420.019 820.719 420.022 820.719C420.025 820.719 420.028 820.719 420.03 820.719L420.03 820.719C421.329 820.773 424.068 820.905 424.765 821.008C425.639 821.137 425.59 821.442 425.59 821.924C425.59 822.407 425.293 830.236 425.342 831.281C425.392 832.325 425.507 832.663 425.672 832.92C425.738 832.872 426.645 831.875 426.777 831.827C426.909 831.779 427.058 831.747 427.421 831.908C427.711 832.036 428.894 832.701 429.45 833.017C429.648 833.161 429.75 833.451 429.565 833.772C428.905 834.791 427.49 836.93 427.107 837.341C426.629 837.856 426.431 838.081 425.062 838.643C423.693 839.206 422.34 839.945 422.125 839.994C421.912 840.042 421.025 839.706 420.022 839.705Z" fill="#E61717"/>
<path d="M464.389 2.35163C464.498 2.31865 464.617 2.38841 464.629 2.50083L466.461 20.594C466.47 20.6813 466.409 20.7602 466.322 20.7735L461.867 21.4568C461.774 21.471 461.687 21.4055 461.677 21.3124L460.336 9.78192L456.776 20.8308C456.747 20.92 456.65 20.9675 456.561 20.9354L452.325 19.3979C452.242 19.3679 452.197 19.2785 452.223 19.1946L457.543 1.80445C457.576 1.69642 457.706 1.65122 457.806 1.70465C458.628 2.14415 460.259 2.37548 461.047 2.44092L461.047 2.44079L461.068 2.44281C461.853 2.53204 463.498 2.6227 464.389 2.35163Z" fill="#E61717"/>
<path d="M375.654 837.648C375.545 837.681 375.426 837.611 375.414 837.498L373.582 819.405C373.573 819.318 373.634 819.239 373.721 819.226L378.176 818.542C378.269 818.528 378.355 818.594 378.366 818.687L379.707 830.217L383.267 819.169C383.296 819.079 383.393 819.032 383.482 819.064L387.718 820.601C387.801 820.631 387.846 820.721 387.82 820.805L382.5 838.195C382.467 838.303 382.337 838.348 382.237 838.295C381.415 837.855 379.784 837.624 378.996 837.558L378.996 837.558L378.975 837.556C378.19 837.467 376.545 837.377 375.654 837.648Z" fill="#E61717"/>
<path d="M501.73 8.3237C502.714 8.51714 503.649 8.36062 503.85 8.44943C504.051 8.53862 505.234 9.52719 506.467 10.3456C507.701 11.164 507.851 11.4234 508.22 12.0211C508.515 12.4993 509.487 14.873 509.936 16.0002C510.055 16.3515 509.898 16.6155 509.676 16.7189C509.069 16.9209 507.779 17.3422 507.47 17.4118C507.082 17.4988 506.943 17.4385 506.823 17.3655C506.703 17.2925 506.007 16.1384 505.952 16.0781C505.74 16.2983 505.561 16.6069 505.309 17.6222C505.057 18.6376 503.824 26.3746 503.73 26.8477C503.636 27.3207 503.625 27.6299 502.743 27.586C502.04 27.5508 499.327 27.1471 498.043 26.9472L498.042 26.9481C498.04 26.9474 498.037 26.9467 498.034 26.9461C498.032 26.9457 498.029 26.9453 498.026 26.9449L498.026 26.9442C496.763 26.6383 494.102 25.9754 493.439 25.7394C492.606 25.443 492.714 25.1531 492.808 24.68C492.902 24.2069 494.717 16.5855 494.872 15.5509C495.027 14.5163 494.979 14.1627 494.868 13.8783C494.793 13.9129 493.71 14.7137 493.571 14.7353C493.432 14.757 493.28 14.7595 492.955 14.5312C492.696 14.3485 491.664 13.4665 491.181 13.0483C491.015 12.8678 490.971 12.564 491.215 12.2846C492.06 11.4143 493.865 9.59174 494.321 9.26258C494.89 8.85111 495.128 8.66876 496.581 8.3834C498.033 8.09807 499.504 7.63614 499.724 7.63051C499.943 7.62496 500.747 8.12667 501.73 8.3237Z" fill="#D6CEC4"/>
<path d="M338.32 831.675C337.336 831.482 336.401 831.638 336.201 831.55C336 831.46 334.817 830.472 333.584 829.653C332.35 828.835 332.2 828.576 331.831 827.978C331.536 827.5 330.564 825.126 330.115 823.999C329.996 823.648 330.153 823.384 330.375 823.28C330.981 823.078 332.271 822.657 332.581 822.587C332.968 822.5 333.108 822.561 333.228 822.634C333.348 822.707 334.044 823.861 334.099 823.921C334.311 823.701 334.49 823.392 334.742 822.377C334.994 821.361 336.227 813.624 336.321 813.151C336.415 812.678 336.426 812.369 337.308 812.413C338.011 812.448 340.723 812.852 342.008 813.052L342.008 813.051C342.011 813.052 342.014 813.052 342.016 813.053C342.019 813.053 342.022 813.054 342.025 813.054L342.024 813.055C343.288 813.361 345.949 814.024 346.612 814.26C347.445 814.556 347.337 814.846 347.243 815.319C347.149 815.792 345.334 823.413 345.179 824.448C345.024 825.483 345.071 825.836 345.183 826.121C345.257 826.086 346.341 825.285 346.48 825.264C346.619 825.242 346.771 825.24 347.095 825.468C347.355 825.651 348.386 826.533 348.87 826.951C349.036 827.131 349.08 827.435 348.836 827.714C347.99 828.585 346.186 830.407 345.73 830.736C345.161 831.148 344.923 831.33 343.47 831.616C342.018 831.901 340.547 832.363 340.327 832.369C340.108 832.374 339.304 831.872 338.32 831.675Z" fill="#D6CEC4"/>
<path d="M544.849 18.9795C544.962 18.9683 545.066 19.0599 545.055 19.1724L543.33 37.2762C543.322 37.3635 543.247 37.429 543.159 37.4251L538.656 37.2281C538.562 37.2239 538.49 37.1428 538.497 37.0494L539.427 25.4785L533.784 35.6229C533.739 35.7048 533.634 35.7325 533.553 35.6838L529.697 33.351C529.622 33.3054 529.595 33.209 529.637 33.1317L538.24 17.1099C538.294 17.0104 538.43 16.9914 538.518 17.0633C539.239 17.6544 540.793 18.1987 541.553 18.4163L541.554 18.4162L541.573 18.4222C542.327 18.6627 543.922 19.0717 544.849 18.9795Z" fill="#E61717"/>
<path d="M295.201 821.02C295.088 821.032 294.985 820.94 294.996 820.827L296.72 802.724C296.729 802.636 296.804 802.571 296.892 802.575L301.395 802.772C301.489 802.776 301.561 802.857 301.553 802.95L300.624 814.521L306.266 804.377C306.312 804.295 306.417 804.267 306.497 804.316L310.354 806.649C310.429 806.694 310.456 806.791 310.414 806.868L301.811 822.89C301.757 822.989 301.62 823.008 301.533 822.936C300.812 822.345 299.258 821.801 298.497 821.583L298.497 821.584L298.477 821.578C297.724 821.337 296.129 820.928 295.201 821.02Z" fill="#E61717"/>
<path d="M580.309 32.1055C581.236 32.4868 582.184 32.5153 582.363 32.6415C582.543 32.7681 583.511 33.968 584.561 35.0108C585.612 36.0537 585.709 36.3374 585.954 36.9956C586.151 37.522 586.642 40.0396 586.863 41.2326C586.911 41.6003 586.706 41.8287 586.468 41.8869C585.834 41.967 584.486 42.1291 584.169 42.137C583.772 42.147 583.647 42.0607 583.544 41.9657C583.44 41.8708 582.982 40.6033 582.94 40.5333C582.689 40.708 582.453 40.976 582.009 41.9228C581.564 42.8697 578.848 50.2186 578.664 50.6644C578.48 51.1101 578.409 51.4113 577.552 51.1963C576.869 51.025 574.287 50.101 573.066 49.6549L573.066 49.6557C573.063 49.6545 573.061 49.6533 573.058 49.6521C573.056 49.6512 573.053 49.6503 573.05 49.6494L573.051 49.6487C571.871 49.1026 569.39 47.9345 568.785 47.5739C568.027 47.1211 568.189 46.8577 568.373 46.412C568.557 45.9663 571.821 38.844 572.175 37.8593C572.528 36.8747 572.55 36.5186 572.496 36.2179C572.417 36.2373 571.198 36.8119 571.057 36.8061C570.917 36.8002 570.767 36.7732 570.493 36.486C570.274 36.2563 569.434 35.1904 569.042 34.6861C568.914 34.4768 568.93 34.1702 569.224 33.9436C570.222 33.2546 572.347 31.8182 572.858 31.584C573.497 31.2913 573.766 31.1587 575.246 31.1616C576.726 31.1644 578.259 30.9977 578.475 31.0349C578.691 31.0722 579.383 31.7208 580.309 32.1055Z" fill="#E61717"/>
<path d="M259.742 807.893C258.814 807.512 257.867 807.484 257.688 807.358C257.508 807.231 256.54 806.031 255.49 804.988C254.439 803.945 254.342 803.662 254.096 803.003C253.9 802.477 253.409 799.959 253.188 798.766C253.14 798.399 253.345 798.17 253.583 798.112C254.217 798.032 255.564 797.87 255.882 797.862C256.279 797.852 256.404 797.938 256.507 798.033C256.611 798.128 257.069 799.396 257.111 799.466C257.362 799.291 257.597 799.023 258.042 798.076C258.487 797.129 261.203 789.78 261.387 789.335C261.571 788.889 261.642 788.588 262.499 788.803C263.182 788.974 265.763 789.898 266.985 790.344L266.985 790.343C266.988 790.345 266.99 790.346 266.993 790.347C266.995 790.348 266.998 790.349 267 790.35L267 790.35C268.18 790.896 270.661 792.065 271.265 792.425C272.024 792.878 271.862 793.141 271.678 793.587C271.493 794.033 268.229 801.155 267.876 802.14C267.523 803.124 267.5 803.48 267.555 803.781C267.634 803.762 268.853 803.187 268.994 803.193C269.134 803.199 269.283 803.226 269.557 803.513C269.777 803.743 270.617 804.809 271.009 805.313C271.137 805.522 271.121 805.829 270.827 806.055C269.829 806.744 267.703 808.181 267.193 808.415C266.554 808.708 266.285 808.84 264.805 808.837C263.325 808.835 261.792 809.001 261.575 808.964C261.359 808.927 260.668 808.278 259.742 807.893Z" fill="#E61717"/>
<path d="M620.528 50.952C620.641 50.9629 620.724 51.073 620.692 51.1812L615.476 68.6029C615.451 68.687 615.364 68.7365 615.279 68.7156L610.9 67.6458C610.809 67.6234 610.754 67.5298 610.78 67.4396L613.944 56.271L606.435 65.123C606.374 65.1944 606.266 65.2011 606.196 65.1377L602.868 62.0987C602.803 62.0394 602.795 61.9396 602.851 61.8719L614.409 47.8315C614.481 47.7443 614.619 47.7524 614.691 47.8399C615.283 48.56 616.701 49.3965 617.405 49.758L617.405 49.7579L617.423 49.7676C618.115 50.1501 619.6 50.8619 620.528 50.952Z" fill="#E61717"/>
<path d="M219.523 789.048C219.41 789.037 219.326 788.927 219.359 788.819L224.575 771.397C224.6 771.313 224.687 771.263 224.772 771.284L229.15 772.354C229.242 772.377 229.297 772.47 229.271 772.56L226.107 783.729L233.616 774.877C233.677 774.806 233.785 774.799 233.855 774.862L237.183 777.901C237.248 777.961 237.255 778.06 237.2 778.128L225.642 792.168C225.57 792.256 225.432 792.248 225.36 792.16C224.768 791.44 223.349 790.603 222.646 790.242L222.646 790.242L222.628 790.232C221.936 789.85 220.451 789.138 219.523 789.048Z" fill="#E61717"/>
<path d="M652.754 70.7303C653.589 71.2848 654.513 71.4972 654.664 71.6558C654.816 71.8151 655.532 73.1804 656.359 74.4078C657.187 75.6353 657.226 75.9324 657.339 76.6258C657.43 77.1804 657.421 79.7454 657.406 80.9586C657.381 81.3286 657.136 81.5128 656.891 81.5234C656.253 81.4786 654.9 81.3753 654.587 81.3213C654.196 81.2539 654.09 81.1448 654.007 81.0316C653.924 80.9183 653.722 79.5859 653.694 79.509C653.414 79.6315 653.13 79.8485 652.51 80.6906C651.889 81.5328 647.795 88.2124 647.527 88.6138C647.26 89.0152 647.132 89.2968 646.333 88.9191C645.697 88.6181 643.344 87.2092 642.233 86.5339L642.233 86.5346C642.231 86.533 642.228 86.5313 642.226 86.5297C642.224 86.5282 642.221 86.5268 642.219 86.5254L642.219 86.5248C641.168 85.7595 638.962 84.1308 638.439 83.6594C637.783 83.0675 637.994 82.8408 638.261 82.4395C638.529 82.0381 643.117 75.6876 643.655 74.7905C644.194 73.8935 644.285 73.5485 644.29 73.243C644.208 73.2466 642.901 73.5729 642.764 73.5398C642.627 73.5068 642.486 73.4511 642.273 73.1162C642.103 72.8481 641.487 71.6391 641.2 71.068C641.115 70.8379 641.191 70.5402 641.523 70.3751C642.636 69.8937 645 68.8985 645.547 68.7683C646.231 68.6054 646.52 68.5278 647.971 68.8187C649.423 69.1097 650.958 69.2444 651.164 69.3232C651.368 69.4018 651.92 70.1726 652.754 70.7303Z" fill="#E61717"/>
<path d="M187.297 769.271C186.461 768.716 185.538 768.504 185.386 768.345C185.235 768.186 184.519 766.821 183.692 765.593C182.864 764.366 182.824 764.069 182.711 763.375C182.621 762.821 182.629 760.256 182.645 759.042C182.669 758.672 182.915 758.488 183.16 758.478C183.797 758.522 185.151 758.626 185.464 758.68C185.855 758.747 185.961 758.856 186.044 758.969C186.127 759.083 186.329 760.415 186.357 760.492C186.637 760.369 186.92 760.153 187.541 759.31C188.162 758.468 192.256 751.789 192.523 751.387C192.791 750.986 192.919 750.704 193.718 751.082C194.354 751.383 196.707 752.792 197.818 753.467L197.818 753.466C197.82 753.468 197.823 753.47 197.825 753.471C197.827 753.473 197.829 753.474 197.832 753.476L197.831 753.476C198.883 754.241 201.088 755.87 201.611 756.342C202.267 756.933 202.057 757.16 201.789 757.562C201.522 757.963 196.934 764.313 196.395 765.21C195.857 766.107 195.766 766.452 195.761 766.758C195.843 766.754 197.15 766.428 197.287 766.461C197.423 766.494 197.565 766.55 197.777 766.885C197.948 767.153 198.564 768.362 198.851 768.933C198.935 769.163 198.86 769.461 198.528 769.626C197.414 770.107 195.05 771.102 194.504 771.233C193.82 771.396 193.531 771.473 192.079 771.182C190.628 770.891 189.092 770.757 188.887 770.678C188.682 770.599 188.131 769.828 187.297 769.271Z" fill="#E61717"/>
<path d="M688.539 97.045C688.648 97.0777 688.708 97.2019 688.655 97.3017L680.148 113.375C680.107 113.452 680.012 113.484 679.932 113.447L675.846 111.545C675.761 111.505 675.725 111.403 675.768 111.319L681.046 100.981L671.956 108.201C671.883 108.259 671.776 108.245 671.72 108.169L669.047 104.54C668.994 104.47 669.007 104.37 669.074 104.315L683.145 92.793C683.232 92.7215 683.366 92.7562 683.419 92.8561C683.86 93.6776 685.088 94.7743 685.708 95.2657L685.708 95.2657L685.724 95.2788C686.328 95.7887 687.647 96.776 688.539 97.045Z" fill="#D6CEC4"/>
<path d="M151.52 742.956C151.411 742.923 151.35 742.799 151.403 742.699L159.911 726.626C159.952 726.549 160.047 726.517 160.127 726.554L164.213 728.456C164.298 728.496 164.334 728.598 164.291 728.682L159.013 739.02L168.102 731.8C168.175 731.741 168.283 731.756 168.339 731.832L171.012 735.461C171.064 735.531 171.052 735.631 170.984 735.686L156.914 747.208C156.826 747.28 156.693 747.245 156.639 747.145C156.199 746.323 154.97 745.227 154.351 744.735L154.351 744.735L154.335 744.722C153.73 744.212 152.412 743.225 151.52 742.956Z" fill="#D6CEC4"/>
<path d="M716.296 122.719C717.008 123.425 717.873 123.814 717.99 123.999C718.108 124.184 718.544 125.663 719.117 127.028C719.69 128.393 719.671 128.692 719.647 129.394C719.627 129.956 719.12 132.47 718.868 133.657C718.772 134.015 718.495 134.148 718.253 134.111C717.637 133.943 716.329 133.578 716.033 133.464C715.662 133.322 715.58 133.194 715.521 133.067C715.461 132.94 715.522 131.593 715.509 131.512C715.211 131.578 714.891 131.736 714.118 132.441C713.345 133.146 708.029 138.901 707.689 139.243C707.348 139.584 707.168 139.836 706.458 139.31C705.892 138.891 703.859 137.051 702.901 136.172L702.9 136.173C702.898 136.17 702.896 136.168 702.894 136.166C702.892 136.165 702.89 136.163 702.888 136.161L702.889 136.16C702.007 135.205 700.16 133.178 699.739 132.614C699.211 131.906 699.461 131.724 699.802 131.383C700.142 131.041 705.879 125.705 706.582 124.93C707.284 124.155 707.441 123.834 707.505 123.536C707.424 123.523 706.078 123.589 705.951 123.53C705.823 123.471 705.696 123.389 705.552 123.019C705.437 122.723 705.068 121.417 704.898 120.801C704.86 120.559 704.992 120.281 705.349 120.184C706.535 119.929 709.048 119.413 709.61 119.391C710.312 119.365 710.611 119.345 711.978 119.913C713.345 120.481 714.825 120.912 715.011 121.029C715.196 121.146 715.587 122.009 716.296 122.719Z" fill="#E61717"/>
<path d="M123.758 717.283C123.047 716.576 122.182 716.188 122.064 716.003C121.946 715.817 121.51 714.339 120.938 712.974C120.365 711.609 120.384 711.309 120.408 710.607C120.428 710.046 120.935 707.531 121.186 706.344C121.282 705.986 121.559 705.853 121.802 705.891C122.418 706.059 123.725 706.424 124.022 706.537C124.392 706.68 124.475 706.807 124.534 706.935C124.594 707.062 124.533 708.408 124.545 708.489C124.844 708.423 125.164 708.266 125.937 707.56C126.709 706.855 132.026 701.1 132.366 700.759C132.706 700.417 132.887 700.166 133.597 700.692C134.163 701.111 136.196 702.951 137.154 703.83L137.155 703.829C137.157 703.831 137.158 703.833 137.16 703.835C137.162 703.837 137.164 703.839 137.166 703.841L137.166 703.841C138.048 704.796 139.895 706.823 140.316 707.388C140.844 708.096 140.593 708.277 140.253 708.619C139.912 708.96 134.176 714.296 133.473 715.071C132.771 715.846 132.614 716.167 132.549 716.466C132.63 716.478 133.976 716.413 134.104 716.472C134.231 716.531 134.359 716.613 134.503 716.983C134.618 717.279 134.987 718.585 135.157 719.201C135.195 719.443 135.063 719.72 134.705 719.817C133.519 720.073 131.007 720.589 130.445 720.61C129.743 720.637 129.444 720.657 128.077 720.089C126.71 719.521 125.23 719.09 125.044 718.972C124.858 718.855 124.467 717.992 123.758 717.283Z" fill="#E61717"/>
<path d="M746.272 155.496C746.372 155.549 746.407 155.683 746.336 155.771L734.862 169.88C734.807 169.948 734.708 169.961 734.636 169.909L730.999 167.248C730.923 167.192 730.908 167.085 730.966 167.011L738.155 157.898L727.835 163.211C727.751 163.254 727.649 163.219 727.609 163.133L725.693 159.054C725.656 158.974 725.687 158.879 725.764 158.838L741.808 150.276C741.908 150.222 742.032 150.282 742.065 150.391C742.337 151.282 743.329 152.597 743.841 153.2L743.841 153.2L743.854 153.216C744.348 153.834 745.449 155.059 746.272 155.496Z" fill="#E61717"/>
<path d="M93.7868 684.506C93.6867 684.453 93.6515 684.319 93.7228 684.232L105.197 670.122C105.252 670.054 105.351 670.042 105.422 670.094L109.06 672.754C109.136 672.81 109.151 672.917 109.093 672.991L101.903 682.105L112.224 676.792C112.307 676.749 112.41 676.784 112.45 676.869L114.366 680.949C114.403 681.028 114.372 681.123 114.294 681.165L98.2502 689.727C98.1505 689.78 98.0262 689.72 97.9931 689.612C97.7211 688.72 96.7295 687.405 96.2175 686.803L96.2173 686.803L96.2041 686.787C95.7106 686.169 94.6099 684.944 93.7868 684.506Z" fill="#E61717"/>
<path d="M768.5 186.082C769.06 186.914 769.833 187.463 769.912 187.668C769.992 187.873 770.132 189.408 770.428 190.858C770.723 192.309 770.647 192.598 770.486 193.282C770.358 193.829 769.371 196.197 768.893 197.312C768.729 197.645 768.432 197.721 768.201 197.637C767.629 197.353 766.418 196.74 766.15 196.571C765.814 196.359 765.758 196.218 765.724 196.082C765.691 195.945 766.012 194.636 766.016 194.555C765.71 194.561 765.366 194.653 764.471 195.195C763.575 195.736 757.24 200.346 756.84 200.615C756.44 200.883 756.214 201.095 755.619 200.441C755.146 199.919 753.51 197.719 752.741 196.67L752.741 196.671C752.739 196.669 752.738 196.666 752.736 196.664C752.735 196.662 752.733 196.659 752.731 196.657L752.732 196.657C752.053 195.548 750.636 193.2 750.333 192.565C749.952 191.767 750.234 191.638 750.634 191.369C751.035 191.101 757.7 186.984 758.54 186.36C759.38 185.737 759.596 185.453 759.718 185.172C759.641 185.144 758.308 184.947 758.194 184.864C758.081 184.781 757.971 184.676 757.903 184.285C757.847 183.972 757.74 182.619 757.693 181.982C757.702 181.737 757.886 181.491 758.256 181.465C759.469 181.445 762.034 181.429 762.589 181.517C763.282 181.627 763.58 181.666 764.81 182.489C766.04 183.313 767.408 184.024 767.568 184.175C767.727 184.326 767.942 185.249 768.5 186.082Z" fill="#D6CEC4"/>
<path d="M71.551 653.92C70.9906 653.088 70.2178 652.539 70.1386 652.335C70.0591 652.13 69.9191 650.595 69.6232 649.144C69.3273 647.694 69.404 647.404 69.5645 646.72C69.6929 646.173 70.6801 643.806 71.1576 642.69C71.3216 642.358 71.619 642.281 71.8495 642.365C72.4215 642.65 73.6326 643.262 73.9013 643.432C74.2369 643.643 74.2931 643.784 74.3266 643.921C74.36 644.057 74.0383 645.366 74.0349 645.448C74.3405 645.441 74.6851 645.349 75.5803 644.808C76.4755 644.267 82.8104 639.657 83.2108 639.388C83.6113 639.119 83.8373 638.908 84.4313 639.562C84.9045 640.083 86.5406 642.284 87.3095 643.332L87.3103 643.332C87.3117 643.334 87.3131 643.336 87.3145 643.339C87.3162 643.341 87.3178 643.343 87.3195 643.345L87.3189 643.346C87.998 644.454 89.4147 646.802 89.7179 647.437C90.0983 648.235 89.8171 648.364 89.4167 648.633C89.0163 648.902 82.3505 653.019 81.5105 653.642C80.6704 654.266 80.4545 654.55 80.3329 654.83C80.4099 654.858 81.7429 655.056 81.8565 655.139C81.9701 655.221 82.0795 655.327 82.1483 655.717C82.2033 656.03 82.3112 657.383 82.3582 658.02C82.3484 658.265 82.1651 658.512 81.7952 658.537C80.582 658.557 78.0171 658.574 77.4621 658.486C76.7683 658.375 76.4711 658.336 75.2408 657.513C74.0106 656.69 72.6429 655.979 72.4831 655.828C72.324 655.677 72.1084 654.754 71.551 653.92Z" fill="#D6CEC4"/>
<path d="M791.524 224.068C791.612 224.14 791.62 224.277 791.533 224.35L777.532 235.955C777.465 236.011 777.365 236.004 777.305 235.939L774.255 232.621C774.191 232.552 774.198 232.444 774.269 232.383L783.095 224.843L771.938 228.046C771.847 228.072 771.754 228.017 771.731 227.926L770.646 223.551C770.625 223.466 770.674 223.379 770.758 223.353L788.162 218.078C788.27 218.045 788.38 218.128 788.392 218.241C788.485 219.169 789.202 220.652 789.587 221.342L789.587 221.342L789.597 221.361C789.96 222.063 790.802 223.478 791.524 224.068Z" fill="#E61717"/>
<path d="M48.5349 615.936C48.447 615.864 48.4384 615.726 48.5254 615.654L62.5264 604.048C62.594 603.992 62.6937 603.999 62.7533 604.064L65.8036 607.382C65.8672 607.451 65.8609 607.559 65.7896 607.62L56.9634 615.16L68.121 611.958C68.2111 611.932 68.3049 611.986 68.3276 612.078L69.4124 616.452C69.4336 616.538 69.3844 616.625 69.3004 616.65L51.8965 621.925C51.7884 621.958 51.6781 621.875 51.6668 621.762C51.5735 620.835 50.8568 619.352 50.472 618.661L50.4718 618.661L50.462 618.643C50.0982 617.941 49.257 616.525 48.5349 615.936Z" fill="#E61717"/>
<path d="M807.374 258.397C807.762 259.322 808.413 260.011 808.451 260.227C808.489 260.444 808.327 261.977 808.335 263.457C808.343 264.937 808.212 265.206 807.921 265.846C807.689 266.358 806.259 268.488 805.574 269.489C805.348 269.783 805.042 269.8 804.832 269.673C804.326 269.282 803.258 268.446 803.027 268.227C802.739 267.955 802.711 267.805 802.705 267.665C802.699 267.524 803.269 266.303 803.288 266.224C802.987 266.171 802.631 266.194 801.648 266.551C800.665 266.907 793.553 270.196 793.108 270.381C792.663 270.567 792.4 270.73 791.945 269.973C791.582 269.37 790.406 266.893 789.856 265.715L789.855 265.715C789.854 265.713 789.853 265.71 789.852 265.707C789.851 265.705 789.85 265.702 789.849 265.7L789.849 265.7C789.399 264.48 788.466 261.901 788.293 261.219C788.075 260.363 788.376 260.291 788.821 260.105C789.266 259.919 796.606 257.179 797.551 256.731C798.496 256.283 798.764 256.046 798.937 255.795C798.867 255.753 797.598 255.299 797.503 255.196C797.408 255.093 797.321 254.968 797.329 254.571C797.336 254.254 797.494 252.906 797.572 252.272C797.629 252.033 797.857 251.827 798.225 251.874C799.419 252.091 801.938 252.574 802.465 252.768C803.124 253.012 803.408 253.108 804.454 254.155C805.501 255.202 806.704 256.165 806.831 256.345C806.958 256.523 806.99 257.471 807.374 258.397Z" fill="#D6CEC4"/>
<path d="M32.6845 581.607C32.2967 580.682 31.6456 579.993 31.6077 579.777C31.5697 579.561 31.7312 578.028 31.7233 576.548C31.7154 575.067 31.847 574.798 32.1376 574.158C32.3701 573.647 33.7992 571.517 34.4848 570.516C34.7104 570.221 35.017 570.204 35.2267 570.331C35.7323 570.722 36.8011 571.558 37.0316 571.777C37.3196 572.05 37.3472 572.199 37.3535 572.34C37.3598 572.48 36.7894 573.701 36.7702 573.781C37.0711 573.834 37.4271 573.81 38.4106 573.454C39.3941 573.097 46.5052 569.809 46.9503 569.623C47.3954 569.437 47.6582 569.274 48.1135 570.031C48.4762 570.635 49.6527 573.111 50.2027 574.29L50.2035 574.289C50.2044 574.292 50.2054 574.294 50.2063 574.297C50.2075 574.299 50.2087 574.302 50.2099 574.304L50.2092 574.305C50.6595 575.524 51.5921 578.103 51.7658 578.785C51.9837 579.642 51.6827 579.714 51.2376 579.899C50.7925 580.085 43.4529 582.825 42.5075 583.274C41.5622 583.722 41.2951 583.958 41.1212 584.209C41.1913 584.252 42.4603 584.705 42.5557 584.809C42.651 584.912 42.7377 585.036 42.7291 585.433C42.7222 585.751 42.5647 587.099 42.4867 587.733C42.4294 587.971 42.2017 588.177 41.8338 588.13C40.6401 587.914 38.1209 587.431 37.5937 587.236C36.9347 586.993 36.6507 586.897 35.6043 585.85C34.5579 584.803 33.3547 583.839 33.2274 583.66C33.1007 583.481 33.069 582.533 32.6845 581.607Z" fill="#D6CEC4"/>
<path d="M822.557 300.137C822.63 300.225 822.611 300.362 822.512 300.416L806.519 309.074C806.442 309.115 806.346 309.089 806.3 309.014L803.954 305.166C803.905 305.085 803.932 304.98 804.014 304.934L814.139 299.257L802.571 300.226C802.478 300.234 802.397 300.162 802.392 300.068L802.18 295.566C802.176 295.478 802.241 295.402 802.328 295.394L820.426 293.608C820.538 293.597 820.63 293.7 820.62 293.813C820.531 294.74 820.945 296.334 821.188 297.087L821.188 297.087L821.194 297.107C821.414 297.866 821.964 299.419 822.557 300.137Z" fill="#E61717"/>
<path d="M17.4973 539.868C17.4251 539.78 17.4436 539.643 17.543 539.589L33.5354 530.931C33.6126 530.89 33.7091 530.916 33.7549 530.991L36.1008 534.839C36.1497 534.92 36.1225 535.025 36.0407 535.07L25.9156 540.748L37.4832 539.779C37.5766 539.771 37.658 539.843 37.6625 539.937L37.8748 544.439C37.879 544.527 37.8138 544.602 37.7265 544.611L19.6286 546.397C19.5162 546.408 19.4243 546.305 19.4351 546.192C19.5242 545.264 19.1098 543.671 18.8668 542.918L18.8666 542.918L18.8606 542.898C18.6404 542.139 18.0909 540.586 17.4973 539.868Z" fill="#E61717"/>
<path d="M831.421 336.895C831.622 337.878 832.126 338.68 832.121 338.899C832.117 339.119 831.66 340.592 831.379 342.045C831.099 343.499 830.917 343.737 830.508 344.308C830.18 344.764 828.364 346.575 827.496 347.424C827.218 347.669 826.914 347.626 826.733 347.46C826.313 346.979 825.427 345.95 825.244 345.691C825.014 345.367 825.016 345.215 825.038 345.076C825.059 344.938 825.856 343.851 825.89 343.777C825.605 343.666 825.252 343.62 824.218 343.778C823.184 343.936 815.568 345.777 815.096 345.873C814.623 345.968 814.333 346.077 814.034 345.246C813.796 344.584 813.124 341.925 812.814 340.662L812.813 340.663C812.813 340.66 812.812 340.657 812.812 340.654C812.811 340.652 812.81 340.649 812.81 340.646L812.81 340.646C812.606 339.362 812.193 336.651 812.156 335.948C812.109 335.066 812.418 335.054 812.891 334.959C813.364 334.863 821.096 333.604 822.111 333.348C823.125 333.093 823.433 332.913 823.653 332.7C823.592 332.645 822.436 331.953 822.362 331.833C822.289 331.714 822.228 331.574 822.314 331.187C822.382 330.877 822.799 329.585 822.999 328.978C823.102 328.756 823.365 328.598 823.717 328.715C824.846 329.161 827.223 330.125 827.702 330.418C828.301 330.785 828.561 330.935 829.383 332.165C830.206 333.396 831.199 334.575 831.289 334.776C831.378 334.976 831.225 335.912 831.421 336.895Z" fill="#E61717"/>
<path d="M8.63324 503.11C8.43286 502.128 7.92842 501.325 7.93322 501.106C7.9381 500.886 8.39502 499.414 8.6754 497.96C8.95581 496.507 9.13735 496.268 9.54688 495.698C9.8745 495.241 11.6909 493.43 12.5583 492.581C12.8369 492.337 13.1409 492.38 13.3219 492.545C13.7418 493.027 14.6273 494.055 14.8109 494.314C15.0402 494.638 15.0382 494.79 15.0171 494.929C14.9959 495.068 14.1988 496.154 14.1644 496.229C14.4492 496.34 14.803 496.386 15.837 496.227C16.8711 496.069 24.4863 494.228 24.9591 494.132C25.4318 494.037 25.7214 493.928 26.0206 494.759C26.2589 495.422 26.9307 498.08 27.2409 499.343L27.2417 499.343C27.2421 499.345 27.2425 499.348 27.2429 499.351C27.2436 499.354 27.2443 499.356 27.245 499.359L27.2443 499.359C27.4485 500.643 27.8613 503.354 27.8988 504.057C27.9458 504.939 27.6366 504.951 27.1639 505.047C26.6912 505.142 18.9584 506.402 17.9439 506.657C16.9294 506.912 16.6214 507.092 16.4019 507.305C16.4625 507.36 17.6189 508.052 17.6923 508.172C17.7657 508.292 17.8265 508.431 17.7408 508.819C17.6723 509.129 17.2554 510.42 17.0554 511.027C16.9528 511.25 16.6893 511.407 16.3376 511.29C15.2089 510.845 12.8319 509.881 12.3527 509.587C11.7538 509.22 11.4939 509.071 10.6712 507.84C9.84865 506.61 8.85606 505.43 8.76618 505.229C8.67669 505.029 8.83002 504.094 8.63324 503.11Z" fill="#E61717"/>
<path d="M838.189 380.793C838.243 380.892 838.198 381.023 838.09 381.057L820.718 386.436C820.634 386.462 820.545 386.417 820.515 386.334L818.963 382.103C818.93 382.015 818.977 381.917 819.067 381.888L830.103 378.29L818.568 376.989C818.475 376.978 818.409 376.892 818.423 376.799L819.091 372.342C819.104 372.255 819.183 372.193 819.27 372.202L837.37 373.973C837.482 373.984 837.552 374.103 837.52 374.212C837.252 375.104 837.348 376.748 837.44 377.534L837.44 377.534L837.442 377.554C837.51 378.342 837.747 379.972 838.189 380.793Z" fill="#E61717"/>
<path d="M1.86566 459.213C1.81184 459.113 1.85661 458.983 1.96455 458.949L19.3365 453.57C19.4204 453.544 19.5099 453.589 19.5402 453.671L21.0921 457.903C21.1244 457.991 21.0772 458.089 20.9881 458.118L9.95149 461.715L21.4864 463.017C21.5796 463.027 21.6454 463.114 21.6316 463.207L20.9634 467.664C20.9504 467.751 20.8717 467.813 20.7843 467.804L2.68504 466.033C2.5726 466.022 2.50247 465.903 2.53504 465.794C2.80307 464.902 2.70695 463.257 2.61506 462.472L2.6149 462.472L2.61281 462.451C2.5447 461.664 2.30796 460.034 1.86566 459.213Z" fill="#E61717"/>
<path d="M839.731 418.573C839.736 419.576 840.075 420.461 840.027 420.675C839.98 420.89 839.245 422.245 838.687 423.616C838.129 424.987 837.905 425.186 837.392 425.666C836.982 426.05 834.847 427.473 833.831 428.136C833.51 428.322 833.221 428.221 833.075 428.023C832.757 427.469 832.089 426.288 831.959 425.998C831.797 425.636 831.829 425.487 831.877 425.355C831.924 425.223 832.918 424.312 832.966 424.246C832.708 424.082 832.37 423.968 831.325 423.922C830.28 423.876 822.452 424.199 821.97 424.201C821.487 424.203 821.182 424.253 821.051 423.379C820.946 422.683 820.804 419.945 820.746 418.646L820.745 418.646C820.745 418.643 820.745 418.64 820.746 418.638C820.745 418.635 820.745 418.632 820.745 418.629L820.746 418.629C820.795 417.33 820.918 414.591 821.018 413.894C821.144 413.019 821.45 413.068 821.932 413.066C822.414 413.065 830.244 413.335 831.289 413.282C832.334 413.229 832.671 413.112 832.928 412.946C832.879 412.88 831.879 411.976 831.831 411.845C831.782 411.713 831.749 411.565 831.909 411.201C832.037 410.91 832.697 409.725 833.011 409.168C833.155 408.97 833.444 408.867 833.766 409.05C834.787 409.707 836.931 411.115 837.344 411.496C837.86 411.973 838.085 412.17 838.653 413.537C839.22 414.904 839.964 416.254 840.013 416.469C840.062 416.682 839.729 417.57 839.731 418.573Z" fill="#E61717"/>
<path d="M0.327576 421.433C0.322326 420.43 -0.01622 419.545 0.0311483 419.331C0.078754 419.116 0.813538 417.761 1.37149 416.39C1.92949 415.019 2.154 414.82 2.66681 414.34C3.07704 413.956 5.21129 412.533 6.22721 411.87C6.5481 411.684 6.83793 411.785 6.98329 411.983C7.30134 412.537 7.96972 413.718 8.09933 414.008C8.2613 414.37 8.22973 414.519 8.18197 414.651C8.13419 414.783 7.14072 415.694 7.09256 415.76C7.35035 415.924 7.68833 416.039 8.73344 416.084C9.77861 416.13 17.6065 415.807 18.0888 415.805C18.5711 415.804 18.8764 415.753 19.008 416.627C19.1128 417.323 19.2541 420.061 19.3126 421.36L19.3135 421.36C19.3133 421.363 19.3132 421.366 19.3131 421.369C19.3132 421.371 19.3134 421.374 19.3135 421.377L19.3128 421.377C19.2632 422.676 19.1403 425.415 19.0403 426.112C18.9146 426.987 18.609 426.938 18.1267 426.94C17.6444 426.942 9.81449 426.672 8.76966 426.725C7.72488 426.778 7.38769 426.894 7.13103 427.06C7.17964 427.126 8.17928 428.03 8.22796 428.162C8.27662 428.293 8.3092 428.442 8.1497 428.805C8.02207 429.096 7.36174 430.282 7.04747 430.838C6.90346 431.036 6.61433 431.14 6.29218 430.956C5.27176 430.3 3.12788 428.892 2.71504 428.51C2.19898 428.034 1.97312 427.837 1.4058 426.469C0.838527 425.102 0.0945349 423.752 0.0454679 423.538C-0.00335637 423.324 0.329154 422.436 0.327576 421.433Z" fill="#E61717"/>
<path d="M837.826 462.949C837.859 463.057 837.79 463.177 837.677 463.188L819.59 465.083C819.503 465.092 819.424 465.031 819.41 464.944L818.712 460.491C818.697 460.398 818.763 460.312 818.856 460.301L830.382 458.92L819.321 455.398C819.231 455.37 819.184 455.273 819.215 455.184L820.738 450.942C820.768 450.859 820.857 450.814 820.941 450.839L838.35 456.1C838.458 456.133 838.503 456.263 838.45 456.363C838.014 457.187 837.788 458.818 837.725 459.606L837.725 459.607L837.723 459.627C837.637 460.413 837.552 462.058 837.826 462.949Z" fill="#D6CEC4"/>
<path d="M2.23683 377.059C2.20348 376.951 2.27283 376.831 2.38522 376.819L20.472 374.925C20.5593 374.916 20.6385 374.977 20.6521 375.064L21.3505 379.517C21.365 379.609 21.2998 379.696 21.2067 379.707L9.68088 381.087L20.7418 384.609C20.8311 384.638 20.8789 384.735 20.8472 384.824L19.3241 389.066C19.2944 389.149 19.2052 389.194 19.1211 389.168L1.71297 383.908C1.60482 383.875 1.55918 383.745 1.61227 383.644C2.04896 382.821 2.27475 381.19 2.3375 380.401L2.33737 380.401L2.33932 380.381C2.42587 379.595 2.51094 377.95 2.23683 377.059Z" fill="#D6CEC4"/>
<path d="M831.98 500.306C831.79 501.291 831.95 502.225 831.862 502.426C831.773 502.627 830.789 503.813 829.975 505.05C829.16 506.286 828.901 506.437 828.305 506.808C827.828 507.105 825.457 508.085 824.332 508.538C823.981 508.658 823.716 508.502 823.612 508.28C823.408 507.674 822.982 506.386 822.912 506.076C822.823 505.689 822.883 505.55 822.956 505.429C823.028 505.309 824.18 504.609 824.24 504.554C824.019 504.342 823.71 504.165 822.694 503.916C821.678 503.668 813.937 502.461 813.463 502.369C812.99 502.276 812.681 502.267 812.722 501.384C812.754 500.681 813.149 497.967 813.344 496.682L813.343 496.682C813.344 496.679 813.345 496.676 813.345 496.674C813.346 496.671 813.346 496.668 813.347 496.665L813.347 496.665C813.649 495.401 814.303 492.738 814.536 492.074C814.83 491.24 815.12 491.347 815.594 491.44C816.067 491.532 823.695 493.321 824.73 493.472C825.765 493.624 826.118 493.575 826.402 493.462C826.368 493.388 825.563 492.307 825.541 492.168C825.519 492.03 825.516 491.878 825.743 491.552C825.925 491.292 826.803 490.258 827.22 489.773C827.4 489.606 827.703 489.561 827.984 489.804C828.857 490.647 830.685 492.445 831.016 492.9C831.43 493.468 831.613 493.705 831.903 495.156C832.193 496.608 832.66 498.077 832.667 498.297C832.673 498.516 832.174 499.322 831.98 500.306Z" fill="#E61717"/>
<path d="M8.08223 339.703C8.27231 338.718 8.11261 337.784 8.20074 337.583C8.28925 337.381 9.27378 336.195 10.088 334.959C10.9022 333.723 11.1611 333.572 11.7575 333.201C12.2347 332.904 14.6051 331.924 15.7307 331.471C16.0816 331.351 16.3462 331.507 16.4503 331.729C16.6544 332.334 17.0801 333.623 17.1508 333.933C17.2391 334.32 17.1792 334.459 17.1066 334.579C17.0341 334.7 15.8823 335.4 15.8222 335.455C16.0431 335.666 16.3524 335.844 17.3685 336.093C18.3848 336.341 26.1259 337.548 26.5993 337.64C27.0727 337.732 27.3819 337.742 27.3409 338.625C27.3082 339.328 26.9137 342.042 26.7182 343.327L26.7191 343.327C26.7184 343.33 26.7177 343.333 26.7171 343.335C26.7167 343.338 26.7163 343.341 26.7159 343.343L26.7152 343.343C26.4136 344.608 25.7598 347.271 25.5261 347.935C25.2325 348.769 24.9422 348.662 24.4688 348.569C23.9954 348.477 16.3679 346.688 15.3327 346.536C14.2976 346.385 13.9441 346.434 13.6601 346.546C13.695 346.621 14.4995 347.702 14.5216 347.84C14.5437 347.979 14.5468 348.131 14.3196 348.456C14.1378 348.717 13.2593 349.751 12.8427 350.236C12.6628 350.402 12.3591 350.447 12.0789 350.205C11.2058 349.362 9.37703 347.563 9.04632 347.109C8.63292 346.541 8.44975 346.304 8.15945 344.852C7.86918 343.401 7.40225 341.932 7.39587 341.712C7.38958 341.493 7.88854 340.687 8.08223 339.703Z" fill="#E61717"/>
<path d="M821.473 543.461C821.485 543.574 821.394 543.678 821.281 543.668L803.172 542.005C803.084 541.997 803.018 541.921 803.022 541.833L803.204 537.33C803.208 537.236 803.288 537.164 803.382 537.171L814.956 538.061L804.792 532.453C804.71 532.408 804.682 532.303 804.731 532.222L807.05 528.358C807.096 528.282 807.192 528.255 807.269 528.297L823.32 536.846C823.42 536.899 823.44 537.036 823.368 537.124C822.779 537.846 822.24 539.402 822.025 540.163L822.025 540.164L822.019 540.183C821.782 540.937 821.378 542.534 821.473 543.461Z" fill="#E61717"/>
<path d="M18.5931 296.548C18.5815 296.436 18.6728 296.332 18.7853 296.342L36.8948 298.005C36.9822 298.013 37.048 298.088 37.0444 298.177L36.8627 302.68C36.8588 302.774 36.7779 302.846 36.6845 302.839L25.1105 301.949L35.2741 307.557C35.3562 307.602 35.3842 307.707 35.3358 307.788L33.0161 311.652C32.9708 311.727 32.8745 311.754 32.797 311.713L16.746 303.164C16.6463 303.111 16.6269 302.974 16.6985 302.886C17.2871 302.164 17.8262 300.607 18.0412 299.846L18.0411 299.846L18.047 299.826C18.2849 299.072 18.6885 297.476 18.5931 296.548Z" fill="#E61717"/>
<path d="M808.467 578.967C808.089 579.896 808.064 580.843 807.938 581.023C807.812 581.203 806.616 582.175 805.577 583.229C804.537 584.283 804.254 584.381 803.597 584.629C803.071 584.827 800.555 585.327 799.363 585.552C798.995 585.601 798.766 585.397 798.707 585.159C798.625 584.525 798.458 583.178 798.449 582.861C798.438 582.464 798.524 582.339 798.618 582.235C798.713 582.131 799.979 581.669 800.049 581.626C799.873 581.376 799.604 581.142 798.656 580.7C797.708 580.258 790.349 577.568 789.903 577.385C789.457 577.202 789.155 577.133 789.367 576.275C789.536 575.591 790.452 573.007 790.894 571.784L790.893 571.783C790.894 571.781 790.895 571.778 790.896 571.776C790.897 571.773 790.898 571.771 790.899 571.768L790.9 571.768C791.442 570.587 792.601 568.102 792.96 567.496C793.41 566.736 793.674 566.897 794.12 567.08C794.567 567.262 801.7 570.502 802.686 570.852C803.672 571.202 804.028 571.223 804.329 571.168C804.309 571.089 803.73 569.872 803.735 569.731C803.741 569.591 803.767 569.441 804.054 569.166C804.283 568.946 805.346 568.103 805.848 567.708C806.057 567.58 806.364 567.595 806.592 567.888C807.284 568.884 808.728 571.004 808.964 571.514C809.258 572.152 809.392 572.42 809.394 573.901C809.396 575.381 809.568 576.913 809.532 577.13C809.495 577.346 808.849 578.039 808.467 578.967Z" fill="#E61717"/>
<path d="M31.599 261.045C31.9772 260.117 32.0024 259.169 32.1279 258.989C32.254 258.809 33.4506 257.837 34.4898 256.783C35.5291 255.729 35.8125 255.631 36.4698 255.383C36.9956 255.185 39.5114 254.685 40.7037 254.46C41.0712 254.411 41.3004 254.615 41.3593 254.853C41.4416 255.487 41.6083 256.834 41.6173 257.151C41.6287 257.548 41.5427 257.673 41.4481 257.777C41.3535 257.881 40.0876 258.343 40.0178 258.386C40.1933 258.636 40.4621 258.871 41.4104 259.312C42.3588 259.754 49.717 262.444 50.1633 262.627C50.6097 262.81 50.9111 262.88 50.6991 263.737C50.53 264.421 49.6149 267.006 49.1729 268.228L49.1737 268.229C49.1725 268.231 49.1714 268.234 49.1702 268.236C49.1693 268.239 49.1683 268.241 49.1674 268.244L49.1668 268.244C48.6247 269.426 47.465 271.91 47.1065 272.516C46.6563 273.277 46.3924 273.115 45.946 272.932C45.4997 272.75 38.3664 269.51 37.3805 269.16C36.3946 268.81 36.0384 268.789 35.7379 268.844C35.7576 268.924 36.3364 270.141 36.331 270.281C36.3257 270.421 36.2991 270.571 36.0129 270.846C35.7839 271.066 34.7209 271.909 34.2179 272.304C34.009 272.432 33.7024 272.417 33.4748 272.124C32.7824 271.128 31.3388 269.008 31.1028 268.498C30.8079 267.86 30.6745 267.592 30.6723 266.112C30.6701 264.631 30.4981 263.099 30.5347 262.883C30.5711 262.666 31.2175 261.973 31.599 261.045Z" fill="#E61717"/>
<path d="M789.754 619.251C789.743 619.364 789.633 619.448 789.525 619.416L772.086 614.259C772.002 614.234 771.952 614.148 771.972 614.062L773.027 609.68C773.049 609.589 773.143 609.534 773.233 609.559L784.412 612.685L775.535 605.206C775.463 605.145 775.456 605.037 775.519 604.967L778.547 601.629C778.606 601.563 778.706 601.556 778.774 601.611L792.853 613.121C792.941 613.193 792.933 613.331 792.846 613.403C792.128 613.997 791.296 615.419 790.937 616.123L790.937 616.124L790.928 616.142C790.547 616.835 789.841 618.323 789.754 619.251Z" fill="#E61717"/>
<path d="M50.3048 220.763C50.3154 220.65 50.4251 220.566 50.5335 220.598L67.9729 225.754C68.057 225.779 68.1069 225.866 68.0862 225.952L67.0313 230.333C67.0092 230.425 66.9158 230.48 66.8256 230.455L55.6463 227.328L64.5237 234.808C64.5954 234.868 64.6024 234.976 64.5393 235.046L61.5116 238.385C61.4525 238.45 61.3528 238.458 61.2848 238.402L47.2052 226.892C47.1178 226.821 47.1253 226.683 47.2127 226.61C47.9307 226.016 48.7624 224.595 49.1214 223.89L49.1214 223.89L49.1311 223.872C49.5112 223.178 50.2179 221.691 50.3048 220.763Z" fill="#E61717"/>
<path d="M770.089 651.544C769.537 652.382 769.328 653.306 769.17 653.458C769.011 653.61 767.648 654.331 766.424 655.162C765.199 655.994 764.902 656.035 764.209 656.15C763.655 656.242 761.09 656.242 759.877 656.231C759.506 656.208 759.321 655.963 759.31 655.718C759.353 655.08 759.451 653.727 759.504 653.414C759.57 653.022 759.679 652.916 759.792 652.833C759.905 652.749 761.237 652.542 761.314 652.514C761.19 652.234 760.972 651.952 760.128 651.334C759.284 650.716 752.59 646.645 752.188 646.379C751.786 646.113 751.503 645.986 751.878 645.185C752.177 644.548 753.578 642.191 754.25 641.078L754.249 641.077C754.251 641.075 754.252 641.073 754.254 641.07C754.255 641.068 754.257 641.066 754.258 641.063L754.259 641.064C755.02 640.01 756.642 637.798 757.111 637.274C757.701 636.616 757.928 636.826 758.331 637.092C758.733 637.358 765.099 641.924 765.998 642.46C766.897 642.995 767.242 643.085 767.547 643.089C767.544 643.007 767.213 641.701 767.245 641.564C767.278 641.427 767.333 641.286 767.667 641.072C767.935 640.901 769.142 640.28 769.712 639.991C769.942 639.906 770.24 639.981 770.406 640.312C770.891 641.424 771.894 643.785 772.026 644.331C772.192 645.014 772.27 645.303 771.984 646.755C771.698 648.208 771.569 649.744 771.491 649.949C771.413 650.154 770.644 650.709 770.089 651.544Z" fill="#E61717"/>
<path d="M69.9735 188.47C70.5252 187.632 70.7345 186.708 70.8926 186.556C71.0513 186.404 72.4142 185.683 73.6388 184.852C74.8634 184.02 75.1604 183.98 75.8533 183.864C76.4077 183.772 78.9727 183.772 80.186 183.783C80.5561 183.806 80.741 184.051 80.7525 184.296C80.7099 184.934 80.6111 186.287 80.5582 186.6C80.4921 186.992 80.3834 187.098 80.2705 187.181C80.1575 187.265 78.8257 187.472 78.749 187.5C78.8725 187.78 79.0904 188.062 79.9346 188.68C80.7789 189.298 87.4725 193.369 87.8747 193.635C88.277 193.901 88.559 194.029 88.1841 194.829C87.8853 195.466 86.4844 197.823 85.8128 198.937L85.8136 198.937C85.8119 198.939 85.8103 198.942 85.8086 198.944C85.8072 198.946 85.8058 198.949 85.8044 198.951L85.8038 198.951C85.0421 200.004 83.4209 202.216 82.9513 202.74C82.3616 203.398 82.1342 203.189 81.732 202.922C81.3297 202.656 74.9636 198.09 74.0647 197.555C73.1658 197.019 72.8206 196.929 72.515 196.925C72.5189 197.007 72.8496 198.313 72.817 198.45C72.7845 198.587 72.7293 198.728 72.395 198.942C72.1276 199.113 70.9207 199.734 70.3506 200.023C70.1207 200.108 69.8228 200.034 69.6566 199.702C69.1714 198.59 68.1682 196.229 68.036 195.683C67.8709 195 67.7922 194.711 68.0783 193.259C68.3643 191.806 68.4938 190.27 68.5719 190.065C68.6497 189.86 69.4187 189.305 69.9735 188.47Z" fill="#E61717"/>
<path d="M743.894 687.416C743.861 687.524 743.737 687.585 743.637 687.533L727.535 679.08C727.458 679.039 727.426 678.944 727.463 678.864L729.35 674.772C729.39 674.686 729.492 674.651 729.576 674.693L739.933 679.936L732.681 670.871C732.623 670.798 732.637 670.69 732.712 670.634L736.332 667.949C736.403 667.896 736.502 667.908 736.558 667.976L748.127 682.007C748.199 682.094 748.165 682.228 748.065 682.282C747.245 682.725 746.153 683.957 745.663 684.578L745.663 684.579L745.65 684.595C745.142 685.201 744.16 686.522 743.894 687.416Z" fill="#E61717"/>
<path d="M96.1648 152.6C96.1972 152.491 96.3212 152.43 96.4212 152.483L112.523 160.936C112.601 160.976 112.633 161.071 112.596 161.151L110.708 165.244C110.669 165.329 110.566 165.365 110.483 165.323L100.126 160.08L107.377 169.145C107.436 169.218 107.422 169.325 107.346 169.381L103.727 172.067C103.656 172.119 103.557 172.107 103.501 172.04L91.9313 158.009C91.8594 157.922 91.8937 157.788 91.9934 157.734C92.8135 157.291 93.906 156.058 94.3953 155.437L94.3953 155.437L94.4083 155.421C94.9161 154.815 95.8989 153.493 96.1648 152.6Z" fill="#E61717"/>
<path d="M718.318 715.263C717.614 715.977 717.229 716.843 717.044 716.961C716.859 717.079 715.382 717.521 714.019 718.098C712.655 718.675 712.356 718.657 711.654 718.635C711.092 718.618 708.576 718.119 707.388 717.872C707.03 717.777 706.896 717.501 706.933 717.258C707.099 716.641 707.459 715.333 707.572 715.036C707.713 714.665 707.84 714.582 707.967 714.522C708.094 714.462 709.441 714.518 709.522 714.506C709.455 714.207 709.296 713.888 708.588 713.117C707.881 712.347 702.108 707.05 701.765 706.711C701.422 706.372 701.17 706.192 701.694 705.48C702.111 704.913 703.944 702.874 704.819 701.913L704.819 701.912C704.821 701.91 704.823 701.908 704.825 701.906C704.827 701.904 704.828 701.902 704.83 701.9L704.831 701.901C705.783 701.016 707.804 699.162 708.367 698.739C709.073 698.208 709.255 698.458 709.598 698.798C709.941 699.137 715.296 704.855 716.074 705.555C716.851 706.255 717.172 706.411 717.471 706.474C717.483 706.393 717.413 705.048 717.472 704.92C717.53 704.792 717.612 704.664 717.981 704.519C718.277 704.403 719.582 704.03 720.197 703.857C720.439 703.819 720.717 703.95 720.815 704.307C721.075 705.492 721.599 708.003 721.623 708.565C721.652 709.266 721.673 709.566 721.109 710.934C720.546 712.303 720.12 713.785 720.003 713.971C719.887 714.157 719.025 714.551 718.318 715.263Z" fill="#E61717"/>
<path d="M121.744 124.754C122.449 124.04 122.834 123.174 123.019 123.056C123.204 122.937 124.681 122.496 126.044 121.919C127.407 121.341 127.706 121.359 128.408 121.381C128.97 121.399 131.486 121.898 132.674 122.145C133.032 122.24 133.166 122.516 133.13 122.759C132.964 123.376 132.604 124.684 132.491 124.981C132.35 125.352 132.222 125.435 132.095 125.495C131.968 125.554 130.622 125.498 130.541 125.511C130.608 125.809 130.766 126.129 131.474 126.899C132.182 127.669 137.955 132.966 138.298 133.305C138.64 133.645 138.892 133.824 138.369 134.536C137.952 135.103 136.119 137.143 135.243 138.104L135.244 138.105C135.242 138.106 135.24 138.108 135.238 138.11C135.236 138.112 135.234 138.114 135.232 138.116L135.232 138.116C134.279 139.001 132.259 140.855 131.696 141.278C130.989 141.808 130.807 141.558 130.464 141.219C130.122 140.88 124.766 135.161 123.989 134.461C123.211 133.761 122.89 133.606 122.591 133.542C122.579 133.623 122.649 134.969 122.591 135.097C122.532 135.224 122.451 135.353 122.081 135.497C121.785 135.613 120.481 135.987 119.865 136.159C119.623 136.198 119.346 136.067 119.247 135.71C118.988 134.524 118.463 132.014 118.44 131.452C118.411 130.75 118.39 130.451 118.953 129.082C119.517 127.713 119.943 126.232 120.059 126.045C120.175 125.86 121.038 125.465 121.744 124.754Z" fill="#E61717"/>
<path d="M685.644 745.349C685.591 745.449 685.458 745.485 685.37 745.414L671.222 733.988C671.153 733.933 671.14 733.834 671.192 733.762L673.84 730.115C673.896 730.039 674.003 730.024 674.077 730.082L683.215 737.24L677.867 726.938C677.824 726.855 677.858 726.752 677.943 726.712L682.017 724.782C682.096 724.744 682.191 724.775 682.233 724.853L690.85 740.867C690.903 740.967 690.843 741.091 690.735 741.125C689.845 741.4 688.533 742.396 687.932 742.91L687.932 742.91L687.916 742.924C687.3 743.419 686.079 744.524 685.644 745.349Z" fill="#D6CEC4"/>
<path d="M154.418 94.6697C154.471 94.5694 154.605 94.5337 154.693 94.6047L168.841 106.03C168.909 106.086 168.922 106.185 168.87 106.256L166.222 109.903C166.167 109.979 166.059 109.994 165.986 109.936L156.848 102.778L162.196 113.08C162.239 113.164 162.204 113.266 162.119 113.307L158.046 115.236C157.966 115.274 157.871 115.243 157.83 115.166L149.213 99.1508C149.159 99.0514 149.219 98.9269 149.327 98.8934C150.218 98.6184 151.53 97.6222 152.13 97.1082L152.13 97.108L152.146 97.0948C152.762 96.5992 153.984 95.4943 154.418 94.6697Z" fill="#D6CEC4"/>
<path d="M655.131 767.684C654.301 768.247 653.755 769.022 653.551 769.102C653.346 769.182 651.811 769.327 650.362 769.628C648.912 769.929 648.622 769.853 647.938 769.695C647.39 769.568 645.02 768.589 643.903 768.115C643.569 767.953 643.492 767.655 643.575 767.425C643.858 766.852 644.466 765.638 644.635 765.369C644.845 765.033 644.986 764.976 645.122 764.942C645.259 764.908 646.568 765.226 646.65 765.229C646.643 764.923 646.549 764.579 646.005 763.686C645.461 762.792 640.829 756.473 640.559 756.074C640.289 755.674 640.077 755.449 640.729 754.852C641.249 754.377 643.443 752.734 644.489 751.961L644.489 751.961C644.491 751.959 644.494 751.958 644.496 751.956C644.498 751.955 644.5 751.953 644.503 751.951L644.503 751.952C645.609 751.269 647.952 749.844 648.587 749.539C649.383 749.156 649.513 749.437 649.783 749.836C650.053 750.236 654.193 756.887 654.819 757.725C655.446 758.563 655.73 758.778 656.011 758.899C656.039 758.822 656.232 757.488 656.314 757.374C656.397 757.26 656.502 757.151 656.892 757.08C657.205 757.024 658.557 756.912 659.194 756.863C659.439 756.872 659.686 757.054 659.713 757.424C659.737 758.637 659.763 761.202 659.676 761.757C659.568 762.451 659.53 762.749 658.711 763.982C657.892 765.215 657.186 766.585 657.035 766.745C656.885 766.905 655.963 767.124 655.131 767.684Z" fill="#E61717"/>
<path d="M184.928 72.3358C185.757 71.7725 186.304 70.9979 186.508 70.9179C186.713 70.8377 188.248 70.6926 189.697 70.3917C191.146 70.0908 191.436 70.1665 192.121 70.3247C192.668 70.4513 195.039 71.4304 196.156 71.9041C196.489 72.067 196.567 72.3641 196.484 72.5949C196.201 73.1678 195.593 74.3811 195.424 74.6503C195.214 74.9867 195.073 75.0433 194.936 75.0772C194.8 75.1112 193.49 74.7939 193.408 74.7908C193.416 75.0963 193.509 75.4406 194.054 76.334C194.598 77.2274 199.229 83.5465 199.499 83.946C199.77 84.3456 199.982 84.5708 199.33 85.1671C198.81 85.6421 196.615 87.2857 195.569 88.0581L195.57 88.0588C195.567 88.0603 195.565 88.0617 195.563 88.0631C195.56 88.0648 195.558 88.0665 195.556 88.0681L195.556 88.0675C194.449 88.7504 192.106 90.1751 191.472 90.4805C190.676 90.8636 190.546 90.5828 190.276 90.1833C190.005 89.7838 185.866 83.1321 185.239 82.2942C184.613 81.4563 184.328 81.2413 184.048 81.1206C184.02 81.1978 183.827 82.5315 183.744 82.6454C183.662 82.7592 183.557 82.8689 183.166 82.9391C182.854 82.9952 181.501 83.1076 180.864 83.1568C180.619 83.1479 180.372 82.9654 180.345 82.5956C180.322 81.3825 180.296 78.8176 180.382 78.2623C180.49 77.5682 180.528 77.2708 181.347 76.0378C182.166 74.8048 182.873 73.4346 183.023 73.2743C183.173 73.1147 184.096 72.896 184.928 72.3358Z" fill="#E61717"/>
<path d="M617.224 790.834C617.153 790.922 617.015 790.931 616.943 790.844L605.289 776.883C605.233 776.816 605.24 776.716 605.304 776.656L608.612 773.594C608.681 773.531 608.789 773.537 608.851 773.608L616.42 782.408L613.18 771.261C613.154 771.171 613.208 771.077 613.299 771.054L617.67 769.955C617.755 769.933 617.843 769.982 617.868 770.066L623.203 787.452C623.236 787.56 623.153 787.67 623.04 787.682C622.113 787.779 620.633 788.5 619.943 788.888L619.943 788.888L619.925 788.898C619.224 789.264 617.811 790.11 617.224 790.834Z" fill="#E61717"/>
<path d="M222.83 49.1876C222.902 49.0995 223.04 49.0904 223.112 49.1772L234.765 63.1386C234.822 63.206 234.815 63.3057 234.75 63.3655L231.443 66.4271C231.374 66.4909 231.265 66.485 231.204 66.4139L223.634 57.6134L226.875 68.7601C226.901 68.8501 226.847 68.9441 226.756 68.9671L222.385 70.0667C222.299 70.0883 222.212 70.0393 222.186 69.9554L216.852 52.5696C216.819 52.4615 216.902 52.351 217.014 52.3393C217.942 52.2429 219.422 51.5211 220.111 51.1339L220.111 51.1338L220.13 51.1239C220.83 50.7577 222.243 49.9117 222.83 49.1876Z" fill="#E61717"/>
<path d="M582.951 806.801C582.027 807.192 581.341 807.846 581.125 807.884C580.908 807.923 579.375 807.767 577.895 807.78C576.414 807.793 576.145 807.662 575.504 807.373C574.992 807.143 572.857 805.721 571.853 805.039C571.558 804.814 571.54 804.508 571.667 804.297C572.056 803.79 572.888 802.719 573.106 802.488C573.378 802.199 573.527 802.171 573.668 802.164C573.808 802.157 575.031 802.723 575.11 802.742C575.163 802.441 575.138 802.085 574.778 801.103C574.418 800.121 571.105 793.021 570.918 792.576C570.731 792.132 570.567 791.87 571.323 791.412C571.925 791.047 574.398 789.862 575.574 789.308L575.573 789.307C575.576 789.306 575.579 789.305 575.581 789.304C575.584 789.303 575.586 789.302 575.589 789.301L575.589 789.301C576.807 788.847 579.383 787.906 580.064 787.73C580.92 787.509 580.993 787.81 581.18 788.254C581.367 788.698 584.133 796.029 584.584 796.973C585.035 797.916 585.273 798.183 585.524 798.356C585.567 798.285 586.016 797.015 586.119 796.919C586.222 796.824 586.346 796.736 586.743 796.744C587.06 796.749 588.409 796.902 589.043 796.978C589.282 797.035 589.489 797.262 589.443 797.63C589.23 798.824 588.756 801.345 588.563 801.873C588.322 802.533 588.227 802.817 587.184 803.867C586.14 804.917 585.181 806.123 585.002 806.251C584.823 806.379 583.876 806.414 582.951 806.801Z" fill="#E61717"/>
<path d="M257.108 33.2203C258.031 32.8293 258.718 32.1759 258.934 32.1372C259.15 32.0984 260.684 32.2548 262.164 32.2418C263.644 32.2289 263.914 32.3596 264.555 32.648C265.067 32.8787 267.202 34.3006 268.205 34.9828C268.5 35.2074 268.518 35.5139 268.392 35.7241C268.003 36.231 267.17 37.3026 266.953 37.5339C266.681 37.8228 266.531 37.8509 266.391 37.8577C266.251 37.8645 265.028 37.2983 264.948 37.2793C264.896 37.5804 264.921 37.9363 265.281 38.9185C265.641 39.9008 268.953 47.0007 269.14 47.4452C269.328 47.8896 269.492 48.1519 268.736 48.6098C268.134 48.9745 265.661 50.1594 264.485 50.7135L264.485 50.7143C264.483 50.7152 264.48 50.7161 264.477 50.7171C264.475 50.7183 264.472 50.7195 264.47 50.7207L264.47 50.72C263.252 51.1745 260.676 52.1159 259.994 52.2919C259.139 52.5126 259.066 52.2119 258.879 51.7675C258.691 51.323 255.926 43.9927 255.475 43.0489C255.023 42.1051 254.786 41.8388 254.534 41.6658C254.492 41.736 254.043 43.0066 253.94 43.1023C253.837 43.1979 253.713 43.2851 253.316 43.2778C252.998 43.272 251.65 43.1191 251.015 43.0433C250.777 42.9868 250.57 42.7597 250.616 42.3917C250.828 41.1972 251.303 38.6764 251.495 38.1486C251.737 37.4888 251.832 37.2045 252.875 36.1544C253.918 35.1045 254.878 33.898 255.057 33.7702C255.235 33.6428 256.183 33.6079 257.108 33.2203Z" fill="#E61717"/>
<path d="M541.266 822.129C541.179 822.201 541.042 822.183 540.988 822.084L532.276 806.121C532.234 806.044 532.259 805.947 532.335 805.901L536.175 803.542C536.255 803.493 536.36 803.52 536.406 803.602L542.118 813.707L541.11 802.143C541.101 802.05 541.173 801.968 541.267 801.963L545.768 801.736C545.856 801.731 545.932 801.796 545.941 801.883L547.789 819.975C547.8 820.087 547.697 820.18 547.585 820.169C546.656 820.083 545.064 820.503 544.312 820.749L544.312 820.749L544.292 820.755C543.534 820.978 541.983 821.532 541.266 822.129Z" fill="#D6CEC4"/>
<path d="M298.796 17.8947C298.883 17.8222 299.02 17.8402 299.074 17.9393L307.787 33.9022C307.829 33.9793 307.803 34.0758 307.728 34.1219L303.888 36.481C303.807 36.5301 303.702 36.5032 303.656 36.4216L297.945 26.3159L298.953 37.8801C298.961 37.9735 298.89 38.0551 298.796 38.0599L294.294 38.2876C294.206 38.2921 294.13 38.2272 294.121 38.1398L292.274 20.0482C292.262 19.9358 292.365 19.8435 292.478 19.8539C293.406 19.9399 294.999 19.5201 295.75 19.2745L295.75 19.2743L295.77 19.2682C296.529 19.0455 298.079 18.4907 298.796 17.8947Z" fill="#D6CEC4"/>
<path d="M504.537 831.119C503.555 831.323 502.754 831.83 502.535 831.826C502.315 831.822 500.841 831.37 499.387 831.095C497.933 830.819 497.694 830.639 497.121 830.231C496.664 829.905 494.847 828.095 493.995 827.23C493.749 826.952 493.791 826.648 493.956 826.467C494.436 826.045 495.462 825.156 495.72 824.972C496.043 824.741 496.195 824.743 496.334 824.763C496.473 824.784 497.563 825.578 497.637 825.612C497.747 825.326 497.792 824.973 497.63 823.939C497.468 822.905 495.601 815.297 495.504 814.824C495.407 814.352 495.297 814.063 496.127 813.76C496.789 813.52 499.445 812.839 500.707 812.525L500.706 812.524C500.709 812.523 500.712 812.523 500.715 812.523C500.717 812.522 500.72 812.521 500.723 812.52L500.723 812.521C502.006 812.313 504.715 811.891 505.418 811.851C506.301 811.801 506.314 812.11 506.411 812.582C506.508 813.055 507.793 820.783 508.052 821.797C508.311 822.81 508.492 823.118 508.706 823.336C508.761 823.276 509.449 822.117 509.568 822.043C509.688 821.969 509.827 821.908 510.214 821.992C510.525 822.06 511.818 822.472 512.425 822.67C512.648 822.772 512.807 823.035 512.691 823.387C512.249 824.517 511.293 826.898 511.001 827.378C510.636 827.978 510.488 828.238 509.26 829.065C508.032 829.892 506.856 830.889 506.656 830.979C506.456 831.069 505.52 830.919 504.537 831.119Z" fill="#E61717"/>
<path d="M335.521 8.90558C336.503 8.70185 337.304 8.19468 337.523 8.19873C337.743 8.20287 339.217 8.65477 340.671 8.9302C342.126 9.20567 342.365 9.38639 342.937 9.79398C343.395 10.12 345.212 11.9303 346.063 12.7948C346.309 13.0725 346.267 13.3767 346.102 13.5582C345.622 13.9797 344.597 14.8688 344.338 15.0532C344.015 15.2837 343.863 15.2822 343.724 15.2615C343.585 15.2408 342.496 14.4474 342.422 14.4133C342.312 14.6985 342.267 15.0524 342.429 16.0859C342.591 17.1195 344.458 24.7284 344.555 25.2008C344.652 25.6732 344.762 25.9624 343.931 26.2644C343.27 26.505 340.614 27.1858 339.352 27.5003L339.352 27.5011C339.349 27.5015 339.347 27.5019 339.344 27.5024C339.341 27.5031 339.339 27.5038 339.336 27.5044L339.336 27.5037C338.053 27.7124 335.343 28.1343 334.64 28.1743C333.758 28.2243 333.745 27.9151 333.648 27.4427C333.551 26.9703 332.265 19.2419 332.006 18.2283C331.747 17.2147 331.566 16.9073 331.353 16.6885C331.298 16.7492 330.61 17.908 330.49 17.9818C330.371 18.0556 330.232 18.1169 329.844 18.0326C329.534 17.965 328.241 17.5525 327.633 17.3547C327.41 17.2528 327.252 16.9899 327.368 16.6377C327.809 15.5075 328.765 13.1273 329.057 12.6471C329.422 12.0469 329.571 11.7865 330.799 10.9596C332.026 10.1329 333.202 9.13629 333.403 9.04573C333.603 8.95556 334.539 9.1057 335.521 8.90558Z" fill="#E61717"/>
<path d="M460.664 838.038C460.564 838.092 460.433 838.048 460.399 837.94L454.961 820.586C454.935 820.503 454.979 820.413 455.062 820.382L459.288 818.816C459.376 818.783 459.474 818.83 459.503 818.919L463.138 829.944L464.4 818.404C464.411 818.311 464.497 818.245 464.59 818.259L469.049 818.912C469.136 818.924 469.198 819.003 469.19 819.09L467.48 837.195C467.47 837.308 467.351 837.378 467.242 837.346C466.349 837.081 464.705 837.183 463.92 837.277L463.92 837.278L463.899 837.28C463.112 837.351 461.483 837.593 460.664 838.038Z" fill="#E61717"/>
<path d="M379.399 1.98769C379.498 1.93354 379.629 1.97785 379.663 2.08568L385.101 19.4393C385.128 19.523 385.083 19.6127 385.001 19.6433L380.775 21.2096C380.686 21.2422 380.589 21.1953 380.559 21.1063L376.924 10.082L375.662 21.6213C375.652 21.7145 375.566 21.7806 375.473 21.7671L371.013 21.1141C370.926 21.1014 370.864 21.0229 370.872 20.9355L372.582 2.83028C372.593 2.71781 372.711 2.64727 372.82 2.67947C373.714 2.94446 375.358 2.84275 376.143 2.74818L376.143 2.74802L376.163 2.74586C376.951 2.67507 378.58 2.43278 379.399 1.98769Z" fill="#E61717"/>
</g>
</svg>
