<svg width="744" height="744" viewBox="0 0 744 744" fill="none" xmlns="http://www.w3.org/2000/svg">
<g opacity="0.6">
<path d="M375.128 0.0145005C375.233 -0.0289364 375.359 0.0288232 375.381 0.139593L378.975 17.9667C378.992 18.0527 378.939 18.1373 378.853 18.1591L374.487 19.2748C374.395 19.2981 374.303 19.2412 374.283 19.1497L371.821 7.80563L369.359 19.1497C369.339 19.2412 369.247 19.2981 369.156 19.2748L364.789 18.1591C364.703 18.1373 364.65 18.0527 364.667 17.9667L368.261 0.139593C368.283 0.0288419 368.409 -0.0288948 368.514 0.0145005C369.375 0.371494 371.02 0.442239 371.811 0.430288L371.811 0.430146H371.831C372.622 0.442103 374.267 0.3715 375.128 0.0145005Z" fill="#D6CEC4"/>
<path d="M368.516 743.57C368.411 743.613 368.286 743.556 368.263 743.445L364.67 725.618C364.652 725.532 364.706 725.447 364.791 725.425L369.158 724.31C369.249 724.286 369.341 724.343 369.361 724.435L371.824 735.779L374.286 724.435C374.305 724.343 374.398 724.286 374.489 724.31L378.856 725.425C378.941 725.447 378.995 725.532 378.977 725.618L375.383 743.445C375.361 743.556 375.236 743.613 375.131 743.57C374.27 743.213 372.625 743.142 371.834 743.154L371.834 743.154L371.813 743.154C371.023 743.142 369.377 743.213 368.516 743.57Z" fill="#D6CEC4"/>
<path d="M408.143 2.0309C409.141 2.12712 410.057 1.87987 410.265 1.94865C410.474 2.01773 411.747 2.88582 413.055 3.57959C414.363 4.27341 414.538 4.51686 414.963 5.0756C415.304 5.52258 416.504 7.78979 417.061 8.8676C417.213 9.20564 417.083 9.48373 416.872 9.60837C416.288 9.86873 415.046 10.4142 414.744 10.5138C414.367 10.6383 414.223 10.5919 414.096 10.531C413.97 10.4701 413.164 9.38963 413.103 9.33502C412.914 9.57488 412.766 9.89957 412.614 10.9347C412.463 11.9698 411.993 19.7903 411.946 20.2703C411.899 20.7503 411.918 21.0591 411.035 21.1017C410.332 21.1355 407.594 20.9991 406.295 20.9259L406.295 20.9268C406.293 20.9264 406.29 20.926 406.287 20.9255C406.284 20.9254 406.282 20.9253 406.279 20.9252L406.279 20.9244C404.991 20.7437 402.279 20.3444 401.595 20.1744C400.738 19.9608 400.817 19.6617 400.864 19.1817C400.911 18.7018 401.972 10.9393 402.025 9.89447C402.078 8.84969 401.996 8.50242 401.857 8.2303C401.787 8.272 400.786 9.17509 400.65 9.21019C400.514 9.24527 400.363 9.26268 400.018 9.06723C399.741 8.91084 398.629 8.13399 398.107 7.76504C397.924 7.6017 397.851 7.3036 398.066 7.00168C398.822 6.05289 400.44 4.06245 400.861 3.69029C401.387 3.22509 401.606 3.02033 403.024 2.59421C404.442 2.16813 405.86 1.56452 406.078 1.5374C406.296 1.51044 407.145 1.93103 408.143 2.0309Z" fill="#E61717"/>
<path d="M335.509 741.469C334.511 741.372 333.596 741.62 333.388 741.551C333.179 741.482 331.905 740.614 330.597 739.92C329.29 739.226 329.115 738.983 328.689 738.424C328.348 737.977 327.149 735.71 326.592 734.632C326.439 734.294 326.569 734.016 326.78 733.891C327.364 733.631 328.607 733.085 328.908 732.986C329.285 732.861 329.43 732.908 329.556 732.968C329.683 733.029 330.488 734.11 330.549 734.164C330.739 733.925 330.887 733.6 331.038 732.565C331.189 731.53 331.659 723.709 331.707 723.229C331.754 722.749 331.734 722.44 332.617 722.398C333.32 722.364 336.059 722.5 337.357 722.574L337.357 722.573C337.36 722.573 337.362 722.574 337.365 722.574C337.368 722.574 337.371 722.574 337.373 722.574L337.373 722.575C338.661 722.756 341.374 723.155 342.057 723.325C342.914 723.539 342.835 723.838 342.788 724.318C342.741 724.798 341.68 732.56 341.627 733.605C341.574 734.65 341.656 734.997 341.795 735.269C341.866 735.228 342.866 734.324 343.002 734.289C343.138 734.254 343.289 734.237 343.635 734.432C343.911 734.589 345.024 735.366 345.545 735.734C345.728 735.898 345.802 736.196 345.586 736.498C344.83 737.447 343.212 739.437 342.791 739.809C342.265 740.274 342.046 740.479 340.628 740.905C339.211 741.331 337.792 741.935 337.574 741.962C337.357 741.989 336.507 741.568 335.509 741.469Z" fill="#E61717"/>
<path d="M447.414 7.76385C447.525 7.74163 447.637 7.82271 447.637 7.93571L447.693 26.1213C447.694 26.2091 447.625 26.2817 447.537 26.2864L443.037 26.5311C442.943 26.5362 442.863 26.4625 442.861 26.3688L442.654 14.7625L438.031 25.4106C437.994 25.4965 437.892 25.5343 437.807 25.4938L433.741 23.5496C433.662 23.5116 433.626 23.4183 433.659 23.3373L440.653 6.55024C440.697 6.44595 440.831 6.41371 440.925 6.47666C441.701 6.99438 443.301 7.38395 444.079 7.52607L444.079 7.52596L444.099 7.52998C444.872 7.69555 446.5 7.94647 447.414 7.76385Z" fill="#D6CEC4"/>
<path d="M296.242 735.82C296.131 735.842 296.019 735.761 296.019 735.648L295.963 717.462C295.963 717.374 296.031 717.302 296.119 717.297L300.62 717.052C300.714 717.047 300.793 717.121 300.795 717.215L301.003 728.821L305.625 718.173C305.662 718.087 305.764 718.049 305.849 718.09L309.915 720.034C309.995 720.072 310.031 720.165 309.997 720.246L303.003 737.033C302.959 737.138 302.825 737.17 302.731 737.107C301.956 736.589 300.356 736.2 299.578 736.057L299.578 736.058L299.557 736.054C298.784 735.888 297.156 735.637 296.242 735.82Z" fill="#D6CEC4"/>
<path d="M479.394 16.2079C480.354 16.4965 481.3 16.4321 481.491 16.54C481.682 16.6485 482.763 17.7478 483.91 18.6828C485.058 19.6178 485.182 19.8906 485.491 20.5215C485.738 21.0262 486.474 23.4835 486.811 24.6491C486.894 25.0104 486.713 25.2578 486.481 25.339C485.858 25.4808 484.533 25.7741 484.218 25.8131C483.824 25.8619 483.691 25.7882 483.579 25.7039C483.467 25.6195 482.887 24.4029 482.838 24.3375C482.605 24.5359 482.397 24.8256 482.047 25.8115C481.697 26.7974 479.714 34.3769 479.575 34.8386C479.435 35.3002 479.394 35.6069 478.52 35.4769C477.824 35.3733 475.164 34.7066 473.905 34.3822L473.904 34.383C473.902 34.3821 473.899 34.3811 473.897 34.3802C473.894 34.3795 473.891 34.3789 473.889 34.3782L473.889 34.3775C472.661 33.9497 470.078 33.0301 469.441 32.7304C468.641 32.3541 468.777 32.0761 468.917 31.6145C469.056 31.1529 471.607 23.7452 471.863 22.7306C472.118 21.7161 472.105 21.3596 472.022 21.0656C471.944 21.0928 470.787 21.7839 470.647 21.7919C470.507 21.7998 470.355 21.7876 470.055 21.5286C469.814 21.3214 468.874 20.3429 468.434 19.8795C468.286 19.6837 468.272 19.377 468.542 19.1227C469.468 18.3392 471.443 16.7016 471.928 16.4186C472.535 16.0647 472.789 15.9064 474.263 15.7643C475.736 15.6222 477.245 15.3061 477.464 15.322C477.683 15.3379 478.435 15.9158 479.394 16.2079Z" fill="#E61717"/>
<path d="M264.262 727.378C263.302 727.089 262.356 727.153 262.165 727.045C261.974 726.937 260.893 725.838 259.746 724.903C258.598 723.968 258.474 723.695 258.165 723.064C257.918 722.559 257.182 720.102 256.846 718.936C256.762 718.575 256.944 718.328 257.175 718.246C257.798 718.105 259.123 717.811 259.438 717.772C259.832 717.724 259.965 717.797 260.077 717.882C260.19 717.966 260.77 719.183 260.819 719.248C261.051 719.05 261.259 718.76 261.609 717.774C261.959 716.788 263.942 709.209 264.082 708.747C264.221 708.285 264.262 707.979 265.136 708.109C265.833 708.212 268.492 708.879 269.752 709.203L269.752 709.202C269.754 709.203 269.757 709.204 269.76 709.205C269.762 709.206 269.765 709.207 269.768 709.207L269.767 709.208C270.995 709.636 273.578 710.555 274.215 710.855C275.015 711.231 274.879 711.509 274.74 711.971C274.6 712.433 272.049 719.84 271.794 720.855C271.539 721.869 271.551 722.226 271.635 722.52C271.712 722.493 272.869 721.802 273.009 721.794C273.149 721.786 273.301 721.798 273.602 722.057C273.842 722.264 274.783 723.243 275.223 723.706C275.37 723.902 275.384 724.208 275.114 724.463C274.188 725.246 272.214 726.884 271.728 727.167C271.121 727.521 270.867 727.679 269.393 727.821C267.92 727.963 266.411 728.279 266.192 728.263C265.973 728.248 265.222 727.67 264.262 727.378Z" fill="#E61717"/>
<path d="M516.809 29.3889C516.922 29.3888 517.016 29.4901 516.995 29.601L513.511 47.4499C513.494 47.536 513.413 47.5938 513.325 47.5813L508.863 46.9457C508.77 46.9323 508.707 46.8446 508.723 46.7523L510.778 35.3275L504.172 44.8726C504.118 44.9496 504.011 44.9669 503.936 44.9106L500.326 42.2124C500.255 42.1597 500.238 42.0611 500.287 41.9882L510.414 26.883C510.477 26.7891 510.615 26.7837 510.695 26.8637C511.355 27.5224 512.848 28.2159 513.584 28.5067L513.584 28.5066L513.603 28.5145C514.329 28.8273 515.877 29.3902 516.809 29.3889Z" fill="#E61717"/>
<path d="M226.855 714.112C226.742 714.112 226.648 714.01 226.669 713.9L230.153 696.051C230.17 695.964 230.251 695.907 230.339 695.919L234.801 696.555C234.894 696.568 234.957 696.656 234.941 696.748L232.886 708.173L239.492 698.628C239.546 698.551 239.653 698.534 239.728 698.59L243.338 701.288C243.409 701.341 243.426 701.439 243.377 701.512L233.25 716.617C233.187 716.711 233.049 716.717 232.969 716.637C232.31 715.978 230.816 715.285 230.08 714.994L230.08 714.994L230.061 714.986C229.335 714.673 227.787 714.11 226.855 714.112Z" fill="#E61717"/>
<path d="M546.526 43.9369C547.411 44.4069 548.352 44.5277 548.518 44.6707C548.685 44.8143 549.531 46.1029 550.474 47.2433C551.418 48.3837 551.487 48.6755 551.667 49.3545C551.811 49.8976 552.054 52.4511 552.158 53.66C552.17 54.0306 551.943 54.2379 551.701 54.2725C551.062 54.2904 549.705 54.3202 549.388 54.2972C548.993 54.2684 548.877 54.1703 548.783 54.0657C548.689 53.9611 548.357 52.6549 548.321 52.5812C548.055 52.7306 547.794 52.9742 547.259 53.8731C546.724 54.7721 543.304 61.8209 543.077 62.2466C542.851 62.6722 542.751 62.965 541.919 62.6675C541.256 62.4303 538.777 61.2588 537.605 60.6956L537.604 60.6964C537.602 60.695 537.6 60.6935 537.597 60.6921C537.595 60.6909 537.592 60.6898 537.59 60.6886L537.59 60.688C536.469 60.0294 534.114 58.6247 533.548 58.2068C532.837 57.6821 533.024 57.4359 533.251 57.0102C533.478 56.5846 537.421 49.8149 537.869 48.8694C538.317 47.924 538.373 47.5717 538.349 47.2671C538.268 47.2787 536.998 47.7316 536.859 47.7121C536.72 47.6926 536.574 47.6511 536.329 47.3386C536.134 47.0885 535.402 45.9458 535.06 45.4056C534.954 45.1848 535 44.8812 535.314 44.6843C536.375 44.0961 538.63 42.8739 539.161 42.6907C539.826 42.4617 540.106 42.356 541.579 42.5033C543.052 42.6506 544.593 42.6342 544.805 42.6925C545.017 42.7506 545.641 43.4636 546.526 43.9369Z" fill="#E61717"/>
<path d="M197.123 699.651C196.237 699.181 195.297 699.06 195.131 698.917C194.964 698.774 194.118 697.485 193.174 696.345C192.231 695.204 192.162 694.912 191.982 694.233C191.837 693.69 191.594 691.137 191.49 689.928C191.479 689.557 191.705 689.35 191.948 689.315C192.587 689.297 193.943 689.268 194.26 689.291C194.656 689.319 194.772 689.418 194.866 689.522C194.959 689.627 195.291 690.933 195.327 691.007C195.594 690.857 195.854 690.614 196.389 689.715C196.924 688.816 200.344 681.767 200.571 681.341C200.798 680.916 200.898 680.623 201.73 680.92C202.393 681.158 204.872 682.329 206.044 682.892L206.044 682.892C206.046 682.893 206.049 682.894 206.051 682.896C206.054 682.897 206.056 682.898 206.059 682.899L206.058 682.9C207.179 683.559 209.534 684.963 210.101 685.381C210.812 685.906 210.625 686.152 210.398 686.578C210.171 687.003 206.227 693.773 205.78 694.718C205.332 695.664 205.275 696.016 205.3 696.321C205.381 696.309 206.65 695.856 206.789 695.876C206.928 695.895 207.074 695.937 207.319 696.249C207.515 696.499 208.247 697.642 208.588 698.182C208.695 698.403 208.649 698.707 208.335 698.904C207.273 699.492 205.018 700.714 204.487 700.897C203.823 701.126 203.542 701.232 202.069 701.085C200.597 700.937 199.055 700.954 198.843 700.895C198.632 700.837 198.007 700.124 197.123 699.651Z" fill="#E61717"/>
<path d="M580.653 64.1877C580.764 64.2096 580.837 64.3272 580.794 64.4318L573.903 81.2616C573.87 81.3428 573.779 81.3837 573.696 81.3544L569.443 79.8627C569.354 79.8315 569.309 79.733 569.343 79.6458L573.581 68.8391L565.244 76.9163C565.177 76.9815 565.069 76.9776 565.006 76.9077L561.99 73.5586C561.931 73.4931 561.933 73.3932 561.995 73.3312L574.868 60.4852C574.948 60.4054 575.084 60.4269 575.147 60.521C575.666 61.2954 576.996 62.2664 577.661 62.6946L577.661 62.6946L577.678 62.7061C578.33 63.1542 579.738 64.0075 580.653 64.1877Z" fill="#E61717"/>
<path d="M162.999 679.4C162.888 679.379 162.816 679.261 162.859 679.156L169.749 662.327C169.782 662.245 169.873 662.204 169.957 662.234L174.209 663.725C174.298 663.757 174.344 663.855 174.309 663.942L170.071 674.749L178.408 666.672C178.475 666.607 178.584 666.611 178.647 666.68L181.663 670.03C181.722 670.095 181.719 670.195 181.657 670.257L168.785 683.103C168.705 683.183 168.568 683.161 168.505 683.067C167.986 682.293 166.656 681.322 165.991 680.893L165.991 680.894L165.974 680.882C165.323 680.434 163.914 679.581 162.999 679.4Z" fill="#D6CEC4"/>
<path d="M606.984 84.1569C607.761 84.7903 608.66 85.0918 608.795 85.2644C608.931 85.4377 609.51 86.8663 610.214 88.1685C610.917 89.4708 610.928 89.7704 610.973 90.4714C611.008 91.0323 610.75 93.5842 610.616 94.7902C610.556 95.156 610.293 95.3153 610.049 95.302C609.419 95.1953 608.082 94.9605 607.776 94.8763C607.393 94.771 607.298 94.6522 607.227 94.5314C607.155 94.4105 607.084 93.0647 607.063 92.9855C606.773 93.0801 606.47 93.2684 605.77 94.046C605.07 94.8237 600.344 101.072 600.039 101.446C599.733 101.819 599.578 102.087 598.82 101.633C598.216 101.271 596.012 99.6399 594.972 98.8595L594.972 98.8601C594.97 98.8583 594.968 98.8564 594.966 98.8546C594.964 98.8529 594.961 98.8513 594.959 98.8497L594.96 98.8491C593.988 97.985 591.951 96.1489 591.477 95.6288C590.882 94.9757 591.113 94.7706 591.419 94.3973C591.724 94.0239 596.91 88.151 597.533 87.3107C598.156 86.4704 598.28 86.136 598.315 85.8324C598.234 85.8281 596.9 86.0253 596.768 85.9791C596.635 85.9329 596.5 85.8637 596.321 85.5096C596.177 85.2262 595.682 83.9629 595.452 83.3666C595.39 83.1293 595.494 82.8404 595.841 82.7084C596.996 82.3379 599.446 81.578 600.003 81.5016C600.699 81.4062 600.995 81.3571 602.411 81.7882C603.827 82.2193 605.342 82.5031 605.539 82.6016C605.735 82.6997 606.209 83.5207 606.984 84.1569Z" fill="#E61717"/>
<path d="M136.665 659.347C135.887 658.714 134.988 658.413 134.853 658.24C134.718 658.067 134.139 656.638 133.435 655.336C132.731 654.034 132.72 653.734 132.676 653.033C132.64 652.472 132.898 649.92 133.032 648.714C133.092 648.348 133.355 648.189 133.6 648.202C134.23 648.309 135.566 648.544 135.873 648.628C136.255 648.733 136.35 648.852 136.422 648.973C136.493 649.094 136.565 650.44 136.585 650.519C136.876 650.424 137.179 650.236 137.879 649.458C138.578 648.681 143.304 642.432 143.61 642.059C143.915 641.685 144.07 641.418 144.828 641.871C145.432 642.233 147.636 643.864 148.676 644.645L148.677 644.644C148.679 644.646 148.681 644.648 148.683 644.65C148.685 644.651 148.687 644.653 148.689 644.655L148.689 644.655C149.66 645.519 151.697 647.356 152.171 647.876C152.767 648.529 152.535 648.734 152.23 649.107C151.924 649.48 146.739 655.353 146.116 656.194C145.493 657.034 145.368 657.368 145.333 657.672C145.415 657.676 146.748 657.479 146.881 657.525C147.013 657.572 147.149 657.641 147.328 657.995C147.471 658.278 147.967 659.542 148.197 660.138C148.258 660.375 148.154 660.664 147.808 660.796C146.652 661.166 144.202 661.926 143.646 662.003C142.95 662.098 142.654 662.147 141.238 661.716C139.822 661.285 138.307 661.001 138.11 660.903C137.914 660.805 137.44 659.984 136.665 659.347Z" fill="#E61717"/>
<path d="M636.514 110.703C636.619 110.746 636.667 110.876 636.604 110.97L626.571 126.137C626.523 126.211 626.425 126.233 626.349 126.188L622.468 123.897C622.387 123.849 622.361 123.744 622.412 123.665L628.672 113.89L618.923 120.19C618.844 120.241 618.739 120.216 618.69 120.135L616.384 116.263C616.339 116.188 616.36 116.09 616.433 116.041L631.56 105.946C631.654 105.883 631.783 105.931 631.827 106.035C632.185 106.896 633.301 108.107 633.869 108.656L633.87 108.656L633.884 108.671C634.436 109.237 635.652 110.348 636.514 110.703Z" fill="#D6CEC4"/>
<path d="M107.139 632.887C107.034 632.844 106.986 632.715 107.048 632.62L117.081 617.453C117.13 617.38 117.227 617.357 117.303 617.402L121.185 619.693C121.266 619.741 121.291 619.846 121.24 619.925L114.98 629.701L124.729 623.4C124.808 623.349 124.914 623.374 124.962 623.455L127.269 627.327C127.314 627.403 127.292 627.5 127.219 627.549L112.093 637.645C111.999 637.707 111.869 637.66 111.826 637.555C111.467 636.695 110.352 635.483 109.783 634.934L109.783 634.934L109.768 634.919C109.216 634.353 108.001 633.242 107.139 632.887Z" fill="#E61717"/>
<path d="M658.449 135.457C659.088 136.229 659.911 136.7 660.01 136.896C660.109 137.092 660.399 138.606 660.836 140.02C661.273 141.434 661.225 141.73 661.133 142.427C661.059 142.984 660.309 145.437 659.943 146.594C659.813 146.941 659.524 147.046 659.287 146.985C658.689 146.758 657.424 146.268 657.14 146.125C656.785 145.948 656.715 145.813 656.669 145.68C656.622 145.548 656.814 144.214 656.809 144.132C656.505 144.168 656.172 144.294 655.334 144.921C654.496 145.547 648.645 150.757 648.272 151.064C647.9 151.37 647.696 151.603 647.041 151.01C646.519 150.538 644.674 148.509 643.806 147.541L643.806 147.542C643.804 147.539 643.802 147.537 643.801 147.535C643.799 147.533 643.797 147.531 643.795 147.529L643.796 147.528C643.011 146.492 641.37 144.294 641.006 143.692C640.549 142.936 640.817 142.779 641.189 142.473C641.561 142.166 647.79 137.414 648.565 136.711C649.34 136.008 649.527 135.704 649.62 135.414C649.541 135.393 648.195 135.327 648.074 135.256C647.952 135.185 647.833 135.091 647.726 134.709C647.641 134.403 647.401 133.067 647.291 132.438C647.277 132.193 647.435 131.93 647.801 131.868C649.006 131.729 651.557 131.46 652.118 131.494C652.819 131.536 653.119 131.545 654.424 132.243C655.729 132.942 657.16 133.515 657.334 133.65C657.507 133.784 657.812 134.682 658.449 135.457Z" fill="#E61717"/>
<path d="M85.1956 608.135C84.5562 607.362 83.7333 606.891 83.6344 606.696C83.5351 606.499 83.2451 604.985 82.8082 603.571C82.3713 602.157 82.4191 601.861 82.5117 601.165C82.5858 600.607 83.3357 598.155 83.7015 596.998C83.832 596.651 84.1205 596.545 84.358 596.606C84.9552 596.833 86.2206 597.324 86.5046 597.466C86.8594 597.644 86.9292 597.779 86.9759 597.911C87.0226 598.044 86.8309 599.378 86.8356 599.459C87.139 599.423 87.4729 599.297 88.3106 598.671C89.1484 598.044 95 592.834 95.3721 592.528C95.7442 592.221 95.9484 591.988 96.6038 592.581C97.1259 593.053 98.9702 595.082 99.8383 596.05L99.839 596.05C99.8406 596.052 99.8422 596.054 99.8439 596.056C99.8458 596.058 99.8476 596.06 99.8495 596.062L99.8489 596.063C100.634 597.1 102.274 599.297 102.638 599.899C103.095 600.656 102.828 600.812 102.456 601.119C102.084 601.426 95.8544 606.177 95.0797 606.88C94.3049 607.583 94.1179 607.887 94.0244 608.178C94.1038 608.198 95.4498 608.264 95.571 608.335C95.6921 608.406 95.8113 608.5 95.9182 608.883C96.0037 609.189 96.2438 610.524 96.3532 611.154C96.3675 611.398 96.2093 611.662 95.8437 611.724C94.6383 611.862 92.0874 612.131 91.5264 612.097C90.8252 612.056 90.5256 612.046 89.2204 611.348C87.9154 610.649 86.4844 610.076 86.3106 609.941C86.1374 609.807 85.8322 608.909 85.1956 608.135Z" fill="#D6CEC4"/>
<path d="M682.26 167.158C682.354 167.221 682.376 167.357 682.297 167.437L669.503 180.362C669.442 180.425 669.342 180.428 669.276 180.369L665.915 177.367C665.845 177.304 665.84 177.196 665.905 177.128L673.948 168.758L663.159 173.041C663.072 173.075 662.973 173.03 662.942 172.942L661.432 168.695C661.403 168.612 661.443 168.52 661.524 168.487L678.326 161.527C678.43 161.484 678.548 161.556 678.57 161.667C678.754 162.581 679.613 163.986 680.064 164.636L680.064 164.636L680.076 164.653C680.507 165.316 681.483 166.642 682.26 167.158Z" fill="#E61717"/>
<path d="M61.3889 576.35C61.2944 576.288 61.2724 576.151 61.3519 576.071L74.145 563.146C74.2067 563.084 74.3067 563.081 74.3724 563.139L77.7338 566.142C77.8039 566.204 77.8083 566.313 77.7433 566.38L69.7005 574.751L80.4896 570.468C80.5767 570.433 80.6754 570.478 80.7069 570.567L82.2162 574.814C82.2457 574.897 82.2053 574.988 82.1242 575.022L65.3227 581.981C65.2183 582.024 65.1005 581.952 65.0781 581.841C64.8942 580.927 64.0353 579.522 63.5844 578.873L63.5842 578.872L63.5727 578.855C63.1417 578.192 62.1655 576.866 61.3889 576.35Z" fill="#E61717"/>
<path d="M698.962 195.75C699.439 196.632 700.154 197.254 700.213 197.465C700.272 197.677 700.262 199.218 700.416 200.69C700.569 202.163 700.464 202.444 700.238 203.109C700.057 203.641 698.844 205.901 698.26 206.965C698.065 207.28 697.761 207.327 697.54 207.221C696.998 206.882 695.853 206.154 695.602 205.96C695.288 205.716 695.246 205.57 695.226 205.431C695.206 205.292 695.654 204.021 695.665 203.94C695.36 203.917 695.008 203.975 694.065 204.427C693.121 204.878 686.368 208.85 685.943 209.078C685.518 209.307 685.273 209.495 684.745 208.786C684.325 208.221 682.911 205.872 682.247 204.754L682.247 204.754C682.246 204.752 682.244 204.749 682.243 204.747C682.242 204.744 682.24 204.742 682.239 204.74L682.24 204.739C681.672 203.57 680.49 201.095 680.25 200.433C679.949 199.603 680.242 199.501 680.666 199.273C681.091 199.044 688.126 195.596 689.023 195.057C689.919 194.518 690.162 194.257 690.31 193.989C690.236 193.954 688.929 193.627 688.824 193.534C688.719 193.441 688.62 193.325 688.59 192.93C688.565 192.613 688.59 191.256 688.605 190.617C688.638 190.374 688.845 190.147 689.216 190.157C690.425 190.256 692.979 190.489 693.523 190.631C694.203 190.808 694.495 190.876 695.639 191.815C696.783 192.754 698.075 193.594 698.22 193.761C698.363 193.926 698.488 194.866 698.962 195.75Z" fill="#D6CEC4"/>
<path d="M44.6868 547.844C44.2099 546.962 43.4943 546.34 43.4353 546.129C43.3762 545.917 43.3863 544.376 43.2329 542.904C43.0796 541.431 43.1841 541.15 43.4104 540.485C43.5915 539.953 44.8043 537.693 45.3882 536.63C45.5838 536.315 45.8872 536.268 46.1084 536.373C46.65 536.713 47.7958 537.44 48.0466 537.635C48.3601 537.878 48.4023 538.024 48.4223 538.163C48.4423 538.302 47.9948 539.573 47.9834 539.654C48.2882 539.678 48.6401 539.619 49.5837 539.168C50.5274 538.716 57.2809 534.745 57.7056 534.516C58.1303 534.288 58.3758 534.099 58.9034 534.808C59.3236 535.373 60.7377 537.722 61.4009 538.84L61.4017 538.84C61.4029 538.843 61.4041 538.845 61.4052 538.848C61.4067 538.85 61.4081 538.852 61.4095 538.855L61.4089 538.855C61.9769 540.025 63.1584 542.499 63.3983 543.161C63.6993 543.992 63.4069 544.093 62.9822 544.321C62.5575 544.55 55.5227 547.998 54.6259 548.537C53.7292 549.076 53.4867 549.338 53.3383 549.605C53.4123 549.64 54.7197 549.967 54.8247 550.06C54.9297 550.153 55.0283 550.269 55.0587 550.665C55.0831 550.981 55.0588 552.338 55.0436 552.977C55.0099 553.22 54.8035 553.447 54.4329 553.437C53.2236 553.338 50.6691 553.106 50.1254 552.964C49.4457 552.786 49.1536 552.719 48.0093 551.779C46.8651 550.841 45.573 550 45.4288 549.834C45.2851 549.668 45.1604 548.728 44.6868 547.844Z" fill="#D6CEC4"/>
<path d="M716.142 231.519C716.222 231.599 716.218 231.737 716.124 231.8L701.06 241.989C700.988 242.038 700.889 242.021 700.836 241.951L698.123 238.352C698.066 238.277 698.083 238.17 698.16 238.116L707.678 231.471L696.262 233.573C696.17 233.589 696.082 233.526 696.068 233.433L695.414 228.974C695.401 228.886 695.458 228.805 695.544 228.788L713.379 225.231C713.49 225.209 713.591 225.302 713.592 225.415C713.594 226.348 714.163 227.893 714.479 228.618L714.479 228.618L714.487 228.637C714.781 229.371 715.481 230.862 716.142 231.519Z" fill="#D6CEC4"/>
<path d="M27.5143 512.076C27.4338 511.996 27.4387 511.858 27.5323 511.795L42.5959 501.606C42.6686 501.557 42.7672 501.573 42.8202 501.644L45.5332 505.243C45.5898 505.318 45.5729 505.425 45.4961 505.479L35.9782 512.124L47.3945 510.022C47.4867 510.005 47.5747 510.069 47.5884 510.162L48.2424 514.621C48.2553 514.708 48.1978 514.79 48.1118 514.807L30.2772 518.364C30.1664 518.386 30.0648 518.293 30.0645 518.18C30.0619 517.247 29.4929 515.702 29.177 514.977L29.1768 514.977L29.1689 514.958C28.8751 514.224 28.1756 512.733 27.5143 512.076Z" fill="#E61717"/>
<path d="M726.97 262.731C727.266 263.689 727.847 264.438 727.864 264.657C727.88 264.876 727.571 266.386 727.435 267.86C727.298 269.334 727.141 269.589 726.79 270.198C726.509 270.684 724.879 272.665 724.1 273.595C723.846 273.866 723.54 273.853 723.343 273.706C722.878 273.268 721.896 272.332 721.688 272.092C721.427 271.792 721.414 271.641 721.422 271.501C721.429 271.36 722.116 270.201 722.143 270.123C721.848 270.041 721.492 270.03 720.478 270.289C719.465 270.548 712.067 273.13 711.606 273.271C711.145 273.413 710.868 273.55 710.488 272.752C710.186 272.116 709.256 269.537 708.823 268.311L708.822 268.311C708.822 268.308 708.821 268.305 708.82 268.303C708.819 268.3 708.818 268.298 708.817 268.295L708.818 268.295C708.489 267.037 707.811 264.38 707.705 263.684C707.571 262.811 707.878 262.768 708.339 262.627C708.8 262.485 716.371 260.471 717.356 260.117C718.34 259.763 718.629 259.554 718.826 259.321C718.761 259.272 717.542 258.697 717.457 258.585C717.372 258.473 717.298 258.34 717.345 257.946C717.383 257.631 717.671 256.305 717.81 255.681C717.89 255.45 718.137 255.267 718.498 255.349C719.665 255.681 722.126 256.406 722.631 256.651C723.264 256.958 723.537 257.081 724.477 258.225C725.416 259.368 726.52 260.444 726.629 260.635C726.738 260.826 726.677 261.772 726.97 262.731Z" fill="#E61717"/>
<path d="M16.6863 480.782C16.3903 479.823 15.8093 479.074 15.7925 478.856C15.7758 478.636 16.0856 477.126 16.2217 475.653C16.3578 474.178 16.515 473.923 16.8664 473.315C17.1475 472.828 18.777 470.847 19.5566 469.918C19.8098 469.647 20.1166 469.66 20.313 469.806C20.7782 470.245 21.7606 471.181 21.9687 471.421C22.2289 471.72 22.2418 471.872 22.2344 472.012C22.227 472.152 21.5406 473.312 21.5137 473.389C21.8081 473.472 22.1647 473.483 23.1781 473.224C24.1917 472.964 31.5888 470.383 32.0499 470.241C32.5109 470.1 32.7884 469.963 33.1679 470.761C33.4702 471.397 34.4002 473.976 34.8331 475.202L34.8339 475.202C34.8346 475.205 34.8353 475.207 34.836 475.21C34.8369 475.213 34.8379 475.215 34.8388 475.218L34.8381 475.218C35.1677 476.476 35.8451 479.133 35.9516 479.829C36.0852 480.702 35.7787 480.744 35.3176 480.886C34.8566 481.027 27.2852 483.041 26.3007 483.395C25.3163 483.749 25.0275 483.959 24.83 484.192C24.8957 484.241 26.1146 484.816 26.1994 484.928C26.2842 485.04 26.3585 485.172 26.3113 485.566C26.2735 485.882 25.9857 487.208 25.8464 487.831C25.7662 488.063 25.5195 488.246 25.1579 488.164C23.9909 487.832 21.5306 487.106 21.0249 486.861C20.3927 486.555 20.1194 486.432 19.1797 485.288C18.2401 484.144 17.1363 483.068 17.0271 482.877C16.9183 482.687 16.9789 481.741 16.6863 480.782Z" fill="#E61717"/>
<path d="M736.859 301.202C736.922 301.296 736.891 301.43 736.787 301.474L720.028 308.537C719.947 308.571 719.854 308.536 719.816 308.456L717.855 304.398C717.814 304.313 717.851 304.212 717.937 304.174L728.566 299.508L716.959 299.348C716.865 299.346 716.791 299.267 716.796 299.173L717.022 294.672C717.027 294.584 717.099 294.515 717.187 294.515L735.373 294.496C735.485 294.496 735.567 294.608 735.545 294.719C735.366 295.634 735.624 297.26 735.793 298.033L735.793 298.033L735.797 298.053C735.942 298.83 736.338 300.429 736.859 301.202Z" fill="#D6CEC4"/>
<path d="M6.79722 442.398C6.73384 442.304 6.76552 442.169 6.86965 442.125L23.6279 435.063C23.7088 435.029 23.8023 435.064 23.8406 435.143L25.8013 439.201C25.8422 439.286 25.8049 439.388 25.7191 439.426L15.09 444.092L26.6971 444.252C26.7908 444.253 26.8648 444.332 26.8601 444.426L26.6339 448.928C26.6295 449.016 26.5572 449.085 26.4695 449.085L8.28374 449.103C8.17076 449.104 8.08927 448.992 8.111 448.881C8.28987 447.966 8.03242 446.339 7.86368 445.567L7.86351 445.567L7.85941 445.546C7.71411 444.769 7.31812 443.171 6.79722 442.398Z" fill="#D6CEC4"/>
<path d="M741.4 333.966C741.504 334.963 741.928 335.811 741.902 336.028C741.876 336.247 741.278 337.668 740.858 339.087C740.438 340.506 740.234 340.726 739.771 341.254C739.4 341.677 737.417 343.303 736.471 344.063C736.17 344.28 735.871 344.207 735.707 344.025C735.336 343.505 734.555 342.395 734.397 342.12C734.2 341.775 734.217 341.624 734.252 341.488C734.286 341.352 735.185 340.348 735.227 340.277C734.954 340.139 734.606 340.059 733.562 340.116C732.517 340.173 724.759 341.266 724.279 341.315C723.8 341.364 723.501 341.444 723.284 340.588C723.111 339.905 722.701 337.194 722.515 335.907L722.514 335.907C722.514 335.905 722.514 335.902 722.513 335.899C722.513 335.896 722.513 335.894 722.512 335.891L722.513 335.891C722.434 334.593 722.287 331.855 722.318 331.152C722.357 330.269 722.666 330.287 723.145 330.238C723.625 330.189 731.444 329.687 732.478 329.531C733.513 329.375 733.837 329.226 734.076 329.036C734.021 328.975 732.937 328.174 732.876 328.048C732.814 327.921 732.767 327.777 732.89 327.399C732.989 327.098 733.529 325.853 733.787 325.268C733.911 325.056 734.188 324.925 734.527 325.076C735.607 325.629 737.879 326.819 738.328 327.158C738.888 327.582 739.132 327.755 739.831 329.06C740.531 330.365 741.404 331.635 741.474 331.844C741.543 332.052 741.3 332.968 741.4 333.966Z" fill="#E61717"/>
<path d="M2.26382 409.636C2.15986 408.638 1.73578 407.79 1.76185 407.573C1.78807 407.354 2.38587 405.934 2.80613 404.514C3.22643 403.095 3.43028 402.875 3.89333 402.347C4.26376 401.924 6.24755 400.298 7.19323 399.538C7.49426 399.322 7.79266 399.394 7.95675 399.576C8.32783 400.096 9.10925 401.206 9.26677 401.482C9.46363 401.826 9.44684 401.977 9.41231 402.113C9.37777 402.249 8.4788 403.254 8.43738 403.324C8.71008 403.462 9.05767 403.543 10.1022 403.485C11.1468 403.428 18.9049 402.336 19.3847 402.287C19.8645 402.237 20.1632 402.157 20.3803 403.014C20.5531 403.696 20.9634 406.407 21.1494 407.694L21.1503 407.694C21.1504 407.697 21.1506 407.699 21.1507 407.702C21.1511 407.705 21.1515 407.708 21.152 407.71L21.1512 407.71C21.2298 409.008 21.3772 411.746 21.3463 412.45C21.3073 413.333 20.9984 413.314 20.5187 413.363C20.0389 413.413 12.2204 413.915 11.1858 414.07C10.1514 414.226 9.8273 414.375 9.58821 414.565C9.64308 414.626 10.7268 415.427 10.7883 415.554C10.8497 415.68 10.8967 415.824 10.7737 416.202C10.6754 416.504 10.135 417.749 9.87701 418.333C9.75324 418.545 9.47569 418.676 9.13702 418.525C8.05694 417.972 5.78483 416.782 5.33646 416.443C4.77597 416.02 4.53181 415.846 3.83263 414.541C3.13351 413.237 2.26021 411.966 2.19026 411.758C2.12064 411.55 2.36413 410.634 2.26382 409.636Z" fill="#E61717"/>
<path d="M743.62 373.542C743.664 373.646 743.607 373.772 743.496 373.795L725.684 377.462C725.598 377.479 725.513 377.426 725.491 377.341L724.357 372.979C724.334 372.888 724.39 372.795 724.482 372.775L735.816 370.266L724.462 367.851C724.37 367.831 724.313 367.739 724.336 367.648L725.433 363.277C725.455 363.191 725.539 363.137 725.625 363.154L743.467 366.675C743.578 366.697 743.636 366.822 743.593 366.927C743.24 367.789 743.176 369.435 743.191 370.226L743.191 370.226L743.191 370.246C743.182 371.037 743.26 372.682 743.62 373.542Z" fill="#E61717"/>
<path d="M0.0399478 369.977C-0.00391836 369.873 0.0533261 369.747 0.164004 369.724L17.9762 366.057C18.0622 366.04 18.147 366.093 18.1691 366.178L19.3028 370.54C19.3264 370.631 19.2699 370.724 19.1784 370.744L7.84458 373.253L19.1986 375.668C19.2903 375.688 19.3475 375.78 19.3246 375.871L18.2268 380.243C18.2054 380.328 18.121 380.382 18.0349 380.365L0.193201 376.844C0.0823591 376.822 0.0241086 376.697 0.067074 376.592C0.420534 375.73 0.48453 374.084 0.469338 373.293L0.469195 373.293L0.46911 373.273C0.477825 372.482 0.400475 370.837 0.0399478 369.977Z" fill="#E61717"/>
<path d="M741.699 406.605C741.607 407.603 741.858 408.518 741.79 408.726C741.721 408.935 740.859 410.212 740.17 411.523C739.482 412.833 739.239 413.009 738.682 413.437C738.236 413.78 735.974 414.989 734.899 415.55C734.561 415.704 734.283 415.575 734.157 415.364C733.894 414.782 733.344 413.541 733.243 413.24C733.117 412.864 733.163 412.719 733.223 412.592C733.284 412.466 734.361 411.656 734.415 411.594C734.174 411.406 733.849 411.259 732.813 411.112C731.778 410.965 723.955 410.527 723.475 410.482C722.995 410.437 722.686 410.458 722.64 409.575C722.603 408.872 722.728 406.133 722.796 404.834L722.795 404.834C722.796 404.832 722.796 404.829 722.797 404.826C722.797 404.823 722.797 404.821 722.797 404.818L722.798 404.818C722.973 403.53 723.361 400.815 723.529 400.131C723.739 399.273 724.038 399.351 724.518 399.396C724.998 399.441 732.765 400.47 733.81 400.519C734.855 400.568 735.202 400.484 735.474 400.344C735.432 400.274 734.524 399.277 734.489 399.141C734.453 399.005 734.435 398.854 734.629 398.508C734.784 398.231 735.557 397.115 735.924 396.592C736.086 396.409 736.384 396.334 736.687 396.548C737.639 397.3 739.636 398.91 740.01 399.329C740.477 399.854 740.683 400.072 741.114 401.488C741.546 402.904 742.156 404.32 742.184 404.538C742.212 404.755 741.795 405.606 741.699 406.605Z" fill="#D6CEC4"/>
<path d="M1.9653 337.002C2.05742 336.003 1.80643 335.089 1.87435 334.881C1.94258 334.671 2.80543 333.394 3.49383 332.084C4.18228 330.773 4.42502 330.597 4.98201 330.169C5.42759 329.827 7.68985 328.618 8.76537 328.056C9.10279 327.902 9.3814 328.031 9.50691 328.242C9.76966 328.825 10.3202 330.065 10.4211 330.366C10.5471 330.742 10.5013 330.887 10.4409 331.014C10.3806 331.141 9.30338 331.951 9.24902 332.012C9.48965 332.2 9.81495 332.347 10.8507 332.494C11.8864 332.641 19.7088 333.079 20.189 333.124C20.6691 333.17 20.9778 333.149 21.0241 334.031C21.0607 334.734 20.9356 337.474 20.8677 338.772L20.8686 338.772C20.8682 338.775 20.8678 338.778 20.8674 338.78C20.8673 338.783 20.8672 338.786 20.8671 338.789L20.8663 338.788C20.6908 340.077 20.3026 342.791 20.1355 343.475C19.9254 344.333 19.626 344.255 19.1458 344.21C18.6657 344.165 10.8989 343.136 9.85389 343.088C8.8089 343.039 8.46197 343.122 8.19043 343.262C8.23241 343.333 9.1396 344.329 9.17525 344.465C9.21089 344.601 9.22892 344.752 9.03489 345.098C8.87963 345.375 8.10735 346.491 7.74055 347.014C7.57796 347.198 7.28016 347.273 6.97736 347.059C6.02548 346.306 4.02842 344.697 3.65454 344.277C3.18718 343.753 2.98152 343.534 2.5496 342.119C2.11771 340.703 1.50828 339.287 1.48027 339.069C1.45242 338.851 1.86952 338 1.9653 337.002Z" fill="#D6CEC4"/>
<path d="M736.167 445.898C736.19 446.009 736.109 446.121 735.996 446.122L717.811 446.253C717.723 446.253 717.651 446.185 717.646 446.097L717.382 441.597C717.377 441.504 717.45 441.424 717.544 441.422L729.149 441.166L718.482 436.588C718.396 436.551 718.358 436.449 718.398 436.364L720.326 432.29C720.363 432.21 720.457 432.174 720.538 432.207L737.353 439.132C737.458 439.175 737.491 439.31 737.428 439.404C736.913 440.181 736.53 441.783 736.392 442.562L736.392 442.562L736.388 442.582C736.225 443.356 735.981 444.985 736.167 445.898Z" fill="#E61717"/>
<path d="M7.49275 297.71C7.47007 297.599 7.55069 297.487 7.66369 297.486L25.8489 297.355C25.9367 297.355 26.0096 297.423 26.0146 297.511L26.2778 302.01C26.2832 302.104 26.2099 302.184 26.1162 302.186L14.5108 302.442L25.1778 307.02C25.2639 307.057 25.3021 307.159 25.2619 307.244L23.3344 311.318C23.2968 311.398 23.2036 311.434 23.1225 311.401L6.30687 304.475C6.2024 304.432 6.16962 304.298 6.23218 304.204C6.74671 303.427 7.12972 301.825 7.26865 301.046L7.26854 301.046L7.27248 301.026C7.43487 300.252 7.67912 298.623 7.49275 297.71Z" fill="#D6CEC4"/>
<path d="M727.855 477.871C727.571 478.832 727.639 479.778 727.532 479.969C727.424 480.161 726.329 481.246 725.399 482.397C724.469 483.549 724.197 483.674 723.567 483.986C723.063 484.235 720.609 484.98 719.445 485.322C719.084 485.407 718.836 485.226 718.754 484.995C718.609 484.373 718.31 483.049 718.27 482.734C718.22 482.341 718.293 482.207 718.377 482.095C718.461 481.982 719.675 481.397 719.74 481.348C719.541 481.116 719.25 480.909 718.263 480.563C717.276 480.217 709.688 478.266 709.226 478.128C708.764 477.99 708.457 477.95 708.583 477.076C708.684 476.379 709.34 473.717 709.659 472.456L709.658 472.456C709.659 472.453 709.66 472.451 709.661 472.448C709.661 472.445 709.662 472.443 709.663 472.44L709.663 472.44C710.086 471.211 710.995 468.624 711.292 467.985C711.665 467.184 711.944 467.319 712.406 467.457C712.868 467.595 720.286 470.115 721.302 470.366C722.317 470.617 722.674 470.603 722.968 470.518C722.94 470.441 722.244 469.287 722.236 469.147C722.227 469.007 722.239 468.855 722.497 468.553C722.703 468.312 723.677 467.368 724.139 466.926C724.334 466.777 724.641 466.762 724.896 467.031C725.683 467.954 727.329 469.922 727.614 470.406C727.971 471.011 728.13 471.265 728.278 472.738C728.426 474.211 728.748 475.718 728.733 475.938C728.718 476.156 728.144 476.91 727.855 477.871Z" fill="#E61717"/>
<path d="M15.8047 265.655C16.0894 264.693 16.021 263.748 16.1282 263.557C16.2358 263.365 17.3308 262.28 18.261 261.128C19.1913 259.977 19.4636 259.852 20.0932 259.54C20.5969 259.291 23.0512 258.545 24.2154 258.204C24.5763 258.119 24.8245 258.299 24.9066 258.53C25.051 259.153 25.3497 260.477 25.39 260.792C25.4404 261.185 25.3673 261.319 25.2834 261.431C25.1995 261.544 23.9853 262.129 23.9201 262.178C24.1195 262.41 24.41 262.617 25.3973 262.963C26.3846 263.309 33.9722 265.26 34.4344 265.398C34.8966 265.536 35.2035 265.576 35.0771 266.45C34.9763 267.147 34.3205 269.809 34.0013 271.07L34.0021 271.07C34.0012 271.073 34.0003 271.075 33.9994 271.078C33.9987 271.08 33.9981 271.083 33.9974 271.086L33.9967 271.086C33.5739 272.315 32.6649 274.902 32.3679 275.54C31.9948 276.341 31.7163 276.207 31.2541 276.069C30.7919 275.931 23.3738 273.411 22.3582 273.16C21.3427 272.909 20.9862 272.923 20.6925 273.007C20.72 273.085 21.416 274.239 21.4245 274.379C21.433 274.519 21.4213 274.671 21.1636 274.972C20.9574 275.214 19.9828 276.158 19.5212 276.6C19.326 276.749 19.0193 276.764 18.764 276.495C17.9767 275.572 16.331 273.604 16.0459 273.12C15.6896 272.515 15.5303 272.261 15.3821 270.788C15.234 269.315 14.9117 267.808 14.9267 267.588C14.9417 267.369 15.5165 266.616 15.8047 265.655Z" fill="#E61717"/>
<path d="M714.784 515.379C714.784 515.492 714.683 515.587 714.572 515.566L696.709 512.155C696.623 512.139 696.565 512.057 696.577 511.97L697.194 507.506C697.207 507.412 697.295 507.348 697.387 507.365L708.82 509.372L699.248 502.805C699.171 502.752 699.153 502.645 699.209 502.57L701.893 498.949C701.945 498.878 702.044 498.86 702.117 498.909L717.263 508.974C717.357 509.036 717.363 509.174 717.284 509.255C716.628 509.917 715.94 511.414 715.653 512.15L715.653 512.15L715.645 512.169C715.335 512.897 714.778 514.447 714.784 515.379Z" fill="#E61717"/>
<path d="M28.8766 228.233C28.876 228.119 28.9769 228.025 29.0879 228.046L46.9509 231.457C47.0371 231.473 47.0953 231.554 47.0831 231.642L46.4658 236.106C46.4528 236.199 46.3653 236.264 46.273 236.247L34.8398 234.239L44.4119 240.806C44.4892 240.859 44.5069 240.966 44.4509 241.042L41.7675 244.663C41.7151 244.734 41.6166 244.751 41.5435 244.703L26.3969 234.638C26.3028 234.576 26.2967 234.438 26.3765 234.357C27.0324 233.695 27.7198 232.198 28.0076 231.462L28.0075 231.461L28.0153 231.442C28.3252 230.715 28.8817 229.165 28.8766 228.233Z" fill="#E61717"/>
<path d="M700.402 545.164C699.935 546.052 699.818 546.993 699.676 547.16C699.533 547.327 698.248 548.178 697.111 549.126C695.975 550.075 695.683 550.145 695.005 550.328C694.463 550.474 691.91 550.728 690.702 550.836C690.331 550.85 690.123 550.624 690.087 550.382C690.067 549.743 690.031 548.386 690.053 548.069C690.08 547.674 690.178 547.557 690.282 547.463C690.386 547.369 691.691 547.031 691.765 546.996C691.614 546.73 691.37 546.47 690.469 545.939C689.567 545.407 682.505 542.016 682.078 541.791C681.651 541.566 681.358 541.467 681.652 540.634C681.887 539.97 683.048 537.486 683.607 536.312L683.606 536.312C683.607 536.31 683.609 536.307 683.61 536.305C683.611 536.302 683.612 536.3 683.613 536.297L683.614 536.298C684.268 535.174 685.663 532.813 686.079 532.245C686.6 531.532 686.847 531.718 687.274 531.943C687.701 532.168 694.486 536.084 695.434 536.528C696.381 536.972 696.733 537.027 697.038 537.001C697.026 536.92 696.568 535.653 696.587 535.514C696.606 535.374 696.647 535.228 696.958 534.982C697.207 534.785 698.347 534.049 698.886 533.705C699.106 533.598 699.41 533.642 699.608 533.956C700.201 535.014 701.432 537.265 701.618 537.795C701.849 538.458 701.956 538.738 701.815 540.212C701.674 541.685 701.696 543.227 701.639 543.439C701.582 543.651 700.871 544.278 700.402 545.164Z" fill="#D6CEC4"/>
<path d="M43.2585 198.449C43.7248 197.561 43.8418 196.62 43.9841 196.454C44.127 196.286 45.4122 195.435 46.5487 194.487C47.6852 193.538 47.9767 193.468 48.6549 193.285C49.1975 193.139 51.7499 192.885 52.9584 192.777C53.329 192.763 53.5372 192.989 53.5728 193.232C53.5933 193.87 53.6287 195.227 53.607 195.544C53.5798 195.94 53.4821 196.056 53.3779 196.15C53.2737 196.244 51.9689 196.582 51.8953 196.618C52.0458 196.884 52.2905 197.143 53.1916 197.675C54.0928 198.206 61.1556 201.597 61.5822 201.822C62.0087 202.047 62.3019 202.146 62.0078 202.979C61.7734 203.643 60.6121 206.127 60.0537 207.301L60.0544 207.301C60.053 207.304 60.0516 207.306 60.0502 207.308C60.049 207.311 60.0479 207.314 60.0467 207.316L60.0461 207.316C59.3921 208.439 57.9971 210.8 57.5815 211.368C57.0597 212.082 56.8127 211.895 56.3862 211.67C55.9596 211.445 49.1738 207.529 48.2265 207.085C47.2792 206.641 46.9267 206.586 46.6222 206.612C46.6342 206.693 47.0922 207.96 47.0733 208.1C47.0544 208.239 47.0135 208.385 46.702 208.631C46.4527 208.828 45.313 209.564 44.7742 209.908C44.5538 210.016 44.25 209.971 44.0519 209.658C43.4593 208.599 42.2279 206.349 42.0425 205.818C41.8108 205.155 41.7039 204.875 41.8452 203.401C41.9865 201.928 41.9637 200.387 42.0211 200.174C42.0784 199.963 42.7889 199.335 43.2585 198.449Z" fill="#D6CEC4"/>
<path d="M680.294 579.329C680.272 579.44 680.155 579.513 680.05 579.47L663.192 572.649C663.111 572.616 663.07 572.525 663.098 572.442L664.573 568.183C664.604 568.094 664.702 568.048 664.789 568.082L675.613 572.276L667.502 563.972C667.436 563.905 667.44 563.797 667.51 563.734L670.846 560.704C670.911 560.644 671.011 560.647 671.074 560.708L683.972 573.528C684.052 573.608 684.032 573.744 683.938 573.808C683.165 574.33 682.2 575.664 681.774 576.33L681.774 576.331L681.763 576.348C681.318 577.001 680.47 578.413 680.294 579.329Z" fill="#E61717"/>
<path d="M63.3704 164.202C63.3919 164.09 63.5092 164.017 63.614 164.06L80.4719 170.881C80.5533 170.914 80.5945 171.005 80.5656 171.088L79.0913 175.347C79.0605 175.436 78.9622 175.482 78.8748 175.448L68.0508 171.254L76.1621 179.558C76.2276 179.625 76.2242 179.733 76.1546 179.797L72.8178 182.827C72.7526 182.886 72.6526 182.884 72.5904 182.822L59.6918 170.002C59.6116 169.922 59.6325 169.786 59.7264 169.722C60.4987 169.201 61.4641 167.866 61.8897 167.2L61.8897 167.2L61.9011 167.182C62.3466 166.529 63.194 165.117 63.3704 164.202Z" fill="#E61717"/>
<path d="M660.388 605.789C659.757 606.569 659.46 607.469 659.288 607.605C659.115 607.741 657.689 608.326 656.389 609.035C655.09 609.744 654.79 609.756 654.09 609.804C653.529 609.842 650.976 609.594 649.769 609.465C649.403 609.406 649.243 609.144 649.255 608.9C649.359 608.269 649.589 606.931 649.672 606.625C649.775 606.242 649.894 606.147 650.014 606.075C650.135 606.003 651.48 605.925 651.559 605.905C651.464 605.614 651.274 605.312 650.494 604.616C649.713 603.919 643.445 599.219 643.071 598.915C642.696 598.611 642.428 598.457 642.878 597.697C643.237 597.092 644.86 594.881 645.636 593.838L645.635 593.837C645.637 593.835 645.639 593.833 645.641 593.831C645.642 593.829 645.644 593.827 645.646 593.825L645.646 593.825C646.506 592.85 648.334 590.806 648.852 590.329C649.503 589.731 649.709 589.962 650.084 590.266C650.458 590.57 656.352 595.731 657.195 596.351C658.038 596.971 658.373 597.094 658.677 597.127C658.681 597.046 658.478 595.713 658.524 595.58C658.569 595.448 658.638 595.312 658.991 595.131C659.274 594.987 660.535 594.486 661.131 594.254C661.368 594.191 661.657 594.294 661.79 594.64C662.166 595.794 662.936 598.241 663.014 598.797C663.113 599.493 663.163 599.788 662.738 601.206C662.312 602.624 662.035 604.14 661.937 604.337C661.84 604.534 661.021 605.011 660.388 605.789Z" fill="#E61717"/>
<path d="M83.2725 137.829C83.9028 137.049 84.2005 136.149 84.3726 136.013C84.5453 135.877 85.9715 135.292 87.2708 134.583C88.5702 133.874 88.8698 133.862 89.5706 133.814C90.1313 133.776 92.6843 134.024 93.8908 134.153C94.2569 134.212 94.4173 134.474 94.405 134.718C94.3008 135.349 94.0715 136.686 93.9885 136.993C93.8849 137.376 93.7664 137.471 93.6459 137.543C93.5254 137.615 92.1798 137.692 92.1007 137.713C92.1965 138.003 92.3861 138.306 93.1665 139.002C93.947 139.699 100.215 144.399 100.59 144.703C100.964 145.007 101.233 145.161 100.782 145.921C100.423 146.526 98.8004 148.737 98.0242 149.78L98.0249 149.78C98.023 149.782 98.0212 149.785 98.0193 149.787C98.0177 149.789 98.0161 149.791 98.0145 149.793L98.0139 149.793C97.1537 150.768 95.326 152.812 94.8079 153.288C94.1573 153.886 93.9513 153.656 93.5766 153.352C93.202 153.048 87.3079 147.887 86.4651 147.267C85.6222 146.647 85.2873 146.524 84.9836 146.49C84.9795 146.572 85.1822 147.905 85.1366 148.037C85.0909 148.17 85.0223 148.306 84.6689 148.486C84.3861 148.631 83.1248 149.132 82.5295 149.364C82.2924 149.427 82.0031 149.324 81.8697 148.978C81.4945 147.824 80.7245 145.377 80.6459 144.821C80.5476 144.125 80.4973 143.83 80.9226 142.412C81.3479 140.994 81.6255 139.478 81.7231 139.281C81.8205 139.084 82.6395 138.607 83.2725 137.829Z" fill="#E61717"/>
<path d="M634.009 635.429C633.966 635.534 633.837 635.583 633.742 635.521L618.534 625.549C618.461 625.501 618.438 625.404 618.482 625.328L620.757 621.437C620.805 621.356 620.91 621.33 620.989 621.38L630.79 627.601L624.45 617.877C624.399 617.798 624.423 617.693 624.504 617.644L628.366 615.322C628.442 615.276 628.539 615.298 628.588 615.37L638.746 630.455C638.809 630.549 638.762 630.679 638.658 630.723C637.798 631.084 636.592 632.205 636.045 632.776L636.045 632.776L636.03 632.791C635.466 633.345 634.36 634.565 634.009 635.429Z" fill="#D6CEC4"/>
<path d="M109.655 108.191C109.698 108.086 109.827 108.038 109.922 108.1L125.13 118.071C125.203 118.119 125.226 118.216 125.182 118.292L122.907 122.183C122.859 122.264 122.754 122.29 122.675 122.24L112.874 116.02L119.214 125.743C119.265 125.822 119.241 125.927 119.16 125.976L115.298 128.298C115.222 128.344 115.125 128.322 115.076 128.25L104.918 113.165C104.855 113.071 104.902 112.942 105.007 112.897C105.866 112.536 107.072 111.415 107.619 110.844L107.619 110.844L107.634 110.829C108.198 110.275 109.304 109.055 109.655 108.191Z" fill="#D6CEC4"/>
<path d="M609.341 657.468C608.571 658.111 608.104 658.936 607.909 659.036C607.713 659.136 606.2 659.432 604.787 659.875C603.375 660.317 603.079 660.271 602.382 660.181C601.825 660.109 599.369 659.369 598.21 659.008C597.863 658.879 597.756 658.591 597.816 658.353C598.041 657.755 598.526 656.488 598.667 656.203C598.843 655.848 598.978 655.777 599.11 655.73C599.243 655.683 600.577 655.869 600.659 655.864C600.622 655.561 600.494 655.227 599.864 654.392C599.234 653.557 594.001 647.727 593.692 647.356C593.384 646.985 593.151 646.782 593.741 646.124C594.211 645.6 596.232 643.748 597.197 642.875L597.196 642.875C597.198 642.873 597.201 642.871 597.203 642.87C597.205 642.868 597.207 642.866 597.209 642.864L597.209 642.865C598.243 642.076 600.433 640.426 601.034 640.06C601.789 639.6 601.946 639.866 602.254 640.237C602.563 640.608 607.34 646.818 608.046 647.59C608.752 648.361 609.057 648.547 609.348 648.64C609.368 648.56 609.428 647.214 609.499 647.092C609.57 646.971 609.663 646.851 610.045 646.743C610.351 646.656 611.685 646.41 612.314 646.299C612.559 646.283 612.823 646.44 612.886 646.806C613.03 648.011 613.309 650.56 613.278 651.121C613.239 651.823 613.231 652.122 612.538 653.43C611.845 654.738 611.277 656.172 611.143 656.346C611.01 656.52 610.113 656.829 609.341 657.468Z" fill="#E61717"/>
<path d="M134.315 86.1537C135.085 85.5111 135.552 84.6863 135.748 84.5865C135.944 84.4865 137.456 84.1903 138.869 83.7476C140.281 83.3048 140.578 83.3515 141.274 83.4412C141.832 83.513 144.288 84.2528 145.446 84.6138C145.794 84.7429 145.9 85.031 145.84 85.2688C145.615 85.8669 145.13 87.1343 144.989 87.4189C144.813 87.7744 144.678 87.8447 144.546 87.892C144.414 87.9392 143.079 87.753 142.997 87.758C143.035 88.0613 143.162 88.3947 143.792 89.2298C144.422 90.065 149.655 95.8952 149.964 96.2661C150.272 96.6369 150.505 96.8401 149.915 97.498C149.445 98.022 147.424 99.8746 146.459 100.747L146.46 100.747C146.458 100.749 146.456 100.751 146.453 100.752C146.451 100.754 146.449 100.756 146.447 100.758L146.447 100.757C145.413 101.546 143.223 103.196 142.622 103.562C141.867 104.022 141.71 103.756 141.402 103.385C141.094 103.014 136.316 96.8044 135.61 96.0325C134.904 95.2606 134.6 95.0749 134.308 94.9825C134.288 95.062 134.228 96.4083 134.157 96.5298C134.087 96.6512 133.993 96.7708 133.611 96.8792C133.306 96.9659 131.971 97.2116 131.342 97.3236C131.097 97.3388 130.833 97.1817 130.77 96.8163C130.626 95.6116 130.347 93.0618 130.378 92.5007C130.417 91.7993 130.425 91.4996 131.119 90.1916C131.812 88.8837 132.379 87.4504 132.513 87.276C132.647 87.1023 133.543 86.7935 134.315 86.1537Z" fill="#E61717"/>
<path d="M577.699 681.407C577.637 681.502 577.5 681.525 577.42 681.446L564.442 668.706C564.38 668.644 564.376 668.544 564.435 668.478L567.423 665.105C567.486 665.034 567.594 665.029 567.662 665.094L576.065 673.103L571.738 662.331C571.703 662.244 571.748 662.145 571.836 662.113L576.077 660.587C576.16 660.557 576.251 660.597 576.285 660.678L583.313 677.451C583.357 677.555 583.286 677.673 583.175 677.696C582.262 677.883 580.86 678.748 580.212 679.202L580.212 679.202L580.195 679.213C579.534 679.647 578.212 680.629 577.699 681.407Z" fill="#D6CEC4"/>
<path d="M165.965 62.2161C166.027 62.1214 166.164 62.0988 166.244 62.1779L179.222 74.9179C179.284 74.9794 179.288 75.0793 179.229 75.1453L176.241 78.519C176.178 78.5894 176.07 78.5942 176.002 78.5295L167.599 70.521L171.926 81.2925C171.961 81.3795 171.916 81.4783 171.828 81.5102L167.587 83.0369C167.504 83.0668 167.413 83.0267 167.379 82.9458L160.351 66.1729C160.307 66.0688 160.378 65.9506 160.489 65.9277C161.402 65.7401 162.804 64.8755 163.452 64.4219L163.452 64.4217L163.469 64.4101C164.13 63.9764 165.453 62.9948 165.965 62.2161Z" fill="#D6CEC4"/>
<path d="M549.218 698.227C548.337 698.707 547.719 699.426 547.508 699.485C547.296 699.546 545.755 699.542 544.283 699.701C542.811 699.86 542.53 699.757 541.864 699.534C541.331 699.355 539.066 698.151 538 697.572C537.684 697.377 537.636 697.074 537.741 696.852C538.078 696.309 538.8 695.161 538.994 694.909C539.236 694.595 539.382 694.552 539.521 694.531C539.66 694.511 540.933 694.953 541.014 694.964C541.036 694.659 540.976 694.307 540.521 693.366C540.065 692.424 536.066 685.687 535.836 685.263C535.606 684.839 535.416 684.594 536.123 684.064C536.686 683.641 539.03 682.218 540.145 681.55L540.145 681.549C540.147 681.548 540.15 681.547 540.152 681.546C540.155 681.544 540.157 681.543 540.159 681.541L540.16 681.542C541.327 680.969 543.796 679.777 544.457 679.535C545.287 679.23 545.389 679.522 545.62 679.946C545.85 680.37 549.327 687.391 549.87 688.285C550.412 689.18 550.675 689.421 550.943 689.568C550.978 689.494 551.299 688.185 551.392 688.08C551.485 687.975 551.6 687.876 551.995 687.844C552.312 687.818 553.669 687.837 554.308 687.849C554.551 687.882 554.779 688.087 554.77 688.458C554.676 689.668 554.454 692.223 554.314 692.767C554.14 693.448 554.073 693.74 553.139 694.888C552.205 696.036 551.369 697.332 551.204 697.477C551.039 697.621 550.1 697.75 549.218 698.227Z" fill="#E61717"/>
<path d="M194.442 45.399C195.323 44.9185 195.942 44.2003 196.152 44.1405C196.364 44.0805 197.906 44.0843 199.377 43.9249C200.849 43.7655 201.13 43.8688 201.796 44.0924C202.329 44.2713 204.594 45.4749 205.66 46.0544C205.976 46.2487 206.024 46.5519 205.919 46.7736C205.582 47.3165 204.86 48.4653 204.666 48.717C204.424 49.0314 204.278 49.0742 204.139 49.0948C204 49.1154 202.727 48.673 202.646 48.662C202.624 48.9668 202.684 49.3186 203.139 50.2603C203.595 51.2022 207.594 57.9393 207.824 58.363C208.054 58.7868 208.244 59.0315 207.537 59.562C206.974 59.9845 204.631 61.4083 203.515 62.0761L203.515 62.0769C203.513 62.078 203.51 62.0792 203.508 62.0804C203.506 62.0819 203.503 62.0833 203.501 62.0848L203.5 62.0841C202.333 62.6569 199.864 63.8486 199.203 64.0912C198.373 64.3955 198.271 64.1035 198.041 63.6798C197.81 63.256 194.333 56.2355 193.79 55.3409C193.248 54.4464 192.985 54.2049 192.718 54.0577C192.683 54.1318 192.361 55.4406 192.268 55.5459C192.175 55.6513 192.06 55.7504 191.665 55.7824C191.348 55.8081 189.991 55.7893 189.352 55.7767C189.109 55.7441 188.881 55.5386 188.89 55.1679C188.984 53.9582 189.206 51.4029 189.346 50.8585C189.52 50.1781 189.587 49.8858 190.521 48.7376C191.455 47.5896 192.291 46.2941 192.456 46.1491C192.621 46.0047 193.56 45.8762 194.442 45.399Z" fill="#E61717"/>
<path d="M513.518 715.552C513.438 715.632 513.3 715.628 513.236 715.535L502.986 700.513C502.936 700.441 502.953 700.342 503.023 700.289L506.611 697.561C506.686 697.504 506.793 697.52 506.847 697.597L513.531 707.088L511.383 695.68C511.365 695.588 511.428 695.5 511.521 695.486L515.978 694.813C516.065 694.8 516.147 694.857 516.165 694.943L519.795 712.763C519.817 712.874 519.724 712.976 519.611 712.976C518.679 712.983 517.135 713.558 516.412 713.877L516.412 713.877L516.393 713.885C515.66 714.182 514.172 714.888 513.518 715.552Z" fill="#E61717"/>
<path d="M230.139 28.077C230.218 27.9962 230.356 28.0005 230.42 28.0939L240.67 43.1156C240.72 43.1881 240.704 43.2867 240.633 43.34L237.046 46.0677C236.971 46.1246 236.863 46.1082 236.809 46.0316L230.125 36.5411L232.274 47.9486C232.291 48.0407 232.228 48.129 232.135 48.1431L227.678 48.8154C227.591 48.8286 227.509 48.7715 227.492 48.6855L223.862 30.8657C223.839 30.755 223.932 30.653 224.046 30.6522C224.978 30.6458 226.521 30.0704 227.244 29.7516L227.244 29.7514L227.264 29.7434C227.996 29.4466 229.485 28.741 230.139 28.077Z" fill="#E61717"/>
<path d="M482.312 726.507C481.355 726.807 480.609 727.391 480.39 727.409C480.171 727.426 478.659 727.123 477.185 726.993C475.71 726.863 475.455 726.707 474.845 726.358C474.357 726.079 472.37 724.457 471.437 723.681C471.165 723.429 471.176 723.122 471.322 722.925C471.758 722.458 472.691 721.472 472.93 721.263C473.228 721.002 473.38 720.988 473.52 720.995C473.66 721.002 474.823 721.683 474.9 721.71C474.981 721.415 474.991 721.059 474.728 720.046C474.464 719.034 471.852 711.647 471.709 711.187C471.566 710.726 471.428 710.45 472.224 710.067C472.858 709.762 475.434 708.821 476.658 708.383L476.658 708.382C476.661 708.382 476.663 708.381 476.666 708.38C476.669 708.379 476.671 708.379 476.674 708.378L476.674 708.378C477.93 708.044 480.585 707.355 481.28 707.246C482.153 707.109 482.197 707.415 482.34 707.876C482.484 708.336 484.528 715.899 484.886 716.882C485.244 717.865 485.455 718.153 485.689 718.349C485.738 718.284 486.308 717.062 486.419 716.977C486.531 716.892 486.663 716.817 487.057 716.863C487.373 716.899 488.7 717.181 489.324 717.318C489.556 717.397 489.74 717.643 489.659 718.005C489.332 719.174 488.617 721.637 488.374 722.144C488.07 722.777 487.948 723.051 486.808 723.995C485.668 724.94 484.597 726.048 484.406 726.158C484.217 726.267 483.27 726.211 482.312 726.507Z" fill="#E61717"/>
<path d="M261.352 17.1228C262.309 16.8228 263.055 16.2388 263.274 16.2211C263.493 16.2035 265.005 16.5072 266.479 16.6372C267.954 16.7672 268.21 16.9233 268.819 17.2722C269.307 17.5513 271.295 19.1727 272.227 19.9486C272.499 20.2006 272.488 20.5074 272.342 20.7044C271.906 21.1714 270.973 22.1576 270.734 22.3668C270.436 22.6282 270.284 22.6417 270.144 22.6349C270.004 22.6281 268.841 21.9464 268.764 21.9199C268.683 22.2145 268.673 22.5712 268.936 23.5836C269.2 24.596 271.812 31.9825 271.955 32.443C272.098 32.9035 272.237 33.1803 271.44 33.5632C270.806 33.8681 268.23 34.8086 267.006 35.2466L267.006 35.2474C267.003 35.2481 267.001 35.2488 266.998 35.2494C266.995 35.2504 266.993 35.2514 266.99 35.2523L266.99 35.2516C265.734 35.5863 263.079 36.2747 262.384 36.384C261.511 36.5212 261.467 36.2148 261.324 35.7544C261.181 35.2939 259.136 27.7309 258.778 26.7478C258.42 25.7649 258.209 25.4769 257.975 25.2804C257.926 25.3463 257.356 26.5675 257.245 26.6528C257.133 26.7381 257.001 26.8129 256.607 26.7673C256.291 26.7309 254.964 26.4485 254.34 26.3118C254.108 26.2325 253.924 25.9865 254.005 25.6246C254.332 24.4563 255.047 21.993 255.29 21.4863C255.594 20.8529 255.716 20.579 256.856 19.6346C257.996 18.6903 259.067 17.5821 259.258 17.4722C259.448 17.3626 260.394 17.4193 261.352 17.1228Z" fill="#E61717"/>
<path d="M443.927 736.553C443.834 736.617 443.699 736.586 443.655 736.482L436.523 719.753C436.489 719.672 436.524 719.579 436.603 719.54L440.653 717.563C440.738 717.521 440.84 717.558 440.878 717.644L445.588 728.254L445.7 716.646C445.701 716.552 445.78 716.478 445.874 716.482L450.376 716.69C450.464 716.694 450.534 716.766 450.534 716.854L450.627 735.039C450.628 735.152 450.517 735.234 450.405 735.213C449.49 735.038 447.864 735.302 447.092 735.474L447.092 735.474L447.072 735.478C446.295 735.627 444.698 736.029 443.927 736.553Z" fill="#D6CEC4"/>
<path d="M299.737 7.07743C299.83 7.01367 299.965 7.0448 300.009 7.14874L307.141 23.8779C307.175 23.9586 307.14 24.0523 307.061 24.0909L303.011 26.0683C302.926 26.1095 302.824 26.0726 302.786 25.9869L298.076 15.3771L297.964 26.9847C297.963 27.0784 297.884 27.1528 297.79 27.1485L293.288 26.9407C293.2 26.9367 293.13 26.8647 293.13 26.777L293.037 8.59144C293.036 8.47847 293.148 8.39652 293.259 8.41779C294.174 8.59291 295.8 8.32879 296.572 8.15688L296.572 8.15671L296.592 8.15252C297.369 8.00404 298.966 7.6015 299.737 7.07743Z" fill="#E61717"/>
<path d="M411.178 741.226C410.181 741.334 409.335 741.762 409.117 741.737C408.899 741.711 407.475 741.119 406.054 740.705C404.633 740.291 404.413 740.088 403.882 739.627C403.458 739.258 401.824 737.281 401.06 736.338C400.842 736.038 400.914 735.74 401.095 735.575C401.614 735.201 402.72 734.416 402.995 734.257C403.339 734.059 403.49 734.075 403.626 734.109C403.763 734.143 404.77 735.038 404.841 735.079C404.978 734.805 405.057 734.458 404.996 733.413C404.934 732.369 403.81 724.615 403.759 724.136C403.708 723.656 403.626 723.358 404.482 723.137C405.163 722.962 407.873 722.54 409.159 722.349L409.159 722.348C409.161 722.348 409.164 722.348 409.167 722.348C409.17 722.347 409.172 722.347 409.175 722.346L409.175 722.347C410.473 722.263 413.21 722.104 413.914 722.132C414.797 722.168 414.78 722.477 414.831 722.956C414.882 723.436 415.416 731.252 415.576 732.286C415.736 733.32 415.886 733.643 416.078 733.882C416.138 733.827 416.935 732.74 417.061 732.678C417.187 732.616 417.331 732.568 417.709 732.69C418.011 732.787 419.258 733.322 419.844 733.578C420.056 733.7 420.189 733.977 420.039 734.317C419.491 735.399 418.31 737.676 417.973 738.126C417.552 738.688 417.379 738.933 416.077 739.637C414.775 740.342 413.508 741.22 413.3 741.291C413.093 741.362 412.175 741.122 411.178 741.226Z" fill="#E61717"/>
<path d="M332.478 2.40577C333.475 2.29772 334.321 1.87017 334.539 1.89535C334.758 1.92068 336.181 2.51264 337.602 2.92708C339.023 3.34155 339.244 3.5445 339.774 4.00538C340.198 4.37407 341.832 6.35118 342.596 7.29373C342.814 7.59387 342.743 7.89257 342.561 8.05741C342.043 8.43061 340.936 9.21658 340.661 9.37523C340.317 9.57349 340.166 9.55733 340.03 9.52336C339.894 9.48937 338.886 8.59453 338.815 8.5534C338.678 8.82666 338.599 9.17458 338.661 10.2189C338.722 11.2633 339.847 19.0168 339.898 19.4963C339.949 19.9759 340.03 20.2744 339.175 20.4949C338.493 20.6705 335.783 21.0919 334.497 21.2832L334.497 21.2841C334.495 21.2843 334.492 21.2844 334.489 21.2846C334.486 21.285 334.484 21.2854 334.481 21.2859L334.481 21.2851C333.183 21.369 330.446 21.5277 329.743 21.4996C328.86 21.4643 328.877 21.1553 328.825 20.6758C328.774 20.1962 328.24 12.3798 328.08 11.3459C327.92 10.3121 327.77 9.98863 327.579 9.75031C327.518 9.80544 326.721 10.8925 326.595 10.9544C326.469 11.0163 326.325 11.064 325.947 10.9426C325.645 10.8454 324.398 10.3101 323.812 10.0546C323.6 9.93166 323.467 9.65465 323.617 9.31537C324.165 8.23303 325.346 5.95606 325.683 5.5063C326.105 4.94408 326.277 4.69921 327.579 3.99469C328.881 3.29022 330.148 2.41172 330.356 2.34092C330.564 2.27044 331.481 2.51017 332.478 2.40577Z" fill="#E61717"/>
</g>
</svg>
