<svg width="507" height="507" viewBox="0 0 507 507" fill="none" xmlns="http://www.w3.org/2000/svg">
<path d="M253.183 0.293986C254.186 0.29215 255.072 -0.0433797 255.286 0.00471687C255.501 0.0530535 256.854 0.792446 258.223 1.35506C259.592 1.91773 259.79 2.14291 260.268 2.65735C260.651 3.06889 262.066 5.20796 262.726 6.22614C262.911 6.54766 262.809 6.83714 262.611 6.98182C262.055 7.29799 260.872 7.96234 260.582 8.09097C260.219 8.2517 260.07 8.21963 259.938 8.17142C259.806 8.12319 258.899 7.12663 258.833 7.07824C258.668 7.33547 258.553 7.67306 258.503 8.718C258.454 9.76301 258.75 17.592 258.75 18.0743C258.75 18.5566 258.8 18.862 257.926 18.9907C257.229 19.0931 254.49 19.2251 253.191 19.2791V19.28C253.189 19.2799 253.186 19.2797 253.183 19.2796C253.18 19.2797 253.177 19.2799 253.175 19.28V19.2793C251.876 19.2252 249.137 19.0931 248.44 18.9907C247.566 18.862 247.616 18.5566 247.616 18.0743C247.616 17.592 247.912 9.76301 247.863 8.718C247.813 7.67306 247.698 7.33547 247.533 7.07824C247.467 7.12663 246.56 8.12319 246.428 8.17142C246.296 8.21963 246.147 8.2517 245.784 8.09097C245.494 7.96234 244.311 7.29799 243.755 6.98182C243.557 6.83714 243.455 6.54766 243.64 6.22614C244.3 5.20796 245.715 3.06889 246.098 2.65735C246.576 2.14291 246.774 1.91773 248.143 1.35506C249.512 0.792446 250.865 0.0530535 251.08 0.00471687C251.294 -0.0433797 252.18 0.29215 253.183 0.293986Z" fill="#D6CEC4"/>
<path d="M253.184 505.873C252.181 505.875 251.295 506.21 251.081 506.162C250.866 506.114 249.514 505.375 248.145 504.812C246.775 504.249 246.577 504.024 246.099 503.51C245.716 503.098 244.301 500.959 243.641 499.941C243.456 499.619 243.559 499.33 243.757 499.185C244.312 498.869 245.495 498.205 245.786 498.076C246.148 497.915 246.297 497.947 246.429 497.996C246.561 498.044 247.468 499.04 247.534 499.089C247.699 498.832 247.815 498.494 247.864 497.449C247.914 496.404 247.617 488.575 247.617 488.093C247.617 487.61 247.567 487.305 248.442 487.176C249.138 487.074 251.877 486.942 253.176 486.888L253.176 486.887C253.179 486.887 253.181 486.887 253.184 486.887C253.187 486.887 253.19 486.887 253.192 486.887L253.192 486.888C254.492 486.942 257.23 487.074 257.927 487.176C258.801 487.305 258.752 487.61 258.752 488.093C258.752 488.575 258.455 496.404 258.504 497.449C258.554 498.494 258.669 498.832 258.834 499.089C258.9 499.04 259.808 498.044 259.94 497.996C260.071 497.947 260.22 497.915 260.583 498.076C260.873 498.205 262.056 498.869 262.612 499.185C262.81 499.33 262.912 499.619 262.727 499.941C262.067 500.959 260.652 503.098 260.269 503.51C259.791 504.024 259.593 504.249 258.224 504.812C256.855 505.375 255.502 506.114 255.288 506.162C255.074 506.21 254.187 505.875 253.184 505.873Z" fill="#E61717"/>
<path d="M281.204 1.54966C281.312 1.51667 281.432 1.58642 281.443 1.69885L283.277 19.7919C283.286 19.8792 283.225 19.9581 283.138 19.9714L278.683 20.655C278.59 20.6693 278.503 20.6037 278.492 20.5106L277.151 8.98022L273.592 20.0293C273.563 20.1185 273.466 20.166 273.377 20.134L269.14 18.5968C269.057 18.5668 269.013 18.4774 269.038 18.3935L274.357 1.00294C274.39 0.894905 274.521 0.8497 274.621 0.903126C275.443 1.34257 277.073 1.57379 277.861 1.63917L277.861 1.63905L277.882 1.64107C278.668 1.73024 280.312 1.82079 281.204 1.54966Z" fill="#E61717"/>
<path d="M225.155 504.618C225.047 504.651 224.928 504.581 224.916 504.469L223.082 486.376C223.073 486.289 223.135 486.21 223.222 486.196L227.677 485.513C227.77 485.498 227.856 485.564 227.867 485.657L229.209 497.188L232.768 486.138C232.796 486.049 232.894 486.002 232.982 486.034L237.219 487.571C237.302 487.601 237.347 487.69 237.321 487.774L232.002 505.165C231.969 505.273 231.839 505.318 231.739 505.265C230.917 504.825 229.286 504.594 228.498 504.529L228.498 504.529L228.477 504.527C227.692 504.437 226.047 504.347 225.155 504.618Z" fill="#E61717"/>
<path d="M302.356 5.12323C303.34 5.31653 304.275 5.15989 304.475 5.24867C304.676 5.33783 305.859 6.32624 307.093 7.14446C308.326 7.96273 308.477 8.22211 308.846 8.81978C309.141 9.29791 310.113 11.6715 310.562 12.7986C310.681 13.1499 310.524 13.4139 310.302 13.5174C309.696 13.7194 308.406 14.1409 308.096 14.2106C307.709 14.2976 307.569 14.2373 307.449 14.1643C307.329 14.0914 306.633 12.9373 306.578 12.877C306.366 13.0972 306.187 13.4059 305.935 14.4213C305.683 15.4367 304.452 23.1738 304.358 23.6469C304.264 24.12 304.253 24.4292 303.37 24.3853C302.667 24.3503 299.955 23.947 298.67 23.7473L298.67 23.7481C298.668 23.7474 298.665 23.7468 298.662 23.7461C298.659 23.7457 298.657 23.7453 298.654 23.7449L298.654 23.7442C297.39 23.4385 294.73 22.776 294.066 22.54C293.234 22.2437 293.342 21.9538 293.436 21.4807C293.529 21.0076 295.344 13.386 295.498 12.3513C295.653 11.3167 295.606 10.9631 295.494 10.6787C295.42 10.7133 294.336 11.5143 294.197 11.536C294.058 11.5576 293.906 11.5602 293.582 11.3319C293.322 11.1493 292.29 10.2674 291.807 9.84923C291.641 9.6688 291.597 9.36494 291.841 9.0855C292.686 8.21515 294.491 6.39232 294.946 6.06309C295.516 5.65155 295.753 5.46916 297.206 5.18361C298.658 4.89808 300.129 4.43596 300.349 4.4303C300.568 4.42473 301.372 4.92632 302.356 5.12323Z" fill="#D6CEC4"/>
<path d="M204 501.043C203.016 500.85 202.081 501.007 201.88 500.918C201.679 500.829 200.496 499.84 199.263 499.022C198.029 498.204 197.879 497.944 197.51 497.347C197.215 496.869 196.242 494.495 195.793 493.368C195.674 493.017 195.831 492.753 196.053 492.649C196.66 492.447 197.95 492.026 198.259 491.956C198.647 491.869 198.786 491.929 198.906 492.002C199.026 492.075 199.722 493.229 199.777 493.289C199.989 493.069 200.168 492.761 200.42 491.745C200.672 490.73 201.904 482.993 201.998 482.52C202.092 482.047 202.102 481.737 202.985 481.781C203.688 481.816 206.4 482.22 207.685 482.419L207.685 482.418C207.688 482.419 207.691 482.42 207.693 482.42C207.696 482.421 207.699 482.421 207.701 482.422L207.701 482.422C208.965 482.728 211.626 483.391 212.289 483.626C213.122 483.923 213.014 484.213 212.92 484.686C212.826 485.159 211.012 492.781 210.857 493.815C210.702 494.85 210.75 495.203 210.862 495.488C210.936 495.453 212.02 494.652 212.159 494.631C212.297 494.609 212.449 494.606 212.774 494.835C213.034 495.017 214.065 495.899 214.548 496.317C214.714 496.498 214.758 496.802 214.515 497.081C213.669 497.951 211.865 499.774 211.409 500.103C210.84 500.515 210.602 500.697 209.15 500.983C207.697 501.268 206.227 501.731 206.007 501.736C205.788 501.742 204.983 501.24 204 501.043Z" fill="#D6CEC4"/>
<path d="M329.596 11.8063C329.709 11.7951 329.812 11.8867 329.802 11.9992L328.081 30.1033C328.073 30.1907 327.997 30.2562 327.909 30.2523L323.406 30.0562C323.312 30.052 323.24 29.9709 323.248 29.8775L324.175 18.3064L318.534 28.452C318.489 28.5339 318.384 28.5616 318.303 28.513L314.447 26.1808C314.371 26.1353 314.345 26.0389 314.386 25.9616L322.987 9.93807C323.04 9.83852 323.177 9.81956 323.264 9.89142C323.985 10.4824 325.54 11.0264 326.3 11.2438L326.3 11.2437L326.32 11.2497C327.073 11.49 328.669 11.8988 329.596 11.8063Z" fill="#D6CEC4"/>
<path d="M176.748 494.359C176.635 494.37 176.531 494.279 176.542 494.166L178.263 476.062C178.271 475.975 178.347 475.909 178.435 475.913L182.937 476.109C183.031 476.113 183.103 476.195 183.096 476.288L182.169 487.859L187.809 477.714C187.855 477.632 187.96 477.604 188.04 477.653L191.897 479.985C191.973 480.03 191.999 480.127 191.958 480.204L183.357 496.227C183.304 496.327 183.167 496.346 183.079 496.274C182.358 495.683 180.804 495.139 180.044 494.922L180.044 494.922L180.024 494.916C179.271 494.675 177.675 494.267 176.748 494.359Z" fill="#D6CEC4"/>
<path d="M349.642 19.4259C350.57 19.807 351.517 19.8352 351.696 19.9613C351.876 20.0879 352.844 21.2875 353.895 22.3301C354.946 23.3727 355.043 23.6564 355.289 24.3144C355.485 24.8409 355.977 27.3583 356.199 28.5512C356.247 28.9189 356.042 29.1474 355.804 29.2056C355.17 29.2859 353.822 29.4483 353.505 29.4564C353.108 29.4665 352.983 29.3802 352.879 29.2853C352.776 29.1903 352.318 27.9229 352.275 27.853C352.024 28.0278 351.789 28.2958 351.344 29.2427C350.9 30.1897 348.186 37.5394 348.002 37.9852C347.818 38.431 347.747 38.7322 346.89 38.5175C346.207 38.3463 343.625 37.423 342.404 36.9772L342.404 36.978C342.401 36.9768 342.399 36.9756 342.396 36.9745C342.393 36.9735 342.391 36.9726 342.388 36.9717L342.389 36.971C341.208 36.4253 338.727 35.2578 338.123 34.8974C337.364 34.4448 337.526 34.1814 337.71 33.7356C337.894 33.2898 341.156 26.1667 341.509 25.1819C341.863 24.1972 341.885 23.8411 341.83 23.5404C341.751 23.5598 340.532 24.1347 340.392 24.1289C340.251 24.1232 340.102 24.0961 339.828 23.8091C339.608 23.5794 338.768 22.5137 338.375 22.0095C338.248 21.8002 338.264 21.4936 338.557 21.2669C339.556 20.5777 341.68 19.1407 342.191 18.9064C342.83 18.6135 343.098 18.4809 344.579 18.4833C346.059 18.4858 347.591 18.3186 347.808 18.3558C348.024 18.393 348.716 19.0415 349.642 19.4259Z" fill="#D6CEC4"/>
<path d="M156.69 486.737C155.762 486.356 154.815 486.328 154.636 486.202C154.456 486.075 153.488 484.876 152.437 483.833C151.386 482.79 151.289 482.507 151.043 481.849C150.847 481.322 150.355 478.805 150.133 477.612C150.085 477.244 150.29 477.016 150.529 476.957C151.162 476.877 152.51 476.715 152.827 476.707C153.224 476.697 153.349 476.783 153.453 476.878C153.556 476.973 154.014 478.24 154.057 478.31C154.308 478.135 154.543 477.867 154.988 476.92C155.432 475.973 158.146 468.624 158.33 468.178C158.514 467.732 158.585 467.431 159.442 467.646C160.125 467.817 162.707 468.74 163.928 469.186L163.929 469.185C163.931 469.186 163.933 469.187 163.936 469.189C163.939 469.19 163.941 469.19 163.944 469.191L163.944 469.192C165.124 469.738 167.605 470.905 168.209 471.266C168.968 471.718 168.806 471.982 168.622 472.427C168.438 472.873 165.176 479.996 164.823 480.981C164.469 481.966 164.447 482.322 164.502 482.623C164.581 482.603 165.8 482.028 165.941 482.034C166.081 482.04 166.23 482.067 166.504 482.354C166.724 482.584 167.564 483.649 167.957 484.154C168.084 484.363 168.068 484.669 167.775 484.896C166.776 485.585 164.652 487.022 164.141 487.257C163.502 487.55 163.234 487.682 161.753 487.68C160.273 487.677 158.741 487.844 158.524 487.807C158.308 487.77 157.616 487.122 156.69 486.737Z" fill="#D6CEC4"/>
<path d="M375.065 31.2807C375.178 31.2916 375.261 31.4016 375.229 31.5099L370.019 48.9333C369.994 49.0174 369.907 49.067 369.821 49.046L365.443 47.9777C365.351 47.9553 365.297 47.8618 365.322 47.7716L368.483 36.6019L360.976 45.4564C360.916 45.5279 360.807 45.5346 360.738 45.4712L357.408 42.4333C357.343 42.374 357.336 42.2743 357.392 42.2065L368.945 28.1623C369.017 28.075 369.155 28.083 369.227 28.1706C369.819 28.8905 371.238 29.7265 371.941 30.0877L371.941 30.0876L371.959 30.0974C372.652 30.4796 374.137 31.1909 375.065 31.2807Z" fill="#E61717"/>
<path d="M131.263 474.88C131.15 474.869 131.067 474.759 131.099 474.651L136.309 457.227C136.334 457.143 136.421 457.093 136.507 457.114L140.885 458.183C140.977 458.205 141.031 458.299 141.006 458.389L137.846 469.558L145.352 460.704C145.413 460.633 145.521 460.626 145.59 460.689L148.92 463.727C148.985 463.786 148.992 463.886 148.937 463.954L137.383 477.998C137.311 478.085 137.174 478.077 137.102 477.99C136.509 477.27 135.091 476.434 134.387 476.073L134.387 476.073L134.369 476.063C133.677 475.681 132.191 474.969 131.263 474.88Z" fill="#E61717"/>
<path d="M393.244 42.6548C394.08 43.2091 395.004 43.4211 395.155 43.5797C395.307 43.7388 396.023 45.1039 396.851 46.3309C397.679 47.558 397.719 47.8552 397.832 48.5485C397.923 49.1031 397.916 51.6681 397.901 52.8813C397.876 53.2514 397.631 53.4356 397.386 53.4463C396.748 53.4018 395.395 53.299 395.082 53.2451C394.691 53.1779 394.585 53.0688 394.502 52.9556C394.419 52.8424 394.216 51.51 394.188 51.4332C393.908 51.5558 393.625 51.7729 393.004 52.6153C392.384 53.4577 388.292 60.139 388.025 60.5405C387.758 60.9419 387.63 61.2236 386.831 60.8462C386.194 60.5455 383.841 59.1376 382.73 58.4627L382.73 58.4634C382.727 58.4618 382.725 58.4601 382.723 58.4585C382.721 58.457 382.718 58.4556 382.716 58.4542L382.716 58.4536C381.665 57.6887 379.458 56.0609 378.935 55.5897C378.279 54.9981 378.489 54.7713 378.757 54.3699C379.024 53.9684 383.61 47.616 384.147 46.7187C384.685 45.8215 384.776 45.4765 384.782 45.171C384.7 45.1746 383.392 45.5014 383.256 45.4684C383.119 45.4354 382.978 45.3798 382.765 45.0449C382.594 44.777 381.978 43.5682 381.69 42.9973C381.606 42.7671 381.681 42.4694 382.013 42.3042C383.127 41.8223 385.49 40.8262 386.037 40.6957C386.72 40.5326 387.01 40.4548 388.461 40.7452C389.913 41.0356 391.448 41.1697 391.654 41.2484C391.858 41.3269 392.41 42.0975 393.244 42.6548Z" fill="#D6CEC4"/>
<path d="M113.068 463.501C112.232 462.947 111.308 462.735 111.157 462.576C111.005 462.417 110.289 461.052 109.461 459.825C108.633 458.598 108.593 458.301 108.48 457.607C108.39 457.053 108.397 454.488 108.412 453.274C108.436 452.904 108.682 452.72 108.927 452.709C109.564 452.754 110.918 452.857 111.231 452.911C111.622 452.978 111.728 453.087 111.811 453.2C111.894 453.313 112.097 454.646 112.125 454.723C112.405 454.6 112.688 454.383 113.308 453.541C113.928 452.698 118.02 446.017 118.287 445.615C118.555 445.214 118.683 444.932 119.482 445.31C120.118 445.61 122.471 447.018 123.582 447.693L123.583 447.692C123.585 447.694 123.587 447.696 123.59 447.697C123.592 447.699 123.594 447.7 123.597 447.702L123.596 447.702C124.648 448.467 126.854 450.095 127.377 450.566C128.034 451.158 127.823 451.384 127.556 451.786C127.289 452.187 122.703 458.54 122.165 459.437C121.627 460.334 121.536 460.679 121.531 460.985C121.613 460.981 122.92 460.654 123.057 460.687C123.193 460.72 123.335 460.776 123.548 461.111C123.718 461.379 124.335 462.588 124.622 463.159C124.707 463.389 124.631 463.686 124.299 463.852C123.186 464.333 120.822 465.33 120.276 465.46C119.592 465.623 119.303 465.701 117.851 465.411C116.4 465.12 114.864 464.986 114.659 464.907C114.454 464.829 113.902 464.058 113.068 463.501Z" fill="#D6CEC4"/>
<path d="M415.874 59.2287C415.983 59.2613 416.043 59.3855 415.991 59.4854L407.491 75.5624C407.45 75.64 407.355 75.6717 407.275 75.6345L403.188 73.7348C403.102 73.6951 403.067 73.5926 403.109 73.5091L408.383 63.1677L399.297 70.3927C399.224 70.451 399.116 70.4365 399.06 70.3609L396.385 66.7333C396.333 66.6624 396.345 66.5632 396.413 66.5076L410.478 54.9793C410.565 54.9077 410.699 54.9423 410.753 55.0422C411.193 55.8635 412.422 56.9597 413.042 57.4508L413.042 57.4508L413.058 57.4638C413.663 57.9734 414.982 58.9601 415.874 59.2287Z" fill="#E61717"/>
<path d="M90.4344 446.922C90.3258 446.89 90.2652 446.765 90.318 446.665L98.8181 430.588C98.8591 430.511 98.9539 430.479 99.0338 430.516L103.121 432.416C103.206 432.456 103.242 432.558 103.199 432.642L97.9261 442.983L107.012 435.758C107.085 435.7 107.193 435.714 107.248 435.79L109.923 439.418C109.976 439.488 109.963 439.588 109.896 439.643L95.8307 451.172C95.7433 451.243 95.6097 451.209 95.556 451.109C95.1153 450.287 93.8861 449.191 93.2664 448.7L93.2662 448.7L93.2502 448.687C92.6457 448.177 91.327 447.191 90.4344 446.922Z" fill="#E61717"/>
<path d="M431.499 73.9222C432.211 74.6284 433.076 75.0162 433.194 75.2011C433.312 75.3868 433.749 76.8651 434.322 78.2298C434.896 79.5945 434.877 79.8937 434.853 80.5958C434.834 81.1574 434.328 83.672 434.077 84.8591C433.981 85.2174 433.705 85.3503 433.462 85.3132C432.846 85.1455 431.538 84.7814 431.242 84.6677C430.871 84.5256 430.789 84.3981 430.729 84.2708C430.67 84.1436 430.73 82.7972 430.717 82.7164C430.419 82.7822 430.099 82.94 429.326 83.6456C428.554 84.3513 423.241 90.109 422.901 90.4508C422.56 90.7926 422.38 91.044 421.67 90.5184C421.104 90.0996 419.07 88.2608 418.111 87.3826L418.11 87.3832C418.108 87.3812 418.106 87.3791 418.105 87.377C418.103 87.3752 418.1 87.3733 418.098 87.3715L418.099 87.371C417.216 86.4162 415.369 84.3902 414.947 83.8262C414.419 83.1182 414.669 82.9367 415.009 82.5949C415.35 82.2531 421.084 76.9142 421.786 76.1388C422.488 75.3633 422.644 75.0426 422.709 74.7439C422.628 74.7315 421.282 74.7977 421.154 74.7388C421.027 74.6799 420.899 74.5979 420.755 74.2279C420.64 73.9319 420.27 72.6263 420.1 72.0104C420.062 71.7682 420.193 71.4908 420.551 71.3933C421.737 71.1373 424.249 70.62 424.811 70.5984C425.513 70.5713 425.812 70.5514 427.179 71.1186C428.546 71.6858 430.027 72.1161 430.213 72.2332C430.398 72.35 430.79 73.2133 431.499 73.9222Z" fill="#D6CEC4"/>
<path d="M74.8053 432.222C74.0933 431.516 73.2283 431.128 73.1106 430.943C72.9926 430.758 72.5557 429.279 71.9824 427.915C71.409 426.55 71.4277 426.251 71.4516 425.549C71.4708 424.987 71.9768 422.473 72.2275 421.285C72.3234 420.927 72.6002 420.794 72.8425 420.831C73.4591 420.999 74.7665 421.363 75.063 421.477C75.4335 421.619 75.5162 421.746 75.5756 421.874C75.6351 422.001 75.575 423.347 75.5876 423.428C75.8861 423.362 76.206 423.204 76.9784 422.499C77.7507 421.793 83.0639 416.036 83.4042 415.694C83.7445 415.352 83.9248 415.101 84.6352 415.626C85.201 416.045 87.2352 417.884 88.1939 418.762L88.1945 418.761C88.1964 418.763 88.1982 418.765 88.2001 418.767C88.2021 418.769 88.2042 418.771 88.2063 418.773L88.2057 418.774C89.0882 419.728 90.936 421.754 91.3573 422.318C91.8861 423.026 91.6356 423.208 91.2953 423.55C90.955 423.891 85.2211 429.23 84.5189 430.006C83.8168 430.781 83.6605 431.102 83.5959 431.401C83.6769 431.413 85.0229 431.347 85.1504 431.406C85.278 431.465 85.4058 431.547 85.5496 431.917C85.6646 432.213 86.0345 433.518 86.205 434.134C86.2432 434.376 86.1115 434.654 85.7537 434.751C84.5677 435.007 82.0554 435.524 81.4939 435.546C80.7919 435.573 80.4928 435.593 79.1255 435.026C77.7583 434.459 76.2781 434.028 76.0919 433.911C75.9064 433.794 75.5148 432.931 74.8053 432.222Z" fill="#D6CEC4"/>
<path d="M450.47 94.5818C450.57 94.635 450.605 94.7686 450.534 94.8563L439.069 108.973C439.014 109.041 438.914 109.053 438.843 109.001L435.204 106.343C435.128 106.287 435.113 106.18 435.171 106.106L442.355 96.9882L432.038 102.308C431.954 102.351 431.852 102.315 431.812 102.23L429.893 98.1517C429.856 98.072 429.887 97.977 429.965 97.9357L446.004 89.3639C446.103 89.3106 446.227 89.3706 446.261 89.479C446.533 90.3704 447.526 91.6847 448.038 92.287L448.038 92.287L448.051 92.3029C448.545 92.9204 449.647 94.1448 450.47 94.5818Z" fill="#D6CEC4"/>
<path d="M55.823 411.557C55.7228 411.504 55.6875 411.37 55.7587 411.282L67.224 397.166C67.2793 397.098 67.3785 397.085 67.4496 397.137L71.089 399.796C71.165 399.851 71.1799 399.959 71.1219 400.032L63.9378 409.15L74.2554 403.831C74.3387 403.788 74.4413 403.823 74.4814 403.908L76.3995 407.987C76.437 408.067 76.4057 408.162 76.3283 408.203L60.2895 416.775C60.1898 416.828 60.0655 416.768 60.0323 416.66C59.7598 415.768 58.7673 414.454 58.255 413.852L58.2548 413.852L58.2417 413.836C57.7478 413.218 56.6463 411.994 55.823 411.557Z" fill="#D6CEC4"/>
<path d="M462.935 112.034C463.496 112.866 464.269 113.414 464.348 113.619C464.428 113.824 464.569 115.359 464.866 116.809C465.163 118.259 465.086 118.549 464.926 119.233C464.798 119.78 463.813 122.148 463.336 123.264C463.172 123.597 462.875 123.673 462.644 123.59C462.072 123.305 460.86 122.694 460.592 122.525C460.256 122.313 460.2 122.172 460.166 122.036C460.133 121.899 460.453 120.59 460.457 120.508C460.151 120.515 459.807 120.608 458.912 121.149C458.017 121.691 451.685 126.305 451.285 126.574C450.885 126.844 450.659 127.055 450.064 126.401C449.591 125.88 447.953 123.681 447.184 122.633L447.183 122.634C447.181 122.631 447.18 122.629 447.179 122.626C447.177 122.624 447.175 122.622 447.174 122.62L447.174 122.619C446.494 121.511 445.076 119.164 444.772 118.529C444.391 117.732 444.673 117.603 445.073 117.334C445.473 117.064 452.136 112.943 452.976 112.319C453.815 111.695 454.031 111.411 454.152 111.13C454.075 111.103 452.742 110.906 452.629 110.823C452.515 110.74 452.406 110.635 452.336 110.244C452.281 109.931 452.172 108.579 452.125 107.942C452.135 107.697 452.318 107.45 452.688 107.424C453.901 107.404 456.466 107.385 457.021 107.473C457.715 107.583 458.012 107.622 459.243 108.444C460.473 109.266 461.842 109.976 462.002 110.128C462.161 110.278 462.377 111.201 462.935 112.034Z" fill="#E61717"/>
<path d="M43.3502 394.097C42.7892 393.266 42.0161 392.717 41.9367 392.513C41.8571 392.308 41.7161 390.773 41.4192 389.323C41.1223 387.873 41.1988 387.583 41.3589 386.899C41.4869 386.352 42.4725 383.984 42.9493 382.868C43.1131 382.535 43.4104 382.459 43.6409 382.542C44.2131 382.827 45.4247 383.438 45.6934 383.607C46.0292 383.819 46.0855 383.96 46.1191 384.096C46.1526 384.233 45.8318 385.542 45.8284 385.623C46.134 385.617 46.4785 385.524 47.3734 384.982C48.2683 384.44 54.6 379.826 55.0003 379.557C55.4006 379.288 55.6264 379.077 56.2209 379.731C56.6945 380.251 58.332 382.451 59.1016 383.499L59.1024 383.498C59.1038 383.501 59.1052 383.503 59.1066 383.505C59.1083 383.508 59.1099 383.51 59.1116 383.512L59.111 383.512C59.7909 384.621 61.2092 386.967 61.5128 387.603C61.8937 388.4 61.6126 388.529 61.2124 388.798C60.8121 389.067 54.1491 393.189 53.3095 393.813C52.4699 394.437 52.2541 394.721 52.1327 395.001C52.2097 395.029 53.5429 395.226 53.6566 395.309C53.7702 395.391 53.8796 395.497 53.9487 395.888C54.0039 396.2 54.1127 397.553 54.1602 398.19C54.1505 398.435 53.9674 398.682 53.5975 398.708C52.3843 398.728 49.8194 398.747 49.2644 398.659C48.5705 398.549 48.2732 398.51 47.0424 397.688C45.8117 396.866 44.4435 396.155 44.2836 396.004C44.1244 395.854 43.9082 394.931 43.3502 394.097Z" fill="#E61717"/>
<path d="M477.525 135.99C477.613 136.062 477.621 136.2 477.534 136.272L463.542 147.888C463.474 147.944 463.375 147.937 463.315 147.872L460.262 144.557C460.199 144.487 460.205 144.379 460.276 144.318L469.097 136.772L457.941 139.983C457.851 140.008 457.758 139.954 457.735 139.863L456.647 135.489C456.625 135.403 456.675 135.316 456.759 135.291L474.159 130.003C474.267 129.97 474.377 130.053 474.388 130.166C474.482 131.093 475.2 132.576 475.586 133.266L475.586 133.266L475.596 133.284C475.96 133.986 476.802 135.401 477.525 135.99Z" fill="#E61717"/>
<path d="M28.7527 370.134C28.6647 370.062 28.6561 369.924 28.743 369.852L42.7355 358.236C42.803 358.18 42.9027 358.187 42.9624 358.252L46.0151 361.567C46.0787 361.637 46.0725 361.745 46.0013 361.806L37.1806 369.352L48.3359 366.142C48.426 366.116 48.5198 366.17 48.5426 366.261L49.6305 370.635C49.6519 370.721 49.6027 370.808 49.5187 370.833L32.1187 376.121C32.0106 376.154 31.9003 376.071 31.8889 375.958C31.795 375.031 31.0772 373.548 30.6918 372.858L30.6916 372.858L30.6818 372.84C30.3175 372.138 29.4752 370.723 28.7527 370.134Z" fill="#E61717"/>
<path d="M486.358 155.534C486.746 156.459 487.398 157.147 487.436 157.363C487.474 157.58 487.314 159.113 487.323 160.593C487.332 162.073 487.201 162.343 486.911 162.982C486.679 163.494 485.251 165.625 484.567 166.627C484.341 166.922 484.035 166.939 483.825 166.812C483.319 166.422 482.249 165.586 482.019 165.368C481.73 165.095 481.703 164.946 481.696 164.805C481.69 164.665 482.259 163.444 482.279 163.364C481.978 163.311 481.622 163.335 480.638 163.692C479.655 164.05 472.547 167.344 472.102 167.53C471.657 167.716 471.394 167.879 470.938 167.122C470.575 166.519 469.397 164.043 468.846 162.866L468.845 162.866C468.844 162.864 468.843 162.861 468.842 162.858C468.841 162.856 468.84 162.853 468.838 162.851L468.839 162.851C468.388 161.631 467.453 159.053 467.279 158.371C467.06 157.515 467.361 157.443 467.806 157.257C468.251 157.071 475.589 154.324 476.534 153.876C477.479 153.427 477.745 153.19 477.919 152.939C477.849 152.896 476.58 152.444 476.484 152.341C476.389 152.238 476.302 152.113 476.31 151.716C476.317 151.399 476.473 150.051 476.551 149.416C476.608 149.178 476.835 148.972 477.203 149.018C478.397 149.234 480.917 149.715 481.444 149.909C482.103 150.152 482.387 150.248 483.435 151.294C484.482 152.34 485.686 153.303 485.813 153.482C485.94 153.661 485.973 154.608 486.358 155.534Z" fill="#E61717"/>
<path d="M19.9195 350.582C19.5309 349.657 18.8793 348.969 18.8411 348.753C18.8029 348.536 18.9633 347.003 18.9542 345.523C18.9451 344.043 19.0765 343.773 19.3666 343.133C19.5986 342.621 21.026 340.49 21.7108 339.489C21.9362 339.194 22.2427 339.177 22.4526 339.304C22.9585 339.694 24.0279 340.53 24.2586 340.748C24.5469 341.021 24.5746 341.17 24.581 341.31C24.5874 341.451 24.018 342.672 23.9988 342.752C24.2998 342.805 24.6558 342.781 25.639 342.424C26.6222 342.066 33.7306 338.772 34.1756 338.586C34.6205 338.4 34.8832 338.236 35.3392 338.993C35.7023 339.596 36.8808 342.072 37.4318 343.25L37.4326 343.25C37.4335 343.252 37.4344 343.255 37.4354 343.257C37.4366 343.26 37.4378 343.262 37.439 343.265L37.4383 343.265C37.8896 344.484 38.8242 347.062 38.9985 347.744C39.217 348.601 38.9161 348.673 38.4712 348.859C38.0262 349.045 30.6888 351.791 29.7438 352.24C28.7988 352.689 28.5319 352.926 28.3582 353.177C28.4284 353.219 29.6978 353.672 29.7932 353.775C29.8886 353.878 29.9754 354.003 29.9671 354.4C29.9605 354.717 29.804 356.065 29.7266 356.699C29.6695 356.938 29.4419 357.144 29.074 357.098C27.8801 356.882 25.3605 356.401 24.8332 356.207C24.174 355.964 23.8899 355.868 22.8426 354.822C21.7954 353.776 20.5914 352.813 20.464 352.634C20.3371 352.455 20.3047 351.508 19.9195 350.582Z" fill="#E61717"/>
<path d="M496.009 181.871C496.082 181.958 496.063 182.095 495.964 182.149L479.979 190.821C479.902 190.863 479.806 190.836 479.76 190.761L477.41 186.915C477.361 186.835 477.389 186.73 477.47 186.684L487.59 180.998L476.024 181.977C475.93 181.985 475.849 181.913 475.844 181.819L475.628 177.317C475.624 177.229 475.689 177.153 475.776 177.145L493.872 175.343C493.985 175.332 494.077 175.435 494.066 175.547C493.978 176.475 494.394 178.069 494.637 178.821L494.637 178.821L494.644 178.841C494.864 179.6 495.415 181.152 496.009 181.871Z" fill="#D6CEC4"/>
<path d="M10.2601 324.236C10.1878 324.149 10.2061 324.012 10.3055 323.958L26.2904 315.286C26.3675 315.244 26.464 315.27 26.5099 315.345L28.8592 319.191C28.9082 319.272 28.881 319.377 28.7993 319.423L18.6791 325.109L30.2459 324.13C30.3392 324.122 30.4207 324.193 30.4253 324.287L30.6416 328.789C30.6458 328.877 30.5807 328.953 30.4934 328.962L12.3971 330.764C12.2847 330.775 12.1926 330.672 12.2033 330.559C12.2916 329.631 11.8759 328.038 11.6322 327.285L11.632 327.285L11.626 327.265C11.4051 326.506 10.8543 324.954 10.2601 324.236Z" fill="#D6CEC4"/>
<path d="M500.868 202.758C501.069 203.741 501.574 204.543 501.57 204.762C501.565 204.982 501.11 206.455 500.831 207.908C500.551 209.362 500.37 209.601 499.961 210.172C499.634 210.629 497.819 212.442 496.953 213.291C496.674 213.536 496.37 213.493 496.189 213.328C495.769 212.847 494.882 211.819 494.699 211.56C494.469 211.236 494.471 211.084 494.492 210.946C494.513 210.807 495.309 209.719 495.343 209.645C495.058 209.534 494.704 209.489 493.671 209.648C492.637 209.807 485.023 211.656 484.55 211.751C484.078 211.847 483.788 211.957 483.488 211.126C483.249 210.463 482.575 207.805 482.264 206.543L482.263 206.543C482.263 206.541 482.262 206.538 482.262 206.535C482.261 206.532 482.26 206.53 482.26 206.527L482.26 206.527C482.055 205.243 481.64 202.533 481.601 201.83C481.554 200.947 481.863 200.935 482.335 200.839C482.808 200.743 490.54 199.477 491.554 199.22C492.568 198.964 492.876 198.784 493.095 198.571C493.035 198.516 491.878 197.825 491.804 197.705C491.731 197.585 491.67 197.446 491.755 197.059C491.823 196.748 492.239 195.457 492.438 194.85C492.541 194.627 492.804 194.469 493.156 194.586C494.285 195.03 496.663 195.992 497.142 196.285C497.742 196.651 498.002 196.801 498.825 198.03C499.649 199.26 500.643 200.439 500.733 200.639C500.823 200.839 500.67 201.775 500.868 202.758Z" fill="#D6CEC4"/>
<path d="M5.39385 303.338C5.19255 302.355 4.68735 301.553 4.69195 301.334C4.69662 301.114 5.15216 299.642 5.43117 298.188C5.71022 296.734 5.89153 296.495 6.30053 295.924C6.62772 295.467 8.44246 293.655 9.30901 292.805C9.58735 292.56 9.89141 292.603 10.0726 292.768C10.4929 293.25 11.3794 294.277 11.5632 294.536C11.7929 294.86 11.791 295.012 11.77 295.151C11.749 295.289 10.9528 296.377 10.9185 296.451C11.2035 296.562 11.5573 296.608 12.5912 296.448C13.6251 296.289 21.2386 294.441 21.7113 294.345C22.1839 294.249 22.4734 294.14 22.7734 294.971C23.0123 295.633 23.6865 298.291 23.9979 299.553L23.9988 299.553C23.9992 299.556 23.9996 299.558 24 299.561C24.0007 299.564 24.0014 299.566 24.0021 299.569L24.0013 299.569C24.2068 300.853 24.6221 303.564 24.6603 304.266C24.7081 305.149 24.399 305.161 23.9263 305.257C23.4537 305.353 15.7221 306.619 14.7078 306.876C13.6936 307.132 13.3857 307.313 13.1665 307.525C13.227 307.581 14.3842 308.271 14.4577 308.391C14.5312 308.511 14.5921 308.65 14.5068 309.038C14.4385 309.348 14.0228 310.64 13.8235 311.247C13.721 311.469 13.4577 311.627 13.1059 311.51C11.9768 311.066 9.59887 310.104 9.11942 309.811C8.52009 309.445 8.26005 309.296 7.43627 308.066C6.61254 306.836 5.61885 305.657 5.52878 305.457C5.4391 305.257 5.59156 304.321 5.39385 303.338Z" fill="#D6CEC4"/>
<path d="M505.209 230.469C505.263 230.569 505.219 230.7 505.111 230.733L487.744 236.13C487.66 236.156 487.571 236.112 487.54 236.029L485.984 231.799C485.952 231.711 485.999 231.613 486.088 231.584L497.121 227.975L485.585 226.685C485.492 226.675 485.426 226.589 485.439 226.496L486.103 222.038C486.116 221.951 486.195 221.889 486.282 221.897L504.383 223.651C504.495 223.661 504.566 223.78 504.533 223.889C504.266 224.782 504.364 226.426 504.457 227.211L504.457 227.211L504.459 227.232C504.528 228.02 504.766 229.649 505.209 230.469Z" fill="#E61717"/>
<path d="M1.04855 275.617C0.994631 275.517 1.03926 275.386 1.14717 275.353L18.5137 269.956C18.5975 269.93 18.6871 269.975 18.7175 270.057L20.2736 274.287C20.3061 274.375 20.259 274.473 20.1699 274.502L9.13689 278.111L20.6731 279.401C20.7663 279.411 20.8322 279.497 20.8184 279.59L20.1548 284.048C20.1419 284.136 20.0632 284.197 19.9758 284.189L1.87479 282.436C1.76233 282.425 1.69209 282.306 1.72455 282.197C1.99168 281.304 1.89391 279.66 1.80122 278.875L1.80107 278.875L1.79895 278.854C1.73005 278.067 1.49167 276.437 1.04855 275.617Z" fill="#E61717"/>
<path d="M505.913 251.904C505.92 252.907 506.259 253.792 506.212 254.006C506.165 254.221 505.431 255.577 504.875 256.948C504.318 258.32 504.094 258.519 503.582 259C503.172 259.384 501.039 260.809 500.024 261.474C499.703 261.66 499.413 261.559 499.268 261.361C498.949 260.808 498.279 259.627 498.149 259.337C497.987 258.975 498.019 258.827 498.066 258.694C498.114 258.562 499.106 257.651 499.154 257.584C498.896 257.42 498.558 257.307 497.513 257.262C496.468 257.217 488.64 257.549 488.158 257.551C487.676 257.553 487.371 257.604 487.238 256.73C487.132 256.034 486.988 253.296 486.928 251.997L486.927 251.997C486.928 251.994 486.928 251.992 486.928 251.989C486.928 251.986 486.928 251.983 486.927 251.981L486.928 251.981C486.976 250.681 487.096 247.942 487.196 247.245C487.32 246.37 487.626 246.418 488.108 246.416C488.59 246.414 496.421 246.676 497.465 246.622C498.51 246.567 498.847 246.45 499.104 246.284C499.055 246.218 498.054 245.316 498.006 245.184C497.957 245.052 497.924 244.904 498.083 244.54C498.211 244.249 498.87 243.063 499.183 242.506C499.327 242.308 499.616 242.204 499.938 242.387C500.96 243.043 503.105 244.449 503.518 244.83C504.035 245.306 504.261 245.502 504.83 246.869C505.398 248.236 506.144 249.585 506.193 249.799C506.242 250.013 505.911 250.901 505.913 251.904Z" fill="#E61717"/>
<path d="M0.336764 254.172C0.330438 253.169 -0.00905775 252.284 0.0380809 252.07C0.0854562 251.855 0.818786 250.499 1.37527 249.127C1.9318 247.756 2.15609 247.557 2.66838 247.076C3.07821 246.692 5.21092 245.267 6.22613 244.602C6.54683 244.416 6.83676 244.517 6.98233 244.714C7.30098 245.268 7.97062 246.449 8.10054 246.738C8.26291 247.1 8.2315 247.249 8.18387 247.381C8.13624 247.513 7.14375 248.425 7.09566 248.491C7.35362 248.655 7.69172 248.769 8.73688 248.814C9.7821 248.859 17.6097 248.527 18.092 248.525C18.5742 248.523 18.8794 248.472 19.012 249.345C19.1175 250.041 19.2618 252.78 19.3217 254.078L19.3226 254.078C19.3224 254.081 19.3223 254.084 19.3222 254.087C19.3223 254.09 19.3225 254.092 19.3226 254.095L19.3219 254.095C19.2737 255.394 19.1538 258.134 19.0545 258.831C18.9297 259.706 18.6241 259.657 18.1418 259.66C17.6595 259.662 9.82929 259.4 8.78452 259.454C7.7398 259.508 7.40273 259.625 7.14624 259.791C7.19493 259.857 8.19554 260.76 8.24436 260.892C8.29316 261.023 8.3259 261.172 8.16679 261.535C8.03947 261.826 7.38042 263.013 7.06674 263.569C6.92294 263.768 6.63393 263.872 6.31158 263.688C5.29046 263.033 3.14507 261.627 2.73182 261.246C2.21525 260.77 1.98918 260.573 1.42039 259.207C0.851651 257.84 0.106211 256.491 0.0569136 256.276C0.00786006 256.063 0.339417 255.175 0.336764 254.172Z" fill="#D6CEC4"/>
<path d="M504.785 279.93C504.818 280.038 504.749 280.158 504.637 280.17L486.552 282.085C486.465 282.094 486.386 282.033 486.372 281.946L485.668 277.494C485.654 277.401 485.719 277.315 485.812 277.303L497.336 275.91L486.271 272.401C486.182 272.372 486.134 272.275 486.166 272.186L487.684 267.943C487.713 267.86 487.803 267.814 487.887 267.84L505.301 273.081C505.409 273.113 505.455 273.244 505.402 273.344C504.966 274.168 504.742 275.799 504.68 276.588L504.68 276.588L504.679 276.608C504.593 277.394 504.51 279.039 504.785 279.93Z" fill="#D6CEC4"/>
<path d="M1.4691 226.135C1.43562 226.027 1.50484 225.907 1.61721 225.895L19.7018 223.98C19.7891 223.971 19.8683 224.032 19.882 224.119L20.5856 228.571C20.6002 228.664 20.535 228.75 20.442 228.762L8.91773 230.155L19.9826 233.664C20.072 233.693 20.1199 233.79 20.0883 233.879L18.5701 238.122C18.5404 238.205 18.4512 238.251 18.3672 238.225L0.953039 232.984C0.844852 232.952 0.799064 232.821 0.852042 232.721C1.2878 231.897 1.51172 230.266 1.57357 229.477L1.57345 229.477L1.57538 229.456C1.66103 228.67 1.74422 227.026 1.4691 226.135Z" fill="#D6CEC4"/>
<path d="M501.308 301.093C501.119 302.078 501.28 303.012 501.192 303.213C501.104 303.414 500.121 304.602 499.308 305.839C498.495 307.076 498.237 307.227 497.641 307.599C497.164 307.897 494.795 308.88 493.669 309.334C493.319 309.454 493.054 309.299 492.95 309.077C492.745 308.471 492.318 307.183 492.246 306.874C492.158 306.487 492.217 306.347 492.29 306.227C492.362 306.107 493.513 305.405 493.573 305.35C493.352 305.139 493.043 304.961 492.026 304.714C491.01 304.467 483.267 303.269 482.793 303.178C482.32 303.086 482.011 303.077 482.051 302.194C482.083 301.491 482.474 298.777 482.668 297.491L482.667 297.491C482.667 297.488 482.668 297.485 482.669 297.483C482.669 297.48 482.67 297.477 482.67 297.475L482.671 297.475C482.971 296.21 483.621 293.546 483.854 292.882C484.147 292.048 484.437 292.154 484.911 292.246C485.384 292.338 493.014 294.118 494.049 294.268C495.085 294.418 495.438 294.369 495.722 294.256C495.687 294.182 494.881 293.102 494.859 292.963C494.837 292.824 494.833 292.672 495.06 292.347C495.242 292.086 496.119 291.051 496.535 290.566C496.715 290.399 497.018 290.353 497.299 290.596C498.173 291.437 500.004 293.234 500.335 293.688C500.749 294.255 500.933 294.492 501.225 295.943C501.517 297.394 501.985 298.863 501.992 299.083C501.999 299.302 501.501 300.109 501.308 301.093Z" fill="#D6CEC4"/>
<path d="M4.94978 204.962C5.13867 203.977 4.97785 203.043 5.06573 202.842C5.154 202.64 6.1371 201.453 6.94978 200.216C7.76253 198.979 8.02123 198.827 8.61725 198.455C9.09404 198.158 11.4632 197.175 12.5883 196.721C12.9391 196.601 13.2038 196.756 13.3083 196.978C13.5131 197.583 13.9403 198.871 14.0113 199.181C14.1001 199.568 14.0404 199.707 13.968 199.828C13.8956 199.948 12.7447 200.649 12.6846 200.705C12.9058 200.916 13.2153 201.093 14.2317 201.341C15.2482 201.588 22.9908 202.785 23.4643 202.877C23.9378 202.969 24.2471 202.978 24.2072 203.861C24.1753 204.564 23.7841 207.278 23.5901 208.564L23.591 208.564C23.5903 208.567 23.5897 208.569 23.589 208.572C23.5886 208.575 23.5882 208.577 23.5878 208.58L23.5871 208.58C23.2871 209.845 22.6365 212.509 22.4035 213.173C22.111 214.007 21.8205 213.9 21.3471 213.809C20.8736 213.717 13.2439 211.937 12.2085 211.787C11.1732 211.637 10.8198 211.686 10.5359 211.799C10.5709 211.873 11.3767 212.953 11.399 213.092C11.4212 213.231 11.4245 213.382 11.1977 213.708C11.0162 213.969 10.139 215.004 9.72296 215.489C9.54328 215.656 9.23962 215.701 8.95909 215.459C8.08496 214.617 6.25407 212.821 5.92281 212.367C5.50872 211.8 5.32527 211.563 5.03322 210.111C4.74119 208.66 4.27249 207.192 4.26584 206.972C4.25929 206.753 4.75728 205.946 4.94978 204.962Z" fill="#D6CEC4"/>
<path d="M494.748 328.364C494.76 328.477 494.668 328.581 494.556 328.571L476.444 326.931C476.357 326.923 476.291 326.848 476.294 326.76L476.47 322.256C476.474 322.162 476.555 322.09 476.648 322.097L488.224 322.972L478.053 317.377C477.971 317.332 477.943 317.227 477.991 317.147L480.306 313.279C480.351 313.204 480.447 313.177 480.525 313.218L496.586 321.746C496.686 321.799 496.706 321.936 496.634 322.024C496.047 322.748 495.51 324.304 495.296 325.066L495.296 325.066L495.29 325.086C495.053 325.84 494.651 327.437 494.748 328.364Z" fill="#E61717"/>
<path d="M11.51 177.68C11.4982 177.567 11.5894 177.463 11.7019 177.474L29.8136 179.113C29.901 179.121 29.9668 179.197 29.9633 179.285L29.7874 183.788C29.7837 183.882 29.7029 183.955 29.6094 183.947L18.0343 183.072L28.2051 188.667C28.2872 188.712 28.3153 188.817 28.267 188.898L25.9522 192.765C25.907 192.841 25.8107 192.868 25.7332 192.827L9.67136 184.298C9.57157 184.245 9.552 184.108 9.62347 184.02C10.2112 183.297 10.7483 181.74 10.9623 180.979L10.9622 180.979L10.9681 180.959C11.205 180.204 11.6066 178.607 11.51 177.68Z" fill="#E61717"/>
<path d="M487.217 348.445C486.841 349.375 486.817 350.322 486.691 350.502C486.566 350.683 485.37 351.656 484.332 352.711C483.295 353.767 483.011 353.865 482.354 354.114C481.829 354.313 479.314 354.816 478.122 355.043C477.754 355.092 477.525 354.888 477.466 354.65C477.382 354.017 477.214 352.67 477.204 352.353C477.193 351.956 477.278 351.831 477.373 351.727C477.467 351.623 478.733 351.159 478.802 351.116C478.626 350.866 478.357 350.632 477.408 350.191C476.459 349.751 469.098 347.07 468.651 346.888C468.204 346.706 467.903 346.637 468.114 345.779C468.282 345.095 469.194 342.509 469.634 341.286L469.633 341.285C469.634 341.283 469.636 341.28 469.637 341.278C469.638 341.275 469.639 341.273 469.639 341.27L469.64 341.27C470.181 340.088 471.337 337.602 471.695 336.995C472.144 336.234 472.408 336.395 472.855 336.577C473.301 336.76 480.439 339.99 481.425 340.339C482.411 340.687 482.768 340.708 483.068 340.652C483.048 340.573 482.468 339.356 482.473 339.216C482.478 339.076 482.505 338.926 482.79 338.651C483.019 338.43 484.081 337.585 484.584 337.19C484.792 337.062 485.099 337.076 485.327 337.369C486.021 338.364 487.467 340.482 487.704 340.992C487.999 341.629 488.133 341.898 488.137 343.378C488.142 344.858 488.316 346.39 488.279 346.607C488.243 346.823 487.598 347.517 487.217 348.445Z" fill="#D6CEC4"/>
<path d="M19.0442 157.589C19.4211 156.659 19.4451 155.712 19.5704 155.532C19.6962 155.351 20.8915 154.378 21.9293 153.322C22.9672 152.267 23.2504 152.169 23.9074 151.92C24.433 151.721 26.9481 151.218 28.1401 150.991C28.5075 150.941 28.7369 151.145 28.7962 151.383C28.8793 152.017 29.0478 153.363 29.0573 153.681C29.0692 154.078 28.9834 154.203 28.889 154.307C28.7945 154.411 27.5292 154.875 27.4594 154.918C27.6353 155.168 27.9044 155.402 28.8533 155.842C29.8023 156.283 37.164 158.963 37.6106 159.145C38.0572 159.327 38.3587 159.397 38.1479 160.255C37.9798 160.939 37.0681 163.525 36.6277 164.748L36.6285 164.748C36.6274 164.751 36.6262 164.753 36.625 164.756C36.6241 164.758 36.6232 164.761 36.6223 164.764L36.6216 164.763C36.0812 165.946 34.9248 168.432 34.5671 169.038C34.1179 169.799 33.8538 169.638 33.4072 169.456C32.9606 169.274 25.8229 166.044 24.8366 165.695C23.8502 165.346 23.494 165.326 23.1936 165.382C23.2134 165.461 23.7938 166.677 23.7886 166.818C23.7834 166.958 23.7571 167.108 23.4713 167.383C23.2425 167.603 22.1806 168.448 21.6782 168.843C21.4695 168.972 21.1628 168.957 20.9348 168.665C20.2411 167.67 18.7947 165.551 18.558 165.042C18.2623 164.404 18.1284 164.136 18.1243 162.656C18.1201 161.176 17.9461 159.644 17.9823 159.427C18.0185 159.211 18.6639 158.517 19.0442 157.589Z" fill="#E61717"/>
<path d="M475.476 373.919C475.465 374.032 475.356 374.116 475.247 374.084L457.801 368.952C457.717 368.927 457.667 368.841 457.687 368.755L458.736 364.372C458.758 364.28 458.851 364.225 458.941 364.25L470.125 367.361L461.237 359.894C461.165 359.833 461.158 359.725 461.221 359.655L464.244 356.312C464.303 356.247 464.403 356.239 464.471 356.295L478.567 367.785C478.654 367.856 478.647 367.994 478.56 368.067C477.842 368.662 477.013 370.085 476.655 370.79L476.655 370.79L476.645 370.808C476.266 371.502 475.561 372.991 475.476 373.919Z" fill="#E61717"/>
<path d="M30.7859 132.105C30.7964 131.992 30.906 131.908 31.0144 131.939L48.461 137.071C48.5452 137.096 48.5951 137.183 48.5746 137.268L47.5259 141.652C47.5039 141.743 47.4106 141.798 47.3203 141.773L36.1366 138.663L45.0246 146.13C45.0963 146.19 45.1035 146.298 45.0405 146.368L42.0176 149.711C41.9585 149.776 41.8588 149.784 41.7908 149.729L27.695 138.238C27.6074 138.167 27.6148 138.029 27.702 137.957C28.4193 137.361 29.2489 135.939 29.607 135.234L29.6069 135.233L29.6165 135.215C29.9957 134.521 30.7003 133.033 30.7859 132.105Z" fill="#D6CEC4"/>
<path d="M464.183 392.152C463.632 392.99 463.424 393.915 463.266 394.067C463.108 394.219 461.746 394.942 460.523 395.775C459.299 396.608 459.002 396.65 458.31 396.766C457.755 396.859 455.19 396.863 453.977 396.854C453.607 396.831 453.422 396.586 453.41 396.341C453.452 395.703 453.548 394.35 453.601 394.037C453.666 393.645 453.775 393.539 453.888 393.455C454 393.372 455.332 393.163 455.409 393.134C455.285 392.855 455.066 392.573 454.221 391.956C453.376 391.34 446.676 387.278 446.274 387.013C445.871 386.747 445.589 386.62 445.963 385.82C446.261 385.182 447.658 382.823 448.328 381.708L448.327 381.708C448.329 381.706 448.33 381.703 448.332 381.701C448.333 381.699 448.335 381.696 448.336 381.694L448.337 381.694C449.097 380.64 450.715 378.426 451.184 377.901C451.773 377.241 452 377.451 452.403 377.716C452.806 377.982 459.178 382.539 460.078 383.073C460.978 383.607 461.323 383.696 461.629 383.7C461.625 383.618 461.292 382.312 461.324 382.176C461.357 382.039 461.412 381.897 461.746 381.683C462.013 381.511 463.219 380.889 463.789 380.599C464.018 380.514 464.316 380.588 464.483 380.919C464.97 382.03 465.977 384.389 466.109 384.935C466.276 385.618 466.355 385.907 466.071 387.36C465.787 388.813 465.66 390.349 465.582 390.555C465.504 390.76 464.736 391.315 464.183 392.152Z" fill="#D6CEC4"/>
<path d="M42.083 113.862C42.6335 113.024 42.8413 112.099 42.9992 111.947C43.1577 111.794 44.5195 111.072 45.7429 110.239C46.9663 109.405 47.2632 109.364 47.956 109.248C48.5102 109.155 51.0752 109.151 52.2885 109.16C52.6586 109.183 52.844 109.428 52.8558 109.673C52.8141 110.31 52.7174 111.664 52.6649 111.977C52.5994 112.368 52.4909 112.475 52.378 112.558C52.2652 112.642 50.9337 112.851 50.857 112.879C50.9809 113.159 51.1992 113.441 52.0444 114.057C52.8896 114.674 59.5891 118.736 59.9918 119.001C60.3944 119.267 60.6767 119.393 60.3029 120.194C60.005 120.832 58.6077 123.191 57.9377 124.305L57.9385 124.306C57.9368 124.308 57.9352 124.31 57.9335 124.313C57.9321 124.315 57.9307 124.317 57.9294 124.32L57.9287 124.319C57.1686 125.374 55.5506 127.588 55.0818 128.113C54.4931 128.772 54.2654 128.563 53.8627 128.297C53.4601 128.032 47.0872 123.475 46.1876 122.941C45.2879 122.407 44.9425 122.317 44.637 122.314C44.641 122.395 44.9736 123.701 44.9412 123.838C44.9088 123.975 44.8539 124.116 44.52 124.331C44.2527 124.502 43.0468 125.125 42.4771 125.414C42.2474 125.5 41.9493 125.426 41.7826 125.095C41.2958 123.983 40.2891 121.624 40.1561 121.078C39.99 120.396 39.9109 120.106 40.1948 118.654C40.4787 117.201 40.6059 115.665 40.6837 115.459C40.7613 115.254 41.5294 114.698 42.083 113.862Z" fill="#E61717"/>
<path d="M447.711 414.854C447.679 414.963 447.555 415.024 447.455 414.972L431.34 406.544C431.262 406.503 431.23 406.408 431.267 406.328L433.148 402.233C433.187 402.147 433.29 402.111 433.373 402.154L443.738 407.38L436.473 398.327C436.414 398.254 436.428 398.146 436.504 398.09L440.119 395.399C440.19 395.346 440.289 395.358 440.345 395.426L451.936 409.439C452.008 409.526 451.974 409.66 451.874 409.714C451.055 410.158 449.964 411.392 449.476 412.014L449.476 412.014L449.463 412.031C448.956 412.637 447.975 413.96 447.711 414.854Z" fill="#E61717"/>
<path d="M58.5586 91.1497C58.5908 91.0409 58.7146 90.9797 58.8148 91.0321L74.9297 99.4601C75.0074 99.5008 75.0396 99.5954 75.0028 99.6755L73.1214 103.771C73.082 103.856 72.9797 103.892 72.8961 103.85L62.5311 98.6236L69.7967 107.677C69.8554 107.75 69.8414 107.857 69.766 107.914L66.1504 110.605C66.0798 110.657 65.9805 110.646 65.9245 110.578L54.3334 96.5649C54.2614 96.4779 54.2954 96.3441 54.3951 96.29C55.2144 95.8456 56.305 94.6115 56.7934 93.9896L56.7934 93.9894L56.8064 93.9734C57.3133 93.3665 58.294 92.0435 58.5586 91.1497Z" fill="#D6CEC4"/>
<path d="M433.087 430.541C432.383 431.257 432 432.123 431.815 432.242C431.63 432.361 430.154 432.804 428.792 433.384C427.429 433.963 427.13 433.946 426.428 433.925C425.866 433.908 423.349 433.414 422.161 433.168C421.803 433.074 421.668 432.798 421.704 432.555C421.869 431.938 422.228 430.629 422.34 430.332C422.48 429.961 422.608 429.877 422.735 429.817C422.861 429.757 424.208 429.811 424.289 429.798C424.222 429.5 424.063 429.181 423.353 428.412C422.644 427.643 416.863 422.355 416.52 422.017C416.176 421.678 415.924 421.499 416.447 420.786C416.863 420.218 418.692 418.176 419.566 417.213L419.566 417.213C419.568 417.211 419.57 417.209 419.572 417.207C419.574 417.205 419.576 417.203 419.577 417.201L419.578 417.201C420.529 416.315 422.546 414.458 423.108 414.034C423.814 413.502 423.997 413.752 424.34 414.09C424.683 414.429 430.048 420.139 430.827 420.838C431.605 421.537 431.927 421.691 432.225 421.755C432.237 421.674 432.165 420.328 432.224 420.2C432.282 420.072 432.363 419.944 432.733 419.799C433.028 419.682 434.332 419.307 434.947 419.133C435.189 419.094 435.467 419.224 435.566 419.582C435.828 420.767 436.356 423.277 436.38 423.838C436.411 424.54 436.432 424.839 435.871 426.209C435.31 427.578 434.886 429.061 434.77 429.247C434.654 429.433 433.792 429.829 433.087 430.541Z" fill="#E61717"/>
<path d="M73.1869 75.4527C73.89 74.7375 74.2738 73.8708 74.4582 73.7523C74.6434 73.6335 76.1197 73.19 77.4818 72.6105C78.844 72.0311 79.1432 72.0484 79.8454 72.0692C80.4071 72.0858 82.924 72.5806 84.1122 72.8259C84.4709 72.9202 84.605 73.1964 84.569 73.4389C84.404 74.0563 84.0458 75.3653 83.9334 75.6623C83.793 76.0335 83.6659 76.1167 83.5389 76.1767C83.4119 76.2367 82.0653 76.1827 81.9845 76.1957C82.0517 76.4938 82.2109 76.8131 82.92 77.5822C83.6291 78.3514 89.4105 83.6388 89.7538 83.9775C90.0972 84.3162 90.3493 84.4955 89.8269 85.2082C89.4107 85.7759 87.581 87.8182 86.7071 88.7809L86.7077 88.7815C86.7057 88.7834 86.7036 88.7853 86.7016 88.7871C86.6998 88.7892 86.6979 88.7913 86.6961 88.7933L86.6956 88.7928C85.7447 89.6796 83.727 91.5364 83.1649 91.9602C82.4593 92.4922 82.2767 92.2424 81.9334 91.9037C81.5901 91.565 76.2256 85.855 75.4469 85.1563C74.6683 84.4576 74.3469 84.3028 74.048 84.2395C74.036 84.3206 74.1082 85.6663 74.0498 85.7941C73.9915 85.9219 73.91 86.0501 73.5407 86.1955C73.2453 86.3119 71.9413 86.6875 71.3262 86.8608C71.0841 86.9001 70.8062 86.7697 70.7071 86.4123C70.4458 85.2275 69.9172 82.7175 69.8931 82.1561C69.8629 81.4542 69.8416 81.1552 70.4026 79.7854C70.9637 78.4157 71.3874 76.9335 71.5037 76.7468C71.6197 76.5608 72.4812 76.1653 73.1869 75.4527Z" fill="#E61717"/>
<path d="M412.509 449.606C412.456 449.707 412.323 449.743 412.235 449.672L398.067 438.27C397.999 438.215 397.986 438.116 398.037 438.044L400.68 434.393C400.735 434.317 400.842 434.301 400.916 434.359L410.066 441.502L404.701 431.209C404.657 431.125 404.692 431.023 404.777 430.982L408.847 429.046C408.926 429.008 409.021 429.039 409.063 429.116L417.707 445.116C417.76 445.216 417.701 445.34 417.593 445.374C416.703 445.651 415.393 446.649 414.793 447.164L414.793 447.164L414.777 447.177C414.162 447.674 412.942 448.781 412.509 449.606Z" fill="#D6CEC4"/>
<path d="M93.7646 56.3794C93.8174 56.279 93.9508 56.2431 94.0388 56.3139L108.206 67.7159C108.275 67.7709 108.288 67.87 108.236 67.9414L105.594 71.5927C105.539 71.6688 105.431 71.6843 105.357 71.6266L96.2073 64.4834L101.573 74.7771C101.616 74.8602 101.582 74.9629 101.497 75.0034L97.4266 76.9397C97.3471 76.9776 97.252 76.9468 97.2102 76.8695L88.5667 60.8692C88.513 60.7698 88.5724 60.6452 88.6807 60.6115C89.5709 60.335 90.8807 59.3367 91.4807 58.8217L91.4807 58.8215L91.4966 58.8082C92.1119 58.3116 93.3313 57.2047 93.7646 56.3794Z" fill="#D6CEC4"/>
<path d="M395.113 462.149C394.284 462.713 393.739 463.489 393.535 463.569C393.33 463.65 391.796 463.798 390.347 464.101C388.898 464.404 388.608 464.329 387.923 464.172C387.375 464.047 385.003 463.072 383.885 462.6C383.552 462.438 383.474 462.141 383.556 461.91C383.838 461.336 384.444 460.122 384.612 459.852C384.822 459.516 384.963 459.459 385.099 459.425C385.235 459.39 386.546 459.705 386.628 459.708C386.62 459.403 386.526 459.059 385.98 458.166C385.434 457.274 380.791 450.963 380.521 450.564C380.25 450.165 380.037 449.94 380.688 449.342C381.207 448.867 383.399 447.219 384.444 446.445L384.443 446.444C384.445 446.443 384.448 446.441 384.45 446.44C384.452 446.438 384.455 446.437 384.457 446.435L384.457 446.435C385.562 445.751 387.903 444.322 388.537 444.015C389.332 443.631 389.463 443.911 389.734 444.31C390.004 444.709 394.156 451.354 394.783 452.191C395.411 453.028 395.696 453.242 395.977 453.362C396.005 453.285 396.196 451.951 396.278 451.837C396.36 451.723 396.465 451.613 396.855 451.542C397.168 451.486 398.52 451.371 399.157 451.321C399.402 451.329 399.649 451.511 399.677 451.881C399.703 453.094 399.733 455.659 399.648 456.214C399.541 456.909 399.503 457.206 398.687 458.44C397.87 459.675 397.166 461.046 397.015 461.207C396.865 461.367 395.943 461.587 395.113 462.149Z" fill="#D6CEC4"/>
<path d="M111.169 43.8289C111.997 43.2641 112.543 42.4886 112.747 42.4083C112.951 42.3278 114.486 42.1799 115.934 41.8765C117.383 41.5731 117.674 41.6483 118.358 41.8053C118.906 41.9309 121.278 42.9058 122.396 43.3777C122.73 43.54 122.808 43.837 122.725 44.0678C122.443 44.6413 121.837 45.8556 121.669 46.1251C121.459 46.4618 121.318 46.5187 121.182 46.5529C121.046 46.5871 119.735 46.2721 119.654 46.2691C119.662 46.5746 119.756 46.9188 120.302 47.8112C120.847 48.7036 125.49 55.0147 125.761 55.4137C126.032 55.8128 126.244 56.0377 125.593 56.6351C125.074 57.111 122.882 58.7584 121.838 59.5327L121.838 59.5334C121.836 59.5348 121.833 59.5362 121.831 59.5377C121.829 59.5393 121.827 59.541 121.824 59.5427L121.824 59.5421C120.719 60.2269 118.378 61.6557 117.745 61.9621C116.949 62.3467 116.818 62.0661 116.548 61.6671C116.277 61.268 112.126 54.6236 111.498 53.7867C110.87 52.9499 110.585 52.7355 110.304 52.6153C110.276 52.6925 110.085 54.0265 110.003 54.1405C109.921 54.2545 109.816 54.3644 109.426 54.4352C109.113 54.4919 107.761 54.6067 107.124 54.657C106.879 54.6485 106.632 54.4664 106.604 54.0967C106.578 52.8836 106.548 50.3188 106.634 49.7634C106.741 49.069 106.778 48.7716 107.595 47.5371C108.412 46.3027 109.115 44.9313 109.266 44.7708C109.416 44.6109 110.338 44.3906 111.169 43.8289Z" fill="#D6CEC4"/>
<path d="M371.224 476.846C371.152 476.934 371.015 476.943 370.942 476.857L359.263 462.916C359.207 462.849 359.213 462.749 359.278 462.689L362.58 459.622C362.649 459.558 362.757 459.564 362.819 459.635L370.404 468.421L367.144 457.281C367.117 457.191 367.171 457.097 367.263 457.073L371.632 455.966C371.717 455.944 371.804 455.993 371.83 456.077L377.196 473.453C377.229 473.561 377.147 473.671 377.034 473.683C376.107 473.782 374.628 474.506 373.939 474.894L373.939 474.895L373.921 474.904C373.221 475.272 371.809 476.121 371.224 476.846Z" fill="#D6CEC4"/>
<path d="M135.065 29.123C135.137 29.0348 135.275 29.0255 135.347 29.1122L147.026 43.0524C147.082 43.1197 147.076 43.2195 147.011 43.2794L143.709 46.3469C143.64 46.4109 143.532 46.4052 143.47 46.3342L135.885 37.5474L139.145 48.6882C139.172 48.7782 139.118 48.8723 139.026 48.8954L134.658 50.003C134.572 50.0247 134.485 49.9759 134.459 49.892L129.093 32.5159C129.06 32.4079 129.143 32.2973 129.255 32.2853C130.182 32.1872 131.661 31.4628 132.35 31.0744L132.35 31.0742L132.368 31.0643C133.068 30.6968 134.48 29.8482 135.065 29.123Z" fill="#D6CEC4"/>
<path d="M351.715 485.764C350.793 486.157 350.107 486.811 349.891 486.85C349.675 486.89 348.141 486.736 346.661 486.752C345.181 486.768 344.911 486.637 344.27 486.35C343.757 486.12 341.619 484.703 340.614 484.022C340.319 483.798 340.3 483.492 340.426 483.281C340.814 482.774 341.645 481.7 341.862 481.469C342.134 481.179 342.283 481.151 342.423 481.144C342.563 481.137 343.788 481.701 343.867 481.72C343.919 481.418 343.894 481.063 343.532 480.081C343.17 479.099 339.844 472.006 339.656 471.562C339.468 471.118 339.303 470.856 340.058 470.396C340.659 470.03 343.13 468.841 344.305 468.285L344.305 468.284C344.307 468.283 344.31 468.282 344.313 468.281C344.315 468.28 344.318 468.279 344.32 468.277L344.32 468.278C345.538 467.821 348.111 466.875 348.793 466.698C349.648 466.475 349.721 466.776 349.909 467.22C350.097 467.664 352.877 474.989 353.33 475.932C353.783 476.875 354.021 477.141 354.273 477.314C354.315 477.243 354.762 475.972 354.865 475.876C354.967 475.78 355.091 475.693 355.488 475.699C355.806 475.704 357.154 475.855 357.789 475.929C358.028 475.986 358.235 476.212 358.19 476.58C357.98 477.775 357.51 480.297 357.318 480.825C357.078 481.485 356.984 481.77 355.942 482.822C354.901 483.874 353.944 485.082 353.765 485.21C353.587 485.338 352.64 485.375 351.715 485.764Z" fill="#E61717"/>
<path d="M154.578 20.1975C155.5 19.8048 156.186 19.1501 156.402 19.111C156.618 19.0719 158.152 19.2253 159.632 19.2096C161.112 19.1939 161.382 19.3241 162.023 19.6113C162.536 19.841 164.674 21.2589 165.678 21.9392C165.974 22.1632 165.993 22.4697 165.867 22.6801C165.479 23.1878 164.648 24.261 164.431 24.4926C164.159 24.7821 164.01 24.8105 163.87 24.8175C163.729 24.8245 162.505 24.2606 162.426 24.2418C162.374 24.543 162.399 24.8989 162.761 25.8804C163.123 26.862 166.449 33.9557 166.637 34.3998C166.825 34.8439 166.99 35.1058 166.235 35.5652C165.634 35.9311 163.163 37.1206 161.988 37.6768L161.988 37.6776C161.985 37.6786 161.983 37.6795 161.98 37.6805C161.978 37.6817 161.975 37.6829 161.973 37.6841L161.973 37.6834C160.755 38.1402 158.182 39.0864 157.5 39.2636C156.645 39.486 156.572 39.1855 156.384 38.7414C156.195 38.2972 153.416 30.9722 152.963 30.0292C152.51 29.0862 152.272 28.8204 152.02 28.6478C151.978 28.7182 151.531 29.9896 151.428 30.0854C151.326 30.1813 151.202 30.2687 150.805 30.2622C150.487 30.257 149.139 30.1066 148.504 30.032C148.265 29.9759 148.058 29.7493 148.103 29.3811C148.313 28.1863 148.783 25.6646 148.975 25.1364C149.215 24.4761 149.309 24.1916 150.351 23.1396C151.392 22.0877 152.349 20.8795 152.528 20.7513C152.706 20.6236 153.653 20.5869 154.578 20.1975Z" fill="#E61717"/>
<path d="M325.423 495.533C325.336 495.605 325.199 495.588 325.144 495.489L316.401 479.543C316.359 479.466 316.384 479.369 316.459 479.323L320.295 476.956C320.375 476.907 320.48 476.934 320.527 477.015L326.258 487.11L325.227 475.548C325.219 475.454 325.29 475.373 325.384 475.368L329.885 475.131C329.973 475.126 330.049 475.191 330.058 475.279L331.941 493.367C331.953 493.479 331.85 493.571 331.737 493.561C330.809 493.477 329.217 493.9 328.466 494.147L328.466 494.147L328.446 494.153C327.688 494.378 326.138 494.935 325.423 495.533Z" fill="#D6CEC4"/>
<path d="M180.878 10.4226C180.965 10.3499 181.102 10.3676 181.156 10.4667L189.9 26.4126C189.942 26.4896 189.916 26.5862 189.841 26.6324L186.006 28.9989C185.926 29.0483 185.82 29.0216 185.774 28.9401L180.043 18.8454L181.074 30.4077C181.082 30.501 181.011 30.5828 180.917 30.5878L176.416 30.8243C176.328 30.8289 176.252 30.7641 176.243 30.6768L174.36 12.5888C174.348 12.4764 174.451 12.3839 174.564 12.3941C175.492 12.4783 177.084 12.0554 177.835 11.8084L177.835 11.8082L177.855 11.802C178.613 11.5778 180.162 11.02 180.878 10.4226Z" fill="#D6CEC4"/>
<path d="M304.556 500.487C303.575 500.692 302.775 501.201 302.556 501.197C302.336 501.194 300.861 500.745 299.406 500.472C297.951 500.2 297.712 500.02 297.139 499.613C296.68 499.288 294.859 497.481 294.006 496.619C293.76 496.341 293.801 496.037 293.966 495.855C294.445 495.433 295.469 494.542 295.727 494.357C296.05 494.126 296.201 494.127 296.34 494.147C296.479 494.168 297.57 494.959 297.645 494.993C297.754 494.707 297.798 494.353 297.635 493.32C297.471 492.287 295.588 484.682 295.49 484.21C295.392 483.737 295.281 483.448 296.111 483.145C296.772 482.903 299.427 482.217 300.688 481.9L300.688 481.899C300.691 481.898 300.693 481.898 300.696 481.898C300.699 481.897 300.702 481.896 300.704 481.895L300.704 481.896C301.987 481.685 304.696 481.257 305.399 481.216C306.281 481.164 306.294 481.473 306.392 481.946C306.49 482.418 307.792 490.144 308.052 491.157C308.313 492.17 308.495 492.477 308.709 492.695C308.764 492.634 309.449 491.474 309.569 491.4C309.688 491.326 309.827 491.265 310.215 491.348C310.526 491.415 311.819 491.825 312.427 492.022C312.65 492.123 312.809 492.386 312.694 492.738C312.255 493.869 311.304 496.251 311.013 496.732C310.649 497.333 310.501 497.594 309.275 498.423C308.049 499.252 306.875 500.251 306.674 500.342C306.475 500.433 305.539 500.284 304.556 500.487Z" fill="#E61717"/>
<path d="M201.756 5.46361C202.738 5.25791 203.538 4.74913 203.757 4.75274C203.977 4.75643 205.452 5.20537 206.906 5.47788C208.361 5.75042 208.601 5.93066 209.174 6.33709C209.632 6.66223 211.453 8.46884 212.306 9.33158C212.552 9.60882 212.511 9.91307 212.347 10.095C211.867 10.5174 210.844 11.4085 210.586 11.5935C210.263 11.8246 210.111 11.8234 209.972 11.803C209.833 11.7826 208.742 10.9914 208.668 10.9574C208.558 11.2428 208.514 11.5968 208.678 12.63C208.842 13.6633 210.724 21.2684 210.822 21.7406C210.92 22.2128 211.031 22.5018 210.201 22.8055C209.54 23.0474 206.885 23.7335 205.624 24.0506L205.625 24.0514C205.622 24.0518 205.619 24.0522 205.616 24.0527C205.614 24.0534 205.611 24.0541 205.608 24.0548L205.608 24.0541C204.325 24.2653 201.617 24.6927 200.914 24.7341C200.032 24.7858 200.018 24.4767 199.92 24.0045C199.822 23.5323 198.521 15.8065 198.26 14.7933C197.999 13.7803 197.817 13.4732 197.604 13.2549C197.549 13.3157 196.863 14.4759 196.744 14.55C196.624 14.624 196.485 14.6856 196.097 14.602C195.787 14.5351 194.493 14.1252 193.885 13.9286C193.662 13.8271 193.503 13.5645 193.619 13.2121C194.058 12.0811 195.009 9.69888 195.3 9.21813C195.663 8.61717 195.811 8.35646 197.038 7.52718C198.264 6.69795 199.438 5.69899 199.638 5.60803C199.838 5.51745 200.774 5.66572 201.756 5.46361Z" fill="#E61717"/>
<path d="M276.867 504.954C276.768 505.008 276.637 504.964 276.603 504.856L271.128 487.514C271.102 487.43 271.146 487.34 271.228 487.31L275.451 485.735C275.539 485.702 275.637 485.748 275.667 485.837L279.325 496.854L280.563 485.312C280.573 485.219 280.659 485.153 280.752 485.166L285.213 485.81C285.3 485.822 285.362 485.901 285.354 485.988L283.682 504.097C283.672 504.209 283.553 504.28 283.444 504.248C282.55 503.985 280.907 504.09 280.122 504.186L280.122 504.187L280.101 504.189C279.314 504.261 277.685 504.507 276.867 504.954Z" fill="#D6CEC4"/>
<path d="M229.461 0.992181C229.561 0.937819 229.691 0.981864 229.726 1.08962L235.2 18.4319C235.226 18.5155 235.182 18.6053 235.1 18.6361L230.877 20.2111C230.789 20.244 230.691 20.1973 230.661 20.1084L227.003 9.09161L225.765 20.6335C225.755 20.7267 225.669 20.7931 225.576 20.7797L221.115 20.136C221.028 20.1235 220.966 20.0451 220.974 19.9577L222.646 1.84894C222.656 1.73644 222.775 1.66566 222.884 1.69764C223.778 1.96077 225.422 1.85564 226.206 1.75944L226.206 1.75928L226.227 1.75707C227.014 1.68465 228.643 1.43897 229.461 0.992181Z" fill="#D6CEC4"/>
</svg>
