<svg width="40" height="40" viewBox="0 0 40 40" fill="none" xmlns="http://www.w3.org/2000/svg">
<path d="M5.8335 16.6665L8.1835 31.0665C8.71683 34.2998 10.0002 36.6665 14.7668 36.6665H24.8168C30.0002 36.6665 30.7668 34.3998 31.3668 31.2665L34.1668 16.6665" stroke="#0C0608" stroke-width="2" stroke-linecap="round"/>
<path d="M14.6832 3.3335L8.6499 9.3835" stroke="#0C0608" stroke-width="2" stroke-miterlimit="10" stroke-linecap="round" stroke-linejoin="round"/>
<path d="M25.3167 3.3335L31.35 9.3835" stroke="#0C0608" stroke-width="2" stroke-miterlimit="10" stroke-linecap="round" stroke-linejoin="round"/>
<path d="M3.33325 13.0833C3.33325 10 4.98325 9.75 7.03325 9.75H32.9666C35.0166 9.75 36.6666 10 36.6666 13.0833C36.6666 16.6667 35.0166 16.4167 32.9666 16.4167H7.03325C4.98325 16.4167 3.33325 16.6667 3.33325 13.0833Z" stroke="#FB1D1D" stroke-width="2"/>
<path d="M16.2666 23.3335V29.2502" stroke="#0C0608" stroke-width="2" stroke-linecap="round"/>
<path d="M23.9333 23.3335V29.2502" stroke="#0C0608" stroke-width="2" stroke-linecap="round"/>
</svg>
