<svg width="41" height="40" viewBox="0 0 41 40" fill="none" xmlns="http://www.w3.org/2000/svg">
<path d="M14.1338 9.99967V8.66634C14.1338 5.71634 14.1338 3.33301 19.4671 3.33301H22.1338C27.4671 3.33301 27.4671 5.71634 27.4671 8.66634V9.99967" stroke="#0C0608" stroke-width="2" stroke-miterlimit="10" stroke-linecap="round" stroke-linejoin="round"/>
<path d="M24.1335 21.6667V23.3333C24.1335 23.35 24.1335 23.35 24.1335 23.3667C24.1335 25.1833 24.1168 26.6667 20.8001 26.6667C17.5001 26.6667 17.4668 25.2 17.4668 23.3833V21.6667C17.4668 20 17.4668 20 19.1335 20H22.4668C24.1335 20 24.1335 20 24.1335 21.6667Z" stroke="#FB1D1D" stroke-width="2" stroke-miterlimit="10" stroke-linecap="round" stroke-linejoin="round"/>
<path d="M36.8838 18.333C33.0338 21.133 28.6338 22.7997 24.1338 23.3663" stroke="#FB1D1D" stroke-width="2" stroke-miterlimit="10" stroke-linecap="round" stroke-linejoin="round"/>
<path d="M5.16699 18.7832C8.91699 21.3499 13.1503 22.8999 17.467 23.3832" stroke="#FB1D1D" stroke-width="2" stroke-miterlimit="10" stroke-linecap="round" stroke-linejoin="round"/>
<path d="M14.135 36.6667H27.4683C34.1683 36.6667 35.3683 33.9833 35.7183 30.7167L36.9683 17.3833C37.4183 13.3167 36.2516 10 29.135 10H12.4683C5.35163 10 4.18497 13.3167 4.63497 17.3833L5.88497 30.7167C6.23496 33.9833 7.43497 36.6667 14.135 36.6667Z" stroke="#0C0608" stroke-width="2" stroke-miterlimit="10" stroke-linecap="round" stroke-linejoin="round"/>
</svg>
