<svg width="41" height="40" viewBox="0 0 41 40" fill="none" xmlns="http://www.w3.org/2000/svg">
<path d="M15.467 18.1163C15.3003 18.0997 15.1003 18.0997 14.917 18.1163C10.9503 17.983 7.80029 14.733 7.80029 10.733C7.80029 6.64967 11.1003 3.33301 15.2003 3.33301C19.2836 3.33301 22.6003 6.64967 22.6003 10.733C22.5836 14.733 19.4336 17.983 15.467 18.1163Z" stroke="#0C0608" stroke-width="2" stroke-linecap="round" stroke-linejoin="round"/>
<path d="M27.5502 6.66699C30.7835 6.66699 33.3835 9.28366 33.3835 12.5003C33.3835 15.6503 30.8835 18.217 27.7668 18.3337C27.6335 18.317 27.4835 18.317 27.3335 18.3337" stroke="#FB1D1D" stroke-width="2" stroke-linecap="round" stroke-linejoin="round"/>
<path d="M7.1334 24.267C3.10007 26.967 3.10007 31.367 7.1334 34.0503C11.7167 37.117 19.2334 37.117 23.8167 34.0503C27.8501 31.3503 27.8501 26.9503 23.8167 24.267C19.2501 21.217 11.7334 21.217 7.1334 24.267Z" stroke="#0C0608" stroke-width="2" stroke-linecap="round" stroke-linejoin="round"/>
<path d="M30.7671 33.333C31.9671 33.083 33.1004 32.5997 34.0338 31.883C36.6338 29.933 36.6338 26.7163 34.0338 24.7663C33.1171 24.0663 32.0004 23.5997 30.8171 23.333" stroke="#FB1D1D" stroke-width="2" stroke-linecap="round" stroke-linejoin="round"/>
</svg>
