<svg width="40" height="40" viewBox="0 0 40 40" fill="none" xmlns="http://www.w3.org/2000/svg">
<path d="M13.3333 5H15C11.75 14.7333 11.75 25.2667 15 35H13.3333" stroke="#FB1D1D" stroke-width="2" stroke-linecap="round" stroke-linejoin="round"/>
<path d="M25 5C28.25 14.7333 28.25 25.2667 25 35" stroke="#FB1D1D" stroke-width="2" stroke-linecap="round" stroke-linejoin="round"/>
<path d="M5 26.6667V25C14.7333 28.25 25.2667 28.25 35 25V26.6667" stroke="#FB1D1D" stroke-width="2" stroke-linecap="round" stroke-linejoin="round"/>
<path d="M5 15C14.7333 11.75 25.2667 11.75 35 15" stroke="#FB1D1D" stroke-width="2" stroke-linecap="round" stroke-linejoin="round"/>
<path d="M20 36.6668C29.2048 36.6668 36.6667 29.2049 36.6667 20.0002C36.6667 10.7954 29.2048 3.3335 20 3.3335C10.7953 3.3335 3.33337 10.7954 3.33337 20.0002C3.33337 29.2049 10.7953 36.6668 20 36.6668Z" stroke="#0C0608" stroke-width="2" stroke-linecap="round" stroke-linejoin="round"/>
</svg>
