<svg width="40" height="40" viewBox="0 0 40 40" fill="none" xmlns="http://www.w3.org/2000/svg">
<path d="M4.00552 22.5297L4.53585 21.9994L4.52927 21.9928L4.52252 21.9864L4.00552 22.5297ZM0.750539 14.8326L1.5005 14.8401L0.750539 14.8326ZM11.338 4.45513L11.3305 5.20509L11.338 4.45513ZM39.2498 15.2183L39.9997 15.2258V15.2258L39.2498 15.2183ZM28.8723 4.63081L28.8648 5.38077L28.8723 4.63081ZM35.8412 22.8487L35.3352 22.2951L35.3293 22.3005L35.3236 22.3059L35.8412 22.8487ZM15.2306 14.0101L14.7057 13.4745L15.2306 14.0101ZM18.6555 17.5043L19.1805 18.0399L18.6555 17.5043ZM22.7521 13.489L23.2771 14.0246L22.7521 13.489ZM24.1985 13.5035L23.6629 14.0285L23.6682 14.0338L24.1985 13.5035ZM33.5162 22.8211L32.9858 23.3514L33.5162 22.8211ZM21.8981 33.1489L22.4284 32.6186L21.8981 33.1489ZM15.5868 25.7769C15.2939 25.484 14.819 25.484 14.5261 25.7769C14.2333 26.0698 14.2333 26.5447 14.5261 26.8376L15.0565 26.3073L15.5868 25.7769ZM18.2561 36.791L17.7257 37.3213L18.2561 36.791ZM11.9447 29.419C11.6518 29.1261 11.177 29.1261 10.8841 29.419C10.5912 29.7119 10.5912 30.1868 10.8841 30.4797L11.4144 29.9493L11.9447 29.419ZM25.5402 29.5068L25.0099 30.0372L25.5402 29.5068ZM19.2289 22.1349C18.936 21.842 18.4611 21.842 18.1682 22.1349C17.8753 22.4278 17.8753 22.9026 18.1682 23.1955L18.6985 22.6652L19.2289 22.1349ZM29.1823 25.8648L28.6519 26.3951L29.1823 25.8648ZM29.1622 25.8448L28.6319 26.3751L29.1622 25.8448ZM32.8443 22.1627L33.3747 21.6324L32.8443 22.1627ZM26.553 14.8107C26.2601 14.5178 25.7852 14.5178 25.4924 14.8107C25.1995 15.1036 25.1995 15.5785 25.4924 15.8714L26.0227 15.3411L26.553 14.8107ZM4.00552 22.5297L3.47519 23.06L17.2358 36.8207L17.7662 36.2903L18.2965 35.76L4.53585 21.9994L4.00552 22.5297ZM0.750539 14.8326L1.5005 14.8401C1.55436 9.46496 5.9554 5.15123 11.3305 5.20509L11.338 4.45513L11.3455 3.70516C5.14205 3.64301 0.0627321 8.62155 0.000576138 14.825L0.750539 14.8326ZM4.00552 22.5297L4.52252 21.9864C2.63444 20.1898 1.47234 17.6507 1.5005 14.8401L0.750539 14.8326L0.000576138 14.825C-0.0319194 18.0683 1.31139 21.0015 3.48853 23.073L4.00552 22.5297ZM11.338 4.45513L11.3305 5.20509C14.6627 5.23848 17.0421 7.28056 19.5187 9.80721L20.0543 9.28222L20.5899 8.75723C18.1195 6.23679 15.3513 3.7453 11.3455 3.70516L11.338 4.45513ZM39.2498 15.2183L39.9997 15.2258C40.0619 9.02232 35.0833 3.94301 28.8798 3.88085L28.8723 4.63081L28.8648 5.38077C34.2399 5.43463 38.5536 9.83568 38.4998 15.2108L39.2498 15.2183ZM35.8412 22.8487L36.3472 23.4023C38.5654 21.3747 39.9672 18.469 39.9997 15.2258L39.2498 15.2183L38.4998 15.2108C38.4716 18.0214 37.2589 20.5368 35.3352 22.2951L35.8412 22.8487ZM28.8723 4.63081L28.8798 3.88085C24.8733 3.84071 21.9801 6.34438 19.5293 8.7466L20.0543 9.28222L20.5793 9.81784C23.0387 7.4072 25.5334 5.34739 28.8648 5.38077L28.8723 4.63081ZM20.0543 9.28222L19.5293 8.7466L14.7057 13.4745L15.2306 14.0101L15.7556 14.5458L20.5793 9.81784L20.0543 9.28222ZM18.6555 17.5043L19.1805 18.0399L23.2771 14.0246L22.7521 13.489L22.2271 12.9534L18.1305 16.9687L18.6555 17.5043ZM24.1985 13.5035L23.6682 14.0338L32.9858 23.3514L33.5162 22.8211L34.0465 22.2908L24.7289 12.9731L24.1985 13.5035ZM22.7521 13.489L23.2771 14.0246C23.3847 13.9191 23.5574 13.9209 23.6629 14.0285L24.1985 13.5035L24.7342 12.9785C24.0488 12.2792 22.9264 12.268 22.2271 12.9534L22.7521 13.489ZM15.196 17.4697L14.6604 17.9946C15.896 19.2553 17.9198 19.2756 19.1805 18.0399L18.6555 17.5043L18.1305 16.9687C17.4614 17.6245 16.3874 17.6137 15.7316 16.9447L15.196 17.4697ZM15.2306 14.0101L14.7057 13.4745C13.4449 14.7102 13.4247 16.7339 14.6604 17.9946L15.196 17.4697L15.7316 16.9447C15.0758 16.2756 15.0866 15.2016 15.7556 14.5458L15.2306 14.0101ZM35.8412 22.8487L35.3236 22.3059C34.9644 22.6485 34.3975 22.6417 34.0465 22.2908L33.5162 22.8211L32.9858 23.3514C33.9128 24.2784 35.4101 24.2962 36.3588 23.3915L35.8412 22.8487ZM21.8981 33.1489L22.4284 32.6186L15.5868 25.7769L15.0565 26.3073L14.5261 26.8376L21.3678 33.6792L21.8981 33.1489ZM18.2561 36.791L18.7864 36.2607L11.9447 29.419L11.4144 29.9493L10.8841 30.4797L17.7257 37.3213L18.2561 36.791ZM18.2561 36.791L17.7257 37.3213C19.0243 38.6199 21.1298 38.6199 22.4284 37.3213L21.8981 36.791L21.3678 36.2607C20.655 36.9735 19.4992 36.9735 18.7864 36.2607L18.2561 36.791ZM21.8981 33.1489L21.3678 33.6792C22.0806 34.3921 22.0806 35.5478 21.3678 36.2607L21.8981 36.791L22.4284 37.3213C23.7271 36.0227 23.7271 33.9172 22.4284 32.6186L21.8981 33.1489ZM25.5402 29.5068L26.0705 28.9765L19.2289 22.1349L18.6985 22.6652L18.1682 23.1955L25.0099 30.0372L25.5402 29.5068ZM25.5402 29.5068L25.0099 30.0372C25.7227 30.75 25.7227 31.9057 25.0099 32.6186L25.5402 33.1489L26.0705 33.6792C27.3691 32.3806 27.3691 30.2751 26.0705 28.9765L25.5402 29.5068ZM21.8981 33.1489L21.3678 33.6792C22.6664 34.9779 24.7719 34.9779 26.0705 33.6792L25.5402 33.1489L25.0099 32.6186C24.297 33.3314 23.1413 33.3314 22.4284 32.6186L21.8981 33.1489ZM29.1823 25.8648L29.7126 25.3344L22.8709 18.4928L22.3406 19.0231L21.8103 19.5535L28.6519 26.3951L29.1823 25.8648ZM29.1823 25.8648L28.6519 26.3951C29.3648 27.1079 29.3648 28.2637 28.6519 28.9765L29.1823 29.5068L29.7126 30.0372C31.0112 28.7386 31.0112 26.6331 29.7126 25.3344L29.1823 25.8648ZM25.5402 29.5068L25.0099 30.0372C26.3085 31.3358 28.414 31.3358 29.7126 30.0372L29.1823 29.5068L28.6519 28.9765C27.9391 29.6894 26.7833 29.6894 26.0705 28.9765L25.5402 29.5068ZM29.1622 25.8448L29.6926 25.3144L22.8709 18.4928L22.3406 19.0231L21.8103 19.5535L28.6319 26.3751L29.1622 25.8448ZM32.8443 22.1627L33.3747 21.6324L26.553 14.8107L26.0227 15.3411L25.4924 15.8714L32.314 22.693L32.8443 22.1627ZM32.8443 22.1627L32.314 22.693C33.0379 23.4169 33.0379 24.5906 32.314 25.3144L32.8443 25.8448L33.3747 26.3751C34.6843 25.0654 34.6843 22.942 33.3747 21.6324L32.8443 22.1627ZM29.1622 25.8448L28.6319 26.3751C29.9416 27.6848 32.065 27.6848 33.3747 26.3751L32.8443 25.8448L32.314 25.3144C31.5901 26.0383 30.4165 26.0383 29.6926 25.3144L29.1622 25.8448Z" fill="#DAD1C7"/>
<path d="M4.00552 22.5297L4.53585 21.9994L4.52927 21.9928L4.52252 21.9864L4.00552 22.5297ZM0.750539 14.8326L1.5005 14.8401L0.750539 14.8326ZM11.338 4.45513L11.3305 5.20509L11.338 4.45513ZM19.5187 9.80721C19.8086 10.103 20.2834 10.1078 20.5793 9.81784C20.8751 9.52789 20.8798 9.05304 20.5899 8.75723L20.0543 9.28222L19.5187 9.80721ZM24.7289 12.9731C24.436 12.6803 23.9611 12.6803 23.6682 12.9731C23.3753 13.266 23.3753 13.7409 23.6682 14.0338L24.1985 13.5035L24.7289 12.9731ZM21.8981 33.1489L22.4284 32.6186L21.8981 33.1489ZM15.5868 25.7769C15.2939 25.484 14.819 25.484 14.5261 25.7769C14.2333 26.0698 14.2333 26.5447 14.5261 26.8376L15.0565 26.3073L15.5868 25.7769ZM18.2561 36.791L17.7257 37.3213L18.2561 36.791ZM11.9447 29.419C11.6518 29.1261 11.177 29.1261 10.8841 29.419C10.5912 29.7119 10.5912 30.1868 10.8841 30.4797L11.4144 29.9493L11.9447 29.419ZM25.5402 29.5068L25.0099 30.0372L25.5402 29.5068ZM19.2289 22.1349C18.936 21.842 18.4611 21.842 18.1682 22.1349C17.8753 22.4278 17.8753 22.9026 18.1682 23.1955L18.6985 22.6652L19.2289 22.1349ZM29.1823 25.8648L28.6519 26.3951L29.1823 25.8648ZM22.8709 18.4928C22.578 18.1999 22.1032 18.1999 21.8103 18.4928C21.5174 18.7857 21.5174 19.2606 21.8103 19.5535L22.3406 19.0231L22.8709 18.4928ZM29.1622 25.8448L28.6319 26.3751L29.1622 25.8448ZM4.00552 22.5297L3.47519 23.06L17.2358 36.8207L17.7662 36.2903L18.2965 35.76L4.53585 21.9994L4.00552 22.5297ZM0.750539 14.8326L1.5005 14.8401C1.55436 9.46496 5.9554 5.15123 11.3305 5.20509L11.338 4.45513L11.3455 3.70516C5.14205 3.64301 0.0627321 8.62155 0.000576138 14.825L0.750539 14.8326ZM4.00552 22.5297L4.52252 21.9864C2.63444 20.1898 1.47234 17.6507 1.5005 14.8401L0.750539 14.8326L0.000576138 14.825C-0.0319194 18.0683 1.31139 21.0015 3.48853 23.073L4.00552 22.5297ZM11.338 4.45513L11.3305 5.20509C14.6627 5.23848 17.0421 7.28056 19.5187 9.80721L20.0543 9.28222L20.5899 8.75723C18.1195 6.23679 15.3513 3.7453 11.3455 3.70516L11.338 4.45513ZM24.1985 13.5035L23.6682 14.0338L32.9858 23.3514L33.5162 22.8211L34.0465 22.2908L24.7289 12.9731L24.1985 13.5035ZM21.8981 33.1489L22.4284 32.6186L15.5868 25.7769L15.0565 26.3073L14.5261 26.8376L21.3678 33.6792L21.8981 33.1489ZM18.2561 36.791L18.7864 36.2607L11.9447 29.419L11.4144 29.9493L10.8841 30.4797L17.7257 37.3213L18.2561 36.791ZM18.2561 36.791L17.7257 37.3213C19.0243 38.6199 21.1298 38.6199 22.4284 37.3213L21.8981 36.791L21.3678 36.2607C20.655 36.9735 19.4992 36.9735 18.7864 36.2607L18.2561 36.791ZM21.8981 33.1489L21.3678 33.6792C22.0806 34.3921 22.0806 35.5478 21.3678 36.2607L21.8981 36.791L22.4284 37.3213C23.7271 36.0227 23.7271 33.9172 22.4284 32.6186L21.8981 33.1489ZM25.5402 29.5068L26.0705 28.9765L19.2289 22.1349L18.6985 22.6652L18.1682 23.1955L25.0099 30.0372L25.5402 29.5068ZM25.5402 29.5068L25.0099 30.0372C25.7227 30.75 25.7227 31.9057 25.0099 32.6186L25.5402 33.1489L26.0705 33.6792C27.3691 32.3806 27.3691 30.2751 26.0705 28.9765L25.5402 29.5068ZM21.8981 33.1489L21.3678 33.6792C22.6664 34.9779 24.7719 34.9779 26.0705 33.6792L25.5402 33.1489L25.0099 32.6186C24.297 33.3314 23.1413 33.3314 22.4284 32.6186L21.8981 33.1489ZM29.1823 25.8648L29.7126 25.3344L22.8709 18.4928L22.3406 19.0231L21.8103 19.5535L28.6519 26.3951L29.1823 25.8648ZM29.1823 25.8648L28.6519 26.3951C29.3648 27.1079 29.3648 28.2637 28.6519 28.9765L29.1823 29.5068L29.7126 30.0372C31.0112 28.7386 31.0112 26.6331 29.7126 25.3344L29.1823 25.8648ZM25.5402 29.5068L25.0099 30.0372C26.3085 31.3358 28.414 31.3358 29.7126 30.0372L29.1823 29.5068L28.6519 28.9765C27.9391 29.6894 26.7833 29.6894 26.0705 28.9765L25.5402 29.5068ZM29.1622 25.8448L29.6926 25.3144L22.8709 18.4928L22.3406 19.0231L21.8103 19.5535L28.6319 26.3751L29.1622 25.8448ZM32.8443 22.1627L32.314 22.693C33.0379 23.4169 33.0379 24.5906 32.314 25.3144L32.8443 25.8448L33.3747 26.3751C34.6843 25.0654 34.6843 22.942 33.3747 21.6324L32.8443 22.1627ZM29.1622 25.8448L28.6319 26.3751C29.9416 27.6848 32.065 27.6848 33.3747 26.3751L32.8443 25.8448L32.314 25.3144C31.5901 26.0383 30.4165 26.0383 29.6926 25.3144L29.1622 25.8448Z" fill="#E61717"/>
</svg>
