<svg width="40" height="40" viewBox="0 0 40 40" fill="none" xmlns="http://www.w3.org/2000/svg">
<path d="M16.9664 15.5337C15.5997 13.6503 13.4164 12.417 10.8998 12.417C6.71644 12.417 3.31641 15.817 3.31641 20.0003C3.31641 24.1836 6.71644 27.5836 10.8998 27.5836C13.7164 27.5836 16.3331 26.1003 17.7831 23.6837L19.9998 20.0003L22.1998 16.3169C23.6498 13.9003 26.2664 12.417 29.0831 12.417C33.2664 12.417 36.6664 15.817 36.6664 20.0003C36.6664 24.1836 33.2664 27.5836 29.0831 27.5836C26.5831 27.5836 24.3998 26.3503 23.0164 24.467" stroke="#DAD1C7" stroke-width="1.5" stroke-linecap="round" stroke-linejoin="round"/>
<path d="M16.9664 15.5337C15.5997 13.6503 13.4164 12.417 10.8998 12.417C6.71644 12.417 3.31641 15.817 3.31641 20.0003C3.31641 24.1836 6.71644 27.5836 10.8998 27.5836C13.7164 27.5836 16.3331 26.1003 17.7831 23.6837L19.9998 20.0003L22.1998 16.3169C23.6498 13.9003 26.2664 12.417 29.0831 12.417C33.2664 12.417 36.6664 15.817 36.6664 20.0003" stroke="#E61717" stroke-width="1.5" stroke-linecap="round" stroke-linejoin="round"/>
</svg>
