<svg width="25" height="25" viewBox="0 0 25 25" fill="none" xmlns="http://www.w3.org/2000/svg">
<path d="M13.875 1.5625H10.875C9.28423 1.56431 7.75912 2.22337 6.63428 3.39508C5.50944 4.56679 4.87674 6.15545 4.875 7.8125V17.1875C4.87674 18.8445 5.50944 20.4332 6.63428 21.6049C7.75912 22.7766 9.28423 23.4357 10.875 23.4375H13.875C15.4658 23.4357 16.9909 22.7766 18.1157 21.6049C19.2406 20.4332 19.8733 18.8445 19.875 17.1875V7.8125C19.8733 6.15545 19.2406 4.56679 18.1157 3.39508C16.9909 2.22337 15.4658 1.56431 13.875 1.5625ZM18.375 17.1875C18.3738 18.4303 17.8993 19.6218 17.0556 20.5006C16.212 21.3794 15.0681 21.8737 13.875 21.875H10.875C9.68191 21.8737 8.53803 21.3794 7.69439 20.5006C6.85075 19.6218 6.37624 18.4303 6.375 17.1875V7.8125C6.37624 6.56969 6.85075 5.37816 7.69439 4.49936C8.53803 3.62057 9.68191 3.12629 10.875 3.125H13.875C15.0681 3.12629 16.212 3.62057 17.0556 4.49936C17.8993 5.37816 18.3738 6.56969 18.375 7.8125V17.1875Z" fill="#E61717"/>
<path d="M13.125 10.9375V6.25C13.125 6.0428 13.046 5.84409 12.9053 5.69757C12.7647 5.55106 12.5739 5.46875 12.375 5.46875C12.1761 5.46875 11.9853 5.55106 11.8447 5.69757C11.704 5.84409 11.625 6.0428 11.625 6.25V10.9375C11.625 11.1447 11.704 11.3434 11.8447 11.4899C11.9853 11.6364 12.1761 11.7188 12.375 11.7188C12.5739 11.7188 12.7647 11.6364 12.9053 11.4899C13.046 11.3434 13.125 11.1447 13.125 10.9375Z" fill="#E61717"/>
</svg>
