<svg width="41" height="40" viewBox="0 0 41 40" fill="none" xmlns="http://www.w3.org/2000/svg">
<path d="M3.73389 16.6666V23.3333C3.73389 26.6666 5.40055 28.3333 8.73389 28.3333H11.1172C11.7339 28.3333 12.3506 28.5166 12.8839 28.8333L17.7506 31.8833C21.9506 34.5166 25.4006 32.6 25.4006 27.65V12.35C25.4006 7.38331 21.9506 5.48331 17.7506 8.11664L12.8839 11.1666C12.3506 11.4833 11.7339 11.6666 11.1172 11.6666H8.73389C5.40055 11.6666 3.73389 13.3333 3.73389 16.6666Z" stroke="#0C0608" stroke-width="2"/>
<path d="M30.4004 13.333C33.3671 17.283 33.3671 22.7163 30.4004 26.6663" stroke="#FB1D1D" stroke-width="2" stroke-linecap="round" stroke-linejoin="round"/>
<path d="M33.4502 9.16699C38.2669 15.5837 38.2669 24.417 33.4502 30.8337" stroke="#FB1D1D" stroke-width="2" stroke-linecap="round" stroke-linejoin="round"/>
</svg>
