<svg width="40" height="40" viewBox="0 0 40 40" fill="none" xmlns="http://www.w3.org/2000/svg">
<path d="M6.25 8.74805L8.2881 34.5665C8.45234 36.647 10.1886 38.2517 12.2757 38.2517H27.7239C29.8109 38.2517 31.5472 36.6471 31.7115 34.5665L33.75 8.74805" stroke="#E61717" stroke-width="1.5" stroke-linecap="round"/>
<path d="M4.5 4.75H35.5" stroke="#E61717" stroke-width="1.5" stroke-linecap="round"/>
<path d="M7.5 4.75C7.5 2.54086 9.29086 0.75 11.5 0.75H28.5C30.7091 0.75 32.5 2.54086 32.5 4.75" stroke="#E61717" stroke-width="1.5" stroke-linecap="round"/>
<path d="M14.1387 23.9336C14.4032 24.3744 14.7265 24.7859 15.0939 25.1533C17.7979 27.8573 22.1919 27.8573 24.9106 25.1533C26.0128 24.0511 26.6448 22.655 26.8505 21.2295" stroke="#DAD1C7" stroke-width="1.5" stroke-linecap="round" stroke-linejoin="round"/>
<path d="M13.1523 19.2604C13.3581 17.8203 13.99 16.4388 15.0922 15.3366C17.7962 12.6326 22.1902 12.6326 24.909 15.3366C25.291 15.7187 25.5996 16.1302 25.8642 16.5564" stroke="#DAD1C7" stroke-width="1.5" stroke-linecap="round" stroke-linejoin="round"/>
<path d="M13.8574 26.3348V23.9336H16.2587" stroke="#DAD1C7" stroke-width="1.5" stroke-linecap="round" stroke-linejoin="round"/>
<path d="M26.1434 14.1548V16.556H23.7422" stroke="#DAD1C7" stroke-width="1.5" stroke-linecap="round" stroke-linejoin="round"/>
</svg>
