<svg width="40" height="40" viewBox="0 0 40 40" fill="none" xmlns="http://www.w3.org/2000/svg">
<path d="M14.9999 36.6668H24.9999C33.3333 36.6668 36.6666 33.3335 36.6666 25.0002V15.0002C36.6666 6.66683 33.3333 3.3335 24.9999 3.3335H14.9999C6.66659 3.3335 3.33325 6.66683 3.33325 15.0002V25.0002C3.33325 33.3335 6.66659 36.6668 14.9999 36.6668Z" stroke="#0C0608" stroke-width="2" stroke-linecap="round" stroke-linejoin="round"/>
<path d="M29.1666 20.0002C29.1666 25.0668 25.0666 29.1668 19.9999 29.1668C14.9333 29.1668 11.8499 24.0668 11.8499 24.0668M11.8499 24.0668H15.9832M11.8499 24.0668V28.6502M10.8333 20.0002C10.8333 14.9335 14.8999 10.8335 19.9999 10.8335C26.1166 10.8335 29.1666 15.9335 29.1666 15.9335M29.1666 15.9335V11.3502M29.1666 15.9335H25.0999" stroke="#FB1D1D" stroke-width="2" stroke-linecap="round" stroke-linejoin="round"/>
</svg>
