<svg width="40" height="40" viewBox="0 0 40 40" fill="none" xmlns="http://www.w3.org/2000/svg">
<path d="M20 4V36" stroke="#E61717" stroke-width="1.5" stroke-linecap="round"/>
<path d="M25 36H20H15" stroke="#E61717" stroke-width="1.5" stroke-linecap="round"/>
<path d="M6.68292 13.5841L33.6059 7.52698" stroke="#E61717" stroke-width="1.5" stroke-linecap="round"/>
<path d="M1.12765 26.0567L6.59405 13.7036C6.66562 13.5419 6.89648 13.5458 6.96249 13.7099L11.9793 26.1807C12.3095 27.0015 12.2612 27.9262 11.8473 28.7081C9.64133 32.8757 3.6608 32.9036 1.28812 28.8286C0.797905 27.9867 0.73341 26.9476 1.12765 26.0567Z" stroke="#DAD1C7" stroke-width="1.5"/>
<path d="M28.1763 19.3924L33.5954 7.6361C33.6682 7.47805 33.8942 7.48202 33.9615 7.64252L38.9387 19.5201C39.2933 20.3662 39.2417 21.3279 38.7988 22.1313C36.5683 26.1765 30.7971 26.2957 28.4016 22.346L28.3378 22.2408C27.814 21.3772 27.7534 20.3097 28.1763 19.3924Z" stroke="#DAD1C7" stroke-width="1.5"/>
</svg>
