<svg width="40" height="40" viewBox="0 0 40 40" fill="none" xmlns="http://www.w3.org/2000/svg">
<path d="M34.4968 4.79788L32.7291 6.56564M30.9613 8.33341L32.7291 6.56564M32.7291 6.56564L29.1935 3.03011C27.2409 1.07749 24.0751 1.07749 22.1225 3.03011C20.1699 4.98273 20.1699 8.14855 22.1225 10.1012L31.6684 19.6471C34.2068 22.1855 34.2068 26.3011 31.6684 28.8395C29.13 31.3779 25.0144 31.3779 22.476 28.8395L12.5765 18.94C10.8192 17.1827 7.96994 17.1827 6.21258 18.94C4.45522 20.6974 4.45522 23.5466 6.21258 25.304L15.0514 34.1428" stroke="#DAD1C7" stroke-width="1.5" stroke-linecap="round"/>
<path d="M35.1367 9L38.6367 12.5" stroke="#DAD1C7" stroke-width="1.5" stroke-linecap="round"/>
<path d="M36.4684 7.44859L1.3894 38.1592L31.8478 2.86103C33.087 1.42499 35.2851 1.3442 36.6263 2.68542C37.961 4.02009 37.8885 6.20529 36.4684 7.44859Z" stroke="#E61717" stroke-width="1.5" stroke-linecap="round"/>
</svg>
