<svg width="40" height="40" viewBox="0 0 40 40" fill="none" xmlns="http://www.w3.org/2000/svg">
<path d="M32.127 8.41054C31.3082 7.55669 30.9695 7.18295 28.626 6.24907C26.2826 5.31526 23.9674 4.08806 23.6001 4.00783C23.234 3.928 21.7165 4.4849 20 4.48794C18.2834 4.4849 16.7659 3.928 16.3999 4.00783C16.0325 4.08806 13.7174 5.31526 11.374 6.24907C9.03057 7.18295 8.69189 7.55669 7.87307 8.41054C7.21802 9.09359 4.79524 12.6439 3.66581 14.3338C3.34957 14.8675 3.52478 15.3479 3.86356 15.5881C4.81415 16.1128 6.83945 17.2155 7.33645 17.429C7.95755 17.6958 8.21167 17.6425 8.43752 17.5625C8.66339 17.4825 10.2162 15.8284 10.3294 15.7481C10.6117 16.175 10.8094 16.7354 10.8941 18.4697C10.9788 20.2042 10.4707 33.1983 10.4707 33.9988C10.4707 34.7993 10.3859 35.3062 11.8823 35.5198C13.0744 35.6897 17.7623 35.9091 19.9858 35.9988C19.9858 36.0014 19.9974 35.9994 20 35.9993C20.0028 35.9994 20.0141 36.0016 20.0141 35.9985C22.2376 35.9088 26.9255 35.6897 28.1176 35.5198C29.614 35.3062 29.5292 34.7993 29.5292 33.9988C29.5292 33.4741 29.311 27.7114 29.1845 23.3139" stroke="#E61717" stroke-width="1.5" stroke-linecap="round"/>
<path d="M16.9121 16.077L23.5262 22.6912L36.7779 9.46289" stroke="#DAD1C7" stroke-width="1.5" stroke-linecap="round" stroke-linejoin="round"/>
</svg>
