<svg width="64" height="112" viewBox="0 0 64 112" fill="none" xmlns="http://www.w3.org/2000/svg">
<rect width="64" height="112" fill="white"/>
<path d="M19.825 90.465L18.1508 87.6166V90.465H17.2021V86.3353H18.3971L20.0713 89.1837V86.3353H21.0199V90.465H19.825Z" fill="#191816"/>
<path d="M23.9876 86.3353H25.0694L26.6438 90.465H25.5753L25.3224 89.7319H23.7114L23.4651 90.465H22.4199L23.991 86.3353H23.9876ZM23.981 88.9383H25.0561L24.5202 87.3677L23.981 88.9383Z" fill="#191816"/>
<path d="M30.3692 87.5282C30.2727 87.2154 29.9665 87.0439 29.5471 87.0439C29.161 87.0439 28.8847 87.1851 28.8847 87.4441C28.8847 87.6492 29.0744 87.7972 29.3673 87.8611L29.9365 87.9754C30.6089 88.1133 31.4609 88.3185 31.4609 89.1827C31.4609 90.047 30.5822 90.538 29.7135 90.538C28.6384 90.538 27.9494 90.0134 27.793 89.1188H28.7715C28.8814 89.5527 29.2242 89.7511 29.7368 89.7511C30.0763 89.7511 30.4491 89.6435 30.4491 89.3004C30.4491 89.0314 30.1329 88.9002 29.6736 88.8061L29.1676 88.7052C28.4886 88.5673 27.8729 88.2445 27.8729 87.5046C27.8729 86.6605 28.7882 86.2704 29.6037 86.2704C30.4191 86.2704 31.2013 86.6235 31.3411 87.5349H30.3692V87.5282Z" fill="#191816"/>
<path d="M33.0723 86.3353H36.2709V87.1895H34.0575V87.9125H36.1511V88.7735H34.0575V89.6041H36.2709V90.465H33.0723V86.3353Z" fill="#191816"/>
<path d="M37.9941 86.3353H41.1928V87.1895H38.9794V87.9125H41.073V88.7735H38.9794V89.6041H41.1928V90.465H37.9941V86.3353Z" fill="#191816"/>
<path d="M44.873 86.3353H45.8549V88.8878C45.8549 89.9135 45.2923 90.539 44.2272 90.539C43.1621 90.539 42.6296 89.8496 42.5996 88.8878H43.5815C43.5982 89.5469 43.8045 89.7655 44.2239 89.7655C44.6433 89.7655 44.8663 89.5503 44.8663 88.8878V86.3353H44.873Z" fill="#191816"/>
<path d="M45.8857 46.3756C45.8857 46.3756 45.8857 46.3756 45.8824 46.3756V42.3232H41.7784V46.463H17.2109V50.6028H45.8857V46.379V46.3756Z" fill="#191816"/>
<path d="M45.8857 54.7388H41.7751V58.8517C41.3124 58.8517 40.1874 58.8517 39.7281 58.8551V55.7746H35.6307V58.8651C35.1514 58.8651 34.0497 58.8651 33.5837 58.8719V55.7779H29.4863V58.882C28.2781 58.8853 18.2527 58.8786 17.2109 58.882V63.0218H45.8857V54.7455V54.7388Z" fill="#191816"/>
<path d="M45.5422 79.5605C46.2904 79.5605 46.8969 78.9477 46.8969 78.1917C46.8969 77.4358 46.2904 76.823 45.5422 76.823C44.794 76.823 44.1875 77.4358 44.1875 78.1917C44.1875 78.9477 44.794 79.5605 45.5422 79.5605Z" fill="#191816"/>
<path d="M42.05 79.5605C42.7982 79.5605 43.4047 78.9477 43.4047 78.1917C43.4047 77.4358 42.7982 76.823 42.05 76.823C41.3018 76.823 40.6953 77.4358 40.6953 78.1917C40.6953 78.9477 41.3018 79.5605 42.05 79.5605Z" fill="#191816"/>
<path d="M29.8971 81.5782C30.6965 80.7705 30.6965 79.461 29.8971 78.6533C29.0976 77.8456 27.8016 77.8456 27.0021 78.6533C26.2027 79.461 26.2027 80.7705 27.0021 81.5782C27.8015 82.3859 29.0976 82.3859 29.8971 81.5782Z" fill="#191816"/>
<path d="M45.8579 73.6719V67.1781H41.7738V71.3179C41.2513 71.3179 35.0936 71.3179 30.0476 71.3179V70.4435C30.0476 67.4437 27.6411 65.0123 24.6721 65.0123C21.7031 65.0123 19.2966 67.4437 19.2966 70.4435H23.394C23.394 69.7305 23.9665 69.1487 24.6755 69.1487C25.3844 69.1487 25.9569 69.7272 25.9569 70.4435V71.3179C24.4092 71.3179 23.3973 71.3179 23.3973 71.3179C22.9214 71.3179 22.7516 71.3179 22.3755 71.3179C19.4065 71.3179 17 73.7493 17 76.7491C17 79.7488 19.4065 82.1803 22.3755 82.1803H25.4477V78.0404H22.3755C21.6698 78.0404 21.094 77.462 21.094 76.7457C21.094 76.0294 21.6665 75.451 22.3755 75.451H45.8645V73.6652L45.8579 73.6719Z" fill="#191816"/>
<path d="M43.841 41.2846C44.9715 41.2846 45.888 40.3586 45.888 39.2163C45.888 38.0741 44.9715 37.1481 43.841 37.1481C42.7104 37.1481 41.7939 38.0741 41.7939 39.2163C41.7939 40.3586 42.7104 41.2846 43.841 41.2846Z" fill="#191816"/>
<path d="M17.2109 20V34.0438H45.8857V20H17.2109ZM44.2747 32.4194H18.8219V21.6277H44.2747V32.4161V32.4194Z" fill="#E61717"/>
<path d="M24.0628 29.4602H21.0439V31.0106H27.2947V25.0413H25.7603V28.3572C23.5236 27.9873 21.8127 26.0199 21.8127 23.6591C21.8127 23.4607 21.8261 23.269 21.8494 23.0773H20.3049C20.2883 23.269 20.2783 23.4641 20.2783 23.6591C20.2783 26.2587 21.8394 28.4917 24.0628 29.4602Z" fill="#E61717"/>
<path d="M37.3577 25.6924C39.5944 26.0623 41.3052 28.0296 41.3052 30.3904C41.3052 30.5989 41.2919 30.8041 41.2653 31.0092H42.8097C42.8297 30.8074 42.8397 30.5989 42.8397 30.3904C42.8397 27.7909 41.2786 25.5545 39.0552 24.5893H42.0741V23.039H35.8232V29.0082H37.3577V25.6924Z" fill="#E61717"/>
<path d="M29.6628 31.0095H31.2072C31.1806 30.8077 31.1672 30.6026 31.1672 30.3907C31.1672 29.2944 31.5234 28.2653 32.2024 27.4145C33.0345 26.3148 33.4938 24.9562 33.4938 23.5706C33.4938 23.3756 33.4839 23.1805 33.4672 22.9888H31.9228C31.9461 23.1805 31.9594 23.3722 31.9594 23.5706C31.9594 24.6669 31.6033 25.696 30.9243 26.5468C30.0921 27.6465 29.6328 29.0052 29.6328 30.3907C29.6328 30.5992 29.6428 30.8044 29.6628 31.0095Z" fill="#E61717"/>
<path d="M55.3467 6V6.5H57.5V8.55078H58V10.5918H57.5V15.6943H58V17.7344H57.5V22.8369H58V24.8779H57.5V29.9795H58V32.0205H57.5V37.1221H58V39.1631H57.5V44.2656H58V46.3057H57.5V51.4082H58V53.4492H57.5V58.5508H58V60.5918H57.5V65.6943H58V67.7344H57.5V72.8369H58V74.8779H57.5V79.9795H58V82.0205H57.5V87.1221H58V89.1631H57.5V94.2656H58V96.3057H57.5V101.408H58V103.449H57.5V105.5H55.3467V106H53.2246V105.5H47.918V106H45.7959V105.5H40.4902V106H38.3672V105.5H33.0615V106H30.9385V105.5H25.6328V106H23.5098V105.5H18.2041V106H16.082V105.5H10.7754V106H8.65332V105.5H6.5V103.449H6V101.408H6.5V96.3057H6V94.2656H6.5V89.1631H6V87.1221H6.5V82.0205H6V79.9795H6.5V74.8779H6V72.8369H6.5V67.7344H6V65.6943H6.5V60.5918H6V58.5508H6.5V53.4492H6V51.4082H6.5V46.3057H6V44.2656H6.5V39.1631H6V37.1221H6.5V32.0205H6V29.9795H6.5V24.8779H6V22.8369H6.5V17.7344H6V15.6943H6.5V10.5918H6V8.55078H6.5V6.5H8.65332V6H10.7754V6.5H16.082V6H18.2041V6.5H23.5098V6H25.6328V6.5H30.9385V6H33.0615V6.5H38.3672V6H40.4902V6.5H45.7959V6H47.918V6.5H53.2246V6H55.3467Z" stroke="#E3DACF" stroke-dasharray="5 2"/>
</svg>
