<svg width="112" height="112" viewBox="0 0 112 112" fill="none" xmlns="http://www.w3.org/2000/svg">
<g clip-path="url(#clip0_3607_43812)">
<path fill-rule="evenodd" clip-rule="evenodd" d="M20.7931 51.5318C20.7931 53.7081 20.8487 54.6566 21.1033 54.9262C21.3347 55.1621 21.705 55.2681 22.8206 55.2681C23.5751 55.2681 24.2046 55.2536 24.5517 54.8203C24.7369 54.5844 24.8758 54.2136 24.9174 53.9295C24.9359 53.814 24.9637 53.737 25.047 53.737C25.1211 53.737 25.135 53.7995 25.135 53.9632C25.135 54.127 25.0331 55.0129 24.9174 55.4414C24.8202 55.7832 24.7739 55.841 24.0148 55.841C21.9642 55.841 21.02 55.7592 20.1914 55.7592C20.0664 55.7592 19.2193 55.7977 18.7935 55.7977C18.6315 55.7977 18.562 55.7688 18.562 55.687C18.562 55.6388 18.5898 55.5955 18.6778 55.5955C18.8027 55.5955 18.9786 55.5666 19.1036 55.5377C19.3906 55.4751 19.4647 55.1477 19.5202 54.7192C19.5896 54.0981 19.5896 52.9232 19.5896 51.5029V48.8884C19.5896 46.5773 19.5896 46.1584 19.5619 45.6818C19.5341 45.181 19.4184 44.9403 18.9462 44.8344C18.8351 44.8055 18.5898 44.791 18.4648 44.791C18.4047 44.791 18.3491 44.7621 18.3491 44.7044C18.3491 44.6177 18.4186 44.584 18.5759 44.584C19.2193 44.584 20.122 44.6321 20.1914 44.6321C20.2608 44.6321 21.3023 44.584 21.7374 44.584C21.8902 44.584 21.9642 44.6177 21.9642 44.7044C21.9642 44.7621 21.9041 44.791 21.8485 44.791C21.7513 44.791 21.5476 44.8055 21.3764 44.8344C20.9598 44.9114 20.8487 45.1618 20.8209 45.6818C20.7931 46.1584 20.7931 46.5773 20.7931 48.8884V51.5318ZM27.3151 54.1655C27.0606 54.9118 26.7736 55.4751 26.1163 55.5666C26.0052 55.581 25.7969 55.5955 25.7043 55.5955C25.6303 55.5955 25.5701 55.6244 25.5701 55.687C25.5701 55.7688 25.6627 55.7977 25.8478 55.7977C26.519 55.7977 27.3013 55.7592 27.4586 55.7592C27.616 55.7592 28.2317 55.7977 28.5742 55.7977C28.6992 55.7977 28.7917 55.7688 28.7917 55.687C28.7917 55.6244 28.7455 55.5955 28.6436 55.5955H28.5001C28.2548 55.5955 27.9586 55.4607 27.9586 55.1621C27.9586 54.8973 28.028 54.541 28.1576 54.1655L29.0139 51.5462C29.0463 51.4692 29.0834 51.4258 29.162 51.4258H32.231C32.3004 51.4258 32.3328 51.4595 32.3606 51.5125L33.689 55.1621C33.7724 55.4029 33.689 55.5377 33.6057 55.5666C33.5455 55.581 33.4993 55.6099 33.4993 55.6629C33.4993 55.7592 33.6613 55.7592 33.9297 55.7688C34.9157 55.7977 35.9618 55.7977 36.1747 55.7977C36.3275 55.7977 36.4617 55.7688 36.4617 55.687C36.4617 55.6099 36.4015 55.5955 36.3182 55.5955C36.1747 55.5955 35.9618 55.581 35.7442 55.504C35.4434 55.4173 35.0314 55.1766 34.5176 53.8573C33.6427 51.604 31.4024 45.4747 31.1895 44.9114C31.0182 44.454 30.958 44.377 30.8701 44.377C30.7868 44.377 30.7312 44.4684 30.5553 44.9547L27.3151 54.1655ZM29.3194 50.8914C29.2731 50.8914 29.2454 50.8625 29.2731 50.7855L30.5275 46.7795C30.6062 46.5581 30.6757 46.5581 30.7451 46.7795L32.1013 50.7855C32.1152 50.8481 32.1152 50.8914 32.0412 50.8914H29.3194ZM39.202 53.7851C39.2297 55.0032 39.3732 55.3836 39.762 55.504C40.0305 55.581 40.3453 55.5955 40.4749 55.5955C40.5443 55.5955 40.5906 55.6244 40.5906 55.687C40.5906 55.7688 40.5073 55.7977 40.3314 55.7977C39.5167 55.7977 38.9474 55.7592 38.8178 55.7592C38.6882 55.7592 38.0864 55.7977 37.4476 55.7977C37.3041 55.7977 37.2162 55.7832 37.2162 55.687C37.2162 55.6244 37.2579 55.5955 37.3319 55.5955C37.4476 55.5955 37.7022 55.581 37.9198 55.504C38.2716 55.4029 38.3456 54.9695 38.3456 53.6214L38.3595 45.1232C38.3595 44.5407 38.4012 44.377 38.5123 44.377C38.628 44.377 38.8779 44.7044 39.0168 44.8536C39.2297 45.104 41.359 47.4921 43.5577 49.9429C44.9741 51.5125 46.5294 53.3229 46.9876 53.814L46.8303 46.274C46.8164 45.311 46.7192 44.9884 46.2748 44.8632C46.0202 44.8055 45.6869 44.791 45.5758 44.791C45.474 44.791 45.4601 44.7477 45.4601 44.6899C45.4601 44.6032 45.5758 44.584 45.7471 44.584C46.3905 44.584 47.0756 44.6321 47.233 44.6321C47.3903 44.6321 47.8625 44.584 48.4457 44.584C48.6031 44.584 48.7003 44.6032 48.7003 44.6899C48.7003 44.7477 48.6448 44.791 48.5429 44.791C48.4735 44.791 48.3717 44.791 48.205 44.8344C47.7282 44.9403 47.6773 45.2725 47.6773 46.1584L47.6449 54.8492C47.6449 55.8314 47.6172 55.9036 47.5153 55.9036C47.4042 55.9036 47.233 55.7399 46.4738 54.9551C46.3165 54.8058 44.2613 52.6247 42.7476 50.9347C41.0905 49.081 39.4751 47.2081 39.0168 46.6784L39.202 53.7851ZM50.9453 51.5029C50.9453 52.9232 50.9453 54.0981 50.8712 54.7192C50.8157 55.1477 50.7462 55.4751 50.4593 55.5377C50.3343 55.5666 50.163 55.5955 50.0288 55.5955C49.9455 55.5955 49.9177 55.6388 49.9177 55.687C49.9177 55.7688 49.9871 55.7977 50.1445 55.7977C50.575 55.7977 51.4776 55.7592 51.547 55.7592C51.6905 55.7592 53.4911 55.9325 54.7178 55.9325C57.1479 55.9325 58.4301 54.8973 59.0411 54.2281C59.8465 53.3566 60.5871 51.917 60.5871 50.044C60.5871 48.2818 59.9206 47.0492 59.2031 46.274C57.4997 44.454 54.8844 44.584 53.4726 44.584C52.6163 44.584 51.7137 44.6321 51.547 44.6321C51.4776 44.6321 50.575 44.584 49.9316 44.584C49.7742 44.584 49.7048 44.6177 49.7048 44.7044C49.7048 44.7621 49.7603 44.791 49.8158 44.791C49.9455 44.791 50.1861 44.8055 50.3065 44.8344C50.774 44.9403 50.8897 45.181 50.9175 45.6818C50.9453 46.1584 50.9453 46.5773 50.9453 48.8884V51.5029ZM52.1441 48.6525C52.1441 47.5114 52.1441 45.9947 52.1627 45.4892C52.1627 45.3255 52.1997 45.2532 52.3339 45.1955C52.445 45.1329 52.9727 45.0895 53.2597 45.0895C54.9585 45.0895 56.5878 45.2966 57.9302 46.7651C58.518 47.4007 59.3049 48.6188 59.3049 50.5014C59.3049 51.8688 58.9022 53.2988 58.1616 54.0499C57.3192 54.9262 56.0879 55.427 54.7594 55.427C53.0745 55.427 52.5191 55.114 52.3339 54.8347C52.2182 54.671 52.1858 54.0788 52.1719 53.7081C52.1627 53.4288 52.1441 52.0662 52.1441 50.4918V48.6525ZM73.4876 53.8862C73.5478 54.4207 73.645 55.2536 74.2606 55.4607C74.6772 55.5955 75.0476 55.5955 75.191 55.5955C75.2605 55.5955 75.3021 55.6099 75.3021 55.6629C75.3021 55.7592 75.1725 55.7977 75.0013 55.7977C74.6865 55.7977 73.1451 55.7592 72.622 55.711C72.2888 55.687 72.2147 55.6388 72.2147 55.5666C72.2147 55.504 72.2471 55.4751 72.3165 55.4607C72.3906 55.4414 72.4045 55.191 72.3767 54.9262L71.6916 47.2707H71.6454L68.146 54.984C67.8451 55.6388 67.8081 55.7688 67.6738 55.7688C67.572 55.7688 67.5072 55.6244 67.2341 55.0899C66.8638 54.3629 65.6325 51.7966 65.5585 51.6473C65.4335 51.3825 63.8319 47.8244 63.6745 47.4199H63.6144L63.045 54.3051C63.0311 54.541 63.0311 54.8058 63.0311 55.061C63.0311 55.2825 63.1885 55.4751 63.4014 55.5136C63.6468 55.581 63.8597 55.5955 63.943 55.5955C63.9986 55.5955 64.0587 55.6244 64.0587 55.6629C64.0587 55.7688 63.9708 55.7977 63.8041 55.7977C63.2765 55.7977 62.5914 55.7592 62.4757 55.7592C62.3461 55.7592 61.661 55.7977 61.2768 55.7977C61.1333 55.7977 61.0268 55.7688 61.0268 55.6629C61.0268 55.6244 61.1009 55.5955 61.1703 55.5955C61.2907 55.5955 61.3879 55.5955 61.6055 55.5521C62.073 55.4607 62.1146 54.8829 62.1748 54.3195L63.2024 44.6418C63.2348 44.4829 63.2765 44.377 63.3598 44.377C63.4477 44.377 63.5033 44.4347 63.5727 44.6032L67.9469 53.9295L72.1453 44.6177C72.2055 44.4829 72.261 44.377 72.3628 44.377C72.46 44.377 72.5063 44.4973 72.5295 44.7766L73.4876 53.8862ZM77.274 54.1655C77.0148 54.9118 76.7278 55.4751 76.0751 55.5666C75.9594 55.581 75.7558 55.5955 75.6586 55.5955C75.5845 55.5955 75.5289 55.6244 75.5289 55.687C75.5289 55.7688 75.6169 55.7977 75.7974 55.7977C76.4732 55.7977 77.2601 55.7592 77.4129 55.7592C77.5703 55.7592 78.1859 55.7977 78.5284 55.7977C78.658 55.7977 78.7413 55.7688 78.7413 55.687C78.7413 55.6244 78.7043 55.5955 78.6025 55.5955H78.4544C78.2137 55.5955 77.9174 55.4607 77.9174 55.1621C77.9174 54.8973 77.9868 54.541 78.1165 54.1655L78.9682 51.5462C79.0006 51.4692 79.0422 51.4258 79.1163 51.4258H82.1852C82.2593 51.4258 82.287 51.4595 82.3148 51.5125L83.6433 55.1621C83.7312 55.4029 83.6433 55.5377 83.5599 55.5666C83.5044 55.581 83.4581 55.6099 83.4581 55.6629C83.4581 55.7592 83.6155 55.7592 83.8886 55.7688C84.8699 55.7977 85.916 55.7977 86.1336 55.7977C86.2863 55.7977 86.4113 55.7688 86.4113 55.687C86.4113 55.6099 86.3604 55.5955 86.2724 55.5955C86.1336 55.5955 85.916 55.581 85.7031 55.504C85.3976 55.4173 84.9856 55.1766 84.4718 53.8573C83.6016 51.604 81.3566 45.4747 81.1437 44.9114C80.9724 44.454 80.9169 44.377 80.8289 44.377C80.741 44.377 80.6808 44.4684 80.5188 44.9547L77.274 54.1655ZM79.2737 50.8914C79.2274 50.8914 79.1996 50.8625 79.2274 50.7855L80.4864 46.7795C80.5605 46.5581 80.6299 46.5581 80.6993 46.7795L82.0556 50.7855C82.0695 50.8481 82.0695 50.8914 82 50.8914H79.2737ZM87.9157 51.5029C87.9157 52.9232 87.9157 54.0981 87.8462 54.7192C87.7861 55.1477 87.712 55.4751 87.4296 55.5377C87.3 55.5666 87.1288 55.5955 87.0038 55.5955C86.9158 55.5955 86.8881 55.6388 86.8881 55.687C86.8881 55.7688 86.9575 55.7977 87.1149 55.7977C87.5407 55.7977 88.4434 55.7592 88.4619 55.7592C88.5313 55.7592 89.4293 55.7977 90.2116 55.7977C90.3689 55.7977 90.443 55.7592 90.443 55.687C90.443 55.6388 90.4152 55.5955 90.3319 55.5955C90.2023 55.5955 89.8829 55.5666 89.6839 55.5377C89.258 55.4751 89.1747 55.1477 89.1284 54.7192C89.0544 54.0981 89.0544 52.9232 89.0544 51.5029V51.1418C89.0544 51.0695 89.0868 51.031 89.1608 51.031L90.9151 51.0551C90.9985 51.0551 91.0448 51.0888 91.1003 51.1418C91.3873 51.5318 92.0585 52.5236 92.6602 53.3373C93.4703 54.4495 93.9702 55.1766 94.5858 55.5136C94.9561 55.7303 95.3125 55.7977 96.1133 55.7977H97.127C97.3862 55.7977 97.4742 55.7688 97.4742 55.687C97.4742 55.6388 97.4186 55.5955 97.3446 55.5955C97.2613 55.5955 97.0622 55.5955 96.7845 55.5521C96.4327 55.4895 95.8124 55.3258 95.0441 54.4832C94.2155 53.5588 93.2481 52.2395 92.0723 50.6795C93.3545 49.4518 93.7989 48.354 93.7989 47.2562C93.7989 46.2307 93.174 45.5036 92.813 45.2388C92.0585 44.6755 91.1003 44.584 90.2023 44.584C89.7579 44.584 88.6702 44.6321 88.5174 44.6321C88.4434 44.6321 87.5407 44.584 86.902 44.584C86.7446 44.584 86.6705 44.6177 86.6705 44.7044C86.6705 44.7621 86.7261 44.791 86.7862 44.791C86.9158 44.791 87.1565 44.8055 87.2723 44.8344C87.7444 44.9403 87.8601 45.181 87.8879 45.6818C87.9157 46.1584 87.9157 46.5773 87.9157 48.8884V51.5029ZM89.0544 45.3255C89.0544 45.2388 89.1006 45.181 89.1747 45.1521C89.3182 45.104 89.7024 45.0655 90.1282 45.0655C91.6604 45.0655 92.6 46.1729 92.6 48.0218C92.6 49.1581 92.2297 49.9573 91.7298 50.3088C91.4012 50.5495 90.9985 50.5929 90.6606 50.5929C90.031 50.5929 89.3691 50.4918 89.1608 50.357C89.0868 50.3088 89.0544 50.2558 89.0544 50.1788V45.3255ZM99.0017 48.8884C99.0017 46.5773 99.0017 46.1584 98.9693 45.6818C98.9462 45.181 98.8304 44.9403 98.3583 44.8344C98.2426 44.8055 98.0019 44.791 97.8723 44.791C97.8121 44.791 97.7612 44.7621 97.7612 44.7044C97.7612 44.6177 97.8306 44.584 97.988 44.584C98.6314 44.584 99.4738 44.6321 99.5618 44.6321C99.6868 44.6321 100.52 44.584 100.941 44.584C101.099 44.584 101.173 44.6177 101.173 44.7044C101.173 44.7621 101.112 44.791 101.062 44.791C100.96 44.791 100.867 44.8055 100.7 44.8344C100.312 44.9114 100.205 45.1618 100.173 45.6818C100.15 46.1584 100.15 46.5773 100.15 48.8884V49.7792H100.205C100.441 49.4999 103.029 46.7651 103.543 46.1873C103.945 45.754 104.316 45.3736 104.316 45.1232C104.316 44.9403 104.246 44.8536 104.13 44.8055C104.056 44.7766 104.001 44.7477 104.001 44.6899C104.001 44.6177 104.075 44.584 104.177 44.584C104.459 44.584 104.903 44.6321 105.246 44.6321C105.315 44.6321 106.26 44.584 106.616 44.584C106.773 44.584 106.834 44.6177 106.834 44.6899C106.834 44.7621 106.801 44.791 106.686 44.791C106.473 44.791 106.172 44.8632 105.885 44.9981C105.302 45.2725 104.987 45.6384 104.343 46.274C103.987 46.6351 101.501 49.1581 101.2 49.5288C101.571 49.9573 104.542 53.1447 105.13 53.7081C106.334 54.8636 106.574 55.1044 107.255 55.4029C107.63 55.5666 108.042 55.5955 108.144 55.5955C108.245 55.5955 108.333 55.6244 108.333 55.687C108.333 55.7592 108.255 55.7977 108.019 55.7977H107.292C106.885 55.7977 106.616 55.7977 106.301 55.7688C105.542 55.7014 105.186 55.374 104.57 54.8636C103.931 54.3195 100.904 50.9251 100.214 50.044H100.15V51.5029C100.15 52.9232 100.15 54.0981 100.214 54.7192C100.261 55.1477 100.344 55.4751 100.77 55.5377C100.974 55.5666 101.2 55.5955 101.33 55.5955C101.418 55.5955 101.446 55.6388 101.446 55.687C101.446 55.7592 101.372 55.7977 101.214 55.7977C100.52 55.7977 99.6868 55.7592 99.571 55.7592C99.46 55.7592 98.6314 55.7977 98.2009 55.7977C98.0435 55.7977 97.9695 55.7688 97.9695 55.687C97.9695 55.6388 98.0019 55.5955 98.0898 55.5955C98.2194 55.5955 98.3907 55.5666 98.5157 55.5377C98.8027 55.4751 98.8721 55.1477 98.9276 54.7192C99.0017 54.0981 99.0017 52.9232 99.0017 51.5029V48.8884ZM75.2281 65.6777C75.2281 64.734 75.1679 64.604 74.7235 64.4836C74.6356 64.4547 74.4458 64.4403 74.344 64.4403C74.2977 64.4403 74.256 64.4258 74.256 64.3777C74.256 64.3055 74.3116 64.2814 74.4365 64.2814C74.9365 64.2814 75.64 64.3151 75.6956 64.3151C75.7511 64.3151 76.4547 64.2814 76.7926 64.2814C76.913 64.2814 76.9685 64.3055 76.9685 64.3777C76.9685 64.4258 76.9222 64.4403 76.8806 64.4403C76.8019 64.4403 76.7324 64.4547 76.5982 64.4836C76.2973 64.5366 76.2094 64.734 76.1816 65.1384C76.1677 65.514 76.1677 65.8607 76.1677 66.347V67.647C76.1677 68.167 76.1538 68.191 76.0196 68.2729C75.3021 68.6677 74.2977 68.7929 73.6543 68.7929C72.8072 68.7929 71.2149 68.6773 69.979 67.5507C69.2986 66.9392 68.6505 65.697 68.6505 64.2477C68.6505 62.394 69.5207 61.0844 70.5159 60.4295C71.5204 59.7844 72.622 59.6977 73.4876 59.6977C74.1912 59.6977 74.9827 59.8518 75.1957 59.8999C75.4271 59.9577 75.8159 60.0058 76.0983 60.0155C76.2094 60.0299 76.2279 60.0781 76.2279 60.1166C76.2279 60.2803 76.1538 60.6077 76.1538 61.7681C76.1538 61.951 76.1307 62.0088 76.052 62.0088C75.9965 62.0088 75.9872 61.9414 75.9779 61.8355C75.9641 61.6718 75.9085 61.3492 75.7419 61.0699C75.4595 60.627 74.5569 60.131 73.1173 60.131C72.4137 60.131 71.5759 60.2032 70.7289 60.8966C70.0808 61.431 69.6226 62.4903 69.6226 63.8432C69.6226 65.4803 70.4141 66.6599 70.8076 67.0547C71.687 67.9503 72.7054 68.2921 73.733 68.2921C74.131 68.2921 74.7143 68.2247 75.0013 68.0514C75.1494 67.9695 75.2281 67.8395 75.2281 67.647V65.6777ZM78.2276 65.2684C78.2276 66.3855 78.2275 67.3003 78.1766 67.7866C78.1303 68.1236 78.0794 68.3788 77.8526 68.4221C77.7508 68.4462 77.6165 68.4655 77.5193 68.4655C77.4499 68.4655 77.4221 68.4992 77.4221 68.5425C77.4221 68.6099 77.4869 68.634 77.6073 68.634C77.9406 68.634 78.6441 68.6003 78.658 68.6003C78.7136 68.6003 79.4125 68.634 80.0282 68.634C80.1531 68.634 80.2087 68.6003 80.2087 68.5425C80.2087 68.4992 80.1855 68.4655 80.1161 68.4655C80.0189 68.4655 79.7736 68.4462 79.6162 68.4221C79.2783 68.3788 79.2135 68.1236 79.1811 67.7866C79.1255 67.3003 79.1255 66.3855 79.1255 65.2684V64.9892C79.1255 64.9314 79.1441 64.8977 79.2042 64.8977L80.579 64.9218C80.6392 64.9218 80.6762 64.941 80.7225 64.9892C80.9447 65.2877 81.4677 66.0725 81.9399 66.7081C82.574 67.5747 82.9628 68.1429 83.4442 68.4125C83.7312 68.5762 84.0136 68.634 84.6385 68.634H85.4346C85.629 68.634 85.7031 68.6099 85.7031 68.5425C85.7031 68.4992 85.6568 68.4655 85.5966 68.4655C85.5318 68.4655 85.3791 68.4655 85.1615 68.4366C84.8838 68.3884 84.407 68.2632 83.8053 67.6036C83.1526 66.8814 82.3935 65.8462 81.477 64.6281C82.4814 63.6699 82.8332 62.8081 82.8332 61.951C82.8332 61.1518 82.3379 60.5836 82.0602 60.3766C81.4677 59.9336 80.7225 59.8662 80.0189 59.8662C79.6717 59.8662 78.8247 59.8999 78.7043 59.8999C78.6441 59.8999 77.9406 59.8662 77.4407 59.8662C77.3157 59.8662 77.2601 59.8855 77.2601 59.9577C77.2601 60.0058 77.3018 60.0299 77.3527 60.0299C77.4499 60.0299 77.6397 60.0395 77.7276 60.0636C78.0933 60.1407 78.1859 60.3284 78.209 60.7232C78.2275 61.094 78.2276 61.4166 78.2276 63.227V65.2684ZM79.1255 60.4392C79.1255 60.3766 79.1579 60.3284 79.2135 60.3092C79.3246 60.2707 79.6301 60.237 79.9587 60.237C81.153 60.237 81.8936 61.1036 81.8936 62.5529C81.8936 63.4388 81.602 64.0599 81.2131 64.344C80.9539 64.527 80.6392 64.5607 80.3753 64.5607C79.8847 64.5607 79.3755 64.4836 79.2042 64.3777C79.1441 64.344 79.1255 64.2958 79.1255 64.2381V60.4392Z" fill="black"/>
<path fill-rule="evenodd" clip-rule="evenodd" d="M85.1199 64.2382C85.1199 66.323 86.3928 68.793 89.4525 68.793C92.1418 68.793 93.9054 66.6504 93.9054 64.0504C93.9054 61.3493 92.0307 59.7026 89.5219 59.7026C86.4345 59.7026 85.1199 62.3604 85.1199 64.2382ZM86.1799 63.9108C86.1799 61.3734 87.5731 60.0975 89.4432 60.0975C91.2021 60.0975 92.8361 61.59 92.8361 64.3778C92.8361 67.753 90.7578 68.35 89.7533 68.35C87.7444 68.35 86.1799 66.6119 86.1799 63.9108ZM95.0904 63.2271C95.0904 61.4167 95.0904 61.0941 95.0718 60.7234C95.0441 60.3286 94.9561 60.1408 94.5858 60.0637C94.4979 60.0397 94.3081 60.03 94.2109 60.03C94.16 60.03 94.1229 60.006 94.1229 59.9578C94.1229 59.8856 94.1785 59.8663 94.2988 59.8663C94.8034 59.8663 95.4792 59.9 95.581 59.9C95.6828 59.9 96.354 59.8663 96.6873 59.8663C96.8123 59.8663 96.8632 59.8856 96.8632 59.9578C96.8632 60.006 96.8215 60.03 96.7752 60.03C96.7012 60.03 96.6318 60.0397 96.4975 60.0637C96.1966 60.1071 96.1041 60.3189 96.0856 60.7234C96.0578 61.0941 96.0578 61.4167 96.0578 63.2271V64.8545C96.0578 66.5204 96.4188 67.2378 96.8956 67.7145C97.4464 68.2537 97.951 68.35 98.5851 68.35C99.2655 68.35 99.9367 68.0178 100.339 67.5171C100.853 66.8575 100.987 65.8704 100.987 64.6812V63.2271C100.987 61.4167 100.987 61.0941 100.964 60.7234C100.937 60.3286 100.853 60.1408 100.483 60.0637C100.395 60.0397 100.205 60.03 100.103 60.03C100.062 60.03 100.015 60.006 100.015 59.9578C100.015 59.8856 100.066 59.8663 100.191 59.8663C100.691 59.8663 101.307 59.9 101.376 59.9C101.455 59.9 101.978 59.8663 102.311 59.8663C102.436 59.8663 102.492 59.8856 102.492 59.9578C102.492 60.006 102.45 60.03 102.404 60.03C102.33 60.03 102.256 60.03 102.126 60.0637C101.821 60.1167 101.737 60.3189 101.714 60.7234C101.686 61.0941 101.686 61.4167 101.686 63.2271V64.4693C101.686 65.7212 101.557 67.1126 100.663 67.936C99.858 68.6775 99.0202 68.793 98.3583 68.793C97.9834 68.793 96.8586 68.7449 96.0578 67.9697C95.5162 67.4256 95.0904 66.6119 95.0904 64.9219V63.2271Z" fill="black"/>
<path fill-rule="evenodd" clip-rule="evenodd" d="M104.362 63.227C104.362 61.4166 104.362 61.094 104.334 60.7232C104.316 60.3284 104.223 60.1407 103.853 60.0636C103.765 60.0395 103.575 60.0299 103.473 60.0299C103.427 60.0299 103.385 60.0058 103.385 59.9577C103.385 59.8855 103.445 59.8662 103.57 59.8662C104.066 59.8662 104.737 59.8999 104.825 59.8999C105.07 59.8999 105.723 59.8662 106.232 59.8662C107.63 59.8662 108.134 60.3525 108.31 60.5258C108.556 60.7714 108.87 61.2914 108.87 61.9077C108.87 63.5544 107.709 64.6666 106.126 64.6666C106.07 64.6666 105.945 64.6666 105.889 64.6521C105.834 64.6521 105.769 64.6281 105.769 64.5751C105.769 64.4836 105.834 64.4692 106.07 64.4692C107.148 64.4692 108 63.6458 108 62.577C108 62.1966 107.963 61.4166 107.375 60.7907C106.783 60.1647 106.102 60.2129 105.848 60.2129C105.653 60.2129 105.464 60.237 105.362 60.2803C105.297 60.3092 105.274 60.3862 105.274 60.5066V65.2684C105.274 66.3855 105.274 67.3003 105.329 67.7866C105.362 68.1236 105.427 68.3788 105.769 68.4221C105.922 68.4462 106.167 68.4655 106.269 68.4655C106.334 68.4655 106.357 68.4992 106.357 68.5425C106.357 68.6003 106.301 68.634 106.176 68.634C105.565 68.634 104.862 68.6003 104.806 68.6003C104.769 68.6003 104.066 68.634 103.732 68.634C103.607 68.634 103.552 68.6099 103.552 68.5425C103.552 68.4992 103.575 68.4655 103.644 68.4655C103.742 68.4655 103.876 68.4462 103.978 68.4221C104.2 68.3788 104.255 68.1236 104.302 67.7866C104.362 67.3003 104.362 66.3855 104.362 65.2684V63.227Z" fill="black"/>
<path fill-rule="evenodd" clip-rule="evenodd" d="M14.4193 52.7645C14.4193 52.7693 14.4193 52.7741 14.4147 52.779H10.0451V54.5941H12.9705C12.0956 55.2971 11.0866 55.5427 9.89231 55.5427C7.78157 55.5427 5.9717 54.2186 5.17092 52.3312H13.5121V52.3264H16.4652C16.6411 51.7486 16.7476 51.1419 16.7754 50.5064H15.0488C15.0488 50.5112 15.0442 50.516 15.0442 50.516L4.74507 50.5208V50.5064H3.01389C3.18052 54.3052 6.19389 57.3338 9.89231 57.3338C12.8872 57.3338 15.3404 55.5282 16.294 52.7645H14.4193ZM14.6183 48.229L5.14314 48.2338C5.93467 46.3319 7.75843 45.003 9.8738 45.003V43.2119C6.18 43.2119 3.16664 46.2356 3 50.0297H16.7569C16.7337 49.4038 16.6272 48.8019 16.4514 48.229H14.6183Z" fill="black"/>
</g>
<defs>
<clipPath id="clip0_3607_43812">
<rect width="106" height="26" fill="white" transform="translate(3 43)"/>
</clipPath>
</defs>
</svg>
