<svg width="112" height="112" viewBox="0 0 112 112" fill="none" xmlns="http://www.w3.org/2000/svg">
<path d="M79.8308 76.5C91.2461 76.5 100.5 67.3218 100.5 56C100.5 44.6782 91.2461 35.5 79.8308 35.5C68.4155 35.5 59.1616 44.6782 59.1616 56C59.1616 67.3218 68.4155 76.5 79.8308 76.5Z" fill="white"/>
<path d="M60.6574 56C60.6574 63.8898 65.4847 70.6333 72.3518 73.5329C76.2952 71.6448 79.3548 68.2056 79.7628 65.1711C80.6466 60.2484 77.927 55.8652 72.6917 54.7862C72.6237 54.7862 72.4877 54.7862 72.4198 54.7188C72.2158 54.7188 69.7001 54.7188 67.7284 54.2468C67.7284 54.2468 66.5725 55.1234 67.0485 56.8092C67.0485 56.8092 64.4648 54.1119 66.0966 50.4704C66.0966 50.4704 66.9125 48.7846 69.6321 47.0313C69.6321 47.0313 69.6321 47.0313 69.6321 46.9639C70.38 46.0872 72.0798 44.6037 74.6635 43.3898C75.9553 42.7829 78.199 41.9737 80.6467 41.7714C91.6612 40.7599 97.4404 48.7846 97.7803 49.3241C94.9927 42.176 87.9897 37.051 79.8308 37.051C71.6719 37.051 60.5894 45.6152 60.5894 56.1349L60.6574 56Z" fill="black"/>
<path d="M90.7773 71.6447C93.293 69.8915 95.3327 67.5987 96.7605 64.9013C94.5168 58.9671 89.3495 54.1118 82.4824 52.6283C84.6581 53.2352 93.9049 57.551 91.7972 68.6776C91.5252 69.6892 91.1853 70.7007 90.7093 71.5773L90.7773 71.6447Z" fill="black"/>
<path d="M87.3098 45.9523C81.8025 45.2106 77.1791 46.6267 73.5076 49.1892C73.5076 49.1892 74.5955 48.5823 76.2273 47.9754C76.4992 49.0543 77.3831 49.9309 78.5389 50.1332C80.1707 50.4704 81.6665 49.5263 82.0065 48.0428C82.0745 47.6382 82.0065 47.2336 82.0065 46.829C92.3411 46.4918 97.9843 54.0444 99.0042 56.4046C99.0042 56.2698 99.0042 56.1349 99.0042 56C99.0042 54.5839 98.8682 53.2352 98.5962 51.954C96.4885 49.4589 92.1371 46.4918 87.3098 45.9523Z" fill="black"/>
<path d="M14.7636 59.1021H16.5313L19.7949 67.8011H17.8231L17.1432 65.778H14.0836L13.4037 67.8011H11.5L14.7636 59.1021ZM16.6673 64.2945L15.5794 61.1925L14.4916 64.2945H16.5993H16.6673Z" fill="black"/>
<path d="M20.8828 59.102H24.1463C25.5061 59.102 26.526 59.4391 27.2739 60.1809C28.0218 60.9227 28.4297 62.0017 28.4297 63.4178C28.4297 64.8339 28.2938 64.7665 28.0898 65.3059C27.8858 65.8454 27.6138 66.3174 27.2059 66.6546C26.798 67.0592 26.322 67.329 25.7781 67.4638C25.2342 67.6661 24.5543 67.7336 23.8743 67.7336H20.8828V59.0345V59.102ZM23.8743 66.25C24.3503 66.25 24.7582 66.25 25.0982 66.0477C25.4381 65.9128 25.7101 65.7105 25.9141 65.4408C26.118 65.1711 26.254 64.9013 26.39 64.5641C26.526 64.227 26.526 63.8224 26.526 63.4178C26.526 63.0132 26.526 62.6086 26.39 62.2714C26.322 61.9342 26.186 61.6645 25.9821 61.3947C25.7781 61.1924 25.5741 60.9901 25.2342 60.8553C24.9622 60.7204 24.5543 60.653 24.1463 60.653H22.7185V66.25H23.8743Z" fill="black"/>
<path d="M29.8575 59.1021H31.4893L35.0928 64.7665V59.1021H36.8606V67.8011H35.2288L31.6253 62.1366V67.8011H29.8575V59.1021Z" fill="black"/>
<path d="M20.8827 53.5049V45.8174H22.7185V55.1233H15.1035C13.8797 55.1233 12.9958 54.8536 12.3839 54.3141C11.772 53.7746 11.5 53.0328 11.5 51.9539C11.5 50.8749 11.636 50.8749 11.84 50.4029C12.1119 49.9309 12.4519 49.5937 12.9278 49.324C13.4037 49.0542 13.9477 48.9194 14.6276 48.8519L14.8315 50.4029C14.2196 50.4029 13.8117 50.6052 13.5397 50.8075C13.2678 51.0773 13.1318 51.4144 13.1318 51.8865C13.1318 52.3585 13.2678 52.8305 13.5397 53.1003C13.8117 53.37 14.2876 53.5049 14.8995 53.5049H20.7468H20.8827ZM19.183 49.5937V50.2006H16.8713V49.5937H17.1432V49.1891C17.1432 48.8519 17.2112 48.6496 17.4152 48.4473C17.6192 48.245 17.8231 48.1776 18.1631 48.1776C18.5031 48.1776 18.707 48.1776 18.843 48.3799C18.979 48.5147 19.115 48.7171 19.115 49.0542H18.5031C18.5031 48.9868 18.5031 48.8519 18.3671 48.8519C18.3671 48.8519 18.2311 48.7845 18.0951 48.7845C17.8231 48.7845 17.6872 48.9194 17.6872 49.2565V49.5937H19.115H19.183Z" fill="black"/>
<path d="M40.1241 48.6497V53.5049H30.0615V51.6842C30.0615 50.6727 29.7895 49.9309 29.3136 49.3914C28.8377 48.9194 28.0898 48.6497 27.1379 48.6497C26.186 48.6497 25.4381 48.9194 24.8942 49.4589C24.3503 49.9983 24.0783 50.7401 24.0783 51.6168C24.0783 52.4934 24.4183 53.6398 25.0982 54.2467C25.7781 54.8536 26.7299 55.1233 28.0218 55.1233H28.2257V55.3256C28.2257 56 28.1578 56.472 27.9538 56.6743L28.8377 58.0904C28.9736 58.023 29.1096 57.8881 29.2456 57.7533C29.7215 57.2812 29.9935 56.1348 29.9935 55.1233H41.8239V48.6497H40.0562H40.1241ZM28.3617 53.5049H27.8178C26.594 53.5049 25.982 52.7631 25.982 51.6168C25.982 50.4704 26.118 50.7401 26.322 50.4704C26.526 50.2006 26.8659 50.0658 27.2739 50.0658C27.6818 50.0658 27.8178 50.0658 27.9538 50.2006C28.0898 50.2681 28.2257 50.4704 28.2937 50.7401C28.3617 51.0098 28.4297 51.4819 28.4297 52.0214V53.4375L28.3617 53.5049Z" fill="black"/>
<path d="M41.8919 47.7731V46.0198H40.1241V47.7731H41.8919Z" fill="black"/>
<path d="M50.2548 53.5049V52.5608C50.2548 51.7516 50.1188 51.1447 49.7788 50.8076C49.5069 50.4029 49.0309 50.2681 48.351 50.2681C47.6711 50.2681 47.5351 50.3355 46.9912 50.4704L46.5833 48.9194C47.1952 48.7171 47.8071 48.6497 48.487 48.6497C49.5748 48.6497 50.4587 48.9868 51.0706 49.5937C51.6826 50.2681 51.9545 51.1447 51.9545 52.3585V55.0559H43.1157V53.4375H50.1868L50.2548 53.5049Z" fill="black"/>
<path d="M55.558 45.4128V46.0197H53.2463V45.4128H53.5183V45.0082C53.5183 44.671 53.5863 44.4687 53.7903 44.2664C53.9942 44.0641 54.1982 43.9967 54.5382 43.9967C54.8781 43.9967 55.0821 43.9967 55.2181 44.199C55.3541 44.3339 55.49 44.5362 55.49 44.8733H54.8781C54.8781 44.8059 54.8781 44.671 54.7421 44.671C54.7421 44.671 54.6062 44.6036 54.4702 44.6036C54.1982 44.6036 54.0622 44.7385 54.0622 45.0757V45.4128H55.49H55.558Z" fill="black"/>
<path d="M55.3541 46.6941H53.5863V55.1234H55.3541V46.6941Z" fill="black"/>
<path d="M42.5718 68.0033C41.8919 68.0033 41.348 67.8685 40.8041 67.6662C40.2601 67.4639 39.8522 67.1267 39.5122 66.7221C39.1723 66.3175 38.9003 65.8454 38.6963 65.306C38.4924 64.7665 38.4244 64.0921 38.4244 63.4178C38.4244 62.7435 38.4924 62.0691 38.6963 61.5296C38.9003 60.9902 39.1723 60.5181 39.5122 60.1135C39.8522 59.7089 40.3281 59.4392 40.8041 59.1694C41.348 58.9671 41.8919 58.8323 42.5718 58.8323C43.2517 58.8323 43.7957 58.9671 44.3396 59.1694C44.8835 59.3717 45.2914 59.7089 45.6314 60.1135C45.9714 60.5181 46.2433 60.9902 46.4473 61.5296C46.6513 62.0691 46.7193 62.7435 46.7193 63.4178C46.7193 64.0921 46.6513 64.7665 46.4473 65.306C46.2433 65.8454 45.9714 66.3175 45.6314 66.7221C45.2914 67.1267 44.8155 67.3964 44.3396 67.6662C43.7957 67.8685 43.2517 68.0033 42.5718 68.0033ZM42.5718 66.4523C43.3197 66.4523 43.9316 66.1826 44.2716 65.6431C44.6795 65.1037 44.8155 64.3619 44.8155 63.4178C44.8155 62.4737 44.6115 61.7319 44.2716 61.1925C43.8636 60.653 43.3197 60.3833 42.5718 60.3833C41.8239 60.3833 41.212 60.653 40.872 61.1925C40.4641 61.7319 40.3281 62.4737 40.3281 63.4178C40.3281 64.3619 40.5321 65.1037 40.872 65.6431C41.28 66.1826 41.8239 66.4523 42.5718 66.4523Z" fill="black"/>
<path d="M55.6941 64.7665C55.6941 65.2385 55.5581 65.6431 55.3541 66.0477C55.1501 66.4523 54.9462 66.7895 54.6062 67.0593C54.2663 67.329 53.9263 67.5987 53.4504 67.7336C52.9744 67.8685 52.4985 68.0033 51.8866 68.0033C51.2747 68.0033 50.6627 67.8685 50.1188 67.6662C49.6429 67.4639 49.1669 67.1267 48.827 66.7221C48.487 66.3175 48.2151 65.8454 48.0791 65.306C47.8751 64.7665 47.8071 64.0921 47.8071 63.4178C47.8071 62.7435 47.8751 62.0691 48.0791 61.5296C48.2831 60.9902 48.555 60.5181 48.895 60.1135C49.2349 59.7089 49.6429 59.4392 50.1868 59.1694C50.6627 58.9671 51.2747 58.8323 51.8866 58.8323C52.4985 58.8323 52.9064 58.8997 53.3144 59.0346C53.7223 59.1694 54.0623 59.3718 54.3343 59.6415C54.6062 59.9112 54.8102 60.181 55.0142 60.5856C55.2181 60.9227 55.2861 61.3273 55.4221 61.7994L53.5863 62.0017C53.5184 61.4622 53.3144 61.0576 53.0424 60.7879C52.7705 60.5181 52.3625 60.3833 51.8186 60.3833C51.2747 60.3833 50.5948 60.653 50.1868 61.1925C49.8469 61.7319 49.6429 62.4737 49.6429 63.4178C49.6429 64.3619 49.8469 65.1037 50.2548 65.6431C50.6627 66.1826 51.1387 66.4523 51.8186 66.4523C52.4985 66.4523 52.7705 66.3175 53.0424 66.0477C53.3144 65.778 53.4504 65.3734 53.5184 64.8339H55.4901L55.6941 64.7665Z" fill="black"/>
</svg>
