<svg width="112" height="112" viewBox="0 0 112 112" fill="none" xmlns="http://www.w3.org/2000/svg">
<g clip-path="url(#clip0_3607_44015)">
<path d="M31.6646 49.9619H36.0424V51.2444H33.1594V52.0726H35.7755V53.2749H33.1594V54.1299H36.0958V55.4123H31.6646V49.9619Z" fill="black"/>
<path d="M36.8167 49.9619H38.3382V54.1031H40.981V55.439H36.8167V49.9886V49.9619Z" fill="black"/>
<path d="M41.5681 49.9619H43.0897V54.1031H45.7324V55.439H41.5681V49.9886V49.9619Z" fill="black"/>
<path d="M46.293 49.9619H50.6708V51.2444H47.7878V52.0726H50.4039V53.2749H47.7878V54.1299H50.7242V55.4123H46.293V49.9619Z" fill="black"/>
<path d="M51.4451 49.9619H52.8599L55.1022 52.8474V49.9619H56.5971V55.4123H55.2623L52.9399 52.4199V55.4123H51.4451V49.9619Z" fill="black"/>
<path d="M59.7202 49.9619H61.3219L62.6299 52.0726L63.9379 49.9619H65.5396V55.4123H64.0447V52.2863L62.6566 54.4237H62.6299L61.2418 52.3131V55.439H59.7736V49.9886L59.7202 49.9619Z" fill="black"/>
<path d="M68.3159 49.9351H69.7841L72.1065 55.4389H70.4781L70.0777 54.4503H67.9689L67.5685 55.4389H65.9668L68.2892 49.9351H68.3159ZM69.6506 53.2748L69.0366 51.7251L68.4227 53.2748H69.6506Z" fill="black"/>
<path d="M71.9729 52.7138C71.9729 51.1107 73.2008 49.855 74.8559 49.855C76.5109 49.855 76.6978 50.3359 77.1783 51.0038L76.0304 51.8855C75.7101 51.4848 75.3631 51.2443 74.8292 51.2443C74.0551 51.2443 73.5212 51.8855 73.5212 52.687C73.5212 53.5153 74.0551 54.1565 74.8292 54.1565C75.6033 54.1565 75.7368 53.8893 76.0571 53.4886L77.205 54.2901C76.6978 55.0115 76.0037 55.5191 74.7758 55.5191C73.5479 55.5191 71.9729 54.3168 71.9729 52.687V52.7138Z" fill="black"/>
<path d="M79.5273 49.9351H80.9955L83.3179 55.4389H81.6896L81.2891 54.4503H79.1803L78.7799 55.4389H77.1782L79.5006 49.9351H79.5273ZM80.862 53.2748L80.2481 51.7251L79.6341 53.2748H80.862Z" fill="black"/>
<path d="M83.7185 49.9619H86.3079C87.1354 49.9619 87.7226 50.1757 88.0964 50.5497C88.4167 50.8703 88.5769 51.2711 88.5769 51.8321C88.5769 52.6871 88.1231 53.2482 87.4557 53.5153L88.7637 55.4123H87.0286L85.9341 53.7558H85.2668V55.4123H83.7452V49.9619H83.7185ZM86.2278 52.5802C86.735 52.5802 87.0286 52.3398 87.0286 51.939C87.0286 51.4848 86.7083 51.2711 86.2011 51.2711H85.2134V52.5802H86.2011H86.2278Z" fill="black"/>
<path d="M90.5522 51.2978H88.9238V49.9619H93.7021V51.2978H92.0738V55.439H90.5522V51.2978Z" fill="black"/>
<path d="M94.2361 49.9619H95.7577V52.0192H97.7063V49.9619H99.2279V55.4123H97.7063V53.3283H95.7577V55.4123H94.2361V49.9619Z" fill="black"/>
<path d="M100.082 53.0344V49.9619H101.63V53.0077C101.63 53.8092 102.031 54.1833 102.645 54.1833C103.259 54.1833 103.659 53.836 103.659 53.0612V49.9886H105.207V53.0077C105.207 54.7711 104.193 55.5459 102.645 55.5459C101.096 55.5459 100.109 54.7444 100.109 53.0612L100.082 53.0344Z" fill="black"/>
<path d="M105.981 49.9619H108.571C109.398 49.9619 109.986 50.1757 110.359 50.5497C110.68 50.8703 110.84 51.2711 110.84 51.8321C110.84 52.6871 110.386 53.2482 109.719 53.5153L111.027 55.4123H109.292L108.197 53.7558H107.53V55.4123H106.008V49.9619H105.981ZM108.491 52.5802C108.998 52.5802 109.292 52.3398 109.292 51.939C109.292 51.4848 108.971 51.2711 108.464 51.2711H107.476V52.5802H108.464H108.491Z" fill="black"/>
<path d="M31.6646 57.1755H36.0424V58.5114H33.1861V59.4465H35.7755V60.7023H33.1861V62.6526H31.6646V57.2023V57.1755Z" fill="black"/>
<path d="M36.3628 59.9275C36.3628 58.3512 37.6174 57.0687 39.2992 57.0687C40.9809 57.0687 42.2355 58.3245 42.2355 59.9008C42.2355 61.4771 40.9809 62.7596 39.2992 62.7596C37.6174 62.7596 36.3628 61.5038 36.3628 59.9275ZM40.6873 59.9275C40.6873 59.126 40.1267 58.4313 39.2725 58.4313C38.4183 58.4313 37.8844 59.0993 37.8844 59.9008C37.8844 60.7023 38.4449 61.397 39.2725 61.397C40.1 61.397 40.6606 60.729 40.6606 59.9275H40.6873Z" fill="black"/>
<path d="M42.8494 60.2481V57.1755H44.3976V60.2213C44.3976 61.0229 44.7981 61.3969 45.412 61.3969C46.026 61.3969 46.4264 61.0496 46.4264 60.2748V57.2023H47.9747V60.2213C47.9747 61.9847 46.9603 62.7595 45.412 62.7595C43.8638 62.7595 42.8761 61.958 42.8761 60.2748L42.8494 60.2481Z" fill="black"/>
<path d="M48.7756 57.1755H50.1904L52.4328 60.061V57.1755H53.9276V62.6259H52.5929L50.2705 59.6336V62.6259H48.7756V57.1755Z" fill="black"/>
<path d="M54.8885 57.1755H56.9974C58.946 57.1755 60.0672 58.2977 60.0672 59.874C60.0672 61.4771 58.9193 62.6259 56.944 62.6259H54.8618V57.1755H54.8885ZM57.0241 61.3168C57.9317 61.3168 58.5189 60.8091 58.5189 59.9274C58.5189 59.0458 57.9317 58.5381 57.0241 58.5381H56.4101V61.3168H57.0241Z" fill="black"/>
<path d="M62.2295 57.1489H63.6977L66.0201 62.6527H64.3917L63.9913 61.6642H61.8824L61.482 62.6527H59.8804L62.2028 57.1489H62.2295ZM63.5375 60.4886L62.9235 58.939L62.3096 60.4886H63.5375Z" fill="black"/>
<path d="M66.9545 58.5114H65.3262V57.1755H70.1044V58.5114H68.4761V62.6526H66.9545V58.5114Z" fill="black"/>
<path d="M70.5847 57.1755H72.1063V62.6259H70.5847V57.1755Z" fill="black"/>
<path d="M72.7205 59.9275C72.7205 58.3512 73.9751 57.0687 75.6568 57.0687C77.3386 57.0687 78.5932 58.3245 78.5932 59.9008C78.5932 61.4771 77.3386 62.7596 75.6568 62.7596C73.9751 62.7596 72.7205 61.5038 72.7205 59.9275ZM77.0449 59.9275C77.0449 59.126 76.4844 58.4313 75.6301 58.4313C74.7759 58.4313 74.242 59.0993 74.242 59.9008C74.242 60.7023 74.8026 61.397 75.6301 61.397C76.4577 61.397 77.0182 60.729 77.0182 59.9275H77.0449Z" fill="black"/>
<path d="M79.2339 57.1755H80.6487L82.891 60.061V57.1755H84.3859V62.6259H83.0512L80.7288 59.6336V62.6259H79.2339V57.1755Z" fill="black"/>
<path d="M15.4878 70C7.77316 70 1.5 63.7214 1.5 56C1.5 48.2786 7.77316 42 15.4878 42C23.2025 42 29.4756 48.2786 29.4756 56C29.4756 63.7214 23.2025 70 15.4878 70ZM15.4878 43.8969C8.81424 43.8969 3.39529 49.3206 3.39529 56C3.39529 62.6794 8.81424 68.1031 15.4878 68.1031C22.1614 68.1031 27.5803 62.6794 27.5803 56C27.5803 49.3206 22.1347 43.8969 15.4878 43.8969ZM16.5823 67.6756C10.8163 67.6756 6.11811 62.9733 6.11811 57.2023C6.11811 51.4313 10.8163 46.7557 16.5823 46.7557C22.3482 46.7557 27.0464 51.458 27.0464 57.229C27.0464 63 22.3482 67.7023 16.5823 67.7023V67.6756ZM16.5823 48.5992C11.8307 48.5992 7.96002 52.4733 7.96002 57.229C7.96002 61.9847 11.8307 65.8588 16.5823 65.8588C21.3339 65.8588 25.2045 61.9847 25.2045 57.229C25.2045 52.4733 21.3339 48.5992 16.5823 48.5992ZM15.4878 63.0802C11.6171 63.0802 8.46721 59.9275 8.46721 56.0534C8.46721 52.1794 11.6171 49.0267 15.4878 49.0267C19.3585 49.0267 22.5084 52.1794 22.5084 56.0534C22.5084 59.9275 19.3585 63.0802 15.4878 63.0802ZM15.4878 50.8168C12.6048 50.8168 10.2557 53.1679 10.2557 56.0534C10.2557 58.9389 12.6048 61.2901 15.4878 61.2901C18.3708 61.2901 20.7199 58.9389 20.7199 56.0534C20.7199 53.1679 18.3708 50.8168 15.4878 50.8168Z" fill="black"/>
</g>
<defs>
<clipPath id="clip0_3607_44015">
<rect width="109.5" height="28" fill="white" transform="translate(1.5 42)"/>
</clipPath>
</defs>
</svg>
