<svg width="112" height="112" viewBox="0 0 112 112" fill="none" xmlns="http://www.w3.org/2000/svg">
<g clip-path="url(#clip0_3607_43820)">
<path d="M6.4353 45.0199C6.4353 45.0199 8.73196 44.882 12.6007 43.5578C17.5393 41.8675 29.0884 39.95 32.682 49.8609C34.9971 56.2545 30.2975 62.7526 30.1645 65.0017C30.0032 67.5883 30.3287 68.7695 30.3287 68.7695L26.7332 69.7886C26.7332 69.7886 25.8892 67.2499 26.4033 64.4865C27.0744 60.8927 30.3195 56.0536 29.9851 52.786C29.6525 49.5202 28.4175 44.2356 21.6936 42.5429C18.3074 41.6927 14.6176 45.4641 11.9266 46.3668C9.2431 47.2711 7.33047 47.9453 7.33047 47.9453L6.4353 45.0199Z" fill="black"/>
<path d="M12.6101 43.5952C14.2291 43.0411 28.5266 38.5182 32.6533 49.8763C33.0969 51.106 33.2811 52.3447 33.2811 53.5484C33.2811 56.6878 32.0523 59.6291 31.1666 61.768C30.616 63.0966 30.1648 64.4688 30.0142 65.2908C29.8072 66.4402 30.2783 68.5911 30.2905 68.7462C30.2347 68.7613 26.8257 69.7251 26.755 69.7489C26.7006 69.5754 26.2731 68.1618 26.2731 66.3488C26.2731 65.7618 26.3222 65.1323 26.4388 64.499C26.7105 63.0156 27.4445 61.2844 28.1492 59.6125C29.0854 57.3941 30.0452 55.1172 30.0452 53.2662C30.0452 53.0993 30.039 52.9375 30.0235 52.784C29.4509 47.1309 26.7291 43.7741 21.6969 42.5051C19.4432 41.9412 17.0376 43.4258 14.9138 44.7344C13.833 45.4021 12.8206 46.0322 11.9161 46.3323C11.9161 46.3323 7.72078 47.7771 7.35521 47.8991C7.3339 47.8301 6.50776 45.1327 6.48035 45.056C6.71341 45.0376 8.97029 44.8415 12.6101 43.5952ZM12.5923 43.5258C8.77658 44.8311 6.45791 44.9857 6.43249 44.9859H6.38477L7.30792 47.9882L11.9379 46.4022C12.845 46.0966 13.8705 45.4643 14.9497 44.7973C17.0621 43.4954 19.4523 42.0189 21.6831 42.5784C26.6813 43.8317 29.385 47.1744 29.9513 52.7885C30.1418 54.695 29.0917 57.1799 28.0821 59.5812C27.3778 61.2588 26.6431 62.9939 26.3653 64.4848C25.8601 67.2211 26.6906 69.7788 26.699 69.8011L26.7075 69.8324L30.3675 68.7999V68.7697C30.3675 68.7536 29.9658 67.2905 30.191 65.0297C30.2739 64.155 30.686 63.1174 31.2317 61.798C32.4692 58.8221 34.3406 54.3231 32.7137 49.8511C28.5713 38.4242 14.216 42.9674 12.5923 43.5258Z" fill="black"/>
<path d="M7.78491 49.4067C7.78491 49.4067 12.9392 47.0402 16.867 44.7934C21.3972 42.1955 34.1299 39.2762 37.7227 49.1911C40.0402 55.5803 36.6659 61.6029 36.0488 64.1575C35.5244 66.3481 36.1049 67.3945 36.1049 67.3945L32.5087 68.4111C32.5087 68.4111 31.9423 67.363 32.4586 64.6052C33.1288 61.0101 35.3703 58.5291 35.3703 52.6697C35.3703 49.3861 32.9768 43.7593 26.1746 42.4292C22.1383 41.6379 18.9086 44.5218 16.7504 46.3663C13.7276 48.9616 8.34064 52.1108 8.34064 52.1108L7.78491 49.4067Z" fill="black"/>
<path d="M31.7545 43.1145C34.6101 44.1657 36.6057 46.2135 37.688 49.1988C38.2714 50.807 38.4986 52.3797 38.4986 53.8772C38.4986 57.1145 37.4514 60.0093 36.6754 62.154C36.3862 62.9438 36.142 63.6203 36.0194 64.15C35.848 64.839 35.7936 65.419 35.7936 65.8857C35.7936 66.7918 36.0009 67.2638 36.0577 67.3736C35.9776 67.3945 32.5867 68.3502 32.5299 68.3658C32.4731 68.2496 32.2718 67.7412 32.2718 66.6959C32.2718 66.15 32.3347 65.4634 32.4884 64.6136C32.7308 63.3145 33.1786 62.1662 33.6473 60.9501C34.4732 58.8257 35.4013 56.4188 35.4013 52.6697C35.4013 49.2619 32.9457 43.7123 26.1812 42.3901C26.0761 42.3685 25.9741 42.3614 25.8696 42.3475C27.8552 42.2424 29.891 42.4294 31.7545 43.1145ZM16.8865 44.8207C17.9688 44.2029 19.5579 43.5503 21.3873 43.0627C19.593 43.8869 18.0762 45.1845 16.8997 46.1957L16.7284 46.3434C13.8546 48.7998 8.79925 51.7992 8.37105 52.0523C8.34648 51.9589 7.83676 49.4796 7.82752 49.4259C8.11327 49.291 13.0939 46.9956 16.8865 44.8207ZM24.9818 42.3388C24.113 42.4224 23.2497 42.5557 22.3961 42.738C23.2115 42.4696 24.0735 42.3158 24.9818 42.3388ZM25.485 42.2924C24.1901 42.1688 22.9896 42.4242 21.8787 42.8698C19.825 43.3679 18.0333 44.0789 16.8452 44.763C12.9672 46.985 7.82128 49.3491 7.77554 49.3722L7.74316 49.3843L8.31708 52.1662L8.36181 52.1449C8.41721 52.1108 13.7777 48.9616 16.7744 46.3924L16.9462 46.248C18.2252 45.1482 19.9093 43.7274 21.9034 42.9355C23.0396 42.6618 24.2384 42.4531 25.476 42.3614C25.7014 42.3851 25.9349 42.4189 26.1697 42.4631C32.8927 43.775 35.3262 49.2846 35.3262 52.6697C35.3262 56.4082 34.3997 58.8065 33.5814 60.9275C33.1099 62.1441 32.6587 63.2994 32.4178 64.5979C32.2583 65.471 32.2014 66.1606 32.2014 66.7147C32.2014 67.9017 32.4609 68.3982 32.4778 68.4292L32.4912 68.4525L36.1558 67.4185L36.1381 67.377C36.1313 67.3647 35.5724 66.3082 36.087 64.1666C36.2134 63.6463 36.4582 62.9637 36.7407 62.184C37.8799 59.0298 39.604 54.2624 37.7569 49.1748C36.6656 46.1676 34.6575 44.1069 31.7792 43.0485C29.7865 42.3135 27.5973 42.1414 25.485 42.2924Z" fill="black"/>
<path d="M18.4566 57.5973H12.5148C12.5314 57.7677 12.5548 57.9374 12.5754 58.1055H18.8933C18.7335 57.955 18.5801 57.7861 18.4566 57.5973ZM22.6852 58.1055H27.312C27.3383 57.9372 27.3627 57.7678 27.3735 57.5973H23.1257C23.0021 57.7855 22.8539 57.9564 22.6852 58.1055ZM13.6508 61.0114H26.2346C26.3465 60.8468 26.4439 60.6796 26.5401 60.5H13.3527C13.4451 60.6796 13.5464 60.8468 13.6508 61.0114ZM14.3861 61.9835H25.505C25.6527 61.8157 25.7923 61.6497 25.9196 61.4689H13.964C14.096 61.6499 14.2402 61.8157 14.3861 61.9835ZM20.79 58.8599C20.3502 58.8599 19.9388 58.7478 19.5649 58.5647H12.6529C12.6911 58.7398 12.7327 58.9051 12.7803 59.0761H27.1096C27.1557 58.9051 27.2029 58.7398 27.24 58.5648H22.0175C21.6489 58.7476 21.2344 58.8599 20.79 58.8599ZM13.1336 60.0445H26.7547C26.8329 59.8769 26.8946 59.7047 26.9559 59.5314H12.9337C12.9935 59.7047 13.058 59.8769 13.1336 60.0445ZM15.4224 62.953H24.4667C24.6744 62.79 24.8749 62.618 25.0676 62.4375H14.8188C15.012 62.6185 15.2134 62.7905 15.4224 62.953ZM19.9388 64.4872C20.3792 64.4872 20.8077 64.4459 21.2236 64.3777H18.6675C19.0846 64.4459 19.5057 64.4872 19.9388 64.4872ZM17.0772 63.9179H22.8079C23.1518 63.775 23.4818 63.5964 23.7967 63.4051H16.0906C16.4064 63.5964 16.7332 63.7751 17.0772 63.9179ZM15.0892 51.3282H24.8021C24.5904 51.1471 24.3755 50.9777 24.1421 50.8221H15.7439C15.5161 50.9777 15.3008 51.1473 15.0892 51.3282ZM14.1451 52.2986H25.7439C25.6005 52.1219 25.4495 51.9516 25.2913 51.7881H14.6025C14.4418 51.9507 14.2892 52.1211 14.1451 52.2986ZM23.3714 57.1386H27.3995C27.3995 57.0915 27.4037 57.0506 27.4037 57.0074C27.4037 56.8792 27.3919 56.7528 27.3826 56.6274H23.5309C23.4934 56.8035 23.4367 56.9753 23.3714 57.1386ZM18.0535 56.6274H12.5055C12.4979 56.7529 12.4846 56.8792 12.4846 57.0075C12.4846 57.0506 12.4902 57.0916 12.4902 57.1386H18.2137C18.1432 56.974 18.0895 56.8028 18.0535 56.6274ZM13.6092 53.2681H20.548C20.6264 53.262 20.7079 53.2421 20.79 53.2421C20.8766 53.2421 20.9536 53.262 21.0409 53.2681H26.4002C26.3002 53.0925 26.199 52.9227 26.0839 52.7553H13.9395C13.8932 52.8873 13.6492 53.1751 13.6062 53.2679L13.6092 53.2681ZM16.5099 50.3636H23.3759C22.9821 50.157 22.5764 49.9825 22.1462 49.8516H17.7403C17.3167 49.9825 16.9045 50.157 16.5099 50.3636ZM17.9921 56.0543C17.9921 55.9194 18.0152 55.7891 18.0336 55.6587H12.6098C12.5816 55.8297 12.5554 56.001 12.5314 56.1726H18.0074C18.006 56.1313 17.9921 56.0945 17.9921 56.0543ZM23.5908 56.0543C23.5908 56.0945 23.5795 56.1313 23.5795 56.1726H27.3536C27.335 56.0003 27.3088 55.8288 27.2752 55.6587H23.5556C23.5708 55.7891 23.5908 55.9194 23.5908 56.0543ZM18.3593 54.6928H12.8541C12.7971 54.86 12.7543 55.0308 12.7126 55.2022H18.1373C18.1986 55.0259 18.2677 54.8599 18.3593 54.6928ZM23.4467 55.2022H27.177C27.137 55.0305 27.0898 54.8606 27.0357 54.6928H23.2302C23.3183 54.86 23.3927 55.0259 23.4467 55.2022ZM22.9109 54.2353H26.87C26.8024 54.0626 26.7219 53.893 26.6384 53.7233H22.3591C22.567 53.866 22.7496 54.0464 22.9109 54.2353ZM19.2263 53.7231H13.4204C13.339 53.8929 13.224 54.0626 13.1541 54.2351H18.6717C18.8364 54.0463 19.0193 53.8659 19.2263 53.7231Z" fill="black"/>
<path d="M20.235 51.6615C20.235 51.6615 23.9026 49.6643 22.1384 48.0569C20.9422 46.9772 18.2139 50.6017 17.6902 52.1882C16.5998 55.488 13.9493 58.2997 13.9493 58.2997C13.9493 58.2997 16.7688 62.2316 18.6677 62.0134C20.5635 61.7937 21.0244 59.7641 21.0244 59.7641H22.9202C22.9202 59.7641 20.7081 63.5502 16.9835 64.0475C14.508 64.377 11.7155 60.781 11.7155 60.781C11.7155 60.781 9.91121 62.0256 8.89944 62.4725C7.88639 62.9162 6.19447 62.8783 6.10073 62.1274C5.76556 59.2036 11.144 58.7585 11.144 58.7585C11.144 58.7585 13.1542 53.2261 15.7412 50.1941C18.5495 46.8971 22.3659 45.3505 23.8181 47.0407C25.275 48.7351 24.1636 50.7268 22.9202 51.6615C21.1346 53.0157 20.235 51.6615 20.235 51.6615Z" fill="black"/>
<path d="M6.45749 62.4584C6.30581 62.3651 6.23423 62.2578 6.20029 62.1281C6.07758 61.6316 6.30382 61.0773 6.6532 60.6488C7.86139 59.1699 11.1193 58.8806 11.1573 58.8806L11.2303 58.8698L11.254 58.7979C11.2758 58.7454 13.2837 53.2495 15.8246 50.272C17.7701 48.0008 20.2917 46.4797 22.114 46.4711C22.8126 46.4711 23.3544 46.6915 23.7273 47.1229C24.2341 47.7084 24.452 48.3662 24.3754 49.0786C24.2601 50.15 23.5094 51.0727 22.8464 51.5685C22.2506 52.0216 21.6964 52.2079 21.2004 52.1288C20.8013 52.0584 20.5419 51.8306 20.4205 51.7037C20.9073 51.412 22.5892 50.3452 22.7309 49.176C22.7363 49.1249 22.7363 49.0732 22.7363 49.0226C22.7363 48.6372 22.5622 48.2813 22.2152 47.9702C21.9726 47.7505 21.6672 47.6885 21.3063 47.7815C19.8802 48.1573 17.982 50.9138 17.576 52.1504C16.5083 55.3851 13.8931 58.1925 13.8685 58.2158L13.7966 58.2883L13.8548 58.3724C13.9729 58.54 16.7286 62.3565 18.6782 62.1312C20.4039 61.9355 20.9887 60.2881 21.1083 59.883H22.7012C22.2107 60.6372 20.1244 63.5023 16.9668 63.9251C14.5947 64.2448 11.8346 60.7438 11.8085 60.7059L11.7385 60.6173L11.6443 60.6797C11.6271 60.6954 9.84418 61.9254 8.85456 62.3577C8.09317 62.6979 7.02502 62.8102 6.45749 62.4584ZM22.114 46.2324C20.2272 46.2353 17.6313 47.8 15.6511 50.1172C13.2391 52.9456 11.3049 57.9934 11.0538 58.6474C10.5495 58.6965 7.64679 59.0465 6.46616 60.5001C6.13283 60.9022 5.96851 61.3623 5.96851 61.8621C5.96851 61.9572 5.97007 62.0477 5.9793 62.1427C6.00557 62.3487 6.13524 62.5269 6.35012 62.6566C6.92276 62.9822 8.11348 62.953 8.94673 62.5847C9.84573 62.1874 11.3158 61.1962 11.6903 60.9426C12.137 61.4952 14.6684 64.4759 16.9933 64.168C20.7416 63.6648 23.0031 59.8633 23.0228 59.8254L23.1256 59.6451H20.9227L20.9073 59.7374C20.9021 59.7559 20.4391 61.6878 18.6507 61.8928C16.9834 62.0817 14.5042 58.835 14.1096 58.3078C14.515 57.8607 16.8154 55.2349 17.7986 52.2257C18.2001 51.0176 20.0628 48.358 21.3669 48.0164C21.6534 47.9397 21.8736 47.984 22.0547 48.1468C22.3904 48.4523 22.5362 48.7793 22.4902 49.1478C22.3418 50.365 20.2026 51.5501 20.178 51.5609L20.0628 51.6201L20.1352 51.7329C20.1505 51.7529 20.4882 52.248 21.1525 52.3636C21.7193 52.4606 22.335 52.2548 22.9928 51.7644C23.6951 51.2309 24.495 50.253 24.6119 49.1046C24.6954 48.3235 24.4583 47.602 23.9123 46.9661C23.497 46.4804 22.8769 46.2295 22.114 46.2324Z" fill="black"/>
<path d="M18.7302 56.2432C18.7302 56.1384 18.7397 56.0313 18.7509 55.9286C18.7772 55.7329 19.0696 55.7734 19.0427 55.9702C19.0305 56.0607 19.0242 56.1519 19.0236 56.2432C19.0236 56.4397 18.7302 56.4397 18.7302 56.2432ZM18.7957 55.4968C19.0328 54.5362 19.8941 53.8223 20.9274 53.8223C21.2971 53.8223 21.6426 53.9106 21.9479 54.0708C22.1215 54.1601 21.9842 54.4256 21.8129 54.3335C21.5442 54.1955 21.2481 54.1156 20.9273 54.1156C20.0388 54.1156 19.2845 54.7361 19.0844 55.5701C19.0357 55.7593 18.7457 55.6874 18.7957 55.4968ZM23.0571 55.9535C23.0571 56.0955 23.041 56.2368 23.0136 56.3746C22.9753 56.5703 22.6841 56.5132 22.7242 56.3186C22.7448 56.1998 22.7587 56.0775 22.7587 55.9536C22.7587 55.7538 23.0571 55.7537 23.0571 55.9535ZM22.9199 56.7215C22.6075 57.5596 21.7945 58.1564 20.8552 58.1564C20.6502 58.1564 20.4544 58.1355 20.2686 58.0808C20.0813 58.028 20.1612 57.7448 20.3485 57.7931C20.5112 57.8414 20.6785 57.8627 20.8552 57.8627C21.6704 57.8627 22.3739 57.3451 22.6419 56.616C22.711 56.4348 22.9896 56.5364 22.9199 56.7215Z" fill="black"/>
<path d="M68.7416 60.6914C69.8359 61.0894 72.368 59.2767 72.8631 58.9109L72.9372 58.8574L73.2168 57.7033L72.753 57.8967C72.3262 58.0722 71.7476 58.1702 71.6287 58.0368C71.5769 57.9826 71.5581 57.7515 71.8324 57.238L76.3441 49.2591L76.4842 49.0484C76.6154 48.8673 76.7502 48.6865 76.6266 48.4887C76.5048 48.2939 76.2517 48.3157 75.9991 48.3569L73.9579 48.6366L73.8943 48.7414C73.8578 48.7984 70.2655 54.6193 68.0877 56.3464C67.3237 56.9454 67.0247 57.0542 66.9246 57.0708C66.9246 56.8556 67.1648 56.2484 67.6315 55.573L70.2579 51.3058L70.5881 50.7447C70.6952 50.5702 71.1649 49.6018 71.1649 48.8623C71.1649 48.5963 71.1049 48.3599 70.9442 48.2006C70.4668 47.7385 69.5692 48.266 69.2708 48.4419C69.2708 48.4454 66.6085 50.0519 66.6085 50.0519L66.6397 51.2208L66.9617 51.174C66.9617 51.174 67.3519 51.1198 67.3949 51.1152C67.3861 51.2948 67.1 51.784 66.9799 51.9766L66.8381 52.2141L66.7775 52.3284C65.1588 55.1807 63.3235 58.7081 63.3235 60.0601C63.3235 60.1735 63.3412 60.2763 63.3675 60.3542C63.3839 60.3992 63.4655 60.5991 63.6693 60.6881C64.9027 61.1839 67.4179 58.9439 68.7946 57.58C68.5291 58.2938 68.2566 59.1507 68.2566 59.7877C68.2566 59.9828 68.2837 60.154 68.3408 60.2994C68.3732 60.3783 68.5021 60.6038 68.7416 60.6914ZM98.0601 60.6796C99.1555 61.0817 101.685 59.2666 102.178 58.9033L102.25 58.8486L102.536 57.6995L102.067 57.889C101.638 58.0604 101.066 58.1595 100.945 58.0285C100.891 57.973 100.875 57.7447 101.15 57.2292L105.657 49.2504L105.804 49.0411C105.933 48.8608 106.069 48.6754 105.946 48.4784C105.826 48.2895 105.567 48.3054 105.316 48.3482L103.277 48.6263L103.209 48.7334C103.173 48.789 99.5816 54.6099 97.4032 56.336C96.641 56.9384 96.3408 57.0421 96.2395 57.0621C96.2425 56.8477 96.4838 56.2384 96.9506 55.5598L99.5763 51.2948L99.9083 50.7373C100.015 50.56 100.481 49.5918 100.481 48.8543C100.481 48.5884 100.419 48.3489 100.257 48.1906C99.7847 47.73 98.8871 48.2608 98.591 48.4346C98.5845 48.4359 95.9264 50.043 95.9264 50.043L95.957 51.2118L96.2831 51.1668C96.2831 51.1668 96.6692 51.1081 96.7086 51.1036C96.7081 51.2882 96.4102 51.7774 96.2937 51.9693L96.1565 52.2052L96.0924 52.3217C94.4761 55.1687 92.6408 58.7018 92.6408 60.0529C92.6408 60.1641 92.6549 60.2649 92.6844 60.3491C92.6997 60.391 92.7838 60.5897 92.9869 60.6797C94.223 61.1775 96.7351 58.9335 98.1113 57.5711C97.8435 58.2869 97.5763 59.1417 97.5763 59.7796C97.5763 59.9724 97.5998 60.1497 97.6598 60.2873C97.6904 60.373 97.8205 60.5966 98.0601 60.6796ZM89.7549 48.1475C89.7549 48.1475 93.8792 45.9075 91.8886 44.106C90.5518 42.8903 87.4852 46.9534 86.8931 48.7334C85.6705 52.4353 82.6963 55.5865 82.6963 55.5865C82.6963 55.5865 85.8518 59.9846 87.9879 59.7403C90.1257 59.5003 90.6395 57.2227 90.6395 57.2227H92.7732C92.7732 57.2227 90.2846 61.462 86.0961 62.0235C83.3208 62.3913 80.1759 58.3626 80.1759 58.3626C80.1759 58.3626 78.1529 59.8568 77.0168 60.3541C76.2093 60.704 75.0945 60.7923 74.4005 60.476C74.1238 60.3491 73.9178 60.1288 73.8678 59.8712C73.8272 59.6378 73.8337 59.3988 73.8872 59.1681C74.5941 56.3474 79.5378 56.0984 79.5378 56.0984C79.5378 56.0984 81.794 49.898 84.7017 46.4964C87.8607 42.8052 92.1464 41.0686 93.7827 42.9642C95.4225 44.8609 94.1806 47.0956 92.7732 48.1475C90.7673 49.6608 89.7549 48.1475 89.7549 48.1475ZM60.4778 48.1269C60.4778 48.1269 64.6097 45.8826 62.6141 44.0842C61.2743 42.8685 58.2018 46.9337 57.6117 48.7129C56.3908 52.4185 53.4085 55.5731 53.4085 55.5731C53.4085 55.5731 56.5726 59.9764 58.711 59.7349C60.8495 59.4935 61.3593 57.2117 61.3593 57.2117H63.5001C63.5001 57.2117 61.0084 61.4544 56.8156 62.0162C54.0384 62.3865 50.885 58.3509 50.885 58.3509C50.885 58.3509 48.8619 59.8496 47.723 60.3479C46.9192 60.7002 45.801 60.7855 45.1047 60.4672C44.8338 60.339 44.6219 60.1209 44.5748 59.8663C44.5383 59.6454 44.5383 59.3878 44.5955 59.1602C45.3003 56.3345 50.246 56.084 50.246 56.084C50.246 56.084 52.5089 49.8802 55.42 46.4793C58.5815 42.7849 62.8725 41.0481 64.5097 42.941C66.1524 44.8388 64.9027 47.0752 63.5001 48.1269C61.4911 49.639 60.4778 48.1269 60.4778 48.1269Z" fill="black"/>
<path d="M55.9206 66.3144C55.9206 65.5531 55.4105 65.1193 54.4362 65.1193H53.1422V67.517H54.4362C55.4105 67.517 55.9206 67.0755 55.9206 66.3144ZM55.9434 69.7853L54.794 68.1489C54.6873 68.1563 54.5732 68.164 54.4591 68.164H53.1422V69.7853H52.3811V64.457H54.4591C55.8446 64.457 56.6816 65.1574 56.6816 66.3144C56.6816 67.1362 56.2555 67.7302 55.5094 67.9965L56.7729 69.7853H55.9434Z" fill="black"/>
<path d="M65.7404 69.123V69.785H61.8735V64.457H65.6338V65.119H62.6347V66.7558H65.3066V67.4026H62.6347V69.123H65.7404Z" fill="black"/>
<path d="M71.9895 65.119H70.1631V64.457H74.57V65.119H72.7429V69.785H71.9895V65.119Z" fill="black"/>
<path d="M82.2201 67.8443L81.0711 65.2333L79.9216 67.8443H82.2201ZM82.4867 68.4531H79.6549L79.0693 69.7853H78.2847L80.698 64.457H81.4514L83.8717 69.7853H83.0724L82.4867 68.4531Z" fill="black"/>
<path d="M88.6216 64.457H89.3826V69.7853H88.6216V64.457Z" fill="black"/>
<path d="M94.9404 64.457H95.7015V69.123H98.5863V69.7853H94.9404V64.457Z" fill="black"/>
</g>
<defs>
<clipPath id="clip0_3607_43820">
<rect width="100" height="28" fill="white" transform="translate(6 42)"/>
</clipPath>
</defs>
</svg>
