<svg width="112" height="112" viewBox="0 0 112 112" fill="none" xmlns="http://www.w3.org/2000/svg">
<g clip-path="url(#clip0_3607_43974)">
<path fill-rule="evenodd" clip-rule="evenodd" d="M54.5205 74.75V76H55.7705H57.0205V74.75V73.5H55.7705H54.5205V74.75Z" fill="black"/>
<path fill-rule="evenodd" clip-rule="evenodd" d="M49.9366 28.692V29.384H50.6204H51.3043V28.692V28H50.6204H49.9366V28.692ZM60.7533 28.692V29.384H61.4371H62.1209V28.692V28H61.4371H60.7533V28.692ZM47.9376 28.5428C47.9259 28.5544 47.9163 28.866 47.9163 29.2353V29.9068H48.6162H49.3162L49.3078 29.2225L49.2995 28.5382L48.6292 28.5299C48.2605 28.5254 47.9493 28.5312 47.9376 28.5428ZM51.9472 28.5428C51.9355 28.5544 51.9259 28.866 51.9259 29.2353V29.9068H52.6258H53.3258L53.3174 29.2225L53.3091 28.5382L52.6388 28.5299C52.2701 28.5254 51.9589 28.5312 51.9472 28.5428ZM58.7542 28.5428C58.7425 28.5544 58.7329 28.866 58.7329 29.2353V29.9068H59.4329H60.1328L60.1244 29.2225L60.1161 28.5382L59.4458 28.5299C59.0772 28.5254 58.766 28.5312 58.7542 28.5428ZM62.7639 28.5428C62.7521 28.5544 62.7425 28.866 62.7425 29.2353V29.9068H63.4425H64.1424L64.1341 29.2225L64.1257 28.5382L63.4554 28.5299C63.0868 28.5254 62.7756 28.5312 62.7639 28.5428ZM46.5072 30.1734C46.4958 30.1846 46.4865 30.496 46.4865 30.8654V31.5368H47.1859H47.8852V30.8449V30.1529H47.2066C46.8333 30.1529 46.5186 30.1621 46.5072 30.1734ZM53.3557 30.8443V31.5368H54.0556H54.7556L54.7472 30.8525L54.7389 30.1682L54.0473 30.16L53.3557 30.1517V30.8443ZM57.3239 30.1734C57.3125 30.1846 57.3031 30.496 57.3031 30.8654V31.5368H58.0025H58.7018V30.8449V30.1529H58.0232C57.65 30.1529 57.3352 30.1621 57.3239 30.1734ZM64.1723 30.8443V31.5368H64.8723H65.5722L65.5638 30.8525L65.5555 30.1682L64.8639 30.16L64.1723 30.1517V30.8443ZM45.8649 32.6902V33.3822H46.5487H47.2325V32.6902V31.9982H46.5487H45.8649V32.6902ZM54.0084 32.6902V33.3822H54.6922H55.376V32.6902V31.9982H54.6922H54.0084V32.6902ZM56.6815 32.6902V33.3822H57.3653H58.0491V32.6902V31.9982H57.3653H56.6815V32.6902ZM64.825 32.6902V33.3822H65.5089H66.1927V32.6902V31.9982H65.5089H64.825V32.6902ZM46.4865 34.5662V35.2582H47.1859H47.8852V34.5662V33.8742H47.1859H46.4865V34.5662ZM53.3557 34.5662V35.2582H54.055H54.7544V34.5662V33.8742H54.055H53.3557V34.5662ZM57.3031 34.5662V35.2582H58.0025H58.7018V34.5662V33.8742H58.0025H57.3031V34.5662ZM64.1723 34.5662V35.2582H64.8717H65.571V34.5662V33.8742H64.8717H64.1723V34.5662ZM47.9305 35.5121C47.9219 35.534 47.9188 35.8491 47.9234 36.2124L47.9318 36.8729L48.624 36.8811L49.3162 36.8894L49.3078 36.1891L49.2995 35.4889L48.6227 35.4806C48.0915 35.4741 47.9426 35.4809 47.9305 35.5121ZM51.9472 35.4934C51.9355 35.505 51.9259 35.8236 51.9259 36.2014V36.8882H52.6258H53.3258L53.3174 36.1886L53.3091 35.4889L52.6388 35.4806C52.2701 35.4761 51.9589 35.4818 51.9472 35.4934ZM58.7542 35.4934C58.7425 35.505 58.7329 35.8236 58.7329 36.2014V36.8882H59.4329H60.1328L60.1244 36.1886L60.1161 35.4889L59.4458 35.4806C59.0772 35.4761 58.766 35.4818 58.7542 35.4934ZM62.7639 35.4934C62.7521 35.505 62.7425 35.8239 62.7425 36.202V36.8894L63.4341 36.8811L64.1257 36.8729V36.1809V35.4889L63.4554 35.4806C63.0868 35.4761 62.7756 35.4818 62.7639 35.4934ZM49.9366 36.7191V37.4111H50.6204H51.3043V36.7191V36.0271H50.6204H49.9366V36.7191ZM60.7533 36.7191V37.4111H61.4371H62.1209V36.7191V36.0271H61.4371H60.7533V36.7191ZM39.0268 40.6865V41.44H39.7883H40.5498V40.6865V39.933H39.7883H39.0268V40.6865ZM41.2647 40.6865V41.44H42.0262H42.7877V40.6865V39.933H42.0262H41.2647V40.6865ZM43.5026 40.6865V41.44H44.2486H44.9946V40.6865V39.933H44.2486H43.5026V40.6865ZM45.7094 40.6865V41.44H46.471H47.2325V40.6865V39.933H46.471H45.7094V40.6865ZM47.9474 40.6865V41.44H48.7089H49.4704V40.6865V39.933H48.7089H47.9474V40.6865ZM62.5871 40.6865V41.44H63.3486H64.1102V40.6865V39.933H63.3486H62.5871V40.6865ZM64.825 40.6865V41.44H65.5866H66.3481V40.6865V39.933H65.5866H64.825V40.6865ZM67.063 40.6865V41.44H67.8089H68.5549V40.6865V39.933H67.8089H67.063V40.6865ZM69.2698 40.6865V41.44H70.0313H70.7928V40.6865V39.933H70.0313H69.2698V40.6865ZM71.5077 40.6865V41.44H72.2693H73.0308V40.6865V39.933H72.2693H71.5077V40.6865ZM39.0268 42.9316V43.6851H39.7883H40.5498V42.9316V42.1781H39.7883H39.0268V42.9316ZM71.5077 42.9316V43.6851H72.2693H73.0308V42.9316V42.1781H72.2693H71.5077V42.9316ZM49.5637 42.9624V43.7159H50.3252H51.0867V42.9624V42.2089H50.3252H49.5637V42.9624ZM51.8327 42.9624V43.7159H52.5942H53.3557V42.9624V42.2089H52.5942H51.8327V42.9624ZM54.1327 42.9624V43.7159H54.8943H55.6558V42.9624V42.2089H54.8943H54.1327V42.9624ZM56.4018 42.9624V43.7159H57.1633H57.9248V42.9624V42.2089H57.1633H56.4018V42.9624ZM58.7018 42.9624V43.7159H59.4634H60.2249V42.9624V42.2089H59.4634H58.7018V42.9624ZM60.9708 42.9624V43.7159H61.7324H62.4939V42.9624V42.2089H61.7324H60.9708V42.9624ZM39.0268 45.1767V45.9302H39.7883H40.5498V45.1767V44.4232H39.7883H39.0268V45.1767ZM71.5077 45.1767V45.9302H72.2693H73.0308V45.1767V44.4232H72.2693H71.5077V45.1767ZM39.0268 47.4065V48.1765L39.7805 48.1682L40.5342 48.16V47.4065V46.653L39.7805 46.6448L39.0268 46.6365V47.4065ZM41.4103 46.6576C41.3986 46.6691 41.389 47.0154 41.389 47.427V48.1754H42.1511H42.9131L42.9048 47.4142L42.8965 46.653L42.164 46.6448C41.7612 46.6402 41.422 46.646 41.4103 46.6576ZM69.1667 46.6576C69.1551 46.6691 69.1455 47.0154 69.1455 47.427V48.1754H69.9075H70.6696L70.6613 47.4142L70.653 46.653L69.9205 46.6448C69.5176 46.6402 69.1785 46.646 69.1667 46.6576ZM71.5217 46.6767C71.5134 46.6982 71.5103 47.0407 71.5149 47.4379L71.5233 48.16L72.277 48.1682L73.0308 48.1765V47.4071V46.6376H72.2838C71.7084 46.6376 71.5334 46.6466 71.5217 46.6767ZM43.7513 49.2057V49.9592H44.4972H45.2432V49.2057V48.4522H44.4972H43.7513V49.2057ZM66.8143 49.2057V49.9592H67.5603H68.3063V49.2057V48.4522H67.5603H66.8143V49.2057ZM43.7513 51.6507V52.4196H44.4972H45.2432V51.6507V50.8818H44.4972H43.7513V51.6507ZM66.8143 51.6507V52.4196H67.5603H68.3063V51.6507V50.8818H67.5603H66.8143V51.6507ZM43.7513 54.0957V54.8492H44.4972H45.2432V54.0957V53.3422H44.4972H43.7513V54.0957ZM66.8143 54.0957V54.8492H67.5603H68.3063V54.0957V53.3422H67.5603H66.8143V54.0957ZM43.7513 56.5562V57.3097H44.4972H45.2432V56.5562V55.8027H44.4972H43.7513V56.5562ZM66.8143 56.5562V57.3097H67.5603H68.3063V56.5562V55.8027H67.5603H66.8143V56.5562ZM43.7513 59.0012V59.7701H44.4972H45.2432V59.0012V58.2323H44.4972H43.7513V59.0012ZM66.8143 59.0012V59.7701H67.5603H68.3063V59.0012V58.2323H67.5603H66.8143V59.0012ZM43.7513 61.4462V62.1997H44.4972H45.2432V61.4462V60.6927H44.4972H43.7513V61.4462ZM66.8143 61.4462V62.1997H67.5603H68.3063V61.4462V60.6927H67.5603H66.8143V61.4462ZM43.7513 63.8913V64.6601H44.4972H45.2432V63.8913V63.1224H44.4972H43.7513V63.8913ZM66.8143 63.8913V64.6601H67.5603H68.3063V63.8913V63.1224H67.5603H66.8143V63.8913ZM45.9721 63.8996C45.9637 63.9211 45.9607 64.2636 45.9653 64.6608L45.9736 65.3829L46.7274 65.3911L47.4811 65.3994V64.6299V63.8605H46.7342C46.1588 63.8605 45.9837 63.8695 45.9721 63.8996ZM64.5764 64.6294V65.3994L65.3301 65.3911L66.0839 65.3829V64.6294V63.8759L65.3301 63.8676L64.5764 63.8594V64.6294ZM48.2893 65.3675V66.1364H49.0508H49.8123V65.3675V64.5986H49.0508H48.2893V65.3675ZM62.2452 65.3675V66.1364H63.0067H63.7683V65.3675V64.5986H63.0067H62.2452V65.3675ZM50.6204 65.6904V66.4439H51.382H52.1435V65.6904V64.9369H51.382H50.6204V65.6904ZM52.9516 65.6904V66.4439H53.7131H54.4747V65.6904V64.9369H53.7131H52.9516V65.6904ZM55.2828 65.6904V66.4439H56.0288H56.7747V65.6904V64.9369H56.0288H55.2828V65.6904ZM57.5829 65.6904V66.4439H58.3444H59.1059V65.6904V64.9369H58.3444H57.5829V65.6904ZM59.914 65.6904V66.4439H60.6756H61.4371V65.6904V64.9369H60.6756H59.914V65.6904ZM62.8047 73.521C62.0096 73.6101 61.2193 73.8941 60.5668 74.3253C59.5844 74.9745 58.8625 75.9106 58.5 77.0056C58.2889 77.6432 58.2532 77.8815 58.2532 78.6537C58.2532 79.2579 58.2622 79.3867 58.3238 79.6686C58.7075 81.4243 59.7923 82.8206 61.3438 83.5558C62.4822 84.0952 63.8461 84.1449 65.2075 83.6964C66.3428 83.3224 67.2433 82.6273 67.6651 81.7995C67.71 81.7112 67.7468 81.6194 67.7468 81.5954C67.7468 81.5583 65.7931 80.3883 65.7733 80.4136C65.7696 80.4183 65.7121 80.5259 65.6455 80.6528C65.2732 81.3622 64.4015 81.821 63.4263 81.8206C62.7286 81.8203 62.2111 81.6169 61.7068 81.1449C61.0128 80.4953 60.6928 79.6542 60.7305 78.579C60.7642 77.6189 61.0769 76.8688 61.6712 76.3225C62.0247 75.9975 62.3907 75.8072 62.8458 75.7117C63.0117 75.6769 63.1883 75.6687 63.5351 75.6796C64.0851 75.697 64.3182 75.7531 64.7461 75.9713C65.1071 76.1554 65.4725 76.5025 65.6517 76.8315C65.7184 76.9542 65.787 77.0494 65.8041 77.043C65.8288 77.0338 67.6068 75.8129 67.6491 75.776C67.6665 75.7609 67.4396 75.3981 67.285 75.1938C66.8235 74.584 66 74.0085 65.2162 73.7482C64.545 73.5252 63.5789 73.4342 62.8047 73.521ZM17.0205 78.7306V83.9129H18.2327H19.4449V81.883V79.8532H21.3725H23.3L23.2918 78.8613L23.2836 77.8695L21.3643 77.8615L19.4449 77.8536V76.762V75.6705H21.7761H24.1073V74.6094V73.5484H20.5639H17.0205V78.7306ZM27.0566 73.6329C27.0385 73.6795 26.1866 75.9873 25.1635 78.7614C24.1405 81.5355 23.294 83.8294 23.2824 83.859C23.2626 83.9097 23.3338 83.9129 24.5161 83.9129H25.7708L26.1631 82.7672L26.5555 81.6216L28.1719 81.6136L29.7884 81.6057L29.9006 81.9212C29.9623 82.0947 30.1434 82.6104 30.303 83.0671L30.5932 83.8975L31.844 83.9055C32.9067 83.9124 33.0932 83.907 33.0846 83.8702C33.079 83.8464 32.2214 81.5142 31.1789 78.6876L29.2832 73.5484H28.1864H27.0896L27.0566 73.6329ZM34.1158 78.7318V83.9153L36.9986 83.9054C40.2347 83.8944 40.1117 83.9021 40.8514 83.6611C41.8505 83.3355 42.4829 82.7256 42.6993 81.8785C42.7555 81.6587 42.7617 81.5631 42.7484 81.1169C42.7294 80.4755 42.6424 80.1443 42.3791 79.7103C42.1288 79.2977 41.5891 78.8542 41.1308 78.6845C41.0166 78.6422 40.9231 78.6007 40.923 78.5922C40.9229 78.5838 40.9935 78.5376 41.0799 78.4896C41.4588 78.279 41.7916 77.9294 42.0071 77.5158C42.2311 77.0857 42.3215 76.7099 42.3215 76.2087C42.3215 75.7191 42.2342 75.3473 42.0182 74.917C41.7441 74.3708 41.3415 73.9726 40.8184 73.7304C40.4216 73.5467 40.4782 73.5495 37.1541 73.5489L34.1158 73.5484V78.7318ZM44.1864 78.7295V83.9129H45.4142H46.6419V82.2521V80.5913H47.4139H48.186L49.066 82.0599C49.55 82.8676 49.9963 83.6144 50.0579 83.7194L50.1698 83.9104L51.5451 83.9116C52.3016 83.9123 52.9205 83.9054 52.9205 83.8963C52.9205 83.8872 52.407 83.0197 51.7793 81.9686C51.0513 80.7495 50.6523 80.0528 50.6773 80.0446C50.7819 80.0101 51.2208 79.6526 51.4286 79.4327C51.814 79.0248 52.1307 78.4128 52.2533 77.8387C52.3247 77.5048 52.3472 76.9073 52.3004 76.5904C52.2577 76.3017 52.0974 75.792 51.9714 75.544C51.7134 75.0365 51.2781 74.5214 50.8245 74.1871C50.5289 73.9691 50.0447 73.7311 49.7035 73.6361C49.456 73.5672 49.4431 73.5668 46.8206 73.5565L44.1864 73.5461V78.7295ZM54.9777 73.5714C55.3142 73.5764 55.8736 73.5764 56.2209 73.5714C56.5683 73.5665 56.293 73.5624 55.6092 73.5624C54.9253 73.5624 54.6412 73.5664 54.9777 73.5714ZM74.4449 73.5868C74.4373 73.608 73.584 75.9227 72.5486 78.7306C71.5131 81.5386 70.663 83.8498 70.6595 83.8667C70.6552 83.8867 71.0893 83.9003 71.9 83.9055L73.147 83.9135L73.5434 82.7596L73.9399 81.6057L75.5567 81.6136L77.1735 81.6216L77.5267 82.6365C77.7209 83.1947 77.902 83.7102 77.9289 83.7821L77.978 83.9129H79.2187C79.9648 83.9129 80.4594 83.9014 80.4594 83.8842C80.4594 83.8684 79.6257 81.5952 78.6068 78.8327C77.5878 76.0701 76.7333 73.751 76.7078 73.6791L76.6616 73.5484H75.5601C74.7069 73.5484 74.4555 73.557 74.4449 73.5868ZM81.4851 78.7306V83.9129H82.7129H83.9406V78.7306V73.5484H82.7129H81.4851V78.7306ZM85.9299 78.7306V83.9129H88.0558C89.3118 83.9129 90.3133 83.8997 90.5035 83.8806C91.2251 83.8084 91.7886 83.6501 92.4106 83.3447C93.5664 82.7773 94.3582 81.8566 94.767 80.6048C94.9854 79.9359 95.0216 79.6662 95.0205 78.7152C95.0196 77.9165 95.0149 77.848 94.9363 77.4844C94.829 76.988 94.6374 76.4389 94.4428 76.0703C93.6946 74.6533 92.294 73.7539 90.5657 73.5806C90.3746 73.5615 89.3669 73.5484 88.0868 73.5484H85.9299V78.7306ZM36.5713 76.6866V77.7353L37.8534 77.7255L39.1355 77.7157L39.3314 77.6262C39.7454 77.437 39.9219 77.1033 39.8893 76.571C39.8696 76.2503 39.7969 76.0635 39.626 75.8943C39.3783 75.6493 39.4259 75.6562 37.9156 75.6465L36.5713 75.6378V76.6866ZM46.6419 77.0695V78.4725L47.8308 78.4632L49.0197 78.4538L49.1764 78.372C49.473 78.217 49.7045 77.8948 49.7965 77.5087C49.8513 77.279 49.8568 76.9052 49.8087 76.6792C49.7249 76.2847 49.4498 75.9285 49.1057 75.769L48.9265 75.6859L47.7842 75.6761L46.6419 75.6664V77.0695ZM88.3543 78.7111V81.76H89.2881C90.3211 81.76 90.5198 81.737 90.9255 81.5704C91.8718 81.1817 92.4473 80.2903 92.5474 79.058C92.674 77.4998 92.0101 76.251 90.8416 75.8494C90.4551 75.7165 90.2921 75.6985 89.3101 75.6801L88.3543 75.6621V78.7111ZM54.3814 79.9301V83.9129H55.6092H56.8369V79.9301V75.9473H55.6092H54.3814V79.9301ZM74.9524 78.1169L74.3442 79.8993L74.9463 79.9076C75.2775 79.9122 75.8182 79.9122 76.148 79.9076L76.7475 79.8993L76.1541 78.1169L75.5607 76.3344L74.9524 78.1169ZM28.1562 76.4394C28.0816 76.6202 26.9677 79.8951 26.9775 79.9048C26.9835 79.9106 27.5255 79.9118 28.182 79.9074L29.3757 79.8993L28.7818 78.1309C28.2695 76.6053 28.1836 76.373 28.1562 76.4394ZM36.5713 80.7454V81.8551L38.0244 81.8452C39.6737 81.834 39.6436 81.8381 39.9297 81.5836C40.1215 81.413 40.23 81.2099 40.2663 80.9537C40.3392 80.4383 40.1108 79.9386 39.7041 79.7237C39.5711 79.6535 39.5665 79.6532 38.071 79.6445L36.5713 79.6356V80.7454Z" fill="black"/>
</g>
<defs>
<clipPath id="clip0_3607_43974">
<rect width="112" height="56" fill="white" transform="translate(0 28)"/>
</clipPath>
</defs>
</svg>
