<svg width="112" height="112" viewBox="0 0 112 112" fill="none" xmlns="http://www.w3.org/2000/svg">
<g clip-path="url(#clip0_3607_43839)">
<path d="M18.6729 61.9299C18.3669 62.0362 18.0404 62.0953 17.6994 62.0953C16.6356 62.0953 16.1227 61.5282 15.6563 60.6776C15.5018 60.4088 15.4173 59.8181 15.4173 59.8181V55.1543H19.352L19.1451 53.2936C19.0431 52.378 18.2765 51.6839 17.3672 51.6839H15.4202V45.9155C15.4202 45.9155 14.2427 45.9953 13.8493 46.0248C11.8353 46.1843 10.4742 47.543 10.4742 49.132L10.4829 51.8138L7 51.9438V53.2847C7 54.3155 7.82483 55.1514 8.8391 55.1514H10.48V59.9273L10.5033 60.6244C10.5179 63.5986 12.8991 65.9999 15.837 65.9999C16.8804 65.9999 17.8539 65.6957 18.6758 65.17V61.9299H18.6729Z" fill="black"/>
<path d="M51.6019 62.4469C52.1003 62.2136 52.4822 61.9064 52.7416 61.5313V60.3498C51.9459 59.8064 51.0365 59.5347 50.0193 59.5347C49.3694 59.5347 48.871 59.6764 48.5183 59.957C48.1657 60.2376 47.9908 60.6511 47.9908 61.1946C47.9908 61.7026 48.1627 62.0954 48.5037 62.376C48.8477 62.6566 49.3402 62.7984 49.9902 62.7984C50.5644 62.7984 51.1006 62.6832 51.6019 62.4469ZM44.502 64.6148C43.4732 63.7996 42.9602 62.6595 42.9602 61.1946C42.9602 59.6735 43.4557 58.5068 44.4466 57.6887C45.4376 56.8735 46.8599 56.4629 48.7107 56.4629C49.4335 56.4629 50.1563 56.5427 50.8791 56.7022C51.6019 56.8617 52.2228 57.0743 52.7416 57.3342V57.0536C52.7416 55.6093 51.5757 54.8857 49.2411 54.8857C47.6119 54.8857 46.6122 54.9891 45.2598 55.6271C45.2598 55.6271 45.0762 54.2596 45.0325 53.7988C44.9334 52.7709 45.732 52.003 47.0727 51.7549C47.0814 51.752 47.0931 51.752 47.1018 51.749C48.0636 51.5718 49.0633 51.4802 50.1009 51.4802C52.5842 51.4802 54.4582 51.9823 55.729 52.9866C56.9968 53.9908 57.6322 55.3937 57.6322 57.1954V63.3743C57.6322 65.0313 57.061 65.4152 55.7086 65.4152H53.1758L53.0476 64.2604C52.5492 64.7477 51.9167 65.1317 51.1589 65.4152C50.3982 65.6958 49.5297 65.8376 48.5475 65.8376C46.8774 65.8406 45.5309 65.433 44.502 64.6148Z" fill="black"/>
<path d="M86.2331 62.4469C86.7315 62.2136 87.1133 61.9064 87.3727 61.5313V60.3498C86.577 59.8064 85.6676 59.5347 84.6504 59.5347C84.0005 59.5347 83.5021 59.6764 83.1494 59.957C82.7968 60.2376 82.6219 60.6511 82.6219 61.1946C82.6219 61.7026 82.7939 62.0954 83.1349 62.376C83.4788 62.6566 83.9713 62.7984 84.6213 62.7984C85.1955 62.7984 85.7347 62.6832 86.2331 62.4469ZM79.1361 64.6148C78.1072 63.7996 77.5942 62.6595 77.5942 61.1946C77.5942 59.6735 78.0897 58.5068 79.0807 57.6887C80.0716 56.8735 81.494 56.4629 83.3447 56.4629C84.0675 56.4629 84.7904 56.5427 85.5132 56.7022C86.236 56.8617 86.8568 57.0743 87.3756 57.3342V57.0536C87.3756 55.6093 86.2097 54.8857 83.8752 54.8857C82.2459 54.8857 81.2462 54.9891 79.8938 55.6271C79.8938 55.6271 79.7102 54.2596 79.6665 53.7988C79.5674 52.7709 80.366 52.003 81.7067 51.7549C81.7155 51.752 81.7242 51.752 81.7359 51.749C82.6977 51.5718 83.6974 51.4802 84.735 51.4802C87.2182 51.4802 89.0923 51.9823 90.363 52.9866C91.6309 53.9908 92.2663 55.3937 92.2663 57.1954V63.3743C92.2663 65.0313 91.695 65.4152 90.3426 65.4152H87.8099L87.6816 64.2604C87.1832 64.7477 86.5508 65.1317 85.793 65.4152C85.0323 65.6958 84.1637 65.8376 83.1815 65.8376C81.5114 65.8406 80.162 65.433 79.1361 64.6148Z" fill="black"/>
<path d="M28.4368 62.4469C28.9352 62.2136 29.317 61.9064 29.5764 61.5313V60.3498C28.7807 59.8064 27.8714 59.5347 26.8542 59.5347C26.2042 59.5347 25.7058 59.6764 25.3532 59.957C25.0005 60.2376 24.8256 60.6511 24.8256 61.1946C24.8256 61.7026 24.9976 62.0954 25.3386 62.376C25.6825 62.6566 26.1751 62.7984 26.825 62.7984C27.3992 62.7984 27.9355 62.6832 28.4368 62.4469ZM21.3369 64.6148C20.308 63.7996 19.795 62.6595 19.795 61.1946C19.795 59.6735 20.2905 58.5068 21.2815 57.6887C22.2724 56.8735 23.6948 56.4629 25.5455 56.4629C26.2683 56.4629 26.9912 56.5427 27.714 56.7022C28.4368 56.8617 29.0576 57.0743 29.5764 57.3342V57.0536C29.5764 55.6093 28.4106 54.8857 26.076 54.8857C24.4467 54.8857 23.4499 54.9891 22.0976 55.6271C22.0976 55.6271 21.9139 54.2596 21.8702 53.7988C21.7711 52.7709 22.5697 52.003 23.9104 51.7549C23.9192 51.752 23.9308 51.752 23.9396 51.749C24.9014 51.5718 25.9011 51.4802 26.9387 51.4802C29.4219 51.4802 31.296 51.9823 32.5668 52.9866C33.8346 53.9908 34.47 55.3937 34.47 57.1954V63.3743C34.47 65.0313 33.8987 65.4152 32.5464 65.4152H30.0136L29.8853 64.2604C29.384 64.7477 28.7545 65.1317 27.9967 65.4152C27.236 65.6958 26.3674 65.8376 25.3852 65.8376C23.7122 65.8406 22.3657 65.433 21.3369 64.6148Z" fill="black"/>
<path d="M41.2697 65.4181L41.2668 45C41.2668 45 40.1039 45.0768 39.7162 45.1093C37.7285 45.2688 36.3849 46.6127 36.3849 48.1869L36.382 65.4211H41.2697V65.4181Z" fill="black"/>
<path d="M70.1795 61.1236C69.5675 61.7143 68.763 62.0097 67.7633 62.0097C67.023 62.0097 66.3556 61.8177 65.7639 61.4338C65.1694 61.0498 64.7438 60.527 64.4844 59.8713V57.4789C64.7438 56.8232 65.1694 56.3004 65.7639 55.9165C66.3556 55.5325 67.023 55.3405 67.7633 55.3405C68.763 55.3405 69.5704 55.6418 70.1795 56.2413C70.7887 56.8409 71.0976 57.6591 71.0976 58.6899C71.0976 59.7207 70.7916 60.5329 70.1795 61.1236ZM75.2363 54.93C74.6418 53.8312 73.814 52.9835 72.7502 52.381C71.6864 51.7814 70.4477 51.4802 69.0399 51.4802C68.151 51.4802 67.3028 51.616 66.4984 51.8878C65.694 52.1595 65.0207 52.5316 64.4844 53.0013L64.4932 45C64.4932 45 63.3273 45.0768 62.9368 45.1093C60.9432 45.2688 59.5938 46.6127 59.5938 48.1869V65.4211H64.19L64.3183 64.0684C65.5599 65.2498 67.1338 65.8405 69.0428 65.8405C70.4331 65.8405 71.663 65.5451 72.7385 64.9544C73.8111 64.3637 74.6447 63.5278 75.2392 62.4498C75.8309 61.3717 76.1282 60.1165 76.1282 58.6899C76.1253 57.281 75.828 56.0287 75.2363 54.93Z" fill="black"/>
<path d="M104.321 61.9299C104.015 62.0362 103.688 62.0953 103.347 62.0953C102.284 62.0953 101.771 61.5282 101.304 60.6776C101.15 60.4088 101.065 59.8181 101.065 59.8181V55.1543H105L104.793 53.2936C104.691 52.378 103.924 51.6839 103.015 51.6839H101.068V45.9155C101.068 45.9155 99.8907 45.9953 99.4972 46.0248C97.4832 46.1843 96.1221 47.543 96.1221 49.132L96.1309 51.8138L92.6479 51.9438V53.2847C92.6479 54.3155 93.4728 55.1514 94.4871 55.1514H96.128V59.9273L96.1513 60.6244C96.1688 63.5957 98.55 65.997 101.485 65.997C102.528 65.997 103.499 65.6927 104.321 65.167V61.9299Z" fill="black"/>
</g>
<defs>
<clipPath id="clip0_3607_43839">
<rect width="98" height="21" fill="white" transform="translate(7 45)"/>
</clipPath>
</defs>
</svg>
