<svg width="112" height="112" viewBox="0 0 112 112" fill="none" xmlns="http://www.w3.org/2000/svg">
<path d="M101.404 55.1786C101.404 54.9286 101.298 54.6786 101.156 54.5C100.978 54.25 100.764 54.1786 100.516 54.3571C100.444 54.3928 100.373 54.4643 100.302 54.5C100.089 54.6786 99.9467 54.8928 99.84 55.1786C99.6267 55.6786 99.52 56.2143 99.3778 56.7143C99.0222 58.0357 98.56 59.3571 98.0978 60.6428C97.6356 61.9286 97.1378 63.2143 96.4267 64.3928C96.1422 64.8571 95.8222 65.3214 95.4667 65.7143C94.8978 66.3214 94.2578 66.8214 93.4756 67.1786C92.6578 67.5357 91.84 67.6786 90.9511 67.5C90.8445 67.5 90.7734 67.5 90.6667 67.4286C90.6667 67.4286 90.6667 67.4286 90.6667 67.3928C90.6667 67.3928 90.6667 67.3214 90.7022 67.2857C91.1645 66.4643 91.8045 65.8571 92.6222 65.3928C92.8 65.2857 92.9422 65.2143 93.12 65.1071C94.2578 64.3571 95.1822 63.4286 95.9645 62.3214C96.32 61.8571 96.4622 61.2857 96.4622 60.7143C96.4622 60.4643 96.4267 60.25 96.32 60.0357C96.1778 59.75 96 59.6786 95.7156 59.7857C95.5378 59.8571 95.3956 59.9643 95.2534 60.0714C95.04 60.25 94.8622 60.4643 94.6845 60.6786C94.5422 60.8214 94.4356 61 94.2934 61.1428C93.6178 61.7857 92.8711 62.3214 92.0534 62.75C90.9867 63.3214 89.92 63.8928 88.8889 64.5C88.5334 64.7143 88.2134 64.9286 87.8934 65.1786C86.7556 66.1428 85.8667 67.25 85.1556 68.5357C84.7289 69.2857 84.3734 70.0714 84.16 70.8928C83.8756 71.8928 83.9111 72.9286 84.0533 73.9643C84.0533 74.1071 84.0533 74.1071 84.2311 74.1428C84.5867 74.1428 84.9422 74.1786 85.2978 74.1786C86.3289 74.1786 87.3245 74.1071 88.3556 73.9643C89.92 73.7143 91.4134 73.2857 92.8711 72.6428C94.3289 72 95.68 71.1071 96.8534 70.0357C97.8489 69.1071 98.6311 68 99.2356 66.75C100.16 64.9286 100.693 62.9643 101.084 60.9643C101.227 60.1786 101.333 59.3928 101.404 58.5714C101.44 58 101.547 57.4286 101.547 56.8214V55.1786" fill="black"/>
<path d="M71.609 53.7143C72.3201 56.0715 73.6001 58.0357 75.4846 59.6072C76.3023 60.2857 77.1912 60.8929 78.1512 61.3215C78.1512 61.3215 78.1512 61.3215 78.1868 61.2858C77.7957 61 77.4046 60.6429 77.0135 60.3215C76.729 60.0715 76.4801 59.7857 76.2668 59.5C75.6979 58.7143 75.2357 57.8572 74.8446 56.9643C74.169 55.3215 73.8135 53.6072 73.9912 51.8215C74.0623 51.0715 74.2401 50.3215 74.489 49.6429C74.9868 48.25 75.8046 47.0715 76.8357 46.0357C77.4401 45.3929 78.1157 44.8215 78.8623 44.2857C79.0046 44.1786 79.0046 44.1786 78.9335 44C78.649 43.3929 78.3646 42.7857 78.0801 42.1429C78.0801 42.1072 78.009 42.0715 78.0801 42H78.1512C78.4712 41.9286 78.8268 41.8929 79.1468 41.8572C80.2135 41.7857 81.2446 41.8572 82.2757 42.1072C83.9112 42.4643 85.4401 43.1786 86.8268 44.1429C86.9335 44.2143 86.9335 44.2857 86.9335 44.3929C86.9335 44.75 86.9335 45.1429 86.8268 45.5C86.649 46.6786 86.2579 47.7857 85.7246 48.8572C85.049 50.2143 84.1246 51.3929 83.0223 52.4643C83.0223 52.4643 82.9868 52.5 82.9157 52.5C82.5601 51.7857 82.169 51.1072 81.8135 50.3929C81.8135 50.3929 81.7779 50.3929 81.7423 50.3929C81.6712 50.4643 81.5646 50.5357 81.4935 50.6072C80.3912 51.6786 79.5023 52.8929 78.8623 54.2857C78.2935 55.5357 77.9735 56.8572 77.9379 58.25C77.9379 58.3929 77.9735 58.4643 78.0801 58.5357C79.2179 59.3929 80.4623 60 81.8135 60.3572C82.9868 60.6786 84.1957 60.8215 85.4046 60.7858C85.7601 60.7858 86.1157 60.75 86.4357 60.7143C86.5423 60.7143 86.5423 60.7143 86.5068 60.5715C86.5068 60.5715 86.5068 60.5357 86.5068 60.5C86.2223 59.8929 85.9379 59.2857 85.6534 58.6429C85.5823 58.5357 85.5823 58.5357 85.7246 58.4643C87.0757 57.7143 88.1779 56.6786 89.0312 55.4286C90.2046 53.75 90.7379 51.8929 90.7379 49.8572C90.7379 49.25 90.7023 48.6786 90.5957 48.0715C90.4179 46.8215 90.0623 45.6429 89.4579 44.5357C88.7112 43.1786 87.7157 42.0357 86.4357 41.1429C85.0135 40.1786 83.449 39.7143 81.7423 39.6072C81.6712 39.6072 81.6001 39.6072 81.4579 39.5715C81.7779 39.5 82.0268 39.5 82.2757 39.5C83.1646 39.5 84.0179 39.5 84.9068 39.7143C87.0401 40.1429 88.8535 41.1429 90.3823 42.6786C91.129 43.4286 91.769 44.2857 92.3023 45.2143C92.6223 45.75 92.9423 46.3215 93.1557 46.9286C93.6535 48.2857 93.8668 49.6786 93.9023 51.1072C93.9023 52 93.9023 52.8572 93.7246 53.7143C93.4757 55.25 92.9423 56.6786 92.089 57.9643C91.2001 59.2857 90.0979 60.3929 88.7823 61.2858C88.7823 61.2858 88.7823 61.3215 88.8179 61.3572C89.8846 60.8215 90.8446 60.1786 91.7335 59.3572C94.1512 57.0715 95.4668 54.25 95.6801 50.9286C95.7512 49.6786 95.6446 48.4286 95.3246 47.2143C94.5423 44.1786 92.8712 41.75 90.2757 40C88.3557 38.6786 86.1868 38 83.8757 37.8572H82.809C82.0979 37.8929 81.4223 37.9643 80.7468 38.1429C78.1512 38.7143 75.9112 40 74.169 42C71.929 44.5357 70.8979 47.5357 71.0046 50.9286C71.0401 51.9286 71.2179 52.9286 71.5023 53.8929" fill="black"/>
<path d="M79.8576 66.0715C79.1821 65.3215 78.4354 64.7143 77.5465 64.2143C76.8354 63.8215 76.1598 63.4286 75.4487 63.0357C74.9865 62.7857 74.4887 62.5357 74.0265 62.25C73.2443 61.75 72.5332 61.2143 71.9643 60.4643C71.7865 60.25 71.5732 60.0357 71.3598 59.8929C71.2176 59.7857 71.0754 59.7143 70.8976 59.6786C70.7198 59.6429 70.5776 59.6786 70.4709 59.8572C70.3998 59.9286 70.3643 60.0357 70.3287 60.1072C70.2576 60.2857 70.2576 60.4643 70.2576 60.6429C70.2576 61.2857 70.4354 61.8572 70.7909 62.3572C71.2887 63.0357 71.8932 63.6786 72.5332 64.25C72.9954 64.6786 73.4932 65.0357 74.062 65.3215C74.8798 65.75 75.4843 66.3929 75.9465 67.1786C75.9465 67.25 76.0176 67.2857 76.0176 67.3572C75.9465 67.4286 75.8398 67.4286 75.7687 67.4286C75.1287 67.5715 74.4532 67.5357 73.8132 67.3215C72.9954 67.0715 72.2843 66.6429 71.6443 66.0715C71.2532 65.7143 70.862 65.3215 70.5776 64.8929C70.1509 64.25 69.7954 63.5715 69.4398 62.8929C69.0843 62.1786 68.8354 61.4286 68.5865 60.6786C68.0887 59.3215 67.6265 57.9643 67.2709 56.5715C67.1287 56.0357 66.9865 55.5 66.7732 55C66.6665 54.7143 66.4532 54.5 66.2043 54.3215C65.8843 54.1072 65.6354 54.1786 65.422 54.5C65.2798 54.75 65.2087 55 65.1732 55.2857C65.1732 55.2857 65.1376 55.2857 65.1021 55.2857V56.4286C65.1021 56.4286 65.1376 56.4286 65.1732 56.4286C65.1732 56.7143 65.1732 56.9643 65.2087 57.25C65.2443 57.8572 65.3154 58.4643 65.3865 59.0715C65.4576 59.8215 65.5998 60.6072 65.742 61.3572C66.062 62.9286 66.4887 64.4643 67.1287 65.9286C67.9465 67.7857 69.0843 69.4286 70.7198 70.6786C71.7154 71.4286 72.7465 72.0715 73.8843 72.5715C76.3376 73.6786 78.9332 74.1072 81.5998 74.0715C81.8843 74.0715 82.1687 74.0715 82.4176 74.0357C82.6309 74.0357 82.6309 74.0357 82.6309 73.8215C82.6309 73.6072 82.7021 73.3929 82.7021 73.1786C82.7732 72.2143 82.702 71.2857 82.382 70.3572C81.8132 68.75 80.9243 67.2857 79.7865 66.0357" fill="black"/>
<path d="M14.5421 53.393C16.8532 53.393 18.1688 52.0715 18.1688 49.4287C18.1688 46.7858 16.8532 45.3215 14.5421 45.3215C12.231 45.3215 10.8799 46.8572 10.8799 49.393C10.8799 51.9287 12.1954 53.3572 14.5421 53.3572M14.5421 47.1072C15.431 47.1072 15.9999 47.6072 15.9999 49.4287C15.9999 51.2501 15.431 51.4287 14.5421 51.4287C13.6532 51.4287 13.0843 51.0715 13.0843 49.393C13.0843 47.7144 13.6177 47.143 14.5421 47.143" fill="black"/>
<path d="M14.0445 41.6072H12.1245V43.7857H14.0445V41.6072Z" fill="black"/>
<path d="M16.8533 41.6072H14.8977V43.7857H16.8533V41.6072Z" fill="black"/>
<path d="M49.8844 53.3929H58.2756V49.2501C58.2756 47.0358 57.2089 45.8572 55.04 45.8572H51.8044V45.2144C51.8044 44.6786 52.2667 44.2144 53.2622 44.2144H56.64V42.2144H53.2622C51.1644 42.2144 49.7422 43.3572 49.7422 45.1429V47.8572H54.9689C55.8578 47.8572 56.1422 48.3215 56.1422 49.3215V51.4286H47.8933V45.3215H45.7244V51.4286H43.6267V45.3215H41.4222V51.4286H38.6133V45.3215H36.5156V51.4286H26.8089V45.3215H23.2533C21.0489 45.3215 19.8044 46.8572 19.8044 49.6072C19.8044 52.3572 21.76 53.4286 23.2533 53.4286H24.5333C24.4622 54.1429 23.7867 54.6786 22.8978 54.7144V56.7144H23.2889C25.0311 56.5715 26.56 55.3572 26.8089 53.4286H49.8844V53.3929ZM24.6756 51.3929H23.2889C22.4 51.3929 21.9378 50.5358 21.9378 49.5715C21.9378 48.6072 22.1156 47.2501 23.2889 47.2501H24.6756V51.3929Z" fill="black"/>
<path d="M20.3377 58.2144H17.5288L13.5466 63.3215V58.2144H11.271V69.4644H13.5466V64.3572L17.7421 69.4644H20.6221L15.8221 63.7858L20.3377 58.2144Z" fill="black"/>
<path d="M23.7868 58.2144H21.5112V69.4644H23.7868V58.2144Z" fill="black"/>
<path d="M32.9954 63.8572C32.6754 63.5715 32.3199 63.3572 31.8932 63.1429C31.4665 62.9644 31.0399 62.8215 30.5777 62.6786L29.6532 62.4644C29.0843 62.3215 28.6577 62.1429 28.4088 61.9644C28.1599 61.7858 28.0532 61.5358 28.0532 61.2144C28.0532 60.8929 28.0888 60.9286 28.1954 60.7858C28.2665 60.6786 28.4088 60.5715 28.551 60.4644C28.7288 60.3572 28.9065 60.3215 29.1199 60.2501C29.3332 60.2144 29.5821 60.1786 29.831 60.1786C30.3288 60.1786 30.8621 60.2501 31.3954 60.3929C31.9288 60.5358 32.4621 60.7858 32.9599 61.1072L33.8843 59.0715C33.5643 58.8572 33.2443 58.7144 32.9243 58.5715C32.6043 58.4644 32.2843 58.3572 31.9643 58.2501C31.6443 58.1429 31.2888 58.0715 30.9332 58.0358C30.5777 58.0001 30.2221 57.9644 29.8665 57.9644C29.2621 57.9644 28.6932 58.0358 28.1954 58.1786C27.6977 58.3215 27.271 58.5358 26.8799 58.8215C26.5243 59.1072 26.2399 59.4286 26.0265 59.8215C25.8132 60.2144 25.7421 60.6429 25.7421 61.1072C25.7421 61.9644 25.991 62.6786 26.5243 63.2858C27.0577 63.8572 27.8399 64.2858 28.871 64.5358L29.7599 64.7501C30.0799 64.8215 30.3288 64.8929 30.5777 65.0001C30.8265 65.0715 31.0399 65.1786 31.1821 65.2858C31.3599 65.3929 31.4665 65.5001 31.5377 65.6429C31.6088 65.7858 31.6799 65.9286 31.6799 66.1429C31.6799 66.3572 31.6443 66.5358 31.5377 66.7144C31.431 66.8572 31.2888 67.0001 31.111 67.1072C30.9332 67.2144 30.6843 67.2858 30.4354 67.3572C30.1865 67.3929 29.8665 67.4286 29.5465 67.4286C29.2265 67.4286 28.9777 67.4286 28.6932 67.3572C28.4088 67.3215 28.1243 67.2501 27.8399 67.1786C27.5554 67.1072 27.3065 67.0358 27.0577 66.9286C26.8088 66.8215 26.5599 66.6786 26.2399 66.5001L25.3154 68.5358C25.6354 68.7501 25.9554 68.8929 26.2754 69.0358C26.5954 69.1429 26.9154 69.2501 27.271 69.3572C27.6265 69.4644 27.9821 69.5001 28.3732 69.5715C28.7643 69.6072 29.1554 69.6429 29.511 69.6429C30.151 69.6429 30.7199 69.5715 31.2888 69.4286C31.8221 69.2858 32.3199 69.0715 32.711 68.7858C33.1021 68.5001 33.4221 68.1429 33.671 67.7144C33.9199 67.2858 34.0265 66.7858 34.0265 66.2501C34.0265 65.7144 33.9199 65.2858 33.7421 64.8929C33.5643 64.5001 33.3154 64.1786 32.9954 63.8929" fill="black"/>
<path d="M46.258 58.2144L44.658 66.1072L43.2713 58.2144H40.2846L38.898 66.1072L37.298 58.2144H34.8091L37.3691 69.4644H40.3557L41.778 61.2501L43.2357 69.4644H46.1869L48.7824 58.2144H46.258Z" fill="black"/>
<path d="M52.3734 58.2144L48.2134 69.4644H50.5956L51.52 66.8929H55.7867L56.7112 69.4644H59.0934L54.9334 58.2144H52.3378H52.3734ZM52.3023 64.7501L53.6534 60.9286L55.0045 64.7501H52.2667H52.3023Z" fill="black"/>
</svg>
