<svg width="112" height="112" viewBox="0 0 112 112" fill="none" xmlns="http://www.w3.org/2000/svg">
<path fill-rule="evenodd" clip-rule="evenodd" d="M30.266 39.2726L28.7052 53.9768L26.0556 41.5848L17.7075 43.3551L20.3571 55.7471L8.34302 58.2399L10.4845 68.1391L31.6452 72.5828L36.4726 61.8166L38.7593 40.1397L30.266 39.2726ZM23.5875 60.5883C23.1519 60.9857 22.5712 60.9495 21.9541 60.7328C21.3371 60.516 21.083 59.7934 21.3008 58.9264C21.4823 58.276 22.2808 58.1677 22.6801 58.1677C22.8252 58.1677 22.9704 58.1677 23.1156 58.276C23.406 58.4206 23.8778 58.6735 23.9867 59.107C24.1319 59.7212 23.9867 60.227 23.5512 60.6244L23.5875 60.5883ZM29.7215 61.2747C29.3949 61.8166 28.5601 61.8889 27.7615 61.4915C27.2171 61.2386 27.2171 60.5521 27.2897 60.1186C27.2897 59.9018 27.3986 59.685 27.5438 59.5044C27.7252 59.2515 28.0519 58.9264 28.4512 58.9264C29.0682 58.9264 29.6126 59.1793 29.903 59.685C30.1934 60.1908 30.0482 60.7328 29.7215 61.2747Z" fill="black"/>
<path d="M51.1726 41.6932H49.2851V45.7757C48.7044 45.1254 47.9422 44.7641 47.0348 44.7641C45.1474 44.7641 43.7318 46.2815 43.7318 48.5215C43.7318 50.7614 45.1837 52.2788 47.0348 52.2788C48.8859 52.2788 48.777 51.8814 49.3214 51.2311L49.5029 52.1343H51.4629L51.1363 50.653V41.6932H51.1726ZM47.434 50.3279C46.3451 50.3279 45.5466 49.6053 45.5466 48.5215C45.5466 47.4376 46.3451 46.715 47.434 46.715C48.5229 46.715 49.3214 47.4015 49.3214 48.5215C49.3214 49.6414 48.5229 50.3279 47.434 50.3279ZM60.9 41.6932H62.7874V52.1343H60.9V41.6932ZM56.0363 44.728C53.9311 44.728 52.3703 46.2454 52.3703 48.4853C52.3703 50.7253 53.8948 52.2427 56.2903 52.2427C58.6859 52.2427 58.3592 51.9536 59.2303 51.4117L58.5044 49.8221C57.8148 50.1834 57.0888 50.4001 56.3266 50.4001C55.5644 50.4001 54.657 50.0388 54.3666 49.3163H59.6296C59.7022 49.0634 59.7022 48.7744 59.7022 48.4492C59.7022 46.2092 58.1414 44.728 56.0363 44.728ZM54.2214 47.835C54.4392 47.0041 55.0563 46.5705 56.0363 46.5705C57.0163 46.5705 57.6333 47.0041 57.8511 47.835H54.2577H54.2214ZM92.0059 44.728C89.8644 44.728 88.3037 46.2454 88.3037 48.4853C88.3037 50.7253 89.8644 52.2427 92.0059 52.2427C94.1474 52.2427 95.7081 50.7253 95.7081 48.4853C95.7081 46.2454 94.1474 44.728 92.0059 44.728ZM92.0059 50.3279C90.917 50.3279 90.1185 49.6053 90.1185 48.5215C90.1185 47.4376 90.917 46.715 92.0059 46.715C93.0948 46.715 93.8933 47.4015 93.8933 48.5215C93.8933 49.6414 93.0948 50.3279 92.0059 50.3279ZM88.4489 45.0893L87.5777 47.0763C87.2511 46.8596 86.8881 46.7512 86.5252 46.7512C85.9081 46.7512 85.4363 47.0402 85.1822 47.5099V52.0982H83.2948V46.2815L82.9681 44.8725H84.8918L85.0733 45.7757C85.5089 45.0893 86.2348 44.6919 87.0696 44.6919C87.9044 44.6919 88.0133 44.8002 88.4126 45.0531L88.4489 45.0893ZM100.281 44.728C98.14 44.728 96.5792 46.2454 96.5792 48.4853C96.5792 50.7253 98.14 52.2427 100.281 52.2427C102.423 52.2427 103.984 50.7253 103.984 48.4853C103.984 46.2454 102.423 44.728 100.281 44.728ZM100.281 50.3279C99.1926 50.3279 98.394 49.6053 98.394 48.5215C98.394 47.4376 99.1926 46.715 100.281 46.715C101.37 46.715 102.169 47.4015 102.169 48.5215C102.169 49.6414 101.37 50.3279 100.281 50.3279ZM72.1881 44.8725H74.2207L72.2607 52.0982H69.2481L67.2881 44.8725H69.2844L70.7363 50.7253L72.1881 44.8725ZM66.5622 42.7048C66.5622 43.3912 66.054 43.897 65.4007 43.897C64.7474 43.897 64.2029 43.3912 64.2029 42.7048C64.2029 42.0184 64.7111 41.5126 65.4007 41.5126C66.0903 41.5126 66.5622 42.0184 66.5622 42.7048ZM78.3948 44.728C76.2896 44.728 74.7289 46.2454 74.7289 48.4853C74.7289 50.7253 76.2533 52.2427 78.6489 52.2427C81.0444 52.2427 80.7177 51.9536 81.5889 51.4117L80.8629 49.8221C80.1733 50.1834 79.4474 50.4001 78.6851 50.4001C77.9229 50.4001 77.0155 50.0388 76.7252 49.3163H81.9881C82.0607 49.0634 82.0607 48.7744 82.0607 48.4492C82.0607 46.2092 80.5 44.728 78.3948 44.728ZM76.6163 47.835C76.834 47.0041 77.4511 46.5705 78.4311 46.5705C79.4111 46.5705 80.0281 47.0041 80.2459 47.835H76.6526H76.6163ZM64.457 44.8725H66.3444V52.0982H64.457V44.8725Z" fill="black"/>
<path d="M57.1977 64.9237C57.1977 68.6449 55.3829 70.5597 53.1325 70.5597C50.8822 70.5597 51.5355 70.3791 50.7007 69.9455V68.2836C51.5718 68.6449 52.1888 68.7533 52.8785 68.7533C54.0399 68.7533 55.2014 68.1752 55.5281 66.2604H52.5881C51.2088 66.2604 50.5918 65.6101 50.5918 64.2734C50.5918 61.4192 52.1888 59.938 53.6044 59.938C55.0199 59.938 57.1977 61.8167 57.1977 64.9237ZM55.637 64.2373C55.4192 62.8282 54.4755 61.8167 53.5681 61.8167C52.6607 61.8167 51.9348 62.8282 51.9348 64.2373H55.637Z" fill="black"/>
<path d="M64.9652 64.6347V65.9715C64.9652 66.1882 64.9289 66.3327 64.6385 66.3327C64.1667 66.3327 63.7311 66.2605 63.3681 66.1882C63.1504 69.4759 61.88 70.5959 59.8474 70.5959C57.8148 70.5959 58.7222 70.4875 58.2504 70.2707V68.5727C58.6859 68.7172 59.1215 68.7533 59.557 68.7533C60.7548 68.7533 61.6622 68.1392 61.6622 65.2489V60.3354H63.3681V64.2734H64.6385C64.8563 64.2734 64.9289 64.4541 64.9289 64.6708L64.9652 64.6347Z" fill="black"/>
<path d="M73.8942 64.6347V65.8992C73.8942 66.1159 73.7853 66.2966 73.5675 66.2966H71.3171C70.446 66.2966 69.6475 66.1521 68.9216 65.8992C67.4334 66.1882 66.0542 66.2966 65.2919 66.2966H64.6023C64.3845 66.2966 64.2756 66.1521 64.2756 65.8992V64.6347C64.2756 64.3818 64.3845 64.2373 64.6386 64.2373H66.4534C66.1267 63.8398 65.9816 63.3702 65.9816 62.9366C65.9816 60.9496 67.3971 59.3599 69.1393 59.3599C70.8816 59.3599 72.1882 61.0941 71.9341 64.2011H73.5312C73.7853 64.2011 73.8942 64.3456 73.8942 64.5985V64.6347ZM67.3245 63.045C67.9779 63.6592 69.1393 64.0566 70.5186 64.2011C70.5186 62.5754 69.8653 61.2025 68.8127 61.2025C67.7601 61.2025 67.506 61.8167 67.3245 63.045ZM67.9779 57.2284C67.9779 56.6142 68.4497 56.1084 69.103 56.1084C69.7564 56.1084 70.2282 56.6142 70.2282 57.2284C70.2282 57.8426 69.7201 58.3484 69.103 58.3484C68.486 58.3484 67.9779 57.8787 67.9779 57.2284Z" fill="black"/>
<path d="M79.3022 64.5263V66.0437C79.3022 66.2244 79.1933 66.2966 78.9755 66.2966C78.1407 66.2966 77.4874 66.1882 76.9067 65.7186C76.5437 66.116 75.9992 66.2966 75.3096 66.2966H73.5674C73.3496 66.2966 73.2407 66.2244 73.2407 66.0437V64.5263C73.2407 64.3457 73.3496 64.2373 73.5674 64.2373H75.7089V60.2993H77.4511V63.6954C77.4511 64.0567 77.7052 64.2012 77.8866 64.2012H78.9755C79.1933 64.2012 79.3022 64.3096 79.3022 64.4902V64.5263ZM78.3222 68.5727C78.3222 69.1146 77.8504 69.5481 77.3422 69.5481C76.8341 69.5481 76.5437 69.2953 76.3985 68.8978C76.2533 69.2953 75.8904 69.5481 75.4548 69.5481C75.0192 69.5481 74.4748 69.1507 74.4748 68.5727C74.4748 67.9946 74.8741 67.5972 75.4548 67.5972C76.0355 67.5972 76.2533 67.8501 76.3985 68.2475C76.5437 67.8501 76.8704 67.5972 77.3422 67.5972C77.8141 67.5972 78.3222 68.0308 78.3222 68.5727Z" fill="black"/>
<path d="M84.3474 64.5262V66.0436C84.3474 66.2243 84.2386 66.2965 84.0208 66.2965C83.2223 66.2965 82.6415 66.1159 82.1334 65.574C81.8067 66.0075 81.2986 66.2965 80.6815 66.2965H78.9756C78.7578 66.2965 78.6489 66.2243 78.6489 66.0436V64.5262C78.6489 64.3456 78.7578 64.2372 78.9756 64.2372H80.8993V53.8684H82.6052V63.6592C82.6052 64.0204 82.8956 64.2372 83.2223 64.2372H84.0208C84.2386 64.2372 84.3474 64.3456 84.3474 64.5262Z" fill="black"/>
<path d="M87.5414 68.7172C87.5414 69.3314 87.0333 69.801 86.4525 69.801C85.8718 69.801 85.5451 69.512 85.4362 69.0424C85.2911 69.4759 84.8555 69.801 84.4199 69.801C83.9844 69.801 83.3311 69.3314 83.3311 68.7172C83.3311 68.103 83.7666 67.6334 84.4199 67.6334C84.8918 67.6334 85.3274 67.9224 85.4362 68.3559C85.5814 67.9224 85.9444 67.5972 86.4525 67.6334C87.0696 67.6334 87.5414 68.103 87.5414 68.7172ZM87.8681 60.2993V64.0928C87.8681 65.4657 87.1422 66.2966 85.7266 66.2966H83.9844C83.7666 66.2966 83.6577 66.2244 83.6577 66.0437V64.5263C83.6577 64.3457 83.7666 64.2373 83.9844 64.2373H86.1259V60.2993H87.8681Z" fill="black"/>
<path d="M89.4652 65.8631V63.9844C90.0097 64.1289 90.663 64.2012 91.6793 64.2012H93.3852L92.3326 59.36H94.1111L94.9822 63.3341C95.4178 65.285 93.966 66.405 92.2963 66.3689C91.4615 66.3689 90.2274 66.1521 89.5015 65.7908L89.4652 65.8631Z" fill="black"/>
</svg>
