<svg width="112" height="112" viewBox="0 0 112 112" fill="none" xmlns="http://www.w3.org/2000/svg">
<g clip-path="url(#clip0_3607_43799)">
<path d="M104.049 38.104L104.525 42.3153C104.578 42.8872 105.054 43.3031 105.583 43.3551L109.865 43.823L105.583 44.291C105.001 44.3429 104.578 44.8109 104.525 45.3308L104.049 49.5421L103.574 45.3308C103.521 44.7589 103.045 44.3429 102.516 44.291L98.2334 43.823L102.516 43.3551C103.098 43.3031 103.521 42.8352 103.574 42.3153L104.049 38.104ZM9.56538 48.7622C9.08953 48.5022 8.5608 48.3463 7.97919 48.2423C7.45046 48.1903 6.92173 48.1383 6.55162 48.1383H1.52869V48.5022H1.8988C2.4804 48.5022 2.85051 48.6582 3.00913 49.0221C3.16775 49.3861 3.2735 49.802 3.2735 50.3739V61.1881H5.0183V55.521H7.13323C7.29184 55.521 7.55621 55.521 7.82057 55.521C8.08494 55.521 8.40218 55.4171 8.71942 55.3651C9.03665 55.2611 9.35389 55.1571 9.67113 55.0011C9.98837 54.8452 10.2527 54.6372 10.5171 54.3772C10.7815 54.1173 10.993 53.8053 11.1516 53.3894C11.3102 53.0255 11.4159 52.5575 11.4159 51.9856C11.4159 51.1538 11.2573 50.4779 10.8872 49.958C10.5171 49.4381 10.0941 49.0741 9.61826 48.8142M9.1424 53.2854C8.93091 53.6494 8.66654 53.9613 8.3493 54.2213C8.03207 54.4812 7.71483 54.6372 7.39759 54.7412C7.08035 54.8452 6.76311 54.8971 6.49875 54.8971C6.23438 54.8971 6.02289 54.8971 5.75853 54.8452C5.49416 54.8452 5.28267 54.7412 5.07118 54.6892V49.0221C5.28267 49.0221 5.49416 48.9182 5.75853 48.8662C6.02289 48.8662 6.28726 48.8142 6.49875 48.8142C6.71024 48.8142 7.08035 48.8142 7.39759 48.9702C7.71483 49.0741 8.08494 49.2301 8.3493 49.4901C8.66654 49.75 8.93091 50.062 9.1424 50.4259C9.35389 50.7898 9.45964 51.3098 9.45964 51.8817C9.45964 52.4536 9.35389 52.9215 9.1424 53.3374M21.3561 56.2489C21.3561 57.0288 21.3032 57.7047 21.1974 58.2246C21.0917 58.7965 20.8802 59.2644 20.6158 59.6283C20.3515 59.9923 19.9814 60.2522 19.5055 60.4602C19.0297 60.6162 18.448 60.7202 17.8136 60.7202C17.1791 60.7202 16.7032 60.6162 16.3331 60.4602C15.9101 60.3042 15.5929 60.0443 15.3814 59.6803C15.117 59.3164 14.9584 58.9525 14.8527 58.4325C14.7469 57.9646 14.6941 57.3927 14.6941 56.7688V51.7777C14.6941 51.3617 14.6941 50.9978 14.6412 50.7379C14.6412 50.4779 14.4826 50.2699 14.3768 50.114C14.2711 49.958 14.1125 49.854 13.901 49.802C13.6895 49.75 13.4251 49.698 13.1079 49.698H11.5217V50.062H11.8918C12.4205 50.062 12.7906 50.2179 12.8964 50.5299C13.055 50.8418 13.1079 51.2578 13.1079 51.7777V56.2489C13.1079 57.0808 13.1607 57.8606 13.3194 58.4845C13.478 59.1084 13.7424 59.6803 14.0596 60.0963C14.4297 60.5122 14.8527 60.8761 15.4343 61.0841C16.0159 61.2921 16.7561 61.396 17.6021 61.396C18.448 61.396 19.2411 61.2921 19.8756 61.0841C20.4572 60.8761 20.9331 60.5642 21.2503 60.0963C21.5676 59.6803 21.8319 59.1084 21.9377 58.4845C22.0434 57.8606 22.1492 57.0808 22.1492 56.2489V49.698H21.4618V56.2489H21.3561ZM31.8249 60.3562C31.6134 60.2002 31.4548 59.9923 31.2433 59.7323C31.0318 59.4724 30.8203 59.1604 30.6088 58.7965L28.7583 55.729C29.0755 55.677 29.3928 55.573 29.71 55.4171C30.0272 55.3131 30.3445 55.1051 30.6088 54.8971C30.8732 54.6892 31.1376 54.3772 31.2962 54.0133C31.4548 53.6494 31.5606 53.2334 31.5606 52.7135C31.5606 52.1936 31.4019 51.4657 31.0847 51.0498C30.7675 50.6339 30.3973 50.3219 29.9215 50.114C29.4456 49.906 28.9698 49.75 28.441 49.698C27.9123 49.646 27.4893 49.594 27.1192 49.594H22.5193V49.958H22.8894C23.4181 49.958 23.7882 50.114 23.894 50.4259C24.0526 50.7379 24.1055 51.1538 24.1055 51.6737V61.1361H25.6916V55.781H26.9606L28.7583 58.7445C29.0226 59.2124 29.287 59.6283 29.5514 59.9403C29.8157 60.2522 30.0801 60.5122 30.2916 60.7202C30.556 60.9281 30.8203 61.0841 31.0847 61.1361C31.3491 61.2401 31.6134 61.2401 31.9307 61.2401C32.2479 61.2401 32.3536 61.2401 32.5651 61.1881C32.7766 61.1881 32.8824 61.1361 32.9881 61.0841V60.7202C32.7766 60.7202 32.5651 60.6682 32.3536 60.5642C32.1422 60.5122 31.9835 60.3562 31.772 60.2002M27.9123 55.1051C27.5951 55.2091 27.3307 55.2611 27.0663 55.2611C26.802 55.2611 26.5905 55.2611 26.379 55.2091C26.1146 55.2091 25.9031 55.1571 25.7445 55.1051V50.4779C25.9031 50.4779 26.1146 50.3739 26.379 50.3739C26.6434 50.3739 26.8549 50.3219 27.0663 50.3219C27.2778 50.3219 27.5951 50.3219 27.9123 50.4779C28.2296 50.5819 28.5468 50.7379 28.8112 50.8938C29.0755 51.1018 29.3399 51.3617 29.5514 51.6737C29.7629 51.9856 29.8686 52.4016 29.8686 52.8695C29.8686 53.3374 29.7629 53.7013 29.5514 54.0133C29.3399 54.3252 29.1284 54.5852 28.8112 54.7412C28.5468 54.9491 28.2296 55.0531 27.9123 55.1571M99.4495 60.8761C98.9208 60.8761 98.5506 60.7202 98.4449 60.4082C98.2863 60.0963 98.2334 59.6803 98.2334 59.1604V49.698H96.6472V54.9491H91.307V52.4016V51.1018C91.307 50.9458 91.307 50.7379 91.2542 50.5819C91.2542 50.4259 91.1484 50.2699 91.0427 50.114C90.9369 50.01 90.7783 49.906 90.5668 49.802C90.3553 49.698 90.1438 49.698 89.8266 49.698H85.9669H80.098C79.7807 49.698 79.5164 49.698 79.3577 49.802C79.1463 49.906 78.9876 50.01 78.8819 50.114C78.7761 50.2179 78.6704 50.3739 78.6704 50.5819C78.6704 50.7379 78.6175 50.9458 78.6175 51.1018V52.4016V53.5454H78.9876V52.4016C78.9876 51.7257 79.1991 51.2058 79.5692 50.8938C79.9394 50.5819 80.521 50.4259 81.2083 50.4259H82.7945V61.2921H84.3807V50.4259H87.5531C88.2404 50.4259 88.822 50.5819 89.1921 50.8938C89.5622 51.2058 89.7737 51.7257 89.7737 52.4016V61.2401H91.3599V55.625H96.7001V59.1084C96.7001 59.5763 96.7001 59.8883 96.753 60.2002C96.753 60.4602 96.9116 60.6682 97.0173 60.8241C97.1231 60.9801 97.2817 61.0841 97.4932 61.1361C97.7047 61.1881 97.969 61.2401 98.2863 61.2401H99.8725V60.8761H99.5024H99.4495ZM72.2199 60.4082C72.0613 60.2522 71.9027 60.0963 71.7969 59.8363C71.6912 59.6283 71.5325 59.3164 71.3739 59.0044L67.4613 49.646H66.9326L61.9625 61.1881H62.7556L64.1832 57.8606H69.1533L69.5762 59.0044C69.7877 59.5244 69.9992 59.8883 70.2636 60.2002C70.528 60.5122 70.7923 60.7202 71.0567 60.8761C71.3211 61.0321 71.5854 61.1361 71.8498 61.1881C72.1141 61.1881 72.3256 61.2401 72.5371 61.2401C72.7486 61.2401 73.0659 61.2401 73.2245 61.1361V60.7721C72.9601 60.7721 72.7486 60.7202 72.59 60.6162C72.4314 60.5642 72.2199 60.4602 72.1141 60.3042M64.4476 57.1848L66.6682 52.0896L68.7831 57.1848H64.4476ZM75.5509 51.7777C75.5509 51.3617 75.5509 50.9978 75.498 50.7379C75.498 50.4779 75.3394 50.2699 75.2337 50.114C75.1279 49.958 74.9693 49.854 74.7578 49.802C74.5463 49.75 74.2819 49.698 73.9647 49.698H72.3785V50.062H72.7486C73.1187 50.062 73.5417 50.1659 73.7532 50.4779C73.9118 50.6859 73.9647 50.9458 73.9647 51.2058C74.0176 51.8297 73.9647 52.4536 73.9647 53.0775V61.2401C73.9647 61.2921 81.8957 61.2921 81.8957 61.2921V60.6162H75.6038V51.8817L75.5509 51.7777ZM37.1651 55.2611L33.6226 60.5122V61.1881H39.7559C40.126 61.1881 40.3903 61.0841 40.6018 60.9281C40.8133 60.7721 40.9719 60.5642 41.0777 60.3042L41.4478 59.3164H40.9719C40.7605 59.6803 40.4961 59.9923 40.2317 60.2002C39.7559 60.5122 39.1214 60.5122 38.3283 60.5122H35.6318L38.9628 55.2611L35.3145 50.3739H36.1076H38.9628C39.1743 50.3739 39.3858 50.3739 39.6501 50.3739C39.8616 50.3739 40.0731 50.4779 40.2846 50.5299C40.4432 50.5819 40.549 50.6859 40.6018 50.8418C40.6547 50.9458 40.7076 51.0498 40.7076 51.1538C40.8662 51.1538 40.9719 51.1538 41.1306 51.1538C41.1306 51.1538 41.1306 51.0498 41.1306 50.9978C41.1306 50.8418 41.1306 50.6339 41.0777 50.4779C41.0248 50.1659 40.8133 49.958 40.549 49.802C40.2846 49.646 39.9674 49.594 39.6501 49.594H32.4065V49.958C32.8824 49.958 33.1996 50.062 33.3582 50.3219L37.218 55.2091L37.1651 55.2611ZM61.751 51.2058C61.751 51.2058 61.751 51.1018 61.751 51.0498C61.751 50.8938 61.751 50.6859 61.6982 50.5299C61.6453 50.2179 61.4338 50.01 61.1694 49.854C60.9051 49.698 60.5878 49.646 60.2706 49.646H53.027V50.01C53.5028 50.01 53.8201 50.114 53.9787 50.3739L57.8384 55.2611L54.2959 60.5122V61.1881H60.4292C60.7993 61.1881 61.0637 61.0841 61.2752 60.9281C61.4867 60.7721 61.6453 60.5642 61.751 60.3042L62.1211 59.3164H61.6453C61.4338 59.6803 61.1694 59.9923 60.9051 60.2002C60.4292 60.5122 59.7947 60.5122 59.0016 60.5122H56.3051L59.6361 55.2611L55.9879 50.3739H56.781H59.6361C59.8476 50.3739 60.0591 50.3739 60.3235 50.3739C60.535 50.3739 60.7465 50.4779 60.9579 50.5299C61.1166 50.5819 61.2223 50.6859 61.2752 50.8418C61.3281 50.9458 61.3809 51.0498 61.3809 51.1538H61.8039L61.751 51.2058ZM52.2868 60.3042C52.1282 59.9403 52.0224 59.5244 52.0224 58.9525V48.1383H50.2776V54.3772H44.5144V50.4259C44.5144 49.958 44.5144 49.594 44.4616 49.2821C44.4616 48.9702 44.3029 48.7622 44.1972 48.6062C44.0386 48.4502 43.88 48.3463 43.6685 48.2423C43.457 48.1903 43.1397 48.1383 42.8225 48.1383H41.0777V48.5022H41.4478C42.0294 48.5022 42.3995 48.6582 42.5581 49.0221C42.7168 49.3861 42.8225 49.854 42.8225 50.3739V61.1881H44.5673V55.1051H50.3305V58.9005C50.3305 59.3684 50.3305 59.7843 50.3833 60.0443C50.3833 60.3562 50.542 60.5642 50.6477 60.7202C50.8063 60.8761 50.9649 60.9801 51.1764 61.0841C51.3879 61.1361 51.7052 61.1881 52.0224 61.1881H53.7672V60.8241H53.3971C52.8155 60.8241 52.4454 60.6682 52.2868 60.3042Z" fill="black"/>
</g>
<defs>
<clipPath id="clip0_3607_43799">
<rect width="109.5" height="23.5" fill="white" transform="translate(1 38)"/>
</clipPath>
</defs>
</svg>
