<svg width="112" height="112" viewBox="0 0 112 112" fill="none" xmlns="http://www.w3.org/2000/svg">
<path d="M11.123 68.1996V56.0001V43.8005H13.9618H16.8005V56.0001V68.1996H13.9618H11.123Z" fill="black"/>
<path d="M26.6462 53.3095C26.3355 50.0408 25.6575 47.3002 24.3195 43.9049C24.2642 43.7645 24.2818 43.7678 24.9367 44.0212C25.8301 44.3667 26.6276 44.7794 27.4817 45.338C32.888 48.8741 34.8113 55.8001 31.9817 61.5423C30.5835 64.3795 28.2211 66.5815 25.277 67.7916C24.3744 68.1626 24.2512 68.1894 24.3338 67.9969C24.3643 67.926 24.5545 67.4316 24.7567 66.8985C25.7283 64.3356 26.3706 61.5205 26.6464 58.6169C26.7589 57.4309 26.7589 54.4948 26.6462 53.3095Z" fill="black"/>
<path d="M36.591 50.7248C37.9237 47.7719 40.5664 45.2954 43.7114 44.0521C44.3385 43.8041 44.4305 43.7764 44.4305 43.8355C44.4305 43.8547 44.3326 44.1118 44.213 44.4068C43.1242 47.0924 42.368 50.2763 42.0813 53.3832C41.9602 54.6948 41.9799 57.5497 42.1198 58.9486C42.4057 61.8082 43.0932 64.6802 44.122 67.3123C44.2877 67.7365 44.4073 68.0993 44.3875 68.1186C44.3311 68.1735 43.1719 67.7011 42.4623 67.334C39 65.543 36.4971 62.3058 35.7261 58.6211C35.166 55.945 35.4644 53.221 36.591 50.7248Z" fill="black"/>
<path d="M48.7528 45.4566C49.1005 44.7296 50.0127 44.0324 50.82 43.8765C52.1049 43.6284 53.4238 44.2262 54.0284 45.3307C54.8489 46.8296 54.2579 48.597 52.6841 49.3515C52.2307 49.5689 52.1344 49.587 51.4342 49.587C50.7439 49.587 50.6314 49.5666 50.1834 49.3598C48.6787 48.6655 48.0451 46.9366 48.7528 45.4566Z" fill="black"/>
<path d="M61.7075 51.5341L63.417 47.6673C64.3572 45.5406 65.1481 43.8005 65.1746 43.8005C65.2195 43.8005 75.371 67.7765 75.4489 68.0665C75.483 68.1933 75.3261 68.1996 72.1166 68.1996H68.7484L68.2869 67.1123C68.0331 66.5143 66.4489 62.7646 64.7665 58.7796L61.7075 51.5341Z" fill="black"/>
<path d="M78.6463 68.1996V56.0001V43.8005H81.4851H84.3238V56.0001V68.1996H81.4851H78.6463Z" fill="black"/>
<path d="M92.2702 44.8203C92.0631 44.2859 91.8936 43.8378 91.8936 43.8246C91.8936 43.7788 91.968 43.8016 92.5357 44.0212C96.1428 45.4164 98.9618 48.304 100.181 51.8527C102.246 57.8613 99.5885 64.3717 93.8618 67.334C93.1415 67.7066 91.9927 68.1732 91.9347 68.1167C91.9139 68.0965 92.016 67.7844 92.1616 67.4233C92.8162 65.7997 93.4726 63.521 93.8186 61.6713C94.8684 56.0582 94.3223 50.1154 92.2702 44.8203Z" fill="black"/>
</svg>
