<svg width="112" height="112" viewBox="0 0 112 112" fill="none" xmlns="http://www.w3.org/2000/svg">
<path d="M96.0673 65.0158C96.0947 64.6036 96.2047 64.164 96.3695 63.6694C96.9466 62.0756 98.1006 59.74 98.7326 57.0746C98.7326 57.0746 98.7326 57.0472 98.7326 57.0197C98.7601 56.8823 98.7876 56.7174 98.8425 56.58C99.3097 54.4093 99.4471 52.0461 98.5952 49.6556C94.5285 38.0873 80.2948 42.6486 78.6736 43.2257C74.8817 44.5446 72.601 44.682 72.5735 44.682H72.5186L73.4253 47.7321L78.0142 46.1384C78.9209 45.8361 79.9376 45.2041 81.0093 44.5172C83.0976 43.1982 85.4882 41.7144 87.6864 42.2914C92.6325 43.5554 95.2979 46.9627 95.8474 52.6507C96.0398 54.5741 94.9956 57.1021 93.9789 59.5202C93.2645 61.2238 92.5501 62.9824 92.2753 64.4662C91.7807 67.2415 92.5776 69.8245 92.605 69.8519C92.605 69.8794 96.2321 68.8353 96.2321 68.8353C96.2321 68.7803 95.8474 67.2965 96.0673 65.0158Z" fill="black"/>
<path d="M102.552 62.1581C103.679 58.9707 105.41 54.162 103.596 48.9961C102.525 45.9461 100.546 43.8577 97.6884 42.7861C95.7099 42.0442 93.5392 41.8518 91.4508 42.0167C90.1594 41.8793 88.9778 42.1541 87.8787 42.5937C85.8453 43.0883 84.0592 43.8028 82.8777 44.4897C79.0307 46.7429 73.9473 49.106 73.8923 49.1335H73.8649L74.4144 51.9638H74.4694C74.5243 51.9088 79.8551 48.7213 82.8227 46.1384L82.9876 46.001C84.2516 44.9019 85.9277 43.4456 87.9062 42.6487C89.0328 42.3739 90.2143 42.1541 91.4508 42.0717C91.6707 42.0717 91.918 42.1266 92.1378 42.1816C98.7875 43.528 101.206 49.106 101.178 52.5133C101.178 56.2778 100.244 58.7234 99.447 60.8667C98.9798 62.1032 98.5402 63.2572 98.2929 64.5762C98.128 65.4555 98.0731 66.1699 98.0731 66.7195C98.0731 67.9285 98.3204 68.4231 98.3478 68.4506L101.975 67.4339C101.975 67.379 101.425 66.3073 101.92 64.1365C102.057 63.6145 102.277 62.9275 102.579 62.1306" fill="black"/>
<path d="M84.9111 57.9814H80.3497C80.4596 57.844 80.597 57.6792 80.7619 57.4594H84.4714C84.5814 57.6517 84.7462 57.8166 84.9111 57.9814Z" fill="black"/>
<path d="M88.6482 57.9814H93.237C93.237 57.8166 93.292 57.6517 93.292 57.4868H89.0878C88.9779 57.6792 88.8131 57.844 88.6482 57.9814Z" fill="black"/>
<path d="M86.5873 60.3995C86.5049 60.5644 86.395 60.7567 86.2301 60.9216H82.6305C82.4382 60.7567 82.2458 60.5644 82.0535 60.3995H86.5599H86.5873Z" fill="black"/>
<path d="M92.4675 60.427C92.3851 60.6193 92.2752 60.7842 92.1653 60.9491H88.126C88.2908 60.7567 88.4282 60.5919 88.5381 60.427H92.4675Z" fill="black"/>
<path d="M85.7629 61.3887C85.4607 61.6085 85.1035 61.7734 84.6638 61.8009C84.2516 61.8558 83.7845 61.6635 83.3174 61.3612H85.7629V61.3887Z" fill="black"/>
<path d="M91.863 61.4163C91.7256 61.6086 91.5883 61.7735 91.4509 61.9383H87.2192C87.4116 61.746 87.5764 61.5811 87.7138 61.4163H91.8356H91.863Z" fill="black"/>
<path d="M93.1545 58.4761C93.1271 58.641 93.0721 58.8333 93.0171 58.9982H80.7344C80.5696 58.7783 80.4322 58.586 80.3223 58.4486H85.5156C85.9003 58.641 86.285 58.7509 86.7247 58.7509C87.1643 58.7509 87.5765 58.641 87.9337 58.4486H93.0996L93.1545 58.4761Z" fill="black"/>
<path d="M92.8797 59.4378C92.8248 59.6026 92.7698 59.795 92.6874 59.9598H88.8679C88.9504 59.8224 89.0053 59.74 89.0053 59.74L89.1152 59.5477H86.9445V59.6301C86.9445 59.6301 86.917 59.7675 86.8345 59.9324H81.6687C81.5038 59.74 81.3389 59.5751 81.2015 59.4103H92.9347L92.8797 59.4378Z" fill="black"/>
<path d="M91.0113 62.3779C90.8189 62.5703 90.6266 62.7351 90.4067 62.9H86.0103C86.2576 62.7351 86.4499 62.5703 86.6697 62.3779H90.9838H91.0113Z" fill="black"/>
<path d="M85.9278 64.4388C86.3675 64.4388 86.7796 64.4113 87.1918 64.3289H84.6638C85.076 64.3838 85.4882 64.4388 85.9278 64.4388Z" fill="black"/>
<path d="M89.7473 63.3672C89.445 63.5595 89.1153 63.7519 88.7581 63.8893H84.0868C84.499 63.7519 84.9111 63.5595 85.2683 63.3672H89.7198H89.7473Z" fill="black"/>
<path d="M87.2743 50.6173C87.027 50.8371 86.7797 51.002 86.5599 51.1394H84.2517C84.3341 50.9745 84.4441 50.8097 84.554 50.6173H87.2743Z" fill="black"/>
<path d="M90.764 51.1394H89.4451C89.5825 50.9745 89.7473 50.8097 89.8847 50.6173H90.1045C90.3244 50.7822 90.5442 50.947 90.764 51.1394Z" fill="black"/>
<path d="M86.917 52.1287H83.812C83.812 52.1012 83.812 52.0737 83.812 52.0462C83.867 51.9088 83.9219 51.7714 84.0044 51.6066H86.1751C86.2576 51.7165 86.5049 51.9913 86.8896 52.1287" fill="black"/>
<path d="M91.6982 52.1287H87.9886C88.2909 52.0187 88.6206 51.8539 88.9504 51.6066H91.2585C91.4234 51.7714 91.5608 51.9638 91.6982 52.1287Z" fill="black"/>
<path d="M89.3351 57.0198H93.3194V56.8824C93.3194 56.745 93.3194 56.6351 93.3194 56.4977H89.5C89.4725 56.6625 89.39 56.8274 89.3351 57.0198Z" fill="black"/>
<path d="M84.2242 57.0198H81.1191C81.2291 56.8549 81.3664 56.69 81.5038 56.4977H84.0868C84.1143 56.69 84.1692 56.8549 84.2516 57.0198" fill="black"/>
<path d="M92.3577 53.1178H87.0545L86.8072 53.0903H86.5599H83.4548C83.5373 52.9255 83.5922 52.7606 83.6747 52.5682H92.0555C92.1654 52.7606 92.2753 52.9255 92.3577 53.0903" fill="black"/>
<path d="M88.1809 49.6557C88.071 49.8205 87.9336 50.0129 87.7688 50.1503H84.8561C84.966 49.9579 85.1034 49.793 85.2408 49.6282H88.1534C88.1534 49.6282 88.1809 49.6282 88.2084 49.6282" fill="black"/>
<path d="M84.0044 55.9206V56.0305H81.8062C81.9161 55.8656 82.026 55.7008 82.1359 55.5084H84.0319C84.0319 55.6458 84.0044 55.7832 84.0044 55.9206Z" fill="black"/>
<path d="M89.5548 55.9206V56.0305H93.2918C93.2918 55.8656 93.2369 55.6733 93.2094 55.5084H89.5273C89.5273 55.6458 89.5548 55.7557 89.5548 55.8931" fill="black"/>
<path d="M84.389 54.5192C84.3066 54.684 84.2242 54.8489 84.1692 55.0413H82.4381C82.548 54.8764 82.6305 54.684 82.7404 54.5192H84.389Z" fill="black"/>
<path d="M89.4176 55.0687H93.0996C93.0447 54.9038 93.0172 54.739 92.9623 54.5466H89.1978C89.2802 54.7115 89.3626 54.8764 89.4176 55.0687Z" fill="black"/>
<path d="M88.8954 54.0796H92.8247C92.7698 53.9147 92.6874 53.7498 92.6049 53.585H88.3733C88.5931 53.7224 88.758 53.9147 88.9229 54.0796" fill="black"/>
<path d="M85.2409 53.5575C85.021 53.6949 84.8562 53.8872 84.6913 54.0796H82.9877C83.0701 53.9147 83.1525 53.7224 83.235 53.5575H85.2409Z" fill="black"/>
<path d="M90.3517 48.8588C90.2693 49.5183 89.967 50.1503 89.5823 50.6174C89.4449 50.8097 89.2801 50.9746 89.1152 51.1395C89.0328 51.2219 88.9228 51.3043 88.8404 51.3868C88.7305 51.4692 88.6206 51.5516 88.5382 51.6066C88.071 51.9089 87.6314 52.0188 87.2192 51.9638C86.8895 51.9089 86.6696 51.744 86.5323 51.6066C86.5048 51.5791 86.4773 51.5516 86.4498 51.5242C86.5872 51.4417 86.7796 51.3043 87.0269 51.1395C87.2192 51.0021 87.439 50.8097 87.6589 50.6174C87.8237 50.48 87.9886 50.3151 88.126 50.1503C88.2359 50.0129 88.3458 49.8755 88.4557 49.7381C88.6206 49.4908 88.7305 49.216 88.758 48.9687V48.8038C88.758 48.4191 88.5931 48.0619 88.2634 47.7322C88.0161 47.5124 87.7138 47.4574 87.3566 47.5398C86.5872 47.7322 85.7079 48.639 84.966 49.6282C84.8286 49.793 84.7187 49.9854 84.6088 50.1503C84.4989 50.3151 84.4164 50.4525 84.3065 50.6174C84.1966 50.7823 84.1142 50.9746 84.0043 51.1395C83.9218 51.3043 83.8394 51.4417 83.7845 51.6066C83.7295 51.744 83.6745 51.8539 83.6471 51.9638C83.6471 52.0188 83.6196 52.0737 83.5921 52.1287C83.5371 52.2936 83.4822 52.4309 83.4272 52.5958C83.3723 52.7607 83.2898 52.953 83.2074 53.1179C83.1525 53.2828 83.07 53.4202 82.9876 53.585C82.9052 53.7499 82.8227 53.9422 82.7403 54.1071C82.6578 54.272 82.5754 54.4094 82.493 54.5742C82.3831 54.7391 82.3006 54.9314 82.1907 55.0963C82.1083 55.2612 81.9984 55.3986 81.9159 55.5634C81.806 55.7558 81.6961 55.9207 81.5587 56.0855C81.4488 56.2504 81.3389 56.3878 81.229 56.5527C81.0916 56.745 80.9542 56.9099 80.8443 57.0747C80.7069 57.2396 80.597 57.4045 80.4871 57.5419C80.2947 57.7892 80.1573 57.954 80.0474 58.0639C79.9925 58.1464 79.9375 58.1739 79.9375 58.1739L79.8551 58.2563L79.91 58.3387C79.91 58.3387 79.965 58.4212 80.0474 58.5311C80.1299 58.6685 80.2673 58.8333 80.4321 59.0532C80.542 59.1905 80.6794 59.3554 80.8168 59.5203C80.9542 59.6852 81.1191 59.85 81.2565 60.0424C81.3939 60.2072 81.5587 60.3446 81.6961 60.5095C81.861 60.6744 82.0533 60.8667 82.2457 61.0316C82.438 61.1964 82.6304 61.3613 82.8227 61.4987C83.125 61.7185 83.4272 61.9109 83.7295 62.0208C84.0592 62.1582 84.334 62.2131 84.6363 62.1582C84.8561 62.1582 85.0484 62.0757 85.2408 62.0208C85.5705 61.9109 85.8453 61.7185 86.0651 61.4987C86.23 61.3613 86.3674 61.1964 86.4773 61.0316C86.6147 60.8667 86.6971 60.6744 86.7796 60.5095C86.862 60.3172 86.9444 60.1798 86.9719 60.0424C86.9719 59.9874 87.0269 59.9325 87.0269 59.8775H88.5931C88.5656 59.9325 88.5382 59.9874 88.4832 60.0424C88.4008 60.1798 88.2909 60.3172 88.1535 60.5095C88.0436 60.6744 87.9062 60.8392 87.7413 61.0316C87.6039 61.169 87.4665 61.3338 87.3291 61.4987C87.1643 61.6636 86.9994 61.8559 86.807 62.0208C86.6422 62.1857 86.4498 62.323 86.2575 62.4879C86.0377 62.6803 85.7903 62.8451 85.543 63.01C85.2683 63.1749 84.9935 63.3397 84.6912 63.4771C84.1691 63.7244 83.6196 63.8893 83.0151 63.9992C82.9876 63.9992 82.9601 63.9992 82.9326 63.9992C80.5695 64.3015 77.8492 60.7568 77.8217 60.7293L77.7668 60.6469L77.6843 60.7018C77.6843 60.7018 75.8982 61.9658 74.909 62.4055C74.1396 62.7352 73.0955 62.8726 72.5459 62.5154C72.3811 62.433 72.3261 62.3231 72.2986 62.1857C72.1887 61.6911 72.4085 61.114 72.7383 60.7018C73.9473 59.218 77.1622 58.9158 77.1897 58.9158H77.2721V58.8333C77.2721 58.8059 77.8767 57.1846 78.8109 55.2062C78.8934 55.0414 78.9758 54.849 79.0582 54.6841C79.1407 54.5193 79.2231 54.3819 79.278 54.217C79.3605 54.0522 79.4429 53.8873 79.5528 53.6949C79.6353 53.5301 79.7177 53.3927 79.8001 53.2278C79.8826 53.0629 79.9925 52.8706 80.1024 52.7057C80.1848 52.5409 80.2947 52.4035 80.3772 52.2386C80.4871 52.0737 80.597 51.8814 80.7069 51.7165C81.0641 51.167 81.4213 50.6449 81.806 50.1777C83.7295 47.8696 86.23 46.3583 88.0436 46.3308C88.7305 46.3308 89.2801 46.5506 89.6373 46.9903C90.1319 47.5948 90.3517 48.2543 90.2693 48.9687" fill="black"/>
<path d="M84.8012 55.3435C85.0485 54.3818 85.9003 53.6399 86.917 53.6399C87.2742 53.6399 87.6314 53.7223 87.9337 53.8872C88.0985 53.9696 87.9612 54.2444 87.7963 54.162C87.5215 54.0246 87.2467 53.9422 86.917 53.9422C86.0377 53.9422 85.2958 54.5741 85.0759 55.426C85.021 55.6183 84.7462 55.5359 84.8012 55.3435ZM84.7462 56.1129V55.7832C84.8012 55.5908 85.076 55.6183 85.0485 55.8107V56.0854C85.0485 56.2778 84.7462 56.2778 84.7462 56.0854" fill="black"/>
<path d="M88.8954 56.6075C88.5657 57.4593 87.7688 58.0638 86.8346 58.0638C86.6422 58.0638 86.4499 58.0638 86.2575 57.9814C86.0652 57.9264 86.1476 57.6517 86.34 57.6791C86.5048 57.7341 86.6697 57.7616 86.8346 57.7616C87.6315 57.7616 88.3459 57.2395 88.5932 56.4976C88.6481 56.3052 88.9504 56.4151 88.868 56.6075M89.0328 55.8106C89.0328 55.948 89.0328 56.0854 88.9779 56.2503C88.9504 56.4426 88.6481 56.3877 88.7031 56.1953C88.7031 56.0854 88.7306 55.948 88.7306 55.8381C88.7306 55.6458 89.0328 55.6458 89.0328 55.8381" fill="black"/>
<path d="M18.8538 71.061C18.8538 71.2259 18.8538 71.3633 18.6889 71.3633H18.579C17.9196 71.3633 17.5349 71.1984 17.3425 70.8137C16.9578 70.9786 16.5182 71.0885 16.106 71.0885C14.9794 71.0885 14.0726 70.2367 14.0726 69.165C14.0726 68.0934 14.9794 67.2416 16.1335 67.2416C17.2876 67.2416 16.8479 67.324 17.2051 67.4614V67.2691H17.8371V69.907C17.8371 70.5115 17.9745 70.7588 18.6615 70.7588H18.7439C18.8813 70.7588 18.9088 70.8687 18.9088 71.061M17.1777 70.2367C17.1777 70.1543 17.1777 70.0443 17.1777 69.9344V68.1209C16.8479 67.956 16.4632 67.8461 16.106 67.8461C15.3091 67.8461 14.6772 68.4231 14.6772 69.165C14.6772 69.907 15.2817 70.484 16.106 70.484C16.9304 70.484 16.8204 70.4016 17.2051 70.2092M15.2267 66.2798C15.2267 66.06 15.3916 65.8677 15.6114 65.8677C15.8312 65.8677 15.9961 66.0325 15.9961 66.2798C15.9961 66.5271 15.8312 66.692 15.6114 66.692C15.3916 66.692 15.2267 66.4997 15.2267 66.2798ZM16.2434 66.2798C16.2434 66.06 16.4083 65.8677 16.6281 65.8677C16.8479 65.8677 17.0128 66.0325 17.0128 66.2798C17.0128 66.5271 16.8479 66.692 16.6281 66.692C16.4083 66.692 16.2434 66.4997 16.2434 66.2798Z" fill="black"/>
<path d="M20.0629 71.061C20.0629 71.2259 20.0629 71.3633 19.8981 71.3633H18.689C18.5516 71.3633 18.5242 71.2534 18.5242 71.061C18.5242 70.8687 18.5242 70.7588 18.689 70.7588H19.8981C20.0355 70.7588 20.0629 70.8687 20.0629 71.061Z" fill="black"/>
<path d="M21.2994 71.061C21.2994 71.2259 21.2994 71.3633 21.1345 71.3633H19.9255C19.7881 71.3633 19.7606 71.2534 19.7606 71.061C19.7606 70.8687 19.7606 70.7588 19.9255 70.7588H21.1345C21.2719 70.7588 21.2994 70.8687 21.2994 71.061Z" fill="black"/>
<path d="M22.5084 71.061C22.5084 71.2259 22.5084 71.3633 22.3435 71.3633H21.1345C20.9971 71.3633 20.9696 71.2534 20.9696 71.061C20.9696 70.8687 20.9696 70.7588 21.1345 70.7588H22.3435C22.4809 70.7588 22.5084 70.8687 22.5084 71.061Z" fill="black"/>
<path d="M23.7175 71.061C23.7175 71.2259 23.7175 71.3633 23.5526 71.3633H22.3436C22.2062 71.3633 22.1787 71.2534 22.1787 71.061C22.1787 70.8687 22.1787 70.7588 22.3436 70.7588H23.5526C23.69 70.7588 23.7175 70.8687 23.7175 71.061Z" fill="black"/>
<path d="M24.9539 71.061C24.9539 71.2259 24.9539 71.3633 24.7891 71.3633H23.58C23.4426 71.3633 23.4152 71.2534 23.4152 71.061C23.4152 70.8687 23.4152 70.7588 23.58 70.7588H24.7891C24.9265 70.7588 24.9539 70.8687 24.9539 71.061Z" fill="black"/>
<path d="M26.163 71.061C26.163 71.2259 26.163 71.3633 25.9982 71.3633H24.7891C24.6517 71.3633 24.6243 71.2534 24.6243 71.061C24.6243 70.8687 24.6243 70.7588 24.7891 70.7588H25.9982C26.1356 70.7588 26.163 70.8687 26.163 71.061Z" fill="black"/>
<path d="M27.372 71.061C27.372 71.2259 27.372 71.3633 27.2072 71.3633H25.9981C25.8607 71.3633 25.8333 71.2534 25.8333 71.061C25.8333 70.8687 25.8333 70.7588 25.9981 70.7588H27.2072C27.3445 70.7588 27.372 70.8687 27.372 71.061Z" fill="black"/>
<path d="M28.581 71.061C28.581 71.2259 28.581 71.3633 28.4161 71.3633H27.2071C27.0697 71.3633 27.0422 71.2534 27.0422 71.061C27.0422 70.8687 27.0422 70.7588 27.2071 70.7588H28.4161C28.5535 70.7588 28.581 70.8687 28.581 71.061Z" fill="black"/>
<path d="M29.8176 71.061C29.8176 71.2259 29.8176 71.3633 29.6527 71.3633H28.4437C28.3063 71.3633 28.2788 71.2534 28.2788 71.061C28.2788 70.8687 28.2788 70.7588 28.4437 70.7588H29.6527C29.7901 70.7588 29.8176 70.8687 29.8176 71.061Z" fill="black"/>
<path d="M31.0266 71.061C31.0266 71.2259 31.0266 71.3633 30.8617 71.3633H29.6527C29.5153 71.3633 29.4878 71.2534 29.4878 71.061C29.4878 70.8687 29.4878 70.7588 29.6527 70.7588H30.8617C30.9991 70.7588 31.0266 70.8687 31.0266 71.061Z" fill="black"/>
<path d="M31.8235 67.5988H32.4555V71.3633H30.8892C30.7518 71.3633 30.7244 71.2534 30.7244 71.061C30.7244 70.8687 30.7244 70.7588 30.8892 70.7588H31.8235V67.5988ZM32.8402 66.6096V67.0217H31.4113V66.6096H31.5762C31.5212 66.5271 31.4938 66.4172 31.4938 66.2798C31.4938 65.8951 31.8235 65.6478 32.2631 65.6478C32.7028 65.6478 32.6753 65.7028 32.8127 65.7577L32.6478 66.115C32.5654 66.0875 32.4005 66.0325 32.2906 66.0325C32.0433 66.0325 31.9059 66.1424 31.9059 66.3073C31.9059 66.4722 32.0158 66.5821 32.1807 66.5821H32.8677L32.8402 66.6096Z" fill="black"/>
<path d="M35.2856 71.061C35.2856 71.2259 35.2856 71.3633 35.1207 71.3633H34.3239V71.4457C34.3239 72.5174 33.7468 73.1219 32.7576 73.1219L32.6477 72.5174C33.3621 72.5448 33.6919 72.2151 33.6919 71.4182V67.5713H34.3239V70.7313H35.1207C35.2581 70.7313 35.2856 70.8412 35.2856 71.0335M33.582 66.5821C33.582 66.3348 33.7468 66.1699 33.9941 66.1699C34.2414 66.1699 34.4063 66.3623 34.4063 66.5821C34.4063 66.8019 34.2414 67.0217 33.9941 67.0217C33.7468 67.0217 33.582 66.8294 33.582 66.5821Z" fill="black"/>
<path d="M40.5065 71.061C40.5065 71.2259 40.5065 71.3633 40.3416 71.3633H35.0933C34.9559 71.3633 34.9285 71.2534 34.9285 71.061C34.9285 70.8687 34.9285 70.7588 35.0933 70.7588H38.5556V69.3574C38.5556 68.4231 37.9236 67.8186 36.9344 67.8186C35.9452 67.8186 35.9726 67.9835 35.5879 68.2583L35.3132 67.7087C35.8078 67.379 36.3573 67.2141 36.9618 67.2141C38.2808 67.2141 39.1876 68.0934 39.1876 69.3574V70.7588H40.3416C40.479 70.7588 40.5065 70.8687 40.5065 71.061ZM37.3465 72.4349C37.3465 72.6822 37.1817 72.8746 36.9344 72.8746C36.6871 72.8746 36.5222 72.6822 36.5222 72.4349C36.5222 72.1876 36.6871 72.0228 36.9344 72.0228C37.1817 72.0228 37.3465 72.2151 37.3465 72.4349Z" fill="black"/>
<path d="M41.7431 71.061C41.7431 71.2259 41.7431 71.3633 41.5782 71.3633H40.3692C40.2318 71.3633 40.2043 71.2534 40.2043 71.061C40.2043 70.8687 40.2043 70.7588 40.3692 70.7588H41.5782C41.7156 70.7588 41.7431 70.8687 41.7431 71.061Z" fill="black"/>
<path d="M42.9521 71.061C42.9521 71.2259 42.9521 71.3633 42.7872 71.3633H41.5782C41.4408 71.3633 41.4133 71.2534 41.4133 71.061C41.4133 70.8687 41.4133 70.7588 41.5782 70.7588H42.7872C42.9246 70.7588 42.9521 70.8687 42.9521 71.061Z" fill="black"/>
<path d="M44.1611 71.061C44.1611 71.2259 44.1611 71.3633 43.9962 71.3633H42.7872C42.6498 71.3633 42.6223 71.2534 42.6223 71.061C42.6223 70.8687 42.6223 70.7588 42.7872 70.7588H43.9962C44.1336 70.7588 44.1611 70.8687 44.1611 71.061Z" fill="black"/>
<path d="M45.3702 71.061C45.3702 71.2259 45.3702 71.3633 45.2053 71.3633H43.9963C43.8589 71.3633 43.8314 71.2534 43.8314 71.061C43.8314 70.8687 43.8314 70.7588 43.9963 70.7588H45.2053C45.3427 70.7588 45.3702 70.8687 45.3702 71.061Z" fill="black"/>
<path d="M46.6066 71.061C46.6066 71.2259 46.6066 71.3633 46.4418 71.3633H45.2327C45.0953 71.3633 45.0679 71.2534 45.0679 71.061C45.0679 70.8687 45.0679 70.7588 45.2327 70.7588H46.4418C46.5792 70.7588 46.6066 70.8687 46.6066 71.061Z" fill="black"/>
<path d="M47.8158 71.061C47.8158 71.2259 47.8157 71.3633 47.6509 71.3633H46.4418C46.3045 71.3633 46.277 71.2534 46.277 71.061C46.277 70.8687 46.277 70.7588 46.4418 70.7588H47.6509C47.7883 70.7588 47.8158 70.8687 47.8158 71.061Z" fill="black"/>
<path d="M49.0247 71.061C49.0247 71.2259 49.0247 71.3633 48.8599 71.3633H47.6508C47.5134 71.3633 47.486 71.2534 47.486 71.061C47.486 70.8687 47.486 70.7588 47.6508 70.7588H48.8599C48.9973 70.7588 49.0247 70.8687 49.0247 71.061Z" fill="black"/>
<path d="M51.91 71.061C51.91 71.2259 51.91 71.3633 51.7451 71.3633H51.4429C50.9757 71.3633 50.5911 71.2259 50.3163 71.006C50.069 71.2533 49.6843 71.3633 49.1622 71.3633H48.8599C48.7225 71.3633 48.6951 71.2533 48.6951 71.061C48.6951 70.8686 48.6951 70.7587 48.8599 70.7587H49.1072C49.7942 70.7587 50.0415 70.5114 50.0415 69.9069V67.5988H50.6735V69.9344C50.6735 70.1817 50.6735 70.374 50.5911 70.5664C50.7559 70.7038 51.0032 70.7862 51.3055 70.7862H51.7451C51.8825 70.7862 51.91 70.8961 51.91 71.0885M49.4645 66.637C49.4645 66.4172 49.6293 66.2249 49.8492 66.2249C50.069 66.2249 50.2338 66.3897 50.2338 66.637C50.2338 66.8843 50.069 67.0492 49.8492 67.0492C49.6293 67.0492 49.4645 66.8568 49.4645 66.637ZM50.4811 66.637C50.4811 66.4172 50.646 66.2249 50.8658 66.2249C51.0857 66.2249 51.2505 66.3897 51.2505 66.637C51.2505 66.8843 51.0857 67.0492 50.8658 67.0492C50.646 67.0492 50.4811 66.8568 50.4811 66.637Z" fill="black"/>
<path d="M53.1464 71.061C53.1464 71.2259 53.1464 71.3633 52.9816 71.3633H51.7725C51.6351 71.3633 51.6077 71.2534 51.6077 71.061C51.6077 70.8687 51.6077 70.7588 51.7725 70.7588H52.9816C53.119 70.7588 53.1464 70.8687 53.1464 71.061Z" fill="black"/>
<path d="M54.3554 71.061C54.3554 71.2259 54.3554 71.3633 54.1906 71.3633H52.9815C52.8441 71.3633 52.8167 71.2534 52.8167 71.061C52.8167 70.8687 52.8167 70.7588 52.9815 70.7588H54.1906C54.3279 70.7588 54.3554 70.8687 54.3554 71.061Z" fill="black"/>
<path d="M55.5645 71.061C55.5645 71.2259 55.5645 71.3633 55.3997 71.3633H54.1906C54.0532 71.3633 54.0258 71.2534 54.0258 71.061C54.0258 70.8687 54.0258 70.7588 54.1906 70.7588H55.3997C55.5371 70.7588 55.5645 70.8687 55.5645 71.061Z" fill="black"/>
<path d="M56.7736 71.061C56.7736 71.2259 56.7736 71.3633 56.6088 71.3633H55.3997C55.2623 71.3633 55.2349 71.2534 55.2349 71.061C55.2349 70.8687 55.2349 70.7588 55.3997 70.7588H56.6088C56.7462 70.7588 56.7736 70.8687 56.7736 71.061Z" fill="black"/>
<path d="M58.0101 71.061C58.0101 71.2259 58.0101 71.3633 57.8452 71.3633H56.6362C56.4988 71.3633 56.4713 71.2534 56.4713 71.061C56.4713 70.8687 56.4713 70.7588 56.6362 70.7588H57.8452C57.9826 70.7588 58.0101 70.8687 58.0101 71.061Z" fill="black"/>
<path d="M59.2192 71.061C59.2192 71.2259 59.2192 71.3633 59.0543 71.3633H57.8453C57.7079 71.3633 57.6804 71.2534 57.6804 71.061C57.6804 70.8687 57.6804 70.7588 57.8453 70.7588H59.0543C59.1917 70.7588 59.2192 70.8687 59.2192 71.061Z" fill="black"/>
<path d="M60.3457 65.4829V71.3632H59.0543C58.9169 71.3632 58.8894 71.2533 58.8894 71.061C58.8894 70.8686 58.8894 70.7587 59.0543 70.7587H59.7137V65.4829H60.3457Z" fill="black"/>
<path d="M62.3791 65.4829H61.7471V71.3632H62.3791V65.4829Z" fill="black"/>
<path d="M35.6429 53.3102L43.6665 41L43.0345 41.1649L39.4899 42.0167L33.4722 51.5516C33.06 52.0737 32.7303 52.0737 31.9059 52.0462H25.6684C25.6684 52.0462 24.7891 52.0462 24.2395 52.0462C24.6242 51.3592 25.0639 50.5349 25.3936 49.793C25.5035 49.4907 25.6684 48.8862 25.6684 48.2542C25.6684 47.6222 25.5035 47.0452 24.954 46.7429C24.5693 46.5231 24.0747 46.4681 23.4702 46.6055C20.2552 47.265 16.5182 49.0786 15.6664 52.0737C15.2817 53.475 15.4466 54.4643 16.161 55.0138C16.7105 55.426 17.3975 55.426 17.6173 55.426C17.8372 55.426 17.9471 55.426 18.1394 55.371C17.5624 56.003 16.9853 56.5801 16.4083 57.0747C15.6114 57.7891 14.4299 58.531 13.2208 59.0531C13.0285 59.0531 11.9843 58.531 10.7203 57.4319L10.528 57.2945L8.82434 57.5143L8 57.6242L8.52208 58.1463C9.34642 58.9981 14.0452 61.2513 15.7488 60.8666C17.5624 60.4545 20.8323 56.9373 20.8597 56.8823C21.3269 56.3602 22.0138 55.426 22.8656 54.1895H33.9393C35.0109 54.1895 35.3132 53.7773 35.6155 53.3102M22.1237 48.8313C22.1237 49.106 21.9863 49.5182 21.7665 49.9029C21.6566 50.0678 21.6016 50.2326 21.6016 50.2326L20.9971 51.4142L20.5025 52.2935C20.3102 52.6782 19.898 53.2552 19.4858 53.1728C19.4584 53.1728 19.3759 53.1178 19.2935 53.0354C19.0187 52.7057 18.8538 52.0462 19.321 51.1944C20.1178 49.738 21.1345 48.6664 21.5467 48.5839C21.9314 48.529 22.0413 48.5839 22.0413 48.5839C22.0962 48.6114 22.1237 48.6939 22.1237 48.8038" fill="black"/>
<path d="M60.8129 53.3102L68.8365 41L68.2045 41.1649L64.6598 42.0167L58.6421 51.5516C58.2025 52.0737 57.9002 52.0737 57.0758 52.0462H50.8383C50.8383 52.0462 49.959 52.0462 49.4095 52.0462C49.7942 51.3592 50.2338 50.5349 50.5635 49.793C50.6735 49.4907 50.8383 48.8862 50.8383 48.2542C50.8383 47.6222 50.6735 47.0452 50.1239 46.7429C49.7392 46.5231 49.2446 46.4681 48.6401 46.6055C45.4251 47.265 41.6881 49.0786 40.8363 52.0737C40.4516 53.475 40.6165 54.4643 41.3309 55.0138C41.8805 55.426 42.5674 55.426 42.7872 55.426C43.0071 55.426 43.117 55.426 43.3093 55.371C42.7323 56.003 42.1553 56.5801 41.5782 57.0747C40.7814 57.7891 39.5998 58.531 38.3908 59.0531C38.1984 59.0531 37.1542 58.531 35.8903 57.4319L35.6979 57.2945L33.9943 57.5143L33.1699 57.6242L33.692 58.1463C34.5164 58.9981 39.2151 61.2513 40.9187 60.8666C42.7323 60.4545 46.0022 56.9373 46.0297 56.8823C46.4968 56.3602 47.1837 55.426 48.0356 54.1895H59.1092C60.1809 54.1895 60.4831 53.7773 60.8129 53.3102ZM47.2937 48.8313C47.2937 49.106 47.1563 49.5182 46.9364 49.9029C46.8265 50.0678 46.7716 50.2326 46.7716 50.2326L46.1671 51.4142L45.6724 52.2935C45.4801 52.6782 45.0679 53.2552 44.6558 53.1728C44.6283 53.1728 44.5458 53.1178 44.4634 53.0354C44.1886 52.7057 44.0238 52.0462 44.4909 51.1944C45.2878 49.738 46.3044 48.6664 46.7166 48.5839C47.1013 48.529 47.2112 48.5839 47.2112 48.5839C47.2662 48.6114 47.2937 48.6939 47.2937 48.8038" fill="black"/>
</svg>
