<svg width="112" height="112" viewBox="0 0 112 112" fill="none" xmlns="http://www.w3.org/2000/svg">
<g clip-path="url(#clip0_3607_43789)">
<mask id="mask0_3607_43789" style="mask-type:luminance" maskUnits="userSpaceOnUse" x="21" y="42" width="70" height="28">
<path d="M90.8549 42.0566H21.1433V69.9413H90.8549V42.0566Z" fill="white"/>
</mask>
<g mask="url(#mask0_3607_43789)">
<path d="M65.4347 69.9401V66.0053C65.4347 61.1626 67.5301 58.6637 73.3119 56.7389L80.3666 54.4417C82.8267 53.5803 83.727 52.7576 83.727 50.9571C83.727 48.8617 82.5783 47.6743 78.0693 47.6743C73.0248 47.6743 71.5037 49.1877 71.5037 52.2299V52.7654H65.4736V52.2299C65.4736 46.8982 69.1211 42.0632 78.2711 42.0632C86.5519 42.0632 89.9201 45.835 89.9201 51.0425C89.9201 55.9241 86.7226 58.3454 81.841 59.6958L75.8575 61.3333C73.1955 62.156 71.9227 62.2336 71.9227 64.4067H79.1016H89.8424V69.9401H65.4425H65.4347Z" fill="black"/>
<path d="M44.7207 58.7023L53.1257 49.5601H53.5835V59.1525H59.7301V42.4667H52.5979L40.4367 55.8075L28.2755 42.4667H21.1433V59.1525V64.6937V69.94H27.2976V64.6937V59.1525V49.5601H27.7478L36.1527 58.7023L36.533 59.1525H44.7207V58.7023Z" fill="black"/>
<path d="M59.7376 64.6941H53.5833V69.9404H59.7376V64.6941Z" fill="black"/>
<path d="M59.7302 59.1526H53.5759H44.7208H36.5331L36.96 59.6182L41.663 64.6938H53.5759H59.7302H63.9132V59.1526H59.7302Z" fill="#9C9C9C"/>
</g>
</g>
<defs>
<clipPath id="clip0_3607_43789">
<rect width="69.7115" height="27.8846" fill="white" transform="translate(21.1443 42.0576)"/>
</clipPath>
</defs>
</svg>
