<svg width="112" height="112" viewBox="0 0 112 112" fill="none" xmlns="http://www.w3.org/2000/svg">
<g clip-path="url(#clip0_3607_43787)">
<path fill-rule="evenodd" clip-rule="evenodd" d="M28 56V84.0001L56.0112 83.9888L84.0225 83.9775L84.0338 55.9888L84.045 28H56.0225H28V56ZM28.0223 56.0225C28.0223 71.4225 28.0275 77.7158 28.0337 70.0076C28.04 62.2993 28.04 49.6993 28.0337 42.0076C28.0275 34.3158 28.0223 40.6225 28.0223 56.0225ZM28.5843 56.0225V83.4157H55.9775H83.3708V56.0225V28.6292H55.9775H28.5843V56.0225ZM58.6409 41C58.628 45.1993 58.6208 45.5714 58.5473 45.8202C58.4103 46.2841 58.2593 46.557 57.9766 46.8514C57.6651 47.1757 57.3077 47.3736 56.8285 47.4869C56.4118 47.5854 55.6591 47.5866 55.286 47.4893C54.1498 47.193 53.5309 46.2021 53.7037 44.9557C53.8141 44.1598 54.2028 43.2698 54.7886 42.4719C55.1097 42.0346 55.1698 41.9394 55.1404 41.9144C55.1311 41.9065 54.0236 41.3208 52.6791 40.6127C50.7681 39.6063 50.2212 39.3364 50.1733 39.3762C50.1395 39.4042 49.9719 39.6116 49.8007 39.8371C47.9192 42.3156 47.2925 45.2815 48.1186 47.7978C48.6534 49.427 49.9156 50.9978 51.4624 51.9594C52.8524 52.8234 54.4042 53.259 56.0887 53.2581C57.5608 53.2572 58.719 52.9966 59.9775 52.383C62.2295 51.2851 63.8293 49.2379 64.3684 46.764C64.4651 46.3203 64.4665 46.2525 64.482 41.382L64.4978 36.4494H61.5763H58.6549L58.6409 41ZM66.6966 42.6966V48.9438H70.3146H73.9326V42.6966V36.4494H70.3146H66.6966V42.6966ZM67.1622 51.8511C66.0039 52.931 65.05 53.8394 65.0424 53.8697C65.0348 53.9001 65.0702 53.9381 65.1211 53.9542C65.3093 54.014 66.4058 54.7074 66.9047 55.0821C68.4745 56.2611 69.3058 57.4853 69.3024 58.6132C69.3007 59.1662 69.0957 59.4681 68.6159 59.6245C68.414 59.6903 68.1041 59.7033 66.3483 59.7195L64.3146 59.7382V62.4983V65.2584H69.1236H73.9326V59.8977V54.537L73.7236 54.2011C72.8614 52.8148 71.3371 51.2632 69.8016 50.209C69.5442 50.0322 69.3189 49.8876 69.3009 49.8876C69.283 49.8876 68.3205 50.7712 67.1622 51.8511ZM45.4382 52.4831C45.4381 55.1573 45.2891 56.1458 44.7013 57.3708C44.2081 58.3987 43.5619 59.0525 42.5888 59.5086C41.7552 59.8992 41.092 59.9994 39.3371 59.9997L38.0225 60V62.6292V65.2584H42.7359H47.4493L47.9143 64.9117C50.0842 63.2934 51.5585 60.7901 52.223 57.5955C52.4218 56.6396 52.6271 55.0001 52.6288 54.3554L52.6292 54.1715L52.3034 54.0451C51.3722 53.684 50.2596 53.0282 49.5056 52.3961C49.0838 52.0424 48.4557 51.4113 48.1609 51.0449L47.9892 50.8315H46.7137H45.4382L45.4382 52.4831ZM61.7079 53.1067C61.2316 53.4369 60.0685 53.9912 59.3752 54.2186C58.1494 54.6205 57.1185 54.7663 55.7464 54.7319L54.8764 54.71V59.9842V65.2584H58.4944H62.1124V59.0787C62.1124 54.1634 62.1009 52.8994 62.0562 52.9015C62.0253 52.9029 61.8685 52.9952 61.7079 53.1067ZM39.191 70.6118C38.4618 72.4444 37.8584 73.9614 37.8502 73.9831C37.8418 74.005 38.3749 74.0225 39.0535 74.0225H40.2719L40.308 73.9213C40.3278 73.8658 40.4001 73.6635 40.4687 73.4719L40.5934 73.1236H41.7911H42.9888L43.1439 73.573L43.2989 74.0225H44.5034C45.1658 74.0225 45.7077 74.0073 45.7076 73.9888C45.7075 73.9702 45.1152 72.4584 44.3916 70.6292L43.0758 67.3034L41.7963 67.2916L40.5169 67.2798L39.191 70.6118ZM46.2022 70.6517V74.0225H48.8989H51.5955V73.0337V72.0449H50.0899H48.5843V69.6629V67.2809H47.3933H46.2022V70.6517ZM52.2247 70.655V74.0291L54.2135 74.0119C56.186 73.9949 56.2058 73.9938 56.6324 73.8784C57.9722 73.516 58.7126 72.7118 58.9487 71.3622C59.0388 70.8468 59.0103 70.113 58.8805 69.6091C58.5383 68.2807 57.5789 67.5204 56.0012 67.3275C55.7917 67.3018 54.8563 67.2809 53.9225 67.2809H52.2247V70.655ZM61.4424 67.382C61.4212 67.4376 60.8327 68.9191 60.1347 70.6742C59.4366 72.4292 58.8555 73.9006 58.8432 73.9438C58.8224 74.0173 58.9002 74.0225 60.0333 74.0225H61.2456L61.3979 73.5723L61.5503 73.1222L62.7602 73.1341L63.97 73.1461L64.1124 73.573L64.2547 74L65.4808 74.012C66.4559 74.0215 66.7021 74.0123 66.6837 73.967C66.6063 73.7766 64.3757 68.1442 64.2236 67.7553L64.0381 67.2809H62.7595H61.4809L61.4424 67.382ZM67.1461 70.6485V74.0225H68.3371H69.5281V73.0337V72.0449H69.7888H70.0494L70.7691 73.0225L71.4888 74L72.8006 74.0119C73.5221 74.0185 74.1121 74.0084 74.1117 73.9894C74.1114 73.9705 73.717 73.4524 73.2353 72.8379C72.7537 72.2236 72.3596 71.7047 72.3596 71.6849C72.3596 71.6652 72.4462 71.5982 72.5521 71.5361C73.0274 71.2576 73.3965 70.676 73.4844 70.0674C73.678 68.7246 73.0213 67.7595 71.6744 67.4074C71.3259 67.3163 71.177 67.3093 69.2247 67.2925L67.1461 67.2745V70.6485ZM69.5281 69.7303V70.3371L70.0562 70.3361C70.832 70.3347 71.1011 70.1787 71.1011 69.7303C71.1011 69.282 70.832 69.126 70.0562 69.1246L69.5281 69.1236V69.7303ZM54.6067 70.6572V72.1459L55.1348 72.1248C55.7702 72.0993 55.9733 72.0277 56.2263 71.7403C56.4788 71.4534 56.5531 71.1689 56.5325 70.5672C56.5181 70.1441 56.5007 70.0585 56.3817 69.8218C56.3077 69.6748 56.1764 69.4988 56.0899 69.4308C55.8783 69.2645 55.48 69.1685 55.0018 69.1685H54.6067V70.6572ZM41.7154 69.7064C41.6832 69.8624 41.5384 70.331 41.3937 70.7478L41.1305 71.5056H41.7787C42.1353 71.5056 42.427 71.4924 42.427 71.4762C42.427 71.46 42.2977 71.0606 42.1396 70.5886C41.9816 70.1165 41.8347 69.6612 41.8132 69.5766C41.7742 69.4237 41.7736 69.4245 41.7154 69.7064ZM62.6973 69.6854C62.6662 69.8337 62.5218 70.2958 62.3765 70.7123C62.2312 71.1287 62.1124 71.4776 62.1124 71.4876C62.1124 71.4975 62.4078 71.5056 62.7689 71.5056C63.3757 71.5056 63.4231 71.4997 63.395 71.427C63.2352 71.0131 62.8918 69.9805 62.8307 69.7303L62.7539 69.4157L62.6973 69.6854Z" fill="#040404"/>
</g>
<defs>
<clipPath id="clip0_3607_43787">
<rect width="56" height="56" fill="white" transform="translate(28 28)"/>
</clipPath>
</defs>
</svg>
