<svg width="112" height="112" viewBox="0 0 112 112" fill="none" xmlns="http://www.w3.org/2000/svg">
<g clip-path="url(#clip0_3607_43970)">
<path fill-rule="evenodd" clip-rule="evenodd" d="M13.4939 40.0754C12.6387 40.2598 11.9401 40.6439 11.3107 41.2756C10.6342 41.9547 10.2257 42.7398 10.0528 43.6937C9.96123 44.1985 9.99377 45.1257 10.1202 45.6164C10.4611 46.9394 11.4009 48.0728 12.6107 48.6201C13.6198 49.0767 14.8268 49.1216 15.8654 48.741C18.2973 47.8499 19.4736 44.9516 18.3673 42.577C17.7522 41.2568 16.6424 40.3651 15.2527 40.0748C14.7727 39.9745 13.9608 39.9748 13.4939 40.0754ZM25.6333 40.0734C24.7451 40.2654 24.058 40.6485 23.4098 41.3131C22.8291 41.9086 22.4617 42.5598 22.2448 43.3781C22.1586 43.7036 22.1514 43.7895 22.1514 44.4918C22.1514 45.1984 22.1582 45.2788 22.2472 45.6164C22.4668 46.4497 22.8309 47.0827 23.4475 47.703C24.0445 48.3035 24.6183 48.643 25.3877 48.8509C26.4135 49.128 27.5203 49.0183 28.4471 48.5476C30.096 47.71 31.0751 45.9164 30.8943 44.0644C30.6991 42.0645 29.3002 40.4756 27.3818 40.0748C26.9066 39.9755 26.0892 39.9748 25.6333 40.0734ZM37.7624 40.0714C36.8626 40.2716 36.1839 40.6508 35.5402 41.3131C34.6628 42.2156 34.2478 43.2364 34.2478 44.4918C34.2478 45.7545 34.6963 46.8415 35.5782 47.7162C36.3466 48.4784 37.2577 48.9002 38.3118 48.9816C39.991 49.1114 41.5481 48.2917 42.4075 46.8257C43.1241 45.6032 43.23 44.008 42.681 42.706C42.4534 42.1662 42.2036 41.8004 41.7338 41.3188C41.1099 40.679 40.5509 40.3443 39.7367 40.123C39.4304 40.0398 39.2914 40.0247 38.7297 40.0138C38.1926 40.0034 38.0225 40.0136 37.7624 40.0714ZM13.73 41.8215C12.5234 42.1454 11.7017 43.2228 11.7017 44.4812C11.7017 44.9365 11.7802 45.2874 11.974 45.6983C12.4297 46.6646 13.3271 47.2389 14.381 47.2389C15.4295 47.2389 16.319 46.6732 16.7953 45.7034C16.9803 45.3267 17.0604 44.9611 17.0597 44.4952C17.0591 44.0052 16.994 43.7136 16.7897 43.2853C16.5114 42.7017 16.124 42.3051 15.5577 42.0241C15.3785 41.9351 15.1146 41.8359 14.9713 41.8035C14.6124 41.7226 14.0694 41.7304 13.73 41.8215ZM26.2982 42.8238C25.3857 42.953 24.7428 43.8231 24.8808 44.7421C25.0305 45.7398 25.985 46.3937 26.9252 46.1426C28.1263 45.8218 28.5616 44.3241 27.7338 43.36C27.3926 42.9624 26.8225 42.7495 26.2982 42.8238Z" fill="black"/>
<path fill-rule="evenodd" clip-rule="evenodd" d="M56.6879 54.1088C55.8023 54.2313 54.8401 54.7306 54.2777 55.3595C53.8833 55.8005 53.5785 56.3683 53.4034 56.9881C53.3306 57.2459 53.3207 57.3625 53.3207 57.9675C53.3207 58.5705 53.331 58.6928 53.4047 58.9698C53.804 60.4694 55.0369 61.5916 56.5642 61.8456C57.2295 61.9562 58.0326 61.8972 58.6219 61.6944C59.8788 61.2619 60.7514 60.3384 61.1473 59.0218C61.2409 58.7105 61.2466 58.6507 61.2463 57.9861C61.246 57.379 61.2351 57.2408 61.1682 56.994C60.7711 55.5299 59.6631 54.4882 58.1543 54.1607C57.8238 54.0889 57.0338 54.061 56.6879 54.1088ZM10.8778 57.9937L10.887 61.8097L12.6249 61.8207C14.4519 61.8322 14.9661 61.8064 15.451 61.6793C16.2933 61.4584 16.9063 60.8662 17.0564 60.1281C17.1117 59.8563 17.1056 59.4783 17.0413 59.1991C16.8908 58.5444 16.4808 58.0865 15.8196 57.8347C15.6954 57.7874 15.6198 57.7478 15.6514 57.7467C15.7889 57.7421 16.1564 57.5088 16.3443 57.3068C16.6662 56.9608 16.8068 56.5917 16.8068 56.0928C16.8068 55.1951 16.2754 54.5707 15.268 54.2842C14.9872 54.2043 14.9156 54.2014 12.9235 54.1897L10.8686 54.1776L10.8778 57.9937ZM18.6533 58.0046V61.8283H21.4774H24.3015V61.1972V60.5661H22.2196H20.1377V59.5824V58.5986H21.9489H23.7601L23.7502 57.9768L23.7403 57.355L21.939 57.3454L20.1377 57.3357V56.3709V55.406H22.1472H24.1566V54.7935V54.181H21.405H18.6533V58.0046ZM25.9307 58.0046V61.8283H26.6549H27.379V60.2506V58.6729H29.2255H31.072V60.2506V61.8283H31.7961H32.5203V58.0046V54.181H31.7961H31.072V55.8144V57.4478H29.2255H27.379V55.8144V54.181H26.6549H25.9307V58.0046ZM36.8518 54.3016C36.8241 54.368 36.0966 56.051 35.2352 58.0418C34.3738 60.0325 33.6612 61.6989 33.6516 61.7448L33.6342 61.8283H34.3785C34.9348 61.8283 35.1299 61.8166 35.151 61.7819C35.1665 61.7564 35.3205 61.3847 35.4932 60.9559L35.8072 60.1763H37.61H39.4127L39.7446 60.993L40.0765 61.8097L40.8423 61.8198C41.4421 61.8276 41.6081 61.8196 41.6084 61.7826C41.6086 61.7567 40.8877 60.0358 40.0063 57.9584L38.4038 54.1813L37.653 54.1812L36.9022 54.181L36.8518 54.3016ZM41.8259 54.1903C41.8262 54.1953 42.4908 55.9118 43.3027 58.0046L44.7789 61.8097H45.5345H46.2901L47.7685 58.0603C48.5816 55.9981 49.2564 54.2813 49.268 54.2452C49.2878 54.1835 49.2421 54.1801 48.5216 54.1895L47.7542 54.1995L46.6908 57.1322C46.1059 58.7452 45.6151 60.0943 45.6 60.1301C45.5811 60.1751 45.2356 59.2623 44.4864 57.1882L43.4002 54.1811L42.6127 54.181C42.1796 54.181 41.8255 54.1852 41.8259 54.1903ZM50.4061 58.0046V61.8283H51.1303H51.8544V58.0046V54.181H51.1303H50.4061V58.0046ZM62.7163 58.0046V61.8283H63.4404H64.1645V60.6961V59.5638L65.0334 59.5569C65.5114 59.553 65.9452 59.5488 65.9975 59.5476C66.0846 59.5454 66.1465 59.6402 66.7357 60.6775L67.3789 61.8097L68.1975 61.8197C68.739 61.8263 69.0161 61.8168 69.0161 61.7916C69.0161 61.7707 68.6511 61.1923 68.205 60.5064L67.3938 59.2592L67.6529 59.1239C68.0381 58.9227 68.4224 58.5172 68.6106 58.1131C68.8069 57.6914 68.8715 57.3681 68.8707 56.8094C68.8699 56.2537 68.8067 55.9232 68.6307 55.5545C68.4474 55.1708 68.0553 54.7714 67.6584 54.5642C66.9701 54.2048 66.7761 54.181 64.5399 54.181H62.7163V58.0046ZM71.3616 57.9399C70.471 60.0071 69.732 61.7276 69.7194 61.7633C69.6979 61.8239 69.7479 61.8283 70.4568 61.8283H71.2174L71.3804 61.4292C71.47 61.2097 71.6215 60.8339 71.717 60.594L71.8906 60.1578H73.6891H75.4875L75.8237 60.993L76.1599 61.8283H76.9327C77.3578 61.8283 77.7055 61.8158 77.7053 61.8005C77.7052 61.7851 76.9822 60.0687 76.0988 57.9861L74.4927 54.1995L73.7367 54.1904L72.9807 54.1813L71.3616 57.9399ZM78.8007 57.9954L78.8099 61.8097L81.1543 61.8193L83.4986 61.8289V61.1789V60.529H81.8874H80.2763V57.355V54.181H79.5339H78.7915L78.8007 57.9954ZM56.8689 55.3844C56.1673 55.5244 55.5727 55.9378 55.19 56.5514C54.3665 57.8721 54.8737 59.6977 56.2534 60.3792C57.3721 60.9318 58.633 60.566 59.3335 59.4857C60.0472 58.385 59.8886 56.9308 58.9566 56.0294C58.82 55.8972 58.6202 55.7375 58.5127 55.6745C58.0346 55.3944 57.3894 55.2806 56.8689 55.3844ZM12.3534 56.3498V57.2993L13.3219 57.2985C14.3869 57.2977 14.6209 57.2683 14.8996 57.1009C15.1154 56.9712 15.2412 56.7775 15.2922 56.4964C15.3706 56.0638 15.1895 55.7192 14.7792 55.5209C14.5804 55.4247 14.5782 55.4246 13.4667 55.4125L12.3534 55.4004V56.3498ZM64.1645 56.8724V58.3016L65.1149 58.3013C66.1732 58.301 66.4354 58.272 66.7549 58.1198C67.163 57.9255 67.3751 57.6479 67.4611 57.1953C67.5982 56.4744 67.3244 55.8427 66.7691 55.5986C66.4629 55.4641 66.2512 55.4432 65.1946 55.4432H64.1645V56.8724ZM36.9814 57.2532C36.6395 58.1055 36.3495 58.832 36.3369 58.8677C36.3155 58.9289 36.391 58.9327 37.6034 58.9327C38.3124 58.9327 38.8926 58.9224 38.8926 58.9098C38.8926 58.8923 37.9453 56.5346 37.6527 55.8239C37.6033 55.704 37.6008 55.7093 36.9814 57.2532ZM73.0317 57.3275L72.3948 58.9142L73.0407 58.9243C73.396 58.9298 73.9787 58.9298 74.3356 58.9243L74.9844 58.9142L74.3449 57.3271C73.9932 56.4543 73.6971 55.7403 73.687 55.7405C73.6769 55.7407 73.382 56.4548 73.0317 57.3275ZM12.3534 59.5429V60.5661H13.432C14.57 60.5661 14.7538 60.5453 15.0679 60.381C15.5213 60.1438 15.7048 59.584 15.4804 59.1222C15.3721 58.8995 15.1997 58.7544 14.8931 58.6283C14.6981 58.5481 14.6351 58.5437 13.5211 58.532L12.3534 58.5197V59.5429ZM12.8784 64.1909C11.5986 64.3974 10.7951 65.0908 10.6906 66.0789C10.6211 66.7357 10.7714 67.2567 11.1468 67.6602C11.5432 68.0863 12.0084 68.3236 13.0413 68.6264C14.2509 68.981 14.6694 69.2886 14.6704 69.824C14.671 70.1557 14.4296 70.4898 14.107 70.6036C13.6246 70.7738 13.0684 70.7494 12.4272 70.5301C11.9494 70.3666 11.5656 70.1576 11.1511 69.835C10.9721 69.6957 10.8215 69.5872 10.8162 69.5937C10.811 69.6002 10.6714 69.8714 10.5061 70.1963L10.2053 70.787L10.3109 70.8756C10.9134 71.3813 11.8342 71.8092 12.6202 71.9489C13.087 72.0319 14.0318 72.0034 14.4353 71.8942C14.8358 71.7857 15.3431 71.5167 15.6048 71.2739C16.0232 70.8858 16.2177 70.4735 16.2528 69.9003C16.3078 69.0054 15.9962 68.4135 15.2318 67.9606C14.9809 67.8119 14.7103 67.7025 14.0551 67.4847C13.0532 67.1517 12.7447 67.0147 12.5217 66.8039C12.3262 66.6191 12.2676 66.4613 12.2878 66.1746C12.3069 65.9039 12.4045 65.7606 12.6552 65.6347C13.2389 65.342 14.2227 65.4785 15.2221 65.991C15.4159 66.0904 15.5828 66.1717 15.593 66.1717C15.6032 66.1717 15.7429 65.9027 15.9034 65.574C16.241 64.8828 16.2581 64.9725 15.7387 64.7076C15.0332 64.3478 14.4458 64.2045 13.6025 64.1865C13.264 64.1793 12.9381 64.1812 12.8784 64.1909ZM20.3671 64.2592C19.0646 64.5015 17.9384 65.4317 17.4652 66.6562C17.2735 67.1524 17.2234 67.461 17.2276 68.1206C17.2309 68.6306 17.2445 68.7651 17.3236 69.0717C17.5949 70.1234 18.2736 71.0218 19.172 71.5187C19.7896 71.8602 20.3488 72 21.098 72C21.9938 72 22.6588 71.7914 23.4144 71.2736C23.5737 71.1644 23.7917 70.9947 23.8988 70.8963L24.0936 70.7175L23.6603 70.2557L23.227 69.7938L22.9948 69.9826C22.664 70.2516 22.4281 70.3919 22.1042 70.5124C21.1273 70.8759 20.1911 70.6783 19.4827 69.9589C18.9054 69.3727 18.6447 68.6091 18.7294 67.7523C18.7923 67.1164 19.0145 66.6489 19.4827 66.1675C19.7362 65.9069 19.8516 65.8191 20.1064 65.6931C20.5244 65.4863 20.8569 65.4162 21.2963 65.4423C21.4855 65.4535 21.7391 65.4945 21.8597 65.5333C22.208 65.6452 22.6449 65.8977 22.9455 66.1607L23.223 66.4034L23.3061 66.3154C23.5371 66.0708 24.048 65.4438 24.048 65.4048C24.048 65.3277 23.4846 64.8941 23.1529 64.7159C22.7629 64.5063 22.3024 64.338 21.9101 64.2618C21.5504 64.1918 20.7366 64.1904 20.3671 64.2592ZM47.2575 64.2812C46.5377 64.4402 45.8909 64.7932 45.36 65.3167C44.9701 65.7012 44.7713 65.9799 44.5609 66.437C44.2869 67.0323 44.2342 67.3027 44.2364 68.1021C44.2381 68.6848 44.2501 68.8325 44.3158 69.077C44.5657 70.0076 45.1395 70.8336 45.8931 71.3478C46.2279 71.5762 46.5497 71.7263 47.0248 71.8759C47.3303 71.972 47.3847 71.9772 48.0889 71.978C48.7997 71.9788 48.845 71.9745 49.157 71.8756C49.8447 71.6576 50.4232 71.3314 50.8579 70.9166L51.0732 70.7111L50.6613 70.2604C50.4348 70.0125 50.2302 69.8097 50.2067 69.8097C50.1831 69.8097 50.1329 69.8451 50.0949 69.8884C49.972 70.0285 49.5865 70.291 49.3142 70.4198C48.8901 70.6205 48.6328 70.6779 48.1614 70.6772C47.803 70.6766 47.7046 70.6623 47.4553 70.5746C46.7863 70.3394 46.2858 69.8951 45.9871 69.2715C45.4723 68.1966 45.6667 66.9733 46.4838 66.1459C47.0741 65.5482 47.944 65.2993 48.7258 65.5043C49.2307 65.6367 49.629 65.8631 50.011 66.2345L50.2132 66.4312L50.6397 65.9269L51.0663 65.4227L50.9263 65.2745C50.5896 64.918 49.8201 64.4999 49.157 64.313C48.7256 64.1914 47.7383 64.1749 47.2575 64.2812ZM65.402 64.2601C64.622 64.405 63.9155 64.7718 63.3439 65.3285C62.6844 65.9709 62.3106 66.75 62.2094 67.6939C62.0146 69.5081 63.0889 71.2069 64.806 71.8001C65.2274 71.9457 65.5749 71.9973 66.1428 71.9987C67.0955 72.0011 68.0209 71.7302 68.818 71.2154L69.1248 71.0174V69.5783V68.1392H68.473H67.8213V69.2144V70.2896L67.5588 70.4177C66.7998 70.7882 66.0464 70.8486 65.3651 70.5937C64.3359 70.2086 63.6911 69.2494 63.69 68.1021C63.6893 67.3509 63.931 66.7428 64.4352 66.2274C64.8828 65.7698 65.3305 65.5423 65.9371 65.4644C66.6385 65.3742 67.4873 65.633 68.1195 66.1297L68.3547 66.3146L68.7589 65.8106L69.1631 65.3065L69.0806 65.2152C68.7502 64.85 67.7659 64.3902 67.035 64.2595C66.654 64.1914 65.7703 64.1917 65.402 64.2601ZM81.3909 64.2776C80.7681 64.4123 80.2639 64.6373 79.8088 64.9839C79.2711 65.3933 78.9115 65.836 78.6309 66.4336C78.3537 67.0241 78.307 67.2622 78.307 68.0835C78.307 68.6901 78.3178 68.8288 78.3843 69.0738C78.7421 70.3925 79.6614 71.3714 80.9568 71.813C81.4168 71.9699 81.7813 72.0127 82.4608 71.9896C82.9414 71.9733 83.1073 71.9523 83.3887 71.8721C84.4796 71.5612 85.3397 70.8569 85.8397 69.8654C86.1502 69.2496 86.27 68.6649 86.2407 67.9085C86.203 66.9324 85.88 66.1474 85.2255 65.441C84.6439 64.8132 83.9498 64.4343 83.0665 64.2625C82.6457 64.1807 81.8042 64.1882 81.3909 64.2776ZM25.4238 68.1021V71.9258H26.148H26.8721V68.1021V64.2784H26.148H25.4238V68.1021ZM28.8996 68.1021V71.9258H31.7237H34.5478V71.2947V70.6636H32.4479H30.3479V69.6798V68.6961H32.1582H33.9685V68.0835V67.471H32.1582H30.3479V66.5058V65.5406H32.3754H34.403V64.9095V64.2784H31.6513H28.8996V68.1021ZM36.1771 68.1021V71.9258H36.8829H37.5887L37.5979 69.2974L37.6072 66.669L39.4916 69.2881L41.376 71.9072L42.0713 71.9173L42.7666 71.9273V68.1029V64.2784H42.0609H41.3551L41.3458 66.9088L41.3365 69.5391L39.4376 66.9088L37.5388 64.2784H36.8579H36.1771V68.1021ZM52.4337 68.1021V71.9258H55.2397H58.0456V71.2947V70.6636H55.9638H53.8819V69.6798V68.6961H55.6922H57.5026V68.0835V67.471H55.6922H53.8819V66.5061V65.5412L55.9004 65.5316L57.9189 65.522L57.9288 64.9002L57.9388 64.2784H55.1862H52.4337V68.1021ZM70.9351 68.1021V71.9258H71.6592H72.3833V70.7935V69.6613L73.3066 69.6557C73.8144 69.6526 74.2491 69.6484 74.2727 69.6464C74.2963 69.6444 74.6071 70.1564 74.9633 70.7842L75.611 71.9258H76.4432C77.0992 71.9258 77.2697 71.9159 77.2484 71.8793C77.2336 71.8538 76.866 71.286 76.4316 70.6176C75.9973 69.9491 75.6419 69.3893 75.6419 69.3734C75.6419 69.3576 75.7271 69.3032 75.8312 69.2525C76.2356 69.0557 76.6336 68.6587 76.8375 68.2489C77.1093 67.7027 77.1936 66.7865 77.0316 66.1397C76.8344 65.3521 76.2616 64.7517 75.4368 64.4679C74.9469 64.2994 74.6523 64.2787 72.7363 64.2786L70.9351 64.2784V68.1021ZM87.5629 66.8492C87.575 69.3675 87.5769 69.4264 87.656 69.7355C87.7003 69.909 87.8127 70.2097 87.9057 70.4037C88.0476 70.6996 88.1276 70.8107 88.4026 71.0938C88.6875 71.3869 88.7802 71.4563 89.1106 71.6232C89.732 71.9373 89.9313 71.9779 90.8485 71.9779C91.5411 71.9779 91.6589 71.9689 91.9166 71.8956C92.2972 71.7875 92.8035 71.5272 93.0796 71.2977C93.4906 70.9559 93.8359 70.3805 94.0059 69.7541C94.085 69.4623 94.0866 69.4112 94.0985 66.8677L94.1107 64.2784H93.3871H92.6634L92.65 66.7378C92.638 68.9281 92.6297 69.2216 92.5742 69.42C92.3812 70.1088 91.9474 70.5573 91.3331 70.703C91.0816 70.7626 90.542 70.7523 90.29 70.683C90.172 70.6505 89.9969 70.5802 89.9008 70.5266C89.6771 70.4017 89.3631 70.0642 89.2413 69.8177C89.0289 69.388 89.028 69.377 89.0116 66.7193L88.9965 64.2784H88.2735H87.5505L87.5629 66.8492ZM95.9536 68.1021V71.9258H96.6958H97.438V70.7935V69.6613L98.3341 69.661C98.827 69.6608 99.3769 69.6437 99.5561 69.6229C100.743 69.4856 101.532 68.9042 101.867 67.9209C101.966 67.6331 101.978 67.5442 101.993 67.038C102.018 66.1456 101.866 65.6451 101.423 65.1588C101.14 64.8488 100.87 64.6644 100.479 64.5149C99.9121 64.2977 99.6874 64.2784 97.7213 64.2784H95.9536V68.1021ZM81.6656 65.5398C80.7948 65.7739 80.0951 66.4944 79.8496 67.4098C79.8064 67.5709 79.7886 67.7801 79.7892 68.1206C79.7899 68.5645 79.799 68.6293 79.9022 68.9285C80.0583 69.3806 80.2115 69.6291 80.5478 69.9755C81.0538 70.4966 81.5098 70.7054 82.1952 70.73C82.6796 70.7473 82.9385 70.6937 83.3369 70.4936C83.9664 70.1774 84.4888 69.5067 84.6792 68.7703C84.7642 68.4412 84.766 67.7584 84.6826 67.4339C84.4392 66.486 83.7165 65.7345 82.8464 65.5242C82.5244 65.4464 81.9867 65.4535 81.6656 65.5398ZM72.4195 66.9698V68.3991L73.4061 68.3984C74.481 68.3977 74.7306 68.3674 75.0571 68.1978C75.301 68.071 75.4854 67.8762 75.6013 67.6227C75.6878 67.4336 75.6962 67.3744 75.6962 66.9513C75.6962 66.5577 75.6846 66.4616 75.6199 66.3183C75.452 65.9461 75.1839 65.7369 74.7188 65.6149C74.4688 65.5493 74.3171 65.5406 73.4275 65.5406H72.4195V66.9698ZM97.438 66.9724V68.4042L98.4608 68.3902C99.5864 68.3748 99.6688 68.3613 100.045 68.1309C100.411 67.9064 100.601 67.489 100.597 66.9142C100.594 66.3675 100.387 65.9795 99.975 65.7498C99.6642 65.5763 99.3996 65.542 98.3703 65.5412L97.438 65.5406V66.9724Z" fill="black"/>
</g>
<defs>
<clipPath id="clip0_3607_43970">
<rect width="92" height="32" fill="white" transform="translate(10 40)"/>
</clipPath>
</defs>
</svg>
