<svg width="112" height="112" viewBox="0 0 112 112" fill="none" xmlns="http://www.w3.org/2000/svg">
<g clip-path="url(#clip0_3607_43938)">
<path d="M31.2299 45.1681C32.4637 42.555 34.1462 40.1666 36.2213 38.0874C40.9884 33.3107 47.3538 30.6695 54.1118 30.6695C60.8699 30.6695 67.2073 33.3107 72.0024 38.0874C74.0775 40.1666 75.7599 42.555 76.9938 45.1681L77.2181 45.6739H80.0503L79.4895 44.4375C78.1154 41.403 76.2086 38.6493 73.8251 36.261C68.5533 30.9786 61.5429 28.0845 54.1118 28.0845C46.6528 28.0845 39.6704 30.9786 34.3986 36.261C32.015 38.6212 30.1082 41.3749 28.7342 44.4094L28.1733 45.6458H31.0055L31.2299 45.1681Z" fill="black"/>
<path d="M77.1061 66.6352C75.8723 69.3326 74.1337 71.8052 72.0025 73.9407C67.2354 78.7173 60.87 81.3585 54.112 81.3585C47.3539 81.3585 41.0165 78.7173 36.2214 73.9407C34.0903 71.8052 32.3797 69.3607 31.1178 66.6352L30.8935 66.1294H28.0894L28.6502 67.3657C30.0242 70.4846 31.9871 73.3225 34.4268 75.767C39.6986 81.0495 46.709 83.9436 54.14 83.9436C61.5991 83.9436 68.5814 81.0495 73.8533 75.767C76.2929 73.3225 78.2558 70.4846 79.6298 67.3657L80.1907 66.1294H77.3585L77.1061 66.6352Z" fill="black"/>
<path d="M53.1866 57.1379L55.5982 59.8634C55.0374 60.313 54.4205 60.5659 53.8877 60.5659C52.8782 60.5659 52.3174 60.4254 51.8687 59.5825C51.7846 59.4139 51.7285 59.1891 51.7285 58.9924C51.7285 58.3461 52.2332 57.728 53.1866 57.1379ZM53.9438 51.3497C54.6728 51.3497 55.0654 51.715 55.0654 52.4175C55.0654 52.8108 54.8411 53.2042 53.7755 53.7943C53.2147 53.1761 52.9903 52.8389 52.9903 52.3894C52.9903 51.4621 53.6633 51.3497 53.9438 51.3497ZM48.9243 59.0486C48.9243 61.5212 50.8592 63.0947 53.8877 63.0947C55.0935 63.0947 56.2432 62.6732 57.3088 61.8303L58.2902 62.9542H61.8795L59.1595 59.8634C59.8325 58.9362 60.169 58.1776 60.197 58.1495L60.3653 57.7842L58.4024 55.6768L58.0378 56.4917C58.0378 56.4917 57.7855 57.0817 57.3368 57.8123L55.5702 55.8173C57.1966 54.6934 57.7294 53.8224 57.7294 52.4456C57.7294 50.1696 56.3553 48.849 53.9438 48.849C51.2518 48.849 50.2984 50.7597 50.2984 52.3894C50.2984 53.2885 50.6349 54.1876 51.3359 55.0587C49.6534 56.1545 48.9243 57.3346 48.9243 59.0486Z" fill="black"/>
<path d="M28.3696 52.1646C28.3696 52.0803 28.4257 52.0241 28.5098 52.0241H31.3981C32.043 52.0241 32.4637 52.1646 32.716 52.4175C32.9684 52.6703 33.0806 53.0637 33.0806 53.5414C33.0806 54.0472 32.9684 54.4124 32.716 54.6653C32.4637 54.9182 32.015 55.0587 31.3981 55.0587H28.5098C28.4257 55.0587 28.3696 55.0025 28.3696 54.9182V52.1646ZM28.3696 62.5047V58.1776C28.3696 58.0933 28.4257 58.0371 28.5098 58.0371H29.8838C29.968 58.0371 30.0241 58.0652 30.0801 58.1495L32.9404 62.5047C32.9965 62.589 33.0806 62.6171 33.1647 62.6171H36.9223C37.0345 62.6171 37.0625 62.5609 37.0064 62.4766L33.9499 57.8123C33.9218 57.728 33.9218 57.6999 34.006 57.6718C34.2303 57.6156 34.4546 57.5313 34.679 57.3627C34.9313 57.2222 35.1837 56.9974 35.4922 56.6884C35.7726 56.3793 36.025 55.9578 36.2212 55.3959C36.4175 54.8339 36.5017 54.2157 36.5017 53.4852C36.5017 50.4787 34.9033 48.9895 31.7346 48.9895H25.1168C25.0326 48.9895 24.9766 49.0457 24.9766 49.13V62.4204C24.9766 62.5047 25.0326 62.5609 25.1168 62.5609H28.2294C28.3416 62.6452 28.3696 62.589 28.3696 62.5047Z" fill="black"/>
<path d="M41.5772 52.0521H47.6622C47.7463 52.0521 47.8024 51.996 47.8024 51.9117V49.1861C47.8024 49.1019 47.7463 49.0457 47.6622 49.0457H38.1842C38.1 49.0457 38.0439 49.1019 38.0439 49.1861V62.4765C38.0439 62.5608 38.1 62.617 38.1842 62.617H47.7463C47.8305 62.617 47.8866 62.5608 47.8866 62.4765V59.751C47.8866 59.6667 47.8305 59.6105 47.7463 59.6105H41.5772C41.4931 59.6105 41.437 59.5543 41.437 59.47V57.166C41.437 57.0817 41.4931 57.0255 41.5772 57.0255H46.3162C46.4003 57.0255 46.4564 56.9693 46.4564 56.885V54.1595C46.4564 54.0752 46.4003 54.019 46.3162 54.019H41.5772C41.4931 54.019 41.437 53.9628 41.437 53.8785V52.1364C41.437 52.1083 41.4931 52.0521 41.5772 52.0521Z" fill="black"/>
<path d="M63.5058 62.0832C63.9264 62.2798 64.4312 62.4765 65.0481 62.5889C65.665 62.7294 66.3661 62.7856 67.1232 62.7856C67.9083 62.7856 68.5813 62.7294 69.1983 62.5889C69.8152 62.4484 70.3199 62.2798 70.7405 62.0551C71.1612 61.8303 71.4977 61.5493 71.8061 61.2121C72.1146 60.8749 72.3389 60.5378 72.4791 60.2287C72.6193 59.8915 72.7595 59.5262 72.8437 59.1048C72.9278 58.6833 72.9839 58.318 73.0119 57.9808C73.04 57.6718 73.04 57.3065 73.04 56.885V49.1861C73.04 49.1019 72.9839 49.0457 72.8998 49.0457H69.7591C69.675 49.0457 69.6189 49.1019 69.6189 49.1861V56.885C69.6189 57.8123 69.4506 58.5428 69.0861 59.0486C68.7216 59.5543 68.0486 59.8072 67.0671 59.8072C66.0576 59.8072 65.3846 59.5824 65.0481 59.1048C64.7116 58.6271 64.5153 57.8965 64.5153 56.9131V49.1861C64.5153 49.1019 64.4592 49.0457 64.3751 49.0457H61.2344C61.1503 49.0457 61.0942 49.1019 61.0942 49.1861V56.885C61.0942 57.3065 61.0942 57.6999 61.1223 58.037C61.1503 58.3742 61.2064 58.7395 61.2905 59.1891C61.3747 59.6105 61.5149 60.0039 61.6831 60.313C61.8514 60.6221 62.0757 60.9592 62.3561 61.2683C62.7207 61.6055 63.0852 61.8865 63.5058 62.0832Z" fill="black"/>
<path d="M82.2375 54.6935C81.9852 54.9463 81.5365 55.0868 80.9196 55.0868H78.0313C77.9472 55.0868 77.8911 55.0306 77.8911 54.9463V52.1646C77.8911 52.0803 77.9472 52.0241 78.0313 52.0241H80.9196C81.5645 52.0241 81.9852 52.1646 82.2375 52.4175C82.4899 52.6704 82.6021 53.0638 82.6021 53.5414C82.6301 54.0472 82.4899 54.4406 82.2375 54.6935ZM81.2561 49.0739H74.6383C74.5541 49.0739 74.498 49.13 74.498 49.2143V62.5047C74.498 62.589 74.5541 62.6452 74.6383 62.6452H77.7789C77.863 62.6452 77.9191 62.589 77.9191 62.5047V58.1776C77.9191 58.0933 77.9752 58.0371 78.0593 58.0371H81.2841C84.4528 58.0371 86.0512 56.5479 86.0512 53.5414C86.0512 50.535 84.4248 49.0739 81.2561 49.0739Z" fill="black"/>
</g>
<defs>
<clipPath id="clip0_3607_43938">
<rect width="62" height="56.5614" fill="white" transform="translate(24.5 27.7192)"/>
</clipPath>
</defs>
</svg>
