<svg width="112" height="112" viewBox="0 0 112 112" fill="none" xmlns="http://www.w3.org/2000/svg">
<g clip-path="url(#clip0_3607_43948)">
<path fill-rule="evenodd" clip-rule="evenodd" d="M55.8394 51.0169C55.095 51.1076 54.6325 51.2539 54.1354 51.5562C52.8412 52.3432 52.0739 53.816 52.0739 55.5131C52.0739 57.5018 53.1528 59.1895 54.7989 59.7758C55.301 59.9546 55.4996 59.9852 56.1603 59.9852C56.6822 59.9852 56.7831 59.9781 57.006 59.9261C58.1122 59.6677 59.028 58.9945 59.6006 58.0187C60.3684 56.7101 60.4556 54.8752 59.8178 53.4423C59.281 52.2363 58.2622 51.3744 57.0556 51.1057C56.6764 51.0213 56.1305 50.9814 55.8394 51.0169ZM74.8764 51.0156C74.0282 51.1072 73.3417 51.3794 72.7129 51.8735C72.4449 52.084 72.0771 52.4849 71.8843 52.7765C71.5503 53.2817 71.2918 53.9639 71.1825 54.629C71.1078 55.0833 71.1014 55.8797 71.169 56.3143C71.3515 57.4876 71.8847 58.4743 72.6887 59.1264C73.1988 59.5401 73.7181 59.7895 74.3565 59.9272C74.7251 60.0067 75.6415 60.0137 75.9818 59.9396C76.7245 59.7779 77.3259 59.4311 77.8649 58.8535C78.6223 58.0421 79.0056 57.054 79.076 55.7309L79.0933 55.4076H77.2009H75.3085V55.843V56.2785H76.7376H78.1668L78.132 56.4754C78.0187 57.1169 77.6989 57.7601 77.2601 58.2291C76.8129 58.7071 76.2765 58.9873 75.6333 59.0789C75.3619 59.1176 74.7914 59.0961 74.5307 59.0374C73.348 58.7713 72.4193 57.8216 72.1142 56.5663C71.9423 55.8594 71.9668 54.9038 72.1739 54.2258C72.3782 53.5573 72.8347 52.9069 73.3795 52.508C73.7752 52.2183 74.1611 52.05 74.6265 51.9641C74.9197 51.91 75.5489 51.9108 75.8535 51.9655C76.6596 52.1105 77.4279 52.6302 77.8538 53.3186C77.927 53.4369 77.9963 53.5337 78.0077 53.5337C78.0192 53.5337 78.1615 53.4076 78.3239 53.2536L78.6193 52.9736L78.5777 52.9039C78.3221 52.4754 77.8722 51.976 77.5073 51.7158C76.8665 51.259 76.1835 51.0375 75.3455 51.015C75.1418 51.0094 74.9307 51.0098 74.8764 51.0156ZM84.0254 51.0267C82.6222 51.184 81.415 52.0879 80.8171 53.4288C80.5002 54.1397 80.3774 54.806 80.4019 55.6821C80.4199 56.324 80.5071 56.7984 80.7026 57.3166C81.2223 58.6946 82.2772 59.6318 83.6418 59.9278C83.8752 59.9784 83.9917 59.9867 84.469 59.9867C84.9493 59.9867 85.0621 59.9786 85.3018 59.9267C86.9351 59.5728 88.151 58.257 88.4685 56.4997C88.7585 54.8945 88.3414 53.3128 87.348 52.251C86.7568 51.619 86.0177 51.216 85.1727 51.0649C84.8958 51.0154 84.3025 50.9957 84.0254 51.0267ZM93.4472 51.027C92.3377 51.163 91.3924 51.7071 90.7263 52.5931C89.6964 53.9629 89.5114 56.0311 90.2727 57.6642C90.8233 58.8452 91.7931 59.6382 93.0369 59.9247C93.265 59.9772 93.3673 59.9845 93.8887 59.9849C94.4151 59.9854 94.5103 59.9787 94.7406 59.9251C95.5573 59.7351 96.2023 59.3646 96.767 58.7612C97.5382 57.9371 97.929 56.9359 97.9679 55.6847C98.0015 54.6066 97.7607 53.6775 97.2315 52.8423C97.0122 52.4962 96.5044 51.9578 96.1831 51.7307C95.7169 51.4011 95.1902 51.1773 94.6446 51.077C94.3152 51.0165 93.7318 50.9921 93.4472 51.027ZM12.8394 55.4993V59.8944H13.2591H13.6789V58.3372V56.78H15.9011H18.1233V58.3372V59.8944H18.5555H18.9877L18.9814 55.5065L18.9752 51.1187H18.5554H18.1357L18.1294 53.5139L18.123 55.909H15.9011H13.6791L13.6728 53.5139L13.6665 51.1187L13.2529 51.1115L12.8394 51.1042V55.4993ZM21.3826 55.4973V59.8944H21.8023H22.2221V58.6275V57.3606H22.9353H23.6485L24.5464 58.6273L25.4443 59.894L25.971 59.8942L26.4978 59.8944L26.3393 59.6766C26.2522 59.5568 25.8012 58.938 25.337 58.3014L24.4932 57.1439L24.712 57.0272C25.2967 56.7152 25.7765 56.0964 25.9853 55.3853C26.1798 54.7226 26.1846 53.8032 25.9971 53.1283C25.7559 52.2603 25.1426 51.5831 24.3302 51.2877C23.915 51.1368 23.8186 51.1273 22.5492 51.1133L21.3826 51.1004V55.4973ZM28.041 51.1231C28.0319 51.1328 28.0245 53.1103 28.0245 55.5175V59.8944H28.4443H28.864V55.4999V51.1055H28.4608C28.2389 51.1055 28.05 51.1134 28.041 51.1231ZM30.864 55.4998V59.8944H31.2838H31.7036V58.2976V56.7008H33.4443H35.185V56.2653V55.8298H33.4443H31.7036V53.9032V51.9765H33.5931H35.4826L35.4758 51.5476L35.469 51.1187L33.1665 51.112L30.864 51.1052V55.4998ZM36.6337 51.123C36.6246 51.1327 36.6171 51.3287 36.6171 51.5586V51.9765H37.7653H38.9134V55.9354V59.8944H39.3332H39.7529V55.9354V51.9765H40.9264H42.0999L42.0931 51.5476L42.0863 51.1187L39.3683 51.112C37.8734 51.1083 36.6428 51.1132 36.6337 51.123ZM46.3208 55.4998V59.8944H46.7406H47.1603V58.2976V56.7008H48.9011H50.6418V56.2653V55.8298H48.9011H47.1603V53.9032V51.9765H49.0499H50.9394L50.9326 51.5476L50.9258 51.1187L48.6233 51.112L46.3208 51.1052V55.4998ZM62.0163 51.1231C62.0073 51.1328 61.9998 53.1103 61.9998 55.5175V59.8944H62.4319H62.864V58.6275V57.3606L63.5739 57.3621L64.2838 57.3636L65.1603 58.6041C65.6424 59.2864 66.0494 59.8561 66.0647 59.8701C66.0812 59.8851 66.302 59.8925 66.6047 59.8883L67.1169 59.8812L66.1177 58.5106L65.1185 57.14L65.2895 57.0524C66.0228 56.6768 66.5338 55.9373 66.7044 55.0051C66.7595 54.7044 66.7786 54.0824 66.7428 53.754C66.6888 53.258 66.5477 52.807 66.3271 52.4252C66.1666 52.1475 65.7488 51.7089 65.4923 51.5489C65.1147 51.3132 64.7207 51.1805 64.255 51.1321C63.9815 51.1037 62.0418 51.0959 62.0163 51.1231ZM99.6953 51.1231C99.6863 51.1328 99.6789 53.111 99.6789 55.5192V59.8978L101.129 59.8868C102.713 59.8748 102.722 59.8741 103.259 59.7079C103.582 59.6082 104.051 59.3691 104.351 59.1513C104.659 58.9286 105.107 58.4482 105.306 58.1274C105.781 57.3639 106 56.5299 106 55.4891C106 54.6235 105.824 53.8644 105.466 53.1851C104.822 51.9612 103.744 51.2543 102.336 51.133C101.988 51.103 99.722 51.0946 99.6953 51.1231ZM55.5431 51.9663C54.5836 52.1503 53.7592 52.8153 53.31 53.7677C53.1825 54.0381 53.0432 54.523 52.9982 54.8533C52.9418 55.268 52.9605 56.0522 53.0352 56.3973C53.1435 56.898 53.2794 57.2435 53.5175 57.6238C53.9879 58.3751 54.6477 58.853 55.469 59.0373C55.7349 59.097 56.275 59.1169 56.5844 59.0785C57.6437 58.9468 58.5227 58.2724 59.0004 57.225C59.5153 56.096 59.4621 54.5729 58.8713 53.527C58.4019 52.6962 57.6327 52.128 56.7558 51.9645C56.4781 51.9128 55.8172 51.9137 55.5431 51.9663ZM83.864 51.9656C83.2305 52.0848 82.7018 52.3825 82.2321 52.8846C81.8558 53.2869 81.6147 53.7066 81.4448 54.2555C81.3202 54.6579 81.2771 54.9774 81.277 55.4999C81.2768 56.1739 81.3703 56.6674 81.5942 57.1732C81.9794 58.044 82.6894 58.711 83.4937 58.9579C84.1537 59.1606 84.9643 59.1446 85.5801 58.917C86.3018 58.6501 86.9421 58.0341 87.2938 57.2683C87.5199 56.7757 87.615 56.3951 87.652 55.8334C87.7363 54.5538 87.3585 53.4781 86.5618 52.7291C86.1453 52.3375 85.6161 52.0651 85.0768 51.9645C84.8015 51.9132 84.1392 51.9138 83.864 51.9656ZM93.2819 51.9646C92.851 52.0481 92.4849 52.2065 92.1124 52.4706C91.4229 52.9597 90.956 53.7164 90.7592 54.6637C90.6864 55.0143 90.6806 55.929 90.7489 56.2908C91.0175 57.7138 91.907 58.7229 93.1603 59.0263C93.6201 59.1376 94.3132 59.1188 94.7911 58.9821C95.7705 58.7019 96.5594 57.8836 96.9021 56.7924C97.0567 56.3003 97.1212 55.5952 97.0634 55.0287C96.9545 53.9596 96.4531 53.0316 95.6927 52.4917C95.301 52.2135 94.9111 52.0441 94.4761 51.963C94.2113 51.9137 93.5405 51.9146 93.2819 51.9646ZM100.518 55.5136V59.0021L101.5 58.9898C102.386 58.9788 102.505 58.9721 102.721 58.921C104.036 58.6106 104.858 57.6935 105.101 56.2653C105.172 55.8516 105.161 55.0467 105.08 54.6422C104.804 53.2735 104.015 52.4174 102.728 52.0922C102.587 52.0564 102.37 52.0464 101.537 52.0368L100.518 52.0252V55.5136ZM22.2221 54.2443V56.4105L22.8208 56.4104C23.5213 56.4103 23.7827 56.3824 24.0849 56.2752C24.3704 56.174 24.566 56.0455 24.7653 55.8282C24.9601 55.6158 25.0693 55.4257 25.1621 55.1373C25.2656 54.816 25.2916 54.5832 25.2768 54.1143C25.2618 53.6407 25.2169 53.4349 25.0552 53.0989C24.9136 52.8045 24.6079 52.4778 24.3325 52.3264C23.9473 52.1147 23.8672 52.1004 22.9937 52.0886L22.2221 52.0781V54.2443ZM62.864 54.2494V56.4166L63.5986 56.4033C64.2413 56.3916 64.3595 56.3829 64.5431 56.3334C64.9944 56.2117 65.3697 55.9348 65.605 55.5496C65.9903 54.9192 66.0286 53.806 65.6889 53.1114C65.422 52.5657 64.9703 52.2254 64.3595 52.1098C64.2789 52.0945 63.9095 52.082 63.5385 52.082H62.864V54.2494Z" fill="#040404"/>
<path d="M5.99951 51.5587C5.99951 51.3288 6.00697 51.1328 6.01608 51.123C6.02519 51.1133 7.25576 51.1084 8.75065 51.1121L11.4686 51.1188L11.4754 51.5477L11.4822 51.9765H10.3088H9.13531V55.9355V59.8944H8.71556H8.29581V55.9355V51.9765H7.14766H5.99951V51.5587Z" fill="#040404"/>
</g>
<defs>
<clipPath id="clip0_3607_43948">
<rect width="100" height="9" fill="white" transform="translate(6 51)"/>
</clipPath>
</defs>
</svg>
