<svg width="112" height="112" viewBox="0 0 112 112" fill="none" xmlns="http://www.w3.org/2000/svg">
<path d="M53.7948 46.6048V35.2424C53.7948 35.213 53.7948 35.1846 53.7948 35.1551C53.7948 30.4095 55.2997 27.4406 57.6155 27.4406C60.2787 27.4406 61.4361 30.4969 61.4361 35.1551C61.4361 35.1846 61.4361 35.213 61.4361 35.2424H61.4372V53.4184C62.8363 54.7508 64.2103 56.1085 65.5581 57.4925V42.9622C65.5581 42.9328 65.5581 42.9043 65.5581 42.8749C65.5581 38.1293 67.064 35.1603 69.3788 35.1603C72.042 35.1603 73.1994 38.2167 73.1994 42.8749C73.1994 42.9043 73.1994 42.9328 73.1994 42.9622H73.2005V65.9384C74.3662 67.3266 75.5079 68.7348 76.6255 70.1641V42.4876H76.6224C76.6224 42.4107 76.6255 42.335 76.6255 42.2571C76.6255 35.4298 74.0345 31.4062 69.5745 31.4062C67.7243 31.4062 66.0971 32.1261 64.8392 33.5111C64.5891 27.3111 62.042 23.6875 57.8112 23.6875C53.5803 23.6875 50.3865 27.589 50.3677 34.7688V43.8326C51.523 44.7409 52.6647 45.666 53.7927 46.6058L53.7948 46.6048Z" fill="#231F20"/>
<path d="M53.7992 46.609H41.4739C41.4478 46.609 41.4227 46.609 41.3975 46.609C37.2985 46.609 34.6091 47.6393 34.6091 50.0095C34.6091 52.0702 37.2221 53.4099 41.3975 53.4099C41.4237 53.4099 41.4488 53.4099 41.4739 53.4099H61.43C58.9624 51.0598 56.4185 48.7907 53.8002 46.6079L53.7992 46.609Z" fill="#231F20"/>
<path d="M65.5708 57.504H52.0118C51.9794 57.504 51.949 57.504 51.9166 57.504C46.8423 57.504 43.5125 58.7796 43.5125 61.7138C43.5125 64.266 46.7471 65.9236 51.9166 65.9236C51.949 65.9236 51.9794 65.9236 52.0118 65.9236H73.1912C70.754 63.0231 68.2111 60.2151 65.5708 57.5029V57.504Z" fill="#231F20"/>
<path d="M36.317 74.878V76.9798H40.7038V78.4311H34.6082V70.1641H40.5887V71.6154H36.317V73.4035H40.1617V74.878H36.317Z" fill="#231F20"/>
<path d="M44.4095 78.6279C43.5399 78.6279 42.843 78.3417 42.3197 77.7691C41.8038 77.204 41.5464 76.4336 41.5464 75.459C41.5464 74.4844 41.8049 73.714 42.3197 73.1488C42.843 72.5763 43.5399 72.29 44.4095 72.29C45.1713 72.29 45.7908 72.4858 46.268 72.8763C46.7452 73.2667 47.0445 73.8182 47.168 74.5307H45.5753C45.3984 73.8887 45.0165 73.5667 44.4325 73.5667C44.0171 73.5667 43.6937 73.7319 43.4625 74.0603C43.2312 74.3897 43.1161 74.8559 43.1161 75.459C43.1161 76.0621 43.2312 76.5293 43.4625 76.8577C43.6937 77.1871 44.016 77.3513 44.4325 77.3513C45.0102 77.3513 45.39 77.0219 45.5753 76.3641H47.168C47.0445 77.0766 46.741 77.6313 46.2555 78.0302C45.771 78.429 45.1546 78.6279 44.4085 78.6279H44.4095Z" fill="#231F20"/>
<path d="M53.1137 77.7228C52.5518 78.3269 51.8203 78.629 50.9203 78.629C50.0204 78.629 49.2889 78.3269 48.727 77.7228C48.1577 77.1271 47.873 76.3725 47.873 75.459C47.873 74.5455 48.1577 73.7951 48.727 73.1836C49.2962 72.5879 50.0277 72.29 50.9203 72.29C51.813 72.29 52.5445 72.5879 53.1137 73.1836C53.683 73.7951 53.9676 74.5539 53.9676 75.459C53.9676 76.3641 53.683 77.1271 53.1137 77.7228ZM49.4427 75.459C49.4427 76.04 49.5777 76.4999 49.8467 76.8409C50.1156 77.1819 50.4746 77.3524 50.9203 77.3524C51.3661 77.3524 51.7355 77.1819 52.0055 76.8409C52.2671 76.5083 52.398 76.0473 52.398 75.459C52.398 74.8707 52.2671 74.4097 52.0055 74.0771C51.7355 73.7372 51.3745 73.5656 50.9203 73.5656C50.4662 73.5656 50.1156 73.7361 49.8467 74.0771C49.5777 74.4181 49.4427 74.878 49.4427 75.459Z" fill="#231F20"/>
<path d="M38.9949 86.0698L40.2538 81.2158H42.69V89.4829H41.0962V86.3823L41.293 82.342L40.7268 84.8384L39.5265 89.4829H37.7831L36.5588 84.7573L35.9926 82.3304L36.1894 86.3823V89.4829H34.6082V81.2158H37.0098L38.2907 86.0698L38.6255 87.7179L38.9949 86.0698Z" fill="#231F20"/>
<path d="M49.062 88.7746C48.5 89.3787 47.7685 89.6808 46.8686 89.6808C45.9686 89.6808 45.2372 89.3787 44.6752 88.7746C44.1059 88.1789 43.8213 87.4243 43.8213 86.5107C43.8213 85.5972 44.1059 84.8468 44.6752 84.2353C45.2445 83.6396 45.976 83.3418 46.8686 83.3418C47.7612 83.3418 48.4927 83.6396 49.062 84.2353C49.6313 84.8468 49.9159 85.6056 49.9159 86.5107C49.9159 87.4159 49.6313 88.1789 49.062 88.7746ZM45.391 86.5107C45.391 87.0917 45.526 87.5516 45.7949 87.8926C46.0639 88.2336 46.4217 88.4041 46.8686 88.4041C47.3154 88.4041 47.6848 88.2336 47.9538 87.8926C48.2154 87.56 48.3462 87.0991 48.3462 86.5107C48.3462 85.9224 48.2154 85.4615 47.9538 85.1289C47.6848 84.7889 47.3228 84.6174 46.8686 84.6174C46.4144 84.6174 46.0649 84.7879 45.7949 85.1289C45.526 85.4699 45.391 85.9298 45.391 86.5107Z" fill="#231F20"/>
<path d="M54.8228 84.0964V81.2169H56.4511V89.484H55.008L54.9504 88.7409C54.5423 89.3682 53.9657 89.6818 53.2185 89.6818C52.4714 89.6818 51.8487 89.384 51.3715 88.7883C50.8944 88.1926 50.6558 87.418 50.6558 86.4655C50.6558 85.5131 50.887 84.7627 51.3485 84.1901C51.81 83.626 52.3918 83.3429 53.0919 83.3429C53.8381 83.3429 54.4157 83.5944 54.8238 84.0975L54.8228 84.0964ZM53.5649 88.241C53.9574 88.241 54.2786 88.0779 54.5287 87.7537C54.7788 87.4296 54.9044 86.9991 54.9044 86.4645C54.9044 85.9298 54.7809 85.5025 54.535 85.1815C54.288 84.8605 53.9657 84.6995 53.5649 84.6995C53.1641 84.6995 52.8408 84.8605 52.5949 85.1815C52.3489 85.5025 52.2255 85.9309 52.2255 86.4645C52.2255 86.9981 52.3489 87.4285 52.5949 87.7537C52.8408 88.079 53.1641 88.241 53.5649 88.241Z" fill="#231F20"/>
<path d="M61.496 86.697V83.4923H63.1232V89.484H61.5305L61.5075 88.6715C61.1224 89.3135 60.55 89.6345 59.7871 89.6345C59.1718 89.6345 58.6915 89.445 58.3493 89.0651C58.0071 88.6862 57.8354 88.1673 57.8354 87.5095V83.4923H59.4637V87.138C59.4637 87.4632 59.5391 87.7148 59.6887 87.8926C59.8384 88.0705 60.0519 88.16 60.3292 88.16C60.6756 88.16 60.956 88.0263 61.1716 87.76C61.3871 87.4927 61.4949 87.1391 61.4949 86.697H61.496Z" fill="#231F20"/>
<path d="M66.1361 89.484H64.5078V81.2169H66.1361V89.484Z" fill="#231F20"/>
<path d="M72.7969 89.484H71.1466C71.0619 89.0967 71.019 88.8956 71.019 88.8799C70.5962 89.3987 69.984 89.6576 69.1835 89.6576C68.5598 89.6576 68.0596 89.4913 67.6828 89.1588C67.3051 88.8262 67.1167 88.3852 67.1167 87.8348C67.1167 86.8676 67.7205 86.2634 68.9292 86.0235L71.0075 85.6057V85.1647C71.0075 84.7311 70.6726 84.5143 70.0028 84.5143C69.6722 84.5143 69.4221 84.5764 69.2525 84.6995C69.083 84.8237 68.9794 85.0247 68.9407 85.3036L67.4516 85.2805C67.551 83.9954 68.3986 83.3534 69.9913 83.3534C71.7075 83.3534 72.5656 84.0964 72.5656 85.5825V88.2294C72.5656 88.7946 72.6431 89.2124 72.7969 89.484ZM69.646 88.4505C70.0541 88.4505 70.3827 88.3284 70.6328 88.0852C70.8829 87.8411 71.0085 87.5106 71.0085 87.0928V86.6518L69.4848 86.977C68.9689 87.078 68.7105 87.3296 68.7105 87.7316C68.7105 87.9484 68.7931 88.1221 68.9595 88.2536C69.1249 88.3852 69.354 88.4515 69.646 88.4515V88.4505Z" fill="#231F20"/>
<path d="M76.8727 83.284C77.0652 83.284 77.2379 83.3114 77.3917 83.3651V84.8627C77.1918 84.8469 77.0799 84.8395 77.0568 84.8395C76.0711 84.8395 75.5792 85.4163 75.5792 86.5698V89.484H73.9509V83.4924H75.5447L75.5217 84.2933C75.7833 83.6197 76.2333 83.283 76.8727 83.283V83.284Z" fill="#231F20"/>
</svg>
