<svg width="38" height="54" viewBox="0 0 38 54" fill="none" xmlns="http://www.w3.org/2000/svg">
<path fill-rule="evenodd" clip-rule="evenodd" d="M17.5997 0.865826C16.7271 0.993769 16.2035 1.10509 15.6585 1.27884C12.8286 2.18093 10.6633 4.32604 9.60971 7.2714C9.19914 8.41915 9.09796 9.18235 9.14399 10.7837C9.17854 11.9834 9.21601 12.3144 9.38327 12.8955C9.92973 14.7938 10.5816 15.9395 11.8516 17.234C12.5989 17.9956 13.2342 18.4983 13.8727 18.8328C14.3117 19.0627 14.3222 19.0014 13.9075 18.6319C13.0888 17.9026 12.6113 17.2234 12.0992 16.0599C10.6085 12.6725 11.1699 9.54518 13.7255 7.00132C14.0478 6.68041 14.4809 6.28329 14.688 6.11894C14.895 5.95451 15.0643 5.78903 15.0643 5.75133C15.0643 5.71354 14.9217 5.37544 14.7474 4.99997C14.5731 4.62457 14.4305 4.26417 14.4305 4.19923C14.4305 3.94026 16.1617 3.90264 17.3226 4.13623C18.5365 4.3806 20.0735 5.03832 20.7991 5.62387L21.1065 5.87197L21.0627 6.48517C20.9773 7.68068 20.4047 9.23011 19.5896 10.4713C19.1784 11.0975 18.2 12.236 18.1333 12.1658C18.1121 12.1435 17.9097 11.7877 17.6837 11.3753C17.4576 10.9628 17.2463 10.6253 17.2139 10.6253C17.1425 10.6253 16.5634 11.2474 16.1194 11.801C15.6681 12.3636 15.0267 13.5528 14.7895 14.2664C14.5553 14.9709 14.3512 16.014 14.3512 16.5063V16.8559L14.9181 17.2416C15.6165 17.7167 16.6183 18.1619 17.5601 18.4158C18.1626 18.5783 18.4655 18.6084 19.5141 18.6098C20.1966 18.6108 20.7819 18.5842 20.8149 18.5506C20.8479 18.5171 20.835 18.4077 20.7865 18.3074C20.5563 17.8326 20.2143 17.0297 20.2143 16.9642C20.2143 16.9239 20.4372 16.7427 20.7095 16.5614C22.396 15.4389 23.4417 13.8341 23.9433 11.5983C24.1415 10.7146 24.0245 8.44761 23.7361 7.58485C23.5952 7.1634 23.2971 6.42161 23.1658 6.16597C22.3688 4.61379 21.0347 3.34717 19.5776 2.75951C19.0441 2.54432 17.9583 2.27547 17.6195 2.27474C17.4778 2.27441 17.362 2.23298 17.362 2.18271C17.362 2.02509 19.1976 2.1746 20.0453 2.40122C21.6083 2.8191 22.5826 3.39209 23.7496 4.57949C24.5355 5.37917 25.0073 6.03154 25.5532 7.07389C26.6404 9.14968 26.8163 12.3421 25.9745 14.7225C25.4854 16.1057 24.2637 17.7836 23.1063 18.6617C22.9755 18.7609 22.8329 18.8751 22.7894 18.9155C22.684 19.0131 23.1523 18.8087 23.3044 18.6907C23.3697 18.64 23.5964 18.4973 23.8081 18.3736C24.2755 18.1004 25.2042 17.2098 25.7866 16.4762C26.6899 15.3385 27.4039 13.788 27.6676 12.391C28.1513 9.82879 27.6506 7.19048 26.2918 5.14202C25.7587 4.33836 25.6807 4.23985 25.11 3.64895C23.6674 2.15523 21.7448 1.19006 19.6342 0.89996C19.0475 0.819286 18.0333 0.802342 17.5997 0.865826ZM4.85323 13.8336C4.63819 14.1134 4.57481 14.6196 4.63716 15.5594C4.86178 18.9445 5.33963 21.0295 6.40172 23.2595C7.52371 25.6149 9.42907 27.2237 12.3704 28.2993C13.6753 28.7765 14.8511 28.9725 16.4634 28.9819C17.2111 28.9862 17.8517 28.9605 17.8869 28.9249C17.9221 28.8892 17.9652 28.4981 17.9826 28.0557C18.0309 26.8239 17.7453 25.8443 16.9146 24.3925C16.5299 23.7202 16.2933 23.4118 15.5467 22.6094C14.8375 21.8472 14.3695 21.5266 12.4893 20.5149C11.2161 19.8299 10.6661 19.4285 9.87973 18.6105C9.09202 17.7913 8.88316 17.6912 8.60894 18.0012C8.41617 18.2193 8.46744 19.3076 8.68738 19.6666C8.86462 19.9559 9.48912 20.7343 9.72721 20.9625C10.4016 21.6093 10.7608 21.8902 11.4755 22.3299C11.9643 22.6305 12.5497 23.224 12.7122 23.5835C12.8313 23.8473 12.6865 23.9195 12.0355 23.9211C10.8561 23.9238 9.59593 23.1379 8.70489 21.8441C8.55538 21.627 8.40936 21.3946 8.38036 21.3278C8.35136 21.2609 8.2364 21.0419 8.12484 20.8413C7.64288 19.9739 6.84114 17.7015 6.10809 15.1252C5.88355 14.3361 5.77437 14.0987 5.51299 13.8313C5.25707 13.5694 5.05582 13.5701 4.85323 13.8336ZM31.2139 13.9086C31.0246 14.1138 30.8907 14.3867 30.7635 14.8252C30.202 16.7621 29.911 17.6696 29.4452 18.9359C29.3468 19.2035 29.2004 19.6048 29.12 19.8278C29.0395 20.0508 28.839 20.4845 28.6744 20.7917C28.5098 21.0989 28.3752 21.3638 28.3752 21.3804C28.3752 21.4356 27.8136 22.2289 27.5977 22.4788C27.0768 23.0816 26.1618 23.6544 25.4107 23.8479C25.0567 23.9392 24.149 23.9218 24.0515 23.822C23.8518 23.6176 24.8006 22.6044 25.7627 21.9946C26.742 21.3741 27.6528 20.4334 28.0911 19.5897C28.3358 19.1188 28.3772 18.3205 28.1726 18.0216C27.9357 17.6754 27.7021 17.7815 26.8799 18.6091C25.9977 19.497 25.6402 19.7705 24.7064 20.272C23.9353 20.6861 23.201 21.102 22.89 21.3009C22.7274 21.4049 22.5756 21.4899 22.5525 21.4899C22.4402 21.4899 21.7738 22.0478 21.2172 22.6078C20.3037 23.5269 19.4736 24.8784 19.0153 26.1925C18.8609 26.6352 18.8312 26.8817 18.8297 27.733C18.8287 28.2904 18.8534 28.8104 18.8848 28.8884C18.9346 29.0127 19.0628 29.0303 19.9198 29.0303C20.8887 29.0303 22.2722 28.8837 23.0302 28.7006C23.8103 28.5123 25.5077 27.8916 26.1109 27.5741C27.0365 27.0869 27.5269 26.7334 28.7589 25.6655C29.0777 25.3892 29.9858 24.0764 30.3294 23.3953C31.4087 21.2555 32.086 18.147 32.1092 15.2271C32.1172 14.2192 32.1012 14.0721 31.962 13.8807C31.7306 13.5623 31.5261 13.5699 31.2139 13.9086ZM2.16943 31.4399L1.75346 31.4712V32.2776V33.0842H2.50616H3.25886V32.2734V31.4626L3.08059 31.4615C2.9825 31.4609 2.83101 31.4488 2.74385 31.4345C2.6567 31.4202 2.39817 31.4226 2.16943 31.4399ZM3.89271 32.2569C3.89271 32.6971 3.90744 33.0724 3.92543 33.091C3.94341 33.1096 4.27317 33.1065 4.65832 33.0842L5.35848 33.0437V32.2734V31.5032L4.6256 31.4798L3.89271 31.4566V32.2569ZM32.2759 31.954C31.784 32.0532 31.0631 32.4791 30.8091 32.8205C30.4447 33.3104 30.3485 33.8092 30.3734 35.0793L30.3955 36.2058L32.5744 36.2471C33.7728 36.2699 34.814 36.3187 34.8881 36.3557C35.1038 36.4631 35.1845 36.8659 35.2073 37.949L35.2287 38.9625L32.1291 38.9836L29.0297 39.0049L28.975 38.5101C28.9449 38.238 28.9248 37.3163 28.9302 36.462C28.9358 35.6076 28.9379 34.7717 28.935 34.6045L28.9298 34.3004H28.1375H27.3451V36.6517V39.003H26.5528H25.7605V36.78C25.7605 35.5573 25.7389 34.4992 25.7124 34.4287C25.6731 34.3237 25.5222 34.3004 24.8805 34.3004H24.0967V36.6517V39.003H23.027H21.9574V36.6571V34.3112L21.165 34.2855L20.3725 34.2599L20.3726 36.6314L20.3728 39.003H16.6897H13.0068L12.9857 36.672L12.9647 34.3409H11.182H9.39928L9.02285 34.5674C8.09568 35.1251 7.67948 36.0134 7.66633 37.4625C7.65761 38.4154 7.77828 38.9149 8.15566 39.4887C8.39248 39.8488 8.55301 39.9884 8.99488 40.2185L9.54126 40.503L10.3814 40.5435L11.2216 40.584L11.1943 40.7462C11.1536 40.9889 10.6637 41.4105 10.3284 41.4914L10.0331 41.5627L10.0102 42.3214L9.98725 43.0801L10.4611 43.0361C11.4438 42.9449 12.4157 42.2156 12.7516 41.3171C12.847 41.0621 12.9251 40.7837 12.9251 40.6984V40.5435H24.889H36.8529V38.6124C36.8529 36.2274 36.8077 36.0062 36.1794 35.3168C36.0474 35.172 35.7379 34.9781 35.4831 34.8809C35.0726 34.7241 34.8674 34.7058 33.5197 34.7058C31.8319 34.7058 31.8643 34.7181 31.9897 34.1215C32.0352 33.9053 32.1371 33.7307 32.2828 33.6196L32.5063 33.4491L34.0853 33.4227L35.6644 33.3964V32.6322V31.868L34.1392 31.877C33.3004 31.8818 32.4618 31.9165 32.2759 31.954ZM2.82308 34.3714C1.8964 34.6231 1.19607 35.397 0.964241 36.4254C0.854982 36.91 0.865519 38.1599 0.982464 38.5976C1.3482 39.9659 2.38565 40.6336 3.95688 40.5118C4.70435 40.4538 5.1154 40.2803 5.58287 39.8255C6.13329 39.2899 6.3465 38.6419 6.34792 37.4998C6.3499 35.9848 5.89218 35.0681 4.87414 34.5478C4.58344 34.3992 4.3444 34.3521 3.78139 34.3322C3.38507 34.3182 2.95382 34.3359 2.82308 34.3714ZM3.18018 35.7811C2.78846 35.9231 2.60765 36.3449 2.56344 37.2193C2.52311 38.018 2.63333 38.5324 2.90422 38.8096C3.06458 38.9737 3.17115 39.003 3.60819 39.003C4.05782 39.003 4.1495 38.9761 4.33022 38.7911C4.63645 38.4778 4.70039 38.2326 4.69381 37.3965C4.68739 36.5727 4.51729 36.0094 4.22698 35.8504C3.96623 35.7076 3.4727 35.6749 3.18018 35.7811ZM9.9386 35.8788C9.58095 36.0379 9.34358 36.5502 9.29873 37.2598C9.25119 38.0126 9.37163 38.4393 9.72008 38.7524L9.99906 39.003H10.6697H11.3404V37.3814V35.7598L10.766 35.763C10.45 35.7648 10.0777 35.8168 9.9386 35.8788ZM14.5889 44.1889C13.4601 44.3091 12.4014 45.1184 12.2064 46.0101C11.9392 47.2322 12.4906 48.3879 13.597 48.9239C13.8357 49.0396 14.3973 49.2292 14.8448 49.3453C15.9157 49.623 16.3502 49.821 16.5149 50.1064C16.7861 50.5761 16.6219 50.9937 16.064 51.2529C15.3991 51.562 13.7932 51.4123 12.9211 50.9601L12.524 50.7542L12.2095 51.4541C12.0366 51.839 11.8951 52.2024 11.8951 52.2616C11.8951 52.4182 12.6559 52.7618 13.4155 52.9481C14.1445 53.127 15.5543 53.1666 16.1735 53.0256C16.5997 52.9287 17.3618 52.6264 17.3626 52.5541C17.3629 52.5258 17.4795 52.4216 17.6218 52.3224C18.3393 51.8226 18.6566 50.6087 18.3129 49.6785C17.9289 48.6397 17.2509 48.1686 15.3812 47.6413C14.1038 47.2811 13.9551 47.1745 13.9551 46.6189C13.9551 46.1081 14.3741 45.8778 15.302 45.8785C16.0331 45.8791 16.5352 45.9933 17.1447 46.2976L17.6127 46.5312L17.9231 45.8596C18.2826 45.0817 18.2978 44.9634 18.0553 44.8278C17.4463 44.4872 15.7733 44.0703 15.2248 44.1225C15.1584 44.1288 14.8722 44.1587 14.5889 44.1889ZM1.15503 44.3768C1.13253 44.4368 1.12421 46.3992 1.13665 48.7376L1.15923 52.9891L2.01096 53.0122L2.8627 53.0352V51.1271C2.8627 50.0332 2.89352 49.219 2.93488 49.219C2.99969 49.219 3.11093 49.3431 3.49655 49.8458C3.56192 49.931 4.16352 50.6822 4.83342 51.5152L6.05144 53.0297H7.0717C7.76711 53.0297 8.09196 53.001 8.09196 52.9396C8.09196 52.8618 7.67623 52.3098 7.29965 51.8875C7.23428 51.8142 6.77078 51.2514 6.26964 50.6366C5.76851 50.022 5.20795 49.3512 5.02397 49.146C4.84 48.9409 4.68851 48.7104 4.68724 48.634C4.68605 48.5574 4.78596 48.375 4.90924 48.2286C5.49904 47.5281 7.86647 44.4971 7.90585 44.3922C7.94356 44.2915 7.80007 44.2733 6.97139 44.2744C6.43294 44.2751 5.9528 44.3024 5.90455 44.3352C5.81858 44.3935 4.99291 45.4551 4.02938 46.746C3.76308 47.1028 3.52515 47.4129 3.50067 47.4352C3.47611 47.4575 3.35639 47.6126 3.23453 47.7798C3.11275 47.9471 2.97988 48.0839 2.9394 48.0839C2.89661 48.0839 2.85668 47.2923 2.84432 46.1988L2.82308 44.3137L2.00954 44.2906C1.38425 44.2728 1.18656 44.2927 1.15503 44.3768ZM8.9635 48.6486V53.0297H9.74615C10.3102 53.0297 10.5538 52.9988 10.6184 52.9192C10.6831 52.8393 10.7023 51.6303 10.6875 48.5612L10.667 44.3137L9.81524 44.2906L8.9635 44.2676V48.6486ZM19.1051 44.4594C19.1051 44.6519 19.5616 46.7656 20.1678 49.3811C20.5025 50.8246 20.6674 51.5588 20.8501 52.4183C20.8971 52.6394 20.9737 52.8674 21.0204 52.925C21.082 53.0009 21.395 53.0297 22.1599 53.0297C23.0954 53.0297 23.2192 53.0137 23.2563 52.8878C23.3009 52.7371 23.5535 51.2831 23.7457 50.0703C23.8093 49.6689 23.9149 49.0487 23.9804 48.6919C24.0458 48.3352 24.1377 47.8244 24.1847 47.5568C24.2316 47.2893 24.289 47.0156 24.3123 46.9487C24.3611 46.8081 24.4212 47.1325 25.2063 51.7729C25.2968 52.3081 25.3896 52.8098 25.4125 52.8878C25.4497 53.014 25.5753 53.0297 26.552 53.0297H27.6498L27.73 52.7662C27.774 52.6212 27.8871 52.156 27.9812 51.7324C28.0753 51.3088 28.2348 50.5973 28.3355 50.1514C28.4362 49.7054 28.6143 48.9027 28.7312 48.3676C28.8482 47.8325 29.0451 46.9569 29.1687 46.4217C29.2923 45.8866 29.4474 45.2136 29.5132 44.9261C29.5791 44.6386 29.6153 44.3742 29.5937 44.3383C29.572 44.3025 29.1633 44.2731 28.6854 44.2731H27.8166L27.7362 44.4896C27.6919 44.6086 27.5877 45.0556 27.5046 45.4828C27.1069 47.5251 26.6234 49.9196 26.5883 50.0211C26.5667 50.0832 26.5318 50.1163 26.5105 50.0945C26.4893 50.0728 26.3283 49.2375 26.1528 48.2384C25.9772 47.2393 25.7973 46.2211 25.7528 45.9758C25.7084 45.7305 25.642 45.3109 25.6052 45.0434C25.5685 44.7758 25.5128 44.492 25.4817 44.4128L25.425 44.2688L24.3055 44.2912L23.1861 44.3137L23.1267 44.638C23.0804 44.8914 22.4819 48.3906 22.2209 49.9345C22.1525 50.3387 22.077 50.1636 21.8947 49.1784C21.8039 48.6879 21.5491 47.3971 21.3285 46.3101C21.1079 45.223 20.9274 44.32 20.9274 44.3034C20.9274 44.2868 20.5174 44.2731 20.0163 44.2731H19.1051V44.4594ZM32.2937 44.5772C32.2252 44.7444 32.0679 45.1731 31.944 45.5299C31.8201 45.8866 31.4801 46.8352 31.1885 47.6379C30.8968 48.4406 30.3739 49.8803 30.0264 50.8373C29.6789 51.7943 29.3747 52.679 29.3503 52.8035L29.3061 53.0297H30.1754H31.0449L31.3861 52.0968C31.5738 51.5837 31.774 51.1243 31.8309 51.076C31.8999 51.0174 32.4404 50.9973 33.4537 51.0157L34.9731 51.0432L35.3053 51.9409C35.488 52.4345 35.6635 52.8815 35.6952 52.9341C35.7339 52.9981 36.0395 53.0297 36.6199 53.0297C37.0967 53.0297 37.4867 53.0202 37.4867 53.0086C37.4867 52.9779 36.9678 51.4855 36.8738 51.2459C36.7654 50.9696 35.9855 48.8125 35.4227 47.2325C35.1685 46.519 34.884 45.7346 34.7904 45.4893C34.6969 45.2441 34.5813 44.9157 34.5337 44.7596C34.3863 44.2766 34.3779 44.2731 33.3581 44.2731H32.4181L32.2937 44.5772ZM32.9055 47.7323C32.6748 48.3862 32.4658 49.0248 32.4411 49.1513L32.3961 49.3814L33.3568 49.3754C34.2099 49.3699 34.3175 49.3536 34.3175 49.2299C34.3175 49.0035 33.4461 46.5442 33.3657 46.5437C33.3433 46.5435 33.1362 47.0784 32.9055 47.7323Z" fill="#0C0608"/>
</svg>
